<?xml version="1.0" encoding="UTF-8"?>
<svg id="_图层_2" data-name="图层 2" xmlns="http://www.w3.org/2000/svg" viewBox="0 0 210.38 79.98">
  <g id="_图层_7" data-name="图层 7">
    <g>
      <g>
        <ellipse cx="104.74" cy="27.97" rx="104.43" ry="27.66" style="fill: #b7ce45; stroke: #96ab22; stroke-miterlimit: 10; stroke-width: .61px;"/>
        <ellipse cx="62.65" cy="47.1" rx="1.88" ry=".71" style="fill: #fff; stroke-width: 0px;"/>
        <ellipse cx="60.23" cy="44.7" rx="1.88" ry=".71" style="fill: #fff; stroke-width: 0px;"/>
        <ellipse cx="71.33" cy="46.4" rx="1.88" ry=".71" style="fill: #fff; stroke-width: 0px;"/>
        <ellipse cx="64.96" cy="49.22" rx="1.88" ry=".71" style="fill: #fff; stroke-width: 0px;"/>
        <ellipse cx="53.83" cy="47.65" rx="1.88" ry=".71" style="fill: #fff; stroke-width: 0px;"/>
        <ellipse cx="138.12" cy="9.02" rx="1.88" ry=".71" style="fill: #fff; stroke-width: 0px;"/>
        <ellipse cx="155.53" cy="7.85" rx="1.88" ry=".71" style="fill: #fff; stroke-width: 0px;"/>
        <ellipse cx="147.72" cy="46.85" rx="1.88" ry=".71" style="fill: #fff; stroke-width: 0px;"/>
        <ellipse cx="183.6" cy="26.03" rx="1.88" ry=".71" style="fill: #fff; stroke-width: 0px;"/>
        <ellipse cx="189.86" cy="27.44" rx="1.88" ry=".71" style="fill: #fff; stroke-width: 0px;"/>
        <ellipse cx="196.22" cy="29.08" rx="1.88" ry=".71" style="fill: #fff; stroke-width: 0px;"/>
        <polygon points="127.32 9.31 152.44 12.86 165.27 6.49 141.02 3.09 127.32 9.31" style="fill: none; opacity: .99; stroke: #fff; stroke-miterlimit: 10; stroke-width: .31px;"/>
        <polygon points="31.51 31.02 31.51 24.09 4.61 24.09 4.32 31.02 31.51 31.02" style="fill: none; stroke: #fff; stroke-miterlimit: 10; stroke-width: .31px;"/>
        <polygon points="142.28 50.91 167.4 48.09 154.05 42.04 129.7 45.15 142.28 50.91" style="fill: none; stroke: #fff; stroke-miterlimit: 10; stroke-width: .31px;"/>
        <polygon points="43.1 48.35 56.51 42.19 80.82 45.15 67.36 51.69 43.1 48.35" style="fill: none; stroke: #fff; stroke-miterlimit: 10; stroke-width: .31px;"/>
        <polygon points="174.42 31.29 202.26 30.95 202.26 23.8 174.42 23.8 174.42 31.29" style="fill: none; stroke: #fff; stroke-miterlimit: 10; stroke-width: .31px;"/>
        <path d="m89.06,54.27c5.12.2,10.35.3,15.68.3,5.72,0,11.34-.12,16.81-.35l-3.79-5.11h-25.46l-3.25,5.16Z" style="fill: #fff; stroke: #96ab22; stroke-miterlimit: 10; stroke-width: .61px;"/>
        <path d="m179.17,35.76c-.77,2.14-10.27,5.4-10.27,5.4l17.18,4.15c6.48-2.13,11.8-4.52,15.69-7.1l-22.6-2.45Z" style="fill: #fff; stroke: #96ab22; stroke-miterlimit: 10; stroke-width: .61px;"/>
        <path d="m31.51,20.37c.53-2.04,9.59-5.25,9.59-5.25l-18.35-4.29c-6.79,2.27-12.25,4.84-16.09,7.61l24.84,1.93Z" style="fill: #fff; stroke: #96ab22; stroke-miterlimit: 10; stroke-width: .61px;"/>
        <path d="m91.75,7.3h25.1l5.2-6.61c-5.63-.25-11.41-.38-17.31-.38s-12.16.14-18.01.41l5.03,6.58Z" style="fill: #fff; stroke: #96ab22; stroke-miterlimit: 10; stroke-width: .61px;"/>
        <path d="m186.62,10.8l-18.71,4.3c5.5.97,10.9,5,10.9,5l23.32-2.13c-3.81-2.6-9.07-5.01-15.51-7.17Z" style="fill: #fff; stroke: #96ab22; stroke-miterlimit: 10; stroke-width: .61px;"/>
        <polygon points="57.22 13.53 81.37 9.73 67.63 3.13 42.05 7 57.22 13.53" style="fill: none; stroke: #fff; stroke-miterlimit: 10; stroke-width: .31px;"/>
        <ellipse cx="63.69" cy="6.15" rx="1.7" ry=".57" style="fill: #fff; stroke-width: 0px;"/>
        <ellipse cx="66.96" cy="7.59" rx="1.7" ry=".57" style="fill: #fff; stroke-width: 0px;"/>
        <ellipse cx="70.36" cy="9.04" rx="1.7" ry=".57" style="fill: #fff; stroke-width: 0px;"/>
        <ellipse cx="59.15" cy="10.79" rx="1.7" ry=".57" style="fill: #fff; stroke-width: 0px;"/>
        <ellipse cx="56.12" cy="9.33" rx="1.7" ry=".57" style="fill: #fff; stroke-width: 0px;"/>
        <ellipse cx="52.97" cy="7.87" rx="1.7" ry=".57" style="fill: #fff; stroke-width: 0px;"/>
        <ellipse cx="25.68" cy="26.1" rx="1.88" ry=".71" style="fill: #fff; stroke-width: 0px;"/>
        <ellipse cx="25.68" cy="29.36" rx="1.88" ry=".71" style="fill: #fff; stroke-width: 0px;"/>
        <ellipse cx="13" cy="26.1" rx="1.88" ry=".71" style="fill: #fff; stroke-width: 0px;"/>
        <ellipse cx="13" cy="29.36" rx="1.88" ry=".71" style="fill: #fff; stroke-width: 0px;"/>
        <path d="m.31,28.77s2.16,26.48,107.85,26.31c105.7-.17,100.48-29.69,100.48-29.69,0,0,3.23,16.29-.01,30.2,0,0-5.56,21.02-99.54,24.08,0,0-88.75.38-108.02-23.56L.31,28.77Z" style="fill: #b7ce45; stroke: #96ab22; stroke-miterlimit: 10; stroke-width: .61px;"/>
        <path d="m185.5,69.64c7.67-2.41,12.82-4.92,16.26-7.13v-24.97c-3.42,2.78-8.51,5.7-16.08,8.33l-.18,23.77Z" style="fill: #fff; stroke: #96ab22; stroke-miterlimit: 10; stroke-width: .61px;"/>
        <path d="m121.55,54.67c-4.26.12-8.71.19-13.39.2-6.79.01-13.14-.09-19.1-.29v24.51c11.89.62,20.03.59,20.03.59,4.34-.14,8.49-.32,12.46-.54v-24.47Z" style="fill: #fff; stroke: #96ab22; stroke-miterlimit: 10; stroke-width: .62px;"/>
        <path d="m7.27,37.92c4.23,2.9,10.25,5.57,17.71,7.91l16.13-4.42c-3.33-.39-10.51-5.4-10.51-5.4l-23.32,1.91Z" style="fill: #fff; stroke: #96ab22; stroke-miterlimit: 10; stroke-width: .61px;"/>
        <path d="m7.96,62.58c4.44,2.93,10.02,5.38,16.28,7.43l.24-24.04c-7.52-2.5-12.72-5.21-16.29-7.73l-.23,24.33Z" style="fill: #fff; stroke: #96ab22; stroke-miterlimit: 10; stroke-width: .62px;"/>
        <path d="m104.74,9.73c-37.18,0-67.31,7.93-67.31,17.71s30.14,17.71,67.31,17.71,67.31-7.93,67.31-17.71-30.14-17.71-67.31-17.71Zm.31,33.88c-33.39,0-60.46-7.12-60.46-15.91s27.07-15.91,60.46-15.91,60.46,7.12,60.46,15.91-27.07,15.91-60.46,15.91Z" style="fill: #96ab22; stroke-width: 0px;"/>
        <path d="m159.75,17.24l-4.88,1.45c3.39,1.3,6.08,2.73,7.9,4.26l4.34-2.17c-1.94-1.26-4.42-2.44-7.36-3.54Z" style="fill: #fff; stroke-width: 0px;"/>
        <path d="m165.51,27.7c0,.85-.26,1.68-.75,2.49l5.68,1.09c1.04-1.24,1.61-2.53,1.61-3.85,0-.48-.09-.95-.23-1.41h-6.65c.22.55.34,1.11.34,1.67Z" style="fill: #fff; stroke-width: 0px;"/>
        <path d="m159.97,34.35c-1.72.99-3.81,1.92-6.23,2.78l.54,2.3c4.64-1.33,8.51-2.84,11.45-4.5l-5.76-.58Z" style="fill: #fff; stroke-width: 0px;"/>
        <path d="m142.62,40.16c-4.04.85-8.5,1.56-13.29,2.11v1.66c5.06-.52,9.81-1.2,14.18-2.01l-.89-1.76Z" style="fill: #fff; stroke-width: 0px;"/>
        <path d="m112.12,45.05v-1.55c-2.32.07-4.68.11-7.08.11s-4.77-.04-7.1-.11l-.05,1.57c2.25.06,4.54.09,6.85.09,2.5,0,4.96-.04,7.38-.11Z" style="fill: #fff; stroke-width: 0px;"/>
        <path d="m80.82,42.28c-4.38-.5-8.49-1.14-12.25-1.89l-.93,1.83c4.1.71,8.52,1.31,13.19,1.78v-1.72Z" style="fill: #fff; stroke-width: 0px;"/>
        <path d="m56.24,37.09c-2.27-.82-4.26-1.69-5.91-2.62l-5.58,1c3.03,1.56,6.91,2.99,11.5,4.25v-2.63Z" style="fill: #fff; stroke-width: 0px;"/>
        <path d="m130.1,13.23c5.17.62,9.94,1.42,14.2,2.38v-2.49c-4.28-.82-8.93-1.51-13.89-2.05l-.31,2.16Z" style="fill: #fff; stroke-width: 0px;"/>
        <path d="m42.05,20.99l5.09,2.13c1.57-1.37,3.82-2.67,6.65-3.86l-2.67-2.53c-3.73,1.29-6.79,2.72-9.08,4.26Z" style="fill: #fff; stroke-width: 0px;"/>
        <path d="m44.59,27.7c0-.36.06-.72.15-1.08l-7.15-.38c-.1.4-.17.79-.17,1.19,0,1.41.65,2.78,1.83,4.1l6.77-.39c-.94-1.11-1.45-2.27-1.45-3.46Z" style="fill: #fff; stroke-width: 0px;"/>
        <path d="m64.69,13.21v2.65c4.3-1.01,9.15-1.87,14.43-2.53l-1.26-2.13c-4.69.54-9.11,1.21-13.17,2Z" style="fill: #fff; stroke-width: 0px;"/>
        <path d="m96.38,9.87v2.09c2.83-.11,5.72-.17,8.67-.17,2.42,0,4.8.04,7.15.11v-2.07c-2.45-.07-4.94-.11-7.46-.11-2.83,0-5.62.05-8.36.14Z" style="fill: #fff; stroke-width: 0px;"/>
      </g>
      <g>
        <path d="m60.91,29.78l8.32-3.86c.5-.23.89-.52,1.17-.86s.49-.78.63-1.34c.16-.62.1-1.06-.18-1.33s-.8-.41-1.56-.41c-.69,0-1.25.14-1.69.42s-.73.69-.89,1.24l-.49,1.7h-3.68l.41-1.32c.4-1.29,1.18-2.22,2.33-2.79s2.76-.85,4.87-.85c1.89,0,3.25.26,4.09.77s1.15,1.29.92,2.34-1.36,2.13-3.37,3.11l-.09.05-6.33,3.14h6.16l.21-.88h2.25l-.63,2.83h-13.06l.61-1.95Zm-.81,2.58h13.75l.76-3.46,1.15,1.14-.77,3.69h-13.21l-1.67-1.37Zm2.27-6.44h4.29l.57-2.04c.15-.52.36-.87.65-1.06s.72-.28,1.3-.28c.52,0,.88.08,1.07.25s.24.44.14.82l-.07.26c-.2-.05-.36-.09-.49-.11s-.25-.03-.35-.03c-.38,0-.63.05-.77.14s-.24.28-.31.54l-.39,1.44-2.8,1.32h-1.6l-1.25-1.25Zm5.42,3.25l5.46-2.73c.68-.34,1.23-.77,1.66-1.27s.7-1.04.83-1.64c.1-.44.11-.84.04-1.18s-.23-.69-.49-1.05l1.15,1.22c.22.24.37.49.43.75s.06.57-.01.92c-.15.7-.46,1.3-.93,1.81s-1.37,1.11-2.69,1.8l-2.63,1.36h-2.81Z" style="fill: #fff; stroke-width: 0px;"/>
        <path d="m77.67,28.6h4.29c-.09.56.04.99.39,1.3s.88.46,1.6.46,1.29-.18,1.73-.53.69-.85.78-1.5c.1-.71-.04-1.24-.4-1.59s-.94-.52-1.75-.52c-.38,0-.77.04-1.14.13s-.76.22-1.15.41h-3.52l1.19-6.08h10.62l-.2,1.7h-7.34l-.49,2.87c.62-.22,1.2-.38,1.74-.49s1.05-.16,1.54-.16c1.69,0,2.99.33,3.89.99s1.32,1.57,1.2,2.73c-.13,1.24-.78,2.18-1.94,2.82s-2.86.96-5.06.96-3.79-.29-4.76-.87-1.37-1.46-1.21-2.64Zm.71-1.25h3.96c.28-.19.57-.32.88-.41s.64-.13,1-.13c.59,0,1.02.11,1.27.33s.34.56.28,1.03v.08c-.21-.07-.41-.12-.61-.15s-.43-.05-.66-.05c-.21,0-.41.02-.61.06s-.4.1-.58.18l-.38-.29h-3.85l-.68-.66Zm11.76-2l1.59,1.35c.33.27.56.58.69.93s.18.79.13,1.29c-.14,1.48-.94,2.71-2.42,3.69s-3.37,1.49-5.6,1.49c-1.05,0-1.99-.11-2.8-.34s-1.49-.57-2.04-1.02l-1.16-.92c.57.33,1.25.56,2.03.7s1.83.22,3.15.22c2.35,0,4.18-.39,5.48-1.15s1.99-1.86,2.14-3.29c.06-.59-.01-1.13-.21-1.62s-.53-.92-.98-1.32Zm-7.12-.88l.25-1.54h7.36l.25-2.25,1.18,1.1-.24,2.35h-6.21c-.53,0-1,.03-1.4.08s-.8.14-1.19.25Zm-.42,4.12l1.3,1.08h-.19c-.41,0-.71-.09-.9-.28s-.26-.45-.21-.8Z" style="fill: #fff; stroke-width: 0px;"/>
        <path d="m93.11,34.48h3.62l2.98-4.7.93,1.03-3.18,5.11h-2.5l-1.84-1.44Zm2.06-4.7h3.78l-2.61,4.06h-2.91l1.74-4.06Z" style="fill: #fff; stroke-width: 0px;"/>
        <path d="m114.95,26.01c.15,2.18-.24,3.76-1.17,4.68s-2.67,1.41-5.17,1.41-4.25-.47-5.23-1.4-1.41-2.49-1.36-4.69.56-3.58,1.5-4.4,2.54-1.21,4.84-1.21,3.92.4,4.89,1.21,1.55,2.27,1.69,4.39Zm-1.58-5.02l1.62,1.19c.68.5,1.19,1.1,1.51,1.78s.54,1.64.64,2.84c.19,2.36-.31,4.18-1.55,5.43s-3.23,1.91-5.91,1.91c-.78,0-1.48-.08-2.1-.24s-1.14-.39-1.56-.69l-1.72-1.26c.43.27.98.46,1.65.58s1.59.18,2.79.18c2.65,0,4.51-.53,5.56-1.57s1.47-2.73,1.3-5.05c-.09-1.3-.32-2.34-.67-3.13s-.87-1.44-1.56-1.98Zm-7.3,5.03c0,1.61.19,2.73.57,3.36s1.03.94,1.93.94,1.53-.32,1.89-.96.5-1.75.44-3.34-.28-2.62-.66-3.2-.99-.85-1.84-.85-1.46.28-1.81.84-.53,1.63-.52,3.2Zm2.35,3.73c-.64-.08-1.09-.37-1.35-.87s-.39-1.37-.4-2.61c-.01-1.57.11-2.58.37-3.06s.71-.72,1.37-.72c.46,0,.85.14,1.15.42s.48.66.55,1.15c-.24-.13-.44-.23-.61-.29s-.33-.09-.48-.09c-.38,0-.64.12-.78.36s-.2.83-.19,1.77v.31c.01.48.05,1.01.11,1.6s.15,1.27.27,2.03Z" style="fill: #fff; stroke-width: 0px;"/>
        <path d="m131.03,26.01c.4,2.18.2,3.76-.63,4.68s-2.5,1.41-5,1.41-4.31-.47-5.39-1.4-1.7-2.49-1.9-4.69.14-3.58.99-4.4,2.4-1.21,4.7-1.21,3.96.4,5.03,1.21,1.81,2.27,2.2,4.39Zm-2.16-5.02l1.76,1.19c.74.5,1.31,1.1,1.71,1.78s.73,1.64.97,2.84c.47,2.36.17,4.18-.92,5.43s-3.01,1.91-5.69,1.91c-.78,0-1.49-.08-2.13-.24s-1.19-.39-1.64-.69l-1.87-1.26c.47.27,1.04.46,1.71.58s1.61.18,2.81.18c2.65,0,4.45-.53,5.38-1.57s1.15-2.73.72-5.05c-.24-1.3-.59-2.34-1.03-3.13s-1.03-1.44-1.79-1.98Zm-6.71,5.03c.19,1.61.51,2.73.96,3.36s1.13.94,2.04.94,1.5-.32,1.78-.96.29-1.75.05-3.34-.58-2.62-1.03-3.2-1.09-.85-1.94-.85-1.43.28-1.71.84-.34,1.63-.15,3.2Zm2.78,3.73c-.65-.08-1.13-.37-1.45-.87s-.55-1.37-.7-2.61c-.19-1.57-.19-2.58.01-3.06s.63-.72,1.29-.72c.46,0,.86.14,1.2.42s.56.66.68,1.15c-.25-.13-.47-.23-.65-.29s-.34-.09-.49-.09c-.38,0-.63.12-.74.36s-.11.83.02,1.77l.04.31c.06.48.16,1.01.29,1.6s.3,1.27.51,2.03Z" style="fill: #fff; stroke-width: 0px;"/>
        <path d="m147.12,26.01c.65,2.18.63,3.76-.08,4.68s-2.34,1.41-4.84,1.41-4.36-.47-5.55-1.4c-1.18-.92-1.99-2.49-2.44-4.69s-.27-3.58.48-4.4,2.26-1.21,4.56-1.21,4.01.4,5.17,1.21,2.07,2.27,2.71,4.39Zm-2.74-5.02l1.9,1.19c.8.5,1.44,1.1,1.92,1.78s.92,1.64,1.3,2.84c.74,2.36.66,4.18-.29,5.43s-2.79,1.91-5.47,1.91c-.78,0-1.5-.08-2.16-.24s-1.23-.39-1.72-.69l-2.02-1.26c.5.27,1.09.46,1.78.58s1.63.18,2.83.18c2.65,0,4.38-.53,5.2-1.57s.84-2.73.13-5.05c-.4-1.3-.86-2.34-1.39-3.13s-1.2-1.44-2.02-1.98Zm-6.13,5.03c.38,1.61.83,2.73,1.35,3.36s1.24.94,2.15.94,1.46-.32,1.67-.96.09-1.75-.34-3.34-.89-2.62-1.4-3.2-1.19-.85-2.04-.85-1.39.28-1.61.84-.15,1.63.22,3.2Zm3.22,3.73c-.65-.08-1.17-.37-1.55-.87s-.71-1.37-1.01-2.61c-.37-1.57-.49-2.58-.34-3.06s.54-.72,1.21-.72c.46,0,.88.14,1.24.42s.64.66.81,1.15c-.27-.13-.49-.23-.68-.29s-.35-.09-.5-.09c-.38,0-.62.12-.7.36s-.01.83.22,1.77l.08.31c.12.48.28,1.01.47,1.6s.45,1.27.74,2.03Z" style="fill: #fff; stroke-width: 0px;"/>
      </g>
    </g>
  </g>
</svg>