<?xml version="1.0" encoding="UTF-8"?>
<svg id="_图层_2" data-name="图层 2" xmlns="http://www.w3.org/2000/svg" viewBox="0 0 210.38 79.98">
  <g id="_图层_7" data-name="图层 7">
    <g>
      <g>
        <path d="m.83,28.84s2.15,26.45,107.59,26.28c105.43-.17,100.23-29.65,100.23-29.65,0,0,3.22,16.26-.01,30.16,0,0-5.55,20.99-99.29,24.05,0,0-88.53.38-107.75-23.53l-.76-27.3Z" style="fill: #b7ce45; stroke: #96ab22; stroke-miterlimit: 10; stroke-width: .61px;"/>
        <ellipse cx="105.45" cy="27.98" rx="103.7" ry="27.67" style="fill: #b7ce45; stroke: #96ab22; stroke-miterlimit: 10; stroke-width: .61px;"/>
        <rect x="90.42" y="2.11" width="27.39" height="6.98" style="fill: none; stroke: #fff; stroke-miterlimit: 10; stroke-width: .31px;"/>
        <ellipse cx="99.23" cy="4.15" rx="1.84" ry=".47" style="fill: #fff; stroke-width: 0px;"/>
        <ellipse cx="99.23" cy="5.85" rx="1.84" ry=".47" style="fill: #fff; stroke-width: 0px;"/>
        <ellipse cx="99.34" cy="7.52" rx="1.84" ry=".47" style="fill: #fff; stroke-width: 0px;"/>
        <ellipse cx="112.16" cy="3.97" rx="1.84" ry=".47" style="fill: #fff; stroke-width: 0px;"/>
        <ellipse cx="112.16" cy="5.85" rx="1.84" ry=".47" style="fill: #fff; stroke-width: 0px;"/>
        <ellipse cx="112.16" cy="7.52" rx="1.84" ry=".47" style="fill: #fff; stroke-width: 0px;"/>
        <polygon points="11.9 37.54 36.99 33.99 51.41 40.37 27.96 43.42 11.9 37.54" style="fill: none; stroke: #fff; stroke-miterlimit: 10; stroke-width: .31px;"/>
        <ellipse cx="33.89" cy="36.6" rx="1.94" ry=".57" style="fill: #fff; stroke-width: 0px;"/>
        <ellipse cx="31.34" cy="38.86" rx="1.94" ry=".57" style="fill: #fff; stroke-width: 0px;"/>
        <ellipse cx="29.04" cy="41" rx="1.94" ry=".57" style="fill: #fff; stroke-width: 0px;"/>
        <ellipse cx="22.59" cy="38.29" rx="1.94" ry=".57" style="fill: #fff; stroke-width: 0px;"/>
        <ellipse cx="40.29" cy="39.66" rx="1.94" ry=".57" style="fill: #fff; stroke-width: 0px;"/>
        <path d="m67.71,2.11l7.87,5.82s-18.3,2.19-20.61,3.46l-16.39-4.74s19.53-4.36,29.14-4.54Z" style="fill: #fff; stroke: #96ab22; stroke-miterlimit: 10; stroke-width: .61px;"/>
        <path d="m143.64,2.41l-7.87,5.82s18.3,2.19,20.61,3.46l16.39-4.74s-19.53-4.36-29.14-4.54Z" style="fill: #fff; stroke: #96ab22; stroke-miterlimit: 10; stroke-width: .61px;"/>
        <path d="m207.22,32.97l-21.97-1.05s2.04-4.28,0-7.13l23.26-.07s1.36,4.3-1.29,8.25Z" style="fill: #fff; stroke: #96ab22; stroke-miterlimit: 10; stroke-width: .62px;"/>
        <path d="m156.2,44.9c-2.55,1.15-21.77,3.23-21.77,3.23l7.63,5.31v.28c16.32-.14,24.58-2.31,28.15-3.66l-14.01-5.15Z" style="fill: #fff; stroke: #96ab22; stroke-miterlimit: 10; stroke-width: .61px;"/>
        <path d="m142.05,53.71v23.92s17.71-.83,28.54-3.82v-23.62l-.39-.14c-3.57,1.35-11.83,3.52-28.15,3.66Z" style="fill: #fff; stroke: #96ab22; stroke-miterlimit: 10; stroke-width: .61px;"/>
        <path d="m68.18,53.09v24.54c-11.08-1.2-20.52-2.92-28.5-4.86v-23.31c7.8,1.49,17.2,2.75,28.5,3.62Z" style="fill: #fff; stroke: #96ab22; stroke-miterlimit: 10; stroke-width: .61px;"/>
        <path d="m39.68,49.47h0s15.04-4.57,15.04-4.57c0,0,19.91,3.92,22,3.23,2.09-.69-8.54,4.97-8.54,4.97,0,0-23.06-2.49-28.5-3.63" style="fill: #fff; stroke: #96ab22; stroke-miterlimit: 10; stroke-width: .61px;"/>
        <path d="m3.58,32.72l22.39-1.01s-2.08-4.15,0-6.92l-23.71-.07s-1.39,4.17,1.32,8Z" style="fill: #fff; stroke: #96ab22; stroke-miterlimit: 10; stroke-width: .61px;"/>
        <path d="m2.26,24.72s-4.16,8.88-.36,31.3c0,0,.18-23.24,1.67-23.3,0,0-1.7-5.84-1.32-8Z" style="fill: #fff; stroke: #96ab22; stroke-miterlimit: 10; stroke-width: .61px;"/>
        <path d="m105.24,10.8c-37.02,0-67.02,7.69-67.02,17.17s30.01,17.17,67.02,17.17,67.02-7.69,67.02-17.17-30.01-17.17-67.02-17.17Zm.37,33.17c-34.01,0-61.58-7.18-61.58-16.04s27.57-16.04,61.58-16.04,61.58,7.18,61.58,16.04-27.57,16.04-61.58,16.04Z" style="fill: #96ab22; stroke-width: 0px;"/>
        <path d="m160.6,35.16c-1.64.84-3.55,1.64-5.71,2.39l.13,1.92c4.34-1.23,7.98-2.62,10.79-4.14l-5.21-.18Z" style="fill: #fff; stroke-width: 0px;"/>
        <path d="m167.19,28.03c0,1.12-.44,2.21-1.28,3.26l4.92.32c.93-1.14,1.43-2.32,1.43-3.54,0-.4-.06-.79-.16-1.19h-5.07c.1.38.16.76.16,1.14Z" style="fill: #fff; stroke-width: 0px;"/>
        <path d="m131.27,13.43c5.23.62,10.06,1.42,14.38,2.37l.21-1.43c-4.4-.85-9.21-1.57-14.36-2.12l-.23,1.18Z" style="fill: #fff; stroke-width: 0px;"/>
        <path d="m97.5,10.96v1.12c2.65-.09,5.36-.14,8.11-.14s5.65.05,8.39.15v-1.09c-2.87-.1-5.79-.15-8.76-.15-2.62,0-5.2.04-7.74.11Z" style="fill: #fff; stroke-width: 0px;"/>
        <path d="m159.51,17.98l-3.45.84c3.68,1.38,6.56,2.91,8.45,4.56l3.62-1.23c-2.13-1.5-5.05-2.9-8.62-4.16Z" style="fill: #fff; stroke-width: 0px;"/>
        <path d="m44.04,27.93c0-.46.08-.92.23-1.37h-5.82c-.15.47-.23.94-.23,1.41,0,1.29.56,2.54,1.61,3.75l5.55-.46c-.87-1.08-1.33-2.19-1.33-3.33Z" style="fill: #fff; stroke-width: 0px;"/>
        <path d="m56.12,37.48c-2.47-.87-4.61-1.8-6.37-2.79l-5.17.6c2.96,1.61,6.87,3.08,11.54,4.37v-2.18Z" style="fill: #fff; stroke-width: 0px;"/>
        <path d="m81.35,42.68c-4.37-.49-8.47-1.1-12.25-1.83l-1.92,1.26c4.41.78,9.2,1.43,14.28,1.92l-.11-1.36Z" style="fill: #fff; stroke-width: 0px;"/>
        <path d="m112.92,45.04v-1.18c-2.4.07-4.84.11-7.31.11s-4.8-.04-7.14-.11l-.05,1.2c2.24.06,4.51.09,6.81.09,2.6,0,5.16-.04,7.68-.11Z" style="fill: #fff; stroke-width: 0px;"/>
        <path d="m65.88,14.08l-.05,1.62c4.22-.93,8.94-1.72,14.03-2.33l-.9-1.19c-4.65.51-9.03,1.15-13.07,1.9Z" style="fill: #fff; stroke-width: 0px;"/>
        <path d="m43.73,21.14l3.19,1.93c1.75-1.44,4.26-2.78,7.4-4.01l-3.26-1.19c-2.89,1.01-5.35,2.11-7.32,3.28Z" style="fill: #fff; stroke-width: 0px;"/>
        <path d="m142.22,40.83c-3.77.73-7.87,1.34-12.23,1.83v1.27c4.77-.49,9.26-1.11,13.42-1.85l-1.2-1.26Z" style="fill: #fff; stroke-width: 0px;"/>
        <polygon points="90.44 53.37 117.8 53.09 117.8 46.15 90.44 46.15 90.44 53.37" style="fill: none; stroke: #fff; stroke-miterlimit: 10; stroke-width: .31px;"/>
        <ellipse cx="105.61" cy="49.92" rx="2.15" ry=".53" style="fill: #fff; stroke-width: 0px;"/>
        <polygon points="11.9 17.87 25.45 12.02 50.35 15.21 37.09 21.18 11.9 17.87" style="fill: none; stroke: #fff; stroke-miterlimit: 10; stroke-width: .31px;"/>
        <ellipse cx="29.03" cy="14.5" rx="1.94" ry=".57" style="fill: #fff; stroke-width: 0px;"/>
        <ellipse cx="22.77" cy="17.51" rx="1.94" ry=".57" style="fill: #fff; stroke-width: 0px;"/>
        <ellipse cx="33.89" cy="19.04" rx="1.94" ry=".57" style="fill: #fff; stroke-width: 0px;"/>
        <ellipse cx="40.16" cy="16.23" rx="1.94" ry=".57" style="fill: #fff; stroke-width: 0px;"/>
        <polygon points="175.5 21.25 199.06 17.98 186.04 11.9 160.35 14.97 175.5 21.25" style="fill: none; stroke: #fff; stroke-miterlimit: 10; stroke-width: .31px;"/>
        <ellipse cx="171.2" cy="16.24" rx="2.11" ry=".67" style="fill: #fff; stroke-width: 0px;"/>
        <ellipse cx="188.55" cy="17.49" rx="2.11" ry=".67" style="fill: #fff; stroke-width: 0px;"/>
        <polygon points="174.05 33.68 198.37 37.32 185.25 43.36 160.85 39.84 174.05 33.68" style="fill: none; stroke: #fff; stroke-miterlimit: 10; stroke-width: .31px;"/>
        <ellipse cx="177.46" cy="36.56" rx="2.15" ry=".65" style="fill: #fff; stroke-width: 0px;"/>
        <ellipse cx="179.78" cy="38.95" rx="2.15" ry=".65" style="fill: #fff; stroke-width: 0px;"/>
        <ellipse cx="182.15" cy="41.18" rx="2.15" ry=".65" style="fill: #fff; stroke-width: 0px;"/>
        <path d="m207.65,33.84s2.98-4.18,1.31,22.48c0,0,2.51-23.67.01-30.27,0,0-.54,6.72-1.32,7.79Z" style="fill: #fff; stroke: #96ab22; stroke-miterlimit: 10; stroke-width: .6px;"/>
      </g>
      <g>
        <path d="m62.73,29.73l8.32-3.86c.5-.23.89-.52,1.17-.86s.49-.78.63-1.34c.16-.62.1-1.06-.18-1.33s-.8-.41-1.56-.41c-.69,0-1.25.14-1.69.42s-.73.69-.89,1.24l-.49,1.7h-3.68l.41-1.32c.4-1.29,1.18-2.22,2.33-2.79s2.76-.85,4.87-.85c1.89,0,3.25.26,4.09.77s1.15,1.29.92,2.34-1.36,2.13-3.37,3.11l-.09.05-6.33,3.14h6.16l.21-.88h2.25l-.63,2.83h-13.06l.61-1.95Zm-.81,2.58h13.75l.76-3.46,1.15,1.14-.77,3.69h-13.21l-1.67-1.37Zm2.27-6.44h4.29l.57-2.04c.15-.52.36-.87.65-1.06s.72-.28,1.3-.28c.52,0,.88.08,1.07.25s.24.44.14.82l-.07.26c-.2-.05-.36-.09-.49-.11s-.25-.03-.35-.03c-.38,0-.63.05-.77.14s-.24.28-.31.54l-.39,1.44-2.8,1.32h-1.6l-1.25-1.25Zm5.42,3.25l5.46-2.73c.68-.34,1.23-.77,1.66-1.27s.7-1.04.83-1.64c.1-.44.11-.84.04-1.18s-.23-.69-.49-1.05l1.15,1.22c.22.24.37.49.43.75s.06.57-.01.92c-.15.7-.46,1.3-.93,1.81s-1.37,1.11-2.69,1.8l-2.63,1.36h-2.81Z" style="fill: #fff; stroke-width: 0px;"/>
        <path d="m79.49,28.56h4.29c-.09.56.04.99.39,1.3s.88.46,1.6.46,1.29-.18,1.73-.53.69-.85.78-1.5c.1-.71-.04-1.24-.4-1.59s-.94-.52-1.75-.52c-.38,0-.77.04-1.14.13s-.76.22-1.15.41h-3.52l1.19-6.08h10.62l-.2,1.7h-7.34l-.49,2.87c.62-.22,1.2-.38,1.74-.49s1.05-.16,1.54-.16c1.69,0,2.99.33,3.89.99s1.32,1.57,1.2,2.73c-.13,1.24-.78,2.18-1.94,2.82s-2.86.96-5.06.96-3.79-.29-4.76-.87-1.37-1.46-1.21-2.64Zm.71-1.25h3.96c.28-.19.57-.32.88-.41s.64-.13,1-.13c.59,0,1.02.11,1.27.33s.34.56.28,1.03v.08c-.21-.07-.41-.12-.61-.15s-.43-.05-.66-.05c-.21,0-.41.02-.61.06s-.4.1-.58.18l-.38-.29h-3.85l-.68-.66Zm11.76-2l1.59,1.35c.33.27.56.58.69.93s.18.79.13,1.29c-.14,1.48-.94,2.71-2.42,3.69s-3.37,1.49-5.6,1.49c-1.05,0-1.99-.11-2.8-.34s-1.49-.57-2.04-1.02l-1.16-.92c.57.33,1.25.56,2.03.7s1.83.22,3.15.22c2.35,0,4.18-.39,5.48-1.15s1.99-1.86,2.14-3.29c.06-.59-.01-1.13-.21-1.62s-.53-.92-.98-1.32Zm-7.12-.88l.25-1.54h7.36l.25-2.25,1.18,1.1-.24,2.35h-6.21c-.53,0-1,.03-1.4.08s-.8.14-1.19.25Zm-.42,4.12l1.3,1.08h-.19c-.41,0-.71-.09-.9-.28s-.26-.45-.21-.8Z" style="fill: #fff; stroke-width: 0px;"/>
        <path d="m94.92,34.44h3.62l2.98-4.7.93,1.03-3.18,5.11h-2.5l-1.84-1.44Zm2.06-4.7h3.78l-2.61,4.06h-2.91l1.74-4.06Z" style="fill: #fff; stroke-width: 0px;"/>
        <path d="m116.77,25.97c.15,2.18-.24,3.76-1.17,4.68s-2.67,1.41-5.17,1.41-4.25-.47-5.23-1.4-1.41-2.49-1.36-4.69.56-3.58,1.5-4.4,2.54-1.21,4.84-1.21,3.92.4,4.89,1.21,1.55,2.27,1.69,4.39Zm-1.58-5.02l1.62,1.19c.68.5,1.19,1.1,1.51,1.78s.54,1.64.64,2.84c.19,2.36-.31,4.18-1.55,5.43s-3.23,1.91-5.91,1.91c-.78,0-1.48-.08-2.1-.24s-1.14-.39-1.56-.69l-1.72-1.26c.43.27.98.46,1.65.58s1.59.18,2.79.18c2.65,0,4.51-.53,5.56-1.57s1.47-2.73,1.3-5.05c-.09-1.3-.32-2.34-.67-3.13s-.87-1.44-1.56-1.98Zm-7.3,5.03c0,1.61.19,2.73.57,3.36s1.03.94,1.93.94,1.53-.32,1.89-.96.5-1.75.44-3.34-.28-2.62-.66-3.2-.99-.85-1.84-.85-1.46.28-1.81.84-.53,1.63-.52,3.2Zm2.35,3.73c-.64-.08-1.09-.37-1.35-.87s-.39-1.37-.4-2.61c-.01-1.57.11-2.58.37-3.06s.71-.72,1.37-.72c.46,0,.85.14,1.15.42s.48.66.55,1.15c-.24-.13-.44-.23-.61-.29s-.33-.09-.48-.09c-.38,0-.64.12-.78.36s-.2.83-.19,1.77v.31c.01.48.05,1.01.11,1.6s.15,1.27.27,2.03Z" style="fill: #fff; stroke-width: 0px;"/>
        <path d="m132.85,25.97c.4,2.18.2,3.76-.63,4.68s-2.5,1.41-5,1.41-4.31-.47-5.39-1.4-1.7-2.49-1.9-4.69.14-3.58.99-4.4,2.4-1.21,4.7-1.21,3.96.4,5.03,1.21,1.81,2.27,2.2,4.39Zm-2.16-5.02l1.76,1.19c.74.5,1.31,1.1,1.71,1.78s.73,1.64.97,2.84c.47,2.36.17,4.18-.92,5.43s-3.01,1.91-5.69,1.91c-.78,0-1.49-.08-2.13-.24s-1.19-.39-1.64-.69l-1.87-1.26c.47.27,1.04.46,1.71.58s1.61.18,2.81.18c2.65,0,4.45-.53,5.38-1.57s1.15-2.73.72-5.05c-.24-1.3-.59-2.34-1.03-3.13s-1.03-1.44-1.79-1.98Zm-6.71,5.03c.19,1.61.51,2.73.96,3.36s1.13.94,2.04.94,1.5-.32,1.78-.96.29-1.75.05-3.34-.58-2.62-1.03-3.2-1.09-.85-1.94-.85-1.43.28-1.71.84-.34,1.63-.15,3.2Zm2.78,3.73c-.65-.08-1.13-.37-1.45-.87s-.55-1.37-.7-2.61c-.19-1.57-.19-2.58.01-3.06s.63-.72,1.29-.72c.46,0,.86.14,1.2.42s.56.66.68,1.15c-.25-.13-.47-.23-.65-.29s-.34-.09-.49-.09c-.38,0-.63.12-.74.36s-.11.83.02,1.77l.04.31c.06.48.16,1.01.29,1.6s.3,1.27.51,2.03Z" style="fill: #fff; stroke-width: 0px;"/>
        <path d="m148.93,25.97c.65,2.18.63,3.76-.08,4.68s-2.34,1.41-4.84,1.41-4.36-.47-5.55-1.4c-1.18-.92-1.99-2.49-2.44-4.69s-.27-3.58.48-4.4,2.26-1.21,4.56-1.21,4.01.4,5.17,1.21,2.07,2.27,2.71,4.39Zm-2.74-5.02l1.9,1.19c.8.5,1.44,1.1,1.92,1.78s.92,1.64,1.3,2.84c.74,2.36.66,4.18-.29,5.43s-2.79,1.91-5.47,1.91c-.78,0-1.5-.08-2.16-.24s-1.23-.39-1.72-.69l-2.02-1.26c.5.27,1.09.46,1.78.58s1.63.18,2.83.18c2.65,0,4.38-.53,5.2-1.57s.84-2.73.13-5.05c-.4-1.3-.86-2.34-1.39-3.13s-1.2-1.44-2.02-1.98Zm-6.13,5.03c.38,1.61.83,2.73,1.35,3.36s1.24.94,2.15.94,1.46-.32,1.67-.96.09-1.75-.34-3.34-.89-2.62-1.4-3.2-1.19-.85-2.04-.85-1.39.28-1.61.84-.15,1.63.22,3.2Zm3.22,3.73c-.65-.08-1.17-.37-1.55-.87s-.71-1.37-1.01-2.61c-.37-1.57-.49-2.58-.34-3.06s.54-.72,1.21-.72c.46,0,.88.14,1.24.42s.64.66.81,1.15c-.27-.13-.49-.23-.68-.29s-.35-.09-.5-.09c-.38,0-.62.12-.7.36s-.01.83.22,1.77l.08.31c.12.48.28,1.01.47,1.6s.45,1.27.74,2.03Z" style="fill: #fff; stroke-width: 0px;"/>
      </g>
    </g>
  </g>
</svg>