<?xml version="1.0" encoding="UTF-8"?>
<svg id="_图层_2" data-name="图层 2" xmlns="http://www.w3.org/2000/svg" viewBox="0 0 210.38 79.93">
  <g id="_图层_7" data-name="图层 7">
    <g>
      <g>
        <ellipse cx="104.67" cy="27.8" rx="104.37" ry="27.55" style="fill: #b7ce45; stroke: #96ab22; stroke-miterlimit: 10; stroke-width: .51px;"/>
        <path d="m104.57,9.57c-36.85,0-66.72,8.05-66.72,17.98s29.87,17.98,66.72,17.98,66.72-8.05,66.72-17.98-29.87-17.98-66.72-17.98Zm.32,33.95c-33.7,0-61.02-7.04-61.02-15.73s27.32-15.73,61.02-15.73,61.02,7.04,61.02,15.73-27.32,15.73-61.02,15.73Z" style="fill: #96ab22; stroke-width: 0px;"/>
        <path d="m133.67,41.66c-3.74.52-7.72.94-11.88,1.25l-.3,2.04c5.15-.36,10.06-.89,14.64-1.55-.75-.53-1.66-1.17-2.46-1.74Z" style="fill: #fff; stroke-width: 0px;"/>
        <path d="m157.48,35.77c-2.44,1.07-5.36,2.05-8.67,2.94l.16,2.27c5.09-1.22,9.47-2.65,12.98-4.24l-4.46-.97Z" style="fill: #fff; stroke-width: 0px;"/>
        <path d="m43.87,27.79c0-1.24.55-2.44,1.6-3.59l-6.23-.31c-.91,1.18-1.39,2.41-1.39,3.67,0,.49.08.98.22,1.47h5.98c-.12-.41-.18-.81-.18-1.23Z" style="fill: #fff; stroke-width: 0px;"/>
        <path d="m165.88,28.28c-.21,1.79-1.58,3.5-3.92,5.08l5.48.22c2.2-1.67,3.52-3.45,3.8-5.3h-5.36Z" style="fill: #fff; stroke-width: 0px;"/>
        <path d="m163.66,19.19l-5.07,1.12c2.81,1.34,4.89,2.79,6.1,4.33l5.34-.59c-1.26-1.72-3.43-3.35-6.37-4.86Z" style="fill: #fff; stroke-width: 0px;"/>
        <path d="m136.96,14.4c5.3.85,10.06,1.89,14.12,3.11l-.17-2.9c-3.48-.91-7.32-1.71-11.46-2.4l-2.48,2.19Z" style="fill: #fff; stroke-width: 0px;"/>
        <path d="m104.67,12.06c.07,0,.14,0,.22,0,5.75,0,11.31.21,16.58.59l-.7-2.54c-4.67-.31-9.52-.5-14.52-.53l-1.57,2.49Z" style="fill: #fff; stroke-width: 0px;"/>
        <path d="m47.14,18.39l2.64,2.63c2.7-1.46,6.24-2.79,10.46-3.96l-3.82-1.96c-3.54.99-6.65,2.1-9.28,3.29Z" style="fill: #fff; stroke-width: 0px;"/>
        <path d="m72.24,11.82l-.31,2.73c4.79-.79,10.03-1.42,15.61-1.84l-1.53-2.43c-4.84.38-9.46.9-13.78,1.54Z" style="fill: #fff; stroke-width: 0px;"/>
        <path d="m103.77,43.52c-4.48-.02-8.85-.17-13.04-.42l-1.74,1.95c4.93.32,10.08.49,15.37.49l-.58-2.02Z" style="fill: #fff; stroke-width: 0px;"/>
        <path d="m72.99,41.2c-3.69-.59-7.13-1.27-10.25-2.04l-3.17,1.66c4.23,1.04,8.96,1.94,14.09,2.66l-.66-2.29Z" style="fill: #fff; stroke-width: 0px;"/>
        <path d="m49.4,37.66l2.94-1.88c-2.39-1.04-4.34-2.16-5.75-3.35l-5.5.65c1.97,1.64,4.78,3.18,8.31,4.57Z" style="fill: #fff; stroke-width: 0px;"/>
        <path d="m62.02,9.57l23.45-2.32-5.18-6.23c-10.95.69-21.23,1.84-30.53,3.36l12.26,5.2Z" style="fill: #fff; stroke: #96ab22; stroke-miterlimit: 10; stroke-width: .51px;"/>
        <path d="m154.57,3.6l-10.55,5.96s13,1.39,18.89,3.88l17.8-4.51c-7.56-2.12-16.37-3.93-26.14-5.33Z" style="fill: #fff; stroke: #96ab22; stroke-miterlimit: 10; stroke-width: .51px;"/>
        <path d="m182.63,33.59l22.04,2.12c2.84-2.5,4.37-5.16,4.37-7.91,0-.08,0-.15-.01-.22l-24.01.22s.29,3.31-2.39,5.78Z" style="fill: #fff; stroke: #96ab22; stroke-miterlimit: 10; stroke-width: .51px;"/>
        <path d="m146.99,46.27c-12.92,2.93-23.26,2.42-23.26,2.42l4.82,5.94c10.56-.65,20.5-1.73,29.56-3.16l-11.12-5.2Z" style="fill: #fff; stroke: #96ab22; stroke-miterlimit: 10; stroke-width: .51px;"/>
        <path d="m31.18,47.12c7.39,1.95,15.89,3.6,25.22,4.9l9.68-5.4c-9.26-.29-19.16-3.71-19.16-3.71l-15.74,4.21Z" style="fill: #fff; stroke: #96ab22; stroke-miterlimit: 10; stroke-width: .51px;"/>
        <path d="m.31,27.8c0,.2.01.39.03.59l24.31-.17s.24-3.86,3.3-5.91l-23.98-1.76c-2.38,2.31-3.66,4.74-3.66,7.25Z" style="fill: #fff; stroke: #96ab22; stroke-miterlimit: 10; stroke-width: .51px;"/>
        <path d="m.31,28.42s2.16,26.64,107.85,26.47c105.7-.17,100.48-29.87,100.48-29.87,0,0,3.23,16.38-.01,30.38,0,0-5.56,21.14-99.54,24.22,0,0-88.75.38-108.02-23.7L.31,28.42Z" style="fill: #fff; opacity: .5; stroke: #231815; stroke-miterlimit: 10; stroke-width: .61px;"/>
        <path d="m.31,28.42s2.16,26.64,107.85,26.47c105.7-.17,100.48-29.87,100.48-29.87,0,0,3.23,16.38-.01,30.38,0,0-5.56,21.14-99.54,24.22,0,0-88.75.38-108.02-23.7L.31,28.42Z" style="fill: #b7ce45; stroke: #96ab22; stroke-miterlimit: 10; stroke-width: .61px;"/>
        <path d="m55.83,52.14c-10.08-1.33-18.23-3.05-24.82-4.96-.22,1.93-.07,17.04.01,23.64,7.77,2.24,16.33,3.91,24.81,5.16v-23.83Z" style="fill: #fff; stroke: #96ab22; stroke-miterlimit: 10; stroke-width: .6px;"/>
        <polygon points="81.24 46.27 109.82 47.18 107.3 53.96 77.22 53.23 81.24 46.27" style="fill: none; stroke: #fff; stroke-miterlimit: 10; stroke-width: .16px;"/>
        <ellipse cx="101.03" cy="48.43" rx="1.61" ry=".49" style="fill: #fff; stroke-width: 0px;"/>
        <ellipse cx="99.31" cy="51.8" rx="1.61" ry=".49" style="fill: #fff; stroke-width: 0px;"/>
        <ellipse cx="93.92" cy="49.89" rx="1.61" ry=".49" style="fill: #fff; stroke-width: 0px;"/>
        <ellipse cx="88.22" cy="47.94" rx="1.61" ry=".49" style="fill: #fff; stroke-width: 0px;"/>
        <ellipse cx="86.62" cy="51.32" rx="1.61" ry=".49" style="fill: #fff; stroke-width: 0px;"/>
        <ellipse cx="29.55" cy="34.07" rx="1.61" ry=".49" style="fill: #fff; stroke-width: 0px;"/>
        <ellipse cx="34.24" cy="37.04" rx="1.61" ry=".49" style="fill: #fff; stroke-width: 0px;"/>
        <ellipse cx="22.61" cy="38.35" rx="1.61" ry=".49" style="fill: #fff; stroke-width: 0px;"/>
        <ellipse cx="17.68" cy="35.07" rx="1.61" ry=".49" style="fill: #fff; stroke-width: 0px;"/>
        <polygon points="9.4 34.07 19.29 40.93 45.01 38.35 34.76 31.21 9.4 34.07" style="fill: none; stroke: #fff; stroke-miterlimit: 10; stroke-width: .16px;"/>
        <ellipse cx="38.27" cy="16.12" rx="1.61" ry=".49" style="fill: #fff; stroke-width: 0px;"/>
        <ellipse cx="33.1" cy="15.1" rx="1.61" ry=".49" style="fill: #fff; stroke-width: 0px;"/>
        <ellipse cx="28.14" cy="14.13" rx="1.61" ry=".49" style="fill: #fff; stroke-width: 0px;"/>
        <ellipse cx="35.85" cy="11.47" rx="1.61" ry=".49" style="fill: #fff; stroke-width: 0px;"/>
        <ellipse cx="40.89" cy="12.44" rx="1.61" ry=".49" style="fill: #fff; stroke-width: 0px;"/>
        <ellipse cx="45.98" cy="13.41" rx="1.61" ry=".49" style="fill: #fff; stroke-width: 0px;"/>
        <polygon points="18.1 13.89 39.88 18.39 55.62 12.68 33.6 8.72 18.1 13.89" style="fill: none; stroke: #fff; stroke-miterlimit: 10; stroke-width: .16px;"/>
        <path d="m102.96,1.01l-3.54,6.98,27.04,1.03s3.35-6.98,3.35-7.08-26.85-.92-26.85-.92Z" style="fill: none; stroke: #fff; stroke-miterlimit: 10; stroke-width: .16px;"/>
        <ellipse cx="108.65" cy="6.6" rx="1.61" ry=".49" style="fill: #fff; stroke-width: 0px;"/>
        <ellipse cx="123.07" cy="3.68" rx="1.61" ry=".49" style="fill: #fff; stroke-width: 0px;"/>
        <ellipse cx="175.28" cy="17.99" rx="1.61" ry=".49" style="fill: #fff; stroke-width: 0px;"/>
        <ellipse cx="183.6" cy="18.68" rx="1.61" ry=".49" style="fill: #fff; stroke-width: 0px;"/>
        <ellipse cx="191.94" cy="19.68" rx="1.61" ry=".49" style="fill: #fff; stroke-width: 0px;"/>
        <polygon points="166.59 16.49 191.36 13.85 202.49 20.16 176.88 23.38 166.59 16.49" style="fill: none; stroke: #fff; stroke-miterlimit: 10; stroke-width: .16px;"/>
        <polygon points="153.14 41.57 169.65 35.77 191.67 40.15 175.4 45.77 153.14 41.57" style="fill: none; stroke: #fff; stroke-miterlimit: 10; stroke-width: .16px;"/>
        <ellipse cx="172.4" cy="41.25" rx="1.61" ry=".49" style="fill: #fff; stroke-width: 0px;"/>
        <path d="m128.81,78.61c11.33-.8,21.02-1.92,29.3-3.22v-23.67c-8.28,1.23-17.97,2.17-29.3,2.69v24.19Z" style="fill: #fff; stroke: #96ab22; stroke-miterlimit: 10; stroke-width: .61px;"/>
        <path d="m208.45,27.63c-.41,1.84-1.5,4.49-4.32,7.43.6,3.23,1.68,11.59.3,25.37,3.64-2.94,4.18-5.02,4.18-5.02.06-.25.11-.5.16-.74.13-7,.28-20.29-.33-27.04Z" style="fill: #fff; stroke: #96ab22; stroke-miterlimit: 10; stroke-width: .61px;"/>
      </g>
      <g>
        <path d="m60.76,29.43l8.32-3.86c.5-.23.89-.52,1.17-.86s.49-.78.63-1.34c.16-.62.1-1.06-.18-1.33s-.8-.41-1.56-.41c-.69,0-1.25.14-1.69.42s-.73.69-.89,1.24l-.49,1.7h-3.68l.41-1.32c.4-1.29,1.18-2.22,2.33-2.79s2.76-.85,4.87-.85c1.89,0,3.25.26,4.09.77s1.15,1.29.92,2.34-1.36,2.13-3.37,3.11l-.09.05-6.33,3.14h6.16l.21-.88h2.25l-.63,2.83h-13.06l.61-1.95Zm-.81,2.58h13.75l.76-3.46,1.15,1.14-.77,3.69h-13.21l-1.67-1.37Zm2.27-6.44h4.29l.57-2.04c.15-.52.36-.87.65-1.06s.72-.28,1.3-.28c.52,0,.88.08,1.07.25s.24.44.14.82l-.07.26c-.2-.05-.36-.09-.49-.11s-.25-.03-.35-.03c-.38,0-.63.05-.77.14s-.24.28-.31.54l-.39,1.44-2.8,1.32h-1.6l-1.25-1.25Zm5.42,3.25l5.46-2.73c.68-.34,1.23-.77,1.66-1.27s.7-1.04.83-1.64c.1-.44.11-.84.04-1.18s-.23-.69-.49-1.05l1.15,1.22c.22.24.37.49.43.75s.06.57-.01.92c-.15.7-.46,1.3-.93,1.81s-1.37,1.11-2.69,1.8l-2.63,1.36h-2.81Z" style="fill: #fff; stroke-width: 0px;"/>
        <path d="m77.51,28.26h4.29c-.09.56.04.99.39,1.3s.88.46,1.6.46,1.29-.18,1.73-.53.69-.85.78-1.5c.1-.71-.04-1.24-.4-1.59s-.94-.52-1.75-.52c-.38,0-.77.04-1.14.13s-.76.22-1.15.41h-3.52l1.19-6.08h10.62l-.2,1.7h-7.34l-.49,2.87c.62-.22,1.2-.38,1.74-.49s1.05-.16,1.54-.16c1.69,0,2.99.33,3.89.99s1.32,1.57,1.2,2.73c-.13,1.24-.78,2.18-1.94,2.82s-2.86.96-5.06.96-3.79-.29-4.76-.87-1.37-1.46-1.21-2.64Zm.71-1.25h3.96c.28-.19.57-.32.88-.41s.64-.13,1-.13c.59,0,1.02.11,1.27.33s.34.56.28,1.03v.08c-.21-.07-.41-.12-.61-.15s-.43-.05-.66-.05c-.21,0-.41.02-.61.06s-.4.1-.58.18l-.38-.29h-3.85l-.68-.66Zm11.76-2l1.59,1.35c.33.27.56.58.69.93s.18.79.13,1.29c-.14,1.48-.94,2.71-2.42,3.69s-3.37,1.49-5.6,1.49c-1.05,0-1.99-.11-2.8-.34s-1.49-.57-2.04-1.02l-1.16-.92c.57.33,1.25.56,2.03.7s1.83.22,3.15.22c2.35,0,4.18-.39,5.48-1.15s1.99-1.86,2.14-3.29c.06-.59-.01-1.13-.21-1.62s-.53-.92-.98-1.32Zm-7.12-.88l.25-1.54h7.36l.25-2.25,1.18,1.1-.24,2.35h-6.21c-.53,0-1,.03-1.4.08s-.8.14-1.19.25Zm-.42,4.12l1.3,1.08h-.19c-.41,0-.71-.09-.9-.28s-.26-.45-.21-.8Z" style="fill: #fff; stroke-width: 0px;"/>
        <path d="m92.95,34.14h3.62l2.98-4.7.93,1.03-3.18,5.11h-2.5l-1.84-1.44Zm2.06-4.7h3.78l-2.61,4.06h-2.91l1.74-4.06Z" style="fill: #fff; stroke-width: 0px;"/>
        <path d="m114.79,25.67c.15,2.18-.24,3.76-1.17,4.68s-2.67,1.41-5.17,1.41-4.25-.47-5.23-1.4-1.41-2.49-1.36-4.69.56-3.58,1.5-4.4,2.54-1.21,4.84-1.21,3.92.4,4.89,1.21,1.55,2.27,1.69,4.39Zm-1.58-5.02l1.62,1.19c.68.5,1.19,1.1,1.51,1.78s.54,1.64.64,2.84c.19,2.36-.31,4.18-1.55,5.43s-3.23,1.91-5.91,1.91c-.78,0-1.48-.08-2.1-.24s-1.14-.39-1.56-.69l-1.72-1.26c.43.27.98.46,1.65.58s1.59.18,2.79.18c2.65,0,4.51-.53,5.56-1.57s1.47-2.73,1.3-5.05c-.09-1.3-.32-2.34-.67-3.13s-.87-1.44-1.56-1.98Zm-7.3,5.03c0,1.61.19,2.73.57,3.36s1.03.94,1.93.94,1.53-.32,1.89-.96.5-1.75.44-3.34-.28-2.62-.66-3.2-.99-.85-1.84-.85-1.46.28-1.81.84-.53,1.63-.52,3.2Zm2.35,3.73c-.64-.08-1.09-.37-1.35-.87s-.39-1.37-.4-2.61c-.01-1.57.11-2.58.37-3.06s.71-.72,1.37-.72c.46,0,.85.14,1.15.42s.48.66.55,1.15c-.24-.13-.44-.23-.61-.29s-.33-.09-.48-.09c-.38,0-.64.12-.78.36s-.2.83-.19,1.77v.31c.01.48.05,1.01.11,1.6s.15,1.27.27,2.03Z" style="fill: #fff; stroke-width: 0px;"/>
        <path d="m130.87,25.67c.4,2.18.2,3.76-.63,4.68s-2.5,1.41-5,1.41-4.31-.47-5.39-1.4-1.7-2.49-1.9-4.69.14-3.58.99-4.4,2.4-1.21,4.7-1.21,3.96.4,5.03,1.21,1.81,2.27,2.2,4.39Zm-2.16-5.02l1.76,1.19c.74.5,1.31,1.1,1.71,1.78s.73,1.64.97,2.84c.47,2.36.17,4.18-.92,5.43s-3.01,1.91-5.69,1.91c-.78,0-1.49-.08-2.13-.24s-1.19-.39-1.64-.69l-1.87-1.26c.47.27,1.04.46,1.71.58s1.61.18,2.81.18c2.65,0,4.45-.53,5.38-1.57s1.15-2.73.72-5.05c-.24-1.3-.59-2.34-1.03-3.13s-1.03-1.44-1.79-1.98Zm-6.71,5.03c.19,1.61.51,2.73.96,3.36s1.13.94,2.04.94,1.5-.32,1.78-.96.29-1.75.05-3.34-.58-2.62-1.03-3.2-1.09-.85-1.94-.85-1.43.28-1.71.84-.34,1.63-.15,3.2Zm2.78,3.73c-.65-.08-1.13-.37-1.45-.87s-.55-1.37-.7-2.61c-.19-1.57-.19-2.58.01-3.06s.63-.72,1.29-.72c.46,0,.86.14,1.2.42s.56.66.68,1.15c-.25-.13-.47-.23-.65-.29s-.34-.09-.49-.09c-.38,0-.63.12-.74.36s-.11.83.02,1.77l.04.31c.06.48.16,1.01.29,1.6s.3,1.27.51,2.03Z" style="fill: #fff; stroke-width: 0px;"/>
        <path d="m146.96,25.67c.65,2.18.63,3.76-.08,4.68s-2.34,1.41-4.84,1.41-4.36-.47-5.55-1.4c-1.18-.92-1.99-2.49-2.44-4.69s-.27-3.58.48-4.4,2.26-1.21,4.56-1.21,4.01.4,5.17,1.21,2.07,2.27,2.71,4.39Zm-2.74-5.02l1.9,1.19c.8.5,1.44,1.1,1.92,1.78s.92,1.64,1.3,2.84c.74,2.36.66,4.18-.29,5.43s-2.79,1.91-5.47,1.91c-.78,0-1.5-.08-2.16-.24s-1.23-.39-1.72-.69l-2.02-1.26c.5.27,1.09.46,1.78.58s1.63.18,2.83.18c2.65,0,4.38-.53,5.2-1.57s.84-2.73.13-5.05c-.4-1.3-.86-2.34-1.39-3.13s-1.2-1.44-2.02-1.98Zm-6.13,5.03c.38,1.61.83,2.73,1.35,3.36s1.24.94,2.15.94,1.46-.32,1.67-.96.09-1.75-.34-3.34-.89-2.62-1.4-3.2-1.19-.85-2.04-.85-1.39.28-1.61.84-.15,1.63.22,3.2Zm3.22,3.73c-.65-.08-1.17-.37-1.55-.87s-.71-1.37-1.01-2.61c-.37-1.57-.49-2.58-.34-3.06s.54-.72,1.21-.72c.46,0,.88.14,1.24.42s.64.66.81,1.15c-.27-.13-.49-.23-.68-.29s-.35-.09-.5-.09c-.38,0-.62.12-.7.36s-.01.83.22,1.77l.08.31c.12.48.28,1.01.47,1.6s.45,1.27.74,2.03Z" style="fill: #fff; stroke-width: 0px;"/>
      </g>
    </g>
  </g>
</svg>