<?xml version="1.0" encoding="UTF-8"?>
<svg id="_图层_2" data-name="图层 2" xmlns="http://www.w3.org/2000/svg" viewBox="0 0 210.38 79.98">
  <g id="_图层_7" data-name="图层 7">
    <g>
      <g>
        <ellipse cx="104.67" cy="28.13" rx="104.37" ry="27.82" style="fill: #b7ce45; stroke: #96ab22; stroke-miterlimit: 10; stroke-width: .62px;"/>
        <path d="m104.46,9.8c-36.85,0-66.72,7.99-66.72,17.85s29.87,17.85,66.72,17.85,66.72-7.99,66.72-17.85-29.87-17.85-66.72-17.85Zm.32,33.7c-33.7,0-61.02-6.99-61.02-15.62s27.32-15.62,61.02-15.62,61.02,6.99,61.02,15.62-27.32,15.62-61.02,15.62Z" style="fill: #96ab22; stroke-width: 0px;"/>
        <path d="m45.57,36.05l3.36-1.86c-1.86-1.08-3.26-2.22-4.13-3.42l-5.89.22c1.27,1.8,3.54,3.5,6.67,5.06Z" style="fill: #fff; stroke-width: 0px;"/>
        <path d="m66.71,40.09c-3.34-.68-6.39-1.45-9.11-2.3l-4.07,1.39c3.84,1.21,8.27,2.29,13.18,3.19v-2.28Z" style="fill: #fff; stroke-width: 0px;"/>
        <path d="m95.24,43.31c-4.33-.17-8.5-.46-12.48-.86l-1.8,1.91c4.86.49,10,.83,15.33,1.01l-1.05-2.06Z" style="fill: #fff; stroke-width: 0px;"/>
        <path d="m126.39,42.49c-3.96.38-8.11.67-12.4.83l-.92,2.03c5.27-.18,10.35-.53,15.17-1.02l-1.84-1.84Z" style="fill: #fff; stroke-width: 0px;"/>
        <path d="m151.47,37.94c-2.64.8-5.58,1.54-8.79,2.19v2.16c4.64-.87,8.84-1.89,12.51-3.04l-3.71-1.31Z" style="fill: #fff; stroke-width: 0px;"/>
        <path d="m164.67,30.87c.73-.97,1.12-1.97,1.12-2.99,0-8.62-27.32-15.62-61.02-15.62s-61.02,6.99-61.02,15.62,27.32,15.62,61.02,15.62c25.16,0,46.75-3.9,56.09-9.46,1.69-1.01,2.98-2.07,3.81-3.17Z" style="fill: none; stroke-width: 0px;"/>
        <path d="m160.86,34.04l2.32,2.09c3.27-1.62,5.63-3.39,6.91-5.26h-5.42c-.83,1.1-2.12,2.16-3.81,3.17Z" style="fill: #fff; stroke-width: 0px;"/>
        <path d="m167.94,22.15l-6.12.19c2.38,1.6,3.77,3.33,3.95,5.14l5.39-.25c-.15-1.77-1.27-3.48-3.22-5.09Z" style="fill: #fff; stroke-width: 0px;"/>
        <path d="m37.74,27.51l6.05-.17c.23-1.71,1.52-3.34,3.72-4.86l-6.3-.53c-2.2,1.75-3.42,3.62-3.48,5.56Z" style="fill: #fff; stroke-width: 0px;"/>
        <path d="m52.79,16.36l.31,3.22c3.5-1.42,7.87-2.69,12.93-3.76l-3.84-1.98c-3.43.75-6.58,1.6-9.4,2.52Z" style="fill: #fff; stroke-width: 0px;"/>
        <path d="m81.05,10.93l-.96,2.67c4.95-.56,10.24-.96,15.77-1.17l-1.35-2.44c-4.66.19-9.17.5-13.46.93Z" style="fill: #fff; stroke-width: 0px;"/>
        <path d="m113.96,12.45c5.57.22,10.9.62,15.87,1.2l-.46-2.56c-4.42-.48-9.07-.83-13.9-1.04-.42.67-.99,1.58-1.5,2.41Z" style="fill: #fff; stroke-width: 0px;"/>
        <path d="m143.92,15.91c5.01,1.07,9.33,2.35,12.78,3.77l.53-2.96c-2.89-1-6.16-1.91-9.76-2.72l-3.55,1.91Z" style="fill: #fff; stroke-width: 0px;"/>
        <path d="m116.14.31l-2.72,6.98s22.44.87,24.84,1.75l11.12-6.33c-10.28-1.26-21.47-2.09-33.23-2.4Z" style="fill: #fff; stroke: #96ab22; stroke-miterlimit: 10; stroke-width: .51px;"/>
        <path d="m40.54,15.82s12.3-4.31,16.18-4.31l-13.89-5.7c-8.57,1.69-16.11,3.72-22.36,6.01l20.07,4.01Z" style="fill: #fff; stroke: #96ab22; stroke-miterlimit: 10; stroke-width: .51px;"/>
        <path d="m208.53,25.48c-.87-2.68-3.19-5.26-6.76-7.66l-23.6,2.34s6.03,3.56,5.82,5.74l24.55-.42Z" style="fill: #fff; stroke: #96ab22; stroke-miterlimit: 10; stroke-width: .51px;"/>
        <path d="m170.34,41.16s-6.47,3.2-17.74,4.62l12.67,5.15c8.83-1.67,16.69-3.68,23.32-5.96l-18.25-3.8Z" style="fill: #fff; stroke: #96ab22; stroke-miterlimit: 10; stroke-width: .54px;"/>
        <path d="m72.11,48.05l-9.13,4.95c9.71,1.13,20.2,1.89,31.2,2.18l2.11-5.54c-11,.36-24.18-1.6-24.18-1.6Z" style="fill: #fff; stroke: #96ab22; stroke-miterlimit: 10; stroke-width: .51px;"/>
        <path d="m1.88,31.57c1.37,2.66,4.17,5.21,8.21,7.57l20.24-2.68-5.36-5.48-23.09.59Z" style="fill: #fff; stroke: #96ab22; stroke-miterlimit: 10; stroke-width: .51px;"/>
        <path d="m.31,28.63s2.16,26.56,107.85,26.39c105.7-.17,100.48-29.78,100.48-29.78,0,0,3.23,16.33-.01,30.29,0,0-5.56,21.08-99.54,24.15,0,0-88.75.38-108.02-23.63L.31,28.63Z" style="fill: #b7ce45; stroke: #96ab22; stroke-miterlimit: 10; stroke-width: .61px;"/>
        <ellipse cx="191.57" cy="35.65" rx="1.61" ry=".48" style="fill: #fff; stroke-width: 0px;"/>
        <ellipse cx="187.09" cy="33.7" rx="1.61" ry=".48" style="fill: #fff; stroke-width: 0px;"/>
        <ellipse cx="182.66" cy="31.62" rx="1.61" ry=".48" style="fill: #fff; stroke-width: 0px;"/>
        <ellipse cx="126.42" cy="49.42" rx="1.61" ry=".48" style="fill: #fff; stroke-width: 0px;"/>
        <ellipse cx="44.15" cy="43.62" rx="1.61" ry=".48" style="fill: #fff; stroke-width: 0px;"/>
        <ellipse cx="44.25" cy="41.29" rx="1.61" ry=".48" style="fill: #fff; stroke-width: 0px;"/>
        <ellipse cx="53.19" cy="43.62" rx="1.61" ry=".48" style="fill: #fff; stroke-width: 0px;"/>
        <ellipse cx="44.15" cy="45.95" rx="1.61" ry=".48" style="fill: #fff; stroke-width: 0px;"/>
        <ellipse cx="35.21" cy="43.5" rx="1.61" ry=".48" style="fill: #fff; stroke-width: 0px;"/>
        <ellipse cx="26.82" cy="24" rx="1.61" ry=".48" style="fill: #fff; stroke-width: 0px;"/>
        <ellipse cx="30.03" cy="20.72" rx="1.61" ry=".48" style="fill: #fff; stroke-width: 0px;"/>
        <ellipse cx="17.8" cy="19.91" rx="1.61" ry=".48" style="fill: #fff; stroke-width: 0px;"/>
        <ellipse cx="14.58" cy="23.2" rx="1.61" ry=".48" style="fill: #fff; stroke-width: 0px;"/>
        <ellipse cx="75.04" cy="4.98" rx="1.61" ry=".48" style="fill: #fff; stroke-width: 0px;"/>
        <ellipse cx="76.9" cy="6.65" rx="1.61" ry=".48" style="fill: #fff; stroke-width: 0px;"/>
        <ellipse cx="78.39" cy="8.2" rx="1.61" ry=".48" style="fill: #fff; stroke-width: 0px;"/>
        <ellipse cx="87.31" cy="4.2" rx="1.61" ry=".48" style="fill: #fff; stroke-width: 0px;"/>
        <ellipse cx="89.15" cy="5.8" rx="1.61" ry=".48" style="fill: #fff; stroke-width: 0px;"/>
        <ellipse cx="90.75" cy="7.4" rx="1.61" ry=".48" style="fill: #fff; stroke-width: 0px;"/>
        <ellipse cx="174.28" cy="12.02" rx="1.61" ry=".48" style="fill: #fff; stroke-width: 0px;"/>
        <ellipse cx="156.2" cy="12.02" rx="1.61" ry=".48" style="fill: #fff; stroke-width: 0px;"/>
        <polygon points="74.32 10.3 100.84 8.68 93.66 1.62 66.02 3.51 74.32 10.3" style="fill: none; stroke: #fff; stroke-miterlimit: 10; stroke-width: .31px;"/>
        <polygon points="11.69 17.37 4.37 24.48 31.01 26.03 37.5 19.12 11.69 17.37" style="fill: none; stroke: #fff; stroke-miterlimit: 10; stroke-width: .31px;"/>
        <polygon points="23.98 43.5 44.15 38.46 62.98 43.02 44.25 48.35 23.98 43.5" style="fill: none; stroke: #fff; stroke-miterlimit: 10; stroke-width: .31px;"/>
        <polygon points="111.55 46.46 117.79 53.22 144.28 51.62 137.61 45.01 111.55 46.46" style="fill: none; stroke: #fff; stroke-miterlimit: 10; stroke-width: .31px;"/>
        <polygon points="169.78 35.65 196 37.94 202.46 30.87 176.62 29.23 169.78 35.65" style="fill: none; stroke: #fff; stroke-miterlimit: 10; stroke-width: .31px;"/>
        <polygon points="165.1 16.85 184.09 11.54 166.07 6.87 146.4 11.54 165.1 16.85" style="fill: none; stroke: #fff; stroke-miterlimit: 10; stroke-width: .31px;"/>
        <path d="m62.98,76.81c11.54,1.43,22.57,2.15,30.88,2.51v-24.45c-11.76-.28-21.99-.96-30.88-1.91v23.86Z" style="fill: #fff; stroke: #96ab22; stroke-miterlimit: 10; stroke-width: .6px;"/>
        <path d="m165.48,74.4c9.72-1.76,17.26-3.77,23.11-5.81l-.23-23.8c-5.82,2.26-13.29,4.36-22.89,6.06v23.56Z" style="fill: #fff; stroke: #96ab22; stroke-miterlimit: 10; stroke-width: .61px;"/>
        <path d="m10.07,39.44c-4.55-2.78-6.99-5.42-8.29-7.39-1.04,5.5-.02,24.68-.01,24.83,2.01,2.27,4.66,4.31,7.79,6.14-.52-10.81.35-21.71.5-23.58Z" style="fill: #fff; stroke: #96ab22; stroke-miterlimit: 10; stroke-width: .61px;"/>
      </g>
      <g>
        <path d="m60.54,29.52l8.32-3.86c.5-.23.89-.52,1.17-.86s.49-.78.63-1.34c.16-.62.1-1.06-.18-1.33s-.8-.41-1.56-.41c-.69,0-1.25.14-1.69.42s-.73.69-.89,1.24l-.49,1.7h-3.68l.41-1.32c.4-1.29,1.18-2.22,2.33-2.79s2.76-.85,4.87-.85c1.89,0,3.25.26,4.09.77s1.15,1.29.92,2.34-1.36,2.13-3.37,3.11l-.09.05-6.33,3.14h6.16l.21-.88h2.25l-.63,2.83h-13.06l.61-1.95Zm-.81,2.58h13.75l.76-3.46,1.15,1.14-.77,3.69h-13.21l-1.67-1.37Zm2.27-6.44h4.29l.57-2.04c.15-.52.36-.87.65-1.06s.72-.28,1.3-.28c.52,0,.88.08,1.07.25s.24.44.14.82l-.07.26c-.2-.05-.36-.09-.49-.11s-.25-.03-.35-.03c-.38,0-.63.05-.77.14s-.24.28-.31.54l-.39,1.44-2.8,1.32h-1.6l-1.25-1.25Zm5.42,3.25l5.46-2.73c.68-.34,1.23-.77,1.66-1.27s.7-1.04.83-1.64c.1-.44.11-.84.04-1.18s-.23-.69-.49-1.05l1.15,1.22c.22.24.37.49.43.75s.06.57-.01.92c-.15.7-.46,1.3-.93,1.81s-1.37,1.11-2.69,1.8l-2.63,1.36h-2.81Z" style="fill: #fff; stroke-width: 0px;"/>
        <path d="m77.3,28.34h4.29c-.09.56.04.99.39,1.3s.88.46,1.6.46,1.29-.18,1.73-.53.69-.85.78-1.5c.1-.71-.04-1.24-.4-1.59s-.94-.52-1.75-.52c-.38,0-.77.04-1.14.13s-.76.22-1.15.41h-3.52l1.19-6.08h10.62l-.2,1.7h-7.34l-.49,2.87c.62-.22,1.2-.38,1.74-.49s1.05-.16,1.54-.16c1.69,0,2.99.33,3.89.99s1.32,1.57,1.2,2.73c-.13,1.24-.78,2.18-1.94,2.82s-2.86.96-5.06.96-3.79-.29-4.76-.87-1.37-1.46-1.21-2.64Zm.71-1.25h3.96c.28-.19.57-.32.88-.41s.64-.13,1-.13c.59,0,1.02.11,1.27.33s.34.56.28,1.03v.08c-.21-.07-.41-.12-.61-.15s-.43-.05-.66-.05c-.21,0-.41.02-.61.06s-.4.1-.58.18l-.38-.29h-3.85l-.68-.66Zm11.76-2l1.59,1.35c.33.27.56.58.69.93s.18.79.13,1.29c-.14,1.48-.94,2.71-2.42,3.69s-3.37,1.49-5.6,1.49c-1.05,0-1.99-.11-2.8-.34s-1.49-.57-2.04-1.02l-1.16-.92c.57.33,1.25.56,2.03.7s1.83.22,3.15.22c2.35,0,4.18-.39,5.48-1.15s1.99-1.86,2.14-3.29c.06-.59-.01-1.13-.21-1.62s-.53-.92-.98-1.32Zm-7.12-.88l.25-1.54h7.36l.25-2.25,1.18,1.1-.24,2.35h-6.21c-.53,0-1,.03-1.4.08s-.8.14-1.19.25Zm-.42,4.12l1.3,1.08h-.19c-.41,0-.71-.09-.9-.28s-.26-.45-.21-.8Z" style="fill: #fff; stroke-width: 0px;"/>
        <path d="m92.73,34.22h3.62l2.98-4.7.93,1.03-3.18,5.11h-2.5l-1.84-1.44Zm2.06-4.7h3.78l-2.61,4.06h-2.91l1.74-4.06Z" style="fill: #fff; stroke-width: 0px;"/>
        <path d="m114.57,25.75c.15,2.18-.24,3.76-1.17,4.68s-2.67,1.41-5.17,1.41-4.25-.47-5.23-1.4-1.41-2.49-1.36-4.69.56-3.58,1.5-4.4,2.54-1.21,4.84-1.21,3.92.4,4.89,1.21,1.55,2.27,1.69,4.39Zm-1.58-5.02l1.62,1.19c.68.5,1.19,1.1,1.51,1.78s.54,1.64.64,2.84c.19,2.36-.31,4.18-1.55,5.43s-3.23,1.91-5.91,1.91c-.78,0-1.48-.08-2.1-.24s-1.14-.39-1.56-.69l-1.72-1.26c.43.27.98.46,1.65.58s1.59.18,2.79.18c2.65,0,4.51-.53,5.56-1.57s1.47-2.73,1.3-5.05c-.09-1.3-.32-2.34-.67-3.13s-.87-1.44-1.56-1.98Zm-7.3,5.03c0,1.61.19,2.73.57,3.36s1.03.94,1.93.94,1.53-.32,1.89-.96.5-1.75.44-3.34-.28-2.62-.66-3.2-.99-.85-1.84-.85-1.46.28-1.81.84-.53,1.63-.52,3.2Zm2.35,3.73c-.64-.08-1.09-.37-1.35-.87s-.39-1.37-.4-2.61c-.01-1.57.11-2.58.37-3.06s.71-.72,1.37-.72c.46,0,.85.14,1.15.42s.48.66.55,1.15c-.24-.13-.44-.23-.61-.29s-.33-.09-.48-.09c-.38,0-.64.12-.78.36s-.2.83-.19,1.77v.31c.01.48.05,1.01.11,1.6s.15,1.27.27,2.03Z" style="fill: #fff; stroke-width: 0px;"/>
        <path d="m130.66,25.75c.4,2.18.2,3.76-.63,4.68s-2.5,1.41-5,1.41-4.31-.47-5.39-1.4-1.7-2.49-1.9-4.69.14-3.58.99-4.4,2.4-1.21,4.7-1.21,3.96.4,5.03,1.21,1.81,2.27,2.2,4.39Zm-2.16-5.02l1.76,1.19c.74.5,1.31,1.1,1.71,1.78s.73,1.64.97,2.84c.47,2.36.17,4.18-.92,5.43s-3.01,1.91-5.69,1.91c-.78,0-1.49-.08-2.13-.24s-1.19-.39-1.64-.69l-1.87-1.26c.47.27,1.04.46,1.71.58s1.61.18,2.81.18c2.65,0,4.45-.53,5.38-1.57s1.15-2.73.72-5.05c-.24-1.3-.59-2.34-1.03-3.13s-1.03-1.44-1.79-1.98Zm-6.71,5.03c.19,1.61.51,2.73.96,3.36s1.13.94,2.04.94,1.5-.32,1.78-.96.29-1.75.05-3.34-.58-2.62-1.03-3.2-1.09-.85-1.94-.85-1.43.28-1.71.84-.34,1.63-.15,3.2Zm2.78,3.73c-.65-.08-1.13-.37-1.45-.87s-.55-1.37-.7-2.61c-.19-1.57-.19-2.58.01-3.06s.63-.72,1.29-.72c.46,0,.86.14,1.2.42s.56.66.68,1.15c-.25-.13-.47-.23-.65-.29s-.34-.09-.49-.09c-.38,0-.63.12-.74.36s-.11.83.02,1.77l.04.31c.06.48.16,1.01.29,1.6s.3,1.27.51,2.03Z" style="fill: #fff; stroke-width: 0px;"/>
        <path d="m146.74,25.75c.65,2.18.63,3.76-.08,4.68s-2.34,1.41-4.84,1.41-4.36-.47-5.55-1.4c-1.18-.92-1.99-2.49-2.44-4.69s-.27-3.58.48-4.4,2.26-1.21,4.56-1.21,4.01.4,5.17,1.21,2.07,2.27,2.71,4.39Zm-2.74-5.02l1.9,1.19c.8.5,1.44,1.1,1.92,1.78s.92,1.64,1.3,2.84c.74,2.36.66,4.18-.29,5.43s-2.79,1.91-5.47,1.91c-.78,0-1.5-.08-2.16-.24s-1.23-.39-1.72-.69l-2.02-1.26c.5.27,1.09.46,1.78.58s1.63.18,2.83.18c2.65,0,4.38-.53,5.2-1.57s.84-2.73.13-5.05c-.4-1.3-.86-2.34-1.39-3.13s-1.2-1.44-2.02-1.98Zm-6.13,5.03c.38,1.61.83,2.73,1.35,3.36s1.24.94,2.15.94,1.46-.32,1.67-.96.09-1.75-.34-3.34-.89-2.62-1.4-3.2-1.19-.85-2.04-.85-1.39.28-1.61.84-.15,1.63.22,3.2Zm3.22,3.73c-.65-.08-1.17-.37-1.55-.87s-.71-1.37-1.01-2.61c-.37-1.57-.49-2.58-.34-3.06s.54-.72,1.21-.72c.46,0,.88.14,1.24.42s.64.66.81,1.15c-.27-.13-.49-.23-.68-.29s-.35-.09-.5-.09c-.38,0-.62.12-.7.36s-.01.83.22,1.77l.08.31c.12.48.28,1.01.47,1.6s.45,1.27.74,2.03Z" style="fill: #fff; stroke-width: 0px;"/>
      </g>
    </g>
  </g>
</svg>