<?xml version="1.0" encoding="UTF-8"?>
<svg id="_图层_2" data-name="图层 2" xmlns="http://www.w3.org/2000/svg" viewBox="0 0 163.57 248.61">
  <g id="_图层_1-2" data-name="图层 1">
    <g>
      <path d="m162.57,242.01c0,3.08-2.51,5.6-5.57,5.6H6.57c-3.06,0-5.57-2.52-5.57-5.6V6.6C1,3.52,3.51,1,6.57,1h150.43c3.06,0,5.57,2.52,5.57,5.6v235.41Z" style="fill: #fff; fill-rule: evenodd; stroke: #231815; stroke-miterlimit: 22.93; stroke-width: 2px;"/>
      <g>
        <path d="m99.5,124.31c-13.58-7.94-17.72-24.16-17.72-24.16,0,0-4.14,16.22-17.72,24.16,13.57,7.94,17.72,24.16,17.72,24.16,0,0,4.14-16.22,17.72-24.16Z" style="fill: #e60012; fill-rule: evenodd; stroke-width: 0px;"/>
        <g>
          <path d="m10.41,38.76l5.36-25.29h3.89l5.36,25.29h2.31v3.12h-7.78v-3.12h2.2l-.9-4.22h-6.29l-.9,4.22h2.47v3.12h-7.78v-3.12h2.04Zm9.79-7.34l-2.49-11.72-2.49,11.72h4.97Z" style="fill: #e60012; stroke-width: 0px;"/>
          <path d="m26.02,56.41c-6.25-3.66-8.16-11.13-8.16-11.13,0,0-1.91,7.47-8.16,11.13,6.25,3.66,8.16,11.13,8.16,11.13,0,0,1.91-7.47,8.16-11.13Z" style="fill: #e60012; fill-rule: evenodd; stroke-width: 0px;"/>
        </g>
        <g>
          <path d="m153.16,209.85l-5.36,25.29h-3.89l-5.36-25.29h-2.31v-3.12h7.78v3.12h-2.2l.9,4.22h6.29l.9-4.22h-2.47v-3.12h7.78v3.12h-2.04Zm-9.79,7.34l2.49,11.72,2.49-11.72h-4.97Z" style="fill: #e60012; stroke-width: 0px;"/>
          <path d="m137.55,192.2c6.25,3.66,8.16,11.13,8.16,11.13,0,0,1.91-7.47,8.16-11.13-6.25-3.66-8.16-11.13-8.16-11.13,0,0-1.91,7.47-8.16,11.13Z" style="fill: #e60012; fill-rule: evenodd; stroke-width: 0px;"/>
        </g>
      </g>
    </g>
  </g>
</svg>