<?xml version="1.0" encoding="UTF-8"?>
<svg id="_图层_2" data-name="图层 2" xmlns="http://www.w3.org/2000/svg" viewBox="0 0 163.57 248.61">
  <g id="_图层_1-2" data-name="图层 1">
    <g>
      <path d="m162.57,242.01c0,3.08-2.51,5.6-5.57,5.6H6.57c-3.06,0-5.57-2.52-5.57-5.6V6.6C1,3.52,3.51,1,6.57,1h150.43c3.06,0,5.57,2.52,5.57,5.6v235.41Z" style="fill: #fff; fill-rule: evenodd; stroke: #231815; stroke-miterlimit: 22.93; stroke-width: 2px;"/>
      <g>
        <path d="m99.5,173.32c-13.57-7.94-17.72-24.16-17.72-24.16,0,0-4.14,16.22-17.71,24.16,13.57,7.94,17.71,24.16,17.71,24.16,0,0,4.14-16.22,17.72-24.16h0Zm-34.51-24.5c-13.58,7.94-17.72,24.16-17.72,24.16,0,0-4.14-16.22-17.72-24.16,13.57-7.94,17.72-24.16,17.72-24.16,0,0,4.14,16.22,17.72,24.16h0Zm69.02,0c-13.58,7.94-17.72,24.16-17.72,24.16,0,0-4.14-16.22-17.72-24.16,13.58-7.94,17.72-24.16,17.72-24.16,0,0,4.14,16.22,17.72,24.16h0Zm0,49.01c-13.58,7.94-17.72,24.16-17.72,24.16,0,0-4.14-16.22-17.72-24.16,13.58-7.94,17.72-24.16,17.72-24.16,0,0,4.14,16.22,17.72,24.16h0Zm-69.02,0c-13.58,7.94-17.72,24.16-17.72,24.16,0,0-4.14-16.22-17.72-24.16,13.57-7.94,17.72-24.16,17.72-24.16,0,0,4.14,16.22,17.72,24.16h0Zm34.51-122.52c-13.57-7.94-17.72-24.16-17.72-24.16,0,0-4.14,16.22-17.71,24.16,13.57,7.94,17.71,24.16,17.71,24.16,0,0,4.14-16.22,17.72-24.16h0Zm34.51,24.5c-13.58,7.94-17.72,24.16-17.72,24.16,0,0-4.14-16.22-17.72-24.16,13.58-7.94,17.72-24.16,17.72-24.16,0,0,4.14,16.22,17.72,24.16h0Zm0-49.01c-13.58,7.94-17.72,24.16-17.72,24.16,0,0-4.14-16.22-17.72-24.16,13.58-7.94,17.72-24.16,17.72-24.16,0,0,4.14,16.22,17.72,24.16h0Zm-69.02,0c-13.58,7.94-17.72,24.16-17.72,24.16,0,0-4.14-16.22-17.72-24.16,13.57-7.94,17.72-24.16,17.72-24.16,0,0,4.14,16.22,17.72,24.16h0Zm0,49.01c-13.58,7.94-17.72,24.16-17.72,24.16,0,0-4.14-16.22-17.72-24.16,13.57-7.94,17.72-24.16,17.72-24.16,0,0,4.14,16.22,17.72,24.16Z" style="fill: #e60012; fill-rule: evenodd; stroke-width: 0px;"/>
        <g>
          <path d="m26.02,56.41c-6.25-3.66-8.16-11.13-8.16-11.13,0,0-1.91,7.47-8.16,11.13,6.25,3.66,8.16,11.13,8.16,11.13,0,0,1.91-7.47,8.16-11.13Z" style="fill: #e60012; fill-rule: evenodd; stroke-width: 0px;"/>
          <path d="m12.47,13.72v28.16h-3.12V13.72h3.12Zm8.39-.25c1.51,0,2.88.62,3.88,1.61,1,.99,1.62,2.36,1.62,3.87v17.63c0,1.5-.62,2.87-1.62,3.87-1,.99-2.38,1.61-3.88,1.61s-2.88-.62-3.88-1.61c-1-.99-1.62-2.36-1.62-3.87v-17.63c0-1.5.62-2.87,1.62-3.87,1-.99,2.38-1.61,3.88-1.61h0Zm0,3.12c-.66,0-1.26.27-1.69.69-.43.43-.7,1.01-.7,1.66v17.63c0,.65.27,1.23.7,1.66.43.43,1.03.69,1.69.69s1.26-.27,1.69-.69c.43-.43.7-1.01.7-1.66v-17.63c0-.65-.27-1.23-.7-1.66-.43-.43-1.03-.69-1.69-.69Z" style="fill: #e60012; stroke-width: 0px;"/>
        </g>
        <g>
          <path d="m137.55,192.2c6.26,3.66,8.16,11.13,8.16,11.13,0,0,1.91-7.47,8.16-11.13-6.26-3.66-8.16-11.13-8.16-11.13,0,0-1.91,7.47-8.16,11.13Z" style="fill: #e60012; fill-rule: evenodd; stroke-width: 0px;"/>
          <path d="m151.11,234.89v-28.16h3.12v28.16h-3.12Zm-8.39.25c-1.51,0-2.89-.62-3.89-1.61-1-.99-1.62-2.36-1.62-3.87v-17.63c0-1.5.62-2.87,1.62-3.87,1-.99,2.38-1.61,3.89-1.61s2.88.62,3.88,1.61c1,.99,1.62,2.36,1.62,3.87v17.63c0,1.5-.62,2.87-1.62,3.87-1,.99-2.38,1.61-3.88,1.61h0Zm0-3.12c.66,0,1.26-.27,1.69-.69.43-.43.7-1.01.7-1.66v-17.63c0-.65-.27-1.24-.7-1.66-.43-.43-1.03-.69-1.69-.69s-1.26.27-1.69.69c-.43.43-.7,1.01-.7,1.66v17.63c0,.65.27,1.23.7,1.66.43.43,1.03.69,1.69.69Z" style="fill: #e60012; stroke-width: 0px;"/>
        </g>
      </g>
    </g>
  </g>
</svg>