<?xml version="1.0" encoding="UTF-8"?>
<svg id="_图层_2" data-name="图层 2" xmlns="http://www.w3.org/2000/svg" viewBox="0 0 163.58 248.61">
  <g id="_图层_1-2" data-name="图层 1">
    <g>
      <path d="m162.58,242.01c0,3.08-2.51,5.6-5.57,5.6H6.57c-3.06,0-5.57-2.52-5.57-5.6V6.6C1,3.52,3.51,1,6.57,1h150.43c3.06,0,5.57,2.52,5.57,5.6v235.41Z" style="fill: #fff; fill-rule: evenodd; stroke: #231815; stroke-miterlimit: 22.93; stroke-width: 2px;"/>
      <g>
        <path d="m25.45,56.41c-6.25-3.66-8.16-11.13-8.16-11.13,0,0-1.91,7.47-8.16,11.13,6.26,3.66,8.16,11.13,8.16,11.13,0,0,1.91-7.47,8.16-11.13Z" style="fill: #e60012; fill-rule: evenodd; stroke-width: 0px;"/>
        <path d="m14.65,13.47h10.89v3.12h-3.16v18.13c0,1.93-.73,3.69-1.91,4.98-1.21,1.32-2.89,2.14-4.75,2.14-.26,0-.47,0-.64-.02-4.27-.38-6.32-4.28-5.98-8.11l3.12.27c-.2,2.25.87,4.53,3.13,4.73.16.01.29.02.37.02.95,0,1.82-.43,2.46-1.13.67-.73,1.09-1.75,1.09-2.87v-18.13h-4.61v-3.12Z" style="fill: #e60012; stroke-width: 0px;"/>
      </g>
      <g>
        <path d="m138.12,192.2c6.26,3.66,8.16,11.13,8.16,11.13,0,0,1.91-7.47,8.16-11.13-6.25-3.66-8.16-11.13-8.16-11.13,0,0-1.91,7.47-8.16,11.13Z" style="fill: #e60012; fill-rule: evenodd; stroke-width: 0px;"/>
        <path d="m148.93,235.14h-10.89v-3.12h3.16v-18.12c0-1.93.73-3.69,1.91-4.98,1.21-1.32,2.89-2.14,4.75-2.14.26,0,.47,0,.64.02,4.27.38,6.32,4.28,5.98,8.11l-3.12-.27c.2-2.25-.87-4.53-3.13-4.73-.16-.01-.29-.02-.37-.02-.95,0-1.82.43-2.46,1.13-.67.73-1.09,1.75-1.09,2.87v18.12h4.61v3.12Z" style="fill: #e60012; stroke-width: 0px;"/>
      </g>
      <g>
        <g>
          <path d="m133.98,185.66l-6.95-6.53v-14.94l-25.01,13.54s.65.62.85,2.46c.2,1.84-.96,4.05-3.11,4.08-2.15.03-3.25-2.92-3.25-2.92-2.12,4.47-1.72,8.55-1.72,8.55.77-1.51,2.12-3.16,3.71-3.08,1.36.07,2.91,1.06,2.63,2.52-.17.89-.73,2-1.6,1.52-.56-.31-1.34-.75-1.69-.02-.62,1.32-2.3,6.06-2.3,6.06,0,.85,0,9.29,0,9.29l11.55,15.64h-61.33l11.27-18.79c-4.63-18.32-7.23-21.71-7.23-21.71-3.4,1.93-5.96.07-6.13-3.12s1.6-4.18,1.6-4.18c0,0-1.27-1.33-2.29-2.04-1.01-.71-1.77-.58-1.77-.58,0,0-.4,1.93-1.34,3.71-.94,1.78-2.8,1.39-2.8,1.39v32.23l-7.5,8.03V62.95l6.95,6.53v14.94l25.01-13.54s-.65-.62-.85-2.46c-.2-1.84.96-4.05,3.11-4.08,2.15-.03,3.25,2.91,3.25,2.91,2.12-4.47,1.72-8.55,1.72-8.55-.77,1.51-2.12,3.16-3.71,3.08-1.36-.07-2.91-1.06-2.63-2.52.17-.89.73-2,1.6-1.52.56.31,1.34.75,1.69.02.62-1.32,2.3-6.06,2.3-6.06,0-.85,0-9.29,0-9.29l-11.55-15.64h61.33l-11.27,18.79c4.63,18.32,7.23,21.71,7.23,21.71,3.4-1.93,5.95-.07,6.13,3.12s-1.6,4.18-1.6,4.18c0,0,1.27,1.33,2.29,2.04,1.01.71,1.77.58,1.77.58,0,0,.4-1.93,1.34-3.71.94-1.78,2.8-1.39,2.8-1.39v-32.23l7.5-8.04v153.83Z" style="fill: #004ea2; fill-rule: evenodd; stroke-width: 0px;"/>
          <polygon points="57.93 111.27 57.18 86.77 58.63 84.01 59.11 112.81 57.93 111.27" style="fill: #ffe100; fill-rule: evenodd; stroke-width: 0px;"/>
          <polygon points="105.64 137.35 106.4 161.85 104.95 164.61 104.47 135.8 105.64 137.35" style="fill: #ffe100; fill-rule: evenodd; stroke-width: 0px;"/>
          <path d="m115.52,76.51l2.61,2.61c.77-1.02,1.42-1.84,1.85-2.36l-2.47-1.86c-.17.18-.43.45-.79.82-.52.53-.98.72-1.19.79h0Zm-1.56,1.41l2.81,3.04c-.44.62-.9,1.27-1.35,1.95l-2.96-3.33,1.51-1.66h0Zm-4.53,4.99l3.63,3.73c.36-.59.69-1.12.98-1.59.08-.12.15-.25.23-.38l-3.36-3.39-1.47,1.62h0Zm-1.47,1.62l3.83,4.22c-.36.62-.74,1.27-1.12,1.97l-4.17-4.59,1.45-1.6h0Zm-3.02,3.32l-1.46,1.61,5.05,5.44c.33-.71.67-1.4,1.01-2.06l-4.61-4.98h0Zm-2.9,3.2l5.75,5.51c-.3.7-.6,1.42-.88,2.16l-6.12-6.28,1.26-1.39h0Zm-2.95,3.43l6.89,6.83c-.3.92-.58,1.86-.83,2.82l-4.77-5.83-3.01-1.97,1.72-1.85Z" style="fill: #fff; fill-rule: evenodd; stroke-width: 0px;"/>
          <path d="m48.06,172.1l-2.61-2.61c-.77,1.02-1.42,1.84-1.85,2.36l2.47,1.86c.17-.18.43-.45.79-.81.52-.53.98-.72,1.19-.79h0Zm1.56-1.41l-2.81-3.04c.44-.62.9-1.27,1.35-1.95l2.96,3.33-1.5,1.66h0Zm4.53-4.99l-3.63-3.73c-.36.59-.69,1.12-.98,1.59-.08.12-.15.25-.23.38l3.36,3.39,1.47-1.62h0Zm1.47-1.62l-3.83-4.22c.36-.62.73-1.27,1.12-1.97l4.17,4.59-1.45,1.6h0Zm3.02-3.32l1.46-1.61-5.05-5.44c-.33.71-.67,1.4-1.01,2.06l4.61,4.98h0Zm2.9-3.2l-5.75-5.51c.3-.7.6-1.42.88-2.16l6.12,6.28-1.26,1.39h0Zm2.95-3.43l-6.89-6.83c.3-.92.58-1.86.83-2.82l4.77,5.83,3.01,1.96-1.72,1.85Z" style="fill: #fff; fill-rule: evenodd; stroke-width: 0px;"/>
          <path d="m59.61,137.36l38.92-42.27,6.98,7.79c-.77,2.64-1.33,5.46-1.54,8.38l-38.92,42.27-6.98-7.8c.77-2.64,1.33-5.45,1.55-8.38Z" style="fill: #231815; fill-rule: evenodd; stroke-width: 0px;"/>
          <g>
            <path d="m95.47,98.41h4.55v6.14h5.04c-.68,2.72-1.12,5.6-1.18,8.57-.14,6.55.02,13.33,1.29,20.18h-.78v-4.66h-4.66l-.51-6.34-4.79.13-.26-6.02-5.76.07.39-6.3-4.1-.07,10.78-11.71Z" style="fill: #ffe100; fill-rule: evenodd; stroke-width: 0px;"/>
            <path d="m99.68,128.15l1.49-1.76-.13-4.23c0-.18,0-.35.34-.36.35,0,.36.17.36.34l.1,3.45,1.16-1.37-.22-3.74c0-.18-.02-.35.33-.37.35-.02.36.15.37.33l.18,3.01.32-.37c.03.51.06,1.02.09,1.53h-.46s-1.32,1.54-1.32,1.54l1.91.11c.02.24.04.47.07.71l-2.55-.15-1.55,1.83h-.45l-.04-.5h0Zm.34-24.42v.83h.18l-.66.69,2.68.43c.17.03.35.05.29.4s-.23.32-.4.29l-3.16-.5-1.68,1.77,3.1.3c.17.02.35.03.32.38-.03.35-.21.33-.38.31l-3.56-.35s-.05,0-.07-.02l-1.42,1.5,2.79.39c.17.02.35.05.3.39-.05.35-.22.32-.4.3l-3.12-.43s-.09-.03-.13-.06l-1.23,1.3,2.94.41c.17.02.35.05.3.39-.05.35-.22.32-.39.3l-3.44-.48-1.62,1.71,3.06.43c.17.02.35.05.3.39-.05.35-.22.32-.39.3l-3.56-.5-1.78,1.87h-.47s.04-.56.04-.56l1.75-1.84.21-4.17c0-.17.02-.35.37-.33.35.02.34.19.33.36l-.17,3.36,1.34-1.41v-.03l.22-4.3c0-.18.02-.35.37-.33.35.02.34.19.33.37l-.18,3.51,1.55-1.63.19-3.74c0-.17.02-.35.37-.33.35.02.34.19.33.37l-.15,2.93,1.15-1.21.12-3.96c0-.18.01-.35.36-.34.35,0,.35.18.34.36l-.09,3.18,1.39-1.46v-4.2c0-.18,0-.35.35-.35s.35.17.35.35v3.46l.76-.8h0Zm4.36,4.08l-.04-.81c0-.17-.02-.35-.37-.33-.35.02-.34.19-.33.37l.22,4.18-1.31,1.52-.07-3.14c0-.18,0-.35-.36-.34-.35,0-.35.18-.34.36l.09,3.92-1.46,1.69-.04-3.71c0-.18,0-.35-.35-.35-.35,0-.35.18-.35.35l.05,4.5-1.22,1.41v-3.1c0-.17,0-.35-.36-.35s-.35.17-.35.35v3.91s-1.16,1.35-1.16,1.35l-.1-3.3c0-.17,0-.35-.36-.34-.35,0-.34.18-.34.36l.12,4.06-1.55,1.79v.28s.7-.02.7-.02l1.26-1.47,2.91.31c.17.02.35.04.38-.31.04-.35-.14-.37-.31-.38l-2.43-.26,1.36-1.57,2.9.08c.18,0,.35,0,.36-.34,0-.35-.17-.35-.34-.36l-2.32-.06,1.32-1.54,2.81.1c.17,0,.35.01.36-.34s-.16-.36-.34-.36l-2.24-.08,1.33-1.54s.07.02.1.02l1.64.07c0-.24,0-.47.01-.7l-1.19-.05,1.23-1.42c.07-1.5.24-2.98.48-4.41h0Zm-15.59,2.42c.13-.01.23-.07.23-.34,0-.35-.17-.36-.35-.36l-3.38-.06-.6.66,4.1.07v.04h0Zm-1.57-2.85h3.87c.18,0,.35,0,.35-.35s-.18-.35-.35-.35h-3.22l-.64.7h0Zm1.88-2.04h3.81c.18,0,.35,0,.35-.35s-.17-.35-.35-.35h-3.17l-.64.7h0Zm2.08-2.26h3.65c.18,0,.35,0,.35-.35s-.17-.35-.35-.35h-3l-.65.7h0Zm2.16-2.34h3.44c.17,0,.35,0,.35-.35s-.18-.35-.35-.35h-2.8l-.64.7Z" style="fill: #004ea2; stroke-width: 0px;"/>
          </g>
          <g>
            <path d="m68.11,150.2h-4.55v-6.14h-5.04c.68-2.72,1.12-5.6,1.18-8.57.14-6.55-.02-13.33-1.29-20.18h.78v4.66h4.66l.51,6.34,4.79-.13.26,6.02,5.76-.07-.39,6.3,4.1.06-10.78,11.71Z" style="fill: #ffe100; fill-rule: evenodd; stroke-width: 0px;"/>
            <path d="m63.89,120.46l-1.49,1.76.13,4.23c0,.18,0,.35-.34.36-.35,0-.36-.17-.36-.34l-.1-3.45-1.16,1.37.22,3.74c0,.18.02.35-.33.37-.35.02-.36-.15-.37-.33l-.18-3.01-.32.37c-.03-.51-.06-1.02-.09-1.53h.46s1.32-1.54,1.32-1.54l-1.91-.11c-.02-.24-.04-.47-.07-.71l2.55.15,1.55-1.83h.45l.04.5h0Zm-.34,24.42v-.83h-.18l.66-.69-2.68-.43c-.17-.03-.35-.05-.29-.4.05-.34.23-.32.4-.29l3.16.51,1.68-1.77-3.1-.3c-.17-.02-.35-.04-.32-.38.03-.35.21-.33.38-.31l3.56.35s.05,0,.07.02l1.42-1.5-2.79-.39c-.17-.02-.35-.05-.3-.39.05-.35.22-.32.4-.3l3.12.43s.09.03.13.06l1.23-1.3-2.94-.41c-.17-.02-.35-.05-.3-.39.05-.35.22-.32.39-.3l3.43.48,1.62-1.71-3.06-.43c-.17-.02-.35-.05-.3-.39.05-.35.22-.32.39-.3l3.56.5,1.78-1.87h.47s-.04.56-.04.56l-1.75,1.84-.21,4.17c0,.17-.02.35-.37.33-.35-.02-.34-.19-.33-.36l.17-3.36-1.34,1.41v.03l-.22,4.3c0,.17-.02.35-.37.33-.35-.02-.34-.19-.33-.37l.18-3.51-1.55,1.63-.19,3.74c0,.17-.02.35-.37.33-.35-.02-.34-.19-.33-.37l.15-2.93-1.15,1.21-.12,3.96c0,.17-.01.35-.36.34-.35-.01-.34-.18-.34-.36l.09-3.18-1.39,1.46v4.2c0,.17,0,.35-.35.35s-.35-.18-.35-.35v-3.46l-.76.8h0Zm-4.36-4.08l.04.81c0,.17.02.35.37.33.35-.02.34-.19.33-.37l-.22-4.18,1.31-1.52.07,3.14c0,.18,0,.35.36.34.35,0,.35-.18.34-.36l-.09-3.92,1.46-1.69.04,3.71c0,.17,0,.35.35.35.35,0,.35-.18.35-.35l-.05-4.51,1.22-1.41v3.1c0,.17,0,.35.36.35s.35-.17.35-.35v-3.91s1.16-1.35,1.16-1.35l.1,3.3c0,.17,0,.35.36.34.35,0,.34-.18.34-.36l-.12-4.06,1.55-1.79v-.28s-.7.02-.7.02l-1.26,1.47-2.91-.31c-.17-.02-.35-.04-.38.31-.04.35.14.37.31.38l2.43.26-1.36,1.57-2.9-.08c-.18,0-.35,0-.36.34,0,.35.17.36.34.36l2.32.06-1.32,1.54-2.81-.1c-.17,0-.35-.01-.36.34-.01.35.16.36.34.36l2.24.08-1.33,1.54s-.07-.02-.1-.02l-1.64-.07c0,.23,0,.47-.01.7l1.19.05-1.23,1.42c-.07,1.5-.24,2.98-.48,4.42h0Zm15.59-2.42c-.13.01-.23.07-.23.34,0,.35.17.35.34.36l3.38.06.6-.66-4.1-.06v-.04h0Zm1.57,2.85h-3.87c-.17,0-.35,0-.35.35s.18.35.35.35h3.22l.65-.7h0Zm-1.88,2.04h-3.81c-.18,0-.35,0-.35.35s.17.35.35.35h3.17l.64-.7h0Zm-2.08,2.26h-3.65c-.18,0-.35,0-.35.35s.17.35.35.35h3l.65-.7h0Zm-2.16,2.34h-3.44c-.17,0-.35,0-.35.35s.18.35.35.35h2.8l.64-.7Z" style="fill: #004ea2; stroke-width: 0px;"/>
          </g>
          <path d="m109.98,78.15l-41.84,45.55.96,1.14,44.76-47.28s-1.31.41-3.88.59Z" style="fill: #fff; fill-rule: evenodd; stroke-width: 0px;"/>
          <path d="m53.6,170.47l41.84-45.55-.96-1.14-44.76,47.29s1.31-.41,3.88-.59Z" style="fill: #fff; fill-rule: evenodd; stroke-width: 0px;"/>
          <path d="m68.32,125.68l1,1.23.97-1.06-.33-.36-1.65-1.79,42.1-45.58c-1.5.05-2.24-.33-2.24-.33-2.55,4.16-7.77,7.29-10.89,8.89v.02s-30.03,33.29-30.03,33.29l-5.59-5.66v-32.3c-1.18-.93-2.02-1.65-2.42-1.99l-.65,1.66.51,31.35-2.41-3,.87,5.4h1.63v3.68l4.17.28v5.93l4.95.32Z" style="fill: #231815; fill-rule: evenodd; stroke-width: 0px;"/>
          <path d="m95.26,122.94l-1-1.23-.97,1.06.33.36,1.65,1.79-42.1,45.58c1.5-.05,2.24.33,2.24.33,2.55-4.16,7.77-7.29,10.89-8.89v-.02s30.03-33.3,30.03-33.3l5.59,5.66v32.3c1.18.93,2.02,1.65,2.42,1.99l.65-1.66-.51-31.35,2.41,3-.87-5.41h-1.63v-3.68l-4.17-.28v-5.93l-4.95-.32Z" style="fill: #231815; fill-rule: evenodd; stroke-width: 0px;"/>
          <polygon points="133.98 35.13 128 41.3 129.1 177.7 133.98 182 133.98 185.03 127.45 179.03 126.99 40.26 133.98 32.77 133.98 35.13" style="fill: #ffe100; fill-rule: evenodd; stroke-width: 0px;"/>
          <polygon points="29.59 213.49 35.57 207.31 34.48 70.92 29.59 66.61 29.59 63.59 36.13 69.59 36.59 208.36 29.59 215.85 29.59 213.49" style="fill: #ffe100; fill-rule: evenodd; stroke-width: 0px;"/>
          <polygon points="133.98 182 129.1 177.7 128 41.3 133.98 35.13 133.98 182" style="fill: #231815; fill-rule: evenodd; stroke-width: 0px;"/>
          <polygon points="29.59 66.61 34.48 70.92 35.57 207.31 29.59 213.49 29.59 66.61" style="fill: #231815; fill-rule: evenodd; stroke-width: 0px;"/>
          <path d="m130.25,177.73l2.27,2.03s.57-6.58.71-9.62c.14-3.04.14-5.11.05-5.78-.09-.67-.66-2.13-1.36-3.83-.69-1.7-.44-3.99.04-5.38.48-1.39,1.74-4.33,1.8-6.6.07-2.28-.84-7.08-1.57-9.03-.73-1.95-.5-4.72.26-6.7.76-1.98,1.09-4.44.94-6.74-.15-2.29-1.18-3.74-1.59-6.18-.41-2.44-.24-4.03.37-7.54.61-3.51.4-5.62.29-7.58-.12-1.96-1.08-4.28-1.08-6.94s-.45-14.69.33-19.78c.78-5.1.85-6.86.44-9.85-.41-2.99-1.44-5.48-1.02-8.37.42-2.88.67-7.83.65-10.66-.03-2.83-.9-4.54-.89-6.13.01-1.59.19-3.98.19-3.98,0,0-2.02,2.55-2.1,3.28-.08.73.18,2.03.65,3.33.47,1.3.54,2.42.45,5.04-.08,2.62-.45,10.25-.16,12.28.28,2.03.77,5.49.81,7.76.04,2.28-.73,3.59-1.04,6.14-.31,2.55-.73,5.65-.02,11.85.71,6.2.34,6.87-.02,8.19-.35,1.32-.29,2.99.44,5.2.72,2.21,1.18,4.95.75,8.08-.43,3.13-1.05,4.62-1.41,6.52-.36,1.89.32,4.63.96,6.81.64,2.17,1.17,3.53.38,7.27-.79,3.74-1.28,5.1-.98,8.2.3,3.1,1.03,3.5,1.6,5.5.57,2,.34,4.49-.48,7.49-.82,3-1.41,4.61-1.13,7.5.29,2.88,1.06,3.4,1.39,4.46.33,1.05.22,4.97-.29,9.01-.51,4.04-.64,4.76-.64,4.76Z" style="fill: #ffe100; fill-rule: evenodd; stroke-width: 0px;"/>
          <path d="m33.33,70.88l-2.27-2.03s-.57,6.58-.71,9.62-.14,5.11-.05,5.78c.09.67.66,2.13,1.36,3.83.69,1.7.44,3.99-.04,5.38-.48,1.39-1.74,4.33-1.8,6.6-.07,2.28.84,7.08,1.57,9.03.73,1.95.49,4.72-.26,6.7-.76,1.98-1.09,4.44-.94,6.73.15,2.29,1.18,3.74,1.59,6.18.41,2.44.24,4.03-.37,7.54-.61,3.51-.4,5.62-.29,7.58.12,1.96,1.08,4.28,1.08,6.94s.45,14.69-.33,19.78c-.78,5.1-.85,6.86-.44,9.85.41,2.99,1.44,5.48,1.02,8.37-.42,2.88-.67,7.83-.65,10.66.03,2.83.9,4.54.89,6.13-.01,1.59-.19,3.98-.19,3.98,0,0,2.02-2.55,2.1-3.28.08-.73-.18-2.03-.65-3.34-.47-1.3-.54-2.42-.45-5.04.08-2.62.45-10.25.17-12.28-.29-2.03-.77-5.49-.81-7.76-.04-2.28.73-3.59,1.04-6.14.31-2.55.73-5.65.02-11.85-.71-6.2-.34-6.87.02-8.19.35-1.32.29-2.99-.44-5.2-.72-2.21-1.18-4.95-.75-8.08.43-3.13,1.05-4.62,1.41-6.52.36-1.89-.32-4.63-.96-6.81-.64-2.18-1.17-3.53-.38-7.27.79-3.74,1.28-5.1.98-8.2-.3-3.1-1.03-3.5-1.6-5.5-.57-2-.34-4.49.48-7.5.82-3,1.41-4.61,1.13-7.5-.29-2.88-1.06-3.4-1.39-4.45-.33-1.05-.22-4.97.29-9.01.51-4.04.63-4.76.63-4.76Z" style="fill: #ffe100; fill-rule: evenodd; stroke-width: 0px;"/>
          <path d="m126.35,95.25v42.07l-5.26,4.72c-7.83-15.25-7.43-33.61,2.81-47.72l2.45.93Z" style="fill: #e60012; fill-rule: evenodd; stroke-width: 0px;"/>
          <path d="m37.23,153.37v-42.07l5.26-4.72c7.83,15.25,7.43,33.61-2.81,47.72l-2.45-.93Z" style="fill: #e60012; fill-rule: evenodd; stroke-width: 0px;"/>
          <path d="m118.73,145.25l-1.65,1.65s-7.44-13.61-6.48-28.84c.96-15.23,6.2-24.98,11.58-31.4l.27,3.85c-12.49,15.77-11.25,38.61-3.71,54.74Z" style="fill: #fff; fill-rule: evenodd; stroke-width: 0px;"/>
          <path d="m44.85,103.37l1.65-1.65s7.44,13.61,6.48,28.84c-.96,15.23-6.2,24.98-11.58,31.4l-.27-3.85c12.49-15.77,11.25-38.61,3.71-54.74Z" style="fill: #fff; fill-rule: evenodd; stroke-width: 0px;"/>
          <path d="m116.73,147.42l-1.82,1.76s-6.56-11.6-7.81-22.63c-1.26-11.02.73-28.87,14.08-43.84l.64,3.21s-9.56,10.71-11.52,27.38c-1.38,11.68,1.08,23.72,6.44,34.11Z" style="fill: #e60012; fill-rule: evenodd; stroke-width: 0px;"/>
          <path d="m46.85,101.2l1.82-1.76s6.56,11.6,7.81,22.62c1.26,11.02-.73,28.87-14.08,43.84l-.64-3.21s9.56-10.71,11.52-27.38c1.38-11.68-1.08-23.72-6.44-34.11Z" style="fill: #e60012; fill-rule: evenodd; stroke-width: 0px;"/>
          <g>
            <path d="m121.24,79.92l5.71.52s1.61-1.31,3.78-1.79c2.17-.47,3.39.59,3.58,1.42.2.84-.33,1.84-.78,2.26,0,0,.64.5.84,1.54.2,1.03.31,8.84.31,8.84,0,0-.8.51-1.68.95-.88.44-1.39.56-1.78.64-.39.07-.92-.05-1.29.45-.37.5-.5.5-.92.52-.42.02-.52,0-.94-.28-.42-.27-.47-.17-.77.18-.3.35-1.57.55-3.26-.69-1.69-1.24-1.8-3.34-1.76-5.15.04-1.8-.38-3.6-.79-4.54-.41-.94-.59-2.92-.25-4.88Z" style="fill: #004ea2; fill-rule: evenodd; stroke-width: 0px;"/>
            <path d="m123.63,76.74l-.28-.04s.58-2.65,1.25-3.36c.67-.71,1.51-.76,1.71-.65.2.11.07,1.67.04,2.41-.02.74-1.82,1.54-2.72,1.65h0Zm2.59-.46c-1.42.71-3.22,1.21-3.22,1.21,0,0-.49,1.33-.95,2.84-.46,1.51-.28,2.84.46,5.22.74,2.38.43,4.4.81,6.5.38,2.1,3.04,2.44,3.04,2.44,0,0,.02-.8,0-2.17-.02-1.36.14-3.82-.04-3.85-.18-.02-.67.89-1.09.62-.42-.27-.35-.44.04-1.2.4-.76.72-1.18.69-2.67-.04-1.49-.82-1.1-.43-1.64.39-.53.46-1.89.36-2.56-.11-.68-.53-.68-.04-1.89.5-1.21.62-2.94.62-2.94l-.26.08h0Zm1.71,9.36c.61,0,1.11.5,1.11,1.11s-.5,1.11-1.11,1.11-1.11-.5-1.11-1.11.5-1.11,1.11-1.11h0Zm-.13,4.1c.39,0,.71.32.71.71s-.32.71-.71.71-.71-.32-.71-.71.32-.71.71-.71h0Zm.83,3.09c.4,0,.72.32.72.71s-.32.71-.72.71-.71-.32-.71-.71.32-.71.71-.71h0Zm-.1-10.96l-.19.08s.39,1.7.17,2.38c0,0-1.62.19-1.87-.92-.26-1.11.55-1.55.55-1.55,0,0-.13-.68.7-1.17.83-.49,1.83-1.17,3.21-1.43,1.38-.26,2.62.38,2.68,1.34.06.96-.66,1.47-1.45,2.02-.79.55-2.13,1.34-2.77,1.38,0,0-.04-1-.36-1.7s-.36-.72-.51-.72-.06.23-.17.28h0Zm.51,2.91c.67.92.93,1.9.7,3.27.65-.14,3.65-2.22,3.87-2.44.22-.22.25-1.04.19-1.97-.05-.93-.6-1.04-1.47-.25-.87.79-3.28,1.38-3.28,1.38h0Zm.33,4.11c1.24-.46,2.19-.91,3.14-1.67.78-.63.91-.81,1.09-.71.18.1.3,2.4.21,2.83-.08.43-1.49,1.22-2.4,1.62-.91.4-1.77.51-1.77.51.45-1.54-.28-2.58-.28-2.58h0Zm.7,3l-.33.12s.52.74.64,1.86c0,0,2.96-.5,3.6-1.62v-2.12s-1.82,1.45-3.91,1.76Z" style="fill: #fff; fill-rule: evenodd; stroke-width: 0px;"/>
          </g>
          <g>
            <path d="m42.34,168.69l-5.71-.53s-1.61,1.31-3.78,1.79c-2.17.47-3.39-.59-3.58-1.42-.2-.84.33-1.84.78-2.26,0,0-.64-.5-.83-1.54-.2-1.03-.31-8.84-.31-8.84,0,0,.8-.51,1.68-.95.88-.44,1.39-.56,1.78-.64.39-.07.92.05,1.29-.45.37-.5.5-.5.92-.52.42-.02.52,0,.94.28.42.27.47.17.77-.18.3-.35,1.57-.55,3.26.69,1.69,1.24,1.8,3.34,1.76,5.14-.04,1.8.38,3.6.79,4.54.41.94.59,2.92.25,4.88Z" style="fill: #004ea2; fill-rule: evenodd; stroke-width: 0px;"/>
            <path d="m39.95,171.88l.28.04s-.58,2.65-1.25,3.36c-.67.72-1.51.76-1.71.65-.2-.11-.07-1.67-.04-2.41.02-.74,1.82-1.54,2.72-1.65h0Zm-2.59.46c1.42-.71,3.22-1.21,3.22-1.21,0,0,.49-1.33.95-2.84.45-1.51.28-2.84-.46-5.22-.74-2.38-.43-4.4-.81-6.5-.38-2.1-3.04-2.44-3.04-2.44,0,0-.02.8,0,2.17.02,1.36-.14,3.82.04,3.85s.67-.89,1.09-.62c.42.27.35.45-.04,1.2-.4.76-.72,1.18-.69,2.67.04,1.5.82,1.1.43,1.64-.39.53-.46,1.89-.36,2.56.11.68.53.68.04,1.89-.5,1.21-.62,2.94-.62,2.94l.26-.08h0Zm-1.71-9.36c-.61,0-1.11-.5-1.11-1.11s.5-1.11,1.11-1.11,1.11.5,1.11,1.11-.5,1.11-1.11,1.11h0Zm.13-4.1c-.39,0-.71-.32-.71-.72s.32-.71.71-.71.71.32.71.71-.32.72-.71.72h0Zm-.83-3.09c-.4,0-.72-.32-.72-.71s.32-.72.72-.72.71.32.71.72-.32.71-.71.71h0Zm.1,10.96l.19-.08s-.39-1.7-.17-2.39c0,0,1.62-.19,1.87.92.26,1.11-.55,1.55-.55,1.55,0,0,.13.68-.7,1.17-.83.49-1.83,1.17-3.21,1.43-1.38.26-2.62-.38-2.68-1.34-.06-.96.66-1.47,1.45-2.02.79-.55,2.13-1.34,2.77-1.38,0,0,.04,1,.36,1.7.32.7.36.72.51.72s.06-.23.17-.28h0Zm-.51-2.91c-.67-.92-.93-1.9-.7-3.27-.65.14-3.65,2.22-3.87,2.43-.22.22-.25,1.04-.19,1.97.05.93.6,1.04,1.47.25.87-.79,3.28-1.38,3.28-1.38h0Zm-.33-4.11c-1.23.46-2.19.91-3.14,1.67-.78.63-.91.81-1.09.71-.18-.1-.3-2.4-.21-2.83.08-.43,1.49-1.22,2.4-1.62.91-.4,1.77-.51,1.77-.51-.45,1.54.28,2.58.28,2.58h0Zm-.7-3l.33-.12s-.52-.74-.64-1.86c0,0-2.96.5-3.6,1.62v2.12s1.82-1.45,3.91-1.76Z" style="fill: #fff; fill-rule: evenodd; stroke-width: 0px;"/>
          </g>
          <g>
            <path d="m133.98,62.21c-10.63-1.66-19.9-7.66-22.14-20.34,0,0,.96,1.92,4.64,3.83,3.63,1.89,9.44,4.72,17.5,5.52v10.99Z" style="fill: #004ea2; fill-rule: evenodd; stroke-width: 0px;"/>
            <path d="m133.98,59.68c-2.1-.27-6.08-.98-9.17-2.66-4.41-2.4-6.14-4.33-7.52-8.07,0,0,5.28,4.5,16.7,4.59v6.14Z" style="fill: #231815; fill-rule: evenodd; stroke: #231815; stroke-miterlimit: 22.93; stroke-width: 0px;"/>
            <path d="m133.98,53.54c-11.42-.09-16.7-4.59-16.7-4.59,1.39,3.74,3.11,5.67,7.52,8.07,3.09,1.68,7.07,2.39,9.17,2.66v1.78c-1.77-.25-6.19-1.05-9.76-3.05-4.58-2.56-8.7-6.05-11.31-14.21,0,0,8.63,6.65,21.07,7.8v1.55h0Zm-2.26,3.9c.71,0,1.3-.58,1.3-1.3s-.58-1.3-1.3-1.3-1.3.58-1.3,1.3.58,1.3,1.3,1.3h0Zm-4.02-.84c.68,0,1.24-.56,1.24-1.24s-.56-1.24-1.24-1.24-1.24.56-1.24,1.24.56,1.24,1.24,1.24h0Zm-6.13-3.38c.39,0,.71-.32.71-.71s-.32-.71-.71-.71-.71.32-.71.71.32.71.71.71h0Zm2.51,1.97c.58,0,1.04-.47,1.04-1.04s-.47-1.04-1.04-1.04-1.04.47-1.04,1.04.47,1.04,1.04,1.04Z" style="fill: #ffe100; fill-rule: evenodd; stroke-width: 0px;"/>
          </g>
          <g>
            <path d="m29.59,186.41c10.63,1.66,19.9,7.66,22.14,20.34,0,0-.96-1.92-4.64-3.83-3.63-1.89-9.44-4.72-17.5-5.52v-10.99Z" style="fill: #004ea2; fill-rule: evenodd; stroke-width: 0px;"/>
            <path d="m29.59,188.94c2.1.27,6.08.98,9.17,2.66,4.41,2.4,6.14,4.33,7.53,8.07,0,0-5.28-4.5-16.7-4.59v-6.14Z" style="fill: #231815; fill-rule: evenodd; stroke: #231815; stroke-miterlimit: 22.93; stroke-width: 0px;"/>
            <path d="m29.59,195.08c11.42.09,16.7,4.59,16.7,4.59-1.39-3.74-3.11-5.67-7.53-8.07-3.09-1.68-7.07-2.39-9.17-2.66v-1.78c1.77.25,6.19,1.05,9.76,3.05,4.58,2.56,8.7,6.05,11.31,14.21,0,0-8.63-6.65-21.07-7.8v-1.54h0Zm2.26-3.9c-.72,0-1.3.58-1.3,1.29s.58,1.3,1.3,1.3,1.29-.58,1.29-1.3-.58-1.29-1.29-1.29h0Zm4.01.84c-.68,0-1.24.56-1.24,1.24s.56,1.24,1.24,1.24,1.24-.56,1.24-1.24-.56-1.24-1.24-1.24h0Zm6.13,3.38c-.39,0-.71.32-.71.71s.32.71.71.71.71-.32.71-.71-.32-.71-.71-.71h0Zm-2.51-1.97c-.58,0-1.04.47-1.04,1.04s.47,1.04,1.04,1.04,1.04-.47,1.04-1.04-.47-1.04-1.04-1.04Z" style="fill: #ffe100; fill-rule: evenodd; stroke-width: 0px;"/>
          </g>
          <path d="m58.37,26.78l10.9,15.02s9.01-1.93,17.4-1.47c9.33.24,19.22,3.4,19.22,3.4l10.19-16.95h-57.71Z" style="fill: #e60012; fill-rule: evenodd; stroke-width: 0px;"/>
          <path d="m105.21,221.84l-10.9-15.02s-9.01,1.93-17.4,1.47c-9.33-.24-19.22-3.4-19.22-3.4l-10.19,16.95h57.71Z" style="fill: #e60012; fill-rule: evenodd; stroke-width: 0px;"/>
          <path d="m68.73,47.72v-4.43s7.38-2.1,23.5-.99c0,0,1.87,11.58,4.34,18.07,0,0-2.71,2.3-3.13,5.63-.42,3.33.95,5.53.95,5.53,0,0-4.56,5.51-11.13,6.5-6.57.99-10.01-2.92-12.25-11.1,0,0-1.23-4.16-1.87-11.22,0,0,1.31.19,2.06.68.75.49,1.51.46,2.05.19.54-.27,1.08-.32,1.72-.27,0,0-.54.8-1.15,1.4-.61.6-.66.79-.64,1.04.01.26.51.27,1.11-.51.6-.79,1.31-1.49,1.45-1.57.14-.08.21.09.11.64-.1.56-.67,2.87-.91,4.57-.24,1.7.56,2.43,1.37,2.47.81.04,1.86.57,2.58,1.4,0,0,.44.12.44-.43s-.52-.99-1.13-1.5c-.61-.51-1.59-.95-2.02-1.16-.42-.2-.38-1.11-.12-2.29.26-1.18.74-3.41,1.03-5.17.29-1.76.37-3.83.27-4.99-.1-1.16-1.59-3.68-3.9-3.97-1.88-.23-3.63.76-4.75,1.47h0Zm.22,4.6c.46-.16,1.02-.47,1.34-.55.91-.23,2.71-.18,3.78.07,1.07.25,1.69.69,1.69.69-.48-1.38-1.78-1.76-3.4-1.88-1.62-.11-2.23.69-2.55.6-.32-.09-.73-.5.3-.99,1.03-.48,2.6-.55,3.85-.18,1.25.37,1.78,1.17,2.21,1.24.43.07.55-.09.55-.09.32-1.03-1.82-3.11-3.8-3.23-1.98-.11-4.12,1.92-4.12,1.92l.16,2.4h0Zm.36,1.48s-.38.02.04.67c.42.65.85.54.82.29-.02-.25-.69-.85-.69-.85l-.18-.11h0Zm4.53-.65c-.08.04-.2.34-.41.82-.21.47-.45.94-.92.96-.47.03-1.09-1-1.26-1.5-.17-.5-.84-.37-.8-.07.04.3.17,1.08.73,1.83.56.75,1.64.84,2.33.14.7-.7.72-1.51.72-1.82s-.3-.39-.3-.39l-.1.03h0Zm.82,2.2c.89-.13,1.48-.88,1.46-1.01-.01-.14-.45-.41-.73-.57-.27-.16-.38-.19-.38.14s-.33,1.38-.33,1.38l-.03.06Z" style="fill: #fff; fill-rule: evenodd; stroke-width: 0px;"/>
          <path d="m94.85,200.9v4.43s-7.38,2.1-23.5.99c0,0-1.87-11.58-4.34-18.07,0,0,2.71-2.31,3.13-5.63.42-3.33-.95-5.53-.95-5.53,0,0,4.56-5.51,11.13-6.5,6.57-.99,10.01,2.92,12.25,11.1,0,0,1.23,4.16,1.87,11.22,0,0-1.31-.19-2.06-.67-.75-.49-1.51-.46-2.05-.19-.54.27-1.08.32-1.72.27,0,0,.54-.8,1.15-1.4.61-.6.65-.79.64-1.04-.02-.26-.51-.27-1.11.51-.6.79-1.31,1.49-1.45,1.57-.14.08-.21-.09-.11-.64.1-.56.67-2.87.91-4.57.24-1.7-.57-2.43-1.37-2.47-.81-.04-1.86-.57-2.58-1.4,0,0-.44-.12-.44.43s.52.99,1.13,1.5c.61.51,1.59.95,2.02,1.16.42.2.38,1.11.12,2.29-.26,1.18-.74,3.41-1.03,5.17-.29,1.76-.37,3.83-.27,4.99.1,1.16,1.59,3.68,3.9,3.97,1.88.23,3.63-.76,4.75-1.47h0Zm-.22-4.6c-.46.16-1.02.47-1.34.55-.91.23-2.71.18-3.78-.07-1.07-.25-1.69-.69-1.69-.69.48,1.38,1.78,1.76,3.4,1.88,1.62.11,2.23-.69,2.55-.6.32.09.73.5-.3.98-1.03.48-2.6.55-3.85.18-1.25-.37-1.78-1.17-2.21-1.24-.43-.07-.55.09-.55.09-.32,1.03,1.82,3.11,3.8,3.23,1.98.11,4.12-1.92,4.12-1.92l-.16-2.4h0Zm-.35-1.48s.38-.02-.04-.67c-.42-.65-.84-.54-.82-.29.02.25.69.85.69.85l.18.11h0Zm-4.53.65c.08-.04.2-.34.41-.82.21-.47.45-.94.92-.96.47-.03,1.09,1,1.26,1.5.17.5.84.37.8.07-.04-.3-.17-1.08-.73-1.83-.56-.75-1.64-.84-2.33-.14-.7.7-.72,1.51-.72,1.82s.3.4.3.4l.1-.03h0Zm-.82-2.2c-.89.13-1.48.88-1.46,1.01.01.14.45.41.73.57.27.16.38.19.38-.14s.33-1.38.33-1.38l.03-.06Z" style="fill: #fff; fill-rule: evenodd; stroke-width: 0px;"/>
          <path d="m89.41,53.26h.11s.56.31.61.58c.05.27-.14.46-.59.76-.44.3-.78.29-.78.29,0,0,.11-.46.2-.8.09-.34.34-.76.44-.84h0Zm-4.71-.59s.09.52.26,1.06c.17.54.71,1.44,1.49,1.49.78.05,1.84-.54,2.02-1.32.17-.78-.14-1.23-.14-1.23,0,0-.43,1.55-1.41,1.88-.97.33-1.34-.8-1.62-2,0,0-.05-.18-.42-.12-.19.03-.28.07-.19.24h0Zm-1.52-4.13c-4.4,1.31-1.83.79-2.3.85-.47.06-.62-.54-.58-1.12.04-.58,1.56-1.5,3.54-1.86,1.98-.36,6.04-.41,8.9,3.04,0,0-.49-.04-1.08-.2-3.77-1.03-4.09-2.02-8.48-.71h0Zm-2.21,2.03c-.35.39.59,1.42.77,1.67.4.55.17.86.23,1.39.06.53.09,1.27.78,1.99.69.72,2.14,2.4,2.73,2.8.59.41,1.49.42,1.53.27.05-.15-.13-.27-.83-1.05-.69-.78-1.47-1.81-1.47-1.81,0,0,3.68.17,4.47-.06.78-.24,1.76-1.07,2.18-1.09.41-.03.95.14,1.39.26.44.12,1.1.25,1.1-.07s-1.5-2.09-3.03-2.94c-1.53-.84-3.38-1.28-4.92-1.07-1.54.21-1.5.62-2.44.74-.94.12-.66-.19-.66-.19,1.21-1.04,3.34-1.81,4.66-1.71,1.32.09,2.72.92,3.58,1.68.86.75,1.77,1.79,1.77,1.79.2.18.64-.22.55-.36,0,0-.9-1.34-2.2-2.39-1.3-1.05-2.41-1.5-4.2-1.54-1.78-.04-2.79.62-3.21,1.08-.42.46-.74.8-1.49.85-.75.05-1.29-.23-1.29-.23h0Zm2.82,2.91l.21.04s.21.43.4.7c.19.26.28.66-.14.68-.42.02-.89-.4-1.01-.78-.12-.38.16-.63.54-.63h0Zm-4.7,10.1l-.21.07s-.43-.42-.35-1.16c.08-.74.61-1.04,1.16-.99.55.05.95.49,1.6.82.64.33.96.45,1.66.42.7-.03.97-.57.95-1.08-.03-.51-.34-.95-.75-1.18-.41-.24.03-.58.49-.58s1.11.58,1.17,1.25c.07.67-.03,2.28-1.41,2.67-1.38.4-2.52-.26-2.86-.54-.34-.28-.49-.37-.86-.29-.37.08-.41.42-.58.59h0Zm-4.45,7.1h-.18s0-3.42,0-3.42c0,0,.59.79,1.4.74.8-.05.84-.31,1.26-.68.42-.37,1.01-.13,1.16.13.15.26.68.33,1.06.04.38-.29.57-.68,1.32-.75.75-.08,1.1.16,1.72.44.62.27,1.01.27,1.31.03.3-.24.44-.49.62-.47.18.01.26.58.28,1.08.03.5.36,1.26.69,1.5,0,0,.19.12.19.36s-.5.23-.87.16c-.37-.07-.6-.37-1.33-.74-.74-.37-.9-.37-1.28-.36-.38.01-1.16.31-1.77.69-.62.38-1.27.44-1.85.44s-1.14-.26-1.63-.38c-.49-.12-.58-.12-.92-.1-.35.01-.69.52-.84.86-.14.33-.17.44-.33.46h0Zm1.95-.33c.56,1.58,2.87,1.65,3.53,1.6,1.15-.1,2.22-1.04,2.37-1.26.15-.22.22-.54-.07-.45-.29.08-.82.39-1.74.6-.92.22-1.81.17-2.51-.05-.7-.22-1.59-.44-1.59-.44h0Zm.16,4.14c-.24.02,1.62-1.75,2.97-1.75s2.97.54,3.52,1.66c0,0-.03.36-.49.41-.45.05-1.41-.7-2.62-.81-1.25-.11-2.16.41-3.38.49Z" style="fill: #004ea2; fill-rule: evenodd; stroke-width: 0px;"/>
          <path d="m74.17,195.36h-.11s-.56-.31-.61-.58c-.05-.27.14-.46.59-.76.44-.3.78-.29.78-.29,0,0-.11.46-.2.8-.09.34-.34.76-.44.84h0Zm4.71.59s-.09-.52-.26-1.06c-.17-.54-.71-1.44-1.49-1.49-.78-.05-1.84.54-2.02,1.32-.17.78.14,1.23.14,1.23,0,0,.43-1.55,1.41-1.88.97-.33,1.34.8,1.62,2,0,0,.05.18.42.12.19-.03.28-.07.19-.24h0Zm1.52,4.13c4.4-1.31,1.83-.79,2.3-.85.47-.06.62.55.58,1.12-.04.58-1.56,1.5-3.54,1.86-1.98.36-6.04.41-8.9-3.04,0,0,.49.04,1.08.2,3.77,1.03,4.09,2.02,8.48.71h0Zm2.21-2.03c.35-.39-.59-1.42-.77-1.67-.4-.55-.17-.86-.23-1.39-.06-.53-.09-1.27-.78-1.99-.69-.72-2.14-2.4-2.73-2.8-.59-.41-1.49-.42-1.53-.27-.05.15.14.27.83,1.05.69.79,1.47,1.81,1.47,1.81,0,0-3.68-.17-4.47.06-.78.24-1.76,1.07-2.18,1.09-.41.03-.95-.14-1.39-.26-.44-.12-1.1-.25-1.1.07s1.5,2.09,3.03,2.94c1.53.84,3.38,1.28,4.92,1.07,1.54-.21,1.5-.62,2.44-.74.94-.12.66.19.66.19-1.21,1.04-3.34,1.8-4.66,1.71-1.32-.09-2.72-.92-3.58-1.68-.86-.75-1.77-1.79-1.77-1.79-.2-.18-.64.22-.55.36,0,0,.9,1.34,2.2,2.39,1.3,1.05,2.41,1.5,4.2,1.54,1.78.04,2.79-.62,3.2-1.08.42-.46.74-.8,1.49-.85.75-.05,1.29.23,1.29.23h0Zm-2.82-2.91l-.21-.04s-.21-.43-.4-.7c-.19-.26-.28-.66.14-.68.42-.02.89.4,1.01.78.12.38-.16.63-.54.63h0Zm4.7-10.1l.21-.07s.43.42.35,1.16c-.08.74-.61,1.04-1.16.99-.55-.05-.95-.49-1.6-.82-.64-.33-.96-.45-1.66-.42-.7.03-.97.57-.95,1.08.03.51.34.95.75,1.18.41.24-.03.58-.49.58s-1.11-.58-1.17-1.25c-.07-.67.03-2.28,1.41-2.68,1.38-.39,2.52.26,2.86.54.34.28.49.37.86.29.37-.08.41-.42.58-.59h0Zm4.45-7.1h.18s0,3.43,0,3.43c0,0-.59-.79-1.4-.74-.8.05-.84.31-1.26.68-.42.37-1.01.13-1.16-.13-.15-.26-.68-.33-1.06-.04-.38.29-.57.68-1.32.75-.75.07-1.1-.16-1.72-.44-.62-.27-1.01-.27-1.31-.03-.3.24-.44.49-.62.47-.18-.01-.26-.58-.28-1.08-.03-.5-.36-1.26-.69-1.5,0,0-.19-.12-.19-.36s.5-.23.87-.16c.37.07.6.37,1.33.74.74.37.9.37,1.28.36.38-.01,1.15-.31,1.77-.69.62-.38,1.27-.44,1.85-.44s1.14.26,1.63.38c.49.12.58.12.92.1.35-.01.69-.52.84-.86.14-.33.17-.43.33-.46h0Zm-1.95.33c-.56-1.58-2.87-1.65-3.53-1.6-1.15.1-2.22,1.04-2.37,1.26-.15.22-.22.54.07.45.29-.08.82-.39,1.74-.61.92-.22,1.81-.17,2.51.05.7.22,1.59.44,1.59.44h0Zm-.16-4.14c.24-.01-1.62,1.75-2.97,1.75s-2.97-.54-3.52-1.66c0,0,.03-.36.49-.41.46-.05,1.41.7,2.62.81,1.25.11,2.16-.41,3.38-.49Z" style="fill: #004ea2; fill-rule: evenodd; stroke-width: 0px;"/>
          <path d="m103.75,76.83c-.17,0-.34-.02-.52-.03-1.64-.1-4.72-.72-6.98-3.51-2.26-2.79-2.2-5.54-2.1-7.32.09-1.78,1.65-4.15,2.75-4.95.08.3.16.6.24.9-.37.46-1.77,2.4-1.77,5.6,0,3.62,2.8,7.93,7.15,7.48.41.67.83,1.27,1.23,1.82h0Zm-5.53-11.32c-.1.42-.24,1.15-.22,1.98.03,1.27.41,3.55,2.88,4.57-.92-1.84-1.82-4-2.66-6.54h0Zm-.94-3.08c-.41.58-1.03,1.77-1.2,3.74-.25,3,.47,5.37,2.75,7.36,0,0,1.5,1.23,3.42,1.04-.37-.61-.73-1.26-1.09-1.96-3.55-.75-4.25-5.12-3.26-8.09-.21-.67-.42-1.36-.62-2.08h0Zm-4.41-20.05c.26,1.27,1.42,6.8,2.35,10.47,1.05,4.17,3.02,11.19,4.87,15.93,1.85,4.74,4.14,7.88,4.79,8.18,0,0,1.05.03,1.22-.08,0,0-1.83-1.71-3.31-4.8-1.48-3.09-2.64-6.27-4.35-11.91-1.57-5.19-3.71-15.89-4.05-17.59-.62-.09-1.14-.16-1.52-.2h0Zm2.02.28c.31,1.52,1.95,9.41,3.72,15.84,1.96,7.15,3.02,9.57,4.1,12.24,1.08,2.67,3.55,6.46,5.85,6.69,0,0-1.14-1.53-2.09-2.83-.95-1.29-2.91-5.17-4.46-9.41-1.55-4.24-2.44-7.34-4.22-14.79-1.14-4.79-1.51-6.75-1.62-7.54-.45-.07-.88-.14-1.27-.2h0Zm1.81.28c.22,1.11,1.5,7.7,2.84,12.74,1.46,5.53,2.58,8.65,3.8,11.53,1.21,2.88,4.46,10.3,7.19,10.46,0,0,.44.03.47-.28.03-.31-.54-.28-1.6-1.57-1.07-1.29-2.82-3.8-4.27-7.72-1.44-3.92-1.47-3.62-3.53-10.23-1.73-5.56-3.29-12.63-3.74-14.72-.4-.07-.78-.14-1.16-.2h0Zm1.63.28c.26.92,1.06,3.73,1.44,5.27.45,1.85,1.63,6.91,3.16,11.73,1.52,4.82,2.95,8.5,4.63,11.87,1.68,3.37,3.45,4.92,4.67,5.09,1.22.17,1.9-.39,1.9-.39,0,0-1.07-.27-2.98-2.22-1.91-1.95-3.93-5.5-5.3-9.05-1.38-3.54-3.12-9.67-4.51-15.12-.98-3.83-1.46-5.98-1.66-6.93-.44-.09-.89-.18-1.33-.26h0Zm1.85.37c.21.87.69,2.87,1.21,5,.69,2.84,1.22,4.99,2.43,9.11,1.2,4.12,1.72,5.77,3.61,10.04,1.89,4.27,3.55,6.2,5.2,7.56,1.65,1.36,2.66,1.09,3.7.16,0,0-1.65,0-2.88-1.04-1.23-1.04-2.78-2.04-4.96-6.77-2.18-4.73-3.33-9.02-4.72-14.36-1.07-4.13-1.86-7.89-2.16-9.38-.47-.11-.95-.22-1.43-.33h0Zm2.06.48c.37,1.64,1.48,6.52,2.16,9.28.83,3.36,1.5,6.12,3.26,11.06,1.76,4.93,4.03,8.11,6.2,9.64,2.16,1.52,5.06.62,5.29-2.56.23-3.18-1.39-4.28-2.97-4.21-1.58.07-2.94.94-3.23,2.33-.29,1.39,1.23,2.76,2.42,2.89,1.19.13,1.81-.78,1.87-1.52.06-.75-.68-1.39-1.42-1.36-.74.03-.81.55-1.26.58-.45.03-.42-.58.29-.91.71-.32,1.9-.36,2.78.84.87,1.2-.45,2.72-1.52,2.98-1.06.26-2.94-.88-4.26-3.02-1.32-2.14-3.34-6.52-5.01-12.71-1.41-5.24-2.8-11.2-3.2-12.91-.45-.14-.92-.27-1.41-.4h0Zm1.88.56c.64.22,1.21.45,1.68.69,3.73,16.6,7.41,22.52,7.41,22.52l-1.03,1.73s-1.6-2.17-3.23-7.57c-1.47-4.84-4.26-15.27-4.82-17.37Z" style="fill: #ffe100; fill-rule: evenodd; stroke-width: 0px;"/>
          <path d="m59.83,171.78c.17,0,.34.02.52.03,1.64.1,4.72.72,6.98,3.51,2.26,2.79,2.2,5.54,2.1,7.32-.09,1.78-1.65,4.15-2.75,4.95-.08-.3-.16-.6-.24-.9.37-.46,1.77-2.4,1.77-5.6,0-3.62-2.8-7.93-7.15-7.48-.41-.67-.83-1.27-1.23-1.82h0Zm5.53,11.32c.1-.42.24-1.15.22-1.98-.03-1.27-.41-3.55-2.88-4.57.91,1.84,1.82,4,2.66,6.54h0Zm.94,3.08c.41-.58,1.03-1.77,1.2-3.74.25-3-.47-5.37-2.75-7.36,0,0-1.5-1.23-3.42-1.04.37.61.73,1.26,1.09,1.96,3.55.75,4.25,5.12,3.26,8.09.21.67.41,1.36.61,2.08h0Zm4.41,20.05c-.26-1.27-1.42-6.8-2.35-10.47-1.05-4.17-3.02-11.19-4.87-15.93-1.85-4.74-4.14-7.88-4.79-8.18,0,0-1.05-.03-1.22.08,0,0,1.83,1.71,3.31,4.8,1.48,3.09,2.64,6.27,4.35,11.91,1.57,5.19,3.71,15.89,4.05,17.58.62.09,1.14.16,1.52.2h0Zm-2.03-.27c-.31-1.52-1.95-9.41-3.72-15.84-1.96-7.15-3.02-9.57-4.1-12.24-1.08-2.67-3.55-6.46-5.85-6.69,0,0,1.14,1.53,2.09,2.83.95,1.29,2.91,5.17,4.46,9.41,1.55,4.24,2.44,7.34,4.22,14.79,1.14,4.79,1.51,6.75,1.62,7.54.45.07.88.14,1.27.19h0Zm-1.81-.28c-.22-1.11-1.5-7.7-2.84-12.74-1.46-5.53-2.58-8.65-3.8-11.53-1.21-2.88-4.46-10.3-7.19-10.45,0,0-.44-.03-.47.28-.03.31.54.28,1.6,1.57,1.07,1.29,2.82,3.8,4.27,7.72,1.44,3.92,1.47,3.62,3.53,10.23,1.73,5.56,3.29,12.63,3.74,14.72.4.07.78.14,1.16.2h0Zm-1.63-.28c-.26-.92-1.06-3.73-1.44-5.27-.45-1.85-1.63-6.91-3.16-11.73-1.52-4.82-2.95-8.5-4.63-11.87-1.68-3.37-3.45-4.92-4.67-5.09-1.22-.17-1.9.39-1.9.39,0,0,1.07.27,2.98,2.22,1.92,1.95,3.93,5.5,5.3,9.05,1.38,3.54,3.12,9.67,4.52,15.12.98,3.83,1.46,5.98,1.66,6.93.44.09.89.18,1.33.26h0Zm-1.85-.37c-.21-.87-.69-2.87-1.21-5-.69-2.84-1.22-4.99-2.43-9.11-1.21-4.12-1.72-5.77-3.61-10.04-1.89-4.27-3.55-6.2-5.2-7.56-1.65-1.36-2.66-1.09-3.7-.16,0,0,1.65,0,2.88,1.04,1.22,1.04,2.78,2.04,4.96,6.77,2.18,4.73,3.33,9.02,4.72,14.36,1.07,4.13,1.86,7.89,2.16,9.38.47.11.95.22,1.43.33h0Zm-2.06-.48c-.37-1.64-1.48-6.52-2.16-9.28-.83-3.36-1.5-6.12-3.26-11.06-1.76-4.93-4.03-8.11-6.2-9.64-2.16-1.53-5.06-.62-5.29,2.56-.23,3.18,1.39,4.28,2.97,4.22,1.58-.07,2.94-.94,3.23-2.33.29-1.39-1.23-2.76-2.42-2.88-1.19-.13-1.81.78-1.87,1.52-.06.75.68,1.39,1.42,1.36.74-.03.81-.55,1.26-.58.45-.03.42.58-.29.91-.71.32-1.9.36-2.78-.84-.87-1.2.45-2.72,1.52-2.98,1.06-.26,2.94.88,4.26,3.02,1.32,2.14,3.34,6.52,5.01,12.71,1.41,5.24,2.8,11.2,3.2,12.91.45.14.92.27,1.41.4h0Zm-1.88-.56c-.64-.22-1.21-.44-1.68-.69-3.73-16.6-7.41-22.52-7.41-22.52l1.03-1.73s1.6,2.17,3.23,7.57c1.46,4.84,4.26,15.27,4.82,17.37Z" style="fill: #ffe100; fill-rule: evenodd; stroke-width: 0px;"/>
          <path d="m66.54,57.87l1.85-4.44.37,3.77s-1.12,3.29-2.97,3.8c-1.85.52-2.85-1.1-2.45-1.95.39-.85.94-.52,1.57-.33.63.18,1.42.09,1.63-.85Z" style="fill: #ffe100; fill-rule: evenodd; stroke-width: 0px;"/>
          <path d="m97.03,190.75l-1.85,4.44-.37-3.77s1.12-3.29,2.97-3.8c1.85-.52,2.85,1.1,2.45,1.95-.39.85-.94.52-1.57.33-.63-.18-1.42-.09-1.63.85Z" style="fill: #ffe100; fill-rule: evenodd; stroke-width: 0px;"/>
          <path d="m75.82,76.99l-.84,1.11c1.1.11,2.07.19,2.78.23l.12-.13c-.75-.28-1.43-.7-2.06-1.21h0Zm-1.51-1.53c.37.46.77.89,1.2,1.27l-1.19,1.31c-.83-.09-1.71-.2-2.61-.33l2.61-2.25h0Zm-5.43,1.75c.71.15,1.45.28,2.18.4l2.93-2.55c-.3-.41-.59-.84-.86-1.28l-4.25,3.43h0Zm-2.86-1.4c.76.72,1.01.98,2.02,1.22,1.55-.89,4.42-3.13,4.93-3.53-.18-.31-.35-.62-.51-.94-2.8,2.22-5.44,3.01-6.43,3.25h0Zm-1.72-1.86c.86.02,4.56-.15,6.99-4.01.27.71.58,1.42.92,2.12-.32.33-1.31,1.27-2.96,2.14-1.49.78-3.14.9-3.93.91-.36-.37-.7-.76-1.02-1.16h0Zm6.21-6.27c.16.51.33,1.03.52,1.57-.75,2-2.71,3.3-4.15,3.78-1.06.35-2.26.46-2.93.49-.34-.44-.66-.9-.95-1.37l-.17-.27c.87.12,3.41.35,5.12-.87,1.64-1.18,2.34-2.73,2.57-3.33h0Zm-6.04-1.42c.63,0,.15.55-.14.87-.45.48-.77,1.77.07,2,.64.18,1.63-.05,2.07-.43.43-.38.25-1.02-.13-1.68-.38-.66-1.38-2.22-2.93-1.89-1.56.33-1.96,1.74-1.86,3.57.1,1.84,1.33,2.83,2.65,2.81,1.33-.03,2.8-.15,4.43-1.79,1.07-1.07,1.47-2.28,1.61-2.98-.58-2.06-.86-3.71-.95-4.26-.17.81-.64,2.99-1.09,4.21-.55,1.52-1.7,2.92-2.92,3.12-1.22.21-2.09-.8-2.11-1.61s.92-1.95,1.31-1.95Z" style="fill: #ffe100; fill-rule: evenodd; stroke-width: 0px;"/>
          <path d="m87.76,171.63l.84-1.11c-1.1-.11-2.07-.18-2.78-.23l-.12.13c.75.28,1.43.7,2.06,1.21h0Zm1.51,1.53c-.37-.46-.77-.89-1.2-1.27l1.19-1.31c.83.09,1.71.2,2.61.33l-2.61,2.25h0Zm5.43-1.75c-.71-.15-1.45-.28-2.18-.4l-2.93,2.55c.3.41.59.84.86,1.28l4.25-3.43h0Zm2.86,1.4c-.76-.72-1.01-.98-2.02-1.21-1.55.89-4.42,3.13-4.93,3.53.18.31.35.62.52.94,2.8-2.22,5.44-3.01,6.43-3.25h0Zm1.73,1.86c-.86-.02-4.56.15-6.99,4.01-.27-.71-.58-1.42-.92-2.12.32-.33,1.31-1.27,2.96-2.14,1.49-.78,3.14-.9,3.93-.91.36.38.7.76,1.02,1.16h0Zm-6.21,6.27c-.16-.51-.33-1.03-.52-1.57.75-2,2.71-3.3,4.15-3.78,1.06-.35,2.26-.46,2.93-.49.34.44.66.9.95,1.37l.17.27c-.87-.12-3.42-.35-5.12.87-1.64,1.18-2.34,2.73-2.57,3.33h0Zm6.04,1.42c-.63,0-.15-.55.14-.87.45-.48.77-1.77-.07-2-.64-.18-1.63.05-2.06.43-.43.38-.26,1.02.13,1.68.38.66,1.38,2.22,2.93,1.89,1.56-.33,1.96-1.73,1.86-3.57-.1-1.84-1.33-2.83-2.65-2.81-1.33.03-2.8.15-4.43,1.79-1.07,1.07-1.47,2.28-1.61,2.98.58,2.06.86,3.71.95,4.26.17-.81.64-2.99,1.09-4.21.55-1.52,1.7-2.92,2.92-3.12,1.22-.21,2.09.8,2.11,1.61s-.92,1.95-1.31,1.95Z" style="fill: #ffe100; fill-rule: evenodd; stroke-width: 0px;"/>
          <path d="m68.32,77.61s3.34,2.56,8.13,3.98c.92-1.7,1.71-2.32,1.99-2.5-3.36-.02-6.78-.64-10.13-1.48h0Zm15.91,4.8c.03-2.05-1.41-3.16-2.08-3.57,0,0,.02,0,.03,0,4.39-.64,8.61-2.59,12.35-6.76,1.49,2.66,4.37,4.15,4.37,4.15,0,0-4.42,4.47-13.47,6.02-.4.07-.8.12-1.2.16Z" style="fill: #fff; fill-rule: evenodd; stroke-width: 0px;"/>
          <path d="m95.26,171.01s-3.34-2.56-8.13-3.98c-.92,1.7-1.71,2.32-1.99,2.5,3.36.02,6.78.64,10.13,1.48h0Zm-15.91-4.8c-.03,2.05,1.41,3.16,2.08,3.56,0,0-.02,0-.03,0-4.39.64-8.61,2.59-12.35,6.76-1.49-2.66-4.37-4.15-4.37-4.15,0,0,4.42-4.47,13.47-6.02.4-.07.8-.12,1.2-.16Z" style="fill: #fff; fill-rule: evenodd; stroke-width: 0px;"/>
          <path d="m61.91,71.35l-5.8,3.08s6.38,10.1,17.45,13.63l2.76-5.99c-6.16-1.71-11.87-5.61-14.42-10.72Z" style="fill: #ffe100; fill-rule: evenodd; stroke-width: 0px;"/>
          <path d="m101.67,177.26l5.8-3.08s-6.38-10.1-17.45-13.63l-2.76,5.99c6.16,1.71,11.87,5.61,14.42,10.72Z" style="fill: #ffe100; fill-rule: evenodd; stroke-width: 0px;"/>
          <path d="m60.35,72.18l-2.79,1.48c.65,1.08,2.83,4.39,6.58,7.3,2.44,1.89,5.84,4.07,10.21,5.41l1.08-2.33c-2.69-.79-5.33-2.06-7.85-3.89-6.02-4.37-6.27-6.04-7.23-7.96Z" style="fill: #231815; fill-rule: evenodd; stroke-width: 0px;"/>
          <path d="m103.23,176.43l2.79-1.48c-.65-1.09-2.83-4.39-6.58-7.3-2.44-1.89-5.84-4.07-10.21-5.41l-1.08,2.33c2.69.79,5.33,2.06,7.85,3.89,6.02,4.37,6.27,6.04,7.23,7.96Z" style="fill: #231815; fill-rule: evenodd; stroke-width: 0px;"/>
          <path d="m82.45,89.23c.47-.02.95-.06,1.43-.11,17.34-1.82,23.05-10.37,23.76-11.15,0,0-.09-.48-.7-.53-.61-.05-.53.07-1.91.07s-3.26-.27-4.2-.68c-.94-.41-1.13-.19-1.42-.02-.29.17-4.43,4.14-12.35,5.8-.81.17-1.64.28-2.48.35l-2.12,6.28Z" style="fill: #ffe100; fill-rule: evenodd; stroke-width: 0px;"/>
          <path d="m81.13,159.38c-.47.02-.95.06-1.43.11-17.34,1.82-23.05,10.37-23.76,11.15,0,0,.09.48.7.53.61.05.53-.07,1.91-.07s3.26.27,4.21.68c.94.41,1.13.19,1.42.02.29-.17,4.43-4.14,12.35-5.8.81-.17,1.64-.28,2.48-.34l2.12-6.28Z" style="fill: #ffe100; fill-rule: evenodd; stroke-width: 0px;"/>
          <path d="m83,87.6c1.6-.02,3.28-.16,5.04-.46,0,0,9.9-1.33,17.81-9.65-.2.01-.46.02-.83.02-1.1,0-2.5-.17-3.51-.45-1.05,1.14-4.99,4.99-11.35,6.83-2.07.6-4.17.97-6.28,1.09l-.89,2.62Z" style="fill: #231815; fill-rule: evenodd; stroke-width: 0px;"/>
          <path d="m80.58,161.01c-1.6.02-3.28.16-5.04.46,0,0-9.9,1.33-17.81,9.65.2-.01.46-.02.83-.02,1.1,0,2.5.17,3.51.45,1.05-1.14,4.98-4.99,11.35-6.83,2.07-.6,4.17-.97,6.28-1.09l.89-2.62Z" style="fill: #231815; fill-rule: evenodd; stroke-width: 0px;"/>
          <path d="m83.07,85.08l-.08.2s-.95,2.26-1.65,5.04c-.47,1.84-.67,3.16-.87,4.52-.24-.53-.51-1.12-.72-1.48-.17-.29-.27-.45-.5-.49h0c-.23-.04-.39.08-.63.36-.22.25-.49.59-.76.96h0c-.23.3-.46.61-.65.83-.03.04-.06.08-.1.13-.01.01-.02.03-.04.05,0-.5.01-1.38.05-2.41,1.37-2.03,2.95-4.61,3.23-5.08.06-.1.15-.23.23-.37.56-.86,1.4-2.14,1.13-3.59-.11-.57-.37-1-.71-1.28-.19-.16-.41-.26-.64-.32h0c-.23-.06-.47-.06-.71-.01h0c-.45.09-.91.37-1.27.83-.48.63-.84,1.38-1.1,2.3-.26.9-.44,1.95-.57,3.2-.11,1.03-.19,2.17-.24,3.23-.01.29-.03.57-.04.85-.06.09-.12.18-.18.26-.74,1.08-1.34,1.9-1.51,1.95-.08.03.09-.07.08-.12-.07-.24-.13-.61-.18-1.01-.14-.97-.29-2.09-.92-2.48-.38-.23-.8-.21-1.19-.08.38-.51.69-.9.83-1.15.48-.86,1.15-2.17,2.15-4.38,1-2.21,1.27-3.15,2.16-4.55.89-1.4,1.8-1.65,2.84-1.56,1.03.1,2.25.74,2.79,1.99.55,1.25.13,2.55-.25,3.64h0Zm-2.78,11.04c-.19-.44-.76-1.79-1.12-2.41-.06-.1.04-.14-.02-.15-.07-.01.05.05-.03.14-.19.21-.45.56-.72.91h0c-.23.29-.45.59-.67.86,0,.01-.04.05-.07.1-.16.22-.41.55-.68.59h0c-.28.04-.49-.09-.55-.53,0-.07-.02-.12-.02-.18h0c0-.05,0-.12,0-.2,0-.33,0-.83.02-1.43-.63.89-1.17,1.53-1.44,1.62-.41.13-.64-.12-.78-.58-.09-.29-.15-.69-.21-1.12-.11-.81-.24-1.76-.59-1.97-.57-.35-1.46.42-1.79.73-.72,1.23-1.37,2.81-1.3,4.62.13,3.65,3.27,5.77,5.79,5.23,2.51-.55,3.68-3.01,4.06-5.33.05-.31.1-.61.14-.89h0Zm-1.14-2.56h0,0Zm-1.97-2.1c1.18-1.8,2.35-3.71,2.59-4.11.07-.12.16-.25.25-.39.5-.76,1.25-1.9,1.03-3.07-.08-.39-.25-.68-.46-.86-.11-.09-.24-.16-.37-.19h0c-.14-.03-.28-.03-.43,0h0,0,0c-.3.06-.6.25-.86.58-.43.56-.74,1.24-.98,2.07-.25.86-.42,1.87-.54,3.08-.09.9-.17,1.92-.22,2.9Z" style="fill: #ffe100; fill-rule: evenodd; stroke-width: 0px;"/>
          <path d="m80.51,163.54l.08-.2s.95-2.26,1.65-5.04c.47-1.84.67-3.16.87-4.52.24.53.51,1.12.72,1.48.17.29.28.45.5.49h0c.23.04.39-.08.63-.36.22-.25.49-.59.76-.96h0c.23-.3.46-.6.65-.83.04-.04.06-.08.1-.13.01-.02.02-.03.04-.05,0,.5-.01,1.38-.05,2.41-1.37,2.03-2.95,4.61-3.23,5.08-.06.1-.15.23-.23.37-.56.86-1.4,2.14-1.13,3.59.11.57.37,1,.71,1.27.19.16.41.26.64.32h0c.23.06.47.06.71.01h0c.45-.09.9-.37,1.26-.83.48-.63.84-1.38,1.1-2.3.26-.9.43-1.95.56-3.2.11-1.03.19-2.17.24-3.23.01-.29.03-.57.04-.85.06-.09.12-.18.18-.26.74-1.07,1.34-1.9,1.51-1.95.08-.02-.09.07-.07.12.07.24.13.61.18,1.01.13.97.29,2.09.92,2.48.38.23.8.21,1.19.08-.38.51-.69.9-.83,1.15-.48.86-1.15,2.17-2.15,4.39-1,2.21-1.27,3.15-2.16,4.55-.89,1.4-1.8,1.65-2.84,1.56-1.03-.1-2.25-.74-2.79-1.99-.55-1.25-.13-2.55.25-3.64h0Zm2.78-11.04c.19.44.76,1.79,1.12,2.41.06.1-.04.14.02.15.07.01-.05-.05.03-.14.19-.21.45-.56.72-.91h0c.22-.29.45-.59.67-.86,0-.01.04-.05.07-.1.16-.22.41-.55.69-.59h0c.28-.04.49.09.55.53,0,.06.02.12.02.18h0c0,.05,0,.12,0,.2,0,.33,0,.83-.02,1.43.63-.89,1.17-1.53,1.44-1.62.41-.13.63.12.78.58.09.29.15.69.21,1.12.11.81.24,1.76.59,1.97.57.35,1.46-.42,1.79-.73.72-1.23,1.37-2.81,1.3-4.62-.13-3.65-3.27-5.77-5.79-5.22-2.51.54-3.68,3.01-4.06,5.33-.05.31-.1.61-.14.89h0Zm1.14,2.56h0,0Zm1.97,2.1c-1.18,1.8-2.35,3.72-2.59,4.11-.07.12-.16.25-.25.39-.5.76-1.25,1.9-1.03,3.07.08.39.25.68.46.86.11.09.24.16.37.19h0c.14.03.28.03.43,0h0,0,0c.3-.06.6-.25.86-.58.43-.56.74-1.24.98-2.07.25-.86.42-1.87.54-3.08.09-.9.17-1.92.22-2.9Z" style="fill: #ffe100; fill-rule: evenodd; stroke-width: 0px;"/>
          <path d="m40.4,83.02l-3.85,2.09v3c1.56-1.62,3.01-3.77,3.85-5.09Z" style="fill: #fff; fill-rule: evenodd; stroke-width: 0px;"/>
          <path d="m45.29,80.36l-3.65,1.99c-.51.86-2.72,4.5-5.08,6.75v4.08c5.18-5.01,7.75-10.36,8.73-12.81h0Zm6.67-3.63c-1.54,3.42-6.71,13.88-15.41,21.91v-4.5c6.24-5.82,8.94-12.25,9.68-14.29l5.73-3.12h0Zm3.58-1.95c-7.17,16.52-18.99,27.27-18.99,27.27v-2.47c9.98-8.99,15.5-21.25,16.41-23.4l2.58-1.4Z" style="fill: #ffe100; fill-rule: evenodd; stroke-width: 0px;"/>
          <path d="m123.18,165.6l3.85-2.09v-3c-1.56,1.62-3.01,3.77-3.85,5.09Z" style="fill: #fff; fill-rule: evenodd; stroke-width: 0px;"/>
          <path d="m118.29,168.26l3.66-1.99c.51-.86,2.72-4.5,5.08-6.75v-4.08c-5.18,5.01-7.75,10.36-8.73,12.81h0Zm-6.67,3.63c1.54-3.42,6.71-13.88,15.41-21.91v4.5c-6.24,5.82-8.93,12.25-9.68,14.29l-5.73,3.12h0Zm-3.58,1.95c7.17-16.52,18.99-27.27,18.99-27.27v2.47c-9.98,8.99-15.5,21.25-16.41,23.4l-2.58,1.4Z" style="fill: #ffe100; fill-rule: evenodd; stroke-width: 0px;"/>
          <path d="m56.82,76.45l-1.1.28v3.58l-2.92,1.17v4.22l-2.81.73v4.66l-3.52.36-.25,4.2-3.27.46-.52,4.09h-3.1l-1.2,3.55-2.21-.06v2.75h3.45l1.3-4.05h3.77l.38-4.26,3.83-.58.17-3.99,3.3-.78v-4.6l3.27-.91-.07-4.31,2.58-1.04v-3.53h.45c-.85-1.01-1.36-1.72-1.5-1.92Z" style="fill: #fff; fill-rule: evenodd; stroke-width: 0px;"/>
          <path d="m106.76,172.17l1.1-.28v-3.58l2.92-1.17v-4.22l2.81-.73v-4.66l3.52-.36.25-4.2,3.27-.46.52-4.09h3.1l1.2-3.55,2.21.06v-2.75h-3.45l-1.3,4.05h-3.77l-.38,4.26-3.83.58-.17,3.99-3.3.78v4.6l-3.27.91.07,4.31-2.58,1.04v3.53h-.45c.85,1.01,1.36,1.72,1.5,1.92Z" style="fill: #fff; fill-rule: evenodd; stroke-width: 0px;"/>
          <path d="m51.56,96.38l4.92-7.37.4,19.15s-1.15-4.21-5.31-11.78Z" style="fill: #e60012; fill-rule: evenodd; stroke-width: 0px;"/>
          <path d="m112.01,152.23l-4.92,7.37-.4-19.15s1.15,4.21,5.31,11.78Z" style="fill: #e60012; fill-rule: evenodd; stroke-width: 0px;"/>
          <path d="m64.01,114.04l.13.25,4.1-7.02s1.16-2.13,2.08-3.28c.92-1.15,1.16-1.58,1.2-1.89.05-.31-.18-.74-.76-.66-.59.08-1.35,1.4-1.91,2.1-.56.7-1.54,1.95-3.16,4.52-1.62,2.58-1.66,3.02-1.87,3.62-.21.6.19,2.37.19,2.37Z" style="fill: #ffe100; fill-rule: evenodd; stroke-width: 0px;"/>
          <path d="m99.57,134.57l-.13-.25-4.1,7.02s-1.16,2.13-2.08,3.28c-.92,1.15-1.15,1.58-1.2,1.89-.05.31.18.74.77.66.58-.08,1.35-1.4,1.91-2.1.56-.7,1.54-1.95,3.16-4.52,1.62-2.57,1.66-3.02,1.87-3.62.21-.6-.19-2.37-.19-2.37Z" style="fill: #ffe100; fill-rule: evenodd; stroke-width: 0px;"/>
          <path d="m71.25,26.78l2.57,7.53-3.17.99-4.9-8.53h-3.15l6.84,11.76c2.07-.5,4.81-1,8.16-1.29l-3.37-10.47h-2.97Zm22.43,0l-.74,7.99c-3.88-.71-10.25-.58-10.25-.58l-1.93-7.41h-2.79l2.67,10.28c4.08-.17,8.88-.01,14.34.77l1.5-11.04h-2.82Zm16.17,0l-5.3,10.19-3.75-1.14,2-9.05h-2.85l-2.11,11.5c2.63.46,5.4,1.07,8.29,1.85l7.15-13.34h-3.44Z" style="fill: #fff; fill-rule: evenodd; stroke-width: 0px;"/>
          <path d="m92.33,221.84l-2.57-7.54,3.17-.99,4.9,8.53h3.15l-6.84-11.76c-2.07.5-4.81,1-8.16,1.29l3.37,10.47h2.97Zm-22.43,0l.74-7.99c3.88.71,10.25.58,10.25.58l1.93,7.41h2.79l-2.67-10.28c-4.08.17-8.88.01-14.34-.77l-1.5,11.04h2.81Zm-16.17,0l5.3-10.19,3.75,1.14-2,9.05h2.85l2.11-11.5c-2.63-.46-5.4-1.07-8.29-1.85l-7.15,13.34h3.44Z" style="fill: #fff; fill-rule: evenodd; stroke-width: 0px;"/>
          <path d="m69.05,107.19c1.35-2.1,2.78-4.49,3.6-4.73.82-.24,1.97-.27,1.85.51-.12.79-.7,2.15-1.48,3.3-.79,1.15-1.93,2.79-3.14,4.26-1.21,1.47-2.52,2.97-2.96,3.88-.44.91-.5,1.5-.5,2.19s-.53,2-1.28,2.03c-.75.03-1.24-1.09-1.03-2.32.37-2.04,3.9-7.51,4.94-9.13Z" style="fill: #e60012; fill-rule: evenodd; stroke-width: 0px;"/>
          <path d="m94.53,141.42c-1.35,2.1-2.78,4.49-3.6,4.73-.82.24-1.97.27-1.85-.51.12-.79.69-2.15,1.48-3.3.79-1.15,1.93-2.79,3.14-4.26,1.21-1.47,2.52-2.97,2.96-3.88.44-.91.5-1.5.5-2.19s.53-2,1.28-2.03c.75-.03,1.24,1.1,1.03,2.32-.37,2.04-3.9,7.51-4.94,9.13Z" style="fill: #e60012; fill-rule: evenodd; stroke-width: 0px;"/>
          <path d="m68.82,115.23l-.88-1.1c-1.4,2.33-1.22,3.39-1.22,3.39v.04s2.11-2.33,2.11-2.33h0Zm1.19-1.31l-.71.79-.97-1.21c.19-.28.39-.58.63-.9l1.06,1.32h0Zm1.31-1.44l-1.15-1.43s-.08.09-.12.14c-.24.29-.46.56-.67.83l1.1,1.37.83-.92h0Zm1.37-1.5l-.89.97-1.17-1.45c.31-.37.59-.71.85-1.03l1.21,1.51h0Zm1.64-1.8l-1.34-1.67c-.3.42-.65.88-1.07,1.4l1.24,1.54,1.17-1.28h0Zm1.37-1.5l-.89.97-1.4-1.74c.29-.44.53-.82.72-1.19l1.57,1.96h0Zm1.56-1.71l-2-2.49c-.12.04-.23.08-.35.11-.13.51-.27.96-.46,1.43l1.71,2.14,1.09-1.19h0Zm1.3-1.43l-.83.91-1.79-2.23c.24-.11.48-.22.7-.34.14-.06.28-.13.42-.2l1.49,1.86h0Zm1.27-1.39l-1.2-1.49c-.3.25-.62.48-.95.68l1.35,1.68.8-.87h0Zm1.49-1.63l-1.01,1.11-1.17-1.46s.04-.04.05-.06c.33-.38.6-.79.83-1.2l1.29,1.62h0Zm1.58-1.73l-1.99-2.49c-.12.62-.29,1.27-.55,1.9l1.44,1.79,1.1-1.21h0Zm1.41-1.54l-.93,1.02-2.33-2.9c.04-.28.06-.55.08-.81.03-.31.05-.62.08-.93h0c0-.07.02-.14.02-.21l3.07,3.83h0Zm1.46-1.61l-.99,1.08-3.45-4.3c.03-.34.05-.67.08-1.01,0,0,0-.45.18-.98l4.18,5.21h0Zm1.34-1.47l-3.63-4.66c-.47.02-.95.04-1.44.04-.04.06-.08.12-.12.18l4.33,5.4.86-.95h0Zm1.51-1.65l-2.72-3.23c-.51.06-1.04.12-1.57.16l3.27,4.19,1.03-1.13h0Zm1.21-1.32l-.73.8-2.38-2.82c.42-.06.83-.13,1.23-.21l1.88,2.23h0Zm1.15-1.26l-1.17-1.38c-.35.09-.71.17-1.08.25l1.57,1.87.67-.74h0Zm2.19-2.4l-1.72,1.88-.89-1.06c.95-.26,1.82-.54,2.61-.83h0Zm-19.97.44c-.31-.12-.61-.24-.91-.36l-8.33,6.47-.02,1.31,8.99-6.98c.1-.16.19-.3.27-.44h0Zm-1.65-.68l-7.58,5.89.02-1.32,6.31-5.16c.41.2.83.4,1.25.59h0Zm-1.93-.94l-5.62,4.59.02-1.3,4.59-3.84c.33.19.67.37,1.02.55h0Zm-1.66-.92l-3.94,3.29.02-1.34,2.91-2.56c.33.21.66.41,1.01.61h0Zm-1.62-1c-.21-.13-.41-.27-.61-.4l-1.66,1.49v.92s2.27-2.01,2.27-2.01h0Zm-1.21-.81l-1.05.94.02-1.67c.33.24.68.48,1.03.73h0Zm-1.19,12.65l7.95-6.17c-.27.44-.58.93-.91,1.47-.22.35-.41.69-.56,1.02l-6.49,5.04.02-1.35h0Zm-.03,2.25l6-4.66c-.21.7-.31,1.35-.32,1.94l-5.7,4.43.02-1.71h0Zm-.03,2.6v1.09s5.94-4.62,5.94-4.62c-.08-.28-.14-.59-.18-.94l-5.75,4.47h0Zm-.03,1.99l-.02,1.63,6.6-5.12.21-.3s-.3-.36-.58-1.02l-6.21,4.82h0Zm-.03,2.53l5.29-4.11-1.64,2.37-3.67,2.85v-1.11h.01Zm-.02,2l-.02,1.61.49-.71-.32-.4.55-.44.19.24.62-.9-.11-.14.47-.38.49-.71-2.36,1.83Z" style="fill: #fff; fill-rule: evenodd; stroke-width: 0px;"/>
          <path d="m94.76,133.38l.88,1.1c1.4-2.33,1.22-3.39,1.22-3.39v-.04s-2.11,2.33-2.11,2.33h0Zm-1.19,1.31l.71-.79.97,1.21c-.19.28-.39.58-.63.9l-1.06-1.32h0Zm-1.31,1.44l1.15,1.43s.08-.09.12-.14c.24-.29.46-.56.67-.83l-1.1-1.37-.83.92h0Zm-1.37,1.5l.89-.97,1.17,1.45c-.31.37-.59.71-.85,1.03l-1.21-1.51h0Zm-1.64,1.8l1.34,1.67c.3-.42.65-.88,1.07-1.4l-1.24-1.54-1.17,1.28h0Zm-1.37,1.5l.89-.97,1.4,1.74c-.29.44-.53.82-.72,1.19l-1.57-1.95h0Zm-1.56,1.71l2,2.49c.12-.04.23-.08.35-.11.13-.51.27-.96.46-1.43l-1.71-2.14-1.09,1.19h0Zm-1.3,1.43l.83-.91,1.79,2.23c-.24.11-.48.22-.7.34-.14.06-.28.13-.42.2l-1.49-1.87h0Zm-1.27,1.4l1.2,1.49c.3-.25.62-.48.95-.68l-1.35-1.68-.8.87h0Zm-1.49,1.63l1.01-1.11,1.17,1.46s-.04.04-.05.06c-.33.38-.6.79-.83,1.2l-1.29-1.62h0Zm-1.58,1.73l1.99,2.49c.12-.62.29-1.27.55-1.9l-1.44-1.79-1.1,1.21h0Zm-1.41,1.54l.93-1.02,2.33,2.9c-.04.28-.06.55-.08.81-.03.31-.05.62-.08.93h0c0,.07-.02.14-.02.21l-3.07-3.83h0Zm-1.46,1.61l.99-1.08,3.45,4.3c-.03.34-.05.68-.08,1.01,0,0,0,.45-.18.98l-4.18-5.21h0Zm-1.34,1.47l3.63,4.67c.47-.02.95-.04,1.44-.04.04-.06.08-.12.12-.18l-4.33-5.4-.86.95h0Zm-1.5,1.65l2.72,3.23c.51-.07,1.04-.12,1.57-.16l-3.27-4.2-1.03,1.13h0Zm-1.21,1.32l.73-.8,2.38,2.82c-.42.06-.83.13-1.23.21l-1.88-2.23h0Zm-1.15,1.26l1.17,1.38c.35-.09.71-.17,1.08-.25l-1.57-1.87-.67.74h0Zm-2.19,2.4l1.71-1.88.89,1.06c-.95.26-1.82.54-2.61.83h0Zm19.97-.44c.31.12.61.24.91.36l8.33-6.47.02-1.31-8.99,6.98c-.1.16-.19.3-.27.44h0Zm1.65.68l7.58-5.89-.02,1.32-6.31,5.16c-.41-.2-.83-.4-1.25-.59h0Zm1.93.94l5.62-4.59v1.3s-4.61,3.84-4.61,3.84c-.33-.19-.67-.37-1.02-.55h0Zm1.66.92l3.94-3.29-.02,1.34-2.91,2.56c-.33-.21-.67-.41-1.01-.61h0Zm1.62,1c.21.13.41.27.61.4l1.66-1.49v-.92s-2.27,2.01-2.27,2.01h0Zm1.21.81l1.05-.94-.02,1.67c-.33-.24-.68-.48-1.03-.73h0Zm1.19-12.65l-7.95,6.17c.27-.44.58-.93.91-1.47.22-.35.41-.69.57-1.02l6.49-5.04-.02,1.35h0Zm.03-2.25l-6,4.66c.21-.7.31-1.35.32-1.94l5.7-4.43-.02,1.71h0Zm.03-2.6v-1.09s-5.94,4.62-5.94,4.62c.08.28.14.59.18.94l5.75-4.47h0Zm.03-1.99l.02-1.63-6.6,5.12-.21.31s.3.36.58,1.02l6.21-4.82h0Zm.03-2.53l-5.29,4.11,1.64-2.37,3.67-2.85v1.11h-.01Zm.02-2l.02-1.61-.49.71.32.4-.54.44-.19-.24-.62.9.11.14-.47.38-.49.71,2.36-1.83Z" style="fill: #fff; fill-rule: evenodd; stroke-width: 0px;"/>
          <path d="m61.67,82.02v32.32l1.29,1.31.38-32.32c-.61-.46-1.17-.9-1.67-1.31h0Zm4.7,37.09l.88.89,30.02-33.29c-.48.27-1.43.75-2.75,1.29l-28.16,31.11Z" style="fill: #fff; fill-rule: evenodd; stroke-width: 0px;"/>
          <path d="m101.91,166.59v-32.32l-1.29-1.31-.37,32.32c.61.46,1.16.9,1.66,1.31h0Zm-4.7-37.09l-.88-.89-30.02,33.3c.48-.27,1.43-.75,2.75-1.29l28.16-31.11Z" style="fill: #fff; fill-rule: evenodd; stroke-width: 0px;"/>
        </g>
        <path d="m29.59,26.78h104.39v195.06H29.59V26.78h0Zm-1.68-1.68v198.43h107.75V25.09H27.91Z" style="fill: #004ea2; fill-rule: evenodd; stroke-width: 0px;"/>
        <g>
          <path d="m61.97,49.2c-11.04-6.46-14.41-19.65-14.41-19.65,0,0-3.37,13.19-14.41,19.65,11.04,6.46,14.41,19.65,14.41,19.65,0,0,3.37-13.19,14.41-19.65Z" style="fill: #e60012; fill-rule: evenodd; stroke-width: 0px;"/>
          <path d="m101.61,199.42c11.04,6.46,14.41,19.65,14.41,19.65,0,0,3.37-13.2,14.41-19.65-11.04-6.46-14.41-19.65-14.41-19.65,0,0-3.37,13.19-14.41,19.65Z" style="fill: #e60012; fill-rule: evenodd; stroke-width: 0px;"/>
        </g>
      </g>
    </g>
  </g>
</svg>