<?xml version="1.0" encoding="UTF-8"?>
<svg id="_图层_2" data-name="图层 2" xmlns="http://www.w3.org/2000/svg" viewBox="0 0 163.57 248.61">
  <g id="_图层_1-2" data-name="图层 1">
    <g>
      <path d="m162.57,242.01c0,3.08-2.51,5.6-5.57,5.6H6.57c-3.06,0-5.57-2.52-5.57-5.6V6.6C1,3.52,3.51,1,6.57,1h150.43c3.06,0,5.57,2.52,5.57,5.6v235.41Z" style="fill: #fff; fill-rule: evenodd; stroke: #231815; stroke-miterlimit: 22.93; stroke-width: 2px;"/>
      <g>
        <path d="m25.45,56.41c-6.25-3.66-8.16-11.13-8.16-11.13,0,0-1.91,7.47-8.16,11.13,6.26,3.66,8.16,11.13,8.16,11.13,0,0,1.91-7.47,8.16-11.13Z" style="fill: #e60012; fill-rule: evenodd; stroke-width: 0px;"/>
        <path d="m17.7,13.47c3.86,0,7.01,3.16,7.01,7.01v14.22c0,.85-.15,1.67-.44,2.42.47.34.96.48,1.59.45l.15,3.12c-1.56.08-2.6-.21-3.52-.89-1.26,1.18-2.95,1.91-4.8,1.91-3.86,0-7.01-3.16-7.01-7.01v-4.18c-1.12-.1-1.9-.03-1.9-.03l-.22-3.12s.85-.08,2.12.02v-6.92c0-3.86,3.15-7.01,7.01-7.01h0Zm0,3.12c-2.14,0-3.89,1.75-3.89,3.9v7.45c2.16.58,4.55,1.74,6.3,3.99.64.83,1.1,1.45,1.49,1.98v-13.42c0-2.14-1.75-3.9-3.9-3.9h0Zm-3.89,14.59v3.53c0,2.14,1.75,3.9,3.89,3.9,1.04,0,1.98-.41,2.68-1.08-.29-.39-.6-.81-.94-1.28-.57-.78-1.22-1.67-1.8-2.42-1.05-1.35-2.46-2.16-3.84-2.65Z" style="fill: #e60012; stroke-width: 0px;"/>
      </g>
      <g>
        <path d="m138.12,192.2c6.26,3.66,8.16,11.13,8.16,11.13,0,0,1.91-7.47,8.16-11.13-6.26-3.66-8.16-11.13-8.16-11.13,0,0-1.91,7.47-8.16,11.13Z" style="fill: #e60012; fill-rule: evenodd; stroke-width: 0px;"/>
        <path d="m145.88,235.14c-3.86,0-7.01-3.16-7.01-7.01v-14.23c0-.85.15-1.67.43-2.42-.47-.34-.96-.48-1.59-.45l-.15-3.12c1.56-.08,2.6.21,3.52.89,1.26-1.18,2.95-1.91,4.79-1.91,3.86,0,7.01,3.16,7.01,7.01v4.18c1.12.1,1.89.03,1.9.03l.22,3.12s-.85.08-2.12-.02v6.92c0,3.86-3.16,7.01-7.01,7.01h0Zm0-3.12c2.14,0,3.9-1.75,3.9-3.89v-7.45c-2.16-.58-4.56-1.74-6.3-3.99-.64-.83-1.1-1.45-1.49-1.98v13.42c0,2.14,1.75,3.89,3.89,3.89h0Zm3.9-14.59v-3.53c0-2.14-1.75-3.89-3.9-3.89-1.04,0-1.98.41-2.68,1.08.29.39.6.81.94,1.28.57.78,1.22,1.67,1.8,2.42,1.05,1.35,2.46,2.16,3.84,2.65Z" style="fill: #e60012; stroke-width: 0px;"/>
      </g>
      <g>
        <g>
          <path d="m124.54,139l-11.07,12.81s2.44,2.96,3.86,4.24c0,0-3.19.12-4.84,2.08-1.65,1.96-1.34,5.07-1.34,5.07l.72.28s2.06-2.79,7.58-3.79l.41,2.31s-2.29-.11-3.51.85c-1.22.96-1.05,3.07-.95,4.37.1,1.3.24,2.63.24,2.63,0,0-1.64.66-2.2,1.32l1.91.66s.04,1.53.04,2.88,1.29,3.34,3.68,3.37c2.4.03,3.4-.73,3.4-.73l.87,1.77,1.11-2.57s2.32.78,3.78-.56c1.46-1.34,1.74-4.9.2-6.99l2.21-.47-2.01-1.11s.56-2.64-.67-4.64c0,0,2.52.53,3.64.53s1.12-.63,1.12-1.19-.6-2.73-2.38-3.26c-1.79-.53-3.92-.67-3.92-.67l-.04-.46s3.61.42,3.64-2.59c0,0,2.13-.99,1.14-4.15,0,0,2.17-1.8.48-4.33,0,0,.68-1.47-.13-2.69-.81-1.22-1.04-1.22-1.04-1.22,0,0,.75-2.24,1.21-4.54.46-2.29-.28-3.5-1.16-3.5s-2.09,1.41-2.67,2.99c-.58,1.58-.61,3.54-.61,3.54,0,0-2.35-2.24-2.72-2.24Z" style="fill: #004ea2; fill-rule: evenodd; stroke-width: 0px;"/>
          <path d="m39.03,109.61l11.07-12.81s-2.44-2.96-3.86-4.24c0,0,3.19-.12,4.84-2.08,1.65-1.96,1.34-5.07,1.34-5.07l-.72-.28s-2.06,2.79-7.58,3.79l-.41-2.31s2.29.11,3.51-.85c1.22-.96,1.05-3.07.95-4.37-.1-1.3-.24-2.63-.24-2.63,0,0,1.64-.66,2.2-1.32l-1.91-.66s-.04-1.53-.04-2.88-1.29-3.34-3.68-3.37c-2.4-.03-3.4.73-3.4.73l-.87-1.77-1.11,2.57s-2.32-.78-3.78.56c-1.46,1.34-1.74,4.9-.2,6.99l-2.21.47,2.02,1.11s-.56,2.64.67,4.64c0,0-2.52-.53-3.64-.53s-1.12.63-1.12,1.19.6,2.73,2.38,3.26c1.79.53,3.92.66,3.92.66l.04.46s-3.61-.42-3.64,2.59c0,0-2.13.99-1.14,4.15,0,0-2.17,1.8-.48,4.33,0,0-.68,1.47.13,2.69.81,1.22,1.04,1.22,1.04,1.22,0,0-.75,2.24-1.21,4.53-.46,2.29.28,3.5,1.16,3.5s2.09-1.41,2.67-2.99c.58-1.58.61-3.54.61-3.54,0,0,2.35,2.24,2.72,2.24Z" style="fill: #004ea2; fill-rule: evenodd; stroke-width: 0px;"/>
          <g>
            <path d="m71.34,73.35l6.61-7.22c-.89-1.13-1.41-4.88-1.71-9.23-1.53,1.52-4.55,5.83-4.9,16.44Z" style="fill: #e60012; fill-rule: evenodd; stroke-width: 0px;"/>
            <path d="m75.82,40.69c-1.99,1.99-6.07,6.74-9.36,14.9-4.35,10.8-4.55,19.72-4.56,28.07l9.45-10.32c.35-10.62,3.37-14.93,4.9-16.44-.42-5.96-.43-13.08-.43-16.21Z" style="fill: #231815; fill-rule: evenodd; stroke-width: 0px;"/>
          </g>
          <g>
            <path d="m92.23,175.27l-6.61,7.22c.89,1.13,1.41,4.87,1.71,9.23,1.53-1.52,4.55-5.83,4.9-16.44Z" style="fill: #e60012; fill-rule: evenodd; stroke-width: 0px;"/>
            <path d="m87.76,207.92c1.99-1.99,6.07-6.74,9.36-14.9,4.35-10.8,4.55-19.72,4.56-28.07l-9.45,10.32c-.35,10.62-3.37,14.93-4.9,16.44.42,5.96.43,13.08.43,16.21Z" style="fill: #231815; fill-rule: evenodd; stroke-width: 0px;"/>
          </g>
          <path d="m29.59,118.93l48.36-52.8c-2.2-2.82-2.14-21.67-2.14-26.12,0-3.74.05-11.01.07-13.24h51.59c-.28,3.33-1.2,18.57,4.38,30.52l-10.03,2.36,12.15,17.47v52.54l-48.36,52.8c2.2,2.82,2.14,21.67,2.14,26.12,0,3.74-.06,11.01-.07,13.23h-51.59c.28-3.33,1.2-18.57-4.38-30.52l10.03-2.36-12.15-17.47v-52.54Z" style="fill: #004ea2; fill-rule: evenodd; stroke-width: 0px;"/>
          <path d="m70.76,124.37c-.87-11.68-4.86-17.73-4.86-17.73l3.65-14.95c3.14,1.29,17.53,6.55,34.8,2.08-11.84,11.41-11.85,26.04-11.52,30.6.89,11.59,4.84,17.6,4.84,17.6l-3.65,14.95c-3.13-1.29-17.53-6.55-34.8-2.08,11.73-11.3,11.85-25.76,11.54-30.46Z" style="fill: #231815; fill-rule: evenodd; stroke-width: 0px;"/>
          <path d="m98.85,26.78l22.08,31.93,9.35-2.36s-5.68-12.73-3.89-29.57h-27.55Z" style="fill: #231815; fill-rule: evenodd; stroke-width: 0px;"/>
          <path d="m64.73,221.84l-22.08-31.93-9.35,2.36s5.68,12.73,3.89,29.57h27.55Z" style="fill: #231815; fill-rule: evenodd; stroke-width: 0px;"/>
          <path d="m109.24,26.78c.05.57.11,1.28.19,2.14.33,4,1.8,4.65,2.4,5.04.6.38,1.23.29,1.23-.05s-.99-.92-1.11-2.34c-.12-1.42.63-2.48,1.69-2.48s1.9,1.18,1.9,1.18c0,0,.46-1.49,2.53-1.33,2.07.17,2.22,1.95,2.22,1.95.34,2.29-2.07,3.36-2.07,3.36,0,0,.71.58.43,2.13-.28,1.54-1.59,1.63-2.43,1.53-.83-.11-1.26-1.29-1.33-1.8s-.25-1.13-.74-1.1c-.49.04-.35.8-.35.8.13,1.69,2.5,4.18,2.98,4.8.48.62.37,1.15,1.23,2.87.85,1.72,1.98,2.04,2.4,2.04s.16-.83.16-.83c0,0-1.07-.78-1.36-1.96-.29-1.18-.11-2.36,1.42-2.39,1.52-.03,2.94,1.4,2.94,1.4.66-1.11,2.11-1.23,2.96-.39-.52-4.26-.71-9.21-.14-14.58h-17.16Zm-7.09,0h2.08c.21,1.04.59,2.53,1.28,4.08,1.26,2.84,4.59,5.21,6.01,5.58,0,0-.02,2.98.97,5.61l-10.34-15.26h0Zm2.77,0h1.22c.17.88.45,1.99.88,2.9.84,1.78,2.4,4.33,6.09,5.91,0,0-.73,6.43,7.98,10.72-.25,3.36,1.7,8.04,5.38,11.01l-1.48.37c-1.06-.93-4.85-4.63-4.67-10.19,0,0-5.19-1.33-6.94-5.27-1.75-3.94-1.07-6.09-1.07-6.09,0,0-6.18-2.16-7.38-9.35h0Zm9.64,18.32c1.74,1.59,4.05,2.59,5.09,2.79,0,0-.11,6.62,4.62,9.97l-.9.23-8.8-12.99h0Zm14.21,11.62c-.74-.39-2.48-1.54-3.09-4.07,0,0-2.81-.81-3.62-4,0,0-.39-1.93.5-2.18,0,0-.25,2.07.89,2.66,1.14.59,2.73.22,2.87-1.32.14-1.54-.45-2.18-.45-2.18l1.09-1.3c1.24,7.38,3.31,12.01,3.31,12.01l-1.51.38Z" style="fill: #ffe100; fill-rule: evenodd; stroke-width: 0px;"/>
          <path d="m54.34,221.84c-.05-.57-.11-1.28-.19-2.14-.33-4-1.79-4.65-2.4-5.04-.6-.39-1.23-.29-1.23.05s.99.92,1.11,2.34c.12,1.42-.63,2.48-1.69,2.48s-1.9-1.18-1.9-1.18c0,0-.46,1.49-2.53,1.33-2.07-.17-2.22-1.95-2.22-1.95-.34-2.29,2.07-3.36,2.07-3.36,0,0-.71-.58-.43-2.13.28-1.54,1.6-1.63,2.43-1.53.83.11,1.26,1.29,1.33,1.8.07.51.25,1.13.74,1.1.49-.04.35-.8.35-.8-.13-1.69-2.5-4.18-2.98-4.8-.48-.62-.37-1.15-1.23-2.87-.85-1.72-1.98-2.04-2.41-2.04s-.16.83-.16.83c0,0,1.07.78,1.36,1.96.29,1.18.11,2.36-1.41,2.39-1.52.03-2.94-1.39-2.94-1.39-.66,1.11-2.11,1.23-2.96.39.52,4.26.71,9.21.14,14.58h17.16Zm7.09,0h-2.08c-.21-1.04-.59-2.53-1.28-4.08-1.26-2.83-4.59-5.21-6.01-5.58,0,0,.02-2.98-.97-5.61l10.34,15.26h0Zm-2.77,0h-1.22c-.17-.88-.45-1.99-.88-2.9-.84-1.78-2.4-4.34-6.09-5.91,0,0,.73-6.43-7.98-10.72.25-3.37-1.7-8.04-5.38-11.01l1.48-.37c1.06.93,4.85,4.63,4.67,10.19,0,0,5.19,1.34,6.94,5.28,1.75,3.94,1.07,6.09,1.07,6.09,0,0,6.18,2.16,7.38,9.35h0Zm-9.64-18.32c-1.74-1.59-4.05-2.59-5.09-2.79,0,0,.11-6.62-4.62-9.97l.9-.23,8.8,12.99h0Zm-14.21-11.62c.74.39,2.48,1.54,3.09,4.07,0,0,2.81.81,3.62,4,0,0,.39,1.93-.5,2.18,0,0,.25-2.07-.89-2.66-1.14-.59-2.73-.22-2.87,1.32-.14,1.54.45,2.19.45,2.19l-1.09,1.3c-1.25-7.38-3.31-12.01-3.31-12.01l1.51-.38Z" style="fill: #ffe100; fill-rule: evenodd; stroke-width: 0px;"/>
          <polygon points="133.98 91.72 92.87 26.78 97.75 26.78 133.98 78.74 133.98 91.72" style="fill: #e60012; fill-rule: evenodd; stroke-width: 0px;"/>
          <polygon points="29.59 156.9 70.7 221.84 65.82 221.84 29.59 169.87 29.59 156.9" style="fill: #e60012; fill-rule: evenodd; stroke-width: 0px;"/>
          <path d="m129.22,85.61l-5.75-9.12c.31,1.99.77,4.86,1.25,7.12,1.4.75,2.89,1.42,4.51,2h0Zm-6.68-10.58c.23,1.57.78,5.23,1.37,8.14-.76-.44-1.49-.9-2.19-1.38-1-3.84-1.56-8.33-1.83-10.95l2.65,4.19h0Zm-3.48-5.51l-1.49-2.35c.16,3.22.63,8.62,2,12.99.41.34.83.67,1.26.99-1.08-4.52-1.6-9.64-1.77-11.63h0Zm-2.24-3.54c.09,2.74.45,8.48,1.78,13.35-.67-.6-1.31-1.23-1.93-1.87-1.2-5.97-1.29-10.89-1.21-13.64l1.36,2.16h0Zm-2.02-3.2l-1.23-1.95c-.27,2-.44,6.03.43,13.51.57.73,1.15,1.45,1.77,2.14-1.16-6.32-1.09-11.36-.97-13.7h0Zm-1.79-2.83c-.32,1.71-.67,5.57.16,13.28-.56-.78-1.1-1.58-1.62-2.39-.85-6.64-.17-10.59.41-12.56l1.05,1.67h0Zm-1.53-2.43l-1.3-2.06c-.27,2.17-.61,6.22-.44,12.36.31.55.62,1.09.95,1.63-.64-6.46.2-10.21.79-11.93h0Zm-1.88-2.97c-.27,1.78-.69,5.69-.59,11.96-.3-.56-.6-1.13-.89-1.69-.28-.54-.55-1.1-.8-1.67.04-5.39.97-8.59,1.45-9.91l.83,1.31h0Zm-1.29-2.04l-.75-1.19c-.58,1.38-1.68,4.28-1.99,7.04.33,1.07.69,2.14,1.1,3.19.22-5.26,1.28-8.19,1.64-9.04h0Zm-1.2-1.91c-.42.96-1.46,3.5-2,6.17-.33-1.2-.61-2.38-.85-3.52.21-1.81,1.18-3.5,1.76-4.37l1.08,1.72h0Zm-1.49-2.36c-.43.62-1.22,1.86-1.69,3.34-.14-.76-.27-1.5-.38-2.18.37-1.07.9-1.92,1.26-2.44l.81,1.29h0Zm-1.22-1.93l-1.52-2.42s.11,1.65.47,4.17c.38-.79.8-1.4,1.06-1.75Z" style="fill: #fff; fill-rule: evenodd; stroke-width: 0px;"/>
          <path d="m34.35,163l5.75,9.12c-.31-1.98-.77-4.86-1.25-7.12-1.4-.75-2.89-1.42-4.51-2h0Zm6.68,10.58c-.23-1.57-.78-5.23-1.37-8.14.76.44,1.49.9,2.19,1.38,1,3.84,1.56,8.33,1.83,10.95l-2.65-4.19h0Zm3.48,5.51l1.49,2.35c-.16-3.22-.63-8.62-2-12.99-.41-.34-.83-.67-1.26-.99,1.08,4.52,1.6,9.64,1.77,11.63h0Zm2.24,3.54c-.09-2.74-.45-8.47-1.78-13.35.67.6,1.31,1.23,1.93,1.87,1.2,5.97,1.29,10.89,1.21,13.64l-1.36-2.16h0Zm2.02,3.2l1.23,1.95c.27-2,.45-6.03-.43-13.51-.57-.73-1.15-1.45-1.77-2.14,1.16,6.32,1.09,11.36.97,13.7h0Zm1.79,2.83c.32-1.71.67-5.57-.16-13.28.56.78,1.1,1.58,1.62,2.39.84,6.64.17,10.59-.42,12.56l-1.05-1.66h0Zm1.53,2.43l1.3,2.06c.27-2.16.61-6.22.44-12.36-.31-.55-.62-1.09-.95-1.63.65,6.46-.2,10.21-.79,11.93h0Zm1.88,2.97c.26-1.78.69-5.69.59-11.96.3.56.6,1.13.89,1.69.28.55.54,1.1.79,1.67-.04,5.39-.97,8.59-1.45,9.91l-.83-1.31h0Zm1.29,2.04l.75,1.19c.58-1.38,1.68-4.28,1.99-7.04-.33-1.07-.69-2.14-1.1-3.19-.22,5.26-1.28,8.19-1.65,9.04h0Zm1.2,1.91c.42-.96,1.46-3.5,2-6.17.33,1.2.61,2.38.85,3.52-.21,1.81-1.18,3.5-1.76,4.37l-1.08-1.72h0Zm1.49,2.36c.43-.62,1.22-1.86,1.7-3.34.14.76.27,1.5.38,2.18-.37,1.07-.9,1.92-1.26,2.44l-.82-1.29h0Zm1.22,1.93l1.53,2.42s-.11-1.65-.47-4.17c-.38.79-.79,1.4-1.06,1.75Z" style="fill: #fff; fill-rule: evenodd; stroke-width: 0px;"/>
          <path d="m104.85,58.57c-.16.37-.4.86-.73,1.45l2.45,6.88c.44-.21.9-.44,1.36-.69-1.3-2.6-2.3-5.18-3.08-7.64h0Zm-1.19,2.23l2.27,6.39c-.36.17-.71.32-1.06.47l-2.01-5.65c.3-.43.57-.84.8-1.21h0Zm-1.3,1.9l1.86,5.23c-.3.12-.59.23-.88.34l-1.8-4.52c.3-.36.57-.71.82-1.05h0Zm-1.33,1.67c-.26.31-.54.62-.83.94l1.42,3.56c.34-.11.7-.23,1.07-.35l-1.66-4.14h0Zm-1.36,1.51l1.28,3.19c-.41.12-.8.22-1.17.32l-1.03-2.57c.33-.32.63-.63.92-.94h0Zm-1.47,1.47c-.25.24-.51.48-.78.72l.67,1.68c.31-.06.64-.12.99-.2l-.88-2.2h0Zm-1.33,1.22c-.56.49-1.16,1-1.8,1.5,0,0,.83.02,2.32-.2l-.52-1.3Z" style="fill: #fff; fill-rule: evenodd; stroke-width: 0px;"/>
          <path d="m58.73,190.05c.16-.37.4-.86.73-1.45l-2.45-6.88c-.45.21-.9.44-1.36.69,1.3,2.6,2.3,5.18,3.08,7.64h0Zm1.19-2.23l-2.27-6.39c.36-.17.72-.32,1.06-.47l2.01,5.65c-.3.43-.57.84-.8,1.21h0Zm1.3-1.9l-1.86-5.23c.3-.12.59-.23.88-.34l1.8,4.52c-.3.36-.57.71-.82,1.05h0Zm1.33-1.66c.26-.31.54-.62.83-.94l-1.42-3.56c-.34.11-.7.23-1.07.35l1.65,4.14h0Zm1.36-1.51l-1.28-3.19c.41-.12.8-.22,1.17-.32l1.03,2.57c-.32.32-.63.63-.92.94h0Zm1.47-1.47c.25-.24.51-.48.78-.72l-.67-1.68c-.31.06-.64.12-.99.2l.88,2.21h0Zm1.33-1.22c.56-.49,1.16-1,1.8-1.5,0,0-.84-.02-2.32.2l.52,1.3Z" style="fill: #fff; fill-rule: evenodd; stroke-width: 0px;"/>
          <path d="m88.23,47.79l-.93-1.34s.31-.65.68-.65.93-.09,1.25-.53c.31-.44,1.8-1.43,4.07-1.34,2.27.09,4.45,2.02,5.51,3.48,1.06,1.46,1.21,2.27.56,2.33-.65.06-1.18-.03-1.68-.03s-1.77,1.21-2.89,1.4c-1.12.19-3.92.12-3.92.12,0,0,2.4,3.08,2.12,3.2-.28.12-2.58-1.62-3.11-2.58-.53-.96-1.03-2.49-2.27-3.05,0,0,0-.75.62-1.03h0Zm-11.33-21.02h1.62c-.45.62-1.02,1.4-1.65,2.17.01-.97.02-1.71.03-2.17h0Zm2.64,0c-.6.87-1.62,2.26-2.69,3.49,0,.6-.01,1.25-.02,1.94,1.82-1.73,3.15-4.05,3.85-5.43h-1.14Zm2.08,0c-.72,1.48-2.39,4.55-4.79,6.57,0,.53,0,1.08,0,1.65,2.61-2.11,4.81-6.06,5.88-8.22h-1.08Zm2.34,0h1.15c1.67,2.69,6.83,10.02,13.4,10.29l1.43,2.28c-10-2.28-14.51-9.57-15.98-12.56h0Zm2.14,0c1.78,2.77,6.27,8.79,11.85,9.41l-1.08-1.71c-5.13-.62-8.23-5.58-9.32-7.7h-1.45Zm2.4,0c1.11,2.04,3.71,5.89,7.78,6.75l-1.2-1.92c-3.2-.83-4.62-3.35-5.19-4.83h-1.39Zm2.29,0c.5,1.17,1.55,2.84,3.58,3.7l-2.33-3.7h-1.25Zm4.45,23.03c.35.04.74-.29.83-.61s-.26-.47-.57-.29c-.32.18-.33.6-.26.9h0Zm1.59-3.6s-2.17-1.4-4.04-1.4-3.29.62-3.29,1.69c0,0,1.29-.81,2.84-.81s2.99.17,4.49.52h0Zm-5.43,2.24c.27,1.33,1.15,1.99,2.07,1.89.91-.1,1.24-.88,1.24-1.31s-.14-.35-.34-.02c-.21.33-.64.64-1.38.64s-1.08-.86-1.14-1.21c-.05-.35-.5-.28-.5-.28l.05.3h0Zm-1.71-4.82c2.15-.61,4.2-.55,5.98-.22,1.49.28,3.64,2.18,4.15,2.15.44-.03.22-.74.22-.74-1.32-2.44-5.16-3.83-7.6-3.83s-4.52,1.19-5.1,1.94c-.58.75-.29,1.46,0,1.46s.63-.27,2.35-.75h0Zm-11.67,1.04c-1.07.08-.87-.75.63-.95,1.5-.2,2.77.28,3.48,1.11-1.59-.58-2.55-.28-4.11-.16h0Zm3.51,1.37l.58.12s-.89-.87-2.13-.87-2.53.31-2.63,1.02c-.1.71.58.02,1.12-.16.54-.19,1.25-.37,3.07-.1h0Zm-4.21,2.6l.21-.06s.15.08.15.47-.39.59-.62.59c-.35,0,.02-.86.26-1h0Zm.85.18c0-.27.28-.24.39-.06.09.14.5,1.03.96,1.03s.89-.44.98-.7c.09-.26.21-.42.39-.44.18-.01.09.77-.15,1.1-.24.33-.76.61-1.27.64-.51.03-1.29-.51-1.3-1.57h0Zm3.76-.27s.13,1.04-.27,1.51c0,0,.59-.04.84-.48.34-.61-.22-.73-.57-1.02h0Zm-5.11-12.49c0,.69,0,1.39,0,2.11,1.52-1.26,2.89-2.83,4.05-4.37,1.46-1.95,2.58-3.85,3.23-5.03-.3-.5-.55-.97-.76-1.37-1.22,2.41-3.64,6.62-6.52,8.66h0Zm0,3.18c0,1.1,0,2.23,0,3.37.62-.4,1.97-1.21,3.05-1.27,1.45-.09,3.7.93,4.01,4.07.31,3.14-.48,6.89-.94,8.52-.46,1.63-.74,2.46-.37,3.2.37.74,1.09-.2,1.34-.66.26-.46,1.63-.34,2.14.23.52.57.97.97,1.91.74.95-.23.66-1.72-.14-2.03-.8-.31-.17-.92.14-.92s1.41,1.09,1.41,2.45-1.39,2.2-2.13,2.2-1.11-.43-1.76-.68c-.65-.25-1.27-.06-1.05.53.22.59.46,1.12.22,1.15-.25.03-2.29-1.43-3-2.45-.71-1.02-.09-2.36.25-3.26.34-.9.62-1.58.25-1.61-.37-.03-1.27,1.09-2.1,1.4-.83.31-.71-.4.12-.99.84-.59,2.1-1.55,2.1-1.86s-.89-.15-1.24-.15-.49.37-1.11.37-1.14-.65-1.73-.71c-.41-.04-.97-.07-1.28-.08.06,2.45.14,4.71.25,6.54.62,9.64,3.73,15.12,9.48,14.92,5.7-.2,12.11-4.03,17.93-14.53-2.31-7.75-2.35-13.98-2.35-14.7l-1.68-2.67c-8.68-1.7-13.55-7.03-15.96-10.75-.68,1.21-1.73,2.94-3.07,4.72-1.33,1.76-2.93,3.57-4.72,4.94h0Zm14.11,10.57c-.04-.67-.29-1.26-.74-1.19-.45.07-.57.74-.17,1,.4.26.88.73.88.73l.04-.54h0Zm-8.85,15.15l-.29.34s-.43-.39-.43-.72.15-1,.2-1.6c.04-.61.17-1.13.39-1.15.22-.02.5.35,1.01.28.52-.06,1.17-.76,1.53-.76s.58.43.99.43.84-.48,1.36-.48,1.06.95,1.55.95.84-.56,1.16-.56.5.15.32.56c-.17.41.08,1.41.51,1.84.43.43.38,1.34.03,1.4-.35.05-.73-.35-1.26-.73-.54-.38-.83-.38-1.26-.38s-.91.16-1.67.24c-.76.08-1.05-.13-1.61-.27-.57-.13-1.32-.13-1.64-.13s-.59.48-.89.73h0Zm2.23,1.88h-.49s-.56-.22-.56-.62.46-.51.81-.51.92.16,1.56.11c.64-.05,1.1-.35,1.53-.4.43-.05.54.24.51.54-.03.3-.54.81-1.26.86-.73.05-1.75.03-2.1.03Z" style="fill: #fff; fill-rule: evenodd; stroke-width: 0px;"/>
          <path d="m75.34,200.82l.93,1.34s-.31.65-.68.65-.93.09-1.25.53c-.31.44-1.8,1.43-4.07,1.34-2.27-.09-4.45-2.02-5.5-3.48-1.06-1.46-1.21-2.27-.56-2.33.65-.06,1.18.03,1.68.03s1.77-1.21,2.89-1.4c1.12-.19,3.92-.12,3.92-.12,0,0-2.4-3.08-2.12-3.2.28-.12,2.58,1.62,3.11,2.58.53.96,1.03,2.49,2.27,3.05,0,0,0,.75-.62,1.03h0Zm11.33,21.02h-1.62c.45-.62,1.02-1.4,1.65-2.17-.01.97-.02,1.71-.03,2.17h0Zm-2.65,0c.6-.87,1.62-2.26,2.69-3.49,0-.6.01-1.25.02-1.94-1.82,1.73-3.15,4.05-3.85,5.43h1.14Zm-2.08,0c.72-1.48,2.39-4.55,4.79-6.57,0-.53,0-1.08,0-1.65-2.61,2.11-4.81,6.06-5.88,8.22h1.08Zm-2.34,0h-1.15c-1.68-2.69-6.83-10.02-13.4-10.29l-1.43-2.27c10,2.28,14.51,9.57,15.98,12.56h0Zm-2.14,0c-1.78-2.77-6.27-8.79-11.85-9.41l1.08,1.71c5.13.62,8.23,5.58,9.32,7.7h1.45Zm-2.4,0c-1.11-2.04-3.71-5.89-7.78-6.75l1.21,1.92c3.2.83,4.62,3.35,5.19,4.83h1.39Zm-2.29,0c-.5-1.17-1.54-2.84-3.58-3.7l2.33,3.7h1.25Zm-4.45-23.03c-.34-.04-.74.29-.83.61-.09.31.26.47.57.29.32-.18.33-.6.26-.9h0Zm-1.59,3.6s2.17,1.4,4.04,1.4,3.3-.62,3.3-1.69c0,0-1.29.81-2.84.81s-2.99-.17-4.49-.52h0Zm5.43-2.24c-.27-1.33-1.15-1.99-2.07-1.89-.91.1-1.24.88-1.24,1.31s.14.35.35.02c.21-.33.63-.64,1.38-.64s1.09.87,1.14,1.21c.05.35.5.28.5.28l-.05-.29h0Zm1.71,4.82c-2.15.61-4.2.55-5.98.22-1.49-.28-3.64-2.18-4.15-2.15-.44.03-.22.74-.22.74,1.32,2.44,5.16,3.83,7.6,3.83s4.52-1.19,5.1-1.94c.58-.75.29-1.46,0-1.46s-.63.27-2.35.75h0Zm11.67-1.04c1.07-.08.87.75-.63.95-1.5.2-2.77-.28-3.48-1.11,1.59.58,2.55.28,4.11.16h0Zm-3.51-1.37l-.58-.13s.89.87,2.13.87,2.53-.31,2.63-1.02c.1-.71-.58-.02-1.12.17-.54.19-1.25.37-3.07.11h0Zm4.21-2.6l-.21.06s-.15-.08-.15-.47.39-.59.62-.59c.35,0-.02.86-.26,1h0Zm-.85-.18c0,.27-.28.24-.39.06-.09-.14-.5-1.03-.95-1.03s-.89.44-.98.7c-.09.26-.21.42-.39.44-.18.01-.09-.77.15-1.1.24-.33.76-.61,1.27-.64.51-.03,1.29.51,1.3,1.57h0Zm-3.76.27s-.12-1.04.27-1.51c0,0-.59.04-.84.48-.34.61.22.73.57,1.02h0Zm5.11,12.49c0-.68,0-1.39,0-2.11-1.52,1.26-2.89,2.83-4.05,4.37-1.46,1.95-2.58,3.85-3.23,5.03.3.5.55.97.76,1.37,1.22-2.41,3.64-6.62,6.52-8.66h0Zm0-3.18c0-1.1,0-2.23,0-3.37-.62.41-1.97,1.21-3.05,1.27-1.45.09-3.7-.93-4.01-4.07-.31-3.14.48-6.89.94-8.52.46-1.63.74-2.46.37-3.2-.37-.74-1.09.2-1.34.66-.26.46-1.63.34-2.14-.23-.52-.57-.97-.97-1.92-.74-.94.23-.66,1.72.14,2.03.8.31.17.91-.14.91s-1.41-1.09-1.41-2.45,1.39-2.2,2.13-2.2,1.11.43,1.76.68c.65.25,1.27.06,1.05-.53-.22-.59-.46-1.12-.22-1.15.25-.03,2.29,1.43,3,2.45.71,1.02.09,2.36-.25,3.26-.34.9-.62,1.58-.25,1.61.37.03,1.27-1.09,2.1-1.4.83-.31.71.4-.12.99-.83.59-2.1,1.55-2.1,1.86s.9.15,1.24.15.49-.37,1.11-.37,1.14.65,1.73.71c.41.04.97.07,1.27.09-.06-2.45-.14-4.71-.25-6.54-.61-9.64-3.73-15.12-9.48-14.92-5.7.2-12.11,4.04-17.94,14.53,2.31,7.75,2.35,13.98,2.35,14.7l1.68,2.67c8.68,1.7,13.55,7.03,15.96,10.75.68-1.2,1.73-2.94,3.07-4.71,1.32-1.76,2.93-3.57,4.72-4.94h0Zm-14.11-10.57c.04.67.29,1.26.74,1.19.45-.07.57-.75.17-1-.4-.26-.88-.73-.88-.73l-.04.54h0Zm8.85-15.15l.29-.34s.43.39.43.71-.15,1-.2,1.6c-.04.61-.17,1.13-.39,1.15-.22.02-.5-.35-1.01-.28-.52.07-1.17.76-1.53.76s-.58-.43-.99-.43-.84.48-1.36.48-1.06-.95-1.55-.95-.84.56-1.16.56-.5-.15-.32-.56c.17-.41-.08-1.41-.51-1.84s-.38-1.34-.03-1.4c.35-.05.73.35,1.27.73.54.38.83.38,1.26.38s.91-.16,1.67-.24c.75-.08,1.05.13,1.62.27.56.13,1.32.13,1.64.13s.59-.48.89-.73h0Zm-2.23-1.88h.48s.56.22.56.62-.46.51-.81.51-.92-.16-1.56-.11c-.65.05-1.1.35-1.53.4-.43.05-.54-.24-.51-.54.03-.3.54-.81,1.26-.86.73-.05,1.75-.03,2.1-.03Z" style="fill: #fff; fill-rule: evenodd; stroke-width: 0px;"/>
          <path d="m61.96,84.84l-1.05,1.15s10.17,9.36,31.58,8.81c0,0,16.6-.11,31.08-11.16-.48-.3-.96-.61-1.42-.93-5.75,3.9-15.2,9.46-31.57,10.01-15.31.52-26.32-6.33-28.62-7.88Z" style="fill: #ffe100; fill-rule: evenodd; stroke-width: 0px;"/>
          <path d="m101.62,163.78l1.05-1.15s-10.17-9.36-31.58-8.81c0,0-16.6.11-31.08,11.16.49.3.96.61,1.42.93,5.75-3.9,15.2-9.46,31.57-10.01,15.31-.52,26.32,6.33,28.62,7.88Z" style="fill: #ffe100; fill-rule: evenodd; stroke-width: 0px;"/>
          <path d="m72.47,73.35l-10.22,11.15-.3.33c2.3,1.56,13.31,8.4,28.62,7.88,16.37-.55,25.81-6.11,31.57-10.01-.26-.18-.53-.36-.79-.55-4.26-3.06-7.58-6.65-10.15-10.4-3.9,2.27-12.31,4.82-20.86,5.12-7.77.27-15.21-2.44-17.87-3.52Z" style="fill: #231815; fill-rule: evenodd; stroke-width: 0px;"/>
          <path d="m91.1,175.26l10.22-11.15.3-.33c-2.3-1.56-13.31-8.4-28.62-7.88-16.37.55-25.81,6.11-31.57,10.01.26.18.53.36.79.55,4.26,3.06,7.58,6.65,10.15,10.4,3.9-2.27,12.31-4.82,20.86-5.12,7.77-.27,15.21,2.43,17.86,3.52Z" style="fill: #231815; fill-rule: evenodd; stroke-width: 0px;"/>
          <path d="m73.95,71.74l-1.01,1.11-.46.5c2.66,1.09,10.1,3.79,17.87,3.52,8.54-.3,16.96-2.84,20.86-5.12-.18-.27-.37-.54-.54-.81-.33-.5-.65-1.01-.96-1.52-1.05.65-2.12,1.22-3.21,1.73-11.19,5.24-23.52,3.1-29.54,1.49-1.34-.36-2.37-.69-3-.91Z" style="fill: #ffe100; fill-rule: evenodd; stroke-width: 0px;"/>
          <path d="m89.63,176.87l1.01-1.11.46-.5c-2.66-1.09-10.1-3.79-17.86-3.52-8.55.3-16.96,2.84-20.86,5.12.18.27.37.54.54.81.33.5.65,1.01.96,1.52,1.05-.65,2.12-1.22,3.21-1.73,11.19-5.24,23.52-3.1,29.54-1.49,1.34.36,2.37.69,3,.91Z" style="fill: #ffe100; fill-rule: evenodd; stroke-width: 0px;"/>
          <path d="m75.91,69.6l-1.67,1.83-.29.31c.63.22,1.66.55,3,.91,6.03,1.61,18.36,3.75,29.54-1.49,1.08-.51,2.15-1.08,3.21-1.73-.07-.12-.14-.23-.2-.34-.23-.38-.45-.77-.66-1.15-3.18,1.68-6.24,2.82-9.14,3.57-3.7.95-7.13,1.26-10.17,1.19-.7.17-1.45.3-2.26.34-1.59.09-2.97-.17-4.16-.7-.4-.18-.78-.39-1.13-.62-3.11-.75-5.24-1.71-6.06-2.12Z" style="fill: #231815; fill-rule: evenodd; stroke-width: 0px;"/>
          <path d="m87.66,179.01l1.67-1.83.29-.31c-.64-.22-1.66-.55-3-.91-6.03-1.61-18.36-3.75-29.54,1.49-1.08.51-2.15,1.08-3.21,1.73.07.12.13.23.2.34.23.38.45.77.66,1.15,3.17-1.68,6.24-2.82,9.14-3.57,3.7-.95,7.13-1.26,10.17-1.19.69-.17,1.45-.3,2.26-.34,1.59-.09,2.97.17,4.16.7.4.18.78.39,1.13.62,3.12.75,5.24,1.71,6.05,2.12Z" style="fill: #231815; fill-rule: evenodd; stroke-width: 0px;"/>
          <path d="m76.45,69.01l-.35.39-.19.21c.81.41,2.94,1.37,6.06,2.12-.34-.22-.65-.47-.95-.74-.25-.22-.48-.46-.69-.71l-2.89-.94-.98-.32h0Zm32.38-1.07c-.03-.06-.07-.12-.1-.18-.16-.3-.32-.59-.47-.89-.27.14-1.04.53-2.13,1.02-1.2.53-2.78,1.18-4.5,1.73-2.52.8-5.33,1.4-7.67,1.11,0,0-.79.59-2.12,1.18-.65.29-1.44.58-2.32.8,3.04.07,6.47-.24,10.17-1.19,2.9-.75,5.97-1.89,9.14-3.57h0Zm-30.42-1.06c.29.85.68,1.66,1.15,2.39-.92-.19-1.99-.58-2.59-.82l1.44-1.57Z" style="fill: #fff; fill-rule: evenodd; stroke-width: 0px;"/>
          <path d="m87.12,179.61l.35-.39.19-.21c-.81-.41-2.94-1.37-6.05-2.12.34.22.65.47.95.74.25.22.47.46.69.71l2.89.94.98.32h0Zm-32.38,1.07c.03.06.07.12.1.19.16.3.32.59.47.89.27-.14,1.04-.53,2.13-1.02,1.2-.53,2.78-1.18,4.5-1.73,2.52-.8,5.33-1.4,7.67-1.11,0,0,.79-.59,2.12-1.18.65-.29,1.44-.58,2.33-.79-3.04-.07-6.47.24-10.17,1.19-2.9.75-5.97,1.89-9.14,3.57h0Zm30.42,1.06c-.29-.86-.68-1.66-1.15-2.39.92.19,1.99.58,2.59.82l-1.44,1.57Z" style="fill: #fff; fill-rule: evenodd; stroke-width: 0px;"/>
          <path d="m65.42,81.06l2.34,1.12-1.86,4.19-3.34-2.18,2.86-3.12h0Zm5.96-6.5l-.29.31c-.12.19-.19.41-.19.65,0,.67.55,1.22,1.22,1.22s1.22-.55,1.22-1.22-.55-1.22-1.22-1.22c-.28,0-.53.09-.74.25h0Zm49.87,7.52c-.6-.44-1.19-.88-1.75-1.34l.49,2.06,1.26-.72h0Zm-3.58-2.9c-1.29-1.17-2.48-2.4-3.56-3.65l-1.65,1.25,1.68,4.48,3.53-2.07h0Zm-44.13.87l-3.66-1.58-1.72,3.4,3.77,1.7,1.61-3.51h0Zm-4.61,4.19c-.67,0-1.22.55-1.22,1.22s.55,1.22,1.22,1.22,1.22-.55,1.22-1.22-.55-1.22-1.22-1.22h0Zm11.26-6.74c.67,0,1.22.55,1.22,1.22s-.55,1.22-1.22,1.22-1.22-.55-1.22-1.22.55-1.22,1.22-1.22h0Zm-5.02,3.84c.67,0,1.22.55,1.22,1.22s-.55,1.22-1.22,1.22-1.21-.55-1.21-1.22.54-1.22,1.21-1.22h0Zm8.79,1.86c.67,0,1.22.55,1.22,1.22s-.55,1.22-1.22,1.22-1.22-.55-1.22-1.22.55-1.22,1.22-1.22h0Zm-5.38,4.56c.67,0,1.22.55,1.22,1.22s-.55,1.22-1.22,1.22-1.22-.55-1.22-1.22.55-1.22,1.22-1.22h0Zm10.05-9.54c.67,0,1.22.55,1.22,1.22s-.55,1.22-1.22,1.22-1.21-.55-1.21-1.22.55-1.22,1.21-1.22h0Zm4.35,5.41c.67,0,1.22.55,1.22,1.22s-.55,1.22-1.22,1.22-1.22-.55-1.22-1.22.55-1.22,1.22-1.22h0Zm-4.65,5.67c.67,0,1.22.55,1.22,1.22s-.55,1.22-1.22,1.22-1.22-.55-1.22-1.22.55-1.22,1.22-1.22h0Zm-9.98-13.14l-3.79-.89-.89,3.63,3.74,1.24.94-3.97h0Zm8.06,1.1l-3.79-.03-.44,4.36,3.95.21.29-4.55h0Zm7.85.19l-3.18.21.41,4.53,3.21-.15-.44-4.59h0Zm7.87-1.44l-2.84.62.47,4.91,3.29-1.65-.92-3.89h0Zm-5.06,1.91c.67,0,1.22.55,1.22,1.22s-.55,1.22-1.22,1.22-1.22-.55-1.22-1.22.55-1.22,1.22-1.22h0Zm8.04-2.22c.67,0,1.22.55,1.22,1.22s-.55,1.22-1.22,1.22-1.22-.55-1.22-1.22.55-1.22,1.22-1.22h0Zm2.79,2.36l-.82-3.65,3.47-1.48,1.35,3.69-4,1.43h0Zm-25.79,4.28l-3.97-.73-1.04,3.5,4.28,1.12.73-3.88h0Zm8.94.87l-4.21-.17-.38,3.78,4.25.04.35-3.64h0Zm8.38-1l-3.81.79.37,3.89,4.08-.92-.64-3.76h0Zm2.72-.36c.67,0,1.22.55,1.22,1.22s-.55,1.22-1.22,1.22-1.22-.55-1.22-1.22.55-1.22,1.22-1.22h0Zm5.74-2.53l-3.53,1.42.95,3.59,3.77-1.39-1.19-3.63h0Zm3.09-.81c.67,0,1.22.55,1.22,1.22s-.55,1.22-1.22,1.22-1.22-.55-1.22-1.22.55-1.22,1.22-1.22h0Zm-12.7,9.83c.67,0,1.21.55,1.21,1.22s-.55,1.22-1.21,1.22-1.22-.55-1.22-1.22.55-1.22,1.22-1.22h0Zm9.71-2.45c.67,0,1.22.55,1.22,1.22s-.55,1.22-1.22,1.22-1.22-.55-1.22-1.22.55-1.22,1.22-1.22h0Zm9.28-4.44c.67,0,1.22.55,1.22,1.22s-.55,1.22-1.22,1.22-1.22-.55-1.22-1.22.55-1.22,1.22-1.22h0Zm-40.41,4.47l-4.79-1.51-1.33,3.79,5.08,1.67,1.04-3.95h0Zm9.28,1.94l-4.84-.76-.31,3.92,4.95.66.19-3.82h0Zm9.23-.14l-4.5.14.06,4.01,4.64-.14-.19-4.01h0Zm9.98-2.3l-4.93,1.28.69,4.24,4.79-1.34-.55-4.17h0Zm5.67,2.57l-1.43-4.57,4.41-1.67,1.23,4.22-4.2,2.02Z" style="fill: #ffe100; fill-rule: evenodd; stroke-width: 0px;"/>
          <path d="m98.16,167.56l-2.34-1.12,1.86-4.19,3.34,2.19-2.86,3.12h0Zm-5.95,6.5l.29-.31c.12-.19.19-.41.19-.65,0-.67-.55-1.22-1.22-1.22s-1.22.55-1.22,1.22.55,1.22,1.22,1.22c.28,0,.53-.1.74-.25h0Zm-49.87-7.52c.6.44,1.19.88,1.75,1.34l-.49-2.07-1.26.72h0Zm3.58,2.9c1.29,1.17,2.48,2.4,3.56,3.65l1.65-1.25-1.68-4.48-3.53,2.07h0Zm44.13-.87l3.66,1.58,1.72-3.4-3.77-1.7-1.61,3.51h0Zm4.61-4.19c.67,0,1.22-.55,1.22-1.22s-.55-1.22-1.22-1.22-1.22.55-1.22,1.22.55,1.22,1.22,1.22h0Zm-11.26,6.74c-.67,0-1.22-.55-1.22-1.22s.55-1.22,1.22-1.22,1.22.55,1.22,1.22-.55,1.22-1.22,1.22h0Zm5.02-3.84c-.67,0-1.22-.55-1.22-1.22s.55-1.22,1.22-1.22,1.22.55,1.22,1.22-.55,1.22-1.22,1.22h0Zm-8.79-1.86c-.67,0-1.22-.55-1.22-1.22s.55-1.22,1.22-1.22,1.22.55,1.22,1.22-.55,1.22-1.22,1.22h0Zm5.38-4.56c-.67,0-1.22-.55-1.22-1.22s.55-1.22,1.22-1.22,1.22.55,1.22,1.22-.55,1.22-1.22,1.22h0Zm-10.05,9.54c-.67,0-1.22-.55-1.22-1.22s.55-1.22,1.22-1.22,1.22.55,1.22,1.22-.55,1.22-1.22,1.22h0Zm-4.35-5.41c-.67,0-1.22-.55-1.22-1.22s.55-1.22,1.22-1.22,1.22.55,1.22,1.22-.55,1.22-1.22,1.22h0Zm4.65-5.67c-.67,0-1.22-.55-1.22-1.22s.55-1.22,1.22-1.22,1.22.55,1.22,1.22-.55,1.22-1.22,1.22h0Zm9.98,13.14l3.79.89.89-3.63-3.74-1.24-.94,3.97h0Zm-8.06-1.1l3.79.03.44-4.36-3.95-.21-.29,4.55h0Zm-7.85-.19l3.18-.21-.41-4.53-3.21.15.44,4.59h0Zm-7.87,1.44l2.84-.62-.47-4.91-3.29,1.65.92,3.89h0Zm5.07-1.91c-.67,0-1.22-.55-1.22-1.22s.55-1.22,1.22-1.22,1.22.55,1.22,1.22-.55,1.22-1.22,1.22h0Zm-8.04,2.22c-.67,0-1.21-.55-1.21-1.22s.55-1.22,1.21-1.22,1.22.55,1.22,1.22-.55,1.22-1.22,1.22h0Zm-2.79-2.36l.82,3.65-3.47,1.48-1.35-3.69,4-1.43h0Zm25.79-4.28l3.97.73,1.04-3.5-4.28-1.12-.73,3.88h0Zm-8.94-.87l4.21.17.38-3.78-4.25-.04-.35,3.64h0Zm-8.38,1l3.81-.79-.37-3.89-4.08.92.64,3.76h0Zm-2.72.36c-.67,0-1.21-.55-1.21-1.22s.55-1.22,1.21-1.22,1.22.55,1.22,1.22-.55,1.22-1.22,1.22h0Zm-5.74,2.53l3.53-1.42-.95-3.59-3.76,1.39,1.19,3.63h0Zm-3.09.81c-.67,0-1.22-.55-1.22-1.21s.55-1.22,1.22-1.22,1.22.55,1.22,1.22-.55,1.21-1.22,1.21h0Zm12.7-9.83c-.67,0-1.21-.55-1.21-1.22s.55-1.22,1.21-1.22,1.22.55,1.22,1.22-.55,1.22-1.22,1.22h0Zm-9.71,2.45c-.67,0-1.22-.55-1.22-1.22s.55-1.22,1.22-1.22,1.22.55,1.22,1.22-.55,1.22-1.22,1.22h0Zm-9.28,4.44c-.67,0-1.22-.55-1.22-1.22s.54-1.22,1.22-1.22,1.22.55,1.22,1.22-.55,1.22-1.22,1.22h0Zm40.41-4.47l4.8,1.51,1.33-3.8-5.08-1.67-1.04,3.95h0Zm-9.28-1.94l4.84.76.3-3.92-4.95-.66-.19,3.82h0Zm-9.23.14l4.51-.14-.06-4.01-4.64.14.19,4.01h0Zm-9.98,2.3l4.93-1.28-.69-4.24-4.79,1.34.55,4.17h0Zm-5.66-2.57l1.43,4.57-4.41,1.67-1.23-4.22,4.2-2.02Z" style="fill: #ffe100; fill-rule: evenodd; stroke-width: 0px;"/>
          <path d="m97.53,102.7c-1.78,3.25-2.92,6.5-3.64,9.49h-6.73s1.42-5.1,2.37-8.19c.14-.45.28-.88.43-1.3h7.57Z" style="fill: #e60012; fill-rule: evenodd; stroke-width: 0px;"/>
          <path d="m66.04,145.91c1.78-3.25,2.92-6.5,3.64-9.49h6.73s-1.42,5.1-2.37,8.19c-.14.45-.28.88-.43,1.3h-7.57Z" style="fill: #e60012; fill-rule: evenodd; stroke-width: 0px;"/>
          <path d="m100.29,98.38c-.85,1.14-1.61,2.3-2.28,3.46h-7.74c.76-2.03,1.49-3.46,1.49-3.46h8.54Z" style="fill: #fff; fill-rule: evenodd; stroke-width: 0px;"/>
          <path d="m63.28,150.23c.85-1.14,1.61-2.3,2.28-3.46h7.74c-.76,2.03-1.49,3.46-1.49,3.46h-8.54Z" style="fill: #fff; fill-rule: evenodd; stroke-width: 0px;"/>
          <polygon points="68.24 97.05 68.92 94.28 75.26 96.75 74.41 99.57 68.24 97.05" style="fill: #fff; fill-rule: evenodd; stroke-width: 0px;"/>
          <polygon points="95.33 151.56 94.65 154.33 88.31 151.86 89.17 149.05 95.33 151.56" style="fill: #fff; fill-rule: evenodd; stroke-width: 0px;"/>
          <path d="m68.08,97.73l5.9,2.37-2.31,9.11-5.75-2.54s-.02-.03-.02-.03l2.18-8.91Z" style="fill: #e60012; fill-rule: evenodd; stroke-width: 0px;"/>
          <path d="m95.5,150.88l-5.9-2.37,2.31-9.11,5.75,2.54s.02.03.02.03l-2.18,8.91Z" style="fill: #e60012; fill-rule: evenodd; stroke-width: 0px;"/>
          <path d="m76.98,110.17c1.43-4.87,3.06-9.89,5.01-14.83l-2.54.32,1.24,1.77-2.4,1.31,1.2,1.31-1.8,1.13.99,1.45-2.12,1.41,1.2,1.48-2.08,1.31,1.03,1.69-1.66,1.38,1.94.28h0Zm5.86-14.27c.21.71.71,1.02.95.71.25-.32.57-.85,1.03-.85s.42.28.42.28c-1.76,4.38-3.42,9.43-4.09,11.51-.67,2.08-.81,3.46-1.09,3.46s-.32-.32-.32-.78-.03-1.13-.42-1.13-.88,1.2-1.06,1.31c-.18.1-.78-.14-.63-.85.14-.71,1.91-6.99,3.21-10.28,1.31-3.28,1.84-3.92,1.84-3.92l.18.53h0Zm-.35,1.69l1.06.35-.49,1.66-1.16-.39.6-1.62h0Zm-.85,2.68l1.06.35-.5,1.66-1.16-.39.6-1.62h0Zm-.95,2.68l1.06.35-.49,1.66-1.17-.39.6-1.62h0Zm-.85,2.89l1.06.35-.49,1.66-1.17-.39.6-1.62h0Zm5.83-9.64l.21-.57,1.94,1.45-1.98.53.81,1.77-2.01,1.13,1.2,1.73-2.15.85,1.17,2.26-2.05.64,1.03,2.15-1.84,1.27,1.09,1.76-2.12-.25s1.84-7.94,4.7-14.72Z" style="fill: #ffe100; fill-rule: evenodd; stroke-width: 0px;"/>
          <path d="m86.59,138.44c-1.42,4.87-3.06,9.89-5.01,14.83l2.54-.32-1.24-1.77,2.4-1.31-1.2-1.31,1.8-1.13-.99-1.45,2.12-1.41-1.2-1.48,2.08-1.31-1.03-1.7,1.66-1.38-1.94-.28h0Zm-5.86,14.27c-.21-.71-.7-1.02-.95-.71s-.57.85-1.03.85-.42-.28-.42-.28c1.76-4.38,3.42-9.43,4.1-11.51.67-2.08.81-3.46,1.09-3.46s.32.32.32.78.03,1.13.42,1.13.88-1.2,1.06-1.31c.17-.1.78.14.63.85-.14.71-1.91,6.99-3.21,10.27-1.31,3.28-1.84,3.92-1.84,3.92l-.18-.53h0Zm.35-1.69l-1.06-.35.49-1.66,1.16.39-.6,1.62h0Zm.85-2.68l-1.06-.35.49-1.66,1.16.39-.6,1.62h0Zm.95-2.68l-1.06-.35.49-1.66,1.17.39-.6,1.62h0Zm.85-2.89l-1.06-.35.49-1.66,1.17.39-.6,1.62h0Zm-5.83,9.64l-.21.57-1.94-1.45,1.98-.53-.81-1.77,2.01-1.13-1.2-1.73,2.15-.85-1.17-2.26,2.05-.63-1.03-2.15,1.84-1.27-1.09-1.76,2.12.25s-1.84,7.94-4.7,14.72Z" style="fill: #ffe100; fill-rule: evenodd; stroke-width: 0px;"/>
          <path d="m70.76,124.37c-.19-2.49-.51-4.73-.91-6.7,2.47.58,15.41,3.48,22.96,1.9-.12,2.05-.06,3.71.02,4.8.19,2.56.54,4.84.96,6.85-1.85-.61-5.24-1.57-9.43-2.05-5.99-.69-9.05-.5-13.61.07.13-2.06.08-3.74,0-4.86Z" style="fill: #e60012; fill-rule: evenodd; stroke-width: 0px;"/>
          <path d="m105.61,93.44c-2.3,2.25-7,7.44-9.57,14.44-3.5,9.5-3.42,22.16,2.08,33.31l.04.08c.23-.31.51-.68.83-1.11l-.03-.06c-2.84-5.56-4.24-12.02-4.17-18.46.07-6.73,1.75-13.43,5.05-19.03,2.38-4.03,5.82-7.72,7.96-9.82-.73.24-1.45.46-2.17.66h0Zm4.08-1.33c1.29-.48,2.6-1.02,3.91-1.62-2.39,1.89-10.03,8.34-13.57,15.96-2.36,5.07-3.57,11.06-3.4,17.11.15,5.09,1.27,10.23,3.52,14.95h0c-.22.31-.43.6-.63.88l-.02-.04c-2.65-5.35-3.96-11.54-3.89-17.72.07-6.59,1.71-13.14,4.93-18.61,2.93-4.97,7.51-9.41,9.14-10.92h0Zm-8.23,44.54c-.25.37-.5.73-.75,1.08-2.06-4.49-3.1-9.36-3.23-14.19-.17-5.93,1.02-11.78,3.32-16.74,3.53-7.59,11.26-14.02,13.45-15.74l1.14,1.79c-7.41,3.83-12.75,10.34-15.27,18.2-2.47,7.68-2.25,16.63,1.35,25.6h0Zm.99-1.46c-.14.21-.28.41-.41.62-3.32-8.6-3.48-17.16-1.12-24.5,2.46-7.67,7.68-14.02,14.93-17.74l.79,1.25c-3.66,1.47-12.33,7.96-15.04,18.8-2.49,9.94.37,19.97.86,21.58Z" style="fill: #fff; fill-rule: evenodd; stroke-width: 0px;"/>
          <path d="m57.97,155.17c2.3-2.25,7-7.44,9.57-14.44,3.5-9.5,3.41-22.16-2.08-33.31l-.03-.08c-.23.31-.51.68-.83,1.12l.03.06c2.84,5.56,4.24,12.02,4.17,18.46-.07,6.73-1.75,13.43-5.05,19.03-2.38,4.03-5.82,7.72-7.96,9.82.73-.24,1.45-.46,2.17-.67h0Zm-4.08,1.33c-1.29.48-2.6,1.02-3.91,1.62,2.39-1.89,10.03-8.34,13.57-15.96,2.36-5.07,3.57-11.05,3.4-17.11-.15-5.09-1.27-10.24-3.52-14.95h0c.22-.31.43-.6.63-.88l.02.04c2.65,5.35,3.96,11.54,3.89,17.72-.07,6.58-1.71,13.14-4.93,18.61-2.93,4.97-7.51,9.41-9.14,10.92h0Zm8.23-44.54c.25-.37.5-.73.75-1.08,2.06,4.49,3.1,9.36,3.23,14.19.17,5.93-1.02,11.78-3.32,16.74-3.53,7.59-11.26,14.02-13.45,15.74l-1.14-1.8c7.41-3.83,12.75-10.34,15.27-18.2,2.47-7.68,2.25-16.63-1.35-25.6h0Zm-.99,1.46c.14-.21.28-.41.41-.62,3.32,8.61,3.49,17.16,1.12,24.5-2.47,7.67-7.69,14.02-14.93,17.74l-.79-1.25c3.66-1.47,12.33-7.96,15.04-18.8,2.49-9.94-.37-19.97-.86-21.58Z" style="fill: #fff; fill-rule: evenodd; stroke-width: 0px;"/>
          <path d="m115.95,98.7c-1.39.86-7.46,4.87-9.95,11-2.68,6.59-3.21,12.68-1.11,21.64.36-.6.7-1.2,1.02-1.79,3.29-5.96,9.38-14.86,10.03-30.7,0-.05,0-.1,0-.14Z" style="fill: #e60012; fill-rule: evenodd; stroke-width: 0px;"/>
          <path d="m47.63,149.92c1.39-.86,7.46-4.87,9.95-11,2.68-6.59,3.21-12.68,1.11-21.64-.36.6-.7,1.2-1.03,1.79-3.29,5.96-9.38,14.86-10.03,30.71,0,.05,0,.1,0,.14Z" style="fill: #e60012; fill-rule: evenodd; stroke-width: 0px;"/>
          <path d="m116.94,96.74c-.11,2.08-.66,9.94-2.81,17.74-2.5,9.09-12.32,23.71-15.67,27.2,0,0,3.86,8.34,11.87,13.14l23.66-25.66v-14.45l-17.04-17.97Z" style="fill: #ffe100; fill-rule: evenodd; stroke-width: 0px;"/>
          <path d="m46.64,151.88c.11-2.08.66-9.94,2.81-17.74,2.5-9.09,12.32-23.71,15.67-27.2,0,0-3.86-8.34-11.87-13.14l-23.66,25.66v14.45l17.04,17.97Z" style="fill: #ffe100; fill-rule: evenodd; stroke-width: 0px;"/>
          <path d="m133.98,114.71l-18.24-19.24-3.1-4.54c1.43-.62,2.86-1.32,4.3-2.1l17.04,19.8v6.08Z" style="fill: #231815; fill-rule: evenodd; stroke-width: 0px;"/>
          <path d="m29.59,133.91l18.24,19.24,3.1,4.55c-1.43.62-2.86,1.32-4.3,2.1l-17.04-19.8v-6.08Z" style="fill: #231815; fill-rule: evenodd; stroke-width: 0px;"/>
          <path d="m101.33,141.06l-.54.59s-.04,2,3,5.69c3.04,3.69,5.34,5.43,5.34,5.43l24.86-27.07v-7.51l-15.84-17.66s-1.27,13.75-4.15,19.7c-2.89,5.94-5.93,11.67-12.66,20.84Z" style="fill: #231815; fill-rule: evenodd; stroke-width: 0px;"/>
          <path d="m62.25,107.56l.54-.59s.04-2-3-5.69c-3.04-3.69-5.34-5.43-5.34-5.43l-24.86,27.07v7.51l15.84,17.66s1.27-13.75,4.15-19.7c2.89-5.94,5.93-11.67,12.66-20.84Z" style="fill: #231815; fill-rule: evenodd; stroke-width: 0px;"/>
          <path d="m107.59,136.59l.37.06s-.65-2.99-.36-3.11c.3-.12,1.64.99,2.23,1.68,0,0,.51-3.71,2.74-3.86,0,0,.48.09.48,1.29s-.21,3.92-.21,3.92c0,0,1.46-1.41,2.38-1.62.92-.21,1.58.63.98,1.71-.59,1.08-2.17,2.06-2.17,2.06,0,0,3.6,1.2,3.33,2.21-.27,1.02-4.29.42-4.29.42,0,0,1.31,4.32.41,4.56-.9.24-2.19-1.83-2.68-2.73,0,0-1.39,3.75-2.19,3.83-.8.07-1.07-2.93-.37-4.34,0,0-3.52,1.76-3.93.47,0,0-.51-1.08,3.09-3.13,0,0-2.33-1.33-2.15-2.31.18-.98,1.74-1.11,2.32-1.11h0Zm2.95-.36c-1.41,0-2.56,1.31-2.56,2.92s1.15,2.92,2.56,2.92,2.56-1.31,2.56-2.92-1.15-2.92-2.56-2.92h0Zm.09,1.25c-.9,0-1.64.84-1.64,1.87s.74,1.87,1.64,1.87,1.64-.84,1.64-1.87-.74-1.87-1.64-1.87h0Zm8.65-1.68c.61,0,1.1.52,1.1,1.16s-.5,1.16-1.1,1.16-1.1-.52-1.1-1.16.49-1.16,1.1-1.16h0Zm-.09-11.5c.7,0,1.27.6,1.27,1.34s-.57,1.34-1.27,1.34-1.27-.6-1.27-1.34.57-1.34,1.27-1.34h0Zm10.07-5.57c.7,0,1.27.6,1.27,1.34s-.57,1.33-1.27,1.33-1.27-.6-1.27-1.33.57-1.34,1.27-1.34h0Zm-6.63,14.15s-.44-2.35.33-3.33c.77-.98,2.6-.77,2.6-.77l.47-5.02-8.1,9.5,4.7-.39h0Zm-6.07-10.92c-.13,2.24-3.06,2.13-3.06,2.13l-.15,4.73,6.44-9.08h-3.23v2.22h.01Zm3.11-11.93c.7,0,1.27.6,1.27,1.34s-.57,1.34-1.27,1.34-1.27-.6-1.27-1.34.57-1.34,1.27-1.34h0Zm4.12,1.95c-4.61,1.83-4.69,4.49-4.69,4.49,1.54,1.17,5.56-1.76,5.56-1.76-.53,3.16.06,7.31.06,7.31,2.72-1.83,3.37-6.69,3.37-6.69,2.17,2.45,3.44,2.08,3.44,1.68s-2.4-3.22-2.4-3.22c-3.07,1.64-4.61.5-4.61-1.38s.64-2.79.64-2.79c-1.74-3.42-4.14-3.12-4.14-3.12-.5,2.15,3.07,5.34,3.07,5.34l-.29.15h0Zm1.73-.59c.43-.46,1.2-.39,1.72.17.51.55.58,1.38.15,1.85-.43.46-1.2.39-1.72-.17-.51-.56-.58-1.39-.14-1.85Z" style="fill: #ffe100; fill-rule: evenodd; stroke-width: 0px;"/>
          <path d="m55.99,112.02l-.37-.06s.65,2.99.36,3.11c-.3.12-1.64-.99-2.23-1.68,0,0-.51,3.71-2.74,3.86,0,0-.48-.09-.48-1.29s.21-3.92.21-3.92c0,0-1.46,1.41-2.38,1.62-.92.21-1.58-.63-.98-1.71.59-1.08,2.17-2.06,2.17-2.06,0,0-3.6-1.2-3.33-2.21.27-1.02,4.29-.42,4.29-.42,0,0-1.31-4.32-.41-4.56.9-.25,2.19,1.83,2.68,2.73,0,0,1.39-3.75,2.19-3.83.8-.07,1.07,2.93.37,4.34,0,0,3.52-1.76,3.93-.47,0,0,.51,1.08-3.09,3.13,0,0,2.33,1.34,2.15,2.31-.18.98-1.74,1.11-2.32,1.11h0Zm-2.95.36c1.41,0,2.56-1.31,2.56-2.92s-1.15-2.92-2.56-2.92-2.56,1.31-2.56,2.92,1.15,2.92,2.56,2.92h0Zm-.08-1.25c.9,0,1.64-.84,1.64-1.87s-.74-1.87-1.64-1.87-1.64.84-1.64,1.87.74,1.87,1.64,1.87h0Zm-8.65,1.68c-.61,0-1.1-.52-1.1-1.16s.5-1.16,1.1-1.16,1.1.52,1.1,1.16-.49,1.16-1.1,1.16h0Zm.09,11.5c-.7,0-1.27-.6-1.27-1.34s.57-1.34,1.27-1.34,1.27.6,1.27,1.34-.57,1.34-1.27,1.34h0Zm-10.07,5.57c-.7,0-1.27-.6-1.27-1.34s.57-1.33,1.27-1.33,1.27.6,1.27,1.33-.57,1.34-1.27,1.34h0Zm6.63-14.15s.44,2.35-.33,3.33c-.77.98-2.6.77-2.6.77l-.47,5.02,8.1-9.5-4.7.39h0Zm6.07,10.92c.13-2.24,3.06-2.13,3.06-2.13l.15-4.73-6.44,9.08h3.23v-2.22h-.01Zm-3.11,11.93c-.7,0-1.27-.6-1.27-1.34s.57-1.33,1.27-1.33,1.28.6,1.28,1.33-.57,1.34-1.28,1.34h0Zm-4.12-1.95c4.6-1.83,4.69-4.49,4.69-4.49-1.54-1.17-5.56,1.76-5.56,1.76.53-3.16-.06-7.31-.06-7.31-2.72,1.83-3.37,6.69-3.37,6.69-2.17-2.45-3.44-2.08-3.44-1.68s2.41,3.22,2.41,3.22c3.07-1.64,4.61-.5,4.61,1.38s-.63,2.79-.63,2.79c1.74,3.42,4.14,3.12,4.14,3.12.5-2.15-3.07-5.34-3.07-5.34l.29-.15h0Zm-1.73.59c-.43.46-1.2.39-1.72-.17-.51-.55-.58-1.38-.15-1.85.43-.46,1.21-.39,1.72.17.51.55.58,1.38.14,1.85Z" style="fill: #ffe100; fill-rule: evenodd; stroke-width: 0px;"/>
          <path d="m130.36,135.44h.24s.63.15.6.96c-.03.81-.69,1.2-1.35,1.2s-.93-.27-.93-.27c0,0,.27-1.5,1.44-1.89h0Zm.64,2.64c-.89.12-1.53.12-2.3-.03,0,0-.7,1.4-.67,3.52l1.82.86c.38-1.45.77-2.91,1.16-4.36h0Zm-7.65,20.85l-.14-.34s5.3,2.27,5.95,2.53c.64.26.96.36,1.11.28.15-.08.23-.36-.48-.69-.71-.33-4.71-1.87-4.71-1.87,0,0,.79-.18,2.08-.13,1.29.05,3.68.65,4.42,1.76.74,1.11.5,2.16.23,2.24-.27.08-1.82.08-3.2-.27-1.38-.35-4.1-1.76-5.26-3.52h0Zm-4.76-1.95c.17-.35-.79-.54-.91-.55-.76-.06-2.48.53-3.78,1.3-1.3.78-2,2.71-2.02,4.75,0,0,1.54-1.26,3.51-2.23,1.97-.97,4.01-1.2,4.46-1.2s.42.13.4.78c-.02.65-.15,2.44,1.45,2.77,0,0,.42.19.71-1.62.29-1.81-.04-2.42-.04-2.42,0,0-1.42-.12-3.03-1.15,0,0-3.92,1.98-4.38,2.17-.46.19-.73-.03-.73-.22s.19-.37.65-.58c.46-.2,3.46-1.44,3.71-1.82h0Zm2.86,6.34c-.51-.41-1.72-.89-3.14-.64-1.43.26-2.16,1.41-2.19,2.11-.03.7-.02,2.74.17,4.19.19,1.45.44,1.9.44,1.9-.44.22-.81,2.01-.63,3.87.19,1.86,1.81,2.83,3.92,2.75,2.11-.08,3.4-2.08,3.4-2.08,1.48,1.11,3.52.96,4.31.05.8-.91,1.16-2.07,1.02-3.78-.14-1.71-1.49-3.16-1.49-3.16.83-.57.97-2.48.66-4.21-.31-1.73-1.55-2.58-2.62-2.46-1.07.12-3.29,1.67-3.29,1.67l-.56-.19h0Zm.77,3.81c.52,0,.99.2,1.37.53l2.25-3.25.58.4-2.36,3.41c.26.42.41.93.41,1.47,0,.39-.08.77-.22,1.1l2.81,2.75-.49.5-2.69-2.63c-.41.51-1,.84-1.66.84-.29,0-.57-.06-.82-.18l-2.31,3.34-.57-.4,2.3-3.33c-.52-.47-.85-1.19-.85-1.99,0-.61.19-1.17.51-1.61l-2.77-2.7.49-.5,2.76,2.7c.36-.28.79-.44,1.26-.44Z" style="fill: #ffe100; fill-rule: evenodd; stroke-width: 0px;"/>
          <path d="m33.21,113.18h-.24s-.63-.15-.6-.96c.03-.81.69-1.2,1.35-1.2s.93.27.93.27c0,0-.27,1.5-1.44,1.89h0Zm-.63-2.65c.89-.12,1.53-.12,2.3.03,0,0,.7-1.4.67-3.52l-1.82-.86c-.39,1.45-.77,2.91-1.16,4.36h0Zm7.65-20.85l.14.34s-5.3-2.27-5.95-2.53c-.64-.26-.96-.36-1.11-.28-.15.08-.23.36.48.7.71.33,4.71,1.87,4.71,1.87,0,0-.79.18-2.08.13-1.29-.05-3.68-.65-4.41-1.76-.74-1.11-.5-2.17-.24-2.24.27-.08,1.82-.08,3.2.27,1.38.35,4.1,1.76,5.26,3.51h0Zm4.76,1.95c-.17.35.79.54.91.55.76.06,2.48-.53,3.78-1.3,1.3-.78,2-2.71,2.02-4.75,0,0-1.53,1.26-3.51,2.23-1.98.97-4.01,1.2-4.45,1.2s-.42-.13-.4-.78c.02-.65.15-2.44-1.45-2.77,0,0-.42-.19-.71,1.62-.29,1.81.04,2.42.04,2.42,0,0,1.42.12,3.03,1.15,0,0,3.92-1.98,4.38-2.17.46-.19.73.03.73.22s-.19.37-.65.58c-.46.2-3.46,1.44-3.71,1.82h0Zm-2.86-6.34c.51.42,1.72.9,3.15.64,1.43-.26,2.16-1.41,2.19-2.11.03-.7.02-2.74-.17-4.19-.19-1.45-.44-1.9-.44-1.9.44-.22.81-2.01.63-3.87-.19-1.86-1.81-2.83-3.92-2.75-2.11.08-3.4,2.08-3.4,2.08-1.48-1.11-3.52-.96-4.31-.05-.79.91-1.16,2.07-1.02,3.78.14,1.71,1.49,3.16,1.49,3.16-.83.57-.97,2.48-.66,4.21.31,1.73,1.55,2.58,2.62,2.46,1.07-.12,3.29-1.67,3.29-1.67l.56.19h0Zm-.77-3.81c-.52,0-.99-.2-1.37-.53l-2.25,3.25-.58-.4,2.36-3.41c-.26-.42-.42-.93-.42-1.47,0-.39.08-.77.22-1.1l-2.81-2.75.49-.5,2.69,2.63c.41-.51,1-.83,1.66-.83.29,0,.57.06.82.18l2.31-3.34.57.4-2.3,3.32c.52.47.85,1.19.85,1.99,0,.61-.19,1.17-.51,1.61l2.76,2.7-.49.5-2.76-2.7c-.36.28-.79.44-1.26.44Z" style="fill: #ffe100; fill-rule: evenodd; stroke-width: 0px;"/>
          <path d="m122.22,171.48c.88,0,1.6-.81,1.6-1.8s-.72-1.8-1.6-1.8-1.59.81-1.59,1.8.72,1.8,1.59,1.8Z" style="fill: #e60012; fill-rule: evenodd; stroke-width: 0px;"/>
          <path d="m41.35,80.74c-.88,0-1.59-.81-1.59-1.8s.71-1.8,1.59-1.8,1.59.81,1.59,1.8-.71,1.8-1.59,1.8Z" style="fill: #e60012; fill-rule: evenodd; stroke-width: 0px;"/>
          <path d="m114.25,151.22c1.11,1.69,4.02,5.68,7.01,6.37,0,0,.68-1.39,1.64-1.6.96-.21,1.96.37,1.97.56.02.2-.21.55-.33.55s-.49-.27-1.09-.37c-.61-.09-1.19.69-1.28.9-.09.21.99.34,1.96.34s1.65.03,1.64-.52c-.02-.55-.44-1.87-2.13-3.19-1.7-1.32-2.09-1.52-2.33-1.52s-.98.46-.98.46l.79-5.85s.75,5.42,1.62,5.49c0,0,.47-1.77,1.44-2.28,0,0-.29-.33-.61-.87-.33-.54-.22-1.73.97-2.38,0,0-.14-1.73,1.26-2.6,0,0-.5-1.05,1.01-2.75l-2.17-2.09-10.38,11.34h0Zm16.75-5.34c-.55-.41-1-.67-1.59-.83-.58-.16-.57-.49-.57-.88s.02-.69-.3-.69-.14.79-.57.97c-.42.18-1.5.16-1.45-.53.05-.69.81-1.61,1.11-1.61s1.68.51,2.79,1.39.78,2.31.78,2.31l-.21-.14h0Zm-5.27,4.74s-.14.02-.11-.22c.04-.24.46-.25.46-.25,1.24-.25,1.15-2.03,1.15-2.03.59.28,1.23.69,1.8,1.24,1.17,1.15,1.47,2.2,1.49,3.17.02.96-.35,1.71-.8,1.71,0,0-.07-.62-1.26-1.73-1.18-1.11-2.02-1.64-2.64-1.86l-.09-.04h0Zm-1.51-1.89l.09-.25s.55-.78,1.31-.78.95.27.82.76c-.13.49-.47,1.09-1.2,1.28-.73.18-1.24-.27-1.02-1h0Zm6.8-1.81l-.23-.18s-1.2-.87-2.48-1.28c-.07.84-.76,1.67-.99,1.92.07.03.13.06.2.1,1.13.63,2.57,1.58,3.1,2.83,0,0,.6-.25.74-1.32.14-1.07,0-1.6-.32-2.07h0Zm-3.58-1.67c0,.38-.1,1.38-.97,1.87-.63-.11-1.06-.05-1.04-.41.02-.53.39-1.62,1.96-1.46.02,0,.04,0,.05,0h0Zm-1.13,6.36l.21.11s-.45.49-1.28.79c-.82.31-1.46.03-1.46.03,0,0,.49-1.44,1.03-1.68,0,0,.59.35,1.49.75h0Zm-2.33,2.1l-.25-.3s1.85.18,3.54-1.19c0,0,1.6,1.26,1.87,2.66.27,1.4-1.03,2.06-2.03,2.06s-1.18-1.01-1.18-1.33c0,0,.87.02.87-.25s-.09-.57-.66-.6c-.57-.02-1.48-.37-2.14-1.05Z" style="fill: #fff; fill-rule: evenodd; stroke-width: 0px;"/>
          <path d="m49.32,97.39c-1.11-1.69-4.02-5.68-7.01-6.37,0,0-.68,1.39-1.64,1.6-.96.21-1.96-.37-1.97-.56-.01-.2.21-.55.33-.55s.49.27,1.09.37c.61.09,1.18-.69,1.28-.9.09-.21-.99-.33-1.96-.33s-1.65-.03-1.64.52c.02.55.44,1.87,2.13,3.19,1.7,1.32,2.09,1.52,2.33,1.52s.98-.46.98-.46l-.79,5.85s-.75-5.42-1.62-5.49c0,0-.47,1.77-1.44,2.28,0,0,.29.33.61.87.33.54.22,1.73-.97,2.38,0,0,.14,1.73-1.26,2.6,0,0,.5,1.05-1.01,2.75l2.17,2.09,10.38-11.34h0Zm-16.75,5.34c.55.41,1,.67,1.59.83.58.16.57.49.57.88s-.02.69.3.69.14-.79.57-.97c.42-.18,1.5-.16,1.45.53-.05.69-.81,1.61-1.11,1.61s-1.68-.51-2.79-1.4c-1.11-.88-.78-2.31-.78-2.31l.21.14h0Zm5.27-4.74s.14-.02.11.22c-.04.24-.46.25-.46.25-1.24.25-1.15,2.03-1.15,2.03-.59-.28-1.23-.69-1.8-1.24-1.16-1.15-1.47-2.21-1.49-3.17-.02-.96.35-1.71.8-1.71,0,0,.07.62,1.26,1.73,1.18,1.11,2.02,1.64,2.64,1.86l.09.04h0Zm1.51,1.89l-.09.25s-.55.78-1.31.78-.95-.27-.82-.76c.13-.49.47-1.09,1.2-1.28.73-.18,1.24.27,1.02,1h0Zm-6.8,1.81l.23.19s1.2.87,2.48,1.28c.07-.84.76-1.67.99-1.92-.07-.03-.13-.06-.2-.1-1.13-.63-2.56-1.58-3.1-2.83,0,0-.6.25-.74,1.32-.14,1.07,0,1.6.33,2.07h0Zm3.57,1.66c0-.38.1-1.38.97-1.87.63.11,1.06.05,1.04.41-.02.53-.39,1.62-1.96,1.46-.02,0-.04,0-.05,0h0Zm1.13-6.36l-.21-.11s.46-.49,1.28-.79c.82-.31,1.46-.03,1.46-.03,0,0-.49,1.44-1.03,1.68,0,0-.59-.35-1.49-.75h0Zm2.33-2.1l.25.3s-1.85-.18-3.54,1.19c0,0-1.59-1.26-1.87-2.66-.27-1.4,1.03-2.06,2.03-2.06s1.18,1.01,1.18,1.33c0,0-.87-.02-.87.25s.09.57.66.6c.57.02,1.48.37,2.14,1.05Z" style="fill: #fff; fill-rule: evenodd; stroke-width: 0px;"/>
        </g>
        <path d="m133.98,221.84H29.59V26.78h104.39v195.06h0Zm1.68,1.68V25.09H27.91v198.42h107.75Z" style="fill: #004ea2; fill-rule: evenodd; stroke-width: 0px;"/>
        <g>
          <path d="m61.96,49.19c-11.04-6.46-14.41-19.65-14.41-19.65,0,0-3.37,13.2-14.41,19.65,11.04,6.46,14.41,19.65,14.41,19.65,0,0,3.37-13.19,14.41-19.65Z" style="fill: #e60012; fill-rule: evenodd; stroke-width: 0px;"/>
          <path d="m101.61,199.42c11.04,6.46,14.41,19.65,14.41,19.65,0,0,3.37-13.2,14.41-19.65-11.04-6.46-14.41-19.65-14.41-19.65,0,0-3.37,13.19-14.41,19.65Z" style="fill: #e60012; fill-rule: evenodd; stroke-width: 0px;"/>
        </g>
      </g>
    </g>
  </g>
</svg>