<?xml version="1.0" encoding="UTF-8"?>
<svg id="_图层_2" data-name="图层 2" xmlns="http://www.w3.org/2000/svg" viewBox="0 0 162.16 247.2">
  <g id="_图层_1-2" data-name="图层 1">
    <g>
      <path d="m161.16,240.62c0,3.07-2.49,5.57-5.53,5.57H6.52c-3.04,0-5.52-2.51-5.52-5.57V6.57C1,3.51,3.49,1,6.52,1h149.11c3.04,0,5.53,2.51,5.53,5.57v234.05Z" style="fill: #fff; fill-rule: evenodd; stroke: #231815; stroke-miterlimit: 22.93; stroke-width: 2px;"/>
      <g>
        <path d="m24.74,55.7c-6.26-3.66-8.16-11.13-8.16-11.13,0,0-1.91,7.47-8.16,11.13,6.25,3.66,8.16,11.13,8.16,11.13,0,0,1.91-7.47,8.16-11.13Z" style="fill: #e60012; fill-rule: evenodd; stroke-width: 0px;"/>
        <polygon points="7.79 12.76 15.49 12.76 15.49 15.88 13.18 15.88 13.18 26.23 19.62 15.88 17.67 15.88 17.67 12.76 25.37 12.76 25.37 15.88 23.29 15.88 17.78 24.73 23.98 37.99 25.21 37.99 25.21 41.11 17.74 41.11 17.74 37.99 20.55 37.99 15.82 27.88 13.18 32.12 13.18 37.99 15.77 37.99 15.77 41.11 8.29 41.11 8.29 37.99 10.06 37.99 10.06 15.88 7.79 15.88 7.79 12.76" style="fill: #e60012; stroke-width: 0px;"/>
      </g>
      <g>
        <path d="m137.41,191.49c6.25,3.66,8.16,11.13,8.16,11.13,0,0,1.91-7.47,8.16-11.13-6.26-3.66-8.16-11.13-8.16-11.13,0,0-1.91,7.47-8.16,11.13Z" style="fill: #e60012; fill-rule: evenodd; stroke-width: 0px;"/>
        <polygon points="154.36 234.43 146.67 234.43 146.67 231.31 148.98 231.31 148.98 220.96 142.54 231.31 144.49 231.31 144.49 234.43 136.79 234.43 136.79 231.31 138.87 231.31 144.38 222.46 138.18 209.2 136.94 209.2 136.94 206.09 144.42 206.09 144.42 209.2 141.61 209.2 146.33 219.32 148.98 215.07 148.98 209.2 146.39 209.2 146.39 206.09 153.86 206.09 153.86 209.2 152.09 209.2 152.09 231.31 154.36 231.31 154.36 234.43" style="fill: #e60012; stroke-width: 0px;"/>
      </g>
      <g>
        <g>
          <path d="m28.88,99.36l28.06-19.05c-.57-3.01.85-5.26,3.61-5.19,2.76.06,3.26,2.63,3.26,2.63,2.79-1.39,2.98-3.33,2.94-4.27-.03-.95-.44-1.11-.35-1.49.1-.38.54-1.33.54-1.33-.57-.32-.6-2.28-.6-3.45s-.66-1.48-1.49-2.09c-.83-.61-1.63-1.03-1.38-2.16.25-1.14.72-2.44,1.8-5.29,1.08-2.85,1.35-4,1.17-5.61-.18-1.6-.78-2.26-.96-4.02-.18-1.75.43-2.35.43-2.35,0,0-.98-.53-1.13-1.21-.14-.67-.04-1.64-.04-1.64-.41-.29-.82-.94-.9-1.56-.08-.61.21-1.1.21-1.1l-6.78-14.11h58.81l-9.77,18.49s1.73,2.99-.38,3.97c0,0,.98,1.71-.37,2.84,0,0,2.86,10.94,4.04,16.67,1.18,5.73,1.14,7.01-1.33,10.35h11.12l5.26,5.99v-44.79l8.61-9.89v118.15l-28.06,19.05c.57,3.01-.86,5.26-3.61,5.19-2.75-.06-3.26-2.63-3.26-2.63-2.79,1.39-2.97,3.33-2.94,4.27.03.95.44,1.11.35,1.49-.09.38-.54,1.33-.54,1.33.57.32.6,2.28.6,3.45s.66,1.48,1.49,2.09c.83.61,1.62,1.03,1.38,2.16-.25,1.14-.72,2.44-1.79,5.29-1.08,2.86-1.35,4-1.17,5.61.18,1.6.78,2.27.96,4.02.18,1.75-.43,2.35-.43,2.35,0,0,.98.53,1.12,1.21.14.68.04,1.64.04,1.64.41.29.82.94.9,1.55.08.61-.21,1.1-.21,1.1l6.78,14.11h-58.81l9.77-18.49s-1.73-2.99.38-3.97c0,0-.97-1.71.37-2.84,0,0-2.86-10.94-4.04-16.67-1.18-5.73-1.15-7.01,1.33-10.35h-11.12l-5.26-5.99v44.79l-8.61,9.89v-118.15Z" style="fill: #004ea2; fill-rule: evenodd; stroke-width: 0px;"/>
          <path d="m133.28,147.84l-28.06,19.05c.57,3.01-.86,5.26-3.61,5.19-2.75-.06-3.26-2.63-3.26-2.63-2.79,1.39-2.97,3.33-2.94,4.27.03.95.44,1.11.35,1.49-.09.38-.54,1.33-.54,1.33.57.32.6,2.28.6,3.45s.66,1.48,1.49,2.09c.83.61,1.62,1.03,1.38,2.16-.25,1.14-.72,2.44-1.79,5.29-1.08,2.86-1.35,4-1.17,5.61.18,1.6.78,2.27.96,4.02.18,1.75-.43,2.35-.43,2.35,0,0,.98.53,1.12,1.21.14.68.04,1.64.04,1.64.41.29.82.94.9,1.55.08.61-.21,1.1-.21,1.1l6.78,14.11h-58.81l9.77-18.49s-1.73-2.99.38-3.97c0,0-.97-1.71.37-2.84,0,0-2.86-10.94-4.04-16.67-1.18-5.73-1.15-7.01,1.33-10.35h-11.12l-5.26-5.99v44.79l-8.61,9.89v-118.15l28.06-19.05c-.57-3.01.85-5.26,3.61-5.19,2.76.06,3.26,2.63,3.26,2.63,2.79-1.39,2.98-3.33,2.94-4.27-.03-.95-.44-1.11-.35-1.49.1-.38.54-1.33.54-1.33-.57-.32-.6-2.28-.6-3.45s-.66-1.48-1.49-2.09c-.83-.61-1.63-1.03-1.38-2.16.25-1.14.72-2.44,1.8-5.29,1.08-2.85,1.35-4,1.17-5.61-.18-1.6-.78-2.26-.96-4.02-.18-1.75.43-2.35.43-2.35,0,0-.98-.53-1.13-1.21-.14-.67-.04-1.64-.04-1.64-.41-.29-.82-.94-.9-1.56-.08-.61.21-1.1.21-1.1l-6.78-14.11h58.81l-9.77,18.49s1.73,2.99-.38,3.97c0,0,.98,1.71-.37,2.84,0,0,2.86,10.94,4.04,16.67,1.18,5.73,1.14,7.01-1.33,10.35h11.12l5.26,5.99v-44.79l8.61-9.89v118.15Z" style="fill: #004ea2; fill-rule: evenodd; stroke-width: 0px;"/>
          <g>
            <path d="m125.68,56.69v.26s-.25.08-.25.08c-6.29,1.87-7.98,10.02-7.98,10.04l-.13.63-.46-.46s-5.4-5.3-5.84-15.12c-.45-9.85,6.74-15.95,6.76-15.97l.61-.53-.03.8c-.26,7.75,7.09,11.16,7.11,11.17l.2.09v.22l.02,8.78Z" style="fill: #004ea2; stroke-width: 0px;"/>
            <path d="m99.06,87.93l-8.31.02s-7.15,9.54-16.91,13.2c-.15-1.93-.37-3.77-.64-5.47.78-.37,3.19-1.55,5.6-3.25,3.02-2.13,8.17-7.5,9.21-10.71h14.54c-.49.77-1.81,2.93-3.5,6.21h0Zm4.26-6.21c-.5.78-1.9,3.01-3.61,6.21l5.34-.02c2.52-4.12,4.57-6.19,4.57-6.19h-6.29Zm1.29,6.91h-5.2c-.63,1.24-1.23,2.51-1.8,3.78h4.95c.69-1.4,1.38-2.65,2.04-3.78h0Zm-2.39,4.49h-4.92c-.67,1.54-1.29,3.06-1.85,4.52h4.82c.63-1.63,1.28-3.14,1.94-4.52h0Zm-2.21,5.24h-4.83c-.57,1.51-1.07,2.94-1.51,4.24h4.93c.44-1.49.92-2.91,1.41-4.24h0Zm-1.62,4.96c-.45,1.57-.86,3.24-1.22,4.98h-5.29c.29-1.04.82-2.79,1.54-4.98h4.96Zm-1.37,5.7c-.45,2.28-.8,4.69-1.05,7.25l-4.38-6.94s.03-.11.08-.31h5.34Z" style="fill: #ffe100; fill-rule: evenodd; stroke-width: 0px;"/>
            <path d="m94.9,104.1l-1.7,1.57,1.63,1.82,1.63-1.51-1.57-1.88h0Zm1.94-4.96l-1.82,1.13,1.08,1.93,1.99-1.12-1.26-1.95h0Zm1.53-5.35l-1.53,1.64,1.63,1.95,1.5-1.8-1.6-1.79h0Zm2.5-4.57l-1.39,1.07,1.13,1.51,1.26-1.13-1-1.45h0Zm-26.85,9.26l.59-2.63,2.36.69-.64,2.74-2.31-.81h0Zm3.64-2.11l.59-2.5,2.31.8-.59,2.5-2.31-.81h0Zm4.64-5.33l1.79.55-.55,2.74-1.78-.61.55-2.68h0Zm2.56-3.11l2.53-.31.1,2.89-2.47.16-.15-2.73h0Zm3.1-4.9l2.71,1.59-.66,2.84-2.51-1.32.46-3.11h0Zm5.22-.13l-1.39,2.05,1.72,1.98,1.46-1.92-1.79-2.12h0Zm4.9-.2l-1.99,2.18,1.19,2.05,1.92-1.72-1.12-2.51h0Zm5.75.66l-2.12,3.18,2.65-.4,1.85-2.78h-2.38Z" style="fill: #231815; fill-rule: evenodd; stroke-width: 0px;"/>
            <path d="m67.18,44.89c-.85.02-1.57-.42-1.61-.95-.04-.52.68-1.15,1.95-1.23,1.27-.08,4.52,0,7.67.31,3.15.32,7.67,1.78,11.66,3.43,4,1.66,8.06,2.98,10.74,3.45,2.68.47,5.37-.09,6.33-.28.97-.19,1.76-.39,1.76.18s-.42,1.61-2.01,1.86c-1.59.25-4.8.59-6.92,0-2.12-.6-8.7-3.2-10.42-3.86-1.72-.66-7.13-2.51-10.75-2.86-2.94-.28-5.54-.13-8.41-.06h0Zm5.42-2.83c1.37,0,5.62.53,8.99,1.54,3.37,1.01,8.18,3.08,12.39,4.5,4.21,1.42,7.64,1.22,9.36.9,1.71-.33,2.14-1.07,2.12-1.81-.02-.73-.41-1.12-1.1-.87-.7.26-1.97.66-5.02.64-3.04-.02-8.22-1.87-12.02-3.5-3.8-1.63-8.39-3.1-10.32-3.24-1.92-.14-8.12-.17-9.92-.03-1.8.14-1.84.85-1.84,1.23s.58,1.07,1.63.91c1.05-.16,5.33-.25,5.33-.25h.41Z" style="fill: #e60012; fill-rule: evenodd; stroke-width: 0px;"/>
            <path d="m59.15,26.07l6.12,13.31s8.08-1.01,14.97.39c6.89,1.4,10.98,5.62,17.42,5.94,0,0,4.83.34,7.62-1.26l8.76-18.38h-54.9Z" style="fill: #ffe100; fill-rule: evenodd; stroke-width: 0px;"/>
            <path d="m60.95,29.97c.74.11,2.06.51,2.25,2,0,0,2.79.03,2.61,1.86-.18,1.83-1.8,1.89-1.8,1.89,0,0,.63,1.26,2.82,1.32,2.19.06,2.49-1.32,2.46-1.41-.03-.09-2.1-.6-2.01-1.86.09-1.26,1.11-2.04,2.04-2.31,0,0-.75-3.69,1.74-3.84,2.49-.15,2.16,3.78,2.16,3.78,0,0,2.37.21,2.19,1.86-.18,1.65-1.68,2.1-2.25,2.07-.57-.03,2.64,3.45,6.09,1.14,0,0-1.86-1.02-1.74-2.46.12-1.44,2.22-1.62,2.22-1.62,0,0-.01-3.46,2.54-3.12,2.56.34,1.76,3.48,1.54,3.76-.21.28,1.76.46,1.23,2.62-.22,1.17-1.79,1.54-1.97,1.51-.18-.03,3.24,4.16,5.33,1.39,0,0-1.94-1.36-1.32-2.68.62-1.33,2.19-1.45,2.19-1.45,0,0-.34-3.3,2.59-2.87,2.93.43,1.54,4.44,1.54,4.44,0,0,1.29.86.99,2.4-.31,1.54-1.88,1.73-1.88,1.73,0,0,.65,1.45,2.4,1.94,1.76.49,2.93-.89,2.93-.89,0,0-2.74-1.05-2.19-2.62.55-1.57,1.85-1.6,2.43-1.6,0,0-.28-3.64,2.19-3.36,2.46.28,1.32,3.82,1.32,3.82,0,0,1.7,1.2,1.08,2.8-.62,1.6-1.91,1.73-1.91,1.73,0,0,.52,1.02,2.56.92,2.03-.09,2.28-1.57,2.41-1.79,0,0-.74-3.39,2.34-3.05,0,0,.1-2.32,1.72-3.02l-3.18,6.67-.4-.31s-1.15,3.17-4.26,2.48c-3.11-.69-2.51-2.65-2.08-3.82.43-1.17,1.46-2.39-.07-2.72-1.52-.32-1.03,1.94-1.05,2.52-.02.58-.2,3.39-2.68,3.02-2.49-.37-5.02-2.11-5.5-3.58-.47-1.47.62-2.27,1.07-2.65.45-.39-.09-1.77-1.09-1.4-1.01.37-.88,2.57-1.01,3.11-.13.54-1.94,2.7-4.22,1.92-2.28-.79-3.8-2.8-3.71-4.1.09-1.3.9-3.17-.34-3.31-1.24-.14-.44,2.96-.83,3.63-.39.67-1.34,1.78-4.59,1.53-3.25-.25-4.18-2.4-3.93-3.98.25-1.58.35-2.96-.63-2.7-.99.25-.86,1.86-.36,2.68.51.82-1.04,3.27-3.67,3.65-1.43.2-2.44-.29-3.17-.87l-3.13-6.79h0Zm11.83,8.44c-.58-.33-1.04-.66-1.31-.87-.28.35-.63.66-1.01.92.14,0,.29-.01.43-.02.66-.03,1.29-.04,1.89-.03h0Zm-7.93.06l.42.9s8.08-1.01,14.97.39c6.89,1.4,10.98,5.62,17.42,5.94,0,0,4.83.34,7.62-1.26l.27-.57c-.66.25-2.19.76-3.98,1.08v-.03c-1.17-.03-2.54-1.98-2.54-1.98l-.2-.29-.29.2s-2.98,2.01-5.15.97c-2.24-1.06-2.98-2.81-2.98-2.81l-.13-.3-.31.11s-2.26.81-4.23.38c-.55-.23-1.06-.45-1.56-.65-1.65-1.01-2.94-2.76-2.94-2.76l-.26-.33-.28.31c-.4.45-1.09.82-1.97,1.02-.15.03-.3.06-.45.09-1.18-.18-2.42-.32-3.77-.4-1.64-.62-2.88-1.68-2.88-1.69l-.3-.26-.22.33c-.3.46-.73.86-1.24,1.15h0c-.51.29-1.09.48-1.69.53-.88.07-2.45,0-3.32-.06h0Zm17.2,1.27c-.5-.49-.89-.94-1.12-1.22-.28.24-.63.45-1.04.62.68.14,1.39.34,2.16.6h0Zm9.88,4.04c-1.15-.82-1.77-1.75-2.02-2.21-.43.13-1.3.35-2.3.43.66.28,1.36.57,2.1.88.83.34,1.56.64,2.23.9h0Zm8.31,1.36c-.7-.47-1.3-1.16-1.6-1.54-.61.36-2.1,1.14-3.67,1.21,1.44.37,2.69.47,4.37.4.3-.01.6-.04.89-.07Z" style="fill: #231815; fill-rule: evenodd; stroke-width: 0px;"/>
            <path d="m61.67,81.07l.22.03s1.15-.64,1.12-2.41c-.03-1.76-.85-2.68-2.51-2.68s-2.58,1.02-2.71,2.92c-.13,1.9.64,3.93,2.85,4.37,2.2.44,6-1.87,7.93-4.17,1.93-2.31,2.14-3.05,2.21-3.49.07-.44.17-.58.44-.58s.44.31.27.92c-.17.61-1.25,2.48-2.88,4.14-1.63,1.66-4.21,3.59-6.99,3.83,0,0,1.53.92,2.51.92,0,0,1.93-.17,4.1-2.17,2.17-2,4.27-5.7,4.71-6.88.44-1.19.98-.41.71.34-.27.75-3.09,6.61-7.59,8.75,0,0,2.44.51,4.41-1.39,1.96-1.9,3.75-5.02,4.67-7.67,0,0,.21-.93.52-1,.31-.07.52.31.21,1.17-.31.86-1.55,5.14-5.58,8.42,0,0,1.84.14,2.37-.33.53-.46,2.69-3.63,3.61-5.76.92-2.13,1.5-3.58,1.69-4.08.19-.5.65-.37.71-.14.06.24-.09.85-.46,1.68-.37.83-2.39,5.8-4.21,7.76,0,0,1.76-.41,2.94-2.53,1.18-2.12,2.96-6.5,3.12-6.93.16-.43.28-.4.55-.4s.22.31.01.81c-.21.49-1.96,5.21-3.11,6.76l4.39-4.51s-.96-1.81-.53-3.82c.42-2.02,2.08-2.6,3.25-2.6s2.44,1.27,2.44,1.27c0,0-.6-4.62-1.72-8.9-1.1-4.18-2.89-10.47-3.43-15.8-.82-.26-1.63-.5-2.46-.68-4.95-1.12-9.29-1.09-10.94-1.05-.73.01-1.25.17-1.6.34-.32.45-.56,1.04-.54,1.79.06,2.18,1.09,3.51,1.06,4.76-.03,1.24.14,1.68-1.52,6.19-1.66,4.51-1.58,4.69-1.58,5.04s.44.74,1.47,1.37c1.03.63,1.63,1.55,1.52,3.66,0,0,1.77.52,2.75,1.02.97.5,1.63.89,2,.89s.47-.61.47-.61l.29,3.14s-.62-1.51-1.95-1.87c-1.33-.35-2.59-.17-2.99-.12-.4.05-.45,1.04-.42,1.63.03.59.32,1.83-.31,3.16-.62,1.33-1.59,2.52-3.64,3.06l-.31,2.2s2.94-.47,5.36-5.29c0,0,.16-.47.52-.47s.2.67.05,1.03c-.16.36-1.23,2.31-3.16,4.08-1.93,1.77-4.15,1.68-5.25,1.52s-2.11-1.25-2.11-2.51.83-2.13,1.86-2.26c1.03-.14,1.66.42,1.75,1.28.09.85.09,1.3-.23,1.88-.31.58-.52.96-.31.96h0Zm7.34-31.33l-.15-.22s-.59-1.3,1.26-1.45c1.85-.15,8.37.15,10.15,5.21,0,0,0,.22-1.52-1-1.52-1.23-4.15-2.72-8.37-2.46,0,0-1.3.49-1.37-.07h0Zm1.92,1.94s1.96-.89,4.93.63c2.96,1.53,4.15,2.9,3.11,2.53-1.04-.37-3.56-2.23-5.71-2.42-2.15-.19-2.33.33-2.33-.11v-.63h0Zm2,3.06s.27-.24.47.58c.2.81-.17.98-.64,1.36-.47.37-.31-.27-.21-.92.1-.64.38-1.02.38-1.02h0Zm-3.49-2.27s.92.78,2.34.88c1.42.1,4.14.54,6.61,3.15,0,0-.37.24-2.27.24,0,0-2.98,1.56-4.64,1.39,0,0,1.02,1.19,1.59,1.76.58.58-.21.75-1.36-.2-1.15-.95-.92-1.19-1.15-1.25-.24-.07-1.05.17-.95-.14.1-.31.64-1.87.95-1.7.31.17.64.75.71.51.07-.24.17-.71.1-1.12-.07-.41-.2-1.15-.2-1.15,0,0-.98.81-1.19,1.05-.2.24-.24-1.19-.37-1.59-.14-.41-.17-1.83-.17-1.83h0Zm5.39,2.95s.44.27.44.61-.92.27-.92.27c-.03-.54.47-.88.47-.88h0Zm.07,10.09s-.35-1.06.39-1.01c.74.05,1.7,1.16,1.73,2.91.02,1.75-1.11,2.74-3.03,2.37-1.93-.37-2.52-1.73-3.43-1.73s-1.65.15-1.63-.35c.03-.49.03-1.18.05-1.46.03-.27,1.09-.52,1.9.15.81.66,2.49,1.8,3.13,2,.64.2.86.54,1.53-.05.67-.59,1.16-1.48.79-1.92-.37-.44-1.43-.91-1.43-.91h0Zm-4.94-3.73s-.23-.47.14-.35c.38.12.45.28.45.28,1.16,1.25,1.27,2.54,0,3.77-1.27,1.22-2.96-.94-3.98-1.08-1.01-.14-.8-.05-.68-1.2.12-1.15,2.68.52,3.15.87.47.35,1.62.42,1.6-.45-.02-.87-.68-1.84-.68-1.84h0Zm16.39,12.74c.26-.18.27-.24.13-.55-.22-.48-.75-1.46-1.5-1.54-1-.1-2.13.77-2.09,2.64.03,1.87,1.77,2.03,2.67,1.97.9-.07,2.25-1.35,2.29-4,.03-2.64-.54-4.73-1.79-10.02-1.19-5.02-3.09-11.43-3.48-15.86.46.16.92.33,1.39.5.29,1.46.97,4.87,1.75,8.63.64,3.15,1.43,5.99,2.05,8.24.35,1.27.65,2.35.84,3.2.26,1.15.76,3.46.5,5.68-.21,1.77-.47,3.66-2.46,4.59-.62.29-1.3.29-2.08.13-.88-.18-1.69-.85-2.2-1.86-1.35-2.68.25-5,1.66-5.02,1.4-.03,3.11.82,3.11,2.12s-.66,2.98-2.01,3.06c-1.35.08-1.84-1.33-1.56-2.32.28-1,.84-.97,1.22-.97s.82.51.89.89c.08.38.33.64.66.49h0Zm-.5-26.1c.62,2.48,2,8.05,3.17,13.01.77,3.28,1.33,5.66,1.69,7.47.36,1.77.52,2.96.52,3.87s-.05,1.75-.39,2.71c-.31.85-.86,1.79-1.81,2.96h-1.62s-.04,0-.12,0c1.73-1.19,2.45-3.03,2.67-4.92.28-2.35-.24-4.76-.51-5.96-.2-.85-.5-1.95-.85-3.24-.62-2.25-1.4-5.07-2.04-8.19-.67-3.28-1.3-6.42-1.64-8.1.32.12.63.25.95.38h0Zm2.3.95l3.56,14.62h0s1.32,5.96,1.6,7.41c.15.8.12,2.23-.47,3.83-.39,1.05-1.02,2.16-2,3.2h-.76c.77-1.01,1.25-1.88,1.54-2.67.39-1.08.45-2.01.45-2.99s-.17-2.21-.54-4.03c-.36-1.79-.92-4.19-1.69-7.5-1.08-4.59-2.35-9.72-3.02-12.42.44.18.89.37,1.33.56h0Zm2.25.91c-.43-.17-.87-.34-1.29-.52l3.42,14.03h0s1.33,6,1.61,7.45c.17.9.15,2.51-.5,4.28-.35.95-.89,1.95-1.68,2.92h.8c1.6-1.19,2.26-2.88,2.5-4.42.25-1.62.04-3.08-.06-3.67-.2-1.21-2.21-9.56-2.21-9.59h0s-2.59-10.48-2.59-10.48h0Zm2.13.79c-.39-.14-.78-.28-1.17-.43l2.45,9.91h0s2.02,8.43,2.23,9.65c.1.62.33,2.19.06,3.93-.22,1.46-.79,3.03-2.05,4.3h.8c1.08-.98,1.72-2.14,2.07-3.3.53-1.74.41-3.48.15-4.64-.25-1.14-.44-1.98-.66-3.03-.54-2.48-1.21-5.58-1.66-7.55-.52-2.29-1.65-6.67-2.21-8.85h0Zm2.18.7l3.36,13.42h0s1.08,4.54,1.3,6.26c.1.84.2,2.04-.11,3.3-.3,1.25-1,2.57-2.48,3.69h-.75c.84-.95,1.38-2.01,1.7-3.06.57-1.9.45-3.79.16-5.07-.06-.28-.35-1.59-.66-3.02-.52-2.38-1.17-5.38-1.67-7.56-.48-2.14-1.48-6.04-2.08-8.34.4.13.8.25,1.21.37,0,0,.02,0,.02,0h0Zm2.2.58c.74,2.79,2.3,8.79,2.81,11.46.32,1.66.64,3.06.91,4.23.3,1.33.54,2.37.63,3.15.08.72.19,1.9-.05,3.23-.24,1.28-.82,2.71-2.09,4.03h-1.08c1.14-1.11,1.73-2.33,2.01-3.5.34-1.4.24-2.7.13-3.6-.22-1.76-1.31-6.34-1.31-6.35h0s-3.25-12.96-3.25-12.96c.43.12.86.22,1.27.32h0Zm2.08.4c-.38-.06-.76-.13-1.16-.21.77,2.94,2.22,8.53,2.72,11.11.32,1.65.64,3.04.91,4.2.31,1.36.55,2.42.65,3.24.09.77.21,2.03-.06,3.48-.23,1.24-.74,2.59-1.79,3.88h.66c1.08-.89,1.71-1.82,2.08-2.75.37-.94.46-1.9.46-2.83,0-1.91-1.48-8.33-1.48-8.35h0s-2.98-11.76-2.98-11.76h0Zm2.09.19c-.38,0-.78-.03-1.19-.08l2.9,11.45h0s1.5,6.55,1.5,8.54c0,1.02-.11,2.07-.52,3.13-.32.83-.83,1.66-1.62,2.46h.83c3.35-3.24,2.68-6.07,1.33-11.87-.15-.64-.31-1.33-.51-2.19-1.12-4.97-2.15-9.15-2.73-11.46h0Zm2.06-.19l3.02,12.62h0s1.2,5.01,1.25,6.58c.03.78.07,1.75-.24,2.87-.29,1.06-.89,2.28-2.11,3.63h-.92c3.02-3.31,2.33-6.3.98-12.06-.17-.73-.35-1.5-.51-2.18-1.1-4.88-2.1-8.96-2.69-11.29.43-.03.83-.08,1.2-.17h0Zm1.78-.84l.17.13s4.12,16.06,4.44,19.01c.33,2.95-.2,5.97-2.42,7.41h-.94c1.01-1.25,1.55-2.4,1.82-3.42.34-1.25.3-2.29.27-3.12-.06-1.65-1.27-6.73-1.27-6.74h0s-3.03-12.69-3.03-12.69c.37-.15.69-.34.98-.58h0Zm-44.26,25.65l.27.04s.72.11.72.83-.29,2.22-1.01,2.29c-.72.07-1.21-.65-1.23-1.34-.02-.7.47-1.75,1.25-1.82Z" style="fill: #fff; fill-rule: evenodd; stroke-width: 0px;"/>
            <path d="m117.89,39.21c-.13-.62-.21-1.28-.23-1.98-1.66,1.67-6.29,7.04-5.93,14.87.36,7.88,3.95,12.72,5.21,14.18.14-.51.39-1.29.76-2.2-9.66-12.58-.96-23.52.19-24.87h0Zm6.78,8.76c-.4-.22-1.01-.59-1.7-1.12-.56.9-2.71,5,.77,10.1.3-.15.6-.28.92-.4v-8.58Z" style="fill: #fff; stroke-width: 0px;"/>
            <path d="m122.41,46.41c-.51-.42-1.04-.92-1.57-1.5-.17.37-.44,1.03-.71,1.91v.02s0,0,0,0c-.73,2.35-1.44,6.24-.13,10.36l.13.05-.08.1c.2.6.44,1.21.73,1.81.68-.71,1.46-1.36,2.35-1.89-3.73-5.52-1.27-9.98-.71-10.87h0Zm-2.07-2.08c-.1.2-.36.77-.66,1.62l-1.3-2.54,1.19-.15c.25.38.5.73.77,1.06h0Zm-1.17-1.71c-.15-.26-.29-.54-.43-.82-.14.24-.32.55-.52.94l.95-.12h0Zm-.76-1.6c-.12-.31-.23-.63-.32-.96-1.83,2.32-8.42,12.09-.08,23.29.13-.27.26-.55.42-.84-1.54-2.04-2.45-4.13-2.94-6.17l-.05-.02.04-.03c-.39-1.64-.5-3.25-.42-4.77h-.01s.01-.01.01-.01c.07-1.41.3-2.75.6-3.96l-.07-.07.09-.03c.47-1.83,1.12-3.38,1.67-4.51l-.04-.08h.08c.47-.95.86-1.59,1.02-1.84h0Zm.39,20.82c-.28-.38-.53-.77-.76-1.15l1.04.7c-.09.15-.19.3-.27.45h0Zm.66-1.04l-1.44-.97,1.5-1.83c.21.58.46,1.16.75,1.74-.29.35-.56.7-.81,1.06h0Zm-1.71-17.08l1.38,2.71-2.67.79c.38-1.36.85-2.55,1.29-3.5h0Zm-1.51,4.38l1.94,1.85-2.41,1.2c.08-1.07.24-2.09.47-3.05h0Zm-.51,3.93l2.39,1.79-2.06,1.91c-.27-1.27-.36-2.51-.34-3.71h0Zm.55,4.59l2.67.96-1.57,1.91c-.48-.96-.84-1.92-1.1-2.87h0Zm3.04-9.53c-.2.72-.4,1.55-.54,2.47l-1.85-1.76,2.39-.71h0Zm-.66,3.39c-.09.88-.13,1.83-.08,2.82l-2.22-1.66,2.31-1.15h0Zm0,3.79c.09.86.25,1.75.51,2.65l-2.42-.87,1.91-1.78Z" style="fill: #ffe100; stroke-width: 0px;"/>
            <g>
              <path d="m34.52,96.01l11.99-7.92s-.93-2.04-.97-3.15c-.04-1.11.08-3.57.23-4.3.15-.73.15-1.19-1.47-.96-1.63.23-2.44,2.76-2.44,2.76,0,0-3.76-9.37-6.43-5.64,0,0-1.32-1.54-2.44-.77,0,0-.7.5-.54,1.92,0,0-1.7-.04-1.74,1.8-.04,1.84.27,2.5.27,2.5,0,0-1.34.92-.76,3.47.59,2.55,4.3,10.28,4.3,10.28Z" style="fill: #004ea2; fill-rule: evenodd; stroke-width: 0px;"/>
              <path d="m36.9,91.54l-.15-.74s1.5-1.19,2.14-2.24c.64-1.04,1.62-2.54,1.84-3.13.23-.6.49.63.49.63,0,0,.9-1.38.23-3.06-.68-1.68-3.35-5.4-3.8-5.74-.45-.33-1.24-.41-1.21.9.04,1.3.75,2.35,1.92,3.35,0,0-.53.63-.38.97s1.13,1.68,1.05,1.97c-.08.3-1.02,1.08-1.05.41-.04-.67-1.84-5.78-3.01-7.16-1.17-1.38-1.88-.71-1.88-.04s-.04,1.94,1.31,2.31c0,0-.6,2.53,1.17,2.72,0,0-.11,1.64.08,1.86.19.23,1.32,1.68,1.09,1.86-.23.19-.9,1.08-.9.71s-.26-.41-.26-.78,0-1.19-.26-1.19-.98-.04-.94-.37c.04-.34.15-2.2-.15-2.5-.3-.3-1.32-2.72-2.22-2.5-.9.22-.57,1.94.08,3.47.64,1.53,2.6,5.22,2.6,5.22,0,0-.34,1.27-.64.71-.3-.56-.34-1.01-.34-1.01l-.71-.11-.04-1.27-.75-.19s-.11-1.49-.26-1.98c-.15-.48-1.36-1.6-1.24-.41.11,1.15,2.62,7.95,4.82,10.62l3.52-2.39c-.08-.76-.23-2.24-.18-2.46.08-.3-1.24,1.23-1.96,1.53h0Zm-.56-1.71l-.38.37s-.11-1.16.9-2.2c1.01-1.04,2.07-2.27,2.37-2.09.3.19.64.41-.08,1.16-.71.75-2.63,2.65-2.82,2.76h0Zm6.69-7.97c.23.04,1.05,2.42,1.81,2.64l.4,3.77-5.14,3.49c.02-.63.08-2.72.31-3.16.26-.52,1.16-.82,1.43-1.86.26-1.04.98-4.92,1.2-4.88h0Zm.87-.93c.08,1.3.75,1.64.75,1.64,0,0,.26-.93.19-1.53-.08-.6-.75-.56-.75-.56l-.19.45Z" style="fill: #fff; fill-rule: evenodd; stroke-width: 0px;"/>
            </g>
            <path d="m75.36,83.72c2.03-1.13,4.55-3.02,7.16-6.13,0,0,1.12,1.52,3.35,1.39,0,0-2.04,5.68-8.92,10.15l-1.59-5.42Z" style="fill: #e60012; fill-rule: evenodd; stroke-width: 0px;"/>
            <path d="m73.27,84.73c.48-.19,1.02-.43,1.6-.74l1.56,5.48c-.46.29-.94.56-1.44.84l-1.72-5.58h0Zm-2.41.71c.25.77.92,2.97,1.59,6.09.62-.27,1.47-.66,2.02-.95l-1.7-5.66c-.7.25-1.51.44-1.91.52Z" style="fill: #ffe100; fill-rule: evenodd; stroke-width: 0px;"/>
            <path d="m109.98,162.41c-12.67-19.93-12.3-37.22-11.86-45.16.45-8.11,2.87-16.47,6.11-23.22,3.24-6.76,10.39-14.77,10.39-14.77h-28.33c-1.49,4.38-4.81,7.32-7.88,9.61-2.49,1.85-5.05,2.94-5.85,3.25.18.89.37,1.85.53,2.87,1.05-.49,4.28-2.08,6.87-4.2,3.21-2.63,6.24-6.39,7.69-9.8h23.49s-7.79,6.94-12.43,23.7c-4.36,16.17-3.4,36.97,9.62,58.85l1.65-1.12Z" style="fill: #fff; fill-rule: evenodd; stroke-width: 0px;"/>
            <path d="m73.91,102.16c1.19-.47,10.9-4.48,17.15-13.46h7.6c-2.41,4.74-5.46,11.58-7.99,19.85h-16.41c-.1-1.78-.21-3.62-.3-5.54-.01-.29-.03-.57-.05-.86Z" style="fill: #e60012; fill-rule: evenodd; stroke-width: 0px;"/>
            <path d="m87.86,138.14c.01.15.03.31.05.46,1.25,12.26,2.26,18.26,4.75,24.46l2.17-.14s-1.2-3.47-2.36-8.74c-1.16-5.27-2.15-13-2.64-21.66,0,0-.04-10.4.75-14.97h-1.53c-.81,2.07-1.19,5.54-1.36,7.76-.29,4.19-.09,8.34.17,12.83h0Z" style="fill: #ffe100; fill-rule: evenodd; stroke-width: 0px;"/>
            <path d="m91.16,117.55c-.19,2.06-1.13,12.97-.32,21.14.9,9.05,2.25,17.82,4.57,24.13h3.12s-2.86-4.32-5.18-15.54c-2-9.65-1.76-25.47-1.65-29.73h-.54Z" style="fill: #fff; fill-rule: evenodd; stroke-width: 0px;"/>
            <path d="m110.23,125.94l-4.72-6.3s-.32,6.78,1.17,12.23l3.55-5.93h0Zm3.13-.17l-7.3,13.92c-6.05-14.72-1.85-27.27-1.85-27.27l9.16,13.34Z" style="fill: #fff; fill-rule: evenodd; stroke-width: 0px;"/>
            <path d="m116.37,124.54c.3-.41.6-.82.9-1.21l-13.03-20.39c-.29.82-.58,1.67-.85,2.53l12.97,19.07Z" style="fill: #ffe100; fill-rule: evenodd; stroke-width: 0px;"/>
            <path d="m117.27,123.32c1.71-2.21,3.54-4.17,5.37-5.87l-14.81-22.89c-1.27,2.49-2.5,5.27-3.59,8.36l13.03,20.39Z" style="fill: #231815; fill-rule: evenodd; stroke-width: 0px;"/>
            <path d="m124.47,115.82c1.57-1.34,3.08-2.48,4.43-3.43l-16.84-24.98c-.98,1.44-2,3.07-3.02,4.88l15.43,23.52Z" style="fill: #e60012; fill-rule: evenodd; stroke-width: 0px;"/>
            <path d="m122.63,117.46c.4-.37.8-.73,1.19-1.08l-15.24-23.24c-.25.47-.51.95-.76,1.44l14.81,22.89Z" style="fill: #ffe100; fill-rule: evenodd; stroke-width: 0px;"/>
            <path d="m129.59,111.92c.64-.44,1.24-.82,1.79-1.16l-17.51-25.86c-.42.55-.85,1.15-1.3,1.78l17.02,25.25Z" style="fill: #fff; fill-rule: evenodd; stroke-width: 0px;"/>
            <path d="m131.38,110.76s0,0,0,0c.75-.47,1.39-.84,1.89-1.12v-14.18l-14.37-16.25s-2.1,1.84-4.89,5.5c-.05.06-.1.13-.15.19l17.51,25.86Z" style="fill: #231815; fill-rule: evenodd; stroke-width: 0px;"/>
            <polygon points="127.83 87.99 127.83 41.1 133.28 35.4 133.28 94.19 127.83 87.99" style="fill: #e60012; fill-rule: evenodd; stroke-width: 0px;"/>
            <polygon points="125.67 85.52 125.67 39.71 133.28 30.99 133.28 34.38 127.13 40.82 127.13 87.19 125.67 85.52" style="fill: #ffe100; fill-rule: evenodd; stroke-width: 0px;"/>
            <path d="m105.47,99.72c.41.03,1.2.16,1.65.69,0,0-.77.44-1.21,1.08-.44.64-.13,1.66.58,2.16,0,0,.48-1.29,1.38-1.52.9-.23,2.01,1.27,2.01,3.08s.14,4.18,1.03,5.84c.89,1.65,1.75,2.41,3.36,3.18,1.61.77,3.66,1.59,3.66,1.59,0,0-1.41.02-2.27,1.17,0,0-.3.47.12,1.07.42.6.94.69.94.69,0,0,.2-1.74,1.31-1.71,1.11.02,1.61,1.74,1.66,2.28,0,0,.47-.52.47-1.91s-1.09-2.63-2.54-3.45c-1.46-.82-3.27-1.31-4.28-2.16-1.01-.85-1.11-1.88-1.04-2.46.08-.58.69-.96,1.05-.96s.65.42.86.96c.21.54,1.11.83,1.36-.19.25-1.02-1.41-2.63-2.31-2.58-.9.06-1.63,1.13-1.61,1.9,0,0-.04-.93-.25-2.57-.21-1.65-.71-4.01-1.31-5-.59-.98-1.48-2.52-4.08-2.43-.18.41-.35.82-.52,1.25Z" style="fill: #ffe100; fill-rule: evenodd; stroke-width: 0px;"/>
            <path d="m117.66,79.38h-2.42s-4.48,4.9-7.57,9.78c-3.09,4.88-5.6,9.91-7.64,18.73-2.04,8.82-1.8,20.31-.12,28.14,1.61,7.53,4.81,17.56,10.54,26.06l2.16-1.47c-1.09-1.67-4.18-6.48-6.5-10.85-2.86-5.4-5.6-13.94-5.95-25.04-.36-11.1,1.98-21.02,6.47-29.74,2.3-4.48,6.62-11.37,11.03-15.6Z" style="fill: #ffe100; fill-rule: evenodd; stroke-width: 0px;"/>
            <path d="m107.72,152.06c.27-1.41,1.5-6.86,5.79-15.6,0,0,6.51-15.22,19.77-22.17v9.54c-3.69,2.29-7.87,6.42-11.16,11.46-3.57,5.46-5.67,11.16-6.21,12.72l-8.19,4.05Z" style="fill: #094; fill-rule: evenodd; stroke-width: 0px;"/>
            <path d="m111.26,146.06s.02-1.83.02-2.68.99-2.62,1.48-2.68c0,0,.93,2.73,2.95,4.39,0,0-1.52.02-2.32.09-.78.07-1.43.59-2.13.89h0Zm22.01-30.31v1.68l-.17.19.17.15v1.38l-2.35-1.21,2.35-2.2h0Zm0,4.28c-.96-.68-2.8-1.08-2.8-1.08l-.17,5.04,2.72-2.15c.1-.08.18-.16.26-.23v-1.58h0Zm-13.03,8.9h.28s.28,2.72.74,4.67l-4.13-.39s.66-3.69,3.11-4.28h0Zm4.34-4.85l.97,4.06s-3.28-.35-3.84-.41c-.56-.06-.5-1.36.56-2.33.69-.63,1.38-1.18,2.31-1.32h0Zm.28-2.43c.22,0,.4.22.4.48s-.18.48-.4.48-.41-.22-.41-.48.18-.48.41-.48h0Zm-11.99,17.16c.22,0,.41.22.41.49s-.18.48-.41.48-.41-.22-.41-.48.18-.49.41-.49h0Zm-.78,7.85l-.35.22s.9,1.75,1.34,2.55l1.09-.54.73-2.93s-1.25,0-2.81.7h0Zm15.07-19.48c.88-.85,1.61-1.7,1.56-2.35-.06-.65-1.73-1.47-2.41-1.42-.68.06-.85.51-.54,1.73.31,1.22.74,2.6.74,2.6l.65-.57h0Zm-9.43,12.73l.25-.29s-1.85-.16-2.76-.12c-.91.04-1.53.61-.98,2.07.55,1.47,2.06,2.43,2.06,2.43,0,0,.18-2.5,1.42-4.09h0Zm3.24-5.09l.33-.36-3.58-.25s-.2,2.8,1.3,3.91c0,0,.28-1.55,1.94-3.3h0Zm-11.17,11.1c.22,0,.41.22.41.48s-.18.48-.41.48-.41-.22-.41-.48.18-.48.41-.48h0Zm6.64-8.3l-.3-1.69s-.42.89-1.31,1.5l1.61.19h0Zm-.35-5.01c.23,0,.41.22.41.48s-.18.48-.41.48-.41-.22-.41-.48.18-.48.41-.48h0Zm-3.4,10.44c-.32,0-.58.26-.58.58s.26.58.58.58.58-.26.58-.58-.26-.58-.58-.58h0Zm12.18-13.78l-3.56-.82s-.51,2.38,1.22,4.27l2.33-3.46h0Zm-15.62,22.04c0-.88.16-3.12,1.74-3.89,0,0,.11.78,1.41,2.33l-.95.47-.56-.88s-.43.22-.72,1.52l-.92.45h0Zm20.49-32.12l-.57,4.67s-1.78-1.1-3.23-1.1c0,0-.05-.96,1.11-2.18,1.16-1.22,2.69-1.39,2.69-1.39h0Zm-9.72,7.93c.22,0,.41.22.41.48s-.18.48-.41.48-.41-.22-.41-.48.18-.48.41-.48h0Zm9.97-9.99c.23,0,.41.22.41.48s-.18.48-.41.48-.4-.22-.4-.48.18-.48.4-.48h0Zm-12.07,21.32l.3.42h-4.52c.33-3.38,2.52-4.74,2.52-4.74,0,0,.28,2.47,1.69,4.33h0Zm4.68-11.24h1.83l-.43-1.77-1.4,1.77Z" style="fill: #ffe100; fill-rule: evenodd; stroke-width: 0px;"/>
            <path d="m133.28,125.48c-3.85,2.8-11.52,9.6-15.77,21.75l-1.59.79c.54-1.56,2.65-7.25,6.21-12.72,3.29-5.04,7.47-9.18,11.16-11.46v1.64Z" style="fill: #ffe100; fill-rule: evenodd; stroke-width: 0px;"/>
            <path d="m118.37,146.8c.72-2.37,4.34-12.62,14.91-20.35v4.37c-2.31,1.54-7.4,5.69-9.68,13.4l-5.23,2.58Z" style="fill: #fff; fill-rule: evenodd; stroke-width: 0px;"/>
            <path d="m121.01,145.49l-.71-.35-.53.96,1.23-.61h0Zm12.27-17.1v.65l-.63.61-1.08-1.07.83-.93.87.74h0Zm-6.89,8.08l-1.05-.62-.74,1.15.98.65.81-1.18h0Zm1.19-1.78l-1-.71-.83,1.09.92.73.91-1.11h0Zm1.43-1.7l-.91,1.11-.92-.73.83-1.09,1,.71h0Zm2.9-3l-1-.89-.83.93.92.9.91-.94h0Zm-6.67,8.3l-1.05-.62-.74,1.15.98.65.81-1.18h0Zm-1.09,1.88l-1.05-.62-.74,1.15.98.65.81-1.18h0Zm-1.95,3.62l-1.09-.55-.66,1.2,1.02.58.73-1.24h0Zm8.11-12.42l-.99-.71-.83,1.09.92.73.91-1.11h0Zm-7.16,10.56l-1.09-.55-.66,1.2,1.02.58.73-1.24Z" style="fill: #004ea2; fill-rule: evenodd; stroke-width: 0px;"/>
            <path d="m105.8,147.23c.57-2.25,2.44-8.44,7.29-16.68,5.27-8.94,13.46-16.28,20.18-20.05v2.8c-1.4.87-3.14,2-4.99,3.33-4.47,3.2-10,9.49-12.29,13.34-2.23,3.75-6.72,12.71-8.89,20.25-.57-1.22-1.01-2.25-1.3-2.98Z" style="fill: #e60012; fill-rule: evenodd; stroke-width: 0px;"/>
            <path d="m124.4,143.82c.75-1.88,3.63-8.4,8.87-12.09v7.7l-8.87,4.39Z" style="fill: #e60012; fill-rule: evenodd; stroke-width: 0px;"/>
            <path d="m133.28,142.38h0v4.13l-20.16,13.76c-1.4-1.83-2.61-3.71-3.63-5.5-.02-.04-.04-.07-.06-.11l23.86-12.29Z" style="fill: #231815; fill-rule: evenodd; stroke-width: 0px;"/>
            <path d="m108.45,152.92l24.82-12.22v1.68l-23.86,12.29c-.34-.6-.66-1.18-.96-1.75Z" style="fill: #fff; fill-rule: evenodd; stroke-width: 0px;"/>
            <path d="m95.33,117.23l-.89,1.62-1.1-1.79,1.01-1.34.97,1.5h0Zm-.2,4.39l-1.38-2.03-1.14,2.32,1.71,2.44.81-2.72h0Zm.41,5.85l-1.3-2.4-1.67,3.17,1.99,2.15.98-2.93h0Zm.61,5.78l-1.28,2.92-2.04-2.66,1.28-3.12,2.04,2.86h0Zm1.21,5.91l-2.62-2.05-.96,3.12,2.62,2.34.96-3.41h0Zm1.69,6.56l-2.72-2.43-1.26,3.55,2.86,2.55,1.12-3.67h0Zm1.98,6.12l-3.52-1.82-.42,4.19,3.23,1.97.72-4.35h0Zm2.93,6.78l-3.94-1.83-.4,4.37,3.83,1.76.51-4.29h0Zm1.71,6.71l-.83-.39-.09,1.01.92-.62Z" style="fill: #fff; fill-rule: evenodd; stroke-width: 0px;"/>
            <g>
              <path d="m73.1,129.65l-6.88-.02,5.04,8.51h16.6c-.26-4.5-.45-8.64-.17-12.83.17-2.22.55-5.69,1.36-7.76l6.88.02-5.04-8.51h-16.6c.26,4.5.45,8.65.17,12.84-.17,2.22-.55,5.68-1.36,7.75Z" style="fill: #231815; fill-rule: evenodd; stroke-width: 0px;"/>
              <path d="m79.46,121.9h3.56v3.56h-3.56v-3.56h0Zm-4.38-.41l-.25,4.38h4.14v4.05h4.54v-4.05h3.72l.25-4.38h-3.97v-3.93h-4.54v3.93h-3.88Z" style="fill: #ffe100; fill-rule: evenodd; stroke-width: 0px;"/>
            </g>
          </g>
          <g>
            <path d="m36.47,190.5v-.26l.25-.08c6.29-1.87,7.98-10.02,7.98-10.04l.13-.63.46.46s5.4,5.3,5.84,15.12c.45,9.85-6.74,15.95-6.76,15.97l-.61.53.03-.8c.26-7.75-7.09-11.16-7.11-11.17l-.2-.09v-.22s-.02-8.78-.02-8.78Z" style="fill: #004ea2; stroke-width: 0px;"/>
            <path d="m63.1,159.27l8.31-.02s7.15-9.54,16.91-13.2c.15,1.93.37,3.77.64,5.47-.78.37-3.19,1.55-5.6,3.25-3.02,2.13-8.17,7.5-9.21,10.71h-14.54c.49-.77,1.81-2.93,3.5-6.21h0Zm-4.27,6.21c.5-.78,1.9-3.01,3.62-6.21l-5.34.02c-2.52,4.12-4.57,6.19-4.57,6.19h6.29Zm-1.29-6.91h5.2c.63-1.24,1.23-2.51,1.8-3.77h-4.95c-.69,1.4-1.38,2.65-2.04,3.77h0Zm2.39-4.49h4.92c.67-1.54,1.29-3.06,1.85-4.52h-4.82c-.63,1.63-1.28,3.14-1.94,4.52h0Zm2.21-5.24h4.83c.57-1.51,1.07-2.94,1.51-4.24h-4.93c-.44,1.49-.92,2.91-1.41,4.24h0Zm1.62-4.96c.45-1.58.86-3.24,1.22-4.98h5.29c-.3,1.04-.82,2.79-1.54,4.98h-4.96Zm1.37-5.7c.45-2.28.8-4.69,1.05-7.25l4.38,6.94s-.03.11-.08.31h-5.34Z" style="fill: #ffe100; fill-rule: evenodd; stroke-width: 0px;"/>
            <path d="m67.26,143.1l1.69-1.57-1.63-1.82-1.63,1.51,1.57,1.88h0Zm-1.95,4.96l1.82-1.13-1.09-1.93-1.99,1.12,1.25,1.95h0Zm-1.53,5.35l1.53-1.64-1.63-1.95-1.5,1.8,1.6,1.79h0Zm-2.5,4.58l1.39-1.07-1.13-1.51-1.26,1.13,1,1.45h0Zm26.85-9.26l-.59,2.63-2.35-.69.64-2.74,2.31.81h0Zm-3.64,2.11l-.6,2.5-2.31-.8.59-2.5,2.31.81h0Zm-4.65,5.33l-1.78-.55.55-2.74,1.78.61-.55,2.68h0Zm-2.56,3.11l-2.53.31-.1-2.89,2.47-.16.16,2.73h0Zm-3.1,4.9l-2.71-1.59.66-2.84,2.51,1.32-.46,3.11h0Zm-5.22.13l1.39-2.05-1.72-1.98-1.46,1.92,1.79,2.12h0Zm-4.9.2l1.99-2.18-1.19-2.05-1.92,1.72,1.12,2.51h0Zm-5.75-.66l2.12-3.18-2.65.4-1.85,2.78h2.38Z" style="fill: #231815; fill-rule: evenodd; stroke-width: 0px;"/>
            <path d="m94.98,202.31c.85-.02,1.57.42,1.61.95.04.52-.68,1.15-1.95,1.23-1.27.08-4.52,0-7.67-.31-3.15-.32-7.67-1.77-11.66-3.43-4-1.66-8.06-2.98-10.74-3.45-2.68-.47-5.37.1-6.33.28-.97.19-1.76.39-1.76-.18s.42-1.61,2.01-1.86c1.59-.25,4.8-.6,6.92,0,2.12.59,8.7,3.2,10.42,3.86,1.71.66,7.13,2.51,10.75,2.86,2.94.28,5.54.13,8.41.06h0Zm-5.42,2.83c-1.37,0-5.62-.53-8.99-1.54-3.37-1.01-8.18-3.08-12.39-4.5-4.21-1.42-7.64-1.22-9.36-.9-1.71.32-2.14,1.07-2.12,1.81.02.73.41,1.12,1.1.87.69-.25,1.97-.66,5.01-.64,3.04.03,8.22,1.87,12.03,3.5,3.8,1.63,8.39,3.1,10.32,3.24,1.92.14,8.12.17,9.92.03,1.8-.14,1.84-.85,1.84-1.23s-.58-1.07-1.63-.92c-1.05.16-5.33.25-5.33.25h-.41Z" style="fill: #e60012; fill-rule: evenodd; stroke-width: 0px;"/>
            <path d="m103.01,221.13l-6.12-13.31s-8.08,1.01-14.97-.39c-6.89-1.4-10.98-5.62-17.42-5.94,0,0-4.83-.34-7.62,1.26l-8.76,18.38h54.9Z" style="fill: #ffe100; fill-rule: evenodd; stroke-width: 0px;"/>
            <path d="m101.21,217.22c-.74-.11-2.06-.51-2.25-2,0,0-2.79-.03-2.61-1.86s1.8-1.89,1.8-1.89c0,0-.63-1.26-2.82-1.32-2.19-.06-2.49,1.32-2.46,1.41.03.09,2.1.6,2.01,1.86-.09,1.26-1.11,2.04-2.04,2.31,0,0,.75,3.69-1.74,3.84-2.49.15-2.16-3.78-2.16-3.78,0,0-2.37-.21-2.19-1.86.18-1.65,1.68-2.1,2.25-2.07.57.03-2.64-3.45-6.09-1.14,0,0,1.86,1.02,1.74,2.46-.12,1.44-2.22,1.62-2.22,1.62,0,0,.01,3.46-2.54,3.12-2.56-.34-1.76-3.48-1.54-3.76.22-.28-1.76-.46-1.23-2.62.22-1.17,1.79-1.54,1.97-1.51.19.03-3.24-4.16-5.33-1.39,0,0,1.94,1.36,1.33,2.68-.62,1.33-2.19,1.45-2.19,1.45,0,0,.34,3.3-2.59,2.87-2.93-.43-1.54-4.44-1.54-4.44,0,0-1.29-.86-.99-2.4.31-1.54,1.88-1.73,1.88-1.73,0,0-.65-1.45-2.4-1.94-1.76-.49-2.93.89-2.93.89,0,0,2.74,1.05,2.19,2.62-.56,1.57-1.85,1.6-2.44,1.6,0,0,.28,3.64-2.19,3.36-2.47-.28-1.33-3.82-1.33-3.82,0,0-1.69-1.2-1.08-2.81.62-1.6,1.91-1.73,1.91-1.73,0,0-.52-1.02-2.56-.92-2.03.09-2.28,1.57-2.4,1.79,0,0,.74,3.39-2.34,3.05,0,0-.1,2.31-1.72,3.02l3.18-6.67.4.31s1.15-3.17,4.26-2.48c3.11.69,2.51,2.65,2.08,3.82-.43,1.17-1.46,2.39.06,2.72,1.53.32,1.03-1.94,1.05-2.52.02-.58.19-3.39,2.69-3.02,2.49.37,5.02,2.11,5.49,3.58.47,1.47-.62,2.27-1.07,2.65-.45.39.08,1.77,1.09,1.4,1.01-.37.88-2.57,1.01-3.11.13-.54,1.94-2.7,4.22-1.92,2.28.79,3.8,2.8,3.71,4.1-.09,1.3-.9,3.17.35,3.31,1.24.14.44-2.96.83-3.63.39-.67,1.34-1.78,4.59-1.52,3.24.25,4.18,2.4,3.93,3.97-.25,1.58-.36,2.96.63,2.7s.86-1.86.36-2.68c-.51-.82,1.05-3.27,3.67-3.64,1.43-.2,2.44.29,3.18.87l3.13,6.79h0Zm-11.84-8.44c.58.33,1.04.66,1.31.87.28-.35.63-.66,1.01-.92-.14,0-.29.01-.43.02-.66.03-1.29.04-1.89.03h0Zm7.92-.06l-.41-.9s-8.08,1.01-14.97-.39c-6.89-1.4-10.98-5.62-17.42-5.94,0,0-4.83-.34-7.62,1.26l-.27.57c.66-.25,2.19-.76,3.98-1.08v.03c1.17.03,2.54,1.98,2.54,1.98l.2.29.29-.2s2.98-2,5.16-.97c2.23,1.06,2.97,2.81,2.97,2.81l.13.3.31-.11s2.26-.81,4.23-.38c.55.23,1.07.45,1.56.65,1.65,1.01,2.94,2.76,2.94,2.76l.25.33.28-.31c.4-.45,1.09-.82,1.97-1.02.15-.03.3-.06.45-.09,1.18.18,2.42.32,3.77.4,1.64.62,2.88,1.68,2.88,1.69l.3.26.22-.33c.3-.46.74-.86,1.24-1.15h0c.51-.29,1.09-.48,1.69-.53.88-.07,2.45,0,3.32.06h0Zm-17.2-1.27c.5.48.89.94,1.12,1.22.28-.24.63-.45,1.04-.62-.68-.14-1.39-.34-2.16-.6h0Zm-9.88-4.04c1.15.82,1.76,1.75,2.02,2.21.43-.13,1.3-.35,2.3-.43-.66-.28-1.35-.57-2.09-.88-.83-.34-1.56-.64-2.23-.9h0Zm-8.31-1.36c.7.47,1.3,1.16,1.59,1.54.61-.36,2.11-1.14,3.67-1.2-1.44-.37-2.69-.47-4.37-.4-.3.01-.6.04-.89.07Z" style="fill: #231815; fill-rule: evenodd; stroke-width: 0px;"/>
            <path d="m100.49,166.13l-.22-.03s-1.15.64-1.12,2.41c.04,1.76.85,2.68,2.51,2.68s2.58-1.02,2.71-2.92c.14-1.9-.64-3.93-2.85-4.37-2.21-.44-6,1.87-7.94,4.17-1.93,2.31-2.13,3.05-2.2,3.49-.07.44-.17.58-.44.58s-.44-.31-.27-.92c.17-.61,1.25-2.48,2.88-4.14,1.63-1.66,4.2-3.59,6.98-3.83,0,0-1.53-.92-2.51-.92,0,0-1.93.17-4.1,2.17-2.17,2-4.27,5.7-4.71,6.88-.44,1.19-.98.41-.71-.34.27-.75,3.09-6.61,7.6-8.75,0,0-2.44-.51-4.41,1.39-1.97,1.9-3.75,5.02-4.68,7.67,0,0-.21.93-.52,1-.31.07-.52-.31-.21-1.17.31-.86,1.55-5.14,5.58-8.42,0,0-1.84-.14-2.37.33-.53.46-2.69,3.63-3.61,5.76-.91,2.13-1.5,3.58-1.69,4.08-.19.5-.65.37-.71.14-.06-.24.09-.85.46-1.68.37-.83,2.39-5.8,4.21-7.76,0,0-1.76.41-2.94,2.53-1.18,2.12-2.96,6.5-3.13,6.93-.16.43-.28.4-.55.4s-.22-.31-.01-.81c.21-.49,1.96-5.21,3.11-6.76l-4.39,4.51s.96,1.81.54,3.82c-.42,2.02-2.08,2.6-3.25,2.6s-2.44-1.27-2.44-1.27c0,0,.6,4.62,1.72,8.9,1.1,4.18,2.89,10.47,3.43,15.8.82.26,1.63.5,2.46.68,4.95,1.12,9.29,1.08,10.95,1.05.73-.01,1.25-.17,1.6-.34.32-.45.56-1.04.54-1.79-.06-2.18-1.09-3.51-1.06-4.76.03-1.25-.14-1.68,1.52-6.19,1.66-4.52,1.58-4.7,1.58-5.04s-.44-.74-1.47-1.37c-1.03-.63-1.63-1.55-1.53-3.66,0,0-1.77-.52-2.75-1.02-.98-.5-1.63-.89-2-.89s-.47.6-.47.6l-.29-3.14s.62,1.51,1.95,1.87c1.33.35,2.59.17,2.99.12s.46-1.04.42-1.63c-.03-.59-.32-1.83.3-3.16.63-1.33,1.6-2.52,3.64-3.06l.31-2.2s-2.94.47-5.36,5.29c0,0-.16.47-.52.47s-.2-.67-.04-1.03c.16-.36,1.23-2.31,3.16-4.08,1.93-1.77,4.15-1.68,5.25-1.52,1.1.16,2.11,1.25,2.11,2.51s-.83,2.13-1.86,2.26c-1.03.13-1.66-.42-1.75-1.28-.09-.85-.09-1.3.22-1.88.32-.58.52-.96.32-.96h0Zm-7.34,31.33l.15.22s.59,1.3-1.26,1.45c-1.85.15-8.37-.15-10.15-5.21,0,0,0-.22,1.52,1,1.52,1.23,4.15,2.72,8.37,2.46,0,0,1.29-.49,1.37.07h0Zm-1.93-1.94s-1.96.89-4.93-.63c-2.96-1.53-4.15-2.9-3.11-2.53,1.04.37,3.55,2.23,5.7,2.42,2.15.19,2.33-.34,2.33.11v.63h0Zm-1.99-3.06s-.27.24-.47-.58c-.2-.81.17-.98.65-1.36.47-.37.3.27.2.91-.1.64-.37,1.02-.37,1.02h0Zm3.49,2.27s-.91-.78-2.34-.88c-1.42-.1-4.14-.54-6.61-3.15,0,0,.37-.24,2.27-.24,0,0,2.98-1.56,4.65-1.39,0,0-1.02-1.19-1.59-1.76-.58-.58.2-.75,1.36.2,1.15.95.92,1.19,1.15,1.25s1.05-.17.95.14c-.1.31-.65,1.87-.95,1.7-.31-.17-.64-.75-.71-.51-.07.24-.17.71-.1,1.12.07.41.2,1.15.2,1.15,0,0,.99-.81,1.19-1.05.2-.24.24,1.19.37,1.59.13.41.17,1.83.17,1.83h0Zm-5.39-2.95s-.44-.27-.44-.61.92-.27.92-.27c.03.54-.48.88-.48.88h0Zm-.07-10.09s.34,1.06-.4,1.01c-.74-.05-1.7-1.16-1.73-2.91-.03-1.75,1.11-2.74,3.03-2.37s2.52,1.73,3.43,1.73,1.65-.15,1.63.35c-.02.49-.02,1.18-.05,1.46-.03.27-1.08.52-1.9-.15-.81-.67-2.49-1.8-3.13-2-.64-.2-.86-.54-1.53.05-.66.59-1.16,1.48-.79,1.92.37.44,1.43.91,1.43.91h0Zm4.93,3.73s.24.47-.14.35c-.38-.12-.45-.28-.45-.28-1.15-1.25-1.27-2.54,0-3.77,1.27-1.22,2.97.94,3.98,1.08,1.01.14.8.05.68,1.2-.12,1.15-2.68-.52-3.15-.87-.47-.35-1.63-.42-1.6.45.02.87.68,1.83.68,1.83h0Zm-16.38-12.74c-.26.18-.27.24-.13.55.22.48.75,1.46,1.5,1.54,1,.1,2.13-.77,2.09-2.64-.03-1.87-1.77-2.03-2.67-1.97-.9.06-2.26,1.35-2.29,4-.03,2.64.54,4.73,1.79,10.02,1.19,5.02,3.09,11.43,3.48,15.86-.46-.16-.92-.33-1.38-.5-.29-1.46-.97-4.87-1.75-8.63-.65-3.15-1.43-5.99-2.05-8.24-.35-1.27-.65-2.35-.84-3.2-.26-1.15-.76-3.46-.5-5.68.21-1.77.47-3.66,2.46-4.59.62-.29,1.3-.29,2.08-.13.88.18,1.69.85,2.2,1.86,1.35,2.68-.25,5-1.66,5.02-1.4.03-3.11-.82-3.11-2.12s.66-2.98,2.02-3.06c1.35-.08,1.84,1.33,1.55,2.32-.28.99-.84.97-1.22.97s-.81-.51-.89-.89c-.07-.38-.33-.64-.66-.49h0Zm.5,26.1c-.62-2.48-2-8.06-3.17-13.01-.77-3.28-1.32-5.66-1.69-7.47-.36-1.77-.52-2.96-.52-3.87s.05-1.75.39-2.71c.31-.85.85-1.79,1.81-2.96h1.62s.04,0,.12,0c-1.72,1.19-2.45,3.03-2.67,4.92-.28,2.35.24,4.76.51,5.96.19.85.5,1.95.85,3.24.62,2.25,1.4,5.07,2.04,8.19.67,3.28,1.3,6.42,1.64,8.1-.32-.12-.63-.25-.95-.38h0Zm-2.3-.95l-3.56-14.62h0s-1.32-5.96-1.6-7.41c-.15-.8-.12-2.23.47-3.83.39-1.05,1.02-2.16,2-3.2h.76c-.77,1.01-1.25,1.88-1.53,2.67-.39,1.08-.45,2.01-.45,2.99s.17,2.21.54,4.03c.36,1.79.92,4.19,1.69,7.5,1.08,4.59,2.35,9.72,3.02,12.43-.44-.18-.89-.37-1.33-.56h0Zm-2.25-.91c.43.17.87.34,1.29.52l-3.42-14.03h0s-1.33-6-1.61-7.45c-.17-.9-.15-2.51.51-4.28.35-.95.89-1.95,1.68-2.92h-.8c-1.6,1.19-2.26,2.88-2.5,4.42-.25,1.62-.04,3.08.06,3.67.2,1.21,2.21,9.56,2.21,9.59h0s2.59,10.48,2.59,10.48h0Zm-2.12-.79c.39.14.78.28,1.17.43l-2.45-9.91h0s-2.02-8.43-2.23-9.65c-.1-.62-.33-2.19-.06-3.93.23-1.46.8-3.03,2.06-4.3h-.8c-1.08.98-1.72,2.14-2.07,3.3-.53,1.74-.41,3.48-.15,4.64.25,1.14.43,1.98.66,3.03.54,2.48,1.21,5.58,1.66,7.55.52,2.29,1.65,6.67,2.21,8.85h0Zm-2.18-.7l-3.36-13.42h0s-1.08-4.54-1.3-6.26c-.1-.84-.2-2.04.11-3.3.3-1.25,1-2.57,2.48-3.7h.75c-.84.95-1.38,2.01-1.7,3.06-.57,1.9-.45,3.79-.17,5.07.06.28.35,1.59.66,3.02.52,2.38,1.17,5.38,1.67,7.56.48,2.14,1.48,6.04,2.08,8.34-.4-.13-.8-.25-1.21-.37,0,0-.02,0-.03,0h0Zm-2.2-.58c-.74-2.79-2.3-8.79-2.82-11.46-.32-1.66-.64-3.06-.91-4.23-.31-1.33-.54-2.37-.63-3.15-.08-.72-.19-1.9.05-3.23.24-1.28.82-2.71,2.09-4.02h1.08c-1.14,1.11-1.73,2.33-2.02,3.5-.34,1.4-.24,2.7-.13,3.6.22,1.76,1.31,6.34,1.31,6.35h0s3.25,12.96,3.25,12.96c-.43-.12-.86-.22-1.27-.32h0Zm-2.08-.4c.38.06.76.13,1.16.21-.77-2.94-2.22-8.53-2.72-11.11-.32-1.65-.64-3.04-.91-4.2-.31-1.36-.55-2.42-.65-3.24-.09-.77-.21-2.03.06-3.48.23-1.24.74-2.59,1.79-3.88h-.66c-1.08.89-1.71,1.82-2.08,2.75-.36.94-.46,1.9-.46,2.83,0,1.91,1.48,8.34,1.48,8.35h0s2.98,11.76,2.98,11.76h0Zm-2.09-.19c.38,0,.78.03,1.19.08l-2.9-11.45h0s-1.51-6.55-1.51-8.55c0-1.02.11-2.07.52-3.13.33-.83.83-1.66,1.62-2.46h-.84c-3.34,3.24-2.68,6.07-1.33,11.87.15.64.31,1.33.51,2.19,1.12,4.97,2.15,9.15,2.73,11.46h0Zm-2.07.19l-3.02-12.62h0s-1.19-5.01-1.25-6.58c-.03-.78-.07-1.75.24-2.87.29-1.06.89-2.28,2.11-3.63h.92c-3.02,3.31-2.33,6.3-.98,12.06.17.73.35,1.5.51,2.18,1.1,4.88,2.1,8.96,2.68,11.29-.43.03-.83.08-1.2.17h0Zm-1.78.84l-.17-.13s-4.11-16.06-4.44-19.01c-.33-2.95.2-5.97,2.43-7.41h.94c-1.01,1.25-1.54,2.4-1.82,3.42-.34,1.25-.29,2.29-.27,3.12.06,1.65,1.27,6.73,1.28,6.74h0s3.03,12.69,3.03,12.69c-.36.15-.69.34-.97.58h0Zm44.25-25.65l-.27-.04s-.72-.11-.72-.83.29-2.22,1.01-2.29c.72-.07,1.21.65,1.23,1.34.02.69-.47,1.75-1.26,1.82Z" style="fill: #fff; fill-rule: evenodd; stroke-width: 0px;"/>
            <path d="m44.27,207.99c.13.62.21,1.28.23,1.98,1.66-1.67,6.29-7.04,5.93-14.87-.36-7.88-3.95-12.72-5.21-14.18-.14.51-.39,1.29-.76,2.2,9.65,12.58.96,23.52-.2,24.87h0Zm-6.78-8.76c.4.23,1.01.59,1.7,1.12.56-.9,2.71-5-.78-10.1-.3.15-.6.28-.92.4v8.58Z" style="fill: #fff; stroke-width: 0px;"/>
            <path d="m39.74,200.79c.51.42,1.04.92,1.57,1.5.17-.37.44-1.03.72-1.91v-.02s0,0,0,0c.73-2.35,1.44-6.24.13-10.36l-.13-.05.08-.1c-.2-.6-.44-1.21-.73-1.81-.68.71-1.45,1.36-2.35,1.89,3.73,5.52,1.27,9.98.71,10.87h0Zm2.06,2.08c.1-.2.37-.77.66-1.62l1.3,2.54-1.19.15c-.25-.38-.5-.73-.77-1.06h0Zm1.17,1.71c.15.26.29.54.42.82.14-.24.32-.55.52-.94l-.95.12h0Zm.76,1.6c.12.31.23.63.32.96,1.83-2.32,8.42-12.09.08-23.29-.13.27-.27.55-.42.84,1.54,2.04,2.46,4.14,2.94,6.17l.05.02-.04.03c.39,1.64.5,3.25.43,4.77h.01s-.01.01-.01.01c-.07,1.41-.29,2.75-.6,3.96l.07.07-.09.03c-.47,1.83-1.12,3.38-1.67,4.51l.04.08h-.08c-.47.95-.86,1.59-1.02,1.84h0Zm-.39-20.82c.28.38.53.77.76,1.15l-1.04-.7c.09-.15.19-.3.27-.45h0Zm-.66,1.04l1.44.97-1.5,1.83c-.21-.58-.46-1.16-.75-1.74.29-.35.56-.7.81-1.06h0Zm1.71,17.08l-1.39-2.71,2.67-.79c-.38,1.36-.85,2.55-1.29,3.5h0Zm1.51-4.38l-1.94-1.85,2.4-1.2c-.08,1.07-.24,2.09-.46,3.05h0Zm.51-3.93l-2.4-1.79,2.06-1.91c.27,1.27.36,2.51.34,3.71h0Zm-.55-4.59l-2.67-.96,1.57-1.91c.48.96.84,1.92,1.1,2.87h0Zm-3.04,9.53c.2-.72.4-1.55.54-2.47l1.85,1.76-2.39.71h0Zm.66-3.39c.09-.88.13-1.83.08-2.82l2.22,1.67-2.31,1.15h0Zm0-3.79c-.09-.86-.26-1.75-.51-2.65l2.42.87-1.91,1.78Z" style="fill: #ffe100; stroke-width: 0px;"/>
            <g>
              <path d="m127.63,151.18l-11.99,7.92s.93,2.04.97,3.15c.04,1.11-.08,3.57-.23,4.3-.15.73-.15,1.19,1.47.96,1.63-.23,2.44-2.76,2.44-2.76,0,0,3.76,9.37,6.43,5.64,0,0,1.32,1.54,2.44.77,0,0,.7-.5.54-1.92,0,0,1.7.04,1.74-1.8.04-1.84-.27-2.5-.27-2.5,0,0,1.35-.92.76-3.47-.59-2.55-4.3-10.28-4.3-10.28Z" style="fill: #004ea2; fill-rule: evenodd; stroke-width: 0px;"/>
              <path d="m125.26,155.66l.15.74s-1.51,1.19-2.15,2.24c-.64,1.04-1.62,2.53-1.84,3.13s-.49-.63-.49-.63c0,0-.9,1.38-.23,3.06.68,1.68,3.35,5.4,3.8,5.74.45.33,1.24.41,1.2-.9-.04-1.3-.75-2.35-1.92-3.35,0,0,.53-.63.38-.97-.15-.33-1.13-1.68-1.05-1.97.08-.3,1.02-1.08,1.05-.41.04.67,1.84,5.78,3.01,7.16,1.17,1.38,1.88.71,1.88.04s.04-1.94-1.32-2.31c0,0,.6-2.53-1.17-2.72,0,0,.11-1.64-.07-1.86-.19-.23-1.32-1.68-1.09-1.86.22-.19.9-1.08.9-.71s.26.41.26.78,0,1.19.27,1.19.98.04.94.37c-.04.34-.15,2.2.15,2.5.3.3,1.32,2.72,2.22,2.5.9-.22.56-1.94-.08-3.47-.64-1.53-2.6-5.22-2.6-5.22,0,0,.34-1.27.64-.71.3.56.34,1.01.34,1.01l.72.11.04,1.27.75.19s.11,1.49.26,1.97c.15.48,1.35,1.6,1.24.41-.11-1.15-2.62-7.96-4.82-10.62l-3.52,2.39c.08.76.23,2.24.18,2.46-.08.3,1.24-1.23,1.96-1.53h0Zm.56,1.71l.38-.37s.11,1.16-.9,2.2c-1.02,1.04-2.07,2.27-2.37,2.09-.3-.19-.64-.41.08-1.15.71-.75,2.63-2.65,2.82-2.76h0Zm-6.7,7.98c-.22-.04-1.05-2.42-1.8-2.65l-.4-3.77,5.14-3.49c-.01.63-.08,2.71-.3,3.16-.26.52-1.17.82-1.43,1.86-.26,1.04-.98,4.92-1.21,4.88h0Zm-.87.93c-.07-1.3-.75-1.64-.75-1.64,0,0-.27.93-.19,1.53.07.6.75.56.75.56l.19-.45Z" style="fill: #fff; fill-rule: evenodd; stroke-width: 0px;"/>
            </g>
            <path d="m86.8,163.47c-2.03,1.13-4.55,3.02-7.16,6.13,0,0-1.12-1.52-3.35-1.39,0,0,2.05-5.67,8.92-10.15l1.59,5.42Z" style="fill: #e60012; fill-rule: evenodd; stroke-width: 0px;"/>
            <path d="m88.89,162.47c-.48.19-1.01.43-1.6.74l-1.56-5.48c.46-.29.94-.56,1.44-.84l1.72,5.58h0Zm2.41-.71c-.25-.77-.92-2.97-1.59-6.09-.63.27-1.47.66-2.02.95l1.7,5.66c.7-.25,1.51-.44,1.91-.52Z" style="fill: #ffe100; fill-rule: evenodd; stroke-width: 0px;"/>
            <path d="m52.17,84.79c12.67,19.93,12.3,37.22,11.86,45.16-.45,8.11-2.87,16.47-6.11,23.22-3.24,6.75-10.39,14.77-10.39,14.77h28.33c1.49-4.38,4.8-7.32,7.88-9.61,2.49-1.85,5.05-2.94,5.85-3.25-.18-.89-.36-1.85-.53-2.87-1.05.49-4.28,2.08-6.87,4.2-3.21,2.63-6.24,6.39-7.69,9.8h-23.49s7.79-6.94,12.43-23.7c4.36-16.17,3.39-36.97-9.62-58.85l-1.65,1.12Z" style="fill: #fff; fill-rule: evenodd; stroke-width: 0px;"/>
            <path d="m88.24,145.04c-1.19.47-10.9,4.48-17.15,13.46h-7.6c2.41-4.75,5.46-11.58,7.99-19.85h16.41c.1,1.78.21,3.62.3,5.54.01.29.03.57.05.86Z" style="fill: #e60012; fill-rule: evenodd; stroke-width: 0px;"/>
            <path d="m74.29,109.05c-.02-.15-.03-.31-.04-.46-1.25-12.26-2.26-18.26-4.76-24.46l-2.17.14s1.2,3.47,2.36,8.74c1.16,5.27,2.15,13,2.64,21.66,0,0,.04,10.4-.75,14.97h1.53c.81-2.07,1.19-5.54,1.36-7.76.29-4.19.09-8.34-.17-12.83h0Z" style="fill: #ffe100; fill-rule: evenodd; stroke-width: 0px;"/>
            <path d="m71,129.65c.19-2.06,1.14-12.98.32-21.14-.9-9.05-2.25-17.82-4.57-24.13h-3.12s2.86,4.32,5.18,15.54c2,9.65,1.76,25.47,1.66,29.73h.53Z" style="fill: #fff; fill-rule: evenodd; stroke-width: 0px;"/>
            <path d="m51.93,121.26l4.72,6.3s.32-6.78-1.17-12.23l-3.55,5.93h0Zm-3.13.17l7.3-13.92c6.05,14.72,1.85,27.27,1.85,27.27l-9.16-13.34Z" style="fill: #fff; fill-rule: evenodd; stroke-width: 0px;"/>
            <path d="m45.79,122.66c-.29.41-.6.82-.9,1.21l13.03,20.4c.29-.82.57-1.67.84-2.54l-12.97-19.07Z" style="fill: #ffe100; fill-rule: evenodd; stroke-width: 0px;"/>
            <path d="m44.89,123.87c-1.7,2.21-3.54,4.17-5.36,5.87l14.81,22.89c1.27-2.49,2.49-5.27,3.59-8.36l-13.03-20.4Z" style="fill: #231815; fill-rule: evenodd; stroke-width: 0px;"/>
            <path d="m37.69,131.38c-1.57,1.34-3.08,2.48-4.43,3.43l16.85,24.98c.98-1.44,2-3.07,3.01-4.88l-15.43-23.52Z" style="fill: #e60012; fill-rule: evenodd; stroke-width: 0px;"/>
            <path d="m39.52,129.74c-.4.37-.8.73-1.2,1.08l15.25,23.24c.25-.47.51-.95.76-1.44l-14.81-22.89Z" style="fill: #ffe100; fill-rule: evenodd; stroke-width: 0px;"/>
            <path d="m32.56,135.28c-.64.44-1.24.82-1.78,1.16l17.51,25.86c.42-.55.86-1.15,1.3-1.78l-17.02-25.24Z" style="fill: #fff; fill-rule: evenodd; stroke-width: 0px;"/>
            <path d="m30.78,136.44s0,0,0,0c-.75.46-1.39.84-1.89,1.12v14.18l14.37,16.25s2.1-1.84,4.89-5.5c.05-.06.1-.13.14-.19l-17.51-25.86Z" style="fill: #231815; fill-rule: evenodd; stroke-width: 0px;"/>
            <polygon points="34.32 159.21 34.32 206.1 28.88 211.8 28.88 153.01 34.32 159.21" style="fill: #e60012; fill-rule: evenodd; stroke-width: 0px;"/>
            <polygon points="36.49 161.68 36.49 207.48 28.88 216.21 28.88 212.82 35.03 206.38 35.03 160.01 36.49 161.68" style="fill: #ffe100; fill-rule: evenodd; stroke-width: 0px;"/>
            <path d="m56.69,147.47c-.41-.03-1.2-.16-1.65-.69,0,0,.77-.44,1.21-1.08.44-.64.13-1.66-.58-2.16,0,0-.48,1.29-1.38,1.52-.9.23-2.01-1.27-2.01-3.08s-.14-4.18-1.03-5.84c-.89-1.65-1.75-2.41-3.36-3.18-1.6-.77-3.66-1.59-3.66-1.59,0,0,1.41-.02,2.27-1.17,0,0,.3-.47-.12-1.07-.42-.59-.94-.69-.94-.69,0,0-.2,1.74-1.31,1.71-1.11-.02-1.6-1.74-1.66-2.29,0,0-.47.52-.47,1.91s1.09,2.63,2.54,3.45c1.46.82,3.27,1.31,4.28,2.16,1.01.85,1.11,1.88,1.03,2.45-.08.58-.69.96-1.05.96s-.65-.42-.86-.96-1.11-.83-1.36.19c-.25,1.02,1.42,2.63,2.31,2.58.9-.06,1.63-1.13,1.61-1.9,0,0,.05.93.25,2.57.21,1.65.71,4.01,1.31,5,.59.98,1.48,2.52,4.08,2.43.17-.41.35-.82.52-1.25Z" style="fill: #ffe100; fill-rule: evenodd; stroke-width: 0px;"/>
            <path d="m44.5,167.81h2.42s4.48-4.9,7.57-9.78c3.09-4.89,5.6-9.91,7.64-18.73,2.04-8.82,1.8-20.31.12-28.14-1.61-7.53-4.81-17.56-10.54-26.06l-2.16,1.47c1.09,1.67,4.18,6.48,6.5,10.85,2.86,5.4,5.6,13.94,5.95,25.04.36,11.1-1.98,21.02-6.47,29.75-2.3,4.48-6.62,11.37-11.03,15.6Z" style="fill: #ffe100; fill-rule: evenodd; stroke-width: 0px;"/>
            <path d="m54.44,95.14c-.27,1.41-1.5,6.86-5.79,15.6,0,0-6.51,15.22-19.77,22.17v-9.54c3.68-2.29,7.87-6.42,11.15-11.46,3.57-5.46,5.67-11.16,6.21-12.72l8.19-4.05Z" style="fill: #094; fill-rule: evenodd; stroke-width: 0px;"/>
            <path d="m50.89,101.14s-.02,1.83-.02,2.68-.99,2.62-1.49,2.68c0,0-.93-2.73-2.95-4.39,0,0,1.52-.02,2.32-.09.78-.07,1.43-.59,2.13-.89h0Zm-22.01,30.31v-1.68l.17-.19-.17-.15v-1.38l2.35,1.21-2.35,2.2h0Zm0-4.28c.96.68,2.8,1.08,2.8,1.08l.17-5.04-2.72,2.15c-.1.08-.18.16-.26.23v1.58h0Zm13.03-8.9h-.28s-.28-2.72-.74-4.67l4.13.38s-.66,3.69-3.11,4.28h0Zm-4.34,4.85l-.97-4.06s3.28.35,3.84.41c.56.06.5,1.36-.56,2.33-.69.63-1.38,1.18-2.31,1.32h0Zm-.28,2.43c-.22,0-.41-.22-.41-.48s.18-.48.41-.48.41.22.41.48-.18.48-.41.48h0Zm11.99-17.16c-.22,0-.4-.22-.4-.48s.18-.48.4-.48.41.22.41.48-.18.48-.41.48h0Zm.78-7.85l.35-.22s-.91-1.75-1.34-2.55l-1.09.54-.73,2.93s1.25,0,2.81-.7h0Zm-15.07,19.49c-.88.85-1.62,1.7-1.56,2.35.06.65,1.73,1.47,2.41,1.42.68-.06.85-.51.54-1.73-.31-1.21-.74-2.6-.74-2.6l-.65.57h0Zm9.43-12.73l-.25.29s1.85.16,2.76.12c.91-.04,1.53-.61.98-2.07-.55-1.47-2.06-2.43-2.06-2.43,0,0-.18,2.5-1.42,4.09h0Zm-3.24,5.08l-.33.36,3.58.25s.19-2.8-1.3-3.91c0,0-.28,1.55-1.94,3.3h0Zm11.17-11.1c-.22,0-.4-.22-.4-.48s.18-.48.4-.48.41.22.41.48-.18.48-.41.48h0Zm-6.64,8.3l.31,1.69s.41-.89,1.3-1.5l-1.61-.19h0Zm.35,5.01c-.22,0-.41-.22-.41-.48s.18-.48.41-.48.41.22.41.48-.18.48-.41.48h0Zm3.4-10.44c.32,0,.58-.26.58-.58s-.26-.58-.58-.58-.58.26-.58.58.26.58.58.58h0Zm-12.18,13.78l3.56.82s.51-2.38-1.23-4.27l-2.33,3.46h0Zm15.62-22.04c0,.88-.16,3.12-1.74,3.89,0,0-.11-.78-1.41-2.33l.95-.47.56.88s.42-.22.72-1.52l.92-.45h0Zm-20.5,32.12l.57-4.67s1.78,1.1,3.23,1.1c0,0,.06.96-1.1,2.18-1.16,1.22-2.69,1.39-2.69,1.39h0Zm9.72-7.93c-.22,0-.41-.22-.41-.48s.18-.48.41-.48.41.22.41.48-.18.48-.41.48h0Zm-9.97,9.99c-.22,0-.41-.22-.41-.48s.18-.48.41-.48.4.22.4.48-.18.48-.4.48h0Zm12.07-21.32l-.3-.42h4.52c-.33,3.39-2.53,4.74-2.53,4.74,0,0-.28-2.47-1.69-4.33h0Zm-4.68,11.24h-1.83l.43,1.77,1.4-1.77Z" style="fill: #ffe100; fill-rule: evenodd; stroke-width: 0px;"/>
            <path d="m28.88,121.72c3.85-2.8,11.52-9.6,15.78-21.75l1.59-.79c-.54,1.56-2.65,7.25-6.21,12.72-3.29,5.04-7.47,9.18-11.15,11.46v-1.64Z" style="fill: #ffe100; fill-rule: evenodd; stroke-width: 0px;"/>
            <path d="m43.79,100.4c-.72,2.37-4.34,12.62-14.91,20.35v-4.37c2.31-1.54,7.4-5.69,9.68-13.4l5.23-2.58Z" style="fill: #fff; fill-rule: evenodd; stroke-width: 0px;"/>
            <path d="m41.15,101.71l.71.35.53-.96-1.24.61h0Zm-12.26,17.1v-.65l.63-.61,1.08,1.07-.83.93-.87-.74h0Zm6.89-8.08l1.05.62.74-1.15-.98-.65-.81,1.18h0Zm-1.19,1.78l.99.71.83-1.09-.92-.73-.91,1.11h0Zm-1.44,1.7l.91-1.11.92.73-.83,1.09-1-.71h0Zm-2.9,3l.99.89.83-.93-.92-.9-.91.94h0Zm6.67-8.3l1.05.62.74-1.15-.98-.65-.81,1.18h0Zm1.09-1.88l1.05.62.74-1.15-.98-.65-.81,1.19h0Zm1.95-3.62l1.09.55.66-1.2-1.02-.58-.73,1.24h0Zm-8.11,12.42l.99.71.84-1.09-.92-.73-.91,1.11h0Zm7.17-10.56l1.09.55.66-1.2-1.02-.58-.73,1.24Z" style="fill: #004ea2; fill-rule: evenodd; stroke-width: 0px;"/>
            <path d="m56.35,99.97c-.57,2.25-2.43,8.44-7.29,16.68-5.27,8.94-13.45,16.28-20.18,20.05v-2.8c1.4-.87,3.14-2,4.99-3.33,4.47-3.2,10-9.49,12.29-13.34,2.23-3.75,6.72-12.71,8.89-20.25.57,1.22,1.01,2.25,1.3,2.99Z" style="fill: #e60012; fill-rule: evenodd; stroke-width: 0px;"/>
            <path d="m37.76,103.38c-.75,1.88-3.63,8.4-8.88,12.09v-7.7l8.88-4.39Z" style="fill: #e60012; fill-rule: evenodd; stroke-width: 0px;"/>
            <path d="m28.88,104.82h0v-4.13l20.16-13.76c1.4,1.83,2.61,3.71,3.63,5.5.02.04.04.07.06.11l-23.86,12.29Z" style="fill: #231815; fill-rule: evenodd; stroke-width: 0px;"/>
            <path d="m53.7,94.28l-24.82,12.22v-1.68l23.86-12.29c.34.6.66,1.18.96,1.75Z" style="fill: #fff; fill-rule: evenodd; stroke-width: 0px;"/>
            <path d="m66.83,129.96l.89-1.63,1.1,1.79-1.02,1.34-.97-1.5h0Zm.2-4.39l1.38,2.03,1.14-2.32-1.71-2.44-.81,2.72h0Zm-.4-5.85l1.3,2.4,1.67-3.17-1.99-2.15-.97,2.92h0Zm-.61-5.78l1.28-2.92,2.04,2.66-1.28,3.11-2.05-2.86h0Zm-1.21-5.91l2.62,2.05.96-3.12-2.62-2.34-.96,3.41h0Zm-1.69-6.56l2.72,2.43,1.26-3.55-2.86-2.55-1.12,3.67h0Zm-1.99-6.12l3.52,1.82.43-4.19-3.23-1.97-.72,4.35h0Zm-2.93-6.78l3.94,1.83.4-4.37-3.83-1.76-.51,4.29h0Zm-1.7-6.71l.83.39.09-1.01-.92.62Z" style="fill: #fff; fill-rule: evenodd; stroke-width: 0px;"/>
            <g>
              <path d="m89.06,117.55l6.88.02-5.04-8.51h-16.6c.26,4.5.45,8.64.17,12.83-.17,2.22-.55,5.69-1.36,7.76l-6.88-.02,5.04,8.51h16.6c-.26-4.5-.45-8.65-.16-12.84.17-2.22.55-5.68,1.36-7.75Z" style="fill: #231815; fill-rule: evenodd; stroke-width: 0px;"/>
              <path d="m82.7,125.3h-3.56v-3.56h3.56v3.56h0Zm4.38.41l.25-4.38h-4.14v-4.05h-4.54v4.05h-3.71l-.25,4.38h3.97v3.93h4.54v-3.93h3.89Z" style="fill: #ffe100; fill-rule: evenodd; stroke-width: 0px;"/>
            </g>
          </g>
        </g>
        <path d="m28.88,26.07h104.39v195.06H28.88V26.07h0Zm-1.68-1.68v198.43h107.75V24.39H27.2Z" style="fill: #004ea2; fill-rule: evenodd; stroke-width: 0px;"/>
        <path d="m61.26,48.49c-11.04-6.46-14.41-19.65-14.41-19.65,0,0-3.37,13.2-14.41,19.65,11.04,6.46,14.41,19.65,14.41,19.65,0,0,3.37-13.19,14.41-19.65Z" style="fill: #e60012; fill-rule: evenodd; stroke-width: 0px;"/>
        <path d="m100.9,198.71c11.04,6.46,14.41,19.65,14.41,19.65,0,0,3.37-13.2,14.41-19.65-11.04-6.46-14.41-19.65-14.41-19.65,0,0-3.37,13.19-14.41,19.65Z" style="fill: #e60012; fill-rule: evenodd; stroke-width: 0px;"/>
      </g>
    </g>
  </g>
</svg>