<?xml version="1.0" encoding="UTF-8"?>
<svg id="_图层_2" data-name="图层 2" xmlns="http://www.w3.org/2000/svg" viewBox="0 0 162.16 247.2">
  <g id="_图层_1-2" data-name="图层 1">
    <g>
      <path d="m161.16,240.62c0,3.06-2.49,5.57-5.52,5.57H6.52c-3.04,0-5.52-2.51-5.52-5.57V6.57C1,3.51,3.49,1,6.52,1h149.11c3.04,0,5.52,2.51,5.52,5.57v234.05Z" style="fill: #fff; fill-rule: evenodd; stroke: #231815; stroke-miterlimit: 22.93; stroke-width: 2px;"/>
      <g>
        <path d="m98.8,50.56c-13.58-7.94-17.72-24.16-17.72-24.16,0,0-4.14,16.22-17.72,24.16,13.58,7.94,17.72,24.16,17.72,24.16,0,0,4.14-16.22,17.72-24.16h0Zm0,146.07c-13.58-7.94-17.72-24.16-17.72-24.16,0,0-4.14,16.22-17.72,24.16,13.58,7.94,17.72,24.16,17.72,24.16,0,0,4.14-16.22,17.72-24.16Z" style="fill: #e60012; fill-rule: evenodd; stroke-width: 0px;"/>
        <g>
          <path d="m24.74,55.7c-6.25-3.66-8.16-11.13-8.16-11.13,0,0-1.91,7.47-8.16,11.13,6.26,3.66,8.16,11.13,8.16,11.13,0,0,1.91-7.47,8.16-11.13Z" style="fill: #e60012; fill-rule: evenodd; stroke-width: 0px;"/>
          <path d="m9.1,21.55c-.88-3.37.31-5.83,2.38-7.29,1.28-.91,2.88-1.4,4.51-1.48,1.6-.07,3.26.26,4.68,1.01,2.47,1.31,4.19,3.81,3.7,7.52-.49,3.67-2.75,5.31-5.87,7.56,0,0,0,0,0,0h0s0,0,0,0c0,0,0,0,0,0,0,0,0,0,0,0-.04.03-.19.14-.58.43-1.52,1.1-3.26,3.05-4.53,5.18-.71,1.18-1.26,2.39-1.54,3.51h9.69v-3.72h3.12v6.84H8.56l-.03-1.53c-.04-2.09.86-4.49,2.18-6.7,1.49-2.48,3.55-4.78,5.37-6.1.63-.46,0,0,.6-.43,2.49-1.8,4.31-3.11,4.62-5.45.29-2.18-.67-3.63-2.07-4.37-.91-.48-2.01-.7-3.1-.65-1.06.05-2.07.35-2.84.89-1.07.76-1.66,2.09-1.17,3.98l-3.01.78Z" style="fill: #e60012; stroke-width: 0px;"/>
        </g>
        <g>
          <path d="m137.41,191.49c6.25,3.66,8.16,11.13,8.16,11.13,0,0,1.91-7.47,8.16-11.13-6.25-3.66-8.16-11.13-8.16-11.13,0,0-1.91,7.47-8.16,11.13Z" style="fill: #e60012; fill-rule: evenodd; stroke-width: 0px;"/>
          <path d="m153.05,225.65c.88,3.38-.31,5.83-2.38,7.3-1.28.91-2.88,1.4-4.51,1.48-1.6.07-3.26-.26-4.68-1.01-2.47-1.31-4.19-3.81-3.7-7.52.49-3.67,2.75-5.31,5.87-7.56h0s0,0,0,0c0,0,0,0,0,0,0,0,0,0,0,0,.04-.03.19-.14.59-.43,1.52-1.11,3.26-3.05,4.53-5.18.71-1.18,1.26-2.39,1.54-3.51h-9.69v3.72h-3.12v-6.84h16.08l.03,1.53c.04,2.09-.86,4.49-2.18,6.7-1.49,2.48-3.55,4.78-5.37,6.1-.63.46,0,0-.6.43-2.49,1.8-4.31,3.11-4.62,5.45-.29,2.18.67,3.63,2.07,4.37.91.48,2.01.7,3.1.65,1.06-.05,2.07-.35,2.84-.89,1.07-.76,1.66-2.09,1.17-3.98l3.01-.78Z" style="fill: #e60012; stroke-width: 0px;"/>
        </g>
      </g>
    </g>
  </g>
</svg>