<?xml version="1.0" encoding="UTF-8"?>
<svg id="_图层_2" data-name="图层 2" xmlns="http://www.w3.org/2000/svg" viewBox="0 0 163.57 248.61">
  <g id="_图层_1-2" data-name="图层 1">
    <g>
      <path d="m162.57,242.01c0,3.08-2.51,5.6-5.57,5.6H6.57c-3.06,0-5.57-2.52-5.57-5.6V6.6C1,3.52,3.51,1,6.57,1h150.43c3.06,0,5.57,2.52,5.57,5.6v235.41Z" style="fill: #fff; fill-rule: evenodd; stroke: #231815; stroke-miterlimit: 22.93; stroke-width: 2px;"/>
      <g>
        <path d="m99.5,197.34c-13.58-7.94-17.72-24.16-17.72-24.16,0,0-4.14,16.22-17.72,24.16,13.58,7.94,17.72,24.16,17.72,24.16,0,0,4.14-16.22,17.72-24.16h0Zm0-146.07c-13.58-7.94-17.72-24.16-17.72-24.16,0,0-4.14,16.22-17.72,24.16,13.58,7.94,17.72,24.16,17.72,24.16,0,0,4.14-16.22,17.72-24.16h0Zm0,73.04c-13.58-7.94-17.72-24.16-17.72-24.16,0,0-4.14,16.22-17.72,24.16,13.58,7.94,17.72,24.16,17.72,24.16,0,0,4.14-16.22,17.72-24.16Z" style="fill: #e60012; fill-rule: evenodd; stroke-width: 0px;"/>
        <g>
          <path d="m25.45,56.41c-6.25-3.66-8.16-11.13-8.16-11.13,0,0-1.91,7.47-8.16,11.13,6.25,3.66,8.16,11.13,8.16,11.13,0,0,1.91-7.47,8.16-11.13Z" style="fill: #e60012; fill-rule: evenodd; stroke-width: 0px;"/>
          <path d="m25.25,13.47v3.25l-6.2,5.66c.53.08,1.05.22,1.56.41,1.31.48,2.5,1.31,3.46,2.41,1.09,1.25,1.88,2.86,2.21,4.74.59,3.35-.63,6.37-2.72,8.45-1.08,1.08-2.41,1.9-3.84,2.39-1.45.49-3.02.63-4.56.34-2.7-.52-5.29-2.34-7.01-5.94l2.81-1.34c1.23,2.58,2.99,3.88,4.78,4.22,1,.19,2.03.1,2.99-.23.98-.33,1.89-.9,2.64-1.64,1.41-1.41,2.24-3.44,1.84-5.71-.23-1.3-.76-2.4-1.49-3.23-.62-.71-1.37-1.23-2.19-1.53-.81-.3-1.7-.39-2.58-.23-.96.17-1.93.63-2.84,1.42l-2.07-2.33.03-.02h0s.03-.03.05-.04l8.68-7.92h-8.95v3.8h-3.12v-6.92h16.53Z" style="fill: #e60012; stroke-width: 0px;"/>
        </g>
        <g>
          <path d="m138.12,192.2c6.25,3.66,8.16,11.13,8.16,11.13,0,0,1.91-7.47,8.16-11.13-6.26-3.66-8.16-11.13-8.16-11.13,0,0-1.91,7.47-8.16,11.13Z" style="fill: #e60012; fill-rule: evenodd; stroke-width: 0px;"/>
          <path d="m138.32,235.14v-3.25l6.2-5.66c-.53-.08-1.05-.22-1.56-.41-1.31-.49-2.5-1.31-3.46-2.41-1.09-1.25-1.88-2.86-2.21-4.74-.59-3.35.63-6.37,2.72-8.45,1.08-1.08,2.41-1.9,3.84-2.38,1.45-.49,3.02-.63,4.56-.34,2.7.52,5.29,2.34,7.01,5.94l-2.81,1.34c-1.23-2.58-2.99-3.88-4.78-4.22-1-.19-2.03-.1-2.99.23-.98.33-1.89.9-2.64,1.64-1.41,1.4-2.24,3.44-1.84,5.71.23,1.3.76,2.4,1.49,3.23.62.71,1.37,1.23,2.19,1.53.81.3,1.7.39,2.58.23.96-.17,1.93-.63,2.84-1.42l2.07,2.33-.03.02h0s-.03.03-.05.04l-8.67,7.92h8.94v-3.8h3.12v6.92h-16.53Z" style="fill: #e60012; stroke-width: 0px;"/>
        </g>
      </g>
    </g>
  </g>
</svg>