<?xml version="1.0" encoding="UTF-8"?>
<svg id="_图层_2" data-name="图层 2" xmlns="http://www.w3.org/2000/svg" viewBox="0 0 163.58 248.61">
  <g id="_图层_1-2" data-name="图层 1">
    <g>
      <path d="m162.58,242.01c0,3.08-2.51,5.6-5.57,5.6H6.57c-3.07,0-5.57-2.52-5.57-5.6V6.6C1,3.52,3.51,1,6.57,1h150.43c3.06,0,5.57,2.52,5.57,5.6v235.41Z" style="fill: #fff; fill-rule: evenodd; stroke: #231815; stroke-miterlimit: 22.93; stroke-width: 2px;"/>
      <g>
        <g>
          <path d="m25.45,56.41c-6.25-3.66-8.16-11.13-8.16-11.13,0,0-1.91,7.47-8.16,11.13,6.25,3.66,8.16,11.13,8.16,11.13,0,0,1.91-7.47,8.16-11.13Z" style="fill: #e60012; fill-rule: evenodd; stroke-width: 0px;"/>
          <path d="m8.86,35.06v-2.73l11.56-18.86h2.33v18.47h2.98v3.12h-2.98v4.12h2.04v3.12h-7.26v-3.12h2.11v-4.12h-10.78Zm4.15-3.12h6.63v-11.04l-6.63,11.04Z" style="fill: #e60012; stroke-width: 0px;"/>
        </g>
        <g>
          <path d="m138.12,192.2c6.25,3.66,8.16,11.13,8.16,11.13,0,0,1.91-7.47,8.16-11.13-6.25-3.66-8.16-11.13-8.16-11.13,0,0-1.91,7.47-8.16,11.13Z" style="fill: #e60012; fill-rule: evenodd; stroke-width: 0px;"/>
          <path d="m154.72,213.55v2.73l-11.56,18.86h-2.33v-18.47h-2.98v-3.12h2.98v-4.12h-2.04v-3.12h7.26v3.12h-2.11v4.12h10.78Zm-4.15,3.12h-6.63v11.04l6.63-11.04Z" style="fill: #e60012; stroke-width: 0px;"/>
        </g>
        <path d="m134.02,197.82c-13.58-7.94-17.72-24.16-17.72-24.16,0,0-4.14,16.22-17.72,24.16,13.58,7.94,17.72,24.16,17.72,24.16,0,0,4.14-16.22,17.72-24.16h0Zm-69.02,0c-13.58-7.94-17.72-24.16-17.72-24.16,0,0-4.14,16.22-17.72,24.16,13.58,7.94,17.72,24.16,17.72,24.16,0,0,4.14-16.22,17.72-24.16h0ZM134.02,50.79c-13.58-7.94-17.72-24.16-17.72-24.16,0,0-4.14,16.22-17.72,24.16,13.58,7.94,17.72,24.16,17.72,24.16,0,0,4.14-16.22,17.72-24.16h0Zm-69.02,0c-13.58-7.94-17.72-24.16-17.72-24.16,0,0-4.14,16.22-17.72,24.16,13.58,7.94,17.72,24.16,17.72,24.16,0,0,4.14-16.22,17.72-24.16Z" style="fill: #e60012; fill-rule: evenodd; stroke-width: 0px;"/>
      </g>
    </g>
  </g>
</svg>