<?xml version="1.0" encoding="UTF-8"?>
<svg id="_图层_2" data-name="图层 2" xmlns="http://www.w3.org/2000/svg" viewBox="0 0 163.57 248.61">
  <g id="_图层_1-2" data-name="图层 1">
    <g>
      <path d="m162.57,242.01c0,3.08-2.51,5.6-5.57,5.6H6.57c-3.06,0-5.57-2.52-5.57-5.6V6.6C1,3.52,3.51,1,6.57,1h150.43c3.07,0,5.57,2.52,5.57,5.6v235.41Z" style="fill: #fff; fill-rule: evenodd; stroke: #231815; stroke-miterlimit: 22.93; stroke-width: 2px;"/>
      <g>
        <path d="m99.5,124.31c-13.58-7.94-17.72-24.16-17.72-24.16,0,0-4.14,16.22-17.72,24.16,13.58,7.94,17.72,24.16,17.72,24.16,0,0,4.14-16.22,17.72-24.16h0Zm34.51,73.51c-13.58-7.94-17.72-24.16-17.72-24.16,0,0-4.14,16.22-17.72,24.16,13.57,7.94,17.72,24.16,17.72,24.16,0,0,4.14-16.22,17.72-24.16h0Zm-69.02,0c-13.58-7.94-17.72-24.16-17.72-24.16,0,0-4.14,16.22-17.72,24.16,13.57,7.94,17.72,24.16,17.72,24.16,0,0,4.14-16.22,17.72-24.16h0ZM134.02,50.79c-13.58-7.94-17.72-24.16-17.72-24.16,0,0-4.14,16.22-17.72,24.16,13.57,7.94,17.72,24.16,17.72,24.16,0,0,4.14-16.22,17.72-24.16h0Zm-69.02,0c-13.58-7.94-17.72-24.16-17.72-24.16,0,0-4.14,16.22-17.72,24.16,13.57,7.94,17.72,24.16,17.72,24.16,0,0,4.14-16.22,17.72-24.16Z" style="fill: #e60012; fill-rule: evenodd; stroke-width: 0px;"/>
        <g>
          <path d="m25.45,56.41c-6.25-3.66-8.16-11.13-8.16-11.13,0,0-1.91,7.47-8.16,11.13,6.25,3.66,8.16,11.13,8.16,11.13,0,0,1.91-7.47,8.16-11.13Z" style="fill: #e60012; fill-rule: evenodd; stroke-width: 0px;"/>
          <path d="m23.62,16.59h-10.65l-.09,5.21c1.62-.58,3.88-1.02,6.43-.39.51.13.99.3,1.44.51,2.3,1.09,3.81,3.23,4.57,5.71.72,2.35.77,5.04.2,7.38-.19.77-.45,1.51-.77,2.2-1.11,2.35-2.95,3.86-5.01,4.56-1.04.35-2.11.49-3.17.42-1.06-.07-2.12-.34-3.12-.81-2.08-.99-3.86-2.85-4.78-5.58l2.95-.99c.62,1.85,1.8,3.1,3.16,3.75.62.3,1.3.47,1.98.51.69.04,1.37-.04,2-.25,1.29-.44,2.46-1.41,3.18-2.94.24-.5.42-1.04.57-1.61.45-1.82.41-3.91-.15-5.72-.52-1.69-1.49-3.12-2.92-3.81-.27-.13-.56-.23-.86-.3-3.68-.91-5.77.62-8.1,2.61l-.98-.61.39-11.42.03-1.54h13.71v3.12Z" style="fill: #e60012; stroke-width: 0px;"/>
        </g>
        <g>
          <path d="m138.12,192.2c6.25,3.66,8.16,11.13,8.16,11.13,0,0,1.91-7.47,8.16-11.13-6.25-3.66-8.16-11.13-8.16-11.13,0,0-1.91,7.47-8.16,11.13Z" style="fill: #e60012; fill-rule: evenodd; stroke-width: 0px;"/>
          <path d="m139.96,232.02h10.65l.09-5.21c-1.62.58-3.88,1.01-6.43.39-.51-.13-.99-.3-1.44-.51-2.3-1.09-3.81-3.23-4.57-5.71-.72-2.35-.77-5.04-.2-7.38.19-.77.45-1.51.77-2.2,1.11-2.35,2.95-3.86,5.01-4.56,1.04-.35,2.11-.49,3.17-.42,1.06.07,2.12.34,3.12.81,2.08.99,3.86,2.85,4.78,5.57l-2.95.99c-.62-1.85-1.8-3.1-3.16-3.75-.62-.3-1.3-.47-1.98-.51-.69-.04-1.37.04-2,.25-1.29.44-2.46,1.41-3.18,2.94-.24.5-.42,1.04-.57,1.61-.45,1.82-.41,3.91.15,5.72.52,1.69,1.49,3.12,2.93,3.81.27.13.55.23.86.31,3.68.91,5.77-.63,8.1-2.61l.98.61-.39,11.42-.03,1.53h-13.71v-3.12Z" style="fill: #e60012; stroke-width: 0px;"/>
        </g>
      </g>
    </g>
  </g>
</svg>