<?xml version="1.0" encoding="UTF-8"?>
<svg id="_图层_2" data-name="图层 2" xmlns="http://www.w3.org/2000/svg" viewBox="0 0 163.57 248.61">
  <g id="_图层_1-2" data-name="图层 1">
    <g>
      <path d="m162.57,242.01c0,3.08-2.51,5.6-5.57,5.6H6.57c-3.06,0-5.57-2.52-5.57-5.6V6.6C1,3.52,3.51,1,6.57,1h150.43c3.06,0,5.57,2.52,5.57,5.6v235.41Z" style="fill: #fff; fill-rule: evenodd; stroke: #231815; stroke-miterlimit: 22.93; stroke-width: 2px;"/>
      <g>
        <path d="m134.01,124.31c-13.58-7.94-17.72-24.16-17.72-24.16,0,0-4.14,16.22-17.72,24.16,13.58,7.94,17.72,24.16,17.72,24.16,0,0,4.14-16.22,17.72-24.16h0ZM64.99,50.79c-13.57-7.94-17.72-24.16-17.72-24.16,0,0-4.14,16.22-17.72,24.16,13.58,7.94,17.72,24.16,17.72,24.16,0,0,4.14-16.22,17.72-24.16h0Zm69.02,0c-13.58-7.94-17.72-24.16-17.72-24.16,0,0-4.14,16.22-17.72,24.16,13.58,7.94,17.72,24.16,17.72,24.16,0,0,4.14-16.22,17.72-24.16h0Zm-69.02,147.03c-13.57-7.94-17.72-24.16-17.72-24.16,0,0-4.14,16.22-17.72,24.16,13.58,7.94,17.72,24.16,17.72,24.16,0,0,4.14-16.22,17.72-24.16h0Zm69.02,0c-13.58-7.94-17.72-24.16-17.72-24.16,0,0-4.14,16.22-17.72,24.16,13.58,7.94,17.72,24.16,17.72,24.16,0,0,4.14-16.22,17.72-24.16h0Zm-69.02-73.51c-13.57-7.94-17.72-24.16-17.72-24.16,0,0-4.14,16.22-17.72,24.16,13.58,7.94,17.72,24.16,17.72,24.16,0,0,4.14-16.22,17.72-24.16Z" style="fill: #e60012; fill-rule: evenodd; stroke-width: 0px;"/>
        <g>
          <path d="m25.45,56.41c-6.25-3.66-8.16-11.13-8.16-11.13,0,0-1.91,7.47-8.16,11.13,6.25,3.66,8.16,11.13,8.16,11.13,0,0,1.91-7.47,8.16-11.13Z" style="fill: #e60012; fill-rule: evenodd; stroke-width: 0px;"/>
          <path d="m22.98,19.67s-1.5-3.39-5.71-3.04h.04c-1.71.17-2.84,1.16-3.61,2.63-.72,1.38-1.16,3.17-1.46,5.14.21-.18.43-.35.65-.5,1.25-.87,2.65-1.33,4.06-1.39,1.4-.07,2.81.26,4.09.95,2.06,1.11,3.76,3.17,4.48,6.07,1.1,4.45-.5,8.16-3.07,10.28-1.41,1.17-3.11,1.86-4.83,1.96-1.77.11-3.56-.41-5.09-1.67-1.94-1.6-3.42-4.44-3.76-8.79h0c-.13-1.68-.09-3.59.16-5.74.34-2.9.89-5.63,2-7.75,1.24-2.38,3.12-3.99,6.05-4.3h.04c6.41-.54,8.81,4.88,8.81,4.9l-2.85,1.25h0Zm-11.08,11.81c.3,3.14,1.31,5.13,2.62,6.22.87.72,1.9,1.01,2.92.95,1.07-.06,2.13-.51,3.03-1.25,1.74-1.44,2.81-4,2.04-7.14-.49-1.98-1.6-3.35-2.93-4.07-.77-.41-1.62-.61-2.47-.57-.84.04-1.67.31-2.42.83-1.3.91-2.35,2.55-2.78,5.02Z" style="fill: #e60012; stroke-width: 0px;"/>
        </g>
        <g>
          <path d="m138.12,192.2c6.25,3.66,8.16,11.13,8.16,11.13,0,0,1.91-7.47,8.16-11.13-6.25-3.66-8.16-11.13-8.16-11.13,0,0-1.91,7.47-8.16,11.13Z" style="fill: #e60012; fill-rule: evenodd; stroke-width: 0px;"/>
          <path d="m140.59,228.94s1.5,3.39,5.71,3.04h-.04c1.71-.17,2.84-1.16,3.61-2.63.72-1.38,1.16-3.17,1.46-5.14-.21.18-.43.35-.65.5-1.25.87-2.65,1.33-4.06,1.39-1.4.07-2.81-.26-4.09-.95-2.06-1.11-3.76-3.17-4.48-6.07-1.1-4.45.5-8.16,3.07-10.29,1.41-1.16,3.11-1.86,4.83-1.96,1.77-.11,3.56.41,5.09,1.67,1.94,1.6,3.42,4.44,3.76,8.79h0c.13,1.68.09,3.59-.16,5.74-.34,2.9-.89,5.63-2,7.75-1.24,2.38-3.12,3.99-6.05,4.3h-.04c-6.41.54-8.81-4.88-8.81-4.9l2.85-1.25h0Zm11.08-11.81c-.3-3.14-1.31-5.13-2.62-6.21-.87-.72-1.9-1.01-2.92-.95-1.07.06-2.13.51-3.03,1.25-1.74,1.44-2.81,4-2.04,7.14.49,1.98,1.6,3.35,2.93,4.07.77.41,1.62.61,2.47.57.84-.04,1.67-.31,2.42-.83,1.3-.91,2.35-2.55,2.78-5.03Z" style="fill: #e60012; stroke-width: 0px;"/>
        </g>
      </g>
    </g>
  </g>
</svg>