<?xml version="1.0" encoding="UTF-8"?>
<svg id="_图层_2" data-name="图层 2" xmlns="http://www.w3.org/2000/svg" viewBox="0 0 163.58 248.61">
  <g id="_图层_1-2" data-name="图层 1">
    <g>
      <path d="m162.58,242.01c0,3.08-2.51,5.6-5.57,5.6H6.57c-3.06,0-5.57-2.52-5.57-5.6V6.6C1,3.52,3.51,1,6.57,1h150.43c3.06,0,5.57,2.52,5.57,5.6v235.41Z" style="fill: #fff; fill-rule: evenodd; stroke: #231815; stroke-miterlimit: 22.93; stroke-width: 2px;"/>
      <g>
        <path d="m99.5,87.55c-13.58-7.94-17.72-24.16-17.72-24.16,0,0-4.14,16.22-17.72,24.16,13.57,7.94,17.72,24.16,17.72,24.16,0,0,4.14-16.22,17.72-24.16h0Zm-34.51-36.76c-13.58,7.94-17.72,24.16-17.72,24.16,0,0-4.14-16.22-17.72-24.16,13.58-7.94,17.72-24.16,17.72-24.16,0,0,4.14,16.22,17.72,24.16h0Zm69.02,0c-13.58,7.94-17.72,24.16-17.72,24.16,0,0-4.14-16.22-17.72-24.16,13.57-7.94,17.72-24.16,17.72-24.16,0,0,4.14,16.22,17.72,24.16h0Zm0,73.51c-13.58,7.94-17.72,24.16-17.72,24.16,0,0-4.14-16.22-17.72-24.16,13.57-7.94,17.72-24.16,17.72-24.16,0,0,4.14,16.22,17.72,24.16h0Zm-69.02,0c-13.58,7.94-17.72,24.16-17.72,24.16,0,0-4.14-16.22-17.72-24.16,13.58-7.94,17.72-24.16,17.72-24.16,0,0,4.14,16.22,17.72,24.16h0Zm69.02,73.51c-13.58-7.94-17.72-24.16-17.72-24.16,0,0-4.14,16.22-17.72,24.16,13.57,7.94,17.72,24.16,17.72,24.16,0,0,4.14-16.22,17.72-24.16h0Zm-69.02,0c-13.58-7.94-17.72-24.16-17.72-24.16,0,0-4.14,16.22-17.72,24.16,13.58,7.94,17.72,24.16,17.72,24.16,0,0,4.14-16.22,17.72-24.16Z" style="fill: #e60012; fill-rule: evenodd; stroke-width: 0px;"/>
        <g>
          <path d="m25.45,56.41c-6.25-3.66-8.16-11.13-8.16-11.13,0,0-1.91,7.47-8.16,11.13,6.25,3.66,8.16,11.13,8.16,11.13,0,0,1.91-7.47,8.16-11.13Z" style="fill: #e60012; fill-rule: evenodd; stroke-width: 0px;"/>
          <path d="m9.11,20.21v-6.74h14.38l1.98,2.42c-.54.88-8.25,13.75-9.18,25.75h-3.13c.71-9.99,5.83-20.47,8.32-25.05h-9.26v3.62h-3.12Z" style="fill: #e60012; stroke-width: 0px;"/>
        </g>
        <g>
          <path d="m138.12,192.2c6.25,3.66,8.16,11.13,8.16,11.13,0,0,1.91-7.47,8.16-11.13-6.25-3.66-8.16-11.13-8.16-11.13,0,0-1.91,7.47-8.16,11.13Z" style="fill: #e60012; fill-rule: evenodd; stroke-width: 0px;"/>
          <path d="m154.47,228.4v6.74h-14.38l-1.98-2.42c.54-.88,8.25-13.75,9.17-25.75h3.13c-.71,9.99-5.83,20.47-8.32,25.05h9.26v-3.62h3.12Z" style="fill: #e60012; stroke-width: 0px;"/>
        </g>
      </g>
    </g>
  </g>
</svg>