<?xml version="1.0" encoding="UTF-8"?>
<svg id="_图层_2" data-name="图层 2" xmlns="http://www.w3.org/2000/svg" viewBox="0 0 163.57 248.61">
  <g id="_图层_1-2" data-name="图层 1">
    <g>
      <path d="m162.57,242.01c0,3.08-2.51,5.6-5.57,5.6H6.57c-3.06,0-5.57-2.52-5.57-5.6V6.6C1,3.52,3.51,1,6.57,1h150.43c3.06,0,5.57,2.52,5.57,5.6v235.41Z" style="fill: #fff; fill-rule: evenodd; stroke: #231815; stroke-miterlimit: 22.93; stroke-width: 2px;"/>
      <g>
        <path d="m99.5,161.06c-13.58-7.94-17.72-24.16-17.72-24.16,0,0-4.14,16.22-17.72,24.16,13.58,7.94,17.72,24.16,17.72,24.16,0,0,4.14-16.22,17.72-24.16h0Zm34.51-36.76c-13.57,7.94-17.72,24.16-17.72,24.16,0,0-4.14-16.22-17.72-24.16,13.58-7.94,17.72-24.16,17.72-24.16,0,0,4.14,16.22,17.72,24.16h0Zm-69.02,0c-13.58,7.94-17.72,24.16-17.72,24.16,0,0-4.14-16.22-17.72-24.16,13.57-7.94,17.72-24.16,17.72-24.16,0,0,4.14,16.22,17.72,24.16h0Zm0,73.51c-13.58,7.94-17.72,24.16-17.72,24.16,0,0-4.14-16.22-17.72-24.16,13.57-7.94,17.72-24.16,17.72-24.16,0,0,4.14,16.22,17.72,24.16h0Zm69.02,0c-13.57,7.94-17.72,24.16-17.72,24.16,0,0-4.14-16.22-17.72-24.16,13.58-7.94,17.72-24.16,17.72-24.16,0,0,4.14,16.22,17.72,24.16h0Zm0-147.03c-13.57-7.94-17.72-24.16-17.72-24.16,0,0-4.14,16.22-17.72,24.16,13.58,7.94,17.72,24.16,17.72,24.16,0,0,4.14-16.22,17.72-24.16h0Zm-69.02,0c-13.58-7.94-17.72-24.16-17.72-24.16,0,0-4.14,16.22-17.72,24.16,13.57,7.94,17.72,24.16,17.72,24.16,0,0,4.14-16.22,17.72-24.16h0Zm34.51,36.76c-13.58-7.94-17.72-24.16-17.72-24.16,0,0-4.14,16.22-17.72,24.16,13.58,7.94,17.72,24.16,17.72,24.16,0,0,4.14-16.22,17.72-24.16Z" style="fill: #e60012; fill-rule: evenodd; stroke-width: 0px;"/>
        <g>
          <path d="m25.45,56.41c-6.25-3.66-8.16-11.13-8.16-11.13,0,0-1.91,7.47-8.16,11.13,6.25,3.66,8.16,11.13,8.16,11.13,0,0,1.91-7.47,8.16-11.13Z" style="fill: #e60012; fill-rule: evenodd; stroke-width: 0px;"/>
          <path d="m21.41,27.12c.81.37,1.56.84,2.2,1.4,1.7,1.46,2.75,3.49,2.75,5.75s-1.05,4.29-2.75,5.75c-1.64,1.41-3.87,2.28-6.32,2.28s-4.69-.87-6.32-2.28c-1.69-1.46-2.75-3.49-2.75-5.75s1.05-4.29,2.75-5.75c.65-.56,1.39-1.03,2.2-1.4-.57-.3-1.09-.66-1.56-1.07-1.52-1.34-2.47-3.19-2.47-5.25s.95-3.91,2.47-5.25c1.47-1.29,3.48-2.08,5.68-2.08s4.21.8,5.68,2.08c1.52,1.34,2.47,3.19,2.47,5.25s-.95,3.91-2.47,5.25c-.47.41-.99.77-1.56,1.07h0Zm-4.12,2.24c-1.69,0-3.2.58-4.29,1.51-1.03.88-1.66,2.09-1.66,3.4s.64,2.51,1.66,3.39c1.09.93,2.6,1.51,4.29,1.51s3.21-.58,4.29-1.51c1.03-.88,1.66-2.09,1.66-3.39s-.64-2.51-1.66-3.4c-1.09-.93-2.6-1.51-4.29-1.51h0Zm0-12.77c-1.43,0-2.71.5-3.63,1.3-.86.76-1.4,1.79-1.4,2.91s.54,2.15,1.4,2.91c.92.8,2.2,1.3,3.63,1.3s2.71-.5,3.63-1.3c.86-.76,1.4-1.79,1.4-2.91s-.54-2.15-1.4-2.91c-.92-.8-2.2-1.3-3.63-1.3Z" style="fill: #e60012; stroke-width: 0px;"/>
        </g>
        <g>
          <path d="m138.12,192.2c6.25,3.66,8.16,11.13,8.16,11.13,0,0,1.91-7.47,8.16-11.13-6.25-3.66-8.16-11.13-8.16-11.13,0,0-1.91,7.47-8.16,11.13Z" style="fill: #e60012; fill-rule: evenodd; stroke-width: 0px;"/>
          <path d="m142.17,221.49c-.81-.37-1.56-.84-2.2-1.4-1.69-1.46-2.75-3.49-2.75-5.75s1.05-4.29,2.75-5.75c1.64-1.41,3.88-2.28,6.32-2.28s4.69.87,6.33,2.28c1.69,1.46,2.75,3.49,2.75,5.75s-1.05,4.29-2.75,5.75c-.65.56-1.39,1.03-2.2,1.4.57.3,1.09.66,1.56,1.07,1.52,1.33,2.47,3.19,2.47,5.25s-.95,3.91-2.47,5.25c-1.47,1.29-3.48,2.08-5.68,2.08s-4.21-.8-5.68-2.08c-1.52-1.33-2.47-3.19-2.47-5.25s.95-3.91,2.47-5.25c.47-.41.99-.77,1.56-1.07h0Zm4.12-2.24c1.69,0,3.21-.58,4.29-1.51,1.03-.88,1.66-2.09,1.66-3.4s-.64-2.51-1.66-3.4c-1.09-.93-2.6-1.51-4.29-1.51s-3.2.58-4.29,1.51c-1.03.88-1.66,2.09-1.66,3.4s.64,2.51,1.66,3.4c1.09.93,2.6,1.51,4.29,1.51h0Zm0,12.77c1.43,0,2.71-.5,3.63-1.3.86-.75,1.4-1.79,1.4-2.91s-.54-2.15-1.4-2.91c-.92-.8-2.2-1.3-3.63-1.3s-2.71.5-3.63,1.3c-.86.75-1.4,1.79-1.4,2.91s.54,2.15,1.4,2.91c.92.8,2.2,1.3,3.63,1.3Z" style="fill: #e60012; stroke-width: 0px;"/>
        </g>
      </g>
    </g>
  </g>
</svg>