<?xml version="1.0" encoding="UTF-8"?>
<svg id="_图层_2" data-name="图层 2" xmlns="http://www.w3.org/2000/svg" viewBox="0 0 210.38 79.98">
  <g id="_图层_7" data-name="图层 7">
    <g>
      <g>
        <ellipse cx="104.74" cy="27.97" rx="104.43" ry="27.66" style="fill: #1698ca; stroke: #1085a8; stroke-miterlimit: 10; stroke-width: .61px;"/>
        <ellipse cx="62.65" cy="47.1" rx="1.88" ry=".71" style="fill: #fff; stroke-width: 0px;"/>
        <ellipse cx="60.23" cy="44.7" rx="1.88" ry=".71" style="fill: #fff; stroke-width: 0px;"/>
        <ellipse cx="71.33" cy="46.4" rx="1.88" ry=".71" style="fill: #fff; stroke-width: 0px;"/>
        <ellipse cx="64.96" cy="49.22" rx="1.88" ry=".71" style="fill: #fff; stroke-width: 0px;"/>
        <ellipse cx="53.83" cy="47.65" rx="1.88" ry=".71" style="fill: #fff; stroke-width: 0px;"/>
        <ellipse cx="138.12" cy="9.02" rx="1.88" ry=".71" style="fill: #fff; stroke-width: 0px;"/>
        <ellipse cx="155.53" cy="7.85" rx="1.88" ry=".71" style="fill: #fff; stroke-width: 0px;"/>
        <ellipse cx="147.72" cy="46.85" rx="1.88" ry=".71" style="fill: #fff; stroke-width: 0px;"/>
        <ellipse cx="183.6" cy="26.03" rx="1.88" ry=".71" style="fill: #fff; stroke-width: 0px;"/>
        <ellipse cx="189.86" cy="27.44" rx="1.88" ry=".71" style="fill: #fff; stroke-width: 0px;"/>
        <ellipse cx="196.22" cy="29.08" rx="1.88" ry=".71" style="fill: #fff; stroke-width: 0px;"/>
        <polygon points="127.32 9.31 152.44 12.86 165.27 6.49 141.02 3.09 127.32 9.31" style="fill: none; opacity: .99; stroke: #fff; stroke-miterlimit: 10; stroke-width: .31px;"/>
        <polygon points="31.51 31.02 31.51 24.09 4.61 24.09 4.32 31.02 31.51 31.02" style="fill: none; stroke: #fff; stroke-miterlimit: 10; stroke-width: .31px;"/>
        <polygon points="142.28 50.91 167.4 48.09 154.05 42.04 129.7 45.15 142.28 50.91" style="fill: none; stroke: #fff; stroke-miterlimit: 10; stroke-width: .31px;"/>
        <polygon points="43.1 48.35 56.51 42.19 80.82 45.15 67.36 51.69 43.1 48.35" style="fill: none; stroke: #fff; stroke-miterlimit: 10; stroke-width: .31px;"/>
        <polygon points="174.42 31.29 202.26 30.95 202.26 23.8 174.42 23.8 174.42 31.29" style="fill: none; stroke: #fff; stroke-miterlimit: 10; stroke-width: .31px;"/>
        <path d="m89.06,54.27c5.12.2,10.35.3,15.68.3,5.72,0,11.34-.12,16.81-.35l-3.79-5.11h-25.46l-3.25,5.16Z" style="fill: #fff; stroke: #1085a8; stroke-miterlimit: 10; stroke-width: .61px;"/>
        <path d="m179.17,35.76c-.77,2.14-10.27,5.4-10.27,5.4l17.18,4.15c6.48-2.13,11.8-4.52,15.69-7.1l-22.6-2.45Z" style="fill: #fff; stroke: #1085a8; stroke-miterlimit: 10; stroke-width: .61px;"/>
        <path d="m31.51,20.37c.53-2.04,9.59-5.25,9.59-5.25l-18.35-4.29c-6.79,2.27-12.25,4.84-16.09,7.61l24.84,1.93Z" style="fill: #fff; stroke: #1085a8; stroke-miterlimit: 10; stroke-width: .61px;"/>
        <path d="m91.75,7.3h25.1l5.2-6.61c-5.63-.25-11.41-.38-17.31-.38s-12.16.14-18.01.41l5.03,6.58Z" style="fill: #fff; stroke: #1085a8; stroke-miterlimit: 10; stroke-width: .61px;"/>
        <path d="m186.62,10.8l-18.71,4.3c5.5.97,10.9,5,10.9,5l23.32-2.13c-3.81-2.6-9.07-5.01-15.51-7.17Z" style="fill: #fff; stroke: #1085a8; stroke-miterlimit: 10; stroke-width: .61px;"/>
        <polygon points="57.22 13.53 81.37 9.73 67.63 3.13 42.05 7 57.22 13.53" style="fill: none; stroke: #fff; stroke-miterlimit: 10; stroke-width: .31px;"/>
        <ellipse cx="63.69" cy="6.15" rx="1.7" ry=".57" style="fill: #fff; stroke-width: 0px;"/>
        <ellipse cx="66.96" cy="7.59" rx="1.7" ry=".57" style="fill: #fff; stroke-width: 0px;"/>
        <ellipse cx="70.36" cy="9.04" rx="1.7" ry=".57" style="fill: #fff; stroke-width: 0px;"/>
        <ellipse cx="59.15" cy="10.79" rx="1.7" ry=".57" style="fill: #fff; stroke-width: 0px;"/>
        <ellipse cx="56.12" cy="9.33" rx="1.7" ry=".57" style="fill: #fff; stroke-width: 0px;"/>
        <ellipse cx="52.97" cy="7.87" rx="1.7" ry=".57" style="fill: #fff; stroke-width: 0px;"/>
        <ellipse cx="25.68" cy="26.1" rx="1.88" ry=".71" style="fill: #fff; stroke-width: 0px;"/>
        <ellipse cx="25.68" cy="29.36" rx="1.88" ry=".71" style="fill: #fff; stroke-width: 0px;"/>
        <ellipse cx="13" cy="26.1" rx="1.88" ry=".71" style="fill: #fff; stroke-width: 0px;"/>
        <ellipse cx="13" cy="29.36" rx="1.88" ry=".71" style="fill: #fff; stroke-width: 0px;"/>
        <path d="m.31,28.77s2.16,26.48,107.85,26.31c105.7-.17,100.48-29.69,100.48-29.69,0,0,3.23,16.29-.01,30.2,0,0-5.56,21.02-99.54,24.08,0,0-88.75.38-108.02-23.56L.31,28.77Z" style="fill: #1698ca; stroke: #1085a8; stroke-miterlimit: 10; stroke-width: .61px;"/>
        <path d="m185.5,69.64c7.67-2.41,12.82-4.92,16.26-7.13v-24.97c-3.42,2.78-8.51,5.7-16.08,8.33l-.18,23.77Z" style="fill: #fff; stroke: #1085a8; stroke-miterlimit: 10; stroke-width: .61px;"/>
        <path d="m121.55,54.67c-4.26.12-8.71.19-13.39.2-6.79.01-13.14-.09-19.1-.29v24.51c11.89.62,20.03.59,20.03.59,4.34-.14,8.49-.32,12.46-.54v-24.47Z" style="fill: #fff; stroke: #1085a8; stroke-miterlimit: 10; stroke-width: .62px;"/>
        <path d="m7.27,37.92c4.23,2.9,10.25,5.57,17.71,7.91l16.13-4.42c-3.33-.39-10.51-5.4-10.51-5.4l-23.32,1.91Z" style="fill: #fff; stroke: #1085a8; stroke-miterlimit: 10; stroke-width: .61px;"/>
        <path d="m7.96,62.11c4.44,2.82,10.02,5.18,16.28,7.15l.24-23.13c-7.52-2.41-12.72-5.01-16.29-7.44l-.23,23.42Z" style="fill: #fff; stroke: #1085a8; stroke-miterlimit: 10; stroke-width: .61px;"/>
        <path d="m104.74,9.73c-37.18,0-67.31,7.93-67.31,17.71s30.14,17.71,67.31,17.71,67.31-7.93,67.31-17.71-30.14-17.71-67.31-17.71Zm.31,33.88c-33.39,0-60.46-7.12-60.46-15.91s27.07-15.91,60.46-15.91,60.46,7.12,60.46,15.91-27.07,15.91-60.46,15.91Z" style="fill: #1085a8; stroke-width: 0px;"/>
        <path d="m159.75,17.24l-4.88,1.45c3.39,1.3,6.08,2.73,7.9,4.26l4.34-2.17c-1.94-1.26-4.42-2.44-7.36-3.54Z" style="fill: #fff; stroke-width: 0px;"/>
        <path d="m165.51,27.7c0,.85-.26,1.68-.75,2.49l5.68,1.09c1.04-1.24,1.61-2.53,1.61-3.85,0-.48-.09-.95-.23-1.41h-6.65c.22.55.34,1.11.34,1.67Z" style="fill: #fff; stroke-width: 0px;"/>
        <path d="m159.97,34.35c-1.72.99-3.81,1.92-6.23,2.78l.54,2.3c4.64-1.33,8.51-2.84,11.45-4.5l-5.76-.58Z" style="fill: #fff; stroke-width: 0px;"/>
        <path d="m142.62,40.16c-4.04.85-8.5,1.56-13.29,2.11v1.66c5.06-.52,9.81-1.2,14.18-2.01l-.89-1.76Z" style="fill: #fff; stroke-width: 0px;"/>
        <path d="m112.12,45.05v-1.55c-2.32.07-4.68.11-7.08.11s-4.77-.04-7.1-.11l-.05,1.57c2.25.06,4.54.09,6.85.09,2.5,0,4.96-.04,7.38-.11Z" style="fill: #fff; stroke-width: 0px;"/>
        <path d="m80.82,42.28c-4.38-.5-8.49-1.14-12.25-1.89l-.93,1.83c4.1.71,8.52,1.31,13.19,1.78v-1.72Z" style="fill: #fff; stroke-width: 0px;"/>
        <path d="m56.24,37.09c-2.27-.82-4.26-1.69-5.91-2.62l-5.58,1c3.03,1.56,6.91,2.99,11.5,4.25v-2.63Z" style="fill: #fff; stroke-width: 0px;"/>
        <path d="m130.1,13.23c5.17.62,9.94,1.42,14.2,2.38v-2.49c-4.28-.82-8.93-1.51-13.89-2.05l-.31,2.16Z" style="fill: #fff; stroke-width: 0px;"/>
        <path d="m42.05,20.99l5.09,2.13c1.57-1.37,3.82-2.67,6.65-3.86l-2.67-2.53c-3.73,1.29-6.79,2.72-9.08,4.26Z" style="fill: #fff; stroke-width: 0px;"/>
        <path d="m44.59,27.7c0-.36.06-.72.15-1.08l-7.15-.38c-.1.4-.17.79-.17,1.19,0,1.41.65,2.78,1.83,4.1l6.77-.39c-.94-1.11-1.45-2.27-1.45-3.46Z" style="fill: #fff; stroke-width: 0px;"/>
        <path d="m64.69,13.21v2.65c4.3-1.01,9.15-1.87,14.43-2.53l-1.26-2.13c-4.69.54-9.11,1.21-13.17,2Z" style="fill: #fff; stroke-width: 0px;"/>
        <path d="m96.38,9.87v2.09c2.83-.11,5.72-.17,8.67-.17,2.42,0,4.8.04,7.15.11v-2.07c-2.45-.07-4.94-.11-7.46-.11-2.83,0-5.62.05-8.36.14Z" style="fill: #fff; stroke-width: 0px;"/>
      </g>
      <g>
        <path d="m58.93,30.57l.67-1.74h2.25l2.1-5.7-2.55,1.05.8-2.07,3.22-1.35h2.41l-2.75,8.07h2.24l-.56,1.74h-7.84Zm2.25-5.81l1.93-.78-.46,1.22-.76.28-.71-.72Zm-2.47,6.37h8.46l.73-2.3.96.9-.81,2.63h-7.94l-1.39-1.23Zm9.65-10.37l.83,1.03-2.12,6.5h-1.24l2.53-7.53Z" style="fill: #fff; stroke-width: 0px;"/>
        <path d="m84.17,25.48c-.36,1.94-1.06,3.35-2.1,4.17s-2.71,1.26-4.95,1.26-3.7-.42-4.36-1.25-.69-2.22-.13-4.18,1.32-3.18,2.35-3.9,2.54-1.07,4.59-1.07,3.4.36,4.08,1.07.87,2.01.51,3.9Zm-.28-4.45l1.18,1.06c.5.45.81.97.94,1.58s.11,1.45-.07,2.53c-.36,2.1-1.22,3.73-2.61,4.84s-3.33,1.71-5.73,1.71c-.7,0-1.31-.07-1.83-.21s-.93-.35-1.24-.62l-1.25-1.13c.33.24.77.41,1.34.52s1.39.16,2.46.16c2.37,0,4.16-.47,5.34-1.41s1.93-2.43,2.31-4.5c.21-1.16.25-2.08.11-2.78s-.45-1.27-.95-1.76Zm-7.65,4.46c-.36,1.43-.45,2.43-.26,2.99s.7.84,1.51.84,1.45-.29,1.91-.85.84-1.56,1.15-2.98.35-2.33.14-2.84-.69-.75-1.45-.75-1.36.25-1.8.75-.84,1.45-1.2,2.84Zm1.24,3.32c-.55-.07-.89-.33-1-.78s-.03-1.22.24-2.32c.35-1.39.69-2.29,1.02-2.72s.8-.63,1.39-.63c.41,0,.72.12.93.37s.28.59.23,1.02c-.18-.12-.34-.21-.48-.26s-.28-.08-.41-.08c-.34,0-.6.11-.78.32s-.37.73-.57,1.57l-.07.28c-.1.43-.19.9-.28,1.43s-.16,1.13-.22,1.81Z" style="fill: #fff; stroke-width: 0px;"/>
        <path d="m98.54,25.48c-.12,1.94-.65,3.35-1.59,4.17s-2.55,1.26-4.79,1.26-3.75-.42-4.51-1.25-.96-2.22-.65-4.18.93-3.18,1.87-3.9,2.41-1.07,4.46-1.07,3.44.36,4.21,1.07,1.12,2.01,1,3.9Zm-.83-4.45l1.31,1.06c.55.45.93.97,1.14,1.58s.29,1.45.24,2.53c-.1,2.1-.76,3.73-2.01,4.84s-3.12,1.71-5.52,1.71c-.7,0-1.31-.07-1.85-.21s-.98-.35-1.31-.62l-1.39-1.13c.36.24.82.41,1.4.52s1.41.16,2.48.16c2.37,0,4.1-.47,5.17-1.41s1.63-2.43,1.75-4.5c.07-1.16-.01-2.08-.23-2.78s-.61-1.27-1.17-1.76Zm-7.1,4.46c-.19,1.43-.15,2.43.11,2.99s.8.84,1.61.84,1.41-.29,1.8-.85.65-1.56.78-2.98.06-2.33-.21-2.84-.78-.75-1.54-.75-1.33.25-1.71.75-.66,1.45-.85,2.84Zm1.66,3.32c-.56-.07-.93-.33-1.1-.78s-.19-1.22-.05-2.32c.18-1.39.4-2.29.69-2.72s.72-.63,1.31-.63c.41,0,.74.12.97.37s.35.59.35,1.02c-.19-.12-.37-.21-.51-.26s-.29-.08-.42-.08c-.34,0-.59.11-.74.32s-.28.73-.37,1.57l-.03.28c-.05.43-.08.9-.1,1.43s-.02,1.13,0,1.81Z" style="fill: #fff; stroke-width: 0px;"/>
        <path d="m100.92,33.03h3.24l2.46-4.2.87.92-2.63,4.57h-2.25l-1.71-1.29Zm1.65-4.2h3.38l-2.16,3.63h-2.61l1.39-3.63Z" style="fill: #fff; stroke-width: 0px;"/>
        <path d="m120.08,25.48c.24,1.94-.03,3.35-.81,4.17s-2.32,1.26-4.56,1.26-3.83-.42-4.75-1.25-1.38-2.22-1.42-4.18.34-3.18,1.15-3.9,2.21-1.07,4.26-1.07,3.51.36,4.41,1.07,1.49,2.01,1.72,3.9Zm-1.65-4.45l1.51,1.06c.63.45,1.11.97,1.43,1.58s.56,1.45.71,2.53c.29,2.1-.07,3.73-1.11,4.84s-2.8,1.71-5.2,1.71c-.7,0-1.33-.07-1.89-.21s-1.04-.35-1.43-.62l-1.6-1.13c.4.24.9.41,1.5.52s1.44.16,2.51.16c2.37,0,4.01-.47,4.9-1.41s1.18-2.43.91-4.5c-.15-1.16-.4-2.08-.75-2.78s-.84-1.27-1.49-1.76Zm-6.27,4.46c.08,1.43.3,2.43.67,2.99s.96.84,1.77.84,1.36-.29,1.65-.85.36-1.56.23-2.98-.37-2.33-.74-2.84-.92-.75-1.68-.75-1.29.25-1.57.75-.4,1.45-.32,2.84Zm2.27,3.32c-.57-.07-.99-.33-1.24-.78s-.41-1.22-.48-2.32c-.08-1.39-.02-2.29.18-2.72s.6-.63,1.19-.63c.41,0,.76.12,1.04.37s.46.59.54,1.02c-.22-.12-.4-.21-.56-.26s-.3-.08-.43-.08c-.34,0-.57.11-.68.32s-.14.73-.08,1.57l.02.28c.03.43.09.9.17,1.43s.19,1.13.34,1.81Z" style="fill: #fff; stroke-width: 0px;"/>
        <path d="m134.44,25.48c.48,1.94.39,3.35-.3,4.17s-2.16,1.26-4.4,1.26-3.88-.42-4.9-1.25-1.65-2.22-1.94-4.18-.05-3.18.66-3.9,2.08-1.07,4.13-1.07,3.55.36,4.55,1.07,1.74,2.01,2.21,3.9Zm-2.21-4.45l1.64,1.06c.69.45,1.23.97,1.63,1.58s.74,1.45,1.02,2.53c.55,2.1.39,3.73-.51,4.84s-2.59,1.71-4.99,1.71c-.7,0-1.34-.07-1.92-.21s-1.08-.35-1.51-.62l-1.74-1.13c.43.24.95.41,1.56.52s1.45.16,2.53.16c2.37,0,3.95-.47,4.73-1.41s.88-2.43.36-4.5c-.29-1.16-.66-2.08-1.09-2.78s-1-1.27-1.71-1.76Zm-5.72,4.46c.26,1.43.6,2.43,1.04,2.99s1.07.84,1.87.84,1.32-.29,1.54-.85.17-1.56-.14-2.98-.66-2.33-1.09-2.84-1.01-.75-1.77-.75-1.26.25-1.48.75-.22,1.45.03,2.84Zm2.69,3.32c-.58-.07-1.03-.33-1.34-.78s-.57-1.22-.77-2.32c-.26-1.39-.3-2.29-.15-2.72s.52-.63,1.11-.63c.41,0,.78.12,1.09.37s.54.59.67,1.02c-.23-.12-.43-.21-.59-.26s-.31-.08-.44-.08c-.34,0-.56.11-.64.32s-.05.73.11,1.57l.05.28c.08.43.2.9.34,1.43s.33,1.13.56,1.81Z" style="fill: #fff; stroke-width: 0px;"/>
        <path d="m148.8,25.48c.72,1.94.8,3.35.22,4.17s-2.01,1.26-4.25,1.26-3.93-.42-5.05-1.25-1.93-2.22-2.46-4.18-.45-3.18.18-3.9,1.95-1.07,3.99-1.07,3.6.36,4.68,1.07,1.99,2.01,2.69,3.9Zm-2.76-4.45l1.77,1.06c.74.45,1.35.97,1.82,1.58s.92,1.45,1.34,2.53c.81,2.1.86,3.73.09,4.84s-2.37,1.71-4.78,1.71c-.7,0-1.34-.07-1.95-.21s-1.13-.35-1.58-.62l-1.88-1.13c.46.24,1,.41,1.63.52s1.47.16,2.54.16c2.37,0,3.89-.47,4.56-1.41s.58-2.43-.2-4.5c-.44-1.16-.91-2.08-1.44-2.78s-1.16-1.27-1.93-1.76Zm-5.16,4.46c.43,1.43.9,2.43,1.41,2.99s1.17.84,1.98.84,1.29-.29,1.43-.85-.03-1.56-.51-2.98-.95-2.33-1.44-2.84-1.11-.75-1.87-.75-1.23.25-1.39.75-.04,1.45.39,2.84Zm3.1,3.32c-.59-.07-1.07-.33-1.44-.78s-.72-1.22-1.05-2.32c-.43-1.39-.59-2.29-.49-2.72s.44-.63,1.03-.63c.41,0,.79.12,1.13.37s.61.59.79,1.02c-.25-.12-.45-.21-.63-.26s-.32-.08-.45-.08c-.34,0-.54.11-.6.32s.04.73.31,1.57l.09.28c.14.43.31.9.52,1.43s.47,1.13.79,1.81Z" style="fill: #fff; stroke-width: 0px;"/>
      </g>
    </g>
  </g>
</svg>