<?xml version="1.0" encoding="UTF-8"?>
<svg id="_图层_2" data-name="图层 2" xmlns="http://www.w3.org/2000/svg" viewBox="0 0 210.38 79.98">
  <g id="_图层_7" data-name="图层 7">
    <g>
      <g>
        <path d="m.83,28.84s2.15,26.45,107.59,26.28c105.43-.17,100.23-29.65,100.23-29.65,0,0,3.22,16.26-.01,30.16,0,0-5.55,20.99-99.29,24.05,0,0-88.53.38-107.75-23.53l-.76-27.3Z" style="fill: #1698ca; stroke: #1085a8; stroke-miterlimit: 10; stroke-width: .61px;"/>
        <ellipse cx="105.45" cy="27.98" rx="103.7" ry="27.67" style="fill: #1698ca; stroke: #1085a8; stroke-miterlimit: 10; stroke-width: .61px;"/>
        <rect x="90.42" y="2.11" width="27.39" height="6.98" style="fill: none; stroke: #fff; stroke-miterlimit: 10; stroke-width: .31px;"/>
        <ellipse cx="99.23" cy="4.15" rx="1.84" ry=".47" style="fill: #fff; stroke-width: 0px;"/>
        <ellipse cx="99.23" cy="5.85" rx="1.84" ry=".47" style="fill: #fff; stroke-width: 0px;"/>
        <ellipse cx="99.34" cy="7.52" rx="1.84" ry=".47" style="fill: #fff; stroke-width: 0px;"/>
        <ellipse cx="112.16" cy="3.97" rx="1.84" ry=".47" style="fill: #fff; stroke-width: 0px;"/>
        <ellipse cx="112.16" cy="5.85" rx="1.84" ry=".47" style="fill: #fff; stroke-width: 0px;"/>
        <ellipse cx="112.16" cy="7.52" rx="1.84" ry=".47" style="fill: #fff; stroke-width: 0px;"/>
        <polygon points="11.9 37.54 36.99 33.99 51.41 40.37 27.96 43.42 11.9 37.54" style="fill: none; stroke: #fff; stroke-miterlimit: 10; stroke-width: .31px;"/>
        <ellipse cx="33.89" cy="36.6" rx="1.94" ry=".57" style="fill: #fff; stroke-width: 0px;"/>
        <ellipse cx="31.34" cy="38.86" rx="1.94" ry=".57" style="fill: #fff; stroke-width: 0px;"/>
        <ellipse cx="29.04" cy="41" rx="1.94" ry=".57" style="fill: #fff; stroke-width: 0px;"/>
        <ellipse cx="22.59" cy="38.29" rx="1.94" ry=".57" style="fill: #fff; stroke-width: 0px;"/>
        <ellipse cx="40.29" cy="39.66" rx="1.94" ry=".57" style="fill: #fff; stroke-width: 0px;"/>
        <path d="m67.71,2.11l7.87,5.82s-18.3,2.19-20.61,3.46l-16.39-4.74s19.53-4.36,29.14-4.54Z" style="fill: #fff; stroke: #1085a8; stroke-miterlimit: 10; stroke-width: .61px;"/>
        <path d="m143.64,2.41l-7.87,5.82s18.3,2.19,20.61,3.46l16.39-4.74s-19.53-4.36-29.14-4.54Z" style="fill: #fff; stroke: #1085a8; stroke-miterlimit: 10; stroke-width: .61px;"/>
        <path d="m207.22,32.97l-21.97-1.05s2.04-4.28,0-7.13l23.26-.07s1.36,4.3-1.29,8.25Z" style="fill: #fff; stroke: #1085a8; stroke-miterlimit: 10; stroke-width: .62px;"/>
        <path d="m156.2,44.9c-2.55,1.15-21.77,3.23-21.77,3.23l7.63,5.31v.28c16.32-.14,24.58-2.31,28.15-3.66l-14.01-5.15Z" style="fill: #fff; stroke: #1085a8; stroke-miterlimit: 10; stroke-width: .61px;"/>
        <path d="m142.05,53.71v23.92s17.71-.83,28.54-3.82v-23.62l-.39-.14c-3.57,1.35-11.83,3.52-28.15,3.66Z" style="fill: #fff; stroke: #1085a8; stroke-miterlimit: 10; stroke-width: .61px;"/>
        <path d="m68.18,53.09v24.54c-11.08-1.2-20.52-2.92-28.5-4.86v-23.31c7.8,1.49,17.2,2.75,28.5,3.62Z" style="fill: #fff; stroke: #1085a8; stroke-miterlimit: 10; stroke-width: .61px;"/>
        <path d="m39.68,49.47h0s15.04-4.57,15.04-4.57c0,0,19.91,3.92,22,3.23,2.09-.69-8.54,4.97-8.54,4.97,0,0-23.06-2.49-28.5-3.63" style="fill: #fff; stroke: #1085a8; stroke-miterlimit: 10; stroke-width: .61px;"/>
        <path d="m3.58,32.72l22.39-1.01s-2.08-4.15,0-6.92l-23.71-.07s-1.39,4.17,1.32,8Z" style="fill: #fff; stroke: #1085a8; stroke-miterlimit: 10; stroke-width: .61px;"/>
        <path d="m2.26,24.72s-4.16,8.88-.36,31.3c0,0,.18-23.24,1.67-23.3,0,0-1.7-5.84-1.32-8Z" style="fill: #fff; stroke: #1085a8; stroke-miterlimit: 10; stroke-width: .61px;"/>
        <path d="m105.24,10.8c-37.02,0-67.02,7.69-67.02,17.17s30.01,17.17,67.02,17.17,67.02-7.69,67.02-17.17-30.01-17.17-67.02-17.17Zm.37,33.17c-34.01,0-61.58-7.18-61.58-16.04s27.57-16.04,61.58-16.04,61.58,7.18,61.58,16.04-27.57,16.04-61.58,16.04Z" style="fill: #1085a8; stroke-width: 0px;"/>
        <path d="m160.6,35.16c-1.64.84-3.55,1.64-5.71,2.39l.13,1.92c4.34-1.23,7.98-2.62,10.79-4.14l-5.21-.18Z" style="fill: #fff; stroke-width: 0px;"/>
        <path d="m167.19,28.03c0,1.12-.44,2.21-1.28,3.26l4.92.32c.93-1.14,1.43-2.32,1.43-3.54,0-.4-.06-.79-.16-1.19h-5.07c.1.38.16.76.16,1.14Z" style="fill: #fff; stroke-width: 0px;"/>
        <path d="m131.27,13.43c5.23.62,10.06,1.42,14.38,2.37l.21-1.43c-4.4-.85-9.21-1.57-14.36-2.12l-.23,1.18Z" style="fill: #fff; stroke-width: 0px;"/>
        <path d="m97.5,10.96v1.12c2.65-.09,5.36-.14,8.11-.14s5.65.05,8.39.15v-1.09c-2.87-.1-5.79-.15-8.76-.15-2.62,0-5.2.04-7.74.11Z" style="fill: #fff; stroke-width: 0px;"/>
        <path d="m159.51,17.98l-3.45.84c3.68,1.38,6.56,2.91,8.45,4.56l3.62-1.23c-2.13-1.5-5.05-2.9-8.62-4.16Z" style="fill: #fff; stroke-width: 0px;"/>
        <path d="m44.04,27.93c0-.46.08-.92.23-1.37h-5.82c-.15.47-.23.94-.23,1.41,0,1.29.56,2.54,1.61,3.75l5.55-.46c-.87-1.08-1.33-2.19-1.33-3.33Z" style="fill: #fff; stroke-width: 0px;"/>
        <path d="m56.12,37.48c-2.47-.87-4.61-1.8-6.37-2.79l-5.17.6c2.96,1.61,6.87,3.08,11.54,4.37v-2.18Z" style="fill: #fff; stroke-width: 0px;"/>
        <path d="m81.35,42.68c-4.37-.49-8.47-1.1-12.25-1.83l-1.92,1.26c4.41.78,9.2,1.43,14.28,1.92l-.11-1.36Z" style="fill: #fff; stroke-width: 0px;"/>
        <path d="m112.92,45.04v-1.18c-2.4.07-4.84.11-7.31.11s-4.8-.04-7.14-.11l-.05,1.2c2.24.06,4.51.09,6.81.09,2.6,0,5.16-.04,7.68-.11Z" style="fill: #fff; stroke-width: 0px;"/>
        <path d="m65.88,14.08l-.05,1.62c4.22-.93,8.94-1.72,14.03-2.33l-.9-1.19c-4.65.51-9.03,1.15-13.07,1.9Z" style="fill: #fff; stroke-width: 0px;"/>
        <path d="m43.73,21.14l3.19,1.93c1.75-1.44,4.26-2.78,7.4-4.01l-3.26-1.19c-2.89,1.01-5.35,2.11-7.32,3.28Z" style="fill: #fff; stroke-width: 0px;"/>
        <path d="m142.22,40.83c-3.77.73-7.87,1.34-12.23,1.83v1.27c4.77-.49,9.26-1.11,13.42-1.85l-1.2-1.26Z" style="fill: #fff; stroke-width: 0px;"/>
        <polygon points="90.44 53.37 117.8 53.09 117.8 46.15 90.44 46.15 90.44 53.37" style="fill: none; stroke: #fff; stroke-miterlimit: 10; stroke-width: .31px;"/>
        <ellipse cx="105.61" cy="49.92" rx="2.15" ry=".53" style="fill: #fff; stroke-width: 0px;"/>
        <polygon points="11.9 17.87 25.45 12.02 50.35 15.21 37.09 21.18 11.9 17.87" style="fill: none; stroke: #fff; stroke-miterlimit: 10; stroke-width: .31px;"/>
        <ellipse cx="29.03" cy="14.5" rx="1.94" ry=".57" style="fill: #fff; stroke-width: 0px;"/>
        <ellipse cx="22.77" cy="17.51" rx="1.94" ry=".57" style="fill: #fff; stroke-width: 0px;"/>
        <ellipse cx="33.89" cy="19.04" rx="1.94" ry=".57" style="fill: #fff; stroke-width: 0px;"/>
        <ellipse cx="40.16" cy="16.23" rx="1.94" ry=".57" style="fill: #fff; stroke-width: 0px;"/>
        <polygon points="175.5 21.25 199.06 17.98 186.04 11.9 160.35 14.97 175.5 21.25" style="fill: none; stroke: #fff; stroke-miterlimit: 10; stroke-width: .31px;"/>
        <ellipse cx="171.2" cy="16.24" rx="2.11" ry=".67" style="fill: #fff; stroke-width: 0px;"/>
        <ellipse cx="188.55" cy="17.49" rx="2.11" ry=".67" style="fill: #fff; stroke-width: 0px;"/>
        <polygon points="174.05 33.68 198.37 37.32 185.25 43.36 160.85 39.84 174.05 33.68" style="fill: none; stroke: #fff; stroke-miterlimit: 10; stroke-width: .31px;"/>
        <ellipse cx="177.46" cy="36.56" rx="2.15" ry=".65" style="fill: #fff; stroke-width: 0px;"/>
        <ellipse cx="179.78" cy="38.95" rx="2.15" ry=".65" style="fill: #fff; stroke-width: 0px;"/>
        <ellipse cx="182.15" cy="41.18" rx="2.15" ry=".65" style="fill: #fff; stroke-width: 0px;"/>
        <path d="m207.65,33.84s2.98-4.18,1.31,22.48c0,0,2.51-23.67.01-30.27,0,0-.54,6.72-1.32,7.79Z" style="fill: #fff; stroke: #1085a8; stroke-miterlimit: 10; stroke-width: .6px;"/>
      </g>
      <g>
        <path d="m60.68,32.03l.67-1.74h2.25l2.1-5.7-2.55,1.05.8-2.07,3.22-1.35h2.41l-2.75,8.07h2.24l-.56,1.74h-7.84Zm2.25-5.81l1.93-.78-.46,1.22-.76.28-.71-.72Zm-2.47,6.37h8.46l.73-2.3.96.9-.81,2.63h-7.94l-1.39-1.23Zm9.65-10.37l.83,1.03-2.12,6.5h-1.24l2.53-7.53Z" style="fill: #fff; stroke-width: 0px;"/>
        <path d="m85.93,26.94c-.36,1.94-1.06,3.35-2.1,4.17s-2.71,1.26-4.95,1.26-3.7-.42-4.36-1.25-.69-2.22-.13-4.18,1.32-3.18,2.35-3.9,2.54-1.07,4.59-1.07,3.4.36,4.08,1.07.87,2.01.51,3.9Zm-.28-4.45l1.18,1.06c.5.45.81.97.94,1.58s.11,1.45-.07,2.53c-.36,2.1-1.22,3.73-2.61,4.84s-3.33,1.71-5.73,1.71c-.7,0-1.31-.07-1.83-.21s-.93-.35-1.24-.62l-1.25-1.13c.33.24.77.41,1.34.52s1.39.16,2.46.16c2.37,0,4.16-.47,5.34-1.41s1.93-2.43,2.31-4.5c.21-1.16.25-2.08.11-2.78s-.45-1.27-.95-1.76Zm-7.65,4.46c-.36,1.43-.45,2.43-.26,2.99s.7.84,1.51.84,1.45-.29,1.91-.85.84-1.56,1.15-2.98.35-2.33.14-2.84-.69-.75-1.45-.75-1.36.25-1.8.75-.84,1.45-1.2,2.84Zm1.24,3.32c-.55-.07-.89-.33-1-.78s-.03-1.22.24-2.32c.35-1.39.69-2.29,1.02-2.72s.8-.63,1.39-.63c.41,0,.72.12.93.37s.28.59.23,1.02c-.18-.12-.34-.21-.48-.26s-.28-.08-.41-.08c-.34,0-.6.11-.78.32s-.37.73-.57,1.57l-.07.28c-.1.43-.19.9-.28,1.43s-.16,1.13-.22,1.81Z" style="fill: #fff; stroke-width: 0px;"/>
        <path d="m100.29,26.94c-.12,1.94-.65,3.35-1.59,4.17s-2.55,1.26-4.79,1.26-3.75-.42-4.51-1.25-.96-2.22-.65-4.18.93-3.18,1.87-3.9,2.41-1.07,4.46-1.07,3.44.36,4.21,1.07,1.12,2.01,1,3.9Zm-.83-4.45l1.31,1.06c.55.45.93.97,1.14,1.58s.29,1.45.24,2.53c-.1,2.1-.76,3.73-2.01,4.84s-3.12,1.71-5.52,1.71c-.7,0-1.31-.07-1.85-.21s-.98-.35-1.31-.62l-1.39-1.13c.36.24.82.41,1.4.52s1.41.16,2.48.16c2.37,0,4.1-.47,5.17-1.41s1.63-2.43,1.75-4.5c.07-1.16-.01-2.08-.23-2.78s-.61-1.27-1.17-1.76Zm-7.1,4.46c-.19,1.43-.15,2.43.11,2.99s.8.84,1.61.84,1.41-.29,1.8-.85.65-1.56.78-2.98.06-2.33-.21-2.84-.78-.75-1.54-.75-1.33.25-1.71.75-.66,1.45-.85,2.84Zm1.66,3.32c-.56-.07-.93-.33-1.1-.78s-.19-1.22-.05-2.32c.18-1.39.4-2.29.69-2.72s.72-.63,1.31-.63c.41,0,.74.12.97.37s.35.59.35,1.02c-.19-.12-.37-.21-.51-.26s-.29-.08-.42-.08c-.34,0-.59.11-.74.32s-.28.73-.37,1.57l-.03.28c-.05.43-.08.9-.1,1.43s-.02,1.13,0,1.81Z" style="fill: #fff; stroke-width: 0px;"/>
        <path d="m102.68,34.5h3.24l2.46-4.2.87.92-2.63,4.57h-2.25l-1.71-1.29Zm1.65-4.2h3.38l-2.16,3.63h-2.61l1.39-3.63Z" style="fill: #fff; stroke-width: 0px;"/>
        <path d="m121.83,26.94c.24,1.94-.03,3.35-.81,4.17s-2.32,1.26-4.56,1.26-3.83-.42-4.75-1.25-1.38-2.22-1.42-4.18.34-3.18,1.15-3.9,2.21-1.07,4.26-1.07,3.51.36,4.41,1.07,1.49,2.01,1.72,3.9Zm-1.65-4.45l1.51,1.06c.63.45,1.11.97,1.43,1.58s.56,1.45.71,2.53c.29,2.1-.07,3.73-1.11,4.84s-2.8,1.71-5.2,1.71c-.7,0-1.33-.07-1.89-.21s-1.04-.35-1.43-.62l-1.6-1.13c.4.24.9.41,1.5.52s1.44.16,2.51.16c2.37,0,4.01-.47,4.9-1.41s1.18-2.43.91-4.5c-.15-1.16-.4-2.08-.75-2.78s-.84-1.27-1.49-1.76Zm-6.27,4.46c.08,1.43.3,2.43.67,2.99s.96.84,1.77.84,1.36-.29,1.65-.85.36-1.56.23-2.98-.37-2.33-.74-2.84-.92-.75-1.68-.75-1.29.25-1.57.75-.4,1.45-.32,2.84Zm2.27,3.32c-.57-.07-.99-.33-1.24-.78s-.41-1.22-.48-2.32c-.08-1.39-.02-2.29.18-2.72s.6-.63,1.19-.63c.41,0,.76.12,1.04.37s.46.59.54,1.02c-.22-.12-.4-.21-.56-.26s-.3-.08-.43-.08c-.34,0-.57.11-.68.32s-.14.73-.08,1.57l.02.28c.03.43.09.9.17,1.43s.19,1.13.34,1.81Z" style="fill: #fff; stroke-width: 0px;"/>
        <path d="m136.19,26.94c.48,1.94.39,3.35-.3,4.17s-2.16,1.26-4.4,1.26-3.88-.42-4.9-1.25-1.65-2.22-1.94-4.18-.05-3.18.66-3.9,2.08-1.07,4.13-1.07,3.55.36,4.55,1.07,1.74,2.01,2.21,3.9Zm-2.21-4.45l1.64,1.06c.69.45,1.23.97,1.63,1.58s.74,1.45,1.02,2.53c.55,2.1.39,3.73-.51,4.84s-2.59,1.71-4.99,1.71c-.7,0-1.34-.07-1.92-.21s-1.08-.35-1.51-.62l-1.74-1.13c.43.24.95.41,1.56.52s1.45.16,2.53.16c2.37,0,3.95-.47,4.73-1.41s.88-2.43.36-4.5c-.29-1.16-.66-2.08-1.09-2.78s-1-1.27-1.71-1.76Zm-5.72,4.46c.26,1.43.6,2.43,1.04,2.99s1.07.84,1.87.84,1.32-.29,1.54-.85.17-1.56-.14-2.98-.66-2.33-1.09-2.84-1.01-.75-1.77-.75-1.26.25-1.48.75-.22,1.45.03,2.84Zm2.69,3.32c-.58-.07-1.03-.33-1.34-.78s-.57-1.22-.77-2.32c-.26-1.39-.3-2.29-.15-2.72s.52-.63,1.11-.63c.41,0,.78.12,1.09.37s.54.59.67,1.02c-.23-.12-.43-.21-.59-.26s-.31-.08-.44-.08c-.34,0-.56.11-.64.32s-.05.73.11,1.57l.05.28c.08.43.2.9.34,1.43s.33,1.13.56,1.81Z" style="fill: #fff; stroke-width: 0px;"/>
        <path d="m150.55,26.94c.72,1.94.8,3.35.22,4.17s-2.01,1.26-4.25,1.26-3.93-.42-5.05-1.25-1.93-2.22-2.46-4.18-.45-3.18.18-3.9,1.95-1.07,3.99-1.07,3.6.36,4.68,1.07,1.99,2.01,2.69,3.9Zm-2.76-4.45l1.77,1.06c.74.45,1.35.97,1.82,1.58s.92,1.45,1.34,2.53c.81,2.1.86,3.73.09,4.84s-2.37,1.71-4.78,1.71c-.7,0-1.34-.07-1.95-.21s-1.13-.35-1.58-.62l-1.88-1.13c.46.24,1,.41,1.63.52s1.47.16,2.54.16c2.37,0,3.89-.47,4.56-1.41s.58-2.43-.2-4.5c-.44-1.16-.91-2.08-1.44-2.78s-1.16-1.27-1.93-1.76Zm-5.16,4.46c.43,1.43.9,2.43,1.41,2.99s1.17.84,1.98.84,1.29-.29,1.43-.85-.03-1.56-.51-2.98-.95-2.33-1.44-2.84-1.11-.75-1.87-.75-1.23.25-1.39.75-.04,1.45.39,2.84Zm3.1,3.32c-.59-.07-1.07-.33-1.44-.78s-.72-1.22-1.05-2.32c-.43-1.39-.59-2.29-.49-2.72s.44-.63,1.03-.63c.41,0,.79.12,1.13.37s.61.59.79,1.02c-.25-.12-.45-.21-.63-.26s-.32-.08-.45-.08c-.34,0-.54.11-.6.32s.04.73.31,1.57l.09.28c.14.43.31.9.52,1.43s.47,1.13.79,1.81Z" style="fill: #fff; stroke-width: 0px;"/>
      </g>
    </g>
  </g>
</svg>