<?xml version="1.0" encoding="UTF-8"?>
<svg id="_图层_2" data-name="图层 2" xmlns="http://www.w3.org/2000/svg" viewBox="0 0 210.38 79.93">
  <g id="_图层_7" data-name="图层 7">
    <g>
      <g>
        <ellipse cx="104.67" cy="27.8" rx="104.37" ry="27.55" style="fill: #1698ca; stroke: #1085a8; stroke-miterlimit: 10; stroke-width: .51px;"/>
        <path d="m104.57,9.57c-36.85,0-66.72,8.05-66.72,17.98s29.87,17.98,66.72,17.98,66.72-8.05,66.72-17.98-29.87-17.98-66.72-17.98Zm.32,33.95c-33.7,0-61.02-7.04-61.02-15.73s27.32-15.73,61.02-15.73,61.02,7.04,61.02,15.73-27.32,15.73-61.02,15.73Z" style="fill: #1085a8; stroke-width: 0px;"/>
        <path d="m133.67,41.66c-3.74.52-7.72.94-11.88,1.25l-.3,2.04c5.15-.36,10.06-.89,14.64-1.55-.75-.53-1.66-1.17-2.46-1.74Z" style="fill: #fff; stroke-width: 0px;"/>
        <path d="m157.48,35.77c-2.44,1.07-5.36,2.05-8.67,2.94l.16,2.27c5.09-1.22,9.47-2.65,12.98-4.24l-4.46-.97Z" style="fill: #fff; stroke-width: 0px;"/>
        <path d="m43.87,27.79c0-1.24.55-2.44,1.6-3.59l-6.23-.31c-.91,1.18-1.39,2.41-1.39,3.67,0,.49.08.98.22,1.47h5.98c-.12-.41-.18-.81-.18-1.23Z" style="fill: #fff; stroke-width: 0px;"/>
        <path d="m165.88,28.28c-.21,1.79-1.58,3.5-3.92,5.08l5.48.22c2.2-1.67,3.52-3.45,3.8-5.3h-5.36Z" style="fill: #fff; stroke-width: 0px;"/>
        <path d="m163.66,19.19l-5.07,1.12c2.81,1.34,4.89,2.79,6.1,4.33l5.34-.59c-1.26-1.72-3.43-3.35-6.37-4.86Z" style="fill: #fff; stroke-width: 0px;"/>
        <path d="m136.96,14.4c5.3.85,10.06,1.89,14.12,3.11l-.17-2.9c-3.48-.91-7.32-1.71-11.46-2.4l-2.48,2.19Z" style="fill: #fff; stroke-width: 0px;"/>
        <path d="m104.67,12.06c.07,0,.14,0,.22,0,5.75,0,11.31.21,16.58.59l-.7-2.54c-4.67-.31-9.52-.5-14.52-.53l-1.57,2.49Z" style="fill: #fff; stroke-width: 0px;"/>
        <path d="m47.14,18.39l2.64,2.63c2.7-1.46,6.24-2.79,10.46-3.96l-3.82-1.96c-3.54.99-6.65,2.1-9.28,3.29Z" style="fill: #fff; stroke-width: 0px;"/>
        <path d="m72.24,11.82l-.31,2.73c4.79-.79,10.03-1.42,15.61-1.84l-1.53-2.43c-4.84.38-9.46.9-13.78,1.54Z" style="fill: #fff; stroke-width: 0px;"/>
        <path d="m103.77,43.52c-4.48-.02-8.85-.17-13.04-.42l-1.74,1.95c4.93.32,10.08.49,15.37.49l-.58-2.02Z" style="fill: #fff; stroke-width: 0px;"/>
        <path d="m72.99,41.2c-3.69-.59-7.13-1.27-10.25-2.04l-3.17,1.66c4.23,1.04,8.96,1.94,14.09,2.66l-.66-2.29Z" style="fill: #fff; stroke-width: 0px;"/>
        <path d="m49.4,37.66l2.94-1.88c-2.39-1.04-4.34-2.16-5.75-3.35l-5.5.65c1.97,1.64,4.78,3.18,8.31,4.57Z" style="fill: #fff; stroke-width: 0px;"/>
        <path d="m62.02,9.57l23.45-2.32-5.18-6.23c-10.95.69-21.23,1.84-30.53,3.36l12.26,5.2Z" style="fill: #fff; stroke: #1085a8; stroke-miterlimit: 10; stroke-width: .51px;"/>
        <path d="m154.57,3.6l-10.55,5.96s13,1.39,18.89,3.88l17.8-4.51c-7.56-2.12-16.37-3.93-26.14-5.33Z" style="fill: #fff; stroke: #1085a8; stroke-miterlimit: 10; stroke-width: .51px;"/>
        <path d="m182.63,33.59l22.04,2.12c2.84-2.5,4.37-5.16,4.37-7.91,0-.08,0-.15-.01-.22l-24.01.22s.29,3.31-2.39,5.78Z" style="fill: #fff; stroke: #1085a8; stroke-miterlimit: 10; stroke-width: .51px;"/>
        <path d="m146.99,46.27c-12.92,2.93-23.26,2.42-23.26,2.42l4.82,5.94c10.56-.65,20.5-1.73,29.56-3.16l-11.12-5.2Z" style="fill: #fff; stroke: #1085a8; stroke-miterlimit: 10; stroke-width: .51px;"/>
        <path d="m31.18,47.12c7.39,1.95,15.89,3.6,25.22,4.9l9.68-5.4c-9.26-.29-19.16-3.71-19.16-3.71l-15.74,4.21Z" style="fill: #fff; stroke: #1085a8; stroke-miterlimit: 10; stroke-width: .51px;"/>
        <path d="m.31,27.8c0,.2.01.39.03.59l24.31-.17s.24-3.86,3.3-5.91l-23.98-1.76c-2.38,2.31-3.66,4.74-3.66,7.25Z" style="fill: #fff; stroke: #1085a8; stroke-miterlimit: 10; stroke-width: .51px;"/>
        <path d="m.31,28.42s2.16,26.64,107.85,26.47c105.7-.17,100.48-29.87,100.48-29.87,0,0,3.23,16.38-.01,30.38,0,0-5.56,21.14-99.54,24.22,0,0-88.75.38-108.02-23.7L.31,28.42Z" style="fill: #fff; opacity: .5; stroke: #231815; stroke-miterlimit: 10; stroke-width: .61px;"/>
        <path d="m.31,28.42s2.16,26.64,107.85,26.47c105.7-.17,100.48-29.87,100.48-29.87,0,0,3.23,16.38-.01,30.38,0,0-5.56,21.14-99.54,24.22,0,0-88.75.38-108.02-23.7L.31,28.42Z" style="fill: #1698ca; stroke: #1085a8; stroke-miterlimit: 10; stroke-width: .61px;"/>
        <path d="m55.83,52.14c-10.08-1.33-18.23-3.05-24.82-4.96-.22,1.93-.07,17.04.01,23.64,7.77,2.24,16.33,3.91,24.81,5.16v-23.83Z" style="fill: #fff; stroke: #1085a8; stroke-miterlimit: 10; stroke-width: .6px;"/>
        <polygon points="81.24 46.27 109.82 47.18 107.3 53.96 77.22 53.23 81.24 46.27" style="fill: none; stroke: #fff; stroke-miterlimit: 10; stroke-width: .16px;"/>
        <ellipse cx="101.03" cy="48.43" rx="1.61" ry=".49" style="fill: #fff; stroke-width: 0px;"/>
        <ellipse cx="99.31" cy="51.8" rx="1.61" ry=".49" style="fill: #fff; stroke-width: 0px;"/>
        <ellipse cx="93.92" cy="49.89" rx="1.61" ry=".49" style="fill: #fff; stroke-width: 0px;"/>
        <ellipse cx="88.22" cy="47.94" rx="1.61" ry=".49" style="fill: #fff; stroke-width: 0px;"/>
        <ellipse cx="86.62" cy="51.32" rx="1.61" ry=".49" style="fill: #fff; stroke-width: 0px;"/>
        <ellipse cx="29.55" cy="34.07" rx="1.61" ry=".49" style="fill: #fff; stroke-width: 0px;"/>
        <ellipse cx="34.24" cy="37.04" rx="1.61" ry=".49" style="fill: #fff; stroke-width: 0px;"/>
        <ellipse cx="22.61" cy="38.35" rx="1.61" ry=".49" style="fill: #fff; stroke-width: 0px;"/>
        <ellipse cx="17.68" cy="35.07" rx="1.61" ry=".49" style="fill: #fff; stroke-width: 0px;"/>
        <polygon points="9.4 34.07 19.29 40.93 45.01 38.35 34.76 31.21 9.4 34.07" style="fill: none; stroke: #fff; stroke-miterlimit: 10; stroke-width: .16px;"/>
        <ellipse cx="38.27" cy="16.12" rx="1.61" ry=".49" style="fill: #fff; stroke-width: 0px;"/>
        <ellipse cx="33.1" cy="15.1" rx="1.61" ry=".49" style="fill: #fff; stroke-width: 0px;"/>
        <ellipse cx="28.14" cy="14.13" rx="1.61" ry=".49" style="fill: #fff; stroke-width: 0px;"/>
        <ellipse cx="35.85" cy="11.47" rx="1.61" ry=".49" style="fill: #fff; stroke-width: 0px;"/>
        <ellipse cx="40.89" cy="12.44" rx="1.61" ry=".49" style="fill: #fff; stroke-width: 0px;"/>
        <ellipse cx="45.98" cy="13.41" rx="1.61" ry=".49" style="fill: #fff; stroke-width: 0px;"/>
        <polygon points="18.1 13.89 39.88 18.39 55.62 12.68 33.6 8.72 18.1 13.89" style="fill: none; stroke: #fff; stroke-miterlimit: 10; stroke-width: .16px;"/>
        <path d="m102.96,1.01l-3.54,6.98,27.04,1.03s3.35-6.98,3.35-7.08-26.85-.92-26.85-.92Z" style="fill: none; stroke: #fff; stroke-miterlimit: 10; stroke-width: .16px;"/>
        <ellipse cx="108.65" cy="6.6" rx="1.61" ry=".49" style="fill: #fff; stroke-width: 0px;"/>
        <ellipse cx="123.07" cy="3.68" rx="1.61" ry=".49" style="fill: #fff; stroke-width: 0px;"/>
        <ellipse cx="175.28" cy="17.99" rx="1.61" ry=".49" style="fill: #fff; stroke-width: 0px;"/>
        <ellipse cx="183.6" cy="18.68" rx="1.61" ry=".49" style="fill: #fff; stroke-width: 0px;"/>
        <ellipse cx="191.94" cy="19.68" rx="1.61" ry=".49" style="fill: #fff; stroke-width: 0px;"/>
        <polygon points="166.59 16.49 191.36 13.85 202.49 20.16 176.88 23.38 166.59 16.49" style="fill: none; stroke: #fff; stroke-miterlimit: 10; stroke-width: .16px;"/>
        <polygon points="153.14 41.57 169.65 35.77 191.67 40.15 175.4 45.77 153.14 41.57" style="fill: none; stroke: #fff; stroke-miterlimit: 10; stroke-width: .16px;"/>
        <ellipse cx="172.4" cy="41.25" rx="1.61" ry=".49" style="fill: #fff; stroke-width: 0px;"/>
        <path d="m128.81,78.61c11.33-.8,21.02-1.92,29.3-3.22v-23.67c-8.28,1.23-17.97,2.17-29.3,2.69v24.19Z" style="fill: #fff; stroke: #1085a8; stroke-miterlimit: 10; stroke-width: .61px;"/>
        <path d="m208.45,27.63c-.41,1.84-1.5,4.49-4.32,7.43.6,3.23,1.68,11.59.3,25.37,3.64-2.94,4.18-5.02,4.18-5.02.06-.25.11-.5.16-.74.13-7,.28-20.29-.33-27.04Z" style="fill: #fff; stroke: #1085a8; stroke-miterlimit: 10; stroke-width: .61px;"/>
      </g>
      <g>
        <path d="m57.23,30.94l.67-1.74h2.25l2.1-5.7-2.55,1.05.8-2.07,3.22-1.35h2.41l-2.75,8.07h2.24l-.56,1.74h-7.84Zm2.25-5.81l1.93-.78-.46,1.22-.76.28-.71-.72Zm-2.47,6.37h8.46l.73-2.3.96.9-.81,2.63h-7.94l-1.39-1.23Zm9.65-10.37l.83,1.03-2.12,6.5h-1.24l2.53-7.53Z" style="fill: #fff; stroke-width: 0px;"/>
        <path d="m82.48,25.85c-.36,1.94-1.06,3.35-2.1,4.17s-2.71,1.26-4.95,1.26-3.7-.42-4.36-1.25-.69-2.22-.13-4.18,1.32-3.18,2.35-3.9,2.54-1.07,4.59-1.07,3.4.36,4.08,1.07.87,2.01.51,3.9Zm-.28-4.45l1.18,1.06c.5.45.81.97.94,1.58s.11,1.45-.07,2.53c-.36,2.1-1.22,3.73-2.61,4.84s-3.33,1.71-5.73,1.71c-.7,0-1.31-.07-1.83-.21s-.93-.35-1.24-.62l-1.25-1.13c.33.24.77.41,1.34.52s1.39.16,2.46.16c2.37,0,4.16-.47,5.34-1.41s1.93-2.43,2.31-4.5c.21-1.16.25-2.08.11-2.78s-.45-1.27-.95-1.76Zm-7.65,4.46c-.36,1.43-.45,2.43-.26,2.99s.7.84,1.51.84,1.45-.29,1.91-.85.84-1.56,1.15-2.98.35-2.33.14-2.84-.69-.75-1.45-.75-1.36.25-1.8.75-.84,1.45-1.2,2.84Zm1.24,3.32c-.55-.07-.89-.33-1-.78s-.03-1.22.24-2.32c.35-1.39.69-2.29,1.02-2.72s.8-.63,1.39-.63c.41,0,.72.12.93.37s.28.59.23,1.02c-.18-.12-.34-.21-.48-.26s-.28-.08-.41-.08c-.34,0-.6.11-.78.32s-.37.73-.57,1.57l-.07.28c-.1.43-.19.9-.28,1.43s-.16,1.13-.22,1.81Z" style="fill: #fff; stroke-width: 0px;"/>
        <path d="m96.84,25.85c-.12,1.94-.65,3.35-1.59,4.17s-2.55,1.26-4.79,1.26-3.75-.42-4.51-1.25-.96-2.22-.65-4.18.93-3.18,1.87-3.9,2.41-1.07,4.46-1.07,3.44.36,4.21,1.07,1.12,2.01,1,3.9Zm-.83-4.45l1.31,1.06c.55.45.93.97,1.14,1.58s.29,1.45.24,2.53c-.1,2.1-.76,3.73-2.01,4.84s-3.12,1.71-5.52,1.71c-.7,0-1.31-.07-1.85-.21s-.98-.35-1.31-.62l-1.39-1.13c.36.24.82.41,1.4.52s1.41.16,2.48.16c2.37,0,4.1-.47,5.17-1.41s1.63-2.43,1.75-4.5c.07-1.16-.01-2.08-.23-2.78s-.61-1.27-1.17-1.76Zm-7.1,4.46c-.19,1.43-.15,2.43.11,2.99s.8.84,1.61.84,1.41-.29,1.8-.85.65-1.56.78-2.98.06-2.33-.21-2.84-.78-.75-1.54-.75-1.33.25-1.71.75-.66,1.45-.85,2.84Zm1.66,3.32c-.56-.07-.93-.33-1.1-.78s-.19-1.22-.05-2.32c.18-1.39.4-2.29.69-2.72s.72-.63,1.31-.63c.41,0,.74.12.97.37s.35.59.35,1.02c-.19-.12-.37-.21-.51-.26s-.29-.08-.42-.08c-.34,0-.59.11-.74.32s-.28.73-.37,1.57l-.03.28c-.05.43-.08.9-.1,1.43s-.02,1.13,0,1.81Z" style="fill: #fff; stroke-width: 0px;"/>
        <path d="m99.23,33.41h3.24l2.46-4.2.87.92-2.63,4.57h-2.25l-1.71-1.29Zm1.65-4.2h3.38l-2.16,3.63h-2.61l1.39-3.63Z" style="fill: #fff; stroke-width: 0px;"/>
        <path d="m118.38,25.85c.24,1.94-.03,3.35-.81,4.17s-2.32,1.26-4.56,1.26-3.83-.42-4.75-1.25-1.38-2.22-1.42-4.18.34-3.18,1.15-3.9,2.21-1.07,4.26-1.07,3.51.36,4.41,1.07,1.49,2.01,1.72,3.9Zm-1.65-4.45l1.51,1.06c.63.45,1.11.97,1.43,1.58s.56,1.45.71,2.53c.29,2.1-.07,3.73-1.11,4.84s-2.8,1.71-5.2,1.71c-.7,0-1.33-.07-1.89-.21s-1.04-.35-1.43-.62l-1.6-1.13c.4.24.9.41,1.5.52s1.44.16,2.51.16c2.37,0,4.01-.47,4.9-1.41s1.18-2.43.91-4.5c-.15-1.16-.4-2.08-.75-2.78s-.84-1.27-1.49-1.76Zm-6.27,4.46c.08,1.43.3,2.43.67,2.99s.96.84,1.77.84,1.36-.29,1.65-.85.36-1.56.23-2.98-.37-2.33-.74-2.84-.92-.75-1.68-.75-1.29.25-1.57.75-.4,1.45-.32,2.84Zm2.27,3.32c-.57-.07-.99-.33-1.24-.78s-.41-1.22-.48-2.32c-.08-1.39-.02-2.29.18-2.72s.6-.63,1.19-.63c.41,0,.76.12,1.04.37s.46.59.54,1.02c-.22-.12-.4-.21-.56-.26s-.3-.08-.43-.08c-.34,0-.57.11-.68.32s-.14.73-.08,1.57l.02.28c.03.43.09.9.17,1.43s.19,1.13.34,1.81Z" style="fill: #fff; stroke-width: 0px;"/>
        <path d="m132.74,25.85c.48,1.94.39,3.35-.3,4.17s-2.16,1.26-4.4,1.26-3.88-.42-4.9-1.25-1.65-2.22-1.94-4.18-.05-3.18.66-3.9,2.08-1.07,4.13-1.07,3.55.36,4.55,1.07,1.74,2.01,2.21,3.9Zm-2.21-4.45l1.64,1.06c.69.45,1.23.97,1.63,1.58s.74,1.45,1.02,2.53c.55,2.1.39,3.73-.51,4.84s-2.59,1.71-4.99,1.71c-.7,0-1.34-.07-1.92-.21s-1.08-.35-1.51-.62l-1.74-1.13c.43.24.95.41,1.56.52s1.45.16,2.53.16c2.37,0,3.95-.47,4.73-1.41s.88-2.43.36-4.5c-.29-1.16-.66-2.08-1.09-2.78s-1-1.27-1.71-1.76Zm-5.72,4.46c.26,1.43.6,2.43,1.04,2.99s1.07.84,1.87.84,1.32-.29,1.54-.85.17-1.56-.14-2.98-.66-2.33-1.09-2.84-1.01-.75-1.77-.75-1.26.25-1.48.75-.22,1.45.03,2.84Zm2.69,3.32c-.58-.07-1.03-.33-1.34-.78s-.57-1.22-.77-2.32c-.26-1.39-.3-2.29-.15-2.72s.52-.63,1.11-.63c.41,0,.78.12,1.09.37s.54.59.67,1.02c-.23-.12-.43-.21-.59-.26s-.31-.08-.44-.08c-.34,0-.56.11-.64.32s-.05.73.11,1.57l.05.28c.08.43.2.9.34,1.43s.33,1.13.56,1.81Z" style="fill: #fff; stroke-width: 0px;"/>
        <path d="m147.1,25.85c.72,1.94.8,3.35.22,4.17s-2.01,1.26-4.25,1.26-3.93-.42-5.05-1.25-1.93-2.22-2.46-4.18-.45-3.18.18-3.9,1.95-1.07,3.99-1.07,3.6.36,4.68,1.07,1.99,2.01,2.69,3.9Zm-2.76-4.45l1.77,1.06c.74.45,1.35.97,1.82,1.58s.92,1.45,1.34,2.53c.81,2.1.86,3.73.09,4.84s-2.37,1.71-4.78,1.71c-.7,0-1.34-.07-1.95-.21s-1.13-.35-1.58-.62l-1.88-1.13c.46.24,1,.41,1.63.52s1.47.16,2.54.16c2.37,0,3.89-.47,4.56-1.41s.58-2.43-.2-4.5c-.44-1.16-.91-2.08-1.44-2.78s-1.16-1.27-1.93-1.76Zm-5.16,4.46c.43,1.43.9,2.43,1.41,2.99s1.17.84,1.98.84,1.29-.29,1.43-.85-.03-1.56-.51-2.98-.95-2.33-1.44-2.84-1.11-.75-1.87-.75-1.23.25-1.39.75-.04,1.45.39,2.84Zm3.1,3.32c-.59-.07-1.07-.33-1.44-.78s-.72-1.22-1.05-2.32c-.43-1.39-.59-2.29-.49-2.72s.44-.63,1.03-.63c.41,0,.79.12,1.13.37s.61.59.79,1.02c-.25-.12-.45-.21-.63-.26s-.32-.08-.45-.08c-.34,0-.54.11-.6.32s.04.73.31,1.57l.09.28c.14.43.31.9.52,1.43s.47,1.13.79,1.81Z" style="fill: #fff; stroke-width: 0px;"/>
      </g>
    </g>
  </g>
</svg>