<?xml version="1.0" encoding="UTF-8"?>
<svg id="_图层_2" data-name="图层 2" xmlns="http://www.w3.org/2000/svg" viewBox="0 0 210.38 79.98">
  <g id="_图层_7" data-name="图层 7">
    <g>
      <g>
        <ellipse cx="104.67" cy="28.13" rx="104.37" ry="27.82" style="fill: #1698ca; stroke: #1085a8; stroke-miterlimit: 10; stroke-width: .62px;"/>
        <path d="m104.46,9.8c-36.85,0-66.72,7.99-66.72,17.85s29.87,17.85,66.72,17.85,66.72-7.99,66.72-17.85-29.87-17.85-66.72-17.85Zm.32,33.7c-33.7,0-61.02-6.99-61.02-15.62s27.32-15.62,61.02-15.62,61.02,6.99,61.02,15.62-27.32,15.62-61.02,15.62Z" style="fill: #1085a8; stroke-width: 0px;"/>
        <path d="m45.57,36.05l3.36-1.86c-1.86-1.08-3.26-2.22-4.13-3.42l-5.89.22c1.27,1.8,3.54,3.5,6.67,5.06Z" style="fill: #fff; stroke-width: 0px;"/>
        <path d="m66.71,40.09c-3.34-.68-6.39-1.45-9.11-2.3l-4.07,1.39c3.84,1.21,8.27,2.29,13.18,3.19v-2.28Z" style="fill: #fff; stroke-width: 0px;"/>
        <path d="m95.24,43.31c-4.33-.17-8.5-.46-12.48-.86l-1.8,1.91c4.86.49,10,.83,15.33,1.01l-1.05-2.06Z" style="fill: #fff; stroke-width: 0px;"/>
        <path d="m126.39,42.49c-3.96.38-8.11.67-12.4.83l-.92,2.03c5.27-.18,10.35-.53,15.17-1.02l-1.84-1.84Z" style="fill: #fff; stroke-width: 0px;"/>
        <path d="m151.47,37.94c-2.64.8-5.58,1.54-8.79,2.19v2.16c4.64-.87,8.84-1.89,12.51-3.04l-3.71-1.31Z" style="fill: #fff; stroke-width: 0px;"/>
        <path d="m164.67,30.87c.73-.97,1.12-1.97,1.12-2.99,0-8.62-27.32-15.62-61.02-15.62s-61.02,6.99-61.02,15.62,27.32,15.62,61.02,15.62c25.16,0,46.75-3.9,56.09-9.46,1.69-1.01,2.98-2.07,3.81-3.17Z" style="fill: none; stroke-width: 0px;"/>
        <path d="m160.86,34.04l2.32,2.09c3.27-1.62,5.63-3.39,6.91-5.26h-5.42c-.83,1.1-2.12,2.16-3.81,3.17Z" style="fill: #fff; stroke-width: 0px;"/>
        <path d="m167.94,22.15l-6.12.19c2.38,1.6,3.77,3.33,3.95,5.14l5.39-.25c-.15-1.77-1.27-3.48-3.22-5.09Z" style="fill: #fff; stroke-width: 0px;"/>
        <path d="m37.74,27.51l6.05-.17c.23-1.71,1.52-3.34,3.72-4.86l-6.3-.53c-2.2,1.75-3.42,3.62-3.48,5.56Z" style="fill: #fff; stroke-width: 0px;"/>
        <path d="m52.79,16.36l.31,3.22c3.5-1.42,7.87-2.69,12.93-3.76l-3.84-1.98c-3.43.75-6.58,1.6-9.4,2.52Z" style="fill: #fff; stroke-width: 0px;"/>
        <path d="m81.05,10.93l-.96,2.67c4.95-.56,10.24-.96,15.77-1.17l-1.35-2.44c-4.66.19-9.17.5-13.46.93Z" style="fill: #fff; stroke-width: 0px;"/>
        <path d="m113.96,12.45c5.57.22,10.9.62,15.87,1.2l-.46-2.56c-4.42-.48-9.07-.83-13.9-1.04-.42.67-.99,1.58-1.5,2.41Z" style="fill: #fff; stroke-width: 0px;"/>
        <path d="m143.92,15.91c5.01,1.07,9.33,2.35,12.78,3.77l.53-2.96c-2.89-1-6.16-1.91-9.76-2.72l-3.55,1.91Z" style="fill: #fff; stroke-width: 0px;"/>
        <path d="m116.14.31l-2.72,6.98s22.44.87,24.84,1.75l11.12-6.33c-10.28-1.26-21.47-2.09-33.23-2.4Z" style="fill: #fff; stroke: #1085a8; stroke-miterlimit: 10; stroke-width: .51px;"/>
        <path d="m40.54,15.82s12.3-4.31,16.18-4.31l-13.89-5.7c-8.57,1.69-16.11,3.72-22.36,6.01l20.07,4.01Z" style="fill: #fff; stroke: #1085a8; stroke-miterlimit: 10; stroke-width: .51px;"/>
        <path d="m208.53,25.48c-.87-2.68-3.19-5.26-6.76-7.66l-23.6,2.34s6.03,3.56,5.82,5.74l24.55-.42Z" style="fill: #fff; stroke: #1085a8; stroke-miterlimit: 10; stroke-width: .51px;"/>
        <path d="m170.34,41.16s-6.47,3.2-17.74,4.62l12.67,5.15c8.83-1.67,16.69-3.68,23.32-5.96l-18.25-3.8Z" style="fill: #fff; stroke: #1085a8; stroke-miterlimit: 10; stroke-width: .54px;"/>
        <path d="m72.11,48.05l-9.13,4.95c9.71,1.13,20.2,1.89,31.2,2.18l2.11-5.54c-11,.36-24.18-1.6-24.18-1.6Z" style="fill: #fff; stroke: #1085a8; stroke-miterlimit: 10; stroke-width: .51px;"/>
        <path d="m1.88,31.57c1.37,2.66,4.17,5.21,8.21,7.57l20.24-2.68-5.36-5.48-23.09.59Z" style="fill: #fff; stroke: #1085a8; stroke-miterlimit: 10; stroke-width: .51px;"/>
        <path d="m.31,28.63s2.16,26.56,107.85,26.39c105.7-.17,100.48-29.78,100.48-29.78,0,0,3.23,16.33-.01,30.29,0,0-5.56,21.08-99.54,24.15,0,0-88.75.38-108.02-23.63L.31,28.63Z" style="fill: #1698ca; stroke: #1085a8; stroke-miterlimit: 10; stroke-width: .61px;"/>
        <ellipse cx="191.57" cy="35.65" rx="1.61" ry=".48" style="fill: #fff; stroke-width: 0px;"/>
        <ellipse cx="187.09" cy="33.7" rx="1.61" ry=".48" style="fill: #fff; stroke-width: 0px;"/>
        <ellipse cx="182.66" cy="31.62" rx="1.61" ry=".48" style="fill: #fff; stroke-width: 0px;"/>
        <ellipse cx="126.42" cy="49.42" rx="1.61" ry=".48" style="fill: #fff; stroke-width: 0px;"/>
        <ellipse cx="44.15" cy="43.62" rx="1.61" ry=".48" style="fill: #fff; stroke-width: 0px;"/>
        <ellipse cx="44.25" cy="41.29" rx="1.61" ry=".48" style="fill: #fff; stroke-width: 0px;"/>
        <ellipse cx="53.19" cy="43.62" rx="1.61" ry=".48" style="fill: #fff; stroke-width: 0px;"/>
        <ellipse cx="44.15" cy="45.95" rx="1.61" ry=".48" style="fill: #fff; stroke-width: 0px;"/>
        <ellipse cx="35.21" cy="43.5" rx="1.61" ry=".48" style="fill: #fff; stroke-width: 0px;"/>
        <ellipse cx="26.82" cy="24" rx="1.61" ry=".48" style="fill: #fff; stroke-width: 0px;"/>
        <ellipse cx="30.03" cy="20.72" rx="1.61" ry=".48" style="fill: #fff; stroke-width: 0px;"/>
        <ellipse cx="17.8" cy="19.91" rx="1.61" ry=".48" style="fill: #fff; stroke-width: 0px;"/>
        <ellipse cx="14.58" cy="23.2" rx="1.61" ry=".48" style="fill: #fff; stroke-width: 0px;"/>
        <ellipse cx="75.04" cy="4.98" rx="1.61" ry=".48" style="fill: #fff; stroke-width: 0px;"/>
        <ellipse cx="76.9" cy="6.65" rx="1.61" ry=".48" style="fill: #fff; stroke-width: 0px;"/>
        <ellipse cx="78.39" cy="8.2" rx="1.61" ry=".48" style="fill: #fff; stroke-width: 0px;"/>
        <ellipse cx="87.31" cy="4.2" rx="1.61" ry=".48" style="fill: #fff; stroke-width: 0px;"/>
        <ellipse cx="89.15" cy="5.8" rx="1.61" ry=".48" style="fill: #fff; stroke-width: 0px;"/>
        <ellipse cx="90.75" cy="7.4" rx="1.61" ry=".48" style="fill: #fff; stroke-width: 0px;"/>
        <ellipse cx="174.28" cy="12.02" rx="1.61" ry=".48" style="fill: #fff; stroke-width: 0px;"/>
        <ellipse cx="156.2" cy="12.02" rx="1.61" ry=".48" style="fill: #fff; stroke-width: 0px;"/>
        <polygon points="74.32 10.3 100.84 8.68 93.66 1.62 66.02 3.51 74.32 10.3" style="fill: none; stroke: #fff; stroke-miterlimit: 10; stroke-width: .31px;"/>
        <polygon points="11.69 17.37 4.37 24.48 31.01 26.03 37.5 19.12 11.69 17.37" style="fill: none; stroke: #fff; stroke-miterlimit: 10; stroke-width: .31px;"/>
        <polygon points="23.98 43.5 44.15 38.46 62.98 43.02 44.25 48.35 23.98 43.5" style="fill: none; stroke: #fff; stroke-miterlimit: 10; stroke-width: .31px;"/>
        <polygon points="111.55 46.46 117.79 53.22 144.28 51.62 137.61 45.01 111.55 46.46" style="fill: none; stroke: #fff; stroke-miterlimit: 10; stroke-width: .31px;"/>
        <polygon points="169.78 35.65 196 37.94 202.46 30.87 176.62 29.23 169.78 35.65" style="fill: none; stroke: #fff; stroke-miterlimit: 10; stroke-width: .31px;"/>
        <polygon points="165.1 16.85 184.09 11.54 166.07 6.87 146.4 11.54 165.1 16.85" style="fill: none; stroke: #fff; stroke-miterlimit: 10; stroke-width: .31px;"/>
        <path d="m62.98,76.81c11.54,1.43,22.57,2.15,30.88,2.51v-24.45c-11.76-.28-21.99-.96-30.88-1.91v23.86Z" style="fill: #fff; stroke: #1085a8; stroke-miterlimit: 10; stroke-width: .6px;"/>
        <path d="m165.48,74.4c9.72-1.76,17.26-3.77,23.11-5.81l-.23-23.8c-5.82,2.26-13.29,4.36-22.89,6.06v23.56Z" style="fill: #fff; stroke: #1085a8; stroke-miterlimit: 10; stroke-width: .61px;"/>
        <path d="m10.07,39.44c-4.55-2.78-6.99-5.42-8.29-7.39-1.04,5.5-.02,24.68-.01,24.83,2.01,2.27,4.66,4.31,7.79,6.14-.52-10.81.35-21.71.5-23.58Z" style="fill: #fff; stroke: #1085a8; stroke-miterlimit: 10; stroke-width: .61px;"/>
      </g>
      <g>
        <path d="m59.88,31.13l.67-1.74h2.25l2.1-5.7-2.55,1.05.8-2.07,3.22-1.35h2.41l-2.75,8.07h2.24l-.56,1.74h-7.84Zm2.25-5.81l1.93-.78-.46,1.22-.76.28-.71-.72Zm-2.47,6.37h8.46l.73-2.3.96.9-.81,2.63h-7.94l-1.39-1.23Zm9.65-10.37l.83,1.03-2.12,6.5h-1.24l2.53-7.53Z" style="fill: #fff; stroke-width: 0px;"/>
        <path d="m85.13,26.04c-.36,1.94-1.06,3.35-2.1,4.17s-2.71,1.26-4.95,1.26-3.7-.42-4.36-1.25-.69-2.22-.13-4.18,1.32-3.18,2.35-3.9,2.54-1.07,4.59-1.07,3.4.36,4.08,1.07.87,2.01.51,3.9Zm-.28-4.45l1.18,1.06c.5.45.81.97.94,1.58s.11,1.45-.07,2.53c-.36,2.1-1.22,3.73-2.61,4.84s-3.33,1.71-5.73,1.71c-.7,0-1.31-.07-1.83-.21s-.93-.35-1.24-.62l-1.25-1.13c.33.24.77.41,1.34.52s1.39.16,2.46.16c2.37,0,4.16-.47,5.34-1.41s1.93-2.43,2.31-4.5c.21-1.16.25-2.08.11-2.78s-.45-1.27-.95-1.76Zm-7.65,4.46c-.36,1.43-.45,2.43-.26,2.99s.7.84,1.51.84,1.45-.29,1.91-.85.84-1.56,1.15-2.98.35-2.33.14-2.84-.69-.75-1.45-.75-1.36.25-1.8.75-.84,1.45-1.2,2.84Zm1.24,3.32c-.55-.07-.89-.33-1-.78s-.03-1.22.24-2.32c.35-1.39.69-2.29,1.02-2.72s.8-.63,1.39-.63c.41,0,.72.12.93.37s.28.59.23,1.02c-.18-.12-.34-.21-.48-.26s-.28-.08-.41-.08c-.34,0-.6.11-.78.32s-.37.73-.57,1.57l-.07.28c-.1.43-.19.9-.28,1.43s-.16,1.13-.22,1.81Z" style="fill: #fff; stroke-width: 0px;"/>
        <path d="m99.49,26.04c-.12,1.94-.65,3.35-1.59,4.17s-2.55,1.26-4.79,1.26-3.75-.42-4.51-1.25-.96-2.22-.65-4.18.93-3.18,1.87-3.9,2.41-1.07,4.46-1.07,3.44.36,4.21,1.07,1.12,2.01,1,3.9Zm-.83-4.45l1.31,1.06c.55.45.93.97,1.14,1.58s.29,1.45.24,2.53c-.1,2.1-.76,3.73-2.01,4.84s-3.12,1.71-5.52,1.71c-.7,0-1.31-.07-1.85-.21s-.98-.35-1.31-.62l-1.39-1.13c.36.24.82.41,1.4.52s1.41.16,2.48.16c2.37,0,4.1-.47,5.17-1.41s1.63-2.43,1.75-4.5c.07-1.16-.01-2.08-.23-2.78s-.61-1.27-1.17-1.76Zm-7.1,4.46c-.19,1.43-.15,2.43.11,2.99s.8.84,1.61.84,1.41-.29,1.8-.85.65-1.56.78-2.98.06-2.33-.21-2.84-.78-.75-1.54-.75-1.33.25-1.71.75-.66,1.45-.85,2.84Zm1.66,3.32c-.56-.07-.93-.33-1.1-.78s-.19-1.22-.05-2.32c.18-1.39.4-2.29.69-2.72s.72-.63,1.31-.63c.41,0,.74.12.97.37s.35.59.35,1.02c-.19-.12-.37-.21-.51-.26s-.29-.08-.42-.08c-.34,0-.59.11-.74.32s-.28.73-.37,1.57l-.03.28c-.05.43-.08.9-.1,1.43s-.02,1.13,0,1.81Z" style="fill: #fff; stroke-width: 0px;"/>
        <path d="m101.87,33.6h3.24l2.46-4.2.87.92-2.63,4.57h-2.25l-1.71-1.29Zm1.65-4.2h3.38l-2.16,3.63h-2.61l1.39-3.63Z" style="fill: #fff; stroke-width: 0px;"/>
        <path d="m121.03,26.04c.24,1.94-.03,3.35-.81,4.17s-2.32,1.26-4.56,1.26-3.83-.42-4.75-1.25-1.38-2.22-1.42-4.18.34-3.18,1.15-3.9,2.21-1.07,4.26-1.07,3.51.36,4.41,1.07,1.49,2.01,1.72,3.9Zm-1.65-4.45l1.51,1.06c.63.45,1.11.97,1.43,1.58s.56,1.45.71,2.53c.29,2.1-.07,3.73-1.11,4.84s-2.8,1.71-5.2,1.71c-.7,0-1.33-.07-1.89-.21s-1.04-.35-1.43-.62l-1.6-1.13c.4.24.9.41,1.5.52s1.44.16,2.51.16c2.37,0,4.01-.47,4.9-1.41s1.18-2.43.91-4.5c-.15-1.16-.4-2.08-.75-2.78s-.84-1.27-1.49-1.76Zm-6.27,4.46c.08,1.43.3,2.43.67,2.99s.96.84,1.77.84,1.36-.29,1.65-.85.36-1.56.23-2.98-.37-2.33-.74-2.84-.92-.75-1.68-.75-1.29.25-1.57.75-.4,1.45-.32,2.84Zm2.27,3.32c-.57-.07-.99-.33-1.24-.78s-.41-1.22-.48-2.32c-.08-1.39-.02-2.29.18-2.72s.6-.63,1.19-.63c.41,0,.76.12,1.04.37s.46.59.54,1.02c-.22-.12-.4-.21-.56-.26s-.3-.08-.43-.08c-.34,0-.57.11-.68.32s-.14.73-.08,1.57l.02.28c.03.43.09.9.17,1.43s.19,1.13.34,1.81Z" style="fill: #fff; stroke-width: 0px;"/>
        <path d="m135.39,26.04c.48,1.94.39,3.35-.3,4.17s-2.16,1.26-4.4,1.26-3.88-.42-4.9-1.25-1.65-2.22-1.94-4.18-.05-3.18.66-3.9,2.08-1.07,4.13-1.07,3.55.36,4.55,1.07,1.74,2.01,2.21,3.9Zm-2.21-4.45l1.64,1.06c.69.45,1.23.97,1.63,1.58s.74,1.45,1.02,2.53c.55,2.1.39,3.73-.51,4.84s-2.59,1.71-4.99,1.71c-.7,0-1.34-.07-1.92-.21s-1.08-.35-1.51-.62l-1.74-1.13c.43.24.95.41,1.56.52s1.45.16,2.53.16c2.37,0,3.95-.47,4.73-1.41s.88-2.43.36-4.5c-.29-1.16-.66-2.08-1.09-2.78s-1-1.27-1.71-1.76Zm-5.72,4.46c.26,1.43.6,2.43,1.04,2.99s1.07.84,1.87.84,1.32-.29,1.54-.85.17-1.56-.14-2.98-.66-2.33-1.09-2.84-1.01-.75-1.77-.75-1.26.25-1.48.75-.22,1.45.03,2.84Zm2.69,3.32c-.58-.07-1.03-.33-1.34-.78s-.57-1.22-.77-2.32c-.26-1.39-.3-2.29-.15-2.72s.52-.63,1.11-.63c.41,0,.78.12,1.09.37s.54.59.67,1.02c-.23-.12-.43-.21-.59-.26s-.31-.08-.44-.08c-.34,0-.56.11-.64.32s-.05.73.11,1.57l.05.28c.08.43.2.9.34,1.43s.33,1.13.56,1.81Z" style="fill: #fff; stroke-width: 0px;"/>
        <path d="m149.75,26.04c.72,1.94.8,3.35.22,4.17s-2.01,1.26-4.25,1.26-3.93-.42-5.05-1.25-1.93-2.22-2.46-4.18-.45-3.18.18-3.9,1.95-1.07,3.99-1.07,3.6.36,4.68,1.07,1.99,2.01,2.69,3.9Zm-2.76-4.45l1.77,1.06c.74.45,1.35.97,1.82,1.58s.92,1.45,1.34,2.53c.81,2.1.86,3.73.09,4.84s-2.37,1.71-4.78,1.71c-.7,0-1.34-.07-1.95-.21s-1.13-.35-1.58-.62l-1.88-1.13c.46.24,1,.41,1.63.52s1.47.16,2.54.16c2.37,0,3.89-.47,4.56-1.41s.58-2.43-.2-4.5c-.44-1.16-.91-2.08-1.44-2.78s-1.16-1.27-1.93-1.76Zm-5.16,4.46c.43,1.43.9,2.43,1.41,2.99s1.17.84,1.98.84,1.29-.29,1.43-.85-.03-1.56-.51-2.98-.95-2.33-1.44-2.84-1.11-.75-1.87-.75-1.23.25-1.39.75-.04,1.45.39,2.84Zm3.1,3.32c-.59-.07-1.07-.33-1.44-.78s-.72-1.22-1.05-2.32c-.43-1.39-.59-2.29-.49-2.72s.44-.63,1.03-.63c.41,0,.79.12,1.13.37s.61.59.79,1.02c-.25-.12-.45-.21-.63-.26s-.32-.08-.45-.08c-.34,0-.54.11-.6.32s.04.73.31,1.57l.09.28c.14.43.31.9.52,1.43s.47,1.13.79,1.81Z" style="fill: #fff; stroke-width: 0px;"/>
      </g>
    </g>
  </g>
</svg>