<?xml version="1.0" encoding="UTF-8"?>
<svg id="_图层_2" data-name="图层 2" xmlns="http://www.w3.org/2000/svg" viewBox="0 0 210.38 79.93">
  <g id="_图层_7" data-name="图层 7">
    <g>
      <ellipse cx="104.67" cy="27.8" rx="104.37" ry="27.55" style="fill: #744b9b; stroke: #591c87; stroke-miterlimit: 10; stroke-width: .51px;"/>
      <path d="m104.57,9.57c-36.85,0-66.72,8.05-66.72,17.98s29.87,17.98,66.72,17.98,66.72-8.05,66.72-17.98-29.87-17.98-66.72-17.98Zm.32,33.95c-33.7,0-61.02-7.04-61.02-15.73s27.32-15.73,61.02-15.73,61.02,7.04,61.02,15.73-27.32,15.73-61.02,15.73Z" style="fill: #591c87; stroke-width: 0px;"/>
      <path d="m133.67,41.66c-3.74.52-7.72.94-11.88,1.25l-.3,2.04c5.15-.36,10.06-.89,14.64-1.55-.75-.53-1.66-1.17-2.46-1.74Z" style="fill: #fff; stroke-width: 0px;"/>
      <path d="m157.48,35.77c-2.44,1.07-5.36,2.05-8.67,2.94l.16,2.27c5.09-1.22,9.47-2.65,12.98-4.24l-4.46-.97Z" style="fill: #fff; stroke-width: 0px;"/>
      <path d="m43.87,27.79c0-1.24.55-2.44,1.6-3.59l-6.23-.31c-.91,1.18-1.39,2.41-1.39,3.67,0,.49.08.98.22,1.47h5.98c-.12-.41-.18-.81-.18-1.23Z" style="fill: #fff; stroke-width: 0px;"/>
      <path d="m165.88,28.28c-.21,1.79-1.58,3.5-3.92,5.08l5.48.22c2.2-1.67,3.52-3.45,3.8-5.3h-5.36Z" style="fill: #fff; stroke-width: 0px;"/>
      <path d="m163.66,19.19l-5.07,1.12c2.81,1.34,4.89,2.79,6.1,4.33l5.34-.59c-1.26-1.72-3.43-3.35-6.37-4.86Z" style="fill: #fff; stroke-width: 0px;"/>
      <path d="m136.96,14.4c5.3.85,10.06,1.89,14.12,3.11l-.17-2.9c-3.48-.91-7.32-1.71-11.46-2.4l-2.48,2.19Z" style="fill: #fff; stroke-width: 0px;"/>
      <path d="m104.67,12.06c.07,0,.14,0,.22,0,5.75,0,11.31.21,16.58.59l-.7-2.54c-4.67-.31-9.52-.5-14.52-.53l-1.57,2.49Z" style="fill: #fff; stroke-width: 0px;"/>
      <path d="m47.14,18.39l2.64,2.63c2.7-1.46,6.24-2.79,10.46-3.96l-3.82-1.96c-3.54.99-6.65,2.1-9.28,3.29Z" style="fill: #fff; stroke-width: 0px;"/>
      <path d="m72.24,11.82l-.31,2.73c4.79-.79,10.03-1.42,15.61-1.84l-1.53-2.43c-4.84.38-9.46.9-13.78,1.54Z" style="fill: #fff; stroke-width: 0px;"/>
      <path d="m103.77,43.52c-4.48-.02-8.85-.17-13.04-.42l-1.74,1.95c4.93.32,10.08.49,15.37.49l-.58-2.02Z" style="fill: #fff; stroke-width: 0px;"/>
      <path d="m72.99,41.2c-3.69-.59-7.13-1.27-10.25-2.04l-3.17,1.66c4.23,1.04,8.96,1.94,14.09,2.66l-.66-2.29Z" style="fill: #fff; stroke-width: 0px;"/>
      <path d="m49.4,37.66l2.94-1.88c-2.39-1.04-4.34-2.16-5.75-3.35l-5.5.65c1.97,1.64,4.78,3.18,8.31,4.57Z" style="fill: #fff; stroke-width: 0px;"/>
      <path d="m62.01,9.57l23.45-2.32-5.18-6.23c-10.95.69-21.23,1.84-30.53,3.36l12.26,5.2Z" style="fill: #fff; stroke: #591c87; stroke-miterlimit: 10; stroke-width: .51px;"/>
      <path d="m154.57,3.6l-10.55,5.96s13,1.39,18.89,3.88l17.8-4.51c-7.56-2.12-16.37-3.93-26.14-5.33Z" style="fill: #fff; stroke: #591c87; stroke-miterlimit: 10; stroke-width: .51px;"/>
      <path d="m182.63,33.59l22.04,2.12c2.84-2.5,4.37-5.16,4.37-7.91,0-.08,0-.15-.01-.22l-24.01.22s.29,3.31-2.39,5.78Z" style="fill: #fff; stroke: #591c87; stroke-miterlimit: 10; stroke-width: .51px;"/>
      <path d="m146.99,46.27c-12.92,2.93-23.26,2.42-23.26,2.42l4.82,5.94c10.56-.65,20.5-1.73,29.56-3.16l-11.12-5.2Z" style="fill: #fff; stroke: #591c87; stroke-miterlimit: 10; stroke-width: .51px;"/>
      <path d="m31.18,47.12c7.39,1.95,15.89,3.6,25.22,4.9l9.68-5.4c-9.26-.29-19.16-3.71-19.16-3.71l-15.74,4.21Z" style="fill: #fff; stroke: #591c87; stroke-miterlimit: 10; stroke-width: .51px;"/>
      <path d="m.31,27.8c0,.2.01.39.03.59l24.31-.17s.24-3.86,3.3-5.91l-23.98-1.76c-2.38,2.31-3.66,4.74-3.66,7.25Z" style="fill: #fff; stroke: #591c87; stroke-miterlimit: 10; stroke-width: .51px;"/>
      <path d="m.31,28.42s2.16,26.64,107.85,26.47c105.7-.17,100.48-29.87,100.48-29.87,0,0,3.23,16.38-.01,30.38,0,0-5.56,21.14-99.54,24.22,0,0-88.75.38-108.02-23.7L.31,28.42Z" style="fill: #fff; opacity: .5; stroke: #231815; stroke-miterlimit: 10; stroke-width: .61px;"/>
      <path d="m.31,28.42s2.16,26.64,107.85,26.47c105.7-.17,100.48-29.87,100.48-29.87,0,0,3.23,16.38-.01,30.38,0,0-5.56,21.14-99.54,24.22,0,0-88.75.38-108.02-23.7L.31,28.42Z" style="fill: #744b9b; stroke: #591c87; stroke-miterlimit: 10; stroke-width: .61px;"/>
      <path d="m55.83,52.14c-10.08-1.33-18.23-3.05-24.82-4.96-.22,1.93-.07,17.04.01,23.64,7.77,2.24,16.33,3.91,24.81,5.16v-23.83Z" style="fill: #fff; stroke: #591c87; stroke-miterlimit: 10; stroke-width: .6px;"/>
      <polygon points="81.24 46.27 109.82 47.18 107.3 53.96 77.22 53.23 81.24 46.27" style="fill: none; stroke: #fff; stroke-miterlimit: 10; stroke-width: .16px;"/>
      <ellipse cx="101.03" cy="48.43" rx="1.61" ry=".49" style="fill: #fff; stroke-width: 0px;"/>
      <ellipse cx="99.31" cy="51.8" rx="1.61" ry=".49" style="fill: #fff; stroke-width: 0px;"/>
      <ellipse cx="93.92" cy="49.89" rx="1.61" ry=".49" style="fill: #fff; stroke-width: 0px;"/>
      <ellipse cx="88.22" cy="47.94" rx="1.61" ry=".49" style="fill: #fff; stroke-width: 0px;"/>
      <ellipse cx="86.62" cy="51.32" rx="1.61" ry=".49" style="fill: #fff; stroke-width: 0px;"/>
      <ellipse cx="29.55" cy="34.07" rx="1.61" ry=".49" style="fill: #fff; stroke-width: 0px;"/>
      <ellipse cx="34.24" cy="37.04" rx="1.61" ry=".49" style="fill: #fff; stroke-width: 0px;"/>
      <ellipse cx="22.61" cy="38.35" rx="1.61" ry=".49" style="fill: #fff; stroke-width: 0px;"/>
      <ellipse cx="17.68" cy="35.07" rx="1.61" ry=".49" style="fill: #fff; stroke-width: 0px;"/>
      <polygon points="9.4 34.07 19.29 40.93 45.01 38.35 34.76 31.21 9.4 34.07" style="fill: none; stroke: #fff; stroke-miterlimit: 10; stroke-width: .16px;"/>
      <ellipse cx="38.27" cy="16.12" rx="1.61" ry=".49" style="fill: #fff; stroke-width: 0px;"/>
      <ellipse cx="33.1" cy="15.1" rx="1.61" ry=".49" style="fill: #fff; stroke-width: 0px;"/>
      <ellipse cx="28.14" cy="14.13" rx="1.61" ry=".49" style="fill: #fff; stroke-width: 0px;"/>
      <ellipse cx="35.85" cy="11.47" rx="1.61" ry=".49" style="fill: #fff; stroke-width: 0px;"/>
      <ellipse cx="40.89" cy="12.44" rx="1.61" ry=".49" style="fill: #fff; stroke-width: 0px;"/>
      <ellipse cx="45.98" cy="13.41" rx="1.61" ry=".49" style="fill: #fff; stroke-width: 0px;"/>
      <polygon points="18.1 13.89 39.88 18.39 55.62 12.68 33.6 8.72 18.1 13.89" style="fill: none; stroke: #fff; stroke-miterlimit: 10; stroke-width: .16px;"/>
      <path d="m102.96,1.01l-3.54,6.98,27.04,1.03s3.35-6.98,3.35-7.08-26.85-.92-26.85-.92Z" style="fill: none; stroke: #fff; stroke-miterlimit: 10; stroke-width: .16px;"/>
      <ellipse cx="108.65" cy="6.6" rx="1.61" ry=".49" style="fill: #fff; stroke-width: 0px;"/>
      <ellipse cx="123.07" cy="3.68" rx="1.61" ry=".49" style="fill: #fff; stroke-width: 0px;"/>
      <ellipse cx="175.28" cy="17.99" rx="1.61" ry=".49" style="fill: #fff; stroke-width: 0px;"/>
      <ellipse cx="183.6" cy="18.68" rx="1.61" ry=".49" style="fill: #fff; stroke-width: 0px;"/>
      <ellipse cx="191.94" cy="19.68" rx="1.61" ry=".49" style="fill: #fff; stroke-width: 0px;"/>
      <polygon points="166.59 16.49 191.36 13.85 202.49 20.16 176.88 23.38 166.59 16.49" style="fill: none; stroke: #fff; stroke-miterlimit: 10; stroke-width: .16px;"/>
      <polygon points="153.14 41.57 169.65 35.77 191.67 40.15 175.4 45.77 153.14 41.57" style="fill: none; stroke: #fff; stroke-miterlimit: 10; stroke-width: .16px;"/>
      <ellipse cx="172.4" cy="41.25" rx="1.61" ry=".49" style="fill: #fff; stroke-width: 0px;"/>
      <path d="m128.81,78.61c11.33-.8,21.02-1.92,29.3-3.22v-23.67c-8.28,1.23-17.97,2.17-29.3,2.69v24.19Z" style="fill: #fff; stroke: #591c87; stroke-miterlimit: 10; stroke-width: .61px;"/>
      <path d="m208.45,27.63c-.41,1.84-1.5,4.49-4.32,7.43.6,3.23,1.68,11.59.3,25.37,3.64-2.94,4.18-5.02,4.18-5.02.06-.25.11-.5.16-.74.13-7,.28-20.29-.33-27.04Z" style="fill: #fff; stroke: #591c87; stroke-miterlimit: 10; stroke-width: .61px;"/>
      <g>
        <path d="m74.6,40.31l.84-3.13c-2.41-.12-4.04-.93-4.89-2.41s-.83-3.37-.05-5.73h4.86c-.29,1.18-.34,2.05-.14,2.59s.66.83,1.39.86l1.41-5.17c-2.18-.59-3.63-1.39-4.34-2.39s-.78-2.25-.26-3.79c.55-1.65,1.56-2.94,3-3.9s3.06-1.42,4.95-1.46l.4-1.49h1.81l-.36,1.46c1.79.05,3.09.52,3.92,1.43s1.15,2.26.89,4.03h-4.27c.13-.77.09-1.34-.14-1.73s-.63-.59-1.21-.61l-.98,3.96c2.25.63,3.79,1.45,4.61,2.46s1.09,2.47.76,4.34c-.4,2.25-1.35,4.04-2.86,5.32s-3.65,2.07-6.3,2.26l-.77,3.1h-2.24Zm5.12-17.95l.94-3.53h-.1c-.69,0-1.25.14-1.67.41s-.72.7-.89,1.28c-.13.44-.07.8.18,1.08s.76.53,1.53.76Zm-1.07,10.13c.87,0,1.58-.19,2.12-.56s.88-.91,1.04-1.62c.14-.61.06-1.09-.23-1.44s-.88-.68-1.77-1l-1.16,4.61Z" style="fill: #fff; stroke: #5a1c87; stroke-miterlimit: 10;"/>
        <path d="m87.94,30.37l5.64-.64c.14.68.4,1.2.8,1.55s.92.53,1.57.53c.85,0,1.54-.28,2.06-.83s.8-1.28.86-2.2-.12-1.67-.54-2.21-.98-.81-1.7-.81c-.44,0-.86.1-1.24.3s-.73.49-1.04.87l-5-.49,3.31-10.46h10.54l-.11,4.26h-7.52l-.79,2.72c.53-.32,1.1-.55,1.7-.69s1.27-.21,2.02-.21c1.79,0,3.21.57,4.28,1.72s1.64,2.78,1.62,4.84c-.03,2.63-.81,4.78-2.37,6.39s-3.84,2.49-6.65,2.49c-2.32,0-4.15-.66-5.47-1.96s-1.93-3-1.97-5.17Z" style="fill: #fff; stroke: #5a1c87; stroke-miterlimit: 10;"/>
        <path d="m105.92,25.29c-.02-3.44.61-5.89,1.84-7.48s2.96-2.3,5.33-2.3,4.29.75,5.75,2.3,2.57,4.05,3.14,7.48c.61,3.7.38,6.69-.77,8.83s-3.29,3.37-6.25,3.37-5.22-1.15-6.79-3.38-2.24-5.13-2.26-8.82Zm10.5,0c-.24-2.18-.59-3.67-1.04-4.51s-1.09-1.24-1.94-1.24-1.44.4-1.74,1.22-.41,2.32-.28,4.52.44,3.98.9,4.96,1.19,1.5,2.16,1.5,1.59-.51,1.89-1.52.31-2.66.06-4.94Z" style="fill: #fff; stroke: #5a1c87; stroke-miterlimit: 10;"/>
        <path d="m123.06,25.29c-.61-3.44-.4-5.89.56-7.48s2.57-2.3,4.94-2.3,4.42.75,6.15,2.3,3.26,4.05,4.42,7.48c1.25,3.7,1.53,6.69.75,8.83s-2.71,3.37-5.67,3.37-5.42-1.15-7.37-3.38-3.12-5.13-3.78-8.82Zm10.5,0c-.62-2.18-1.22-3.67-1.82-4.51s-1.31-1.24-2.15-1.24-1.37.4-1.53,1.22,0,2.32.5,4.52,1.12,3.98,1.75,4.96,1.45,1.5,2.42,1.5,1.5-.51,1.63-1.52-.15-2.66-.79-4.94Z" style="fill: #fff; stroke: #5a1c87; stroke-miterlimit: 10;"/>
      </g>
    </g>
  </g>
</svg>