<?xml version="1.0" encoding="UTF-8"?>
<svg id="_图层_2" data-name="图层 2" xmlns="http://www.w3.org/2000/svg" viewBox="0 0 210.38 79.98">
  <g id="_图层_7" data-name="图层 7">
    <g>
      <ellipse cx="104.67" cy="28.13" rx="104.37" ry="27.82" style="fill: #744b9b; stroke: #52207e; stroke-miterlimit: 10; stroke-width: .62px;"/>
      <path d="m104.46,9.8c-36.85,0-66.72,7.99-66.72,17.85s29.87,17.85,66.72,17.85,66.72-7.99,66.72-17.85-29.87-17.85-66.72-17.85Zm.32,33.7c-33.7,0-61.02-6.99-61.02-15.62s27.32-15.62,61.02-15.62,61.02,6.99,61.02,15.62-27.32,15.62-61.02,15.62Z" style="fill: #52207e; stroke-width: 0px;"/>
      <path d="m45.57,36.05l3.36-1.86c-1.86-1.08-3.26-2.22-4.13-3.42l-5.89.22c1.27,1.8,3.54,3.5,6.67,5.06Z" style="fill: #fff; stroke-width: 0px;"/>
      <path d="m66.71,40.09c-3.34-.68-6.39-1.45-9.11-2.3l-4.07,1.39c3.84,1.21,8.27,2.29,13.18,3.19v-2.28Z" style="fill: #fff; stroke-width: 0px;"/>
      <path d="m95.24,43.31c-4.33-.17-8.5-.46-12.48-.86l-1.8,1.91c4.86.49,10,.83,15.33,1.01l-1.05-2.06Z" style="fill: #fff; stroke-width: 0px;"/>
      <path d="m126.39,42.49c-3.96.38-8.11.67-12.4.83l-.92,2.03c5.27-.18,10.35-.53,15.17-1.02l-1.84-1.84Z" style="fill: #fff; stroke-width: 0px;"/>
      <path d="m151.47,37.94c-2.64.8-5.58,1.54-8.79,2.19v2.16c4.64-.87,8.84-1.89,12.51-3.04l-3.71-1.31Z" style="fill: #fff; stroke-width: 0px;"/>
      <path d="m164.67,30.87c.73-.97,1.12-1.97,1.12-2.99,0-8.62-27.32-15.62-61.02-15.62s-61.02,6.99-61.02,15.62,27.32,15.62,61.02,15.62c25.16,0,46.75-3.9,56.09-9.46,1.69-1.01,2.98-2.07,3.81-3.17Z" style="fill: none; stroke-width: 0px;"/>
      <path d="m160.86,34.04l2.32,2.09c3.27-1.62,5.63-3.39,6.91-5.26h-5.42c-.83,1.1-2.12,2.16-3.81,3.17Z" style="fill: #fff; stroke-width: 0px;"/>
      <path d="m167.94,22.15l-6.12.19c2.38,1.6,3.77,3.33,3.95,5.14l5.39-.25c-.15-1.77-1.27-3.48-3.22-5.09Z" style="fill: #fff; stroke-width: 0px;"/>
      <path d="m37.74,27.51l6.05-.17c.23-1.71,1.52-3.34,3.72-4.86l-6.3-.53c-2.2,1.75-3.42,3.62-3.48,5.56Z" style="fill: #fff; stroke-width: 0px;"/>
      <path d="m52.79,16.36l.31,3.22c3.5-1.42,7.87-2.69,12.93-3.76l-3.84-1.98c-3.43.75-6.58,1.6-9.4,2.52Z" style="fill: #fff; stroke-width: 0px;"/>
      <path d="m81.05,10.93l-.96,2.67c4.95-.56,10.24-.96,15.77-1.17l-1.35-2.44c-4.66.19-9.17.5-13.46.93Z" style="fill: #fff; stroke-width: 0px;"/>
      <path d="m113.96,12.45c5.57.22,10.9.62,15.87,1.2l-.46-2.56c-4.42-.48-9.07-.83-13.9-1.04-.42.67-.99,1.58-1.5,2.41Z" style="fill: #fff; stroke-width: 0px;"/>
      <path d="m143.92,15.91c5.01,1.07,9.33,2.35,12.78,3.77l.53-2.96c-2.89-1-6.16-1.91-9.76-2.72l-3.55,1.91Z" style="fill: #fff; stroke-width: 0px;"/>
      <path d="m116.14.31l-2.72,6.98s22.44.87,24.84,1.75l11.12-6.33c-10.28-1.26-21.47-2.09-33.23-2.4Z" style="fill: #fff; stroke: #591c87; stroke-miterlimit: 10; stroke-width: .51px;"/>
      <path d="m40.54,15.82s12.3-4.31,16.18-4.31l-13.89-5.7c-8.57,1.69-16.11,3.72-22.36,6.01l20.07,4.01Z" style="fill: #fff; stroke: #591c87; stroke-miterlimit: 10; stroke-width: .51px;"/>
      <path d="m208.53,25.48c-.87-2.68-3.19-5.26-6.76-7.66l-23.6,2.34s6.03,3.56,5.82,5.74l24.55-.42Z" style="fill: #fff; stroke: #591c87; stroke-miterlimit: 10; stroke-width: .51px;"/>
      <path d="m170.34,41.16s-6.47,3.2-17.74,4.62l12.67,5.15c8.83-1.67,16.69-3.68,23.32-5.96l-18.25-3.8Z" style="fill: #fff; stroke: #591c87; stroke-miterlimit: 10; stroke-width: .54px;"/>
      <path d="m72.11,48.05l-9.13,4.95c9.71,1.13,20.2,1.89,31.2,2.18l2.11-5.54c-11,.36-24.18-1.6-24.18-1.6Z" style="fill: #fff; stroke: #52207e; stroke-miterlimit: 10; stroke-width: .51px;"/>
      <path d="m1.88,31.57c1.37,2.66,4.17,5.21,8.21,7.57l20.24-2.68-5.36-5.48-23.09.59Z" style="fill: #fff; stroke: #591c87; stroke-miterlimit: 10; stroke-width: .51px;"/>
      <path d="m.31,28.63s2.16,26.56,107.85,26.39,100.48-29.78,100.48-29.78c0,0,3.23,16.33-.01,30.29,0,0-5.56,21.08-99.54,24.15,0,0-88.75.38-108.02-23.63L.31,28.63Z" style="fill: #744b9b; stroke: #591c87; stroke-miterlimit: 10; stroke-width: .61px;"/>
      <ellipse cx="191.57" cy="35.65" rx="1.61" ry=".48" style="fill: #fff; stroke-width: 0px;"/>
      <ellipse cx="187.09" cy="33.7" rx="1.61" ry=".48" style="fill: #fff; stroke-width: 0px;"/>
      <ellipse cx="182.66" cy="31.62" rx="1.61" ry=".48" style="fill: #fff; stroke-width: 0px;"/>
      <ellipse cx="126.42" cy="49.42" rx="1.61" ry=".48" style="fill: #fff; stroke-width: 0px;"/>
      <ellipse cx="44.15" cy="43.62" rx="1.61" ry=".48" style="fill: #fff; stroke-width: 0px;"/>
      <ellipse cx="44.25" cy="41.29" rx="1.61" ry=".48" style="fill: #fff; stroke-width: 0px;"/>
      <ellipse cx="53.19" cy="43.62" rx="1.61" ry=".48" style="fill: #fff; stroke-width: 0px;"/>
      <ellipse cx="44.15" cy="45.95" rx="1.61" ry=".48" style="fill: #fff; stroke-width: 0px;"/>
      <ellipse cx="35.21" cy="43.5" rx="1.61" ry=".48" style="fill: #fff; stroke-width: 0px;"/>
      <ellipse cx="26.82" cy="24" rx="1.61" ry=".48" style="fill: #fff; stroke-width: 0px;"/>
      <ellipse cx="30.03" cy="20.72" rx="1.61" ry=".48" style="fill: #fff; stroke-width: 0px;"/>
      <ellipse cx="17.8" cy="19.91" rx="1.61" ry=".48" style="fill: #fff; stroke-width: 0px;"/>
      <ellipse cx="14.58" cy="23.2" rx="1.61" ry=".48" style="fill: #fff; stroke-width: 0px;"/>
      <ellipse cx="75.04" cy="4.98" rx="1.61" ry=".48" style="fill: #fff; stroke-width: 0px;"/>
      <ellipse cx="76.9" cy="6.65" rx="1.61" ry=".48" style="fill: #fff; stroke-width: 0px;"/>
      <ellipse cx="78.39" cy="8.2" rx="1.61" ry=".48" style="fill: #fff; stroke-width: 0px;"/>
      <ellipse cx="87.31" cy="4.2" rx="1.61" ry=".48" style="fill: #fff; stroke-width: 0px;"/>
      <ellipse cx="89.15" cy="5.8" rx="1.61" ry=".48" style="fill: #fff; stroke-width: 0px;"/>
      <ellipse cx="90.75" cy="7.4" rx="1.61" ry=".48" style="fill: #fff; stroke-width: 0px;"/>
      <ellipse cx="174.28" cy="12.02" rx="1.61" ry=".48" style="fill: #fff; stroke-width: 0px;"/>
      <ellipse cx="156.2" cy="12.02" rx="1.61" ry=".48" style="fill: #fff; stroke-width: 0px;"/>
      <polygon points="74.32 10.3 100.84 8.68 93.66 1.62 66.02 3.51 74.32 10.3" style="fill: none; stroke: #fff; stroke-miterlimit: 10; stroke-width: .31px;"/>
      <polygon points="11.69 17.37 4.37 24.48 31.01 26.03 37.5 19.12 11.69 17.37" style="fill: none; stroke: #fff; stroke-miterlimit: 10; stroke-width: .31px;"/>
      <polygon points="23.98 43.5 44.15 38.46 62.98 43.02 44.25 48.35 23.98 43.5" style="fill: none; stroke: #fff; stroke-miterlimit: 10; stroke-width: .31px;"/>
      <polygon points="111.55 46.46 117.79 53.22 144.28 51.62 137.61 45.01 111.55 46.46" style="fill: none; stroke: #fff; stroke-miterlimit: 10; stroke-width: .31px;"/>
      <polygon points="169.78 35.65 196 37.94 202.46 30.87 176.62 29.23 169.78 35.65" style="fill: none; stroke: #fff; stroke-miterlimit: 10; stroke-width: .31px;"/>
      <polygon points="165.1 16.85 184.09 11.54 166.07 6.87 146.4 11.54 165.1 16.85" style="fill: none; stroke: #fff; stroke-miterlimit: 10; stroke-width: .31px;"/>
      <path d="m62.98,76.81c11.54,1.43,22.57,2.15,30.88,2.51v-24.45c-11.76-.28-21.99-.96-30.88-1.91v23.86Z" style="fill: #fff; stroke: #591c87; stroke-miterlimit: 10; stroke-width: .6px;"/>
      <path d="m165.48,74.4c9.72-1.76,17.26-3.77,23.11-5.81l-.23-23.8c-5.82,2.26-13.29,4.36-22.89,6.06v23.56Z" style="fill: #fff; stroke: #591c87; stroke-miterlimit: 10; stroke-width: .61px;"/>
      <path d="m10.07,39.44c-4.55-2.78-6.99-5.42-8.29-7.39-1.04,5.5-.02,24.68-.01,24.83,2.01,2.27,4.66,4.31,7.79,6.14-.52-10.81.35-21.71.5-23.58Z" style="fill: #fff; stroke: #52207e; stroke-miterlimit: 10; stroke-width: .61px;"/>
      <g>
        <path d="m74.67,42.37l.84-3.13c-2.41-.12-4.04-.93-4.89-2.41s-.83-3.37-.05-5.73h4.86c-.29,1.18-.34,2.05-.14,2.59s.66.83,1.39.86l1.41-5.17c-2.18-.59-3.63-1.39-4.34-2.39s-.78-2.25-.26-3.79c.55-1.65,1.56-2.94,3-3.9s3.06-1.42,4.95-1.46l.4-1.49h1.81l-.36,1.46c1.79.05,3.09.52,3.92,1.43s1.15,2.26.89,4.03h-4.27c.13-.77.09-1.34-.14-1.73s-.63-.59-1.21-.61l-.98,3.96c2.25.63,3.79,1.45,4.61,2.46s1.09,2.47.76,4.34c-.4,2.25-1.35,4.04-2.86,5.32s-3.65,2.07-6.3,2.26l-.77,3.1h-2.24Zm5.12-17.95l.94-3.53h-.1c-.69,0-1.25.14-1.67.41s-.72.7-.89,1.28c-.13.44-.07.8.18,1.08s.76.53,1.53.76Zm-1.07,10.13c.87,0,1.58-.19,2.12-.56s.88-.91,1.04-1.62c.14-.61.06-1.09-.23-1.44s-.88-.68-1.77-1l-1.16,4.61Z" style="fill: #fff; stroke: #5a1c87; stroke-miterlimit: 10;"/>
        <path d="m88.01,32.43l5.64-.64c.14.68.4,1.2.8,1.55s.92.53,1.57.53c.85,0,1.54-.28,2.06-.83s.8-1.28.86-2.2-.12-1.67-.54-2.21-.98-.81-1.7-.81c-.44,0-.86.1-1.24.3s-.73.49-1.04.87l-5-.49,3.31-10.46h10.54l-.11,4.26h-7.52l-.79,2.72c.53-.32,1.1-.55,1.7-.69s1.27-.21,2.02-.21c1.79,0,3.21.57,4.28,1.72s1.64,2.78,1.62,4.84c-.03,2.63-.81,4.78-2.37,6.39s-3.84,2.49-6.65,2.49c-2.32,0-4.15-.66-5.47-1.96s-1.93-3-1.97-5.17Z" style="fill: #fff; stroke: #5a1c87; stroke-miterlimit: 10;"/>
        <path d="m105.99,27.35c-.02-3.44.61-5.89,1.84-7.48s2.96-2.3,5.33-2.3,4.29.75,5.75,2.3,2.57,4.05,3.14,7.48c.61,3.7.38,6.69-.77,8.83s-3.29,3.37-6.25,3.37-5.22-1.15-6.79-3.38-2.24-5.13-2.26-8.82Zm10.5,0c-.24-2.18-.59-3.67-1.04-4.51s-1.09-1.24-1.94-1.24-1.44.4-1.74,1.22-.41,2.32-.28,4.52.44,3.98.9,4.96,1.19,1.5,2.16,1.5,1.59-.51,1.89-1.52.31-2.66.06-4.94Z" style="fill: #fff; stroke: #5a1c87; stroke-miterlimit: 10;"/>
        <path d="m123.13,27.35c-.61-3.44-.4-5.89.56-7.48s2.57-2.3,4.94-2.3,4.42.75,6.15,2.3,3.26,4.05,4.42,7.48c1.25,3.7,1.53,6.69.75,8.83s-2.71,3.37-5.67,3.37-5.42-1.15-7.37-3.38-3.12-5.13-3.78-8.82Zm10.5,0c-.62-2.18-1.22-3.67-1.82-4.51s-1.31-1.24-2.15-1.24-1.37.4-1.53,1.22,0,2.32.5,4.52,1.12,3.98,1.75,4.96,1.45,1.5,2.42,1.5,1.5-.51,1.63-1.52-.15-2.66-.79-4.94Z" style="fill: #fff; stroke: #5a1c87; stroke-miterlimit: 10;"/>
      </g>
    </g>
  </g>
</svg>