<?xml version="1.0" encoding="UTF-8"?>
<svg id="_图层_2" data-name="图层 2" xmlns="http://www.w3.org/2000/svg" viewBox="0 0 163.57 248.61">
  <g id="_图层_1-2" data-name="图层 1">
    <g>
      <path d="m162.57,242.01c0,3.08-2.51,5.6-5.57,5.6H6.57c-3.06,0-5.57-2.52-5.57-5.6V6.6C1,3.52,3.51,1,6.57,1h150.43c3.06,0,5.57,2.52,5.57,5.6v235.41Z" style="fill: #fff; fill-rule: evenodd; stroke: #231815; stroke-miterlimit: 22.93; stroke-width: 2px;"/>
      <g>
        <path d="m81.44,110.98c-.09-3.83-2.91-6.61-7.29-6.61s-8.35,3.71-8.57,9.04c-.21,5.32,2.34,10.71,6.71,16.57,4.36,5.85,9.69,14.26,9.5,14.26s5.13-8.41,9.5-14.26c4.36-5.85,6.92-11.25,6.71-16.57-.21-5.32-4.18-9.04-8.56-9.04s-7.19,2.78-7.29,6.61c0,0,.02,1.06-.35,1.03-.41-.03-.34-.77-.34-1.03Z" style="fill: #e60012; fill-rule: evenodd; stroke-width: 0px;"/>
        <g>
          <path d="m10.41,38.76l5.36-25.29h3.89l5.36,25.29h2.31v3.12h-7.78v-3.12h2.2l-.9-4.22h-6.29l-.9,4.22h2.47v3.12h-7.78v-3.12h2.04Zm9.79-7.34l-2.49-11.72-2.49,11.72h4.97Z" style="fill: #e60012; stroke-width: 0px;"/>
          <path d="m17.69,49.99c-.05-1.85-1.4-3.18-3.51-3.18s-4.02,1.79-4.13,4.35c-.1,2.56,1.13,5.16,3.23,7.98,2.1,2.82,4.67,6.87,4.58,6.87s2.47-4.05,4.58-6.87c2.1-2.82,3.33-5.42,3.23-7.98-.1-2.56-2.01-4.35-4.13-4.35s-3.47,1.34-3.51,3.18c0,0,0,.51-.17.5-.2-.01-.16-.37-.17-.5Z" style="fill: #e60012; fill-rule: evenodd; stroke-width: 0px;"/>
        </g>
        <g>
          <path d="m153.16,209.85l-5.36,25.29h-3.89l-5.36-25.29h-2.31v-3.12h7.78v3.12h-2.2l.9,4.22h6.29l.89-4.22h-2.47v-3.12h7.78v3.12h-2.04Zm-9.79,7.34l2.49,11.72,2.49-11.72h-4.97Z" style="fill: #e60012; stroke-width: 0px;"/>
          <path d="m145.89,198.62c.05,1.84,1.4,3.18,3.51,3.18s4.02-1.79,4.13-4.35c.1-2.56-1.13-5.16-3.23-7.98-2.1-2.82-4.67-6.87-4.58-6.87s-2.47,4.05-4.58,6.87c-2.1,2.82-3.33,5.42-3.23,7.98.1,2.56,2.01,4.35,4.13,4.35s3.47-1.34,3.51-3.18c0,0,0-.51.17-.5.2.01.16.37.17.5Z" style="fill: #e60012; fill-rule: evenodd; stroke-width: 0px;"/>
        </g>
      </g>
    </g>
  </g>
</svg>