<?xml version="1.0" encoding="UTF-8"?>
<svg id="_图层_2" data-name="图层 2" xmlns="http://www.w3.org/2000/svg" viewBox="0 0 163.57 248.61">
  <g id="_图层_1-2" data-name="图层 1">
    <g>
      <path d="m162.57,242.01c0,3.08-2.51,5.6-5.57,5.6H6.57c-3.06,0-5.57-2.52-5.57-5.6V6.6C1,3.52,3.51,1,6.57,1h150.43c3.06,0,5.57,2.52,5.57,5.6v235.41Z" style="fill: #fff; fill-rule: evenodd; stroke: #231815; stroke-miterlimit: 22.93; stroke-width: 2px;"/>
      <g>
        <g>
          <path d="m12.47,13.72v28.16h-3.12V13.72h3.12Zm8.39-.25c1.51,0,2.88.62,3.88,1.61,1,.99,1.62,2.36,1.62,3.87v17.63c0,1.5-.62,2.87-1.62,3.87-1,.99-2.38,1.61-3.88,1.61s-2.88-.62-3.88-1.61c-1-.99-1.62-2.36-1.62-3.87v-17.63c0-1.5.62-2.87,1.62-3.87,1-.99,2.38-1.61,3.88-1.61h0Zm0,3.12c-.66,0-1.26.27-1.69.69-.43.43-.7,1.01-.7,1.66v17.63c0,.65.27,1.23.7,1.66.43.43,1.03.69,1.69.69s1.26-.27,1.69-.69c.43-.43.7-1.01.7-1.66v-17.63c0-.65-.27-1.24-.7-1.66-.43-.43-1.03-.69-1.69-.69Z" style="fill: #e60012; stroke-width: 0px;"/>
          <path d="m17.69,49.99c-.04-1.85-1.4-3.18-3.51-3.18s-4.02,1.79-4.13,4.35c-.1,2.56,1.13,5.16,3.23,7.98,2.1,2.82,4.67,6.87,4.58,6.87s2.47-4.05,4.58-6.87c2.1-2.82,3.33-5.42,3.23-7.98-.1-2.56-2.02-4.35-4.13-4.35s-3.47,1.34-3.51,3.18c0,0,0,.51-.17.5-.2-.02-.16-.37-.17-.5Z" style="fill: #e60012; fill-rule: evenodd; stroke-width: 0px;"/>
        </g>
        <g>
          <path d="m151.11,234.89v-28.16h3.12v28.16h-3.12Zm-8.39.25c-1.51,0-2.89-.62-3.89-1.61-1-.99-1.62-2.36-1.62-3.87v-17.62c0-1.51.62-2.87,1.62-3.87,1-.99,2.38-1.61,3.89-1.61s2.88.62,3.88,1.61c1,.99,1.62,2.36,1.62,3.87v17.62c0,1.51-.62,2.88-1.62,3.87-1,.99-2.38,1.61-3.88,1.61h0Zm0-3.12c.66,0,1.26-.27,1.69-.69.43-.43.7-1.01.7-1.66v-17.62c0-.65-.27-1.24-.7-1.66-.43-.43-1.03-.69-1.69-.69s-1.26.27-1.69.69c-.43.43-.7,1.01-.7,1.66v17.62c0,.65.27,1.24.7,1.66.43.43,1.03.69,1.69.69Z" style="fill: #e60012; stroke-width: 0px;"/>
          <path d="m145.89,198.62c.05,1.85,1.4,3.18,3.51,3.18s4.03-1.79,4.13-4.35c.1-2.56-1.13-5.16-3.23-7.98-2.1-2.82-4.67-6.87-4.58-6.87s-2.47,4.05-4.58,6.87c-2.1,2.82-3.33,5.42-3.23,7.98.1,2.56,2.01,4.35,4.12,4.35s3.47-1.34,3.51-3.18c0,0,0-.51.17-.5.2.01.16.37.17.5Z" style="fill: #e60012; fill-rule: evenodd; stroke-width: 0px;"/>
        </g>
        <path d="m81.44,61.97c-.1-3.83-2.91-6.61-7.29-6.61s-8.35,3.71-8.56,9.04c-.21,5.32,2.34,10.71,6.71,16.57,4.36,5.85,9.69,14.26,9.5,14.26s5.13-8.41,9.5-14.26c4.37-5.85,6.92-11.25,6.71-16.57-.21-5.32-4.18-9.04-8.56-9.04s-7.2,2.78-7.29,6.61c0,0,.02,1.06-.35,1.03-.41-.03-.34-.77-.35-1.03h0Zm34.51-24.5c-.1-3.83-2.91-6.61-7.29-6.61s-8.35,3.71-8.56,9.04c-.21,5.32,2.34,10.71,6.71,16.57,4.36,5.85,9.69,14.26,9.5,14.26s5.13-8.41,9.5-14.26c4.37-5.85,6.92-11.25,6.71-16.57-.21-5.32-4.18-9.04-8.56-9.04s-7.19,2.78-7.29,6.61c0,0,.02,1.06-.36,1.03-.41-.03-.34-.77-.34-1.03h0Zm0,49.01c-.1-3.83-2.91-6.61-7.29-6.61s-8.35,3.71-8.56,9.04c-.21,5.32,2.34,10.71,6.71,16.57,4.36,5.85,9.69,14.26,9.5,14.26s5.13-8.41,9.5-14.26c4.37-5.85,6.92-11.25,6.71-16.57-.21-5.32-4.18-9.04-8.56-9.04s-7.19,2.78-7.29,6.61c0,0,.02,1.06-.36,1.03-.41-.03-.34-.77-.34-1.03h0ZM46.93,37.47c-.1-3.83-2.91-6.61-7.29-6.61s-8.35,3.71-8.56,9.04c-.21,5.32,2.34,10.71,6.71,16.57,4.36,5.85,9.69,14.26,9.5,14.26s5.13-8.41,9.5-14.26c4.36-5.85,6.92-11.25,6.71-16.57-.21-5.32-4.18-9.04-8.56-9.04s-7.2,2.78-7.29,6.61c0,0,.02,1.06-.35,1.03-.41-.03-.34-.77-.34-1.03h0Zm0,49.01c-.1-3.83-2.91-6.61-7.29-6.61s-8.35,3.71-8.56,9.04c-.21,5.32,2.34,10.71,6.71,16.57,4.36,5.85,9.69,14.26,9.5,14.26s5.13-8.41,9.5-14.26c4.36-5.85,6.92-11.25,6.71-16.57-.21-5.32-4.18-9.04-8.56-9.04s-7.2,2.78-7.29,6.61c0,0,.02,1.06-.35,1.03-.41-.03-.34-.77-.34-1.03h0Zm35.21,100.16c.1,3.83,2.91,6.61,7.29,6.61s8.35-3.71,8.56-9.04c.21-5.32-2.34-10.71-6.71-16.57-4.36-5.85-9.69-14.26-9.5-14.26s-5.13,8.41-9.5,14.26c-4.36,5.86-6.92,11.25-6.71,16.57.21,5.32,4.18,9.04,8.56,9.04s7.19-2.78,7.29-6.61c0,0-.02-1.06.36-1.03.41.03.34.77.34,1.03h0Zm-34.51-24.5c.1,3.83,2.91,6.61,7.29,6.61s8.35-3.71,8.56-9.04c.21-5.32-2.34-10.71-6.71-16.57-4.37-5.85-9.69-14.26-9.5-14.26s-5.13,8.41-9.5,14.26c-4.37,5.85-6.92,11.25-6.71,16.57.21,5.32,4.18,9.04,8.56,9.04s7.2-2.78,7.29-6.61c0,0-.02-1.06.35-1.03.41.03.34.77.35,1.03h0Zm69.02,0c.1,3.83,2.91,6.61,7.29,6.61s8.35-3.71,8.56-9.04c.21-5.32-2.34-10.71-6.71-16.57-4.36-5.85-9.69-14.26-9.5-14.26s-5.13,8.41-9.5,14.26c-4.37,5.85-6.92,11.25-6.71,16.57.21,5.32,4.18,9.04,8.56,9.04s7.19-2.78,7.29-6.61c0,0-.02-1.06.35-1.03.41.03.34.77.35,1.03h0Zm0,49.01c.1,3.83,2.91,6.61,7.29,6.61s8.35-3.71,8.56-9.04-2.34-10.71-6.71-16.57c-4.36-5.85-9.69-14.26-9.5-14.26s-5.13,8.41-9.5,14.26c-4.37,5.85-6.92,11.25-6.71,16.57.21,5.32,4.18,9.04,8.56,9.04s7.19-2.78,7.29-6.61c0,0-.02-1.06.35-1.03.41.03.34.77.35,1.03h0Zm-69.02,0c.1,3.83,2.91,6.61,7.29,6.61s8.35-3.71,8.56-9.04-2.34-10.71-6.71-16.57c-4.37-5.85-9.69-14.26-9.5-14.26s-5.13,8.41-9.5,14.26c-4.37,5.85-6.92,11.25-6.71,16.57s4.18,9.04,8.56,9.04,7.2-2.78,7.29-6.61c0,0-.02-1.06.35-1.03.41.03.34.77.35,1.03Z" style="fill: #e60012; fill-rule: evenodd; stroke-width: 0px;"/>
      </g>
    </g>
  </g>
</svg>