<?xml version="1.0" encoding="UTF-8"?>
<svg id="_图层_2" data-name="图层 2" xmlns="http://www.w3.org/2000/svg" viewBox="0 0 163.57 248.61">
  <g id="_图层_1-2" data-name="图层 1">
    <g>
      <path d="m162.57,242.01c0,3.08-2.51,5.6-5.57,5.6H6.57c-3.06,0-5.57-2.52-5.57-5.6V6.6C1,3.52,3.51,1,6.57,1h150.43c3.06,0,5.57,2.52,5.57,5.6v235.41Z" style="fill: #fff; fill-rule: evenodd; stroke: #231815; stroke-miterlimit: 22.93; stroke-width: 2px;"/>
      <g>
        <g>
          <path d="m46.07,40.04c-.08-3.15-2.39-5.43-5.99-5.43s-6.87,3.05-7.04,7.43c-.18,4.37,1.92,8.8,5.51,13.62,3.59,4.81,7.96,11.72,7.81,11.72s4.22-6.91,7.81-11.72c3.59-4.81,5.69-9.25,5.51-13.62-.17-4.38-3.44-7.43-7.04-7.43s-5.91,2.28-5.99,5.43c0,0,.02.87-.29.85-.34-.02-.28-.63-.29-.85Z" style="fill: #e60012; fill-rule: evenodd; stroke-width: 0px;"/>
          <path d="m117.5,208.57c.08,3.15,2.39,5.43,5.99,5.43s6.86-3.05,7.04-7.43c.18-4.37-1.92-8.8-5.51-13.62-3.59-4.81-7.96-11.72-7.81-11.72s-4.22,6.91-7.81,11.72-5.69,9.24-5.51,13.62c.17,4.38,3.44,7.43,7.04,7.43s5.91-2.28,5.99-5.43c0,0-.02-.87.29-.85.34.02.28.64.28.85Z" style="fill: #e60012; fill-rule: evenodd; stroke-width: 0px;"/>
        </g>
        <g>
          <path d="m127.13,51.16v-5.69s-6.05-1.3-7.27-11.45c0,0-5.4,6.41-5.33,13.61.07,7.2,1.58,11.16,5.19,16.49,0,0,1.3-9.43,7.42-12.96Z" style="fill: #004ea2; fill-rule: evenodd; stroke-width: 0px;"/>
          <path d="m36.45,197.45v5.69s6.05,1.3,7.27,11.45c0,0,5.4-6.41,5.33-13.61-.07-7.2-1.59-11.16-5.19-16.49,0,0-1.3,9.43-7.42,12.96Z" style="fill: #004ea2; fill-rule: evenodd; stroke-width: 0px;"/>
          <path d="m126.2,79.89v.25l-8.84-6.73c1.08-1.4,1.63-2.99,1.45-5.75-.18-2.76-2.17-4.03-4.26-4.15-2.09-.11-3.09,1.59-3.09,1.59-1.7.2-2.76-2.52-4.08-7.8-1.32-5.29-2.19-14.78-2.19-14.78l10.29-15.74h-57.53l8.22,13.57,1.57,5.08s-3.18,7.46-4.12,10.62c0,0,.95,1.74,4.23,3.4,0,0-.51,2.31-.42,3.25.09.94.6,1.12.6,1.12,0,0,.06.82.09,1.09.03.27,1.35,1.03,1.47,1.78.12.76.03,1.72.03,1.72,0,0-1.15-.94-2.89-.74-1.74.21-3.1,1.3-3.69,2.84-.6,1.54-.15,3.08.19,3.39,0,0-10.86,6.49-19.12,14.09,0,0-1.15-7.33-6.1-6.83,0,0-.58-.09,0-.52.58-.42,1.88-1.64,4.45-1.75,2.57-.12,3.59.34,5.24.06,1.65-.27,3.18-1.75,4.2-3.44,1.02-1.69,1.57-4.83,1.44-5.34l-.58-.4s-1.24,1.7-2.45,2.13c-1.21.43-1.69.46-5.66.46s-7.92,1.25-9.05,6.09c0,0-.99-.41-2.14.07-1.15.48-1.6,1.25-1.44,2.61,0,0-2.97.43-1.31,3.89,0,0-2.01,2.54-.64,4.17,0,0-.82,2.36.97,3.97,0,0-.8,3.01-.87,4.34l2.34.8.15-1.88,1.52,1.2s-2.99,3.05-4.59,5.14v111.68l7.78-5.81v-40.16l8.84,6.73c-1.08,1.4-1.63,2.99-1.45,5.75.18,2.76,2.17,4.03,4.26,4.15,2.09.11,3.09-1.59,3.09-1.59,1.7-.2,2.76,2.52,4.08,7.8,1.32,5.29,2.2,14.78,2.2,14.78l-10.3,15.74h57.53l-8.22-13.57-1.57-5.08s3.19-7.46,4.12-10.62c0,0-.96-1.74-4.23-3.4,0,0,.51-2.31.42-3.25-.09-.94-.6-1.12-.6-1.12,0,0-.06-.82-.09-1.09-.03-.27-1.35-1.03-1.47-1.78-.12-.75-.03-1.72-.03-1.72,0,0,1.15.94,2.89.74,1.74-.21,3.09-1.3,3.69-2.84.6-1.54.15-3.08-.19-3.39,0,0,10.86-6.49,19.12-14.09,0,0,1.15,7.33,6.1,6.83,0,0,.58.09,0,.52-.58.42-1.88,1.64-4.45,1.75-2.57.12-3.59-.33-5.24-.06-1.65.27-3.18,1.75-4.2,3.44-1.02,1.69-1.57,4.82-1.44,5.34l.58.4s1.23-1.7,2.45-2.13c1.21-.42,1.69-.46,5.66-.46s7.92-1.24,9.05-6.09c0,0,.99.41,2.14-.07,1.15-.48,1.6-1.25,1.44-2.61,0,0,2.97-.43,1.31-3.89,0,0,2.01-2.54.64-4.17,0,0,.82-2.36-.97-3.97,0,0,.79-3.01.87-4.34l-2.34-.79-.15,1.88-1.52-1.2s2.99-3.05,4.59-5.14V34.18l-7.78,5.81v39.9Z" style="fill: #004ea2; fill-rule: evenodd; stroke-width: 0px;"/>
          <path d="m122.54,93.56c.51.87,1.07,1.86,1.65,2.96l9.8,6.83v-1.66l-11.45-8.13h0Zm2.34,4.33l9.11,6.47v1.38l-7.91-5.23c-.4-.92-.8-1.79-1.2-2.61h0Zm1.74,3.9l7.37,5.03v1.7l-6.49-4.34c-.29-.82-.58-1.62-.89-2.38h0Zm1.31,3.66c.23.71.44,1.45.65,2.21l5.41,3.63v-1.7l-6.06-4.13h0Zm.94,3.36l5.12,3.49v1.7l-4.65-3.12c-.14-.71-.3-1.4-.46-2.08h0Zm.69,3.26c.08.47.16.95.23,1.44l2.8,1.83c.31-.22.63-.43.95-.65l-3.99-2.62h0Zm.39,2.56l2.01,1.16c-.6.43-1.19.87-1.76,1.31-.06-.84-.15-1.67-.25-2.47Z" style="fill: #fff; fill-rule: evenodd; stroke-width: 0px;"/>
          <path d="m41.04,155.06c-.51-.87-1.07-1.86-1.65-2.95l-9.8-6.83v1.66l11.45,8.13h0Zm-2.34-4.33l-9.11-6.47v-1.38l7.91,5.23c.4.92.8,1.79,1.2,2.61h0Zm-1.74-3.9l-7.37-5.03v-1.7l6.49,4.34c.28.82.58,1.62.89,2.38h0Zm-1.31-3.67c-.23-.71-.44-1.45-.65-2.21l-5.41-3.63v1.7l6.06,4.13h0Zm-.94-3.36l-5.12-3.49v-1.7l4.65,3.12c.14.71.3,1.4.46,2.08h0Zm-.69-3.26c-.08-.47-.16-.95-.23-1.44l-2.8-1.84c-.31.22-.63.43-.95.65l3.99,2.63h0Zm-.38-2.56l-2.01-1.17c.6-.43,1.19-.87,1.76-1.31.06.84.14,1.67.25,2.48Z" style="fill: #fff; fill-rule: evenodd; stroke-width: 0px;"/>
          <path d="m81.18,116.72v.02l1.19,20.95c2.64,21.6,14.86,37.51,14.86,37.51,10.86-6.42,16.5-10.69,23.5-16.81,5.89-5.15,11.58-11.77,13.25-13.75v-30.24c-23.54,15.44-25.35,39.15-25.35,39.15l-3.75-8.74c7.11-8.44,11.44-16.12,11.64-29.39.2-13.27-7.55-22.91-7.55-22.91l10.46-16.88-2.17-2.06c-2.18,2.15-6.15,1.33-7.79.6-.36-.16-.7-.35-1.02-.57-.07-.04-.13-.09-.19-.13l-27.08,43.25Z" style="fill: #231815; fill-rule: evenodd; stroke-width: 0px;"/>
          <path d="m82.39,131.89v-.02l-1.19-20.95c-2.64-21.6-14.86-37.51-14.86-37.51-10.87,6.42-16.5,10.69-23.5,16.81-5.89,5.15-11.58,11.77-13.25,13.75v30.24c23.54-15.44,25.35-39.15,25.35-39.15l3.75,8.74c-7.11,8.44-11.44,16.12-11.64,29.39-.2,13.27,7.55,22.91,7.55,22.91l-10.46,16.88,2.17,2.06c2.18-2.15,6.15-1.33,7.79-.6.36.16.7.35,1.02.57.06.04.13.09.19.14l27.08-43.25Z" style="fill: #231815; fill-rule: evenodd; stroke-width: 0px;"/>
          <path d="m113.19,85.72c1.35,1.53,5.21,6.15,7.86,11.93,3.03,6.61,5.13,13.06,6.51,21.6-17.46,15.1-18.92,34.3-18.92,34.3l-3.75-8.74c7.11-8.44,11.44-16.12,11.64-29.39.2-13.27-7.55-22.91-7.55-22.91l4.21-6.8Z" style="fill: #e60012; fill-rule: evenodd; stroke-width: 0px;"/>
          <path d="m50.39,162.89c-1.35-1.53-5.21-6.15-7.86-11.93-3.03-6.61-5.13-13.06-6.5-21.6,17.46-15.1,18.91-34.3,18.91-34.3l3.75,8.74c-7.11,8.44-11.44,16.12-11.64,29.39-.2,13.27,7.55,22.91,7.55,22.91l-4.21,6.8Z" style="fill: #e60012; fill-rule: evenodd; stroke-width: 0px;"/>
          <path d="m59.75,26.78l7.46,12.23s19.6-4.82,37.09,2.07l9.38-14.3h-53.92Z" style="fill: #e60012; fill-rule: evenodd; stroke-width: 0px;"/>
          <path d="m103.82,221.84l-7.46-12.23s-19.6,4.82-37.09-2.07l-9.38,14.3h53.92Z" style="fill: #e60012; fill-rule: evenodd; stroke-width: 0px;"/>
          <path d="m61.86,26.78l5.1,9.43s6-1.31,8.91-1.52l-2.64-7.91h-2.64l1.88,5.61-3.77.75-3.08-6.35h-3.75Zm14.98,0h3.03l1.41,5.32,7.03.36,1.12-5.68h2.97l-2.12,8.4-11.21-.65-2.22-7.75h0Zm19.03,0h2.71l-1.63,6.85,5.63,1.57,4.21-8.41h3.45l-6.87,11.41-9.36-2.88,1.86-8.54Z" style="fill: #fff; fill-rule: evenodd; stroke-width: 0px;"/>
          <path d="m101.72,221.84l-5.1-9.43s-6,1.31-8.9,1.52l2.64,7.91h2.64l-1.88-5.61,3.77-.75,3.08,6.35h3.75Zm-14.98,0h-3.03l-1.41-5.32-7.03-.36-1.12,5.68h-2.97l2.12-8.4,11.21.65,2.22,7.75h0Zm-19.03,0h-2.71l1.63-6.85-5.64-1.57-4.21,8.42h-3.45l6.87-11.41,9.36,2.88-1.86,8.54Z" style="fill: #fff; fill-rule: evenodd; stroke-width: 0px;"/>
          <path d="m67.42,42.01l1.05,3.77s-2.76,5.92-4.04,10.31c0,0,.7,1.25,4.32,3.12l-.66,2.42s2.52,1.19,3.16,1.32c.64.13,1.25-.84,1.25-.84,0,0,.43,2.08,1.6,3.07,0,0-1.63-1.17-2.51-1.33-.88-.16-1.77-.24-2.45,1.08,0,0,1.12,1.19,1.14,1.45.02.26.04,1.65.1,2.46.06.81.36,1.43,1.79,1.62,1.43.19,5.33-.55,8.1-2.38,2.78-1.82,5.15-4.2,7.38-9.06,0,0-1.91.02-2.49-1.2-.58-1.23-.31-2.86.64-3.35,0,0,0,.18-.29.97-.29.8-.2,2.16.85,2.24,1.05.08,2.27-.41,2.69-2.38.43-1.97.53-3.8.1-7.54-.34-2.98-1.41-6.09-2.24-7.61-10.11-.55-17.78,1.36-19.52,1.84h0Zm2.65,18.72h-.21s.72-1.47,1.65-1.39c.93.08,2.08.6,3.16,1.24,1.07.64,1.84.73,2.66.29.82-.44,1.01-1.86.29-2.36-.72-.5-1.16-.33-1.55-.56-.39-.23-.25-.48.41-.6.66-.12,1.44.1,1.98,1.2.54,1.1.25,2.8-.54,3.42-.78.62-1.69.66-2.76.35-1.07-.31-2.23-1.3-3.17-1.55-.95-.25-1.92-.04-1.92-.04h0Zm-1.98-3.96l-.28-.25s-.27.06-.66.27c-.39.21-.53.03-.56-.34-.03-.37.41-.9,1.08-1.27.67-.38.69-.22,1.22.45.53.67,1.12,1.33,1.82,1.33s1.2-.78,1.18-1.41c-.03-.63-.63-.76-.87-.91-.24-.16.12-.42.73.08.6.51.8,1,.81,2.07.01,1.08-1.12,1.33-1.79,1.3-.67-.03-1.81-.34-2.68-1.32h0Zm2.82-14.05c1.25.11,2.47.24,3.71.49,1.86.38,4.29,1.59,6.83,5.61,0,0-3.97-3.96-5.76-4.15-1.79-.2-4.15.04-5.08-.13-.93-.16-1.47-.76-1.53-1.28-.05-.52.21-.97.61-.94.4.04.38.34,1.22.4h0Zm-.87,3.64s1.1.07,1.57-.13c.47-.2,1.32-.67,2.62-.6,1.3.07,2.2.38,3.88,1.57,1.68,1.19,2.35,2.13,2.35,2.31s-1.75-1.23-3.05-2.15c-1.3-.92-4.8-1.53-5.76-.36,0,0,1.32-.13,3.09.25,1.77.38,3.61,1.52,4.68,2.44,1.08.92.65,1.43.09,1.5-.56.07-1.55-.34-1.93-.72,0,0-1.44,1.5-4.17,1.3,0,0,.74,1.66,2.96,1.79,0,0-2.73.54-4.55-2.29h-1.59s.6-.59.83-1.45c.31-1.14-.31-2.61-1.03-3.46h0Zm3.84,2.55c.43.24-.03,1.29-.43,1.39-.35.09-.43-.18-.32-.35.11-.17.33-.46.43-.79.1-.32.32-.25.32-.25h0Zm.62,1.84c-.24-.16-.27-.37-.19-.68.07-.3.4-.67.9-.71.5-.04,1.52-.11,1.34.42-.18.53-.96,1.09-2.04.97Z" style="fill: #fff; fill-rule: evenodd; stroke-width: 0px;"/>
          <path d="m96.16,206.6l-1.05-3.77s2.76-5.92,4.04-10.31c0,0-.7-1.25-4.32-3.13l.66-2.42s-2.52-1.19-3.16-1.32c-.64-.13-1.25.84-1.25.84,0,0-.43-2.08-1.6-3.07,0,0,1.63,1.17,2.51,1.33.88.16,1.77.24,2.45-1.08,0,0-1.12-1.19-1.14-1.45s-.04-1.65-.1-2.46c-.06-.81-.36-1.43-1.79-1.62-1.43-.19-5.33.55-8.1,2.38-2.77,1.82-5.15,4.2-7.38,9.06,0,0,1.91-.02,2.49,1.2.58,1.23.31,2.86-.64,3.35,0,0,0-.18.29-.97.29-.8.19-2.16-.85-2.24-1.04-.08-2.27.41-2.69,2.38-.43,1.97-.53,3.8-.1,7.54.34,2.98,1.41,6.09,2.24,7.61,10.11.55,17.78-1.36,19.52-1.84h0Zm-2.65-18.72h.21s-.72,1.47-1.65,1.39c-.93-.08-2.08-.6-3.16-1.24-1.07-.64-1.84-.73-2.66-.29-.83.43-1.01,1.86-.29,2.36.72.5,1.16.33,1.55.56.39.23.25.48-.41.6-.66.12-1.44-.1-1.98-1.2-.54-1.1-.25-2.8.54-3.42.78-.62,1.69-.66,2.76-.35,1.07.31,2.23,1.3,3.18,1.55.95.25,1.92.04,1.92.04h0Zm1.98,3.96l.28.25s.27-.06.66-.27c.39-.21.53-.03.56.34.03.37-.41.9-1.08,1.27-.67.38-.69.22-1.22-.45-.53-.67-1.12-1.33-1.82-1.33s-1.21.78-1.18,1.42c.03.63.63.76.87.91.24.16-.13.42-.73-.08s-.8-.99-.81-2.07c-.01-1.08,1.12-1.33,1.79-1.3.67.03,1.81.34,2.68,1.32h0Zm-2.82,14.05c-1.25-.11-2.47-.24-3.71-.49-1.86-.38-4.29-1.59-6.83-5.61,0,0,3.97,3.96,5.76,4.15,1.79.2,4.15-.04,5.08.13.93.16,1.47.76,1.53,1.28.05.52-.22.98-.61.94-.4-.04-.38-.34-1.22-.4h0Zm.87-3.64s-1.1-.07-1.57.13c-.47.2-1.32.67-2.62.6-1.3-.07-2.2-.38-3.88-1.57-1.68-1.19-2.35-2.13-2.35-2.31s1.75,1.23,3.05,2.15c1.3.92,4.8,1.53,5.76.36,0,0-1.32.14-3.09-.25-1.77-.38-3.61-1.53-4.68-2.44-1.08-.92-.65-1.43-.09-1.5.56-.07,1.55.34,1.93.72,0,0,1.44-1.5,4.17-1.3,0,0-.74-1.66-2.96-1.79,0,0,2.74-.54,4.55,2.29h1.59s-.6.59-.83,1.45c-.31,1.14.31,2.61,1.03,3.46h0Zm-3.84-2.55c-.43-.24.03-1.29.43-1.39.35-.09.43.18.32.35-.11.17-.33.46-.43.79s-.32.25-.32.25h0Zm-.62-1.84c.24.16.27.37.19.68-.07.3-.4.67-.9.71-.5.04-1.52.11-1.34-.42.18-.53.96-1.09,2.04-.97Z" style="fill: #fff; fill-rule: evenodd; stroke-width: 0px;"/>
          <path d="m97.38,41.6c.4,1.73.96,4.24,1.26,5.97.29,1.7.51,3.9.74,6.1.16,1.54.31,3.08.49,4.41.21,1.61.52,3.48,1.09,5.32.55,1.75,1.35,3.48,2.56,4.92h.83c-1.93-2.96-2.73-5.75-3.25-9.15-.57-3.66-.57-5.49-1.14-9.77-.33-2.49-.96-5.47-1.42-7.53-.39-.09-.78-.19-1.16-.27h0Zm-1.67-.35c.35.07.71.14,1.06.22.4,1.72,1,4.39,1.31,6.2.29,1.68.51,3.88.73,6.06.16,1.54.31,3.07.49,4.42.22,1.64.53,3.54,1.11,5.42.53,1.68,1.28,3.33,2.38,4.75h-1.12c-1.73-2.39-2.15-4.52-2.63-6.91-.08-.39-.15-.78-.24-1.2h0c-.62-2.95-.96-5.84-1.3-8.7-.23-1.99-.47-3.96-.79-5.96-.27-1.66-.68-3.21-1-4.3h0Zm-1.71-.31c.36.06.73.12,1.09.19.33,1.08.78,2.74,1.07,4.51.32,1.96.56,3.94.79,5.93.34,2.87.68,5.77,1.31,8.75h0c.08.39.16.8.24,1.2.47,2.35.88,4.45,2.49,6.81h-1.3c-1.19-2.31-1.99-5.12-2.55-8-.58-2.95-.92-5.98-1.19-8.62-.41-3.89-1.43-8.54-1.95-10.76h0Zm-1.63-.25c.34.05.69.1,1.04.15.5,2.1,1.57,6.91,1.99,10.91.28,2.66.62,5.7,1.2,8.67.55,2.82,1.33,5.58,2.48,7.89h-.62c-2.51-4.31-3.13-9.41-3.78-14.81-.36-3.02-.74-6.15-1.47-9.3-.23-1-.59-2.5-.83-3.52h0Zm-1.73-.22c.38.04.75.09,1.13.14.24,1,.63,2.63.88,3.72.72,3.12,1.09,6.23,1.46,9.24.64,5.35,1.25,10.4,3.69,14.75h-.86c-2.72-4.1-3.27-9.69-3.79-14.95-.2-2.06-.4-4.06-.72-5.9-.42-2.42-1.31-5.47-1.78-7h0Zm-1.38-.14c.32,1.01.89,3.05,1.44,6.06.39,2.13.62,4.28.86,6.43.57,5.16,1.15,10.41,3.79,15.49h.93c-2.62-4.18-3.17-9.7-3.69-14.89-.2-2.04-.4-4.03-.72-5.86-.44-2.51-1.39-5.73-1.84-7.15-.26-.03-.51-.05-.77-.08h0Zm-1.79-.14c.26.51.83,1.79,1.54,4.45.45,1.68,1.2,5.13.72,9.14.26,1.6,1.97,11.62,3.79,14.53h1.19c-2.58-5.09-3.15-10.3-3.72-15.43-.24-2.16-.47-4.3-.85-6.4-.59-3.23-1.2-5.31-1.49-6.21-.4-.03-.79-.06-1.18-.08h0Zm1.99,15.29c-.14.71-.33,1.44-.57,2.17.31,1.62,1.37,6.84,2.81,10.65h1.18c-1.48-2.74-2.83-9.54-3.42-12.83h0Zm-.93,3.2c-.17.45-.37.89-.58,1.34.21,1.35.84,4.88,2.17,8.29h1c-1.21-3.27-2.14-7.46-2.58-9.63h0Zm-1.01,2.18c.29,1.65.9,4.57,2,7.44h-.91l-1.85-6.16c.28-.43.53-.86.76-1.29h0Zm-1.17,1.89l1.67,5.56h-.81l-1.43-4.77c.2-.26.39-.52.58-.79h0Zm-1,1.32c-.32.39-.66.76-1.01,1.14l.96,3.1h1.33l-1.27-4.24h0Zm-1.46,1.59l.82,2.65h-.94l-.61-1.96c.25-.23.5-.46.73-.69h0Zm-1.19,1.1c-.17.14-.34.28-.51.42l.35,1.13h.64l-.48-1.56h0Zm-.98.8c-.33.26-.68.51-1.04.76h1.27l-.24-.76h0Zm21.67-24.27c.38.13.75.26,1.13.4.25,2.07,1.11,8.98,2.45,14.89,1.59,7.04,3.94,7.22,3.94,7.22l-.53,1.46c-3.54-2.57-4.37-8.91-5.01-11.98-.57-2.75-1.75-10.42-1.99-11.99h0Zm-2.61-.82c.3.09.6.18.9.27.51,1.93,1.02,5.85,1.75,12.27.61,7.3,2.06,9.64,3.61,12.22,1.55,2.58,4.09,4.09,5.87,4.22,1.77.13,2.74-1.19,2.67-2.35-.06-1.16-.68-1.71-1.39-1.71s-1.38.39-1.38.39c.48-1.45,1.03-1.77,1.51-1.71.48.07,1.93.07,2.13,2.29.19,2.22-.55,3.9-2.38,4.32-1.84.42-5.64-1.16-7.73-4.42-2.09-3.25-2.91-6.47-3.38-9.71-.47-3.25-.7-5.82-1.04-9.01-.27-2.53-.89-5.8-1.13-7.06h0Zm1.33.4c.32.1.63.2.95.31.16,1.18.45,3.27.97,6.64.9,5.91,1.24,8.17,2.45,12.03,1.21,3.86,2.65,5,3.58,5.82.93.83,1.87,1.32,2.32,1.21.45-.11.61-.7,1.22-.88.61-.18,1.05.05,1.31.56.26.51.3,2.07-1.61,2.3-1.91.23-3.71-1.48-3.71-1.48-3.3-3.16-4.74-7.49-5.12-10.19-.37-2.7-.71-6.17-1.18-9.44-.38-2.67-.98-5.81-1.18-6.88h0Zm-3.1-.88c.37.09.74.19,1.11.29,1.21,3.54,1.74,11.4,2.19,15.87.48,4.71,1.7,7.83,3.86,10.69,2.16,2.85,4.64,4.25,6.44,4.36,1.8.11,2.76-.44,3.5-1.32.74-.88,1.26-2.63.82-4.12-.44-1.48-1.28-2.28-2.57-2.33-1.28-.05-1.83,1.18-1.99,2.03-.16.85-.46.77-.46.77-.79-.05-.98-1.43-.05-2.83.93-1.4,3.06-1.84,4.92-.55,1.86,1.29,2.19,4.67.57,7.58-1.61,2.91-6.64,2.61-9.67-.22-3.03-2.83-4.67-7.48-4.67-7.48-1.37-3.26-1.79-7.69-2.31-13.75-.45-5.17-1.4-8.22-1.67-9Z" style="fill: #ffe100; fill-rule: evenodd; stroke-width: 0px;"/>
          <path d="m66.2,207.02c-.4-1.73-.96-4.24-1.26-5.97-.29-1.7-.51-3.91-.74-6.1-.16-1.54-.31-3.08-.49-4.41-.21-1.61-.52-3.48-1.09-5.32-.55-1.75-1.35-3.48-2.56-4.92h-.83c1.93,2.96,2.73,5.75,3.25,9.15.57,3.66.57,5.49,1.13,9.77.33,2.49.96,5.47,1.43,7.53.39.09.78.19,1.16.27h0Zm1.66.35c-.35-.07-.7-.14-1.06-.22-.4-1.72-1-4.39-1.31-6.2-.29-1.68-.51-3.88-.74-6.06-.16-1.54-.31-3.07-.49-4.42-.22-1.64-.53-3.54-1.11-5.42-.53-1.68-1.27-3.33-2.38-4.75h1.12c1.73,2.39,2.15,4.52,2.63,6.91.08.39.16.78.24,1.2h0c.62,2.95.96,5.84,1.3,8.7.23,1.99.46,3.96.79,5.95.27,1.66.68,3.21,1,4.3h0Zm1.71.31c-.36-.06-.73-.12-1.09-.19-.33-1.08-.77-2.74-1.07-4.51-.32-1.96-.55-3.94-.79-5.93-.34-2.87-.68-5.77-1.31-8.75h0c-.08-.39-.16-.8-.24-1.2-.47-2.35-.88-4.45-2.49-6.81h1.3c1.19,2.31,1.99,5.12,2.55,8,.58,2.95.92,5.98,1.19,8.62.41,3.89,1.43,8.54,1.95,10.76h0Zm1.63.25c-.34-.04-.69-.1-1.04-.15-.5-2.1-1.57-6.91-1.99-10.91-.28-2.66-.62-5.7-1.2-8.67-.55-2.82-1.33-5.58-2.48-7.89h.63c2.51,4.31,3.13,9.41,3.78,14.81.37,3.02.74,6.15,1.47,9.3.23,1,.59,2.5.83,3.52h0Zm1.73.22c-.38-.04-.75-.09-1.13-.14-.24-1-.63-2.63-.88-3.72-.72-3.12-1.09-6.23-1.46-9.24-.64-5.35-1.25-10.4-3.69-14.75h.86c2.72,4.1,3.28,9.69,3.8,14.95.2,2.06.4,4.06.72,5.9.42,2.42,1.31,5.47,1.79,7h0Zm1.38.14c-.32-1.01-.89-3.05-1.44-6.06-.39-2.13-.62-4.28-.86-6.43-.57-5.16-1.15-10.41-3.79-15.49h-.93c2.62,4.18,3.17,9.7,3.69,14.89.2,2.04.4,4.03.72,5.87.44,2.51,1.4,5.72,1.84,7.15.26.03.51.05.77.07h0Zm1.79.14c-.26-.5-.83-1.79-1.54-4.45-.45-1.68-1.2-5.13-.72-9.14-.26-1.6-1.97-11.62-3.79-14.53h-1.19c2.58,5.09,3.15,10.3,3.72,15.43.24,2.16.47,4.3.85,6.4.59,3.23,1.2,5.31,1.49,6.21.4.03.79.06,1.18.08h0Zm-1.99-15.29c.14-.71.33-1.44.57-2.17-.31-1.62-1.37-6.84-2.81-10.65h-1.18c1.48,2.74,2.83,9.54,3.42,12.83h0Zm.93-3.2c.17-.45.37-.89.58-1.34-.21-1.35-.84-4.88-2.17-8.29h-1c1.21,3.27,2.14,7.46,2.58,9.63h0Zm1.01-2.18c-.29-1.65-.9-4.57-2-7.44h.91l1.85,6.16c-.28.43-.53.86-.76,1.29h0Zm1.17-1.89l-1.67-5.56h.81l1.43,4.77c-.2.26-.39.52-.58.79h0Zm1-1.32c.32-.38.66-.76,1.01-1.14l-.96-3.1h-1.33l1.27,4.24h0Zm1.46-1.59l-.82-2.65h.94l.61,1.96c-.25.23-.49.46-.73.69h0Zm1.19-1.1c.17-.14.34-.28.51-.42l-.35-1.13h-.64l.48,1.56h0Zm.98-.8c.33-.26.68-.51,1.04-.76h-1.27l.24.76h0Zm-21.68,24.27c-.38-.13-.75-.26-1.13-.4-.24-2.07-1.11-8.98-2.45-14.89-1.59-7.04-3.94-7.22-3.94-7.22l.53-1.46c3.54,2.57,4.38,8.91,5.01,11.98.57,2.75,1.75,10.42,1.99,11.99h0Zm2.61.82c-.3-.09-.6-.18-.9-.27-.51-1.93-1.01-5.85-1.75-12.27-.61-7.3-2.06-9.64-3.61-12.22-1.55-2.58-4.09-4.09-5.86-4.22-1.77-.13-2.74,1.19-2.67,2.35.06,1.16.68,1.71,1.38,1.71s1.39-.39,1.39-.39c-.48,1.45-1.03,1.77-1.51,1.71-.48-.06-1.93-.06-2.13-2.29-.19-2.22.55-3.9,2.38-4.32,1.84-.42,5.64,1.16,7.74,4.42,2.09,3.25,2.91,6.47,3.38,9.71.47,3.25.7,5.82,1.04,9.01.27,2.53.88,5.8,1.13,7.06h0Zm-1.33-.4c-.32-.1-.63-.2-.94-.31-.16-1.18-.45-3.27-.97-6.64-.9-5.91-1.24-8.17-2.45-12.03-1.21-3.86-2.65-5-3.58-5.82-.93-.82-1.87-1.32-2.32-1.21-.46.11-.61.7-1.22.88-.61.18-1.05-.05-1.31-.56-.26-.51-.3-2.07,1.61-2.3,1.91-.23,3.71,1.48,3.71,1.48,3.3,3.16,4.75,7.49,5.12,10.19.37,2.7.71,6.17,1.18,9.44.38,2.67.98,5.82,1.18,6.88h0Zm3.1.88c-.37-.09-.74-.19-1.11-.29-1.21-3.53-1.74-11.4-2.19-15.87-.48-4.71-1.7-7.83-3.85-10.69-2.16-2.85-4.64-4.25-6.45-4.36-1.8-.11-2.76.44-3.5,1.32-.74.88-1.26,2.63-.82,4.12.44,1.48,1.28,2.28,2.57,2.33,1.28.05,1.83-1.18,1.99-2.03.16-.85.46-.77.46-.77.79.06.98,1.43.05,2.83s-3.06,1.84-4.91.55c-1.86-1.29-2.19-4.67-.57-7.58,1.61-2.91,6.64-2.61,9.67.22,3.03,2.83,4.67,7.48,4.67,7.48,1.37,3.26,1.79,7.69,2.31,13.75.45,5.17,1.4,8.22,1.67,9Z" style="fill: #ffe100; fill-rule: evenodd; stroke-width: 0px;"/>
          <path d="m64.98,73.02l-1.07.62s-.42-.64-.39-2.02c.03-1.37,1.32-2.86,2.8-3.05,1.49-.2,3.62.03,4.06,1.74,0,0-.5.39-1.06.42-.56.03-.87-.34-1.21-.67-.33-.34-.42.42-.42.79s-.05.67-.05.67c0,0-1.18-.84-1.74-.7-.56.14.39,1.32.39,1.32l-1.93-.03.62.92Z" style="fill: #fff; fill-rule: evenodd; stroke-width: 0px;"/>
          <path d="m98.59,175.59l1.07-.62s.42.64.39,2.02c-.03,1.37-1.32,2.86-2.8,3.05-1.49.2-3.62-.03-4.06-1.74,0,0,.5-.39,1.07-.42.56-.03.87.34,1.2.67s.42-.42.42-.79.06-.67.06-.67c0,0,1.18.84,1.74.7.56-.14-.39-1.32-.39-1.32l1.93.03-.62-.92Z" style="fill: #fff; fill-rule: evenodd; stroke-width: 0px;"/>
          <path d="m70.82,79.38l-.92-1.46h32.74l-.96,1.46h-30.86Zm-.62-8.12l.84-.42s4.14.46,7.13-1.05h26.95c.24.42.57.94.97,1.48h-35.89Z" style="fill: #e60012; fill-rule: evenodd; stroke-width: 0px;"/>
          <path d="m92.76,169.23l.92,1.46h-32.74l.96-1.46h30.86Zm.62,8.12l-.84.42s-4.14-.46-7.13,1.05h-26.95c-.24-.42-.57-.94-.97-1.48h35.89Z" style="fill: #e60012; fill-rule: evenodd; stroke-width: 0px;"/>
          <path d="m69.89,77.92l-3.12-4.94,3.42-1.72h35.89c.15.21.32.42.5.63l-3.96,6.04h-32.74Zm8.27-8.14c.51-.26,1-.58,1.41-.97h25.03s.17.39.51.97h-26.95Z" style="fill: #231815; fill-rule: evenodd; stroke-width: 0px;"/>
          <path d="m93.68,170.69l3.12,4.94-3.42,1.72h-35.89c-.15-.21-.32-.42-.5-.63l3.96-6.04h32.74Zm-8.27,8.14c-.51.26-.99.58-1.41.97h-25.03s-.17-.39-.51-.97h26.95Z" style="fill: #231815; fill-rule: evenodd; stroke-width: 0px;"/>
          <path d="m97.16,71.89h4.5v5h-4.5v-5h0Zm-27.92,5l-.73-1.15c.26.17.57.28.9.28.89,0,1.62-.73,1.62-1.62s-.73-1.63-1.62-1.63-1.62.73-1.62,1.63c0,.08,0,.16.02.23l-.64-1.02v-.83l1.76-.88h2.75v5h-2.43Zm36.25-3.34l-1.48,2.26c-.51-.2-.87-.7-.87-1.28,0-.76.62-1.38,1.38-1.38.38,0,.72.16.97.4h0Zm-6.08-.78c-.89,0-1.62.73-1.62,1.63s.73,1.62,1.62,1.62,1.62-.73,1.62-1.62-.73-1.63-1.62-1.63h0Zm0,.42c-.66,0-1.2.54-1.2,1.21s.54,1.2,1.2,1.2,1.2-.54,1.2-1.2-.54-1.21-1.2-1.21h0Zm-29.99,0c-.66,0-1.2.54-1.2,1.21s.54,1.2,1.2,1.2,1.2-.54,1.2-1.2-.54-1.21-1.2-1.21h0Zm5.11-.04c.76,0,1.38.62,1.38,1.38s-.62,1.38-1.38,1.38-1.38-.62-1.38-1.38.62-1.38,1.38-1.38h0Zm2.64-1.25h4.5v5h-4.5v-5h0Zm2.25.87c-.9,0-1.62.73-1.62,1.63s.73,1.62,1.62,1.62,1.62-.73,1.62-1.62-.73-1.63-1.62-1.63h0Zm0,.42c-.66,0-1.2.54-1.2,1.21s.54,1.2,1.2,1.2,1.2-.54,1.2-1.2-.54-1.21-1.2-1.21h0Zm5.11-.04c.76,0,1.38.62,1.38,1.38s-.62,1.38-1.38,1.38-1.38-.62-1.38-1.38.62-1.38,1.38-1.38h0Zm2.64-1.25h4.5v5h-4.5v-5h0Zm2.25.87c-.89,0-1.62.73-1.62,1.63s.73,1.62,1.62,1.62,1.62-.73,1.62-1.62-.73-1.63-1.62-1.63h0Zm0,.42c-.66,0-1.2.54-1.2,1.21s.54,1.2,1.2,1.2,1.21-.54,1.21-1.2-.54-1.21-1.21-1.21h0Zm5.11-.04c.76,0,1.38.62,1.38,1.38s-.62,1.38-1.38,1.38-1.38-.62-1.38-1.38.62-1.38,1.38-1.38Z" style="fill: #ffe100; fill-rule: evenodd; stroke-width: 0px;"/>
          <path d="m66.41,176.72h-4.5v-5h4.5v5h0Zm27.92-5l.73,1.15c-.26-.17-.57-.28-.9-.28-.89,0-1.62.73-1.62,1.63s.73,1.62,1.62,1.62,1.62-.73,1.62-1.62c0-.08,0-.16-.02-.24l.64,1.02v.83l-1.76.88h-2.74v-5h2.43Zm-36.25,3.34l1.48-2.26c.51.2.87.7.87,1.28,0,.76-.62,1.38-1.38,1.38-.38,0-.72-.16-.97-.4h0Zm6.08.78c.89,0,1.62-.73,1.62-1.62s-.73-1.63-1.62-1.63-1.62.73-1.62,1.63.73,1.62,1.62,1.62h0Zm0-.42c.66,0,1.2-.54,1.2-1.2s-.54-1.2-1.2-1.2-1.2.54-1.2,1.2.54,1.2,1.2,1.2h0Zm30,0c.66,0,1.21-.54,1.21-1.2s-.54-1.2-1.21-1.2-1.2.54-1.2,1.2.54,1.2,1.2,1.2h0Zm-5.11.04c-.76,0-1.38-.62-1.38-1.38s.62-1.38,1.38-1.38,1.38.62,1.38,1.38-.62,1.38-1.38,1.38h0Zm-2.64,1.25h-4.5v-5h4.5v5h0Zm-2.25-.87c.89,0,1.62-.73,1.62-1.62s-.73-1.63-1.62-1.63-1.62.73-1.62,1.63.73,1.62,1.62,1.62h0Zm0-.42c.66,0,1.2-.54,1.2-1.2s-.54-1.2-1.2-1.2-1.21.54-1.21,1.2.54,1.2,1.21,1.2h0Zm-5.11.04c-.76,0-1.38-.62-1.38-1.38s.62-1.38,1.38-1.38,1.38.62,1.38,1.38-.62,1.38-1.38,1.38h0Zm-2.64,1.25h-4.5v-5h4.5v5h0Zm-2.25-.87c.9,0,1.62-.73,1.62-1.62s-.73-1.63-1.62-1.63-1.62.73-1.62,1.63.73,1.62,1.62,1.62h0Zm0-.42c.66,0,1.2-.54,1.2-1.2s-.54-1.2-1.2-1.2-1.2.54-1.2,1.2.54,1.2,1.2,1.2h0Zm-5.11.04c-.76,0-1.38-.62-1.38-1.38s.62-1.38,1.38-1.38,1.38.62,1.38,1.38-.62,1.38-1.38,1.38Z" style="fill: #ffe100; fill-rule: evenodd; stroke-width: 0px;"/>
          <path d="m81.04,114.26l.14,2.47,27.08-43.25c-.41-.3-.79-.64-1.14-1l-26.07,41.79Z" style="fill: #e60012; fill-rule: evenodd; stroke-width: 0px;"/>
          <path d="m82.54,134.36l-.14-2.47-27.08,43.25c.41.3.8.64,1.14,1l26.08-41.79Z" style="fill: #e60012; fill-rule: evenodd; stroke-width: 0px;"/>
          <path d="m94.18,100.25c.76,0,1.38.68,1.38,1.51s-.62,1.51-1.38,1.51-1.38-.68-1.38-1.51.62-1.51,1.38-1.51h0Zm20.95-25.51c-.56.14-1.15.21-1.73.21-.02.83-.07,2.18-.17,2.73-.15.82-.19,1.93-1.83,2.8-1.64.86-3.91,1.25-3.91,1.25-2.12.64-2.98,2.19-3.05,4.41-.07,2.21.26,2.48-.03,4.72-.28,2.24-2.9,2.14-4.84,2.82-1.94.68-2.61,2.39-2.65,4.1-.05,1.71.01,3.01-.11,4.7-.12,1.69-1.33,2.36-2.06,2.43-.74.07-1.87-.05-3.67,1.31-1.8,1.36-2.29,3.89-2.29,3.89l1.46.54s.41-.65,2.01-2.23c1.6-1.58,3.12-1.63,4.87-2.85,1.75-1.22,1.54-4.01,1.58-6.07.04-2.06.08-2.71,1.03-3.81.95-1.1,2.36-.75,4.25-1.34,1.89-.58,2.52-2.52,2.47-4.36-.05-1.84-.19-4.27.73-5.67.92-1.41,3.28-1.63,4.82-2,1.54-.37,2.13-1.86,2.56-3.83.31-1.42.47-2.97.55-3.73h0Zm-14.07,22.24c.76,0,1.38.68,1.38,1.51s-.62,1.51-1.38,1.51-1.39-.68-1.39-1.51.62-1.51,1.39-1.51h0Zm.61-8.46c.81,0,1.48.68,1.48,1.51s-.66,1.51-1.48,1.51-1.48-.68-1.48-1.51.66-1.51,1.48-1.51h0Zm7.91-3.66c.72,0,1.31.68,1.31,1.51s-.59,1.51-1.31,1.51-1.32-.68-1.32-1.51.59-1.51,1.32-1.51h0Zm.62-8.46c.61,0,1.11.69,1.11,1.54s-.5,1.54-1.11,1.54-1.11-.69-1.11-1.54.5-1.54,1.11-1.54Z" style="fill: #ffe100; fill-rule: evenodd; stroke-width: 0px;"/>
          <path d="m69.39,148.36c-.76,0-1.38-.68-1.38-1.51s.62-1.51,1.38-1.51,1.38.68,1.38,1.51-.62,1.51-1.38,1.51h0Zm-20.95,25.51c.56-.15,1.15-.21,1.73-.21.02-.83.07-2.18.17-2.73.15-.82.19-1.93,1.83-2.8,1.64-.86,3.91-1.25,3.91-1.25,2.12-.64,2.98-2.19,3.05-4.41.07-2.22-.26-2.48.03-4.72.28-2.24,2.9-2.14,4.84-2.82,1.94-.68,2.61-2.39,2.65-4.11.05-1.71-.01-3.01.11-4.7.12-1.69,1.33-2.36,2.06-2.43.73-.07,1.87.05,3.67-1.31,1.8-1.36,2.29-3.89,2.29-3.89l-1.46-.54s-.41.65-2.01,2.23c-1.6,1.58-3.12,1.63-4.88,2.85-1.75,1.22-1.54,4.01-1.58,6.07-.04,2.06-.08,2.71-1.03,3.81-.95,1.1-2.36.76-4.25,1.34-1.89.58-2.52,2.52-2.47,4.36.05,1.84.19,4.26-.73,5.67-.92,1.41-3.28,1.63-4.82,2-1.54.37-2.13,1.86-2.55,3.83-.31,1.42-.47,2.97-.55,3.73h0Zm14.07-22.24c-.76,0-1.39-.68-1.39-1.51s.62-1.51,1.39-1.51,1.38.68,1.38,1.51-.62,1.51-1.38,1.51h0Zm-.61,8.46c-.81,0-1.48-.68-1.48-1.51s.66-1.51,1.48-1.51,1.48.68,1.48,1.51-.67,1.51-1.48,1.51h0Zm-7.91,3.66c-.72,0-1.31-.68-1.31-1.51s.59-1.51,1.31-1.51,1.31.68,1.31,1.51-.59,1.51-1.31,1.51h0Zm-.62,8.46c-.61,0-1.11-.69-1.11-1.54s.5-1.54,1.11-1.54,1.11.69,1.11,1.54-.5,1.54-1.11,1.54Z" style="fill: #ffe100; fill-rule: evenodd; stroke-width: 0px;"/>
          <path d="m122.3,156.99c5.3-4.88,10.16-10.54,11.69-12.34v-.19c-5.26.35-10.16,5.35-10.98,6.21-.4,1.95-.65,4.06-.71,6.32h0Zm11.69-13.23c-4.59.29-8.87,3.89-10.69,5.63.54-2.22,1.26-4.23,2.08-6.02.73-.37,5.8-2.75,8.61-.29v.68h0Zm0-1.56v-1.09c-1.94-2.7-5.13-2.44-6.09-2.29-.7,1.07-1.4,2.26-2.05,3.57,1.7-.71,5.53-1.97,8.14-.19h0Zm0-2.18c-1.82-1.91-4.25-2.04-5.58-1.95.59-.83,1.17-1.59,1.73-2.26.62.27,2.64,1.26,3.84,3.06v1.15h0Zm0-2.29v-3.1l-1.5-1.33c-.55.53-1.19,1.18-1.87,1.96.71.33,2.2,1.13,3.37,2.47h0Zm0-4.03l-.99-.88c.4-.36.74-.65.99-.85v1.73Z" style="fill: #e60012; fill-rule: evenodd; stroke-width: 0px;"/>
          <path d="m41.28,91.63c-5.3,4.88-10.17,10.54-11.69,12.34v.19c5.26-.35,10.16-5.35,10.98-6.22.4-1.95.65-4.06.71-6.32h0Zm-11.69,13.23c4.59-.29,8.87-3.88,10.69-5.63-.54,2.22-1.26,4.23-2.08,6.02-.73.37-5.8,2.75-8.61.29v-.68h0Zm0,1.56v1.09c1.94,2.7,5.13,2.44,6.09,2.29.71-1.07,1.4-2.26,2.05-3.57-1.71.71-5.53,1.97-8.14.19h0Zm0,2.18c1.82,1.91,4.25,2.05,5.58,1.95-.58.83-1.17,1.59-1.73,2.26-.62-.27-2.64-1.26-3.85-3.06v-1.15h0Zm0,2.29v3.1l1.51,1.33c.55-.53,1.19-1.18,1.87-1.96-.71-.33-2.2-1.13-3.37-2.47h0Zm0,4.03l.99.88c-.4.36-.74.64-.99.85v-1.73Z" style="fill: #e60012; fill-rule: evenodd; stroke-width: 0px;"/>
          <path d="m119.72,159.28c.05-1.87.36-7.38,2.22-13.25,2.17-6.87,6.59-13.43,12.04-16.58v1.5c-2.88,2.14-11.63,10-12.57,26.85-.23.2-.45.4-.68.6-.34.3-.68.59-1.01.88h0Zm-5.71,2.19l-.26.26,1.2,1.53c1.33-1.06,2.64-2.15,3.98-3.3.03-.41,0-.97-.37-1.08-.6-.17-2.77.58-4.55,2.59h0Zm19.97-35.29v-1.22c-.59-.53-1.47-1.26-2.04-1.37-.91-.17-1.68.49-1.45,2,.22,1.5,1.45,4.02,1.45,4.02l1.04-.59s-1.65-3.6-1.23-3.8c.3-.14,1.43.4,2.24.96h0Zm0-3.32v-1.62c-1.23-.7-2.98-1.05-3.77-1.07-.96-.03-2.4.51-2.52,2.64-.12,2.13.38,5.7.38,5.7-.95-.41-3.07-1.07-3.91-1.1-.83-.02-3.36.29-3.41,3.38-.05,3.1,1.16,5.61,1.16,5.61,0,0-2.85,0-3.94.03-1.09.03-3.12.18-2.88,2.91.23,2.74,2.49,6.31,2.49,6.31-1.97,0-6.82.97-6.51,3.79.3,2.82,4.4,6.86,4.4,6.86-.88.51-3.32,2.71-3.32,2.71l.68.92.29-.31c1.89-1.77,3.49-1.84,4.66-2.21,1.17-.37,1.2-1.29,1.2-1.29-4.69-1.7-5.88-4.87-6.16-6.2-.28-1.33,1.37-1.98,3.29-2.24,1.91-.26,4.43-.08,4.43-.08l.34-1.2s-3.12-2.78-3.98-4.88c-.86-2.1-.36-3.63,1.9-3.55,2.26.08,5.22,1.02,5.22,1.02l.8-1c-4.26-6.23-3.2-9.27-.8-9.24,2.4.03,6.03,2.76,6.03,2.76l.84-.54c-.96-1.77-1.68-4.59-1.8-6.42-.12-1.83.24-3.57,1.62-3.24.92.22,2.41,1.02,3.29,1.52h0Zm0-2.19c-.78-.49-2.08-1.19-3.09-1.19l-.46-.02s.42-.62,1.52-.62c.76,0,1.51.25,2.03.57v1.26h0Zm-19.62,35.32l-2.98,2.4-.86-.96,1.77-1.89-1.92-2.75.51-1.41,3.48,4.61h0Zm.11-5.69c1.72,3.87,4.83,4.01,4.83,4.01l.08-1.18c-3.13-1.58-3.52-2.8-3.52-2.8.9-.55,3.7.25,3.7.25l.49-1.23c-2.35-1.08-5.71.57-5.71.57l.12.39h0Zm2.07-5.51l-4.23,1.76v-1.26l2.65-.95-1.34-2.58.66-1.54,2.26,4.56h0Zm6.81-4.55c-3.99-1.95-5.52-.62-5.45-.16.54,3.89,3.71,4.99,3.71,4.99l.28-1.18s-3.21-3.12-2.5-3.51c.71-.39,3.42,1.14,3.42,1.14l.71-1.12-.16-.16h0Zm-4.51-8.11l.71,2.32-2.09.2-.62,1.25,4.33-.23c-.85-1.9-1.05-5.15-1.05-5.15l-1.28,1.61h0Zm4.36-1.39c-.37,1.37,1.72,4.27,2.66,5.35,0,0,.4-.14.43-.48.03-.34-1.64-3.42-1.22-3.48.42-.06,1.58.62,2.21,1.02.62.4,1.3.42,1.39.11.08-.31-.28-1.44-1.73-2.01-1.44-.57-3.74-.51-3.74-.51h0Zm3.96-3.43l-4.15-.53.75-1.04h2.4v-2.66l1.03-.92-.03,5.15h0Zm-18.25,27.33l.86.09s.56-6.26,3.67-13.56c3.06-7.18,9.28-17.44,20.53-24.73v-1.14c-.93.62-3.75,2.54-6.84,5.28-2.35,2.09-4.86,4.75-6.82,7.41-4.61,6.25-9.67,14.44-11.41,26.65Z" style="fill: #ffe100; fill-rule: evenodd; stroke-width: 0px;"/>
          <path d="m43.85,89.34c-.05,1.87-.36,7.38-2.22,13.25-2.17,6.87-6.59,13.43-12.04,16.58v-1.5c2.88-2.14,11.63-10,12.57-26.85.23-.2.45-.4.68-.6.34-.3.68-.59,1.01-.88h0Zm5.71-2.19l.26-.26-1.2-1.53c-1.33,1.06-2.64,2.15-3.98,3.3-.03.41,0,.97.37,1.07.6.17,2.78-.58,4.55-2.59h0Zm-19.97,35.29v1.22c.59.53,1.47,1.26,2.04,1.37.91.17,1.68-.49,1.45-2-.22-1.5-1.45-4.02-1.45-4.02l-1.04.59s1.65,3.6,1.23,3.8c-.3.14-1.43-.4-2.23-.96h0Zm0,3.32v1.62c1.23.69,2.98,1.05,3.77,1.07.96.03,2.4-.51,2.52-2.64.12-2.13-.38-5.69-.38-5.69.95.4,3.07,1.07,3.91,1.09.83.02,3.36-.29,3.41-3.38.05-3.1-1.15-5.61-1.15-5.61,0,0,2.85,0,3.94-.03,1.09-.03,3.12-.18,2.88-2.91-.24-2.74-2.49-6.31-2.49-6.31,1.97,0,6.81-.97,6.51-3.79-.3-2.82-4.4-6.86-4.4-6.86.88-.51,3.32-2.71,3.32-2.71l-.68-.92-.29.31c-1.89,1.77-3.49,1.84-4.66,2.21-1.17.37-1.2,1.29-1.2,1.29,4.69,1.7,5.88,4.87,6.16,6.2.28,1.33-1.37,1.98-3.29,2.24-1.91.26-4.43.08-4.43.08l-.34,1.2s3.12,2.78,3.98,4.88c.86,2.1.36,3.63-1.9,3.55-2.26-.09-5.22-1.02-5.22-1.02l-.8,1c4.26,6.23,3.2,9.27.8,9.24-2.4-.03-6.03-2.76-6.03-2.76l-.84.54c.96,1.77,1.68,4.59,1.8,6.42.12,1.83-.24,3.57-1.62,3.24-.92-.22-2.41-1.02-3.29-1.52h0Zm0,2.19c.78.49,2.08,1.19,3.09,1.19h.46s-.42.64-1.52.64c-.76,0-1.51-.25-2.03-.57v-1.26h0Zm19.62-35.33l2.98-2.4.86.96-1.77,1.89,1.92,2.75-.5,1.41-3.48-4.61h0Zm-.11,5.69c-1.72-3.87-4.83-4.01-4.83-4.01l-.08,1.19c3.13,1.58,3.52,2.8,3.52,2.8-.9.55-3.7-.25-3.7-.25l-.49,1.23c2.35,1.09,5.71-.57,5.71-.57l-.12-.39h0Zm-2.07,5.51l4.23-1.76v1.26l-2.65.95,1.34,2.58-.66,1.54-2.26-4.56h0Zm-6.81,4.55c3.99,1.95,5.52.62,5.45.16-.54-3.89-3.71-4.99-3.71-4.99l-.28,1.18s3.21,3.12,2.5,3.51c-.71.39-3.42-1.14-3.42-1.14l-.71,1.12.16.16h0Zm4.51,8.11l-.71-2.32,2.09-.2.62-1.25-4.33.23c.85,1.9,1.05,5.15,1.05,5.15l1.27-1.61h0Zm-4.36,1.39c.37-1.37-1.72-4.27-2.66-5.35,0,0-.4.14-.42.48-.03.34,1.64,3.42,1.22,3.48-.42.06-1.59-.62-2.21-1.02-.62-.4-1.3-.42-1.39-.11-.09.31.28,1.44,1.73,2.01,1.44.57,3.74.51,3.74.51h0Zm-3.96,3.43l4.15.53-.75,1.04h-2.4v2.66l-1.03.92.03-5.15h0Zm18.25-27.33l-.86-.09s-.56,6.26-3.67,13.56c-3.06,7.18-9.28,17.44-20.53,24.73v1.14c.93-.62,3.75-2.54,6.84-5.28,2.35-2.09,4.86-4.75,6.82-7.41,4.61-6.25,9.67-14.44,11.41-26.65Z" style="fill: #ffe100; fill-rule: evenodd; stroke-width: 0px;"/>
          <polygon points="133.98 89.09 133.98 87.03 119.23 75.98 118.25 77.56 133.98 89.09" style="fill: #ffe100; fill-rule: evenodd; stroke-width: 0px;"/>
          <polygon points="29.59 159.52 29.59 161.58 44.35 172.63 45.33 171.06 29.59 159.52" style="fill: #ffe100; fill-rule: evenodd; stroke-width: 0px;"/>
          <path d="m133.98,98.64l-.52-.39.09,2.07.43.3v-1.99h0Zm-2.78-2.09l-2.41-1.81c.07.93.14,1.77.22,2.37l2.46,1.74c-.08-.47-.18-1.32-.27-2.31h0Zm-4.46-3.34l-1.9-1.43c.07.35.13.61.18.72.24.55.43,1.17-.12,1.22-.55.04-1.72-.86-2.16-2.28-.09-.29-.21-.83-.33-1.48l-1.69-1.27c.04.82.08,1.56.1,2.08.02.03.04.07.06.1.17.27.35.56.55.88l5.74,4.06c-.23-.82-.36-1.7-.43-2.61h0Zm-8.24-6.18l-4.18-3.14-.02.04c1.11.91,2.73,2.33,4.2,3.92v-.82h0Zm-3.23-4.68l3.23,2.39v1.33l-3.76-2.85.53-.86h0Zm5.31,3.92l1.43,1.05c.06.52.13,1.05.21,1.56l-1.55-1.18c-.03-.48-.05-.96-.08-1.43h0Zm3.81,2.81l2.23,1.65c.01.5.03,1.01.05,1.53l-2.03-1.54c-.08-.51-.17-1.07-.25-1.63h0Zm4.23,3.12l2.35,1.73c.04.55.09,1.12.14,1.68l-2.39-1.81c-.04-.53-.07-1.07-.1-1.6h0Zm4.73,3.49l.63.46v1.63l-.56-.42-.07-1.67h0Zm.63-3.7l-5.73-4.09c-.28-.85-.75-.97-1.1-.97-.07,0-.14.02-.19.05l-3.41-2.44c-.27-.49-.66-.8-1.2-.88,0,0-.01,0-.02,0l-2.24-1.6c-.29-.9-.72-1.11-1.19-1.14-.12,0-.2.03-.26.1l-1.76-1.26.91-1.47,16.19,11.93v1.77h0Zm0,3.11v-2.05l-.77-.55.09,2.1.68.5h0Zm-3.25-4.37l-2.26-1.61c.01.15.02.3.03.47.02.46.04.98.07,1.55l2.32,1.7c-.07-.96-.13-1.74-.15-2.1h0Zm-4.14-2.96c-.03.26-.04.57-.03.89.02.34.03.68.04,1.03l-2.36-1.73c-.07-.55-.13-1.05-.17-1.43-.02-.22-.05-.43-.08-.63l2.6,1.87h0Zm-4.69-3.35l-1.56-1.12c.02.12.03.24.04.37.04.42.09.96.13,1.56l1.39,1.02c-.05-.72-.06-1.37,0-1.83h0Zm-3.46-2.47l-2.03-1.45-.74,1.19,2.82,2.07v-1.3s-.04-.23-.05-.51Z" style="fill: #fff; fill-rule: evenodd; stroke-width: 0px;"/>
          <path d="m29.59,149.97l.52.39-.09-2.08-.43-.3v1.99h0Zm2.79,2.09l2.41,1.81c-.07-.93-.15-1.77-.22-2.37l-2.46-1.74c.08.47.18,1.32.28,2.31h0Zm4.45,3.34l1.9,1.43c-.07-.35-.13-.61-.18-.72-.24-.55-.43-1.18.12-1.22.55-.04,1.73.86,2.16,2.27.09.29.21.83.33,1.48l1.69,1.27c-.04-.82-.08-1.56-.1-2.08-.02-.03-.04-.07-.06-.1-.17-.27-.35-.56-.55-.88l-5.74-4.06c.23.82.36,1.7.43,2.61h0Zm8.24,6.18l4.18,3.14.02-.04c-1.11-.91-2.73-2.33-4.21-3.92v.82h0Zm3.23,4.68l-3.23-2.38v-1.32l3.76,2.85-.53.86h0Zm-5.31-3.92l-1.43-1.05c-.06-.52-.13-1.05-.21-1.56l1.55,1.18c.03.47.05.96.08,1.43h0Zm-3.81-2.82l-2.23-1.65c-.01-.5-.03-1.01-.05-1.52l2.03,1.54c.08.51.17,1.07.25,1.63h0Zm-4.23-3.12l-2.35-1.73c-.04-.55-.09-1.12-.14-1.68l2.39,1.81c.04.53.07,1.07.1,1.6h0Zm-4.73-3.49l-.63-.47v-1.63l.56.42.07,1.67h0Zm-.63,3.7l5.73,4.09c.28.85.75.97,1.1.97.07,0,.14-.02.19-.05l3.41,2.44c.27.49.66.8,1.21.87,0,0,.01,0,.02,0l2.25,1.6c.29.9.72,1.11,1.19,1.14.11,0,.2-.04.26-.11l1.76,1.26-.91,1.47-16.19-11.93v-1.77h0Zm0-3.11v2.05l.77.55-.09-2.1-.67-.5h0Zm3.25,4.37l2.26,1.61c-.01-.15-.02-.3-.03-.47-.02-.46-.04-.98-.07-1.55l-2.32-1.7c.07.95.13,1.74.15,2.1h0Zm4.14,2.96c.04-.26.04-.57.03-.89-.01-.33-.03-.68-.04-1.03l2.36,1.73c.07.55.13,1.05.17,1.43.02.22.05.43.08.63l-2.61-1.86h0Zm4.69,3.35l1.57,1.12c-.02-.12-.03-.25-.04-.38-.04-.42-.09-.96-.13-1.56l-1.39-1.02c.05.72.06,1.37,0,1.84h0Zm3.46,2.47l2.03,1.45.74-1.19-2.82-2.07v1.3s.04.23.05.51Z" style="fill: #fff; fill-rule: evenodd; stroke-width: 0px;"/>
          <path d="m115.54,44.48l-.2,1.24-.1,1.27c0,.61,0,1.21.02,1.81l3.21-2.89.43-9.34c-.69,1.08-1.29,2.2-1.84,3.36-.24.53-.46,1.07-.67,1.61-.21.58-.39,1.15-.56,1.73l-.29,1.21h0Zm-.26,4.75c.01.31.03.61.05.92.06.75.13,1.5.23,2.26.1.69.23,1.37.38,2.05.16.64.33,1.27.53,1.91.21.62.44,1.22.69,1.82l.41.9c.35.71.71,1.4,1.11,2.09l.2-8.59-3.59-3.36Z" style="fill: #fff; fill-rule: evenodd; stroke-width: 0px;"/>
          <path d="m48.04,204.14l.2-1.24.1-1.27c0-.6,0-1.2-.02-1.81l-3.21,2.89-.43,9.34c.69-1.07,1.29-2.2,1.84-3.36.24-.53.46-1.07.67-1.61.21-.58.39-1.15.56-1.73l.29-1.21h0Zm.27-4.75c-.01-.31-.03-.61-.05-.92-.06-.75-.13-1.5-.23-2.26-.1-.69-.23-1.37-.38-2.05-.16-.64-.33-1.27-.53-1.91-.21-.62-.44-1.22-.69-1.82l-.41-.9c-.35-.71-.71-1.4-1.11-2.09l-.2,8.59,3.59,3.36Z" style="fill: #fff; fill-rule: evenodd; stroke-width: 0px;"/>
          <path d="m119.2,62.07c.05.08.1.16.15.24.09-.39.19-.77.3-1.16h-.43l-.02.92h0Zm.6-1.42c.07-.23.14-.45.21-.67h-.77l-.02.67h.57Zm.38-1.17c.03-.08.05-.15.08-.23.05-.14.1-.28.16-.41h-1.15v.64s.91,0,.91,0h0Zm.44-1.15c.1-.24.2-.47.3-.71.03-.07.06-.14.1-.21h-1.71l-.02.92h1.34Zm.64-1.42c.16-.33.33-.65.5-.97l.16-.26h-2.57l-.03,1.23h1.94Zm.96-1.73l.21-.35.28-.39h-3.34l-.02.74h2.86Zm.85-1.25l.13-.19.42-.52.35-.39h-4.57l-.03,1.1h3.69Zm1.4-1.61l.09-.09.51-.46c.15-.12.27-.24.38-.36h-7.02l.97.9h5.08Zm1.51-1.41c.06-.04.11-.08.18-.12v-1.36h-9.85l1.58,1.48h8.09Zm.18-1.99v-1.51h-8.54l-1.67,1.51h10.21Zm0-2.01v-.92s0,0,0,0h-7.14v.18s-.84.75-.84.75h7.98Zm-1.02-1.43c-.2-.12-.4-.25-.6-.38-.3-.22-.58-.44-.85-.68h-4.6l-.05,1.07h6.1Zm-1.96-1.57l-.2-.19-.5-.6h-3.33l-.04.8h4.07Zm-1.07-1.3l-.4-.57-.39-.69h-2.09l-.06,1.27h2.94Zm-1.07-1.77l-.22-.45-.2-.47h-1.33l-.04.92h1.79Zm-.62-1.42l-.13-.33-.08-.22h-.87l-.03.55h1.1Zm-.37-1.05c-.06-.22-.13-.44-.19-.67h-.46l-.03.67h.68Zm-.33-1.17c-.09-.36-.18-.73-.25-1.09l-.05,1.09h.3Z" style="fill: #ffe100; fill-rule: evenodd; stroke-width: 0px;"/>
          <path d="m44.37,186.54c-.05-.08-.1-.16-.15-.24-.09.39-.19.77-.3,1.15h.43l.02-.92h0Zm-.6,1.42c-.07.23-.14.45-.21.67h.77l.02-.67h-.57Zm-.38,1.17c-.03.08-.05.15-.08.23-.05.14-.11.28-.16.42h1.15l.02-.64h-.92Zm-.44,1.15c-.1.24-.2.47-.3.71-.03.07-.07.14-.1.21h1.71l.02-.92h-1.34Zm-.64,1.43c-.16.33-.33.65-.5.97l-.16.26h2.57l.03-1.23h-1.94Zm-.96,1.73l-.21.35-.28.39h3.34l.02-.74h-2.86Zm-.85,1.25l-.13.19-.42.52-.35.39h4.57l.03-1.1h-3.68Zm-1.4,1.61l-.09.09-.51.46c-.15.12-.27.24-.38.35h7.02l-.97-.9h-5.07Zm-1.51,1.41c-.05.04-.11.08-.18.12v1.36h9.86l-1.59-1.48h-8.09Zm-.18,1.99v1.51h8.54l1.68-1.51h-10.21Zm0,2.01v.92h7.14v-.18s.84-.75.84-.75h-7.98Zm1.02,1.43c.2.12.4.25.6.38.3.22.58.44.85.68h4.6l.05-1.07h-6.1Zm1.96,1.57l.2.19.5.6h3.33l.04-.8h-4.07Zm1.07,1.3l.4.57.39.69h2.09l.06-1.26h-2.94Zm1.07,1.77l.22.45.2.47h1.32l.04-.92h-1.79Zm.62,1.42l.13.33.07.22h.87l.02-.55h-1.1Zm.37,1.06c.06.22.13.44.19.66h.46l.03-.66h-.68Zm.32,1.17c.09.36.18.73.25,1.09l.05-1.09h-.3Z" style="fill: #ffe100; fill-rule: evenodd; stroke-width: 0px;"/>
          <polygon points="133.98 35.12 126.79 40.35 126.79 80.71 128.47 81.99 128.47 41.21 133.98 37.2 133.98 35.12" style="fill: #ffe100; fill-rule: evenodd; stroke-width: 0px;"/>
          <polygon points="29.59 213.49 36.78 208.26 36.78 167.9 35.1 166.63 35.1 207.4 29.59 211.42 29.59 213.49" style="fill: #ffe100; fill-rule: evenodd; stroke-width: 0px;"/>
          <path d="m133.98,84.14l-1.41.95,1.41,1.07v-2.02h0Zm0-.85l-2,1.35-.93-.71,2.93-1.98v1.34h0Zm0-2.18v-1.34l-4.46,3.01.93.71,3.52-2.38h0Zm0-2.18v-1.34l-4.99,3.37v1.34l4.99-3.37h0Zm0-2.18l-4.99,3.37v-1.34l4.99-3.37v1.34h0Zm0-2.18l-4.99,3.37v-1.34l4.99-3.37v1.34h0Zm0-2.18v-1.34l-4.99,3.37v1.34l4.99-3.37h0Zm0-2.18v-1.34l-4.99,3.37v1.34l4.99-3.37h0Zm0-2.18l-4.99,3.37v-1.34l4.99-3.37v1.34h0Zm0-2.18l-4.99,3.37v-1.34l4.99-3.37v1.34h0Zm0-2.18v-1.34l-4.99,3.37v1.34l4.99-3.37h0Zm0-2.18v-1.34l-4.99,3.37v1.34l4.99-3.37h0Zm0-2.18l-4.99,3.37v-1.34l4.99-3.37v1.34h0Zm0-2.18l-4.99,3.37v-1.34l4.99-3.37v1.34h0Zm0-2.18v-1.34l-4.99,3.37v1.34l4.99-3.37h0Zm0-2.18v-1.34l-4.99,3.37v1.34l4.99-3.37h0Zm0-2.18l-4.99,3.37v-1.34l4.99-3.37v1.34h0Zm0-2.18l-4.99,3.37v-1.34l4.99-3.37v1.34h0Zm0-2.18v-1.34l-4.99,3.37v1.34l4.99-3.37h0Zm0-2.18v-1.34l-4.99,3.37v1.34l4.99-3.37h0Zm0-2.18l-4.99,3.37v-1.34l4.99-3.37v1.34h0Zm0-2.18l-4.99,3.37v-1.57l4.99-3.63v1.84Z" style="fill: #e60012; fill-rule: evenodd; stroke-width: 0px;"/>
          <path d="m29.59,164.48l1.41-.95-1.41-1.07v2.02h0Zm0,.84l2-1.35.93.71-2.93,1.98v-1.34h0Zm0,2.18v1.34l4.46-3.01-.93-.71-3.52,2.38h0Zm0,2.18v1.34l4.99-3.37v-1.34l-4.99,3.37h0Zm0,2.18l4.99-3.37v1.34l-4.99,3.37v-1.34h0Zm0,2.18l4.99-3.37v1.34l-4.99,3.37v-1.34h0Zm0,2.18v1.34l4.99-3.37v-1.34l-4.99,3.37h0Zm0,2.18v1.34l4.99-3.37v-1.34l-4.99,3.37h0Zm0,2.18l4.99-3.37v1.34l-4.99,3.37v-1.34h0Zm0,2.18l4.99-3.37v1.34l-4.99,3.37v-1.34h0Zm0,2.18v1.34l4.99-3.37v-1.34l-4.99,3.37h0Zm0,2.18v1.34l4.99-3.37v-1.34l-4.99,3.37h0Zm0,2.18l4.99-3.37v1.34l-4.99,3.37v-1.34h0Zm0,2.18l4.99-3.37v1.34l-4.99,3.37v-1.34h0Zm0,2.18v1.34l4.99-3.37v-1.34l-4.99,3.37h0Zm0,2.18v1.34l4.99-3.37v-1.34l-4.99,3.37h0Zm0,2.18l4.99-3.37v1.34l-4.99,3.37v-1.34h0Zm0,2.18l4.99-3.37v1.34l-4.99,3.37v-1.34h0Zm0,2.18v1.34l4.99-3.37v-1.34l-4.99,3.37h0Zm0,2.18v1.34l4.99-3.37v-1.34l-4.99,3.37h0Zm0,2.18l4.99-3.37v1.34l-4.99,3.37v-1.34h0Zm0,2.18l4.99-3.37v1.57l-4.99,3.63v-1.84Z" style="fill: #e60012; fill-rule: evenodd; stroke-width: 0px;"/>
          <path d="m114.21,84.08c1.28,1.38,6.92,7.6,9.56,13.4,2.93,6.42,4.84,11.97,5.71,20.18-.4.32-.8.64-1.19.97-.29-1.45-1.28-6.31-2.12-9.31-1-3.57-3.41-9.92-6.01-14.83-2.19-4.14-5.56-8.28-6.55-9.46l.59-.95Z" style="fill: #ffe100; fill-rule: evenodd; stroke-width: 0px;"/>
          <path d="m49.37,164.53c-1.28-1.38-6.92-7.6-9.56-13.4-2.93-6.42-4.84-11.97-5.71-20.18.4-.32.8-.64,1.18-.97.29,1.45,1.28,6.31,2.12,9.31,1,3.57,3.41,9.92,6.01,14.83,2.19,4.14,5.56,8.28,6.55,9.46l-.59.95Z" style="fill: #ffe100; fill-rule: evenodd; stroke-width: 0px;"/>
          <path d="m109.87,95.18h-1.7s.45-1.87.45-1.87c.26.34.7.97,1.25,1.87h0Zm.34.57l-.3,2.06,1.38-.03c-.38-.77-.75-1.45-1.09-2.03h0Zm1.52,2.95l-.93,1.76,1.67-.05c-.24-.6-.49-1.17-.74-1.71h0Zm1.23,3.01l-1.14,1.5,1.77.4c-.2-.66-.42-1.29-.64-1.9h0Zm.92,2.85l-1.23,1.45,1.79.81c-.17-.78-.36-1.53-.57-2.25h0Zm.8,3.38l-1.49,1.24,1.82.72c-.1-.67-.21-1.32-.33-1.96h0Zm.48,3.04l-1.37,1.05,1.58,1.1c-.05-.74-.12-1.45-.2-2.15h0Zm.26,3.13l-1.72,1,1.77,1.23c0-.35,0-.69,0-1.05,0-.4-.02-.8-.04-1.19h0Zm.03,3.34l-1.9.87,1.81.86c.04-.56.07-1.14.09-1.72h0Zm-.21,3.11l-1.78.5,1.56,1.2c.08-.56.16-1.12.22-1.7h0Zm-.45,3.07l-1.91.62,1.57,1.06c.12-.55.24-1.11.34-1.68h0Zm-.73,3.24l-2.08.09,1.62,1.48c.16-.51.32-1.04.46-1.57h0Zm-.92,2.93l-2.04.12,1.34,1.72c.25-.6.48-1.21.7-1.83h0Zm-1.14,2.84l-2.04.06,1.11,1.89c.32-.63.63-1.28.93-1.95h0Zm-1.45,2.93l-2.03-.17,1.01,1.92c.35-.56.69-1.14,1.02-1.75h0Zm-1.48,2.47l-2.13-.21,1.05,1.79c.37-.51.73-1.03,1.09-1.59h0Zm-1.64,2.34l-1.87-.1.61,1.67c.42-.49.84-1.02,1.27-1.57h0Zm-2.04,2.44l-1.27-.27.46,1.12c.27-.27.54-.56.81-.85Z" style="fill: #fff; fill-rule: evenodd; stroke-width: 0px;"/>
          <path d="m53.7,153.43h1.7s-.45,1.87-.45,1.87c-.26-.34-.7-.98-1.25-1.87h0Zm-.34-.56l.3-2.06-1.38.03c.38.77.75,1.45,1.09,2.04h0Zm-1.52-2.95l.93-1.76-1.67.05c.24.6.49,1.17.74,1.71h0Zm-1.23-3.01l1.14-1.5-1.77-.4c.2.66.42,1.29.63,1.9h0Zm-.92-2.85l1.23-1.45-1.79-.81c.17.78.36,1.53.57,2.25h0Zm-.8-3.38l1.49-1.24-1.82-.72c.1.67.21,1.32.33,1.96h0Zm-.48-3.04l1.37-1.05-1.58-1.1c.05.74.12,1.45.2,2.15h0Zm-.26-3.13l1.72-1-1.77-1.23c0,.35,0,.69,0,1.05,0,.4.02.8.04,1.19h0Zm-.03-3.34l1.9-.87-1.81-.86c-.04.57-.07,1.14-.09,1.72h0Zm.21-3.11l1.77-.5-1.56-1.2c-.08.56-.15,1.12-.22,1.7h0Zm.44-3.07l1.91-.62-1.57-1.06c-.13.55-.24,1.11-.35,1.68h0Zm.74-3.24l2.08-.09-1.62-1.48c-.16.51-.32,1.04-.46,1.57h0Zm.92-2.93l2.04-.12-1.34-1.72c-.25.6-.48,1.21-.71,1.83h0Zm1.14-2.84l2.04-.06-1.11-1.89c-.32.63-.64,1.28-.94,1.96h0Zm1.45-2.93l2.03.17-1.01-1.92c-.35.56-.68,1.14-1.02,1.75h0Zm1.48-2.48l2.13.21-1.05-1.8c-.37.51-.73,1.04-1.08,1.59h0Zm1.64-2.34l1.87.1-.61-1.67c-.42.49-.84,1.02-1.27,1.57h0Zm2.04-2.44l1.27.27-.46-1.12c-.27.27-.54.56-.81.85Z" style="fill: #fff; fill-rule: evenodd; stroke-width: 0px;"/>
          <g>
            <path d="m73.92,112.04h21.71l-.57,1.14h-1.91l-3.22,7.11h-16.01v-8.25Z" style="fill: #fff; fill-rule: evenodd; stroke-width: 0px;"/>
            <path d="m91.21,117.48l-.96,2.12h-3.26l2.14-4.64h-1.83l-1.94,4.29h-5.22l1.76-4.29h-1.57l-1.7,4.42h-4.7v-1.9l1.37-2.53h-1.37v-2.21h4.01l-2.14,4.55h1.73l2.2-4.3h4.87l-2.11,4.49h1.98l2.23-4.49h4.94l-2.14,4.49h1.71Z" style="fill: #004ea2; fill-rule: evenodd; stroke-width: 0px;"/>
          </g>
          <g>
            <path d="m89.65,136.57h-21.71l.57-1.13h1.91l3.22-7.12h16.01v8.25Z" style="fill: #fff; fill-rule: evenodd; stroke-width: 0px;"/>
            <path d="m72.37,131.13l.96-2.12h3.26l-2.14,4.65h1.83l1.95-4.3h5.22l-1.76,4.3h1.57l1.7-4.42h4.7v1.9l-1.37,2.53h1.37v2.21h-4.01l2.14-4.55h-1.73l-2.2,4.3h-4.87l2.11-4.49h-1.98l-2.23,4.49h-4.94l2.14-4.49h-1.71Z" style="fill: #004ea2; fill-rule: evenodd; stroke-width: 0px;"/>
          </g>
          <g>
            <path d="m89.93,120.29l-.28.62v3.28h0v4.13h-16.01l.28-.62v-7.41h16.01Z" style="fill: #004ea2; fill-rule: evenodd; stroke-width: 0px;"/>
            <rect x="78.75" y="120.99" width="5.46" height="6.68" style="fill: #ffe100; stroke-width: 0px;"/>
            <path d="m89.65,120.99v3.2h0v3.48h-4.79v-6.68h4.79Zm-15.73,0h4.17v6.68h-4.17v-6.68Z" style="fill: #e60012; fill-rule: evenodd; stroke-width: 0px;"/>
          </g>
          <path d="m111.09,177.54s.25-3.22,2.34-5.46c2.09-2.24,3.79-1.6,5.74-1.6s4.87.19,6.92-2.08l1.55,1.58s-.61,3.02-3.37,4.6c-2.75,1.58-5.79,1.1-7.47,1.12-2.48.04-4.14.52-5.71,1.84h0Zm20.54-26.12l.91.02s-.24,3.01-.65,3.73l-.67-.41.41-3.34Z" style="fill: #ffe100; fill-rule: evenodd; stroke-width: 0px;"/>
          <path d="m52.48,71.08s-.25,3.22-2.34,5.46c-2.09,2.24-3.79,1.6-5.74,1.6s-4.87-.19-6.92,2.08l-1.55-1.58s.61-3.02,3.37-4.6c2.75-1.58,5.79-1.1,7.47-1.12,2.48-.04,4.14-.52,5.71-1.84h0Zm-20.54,26.12l-.92-.02s.24-3.01.65-3.73l.67.41-.41,3.34Z" style="fill: #ffe100; fill-rule: evenodd; stroke-width: 0px;"/>
          <path d="m126.78,169.09l.45.46c-.21.35-.58.94-1.09,1.66-.82,1.15-1.96,2.14-2.24,2.22-.28.08-.33-.46-.74-.46s-.41.74-.64.79c-.23.05-.23-.46-.59-.61-.36-.15-.77.21-1.48.94,0,0,0-.87-.13-.87s-1.05.94-1.53.94-.36-.84-.36-.84c0,0-.72.87-1.07.87s-.26-.94-.46-.92c-.2.03-.69.79-.92.89-.23.1-.28-.64-.66-.61-.38.03-.89.82-1.07.97,0,0-.03-.71-.36-.71-.41,0-.94.32-1.33.51,0,0,1.1-1.71,3.29-2.17,2.19-.46,4.95-.08,6.58-.36,1.56-.27,3.54-1.12,4.33-2.71Z" style="fill: #094; fill-rule: evenodd; stroke-width: 0px;"/>
          <path d="m36.8,79.53l-.45-.46c.21-.35.58-.94,1.09-1.66.82-1.15,1.96-2.14,2.25-2.22.28-.08.33.46.74.46s.41-.74.64-.79c.23-.05.23.46.59.61.36.15.77-.2,1.48-.94,0,0,0,.87.13.87s1.05-.94,1.53-.94.36.84.36.84c0,0,.71-.87,1.07-.87s.25.94.46.92c.2-.03.69-.79.92-.89.23-.1.28.64.66.61.38-.03.89-.82,1.07-.97,0,0,.03.71.36.71.41,0,.94-.32,1.33-.51,0,0-1.1,1.71-3.29,2.17-2.19.46-4.95.08-6.58.36-1.56.27-3.54,1.12-4.33,2.71Z" style="fill: #094; fill-rule: evenodd; stroke-width: 0px;"/>
          <path d="m130.9,157.65l-.23.03s-.57.06-1.14-.66c-.57-.71-.62-2,.03-2.05.65-.06,1.93.6,1.93,1.17s-.12,1.4-.6,1.51h0Zm-4.86,3.21c.6-.52,1.4-.97,2.21-.94,0,0-.8-1.05-.36-1.8.44-.75,1.38-.78,1.38-.78-1.02-.89-.99-2.27-.39-2.69.61-.42,1.9-.17,1.9-.17.2-1.42-1.07-2.51-1.76-2.98-1.37,1.52-2.99,3.13-4.52,4.58,2.17,1.13,1.53,4.78,1.53,4.78h0Zm2.12,4.61l-.12.07s-.28-.72-.28-1.19.48-1.34.98-1.34.75.37.52,1c-.23.64-.75,1.27-1.1,1.46h0Zm1.44-5.48h-.25s-.99-.4-1.02-1.11c-.03-.71.4-.88,1.19-.88s.91.54.82.94c-.09.4-.43,1-.74,1.05h0Zm-.6,5.53c-.92,1.12-2.59,1.95-2.59,1.95.48.92,1.6,2.26,2.52,2.26s1.65-.29,1.82-.68c.17-.39.17-1.46-.36-2.02-.53-.56-1.23-1.65-1.23-1.65l-.16.14h0Zm-9.14-5.21c.88-.77,2.54-2.24,4.38-3.97,1.87,1.54,1.22,4.83,1.22,4.83-1,.68-1.21,1.6-1.21,1.6,1.33-.23,1.65,1.41,1.65,1.41l1.54-1.89.44.39c-.06.15-.69,1-.65,1.66.04.66.42,1.27.4,1.43-.02.15-.71,1-1.82,1.07-1.1.07-3.28.24-4.45-2.49-.66-1.54-1.18-3.03-1.51-4.04h0Zm12.42-3.79c-.32.74-.95,1.51-.95,1.51l1.53,1.01c.29-1.2-.46-2.75-.46-2.75l-.13.23h0Zm-4.68,4.89l.19-.19s-.4-.11-.82-.07c-.42.04-.59.43-.6.6-.01.17.39.19,1.23-.34h0Zm2.1,4.01c.68,1.05,1.31,1.65,1.84,1.65s.97-.88.94-1.63c-.02-.75-.12-1.51-.73-2.04-.6-.54-2.54-2.36-2.54-2.36-.39.83.99,2.72.99,2.72-.53.27-.85,1.27-.85,1.27l.34.39h0Zm1.32-6.6l.08-.37s1.85,1.18,2.08,1.82c.22.64-.21,2.72-.77,2.75-.56.03-1.88-1.61-2.27-1.95-.38-.34-.37-.56-.03-.83.34-.27.75-.59.91-1.42Z" style="fill: #fff; fill-rule: evenodd; stroke-width: 0px;"/>
          <path d="m32.68,90.96l.23-.03s.57-.06,1.13.66c.57.71.62,2-.03,2.05-.65.06-1.93-.6-1.93-1.17s.11-1.4.6-1.51h0Zm4.86-3.21c-.6.52-1.39.97-2.21.94,0,0,.8,1.05.36,1.8-.44.75-1.38.78-1.38.78,1.02.89.99,2.27.39,2.69-.61.41-1.9.17-1.9.17-.2,1.43,1.07,2.51,1.76,2.98,1.37-1.52,2.99-3.13,4.52-4.58-2.17-1.13-1.53-4.78-1.53-4.78h0Zm-2.12-4.61l.12-.07s.28.72.28,1.19-.48,1.34-.98,1.34-.75-.37-.52-1c.23-.64.75-1.27,1.1-1.46h0Zm-1.44,5.48h.26s.99.4,1.02,1.11c.03.71-.4.88-1.19.88s-.91-.54-.82-.94c.09-.4.43-1,.74-1.05h0Zm.6-5.53c.92-1.12,2.59-1.95,2.59-1.95-.48-.92-1.6-2.26-2.52-2.26s-1.65.29-1.82.68c-.17.39-.17,1.46.36,2.02.53.56,1.22,1.65,1.22,1.65l.16-.14h0Zm9.14,5.21c-.88.77-2.54,2.24-4.38,3.97-1.87-1.54-1.23-4.83-1.23-4.83,1-.68,1.21-1.6,1.21-1.6-1.33.23-1.65-1.41-1.65-1.41l-1.54,1.89-.44-.39c.06-.15.69-1,.65-1.66-.04-.66-.42-1.27-.4-1.43.02-.16.71-1.01,1.82-1.07,1.1-.07,3.28-.24,4.45,2.48.66,1.54,1.18,3.03,1.51,4.04h0Zm-12.42,3.79c.32-.74.95-1.51.95-1.51l-1.53-1.01c-.29,1.2.46,2.75.46,2.75l.12-.23h0Zm4.68-4.89l-.19.19s.4.11.82.07c.42-.04.59-.43.6-.6.01-.17-.39-.19-1.23.34h0Zm-2.1-4.01c-.68-1.05-1.31-1.65-1.84-1.65s-.97.88-.94,1.63c.02.76.12,1.51.73,2.04.6.54,2.54,2.36,2.54,2.36.39-.83-.99-2.73-.99-2.73.53-.27.85-1.27.85-1.27l-.34-.39h0Zm-1.32,6.61l-.08.37s-1.85-1.18-2.08-1.82c-.22-.64.21-2.72.77-2.75.56-.03,1.88,1.61,2.27,1.95.38.34.37.56.03.83-.34.27-.75.59-.91,1.42Z" style="fill: #fff; fill-rule: evenodd; stroke-width: 0px;"/>
          <path d="m96.27,112.49l1-1.2s.75,5.59-.05,9.08c-.8,3.49-3.44,8.53-6.24,9.63v-1.45s7.03-5.59,5.29-16.06h0Zm3.65,61.1c.65-.4,1.28-.78,1.89-1.16.05-1.57-.17-3.57-.17-3.57-.49-2.09-2.15-3.55-4.24-4.34-2.08-.8-2.83-2.05-3.04-3.25-.21-1.2-.14-2.53-.07-4.61.07-2.09-.3-2.78-.3-2.78-.86-2.25-2.87-2.81-4.3-4.01-1.43-1.2-1.28-1.73-.71-4.51.56-2.78.23-7.35.23-7.35h-1.59s.47,1.56.42,3.25c-.05,1.7-.54,3.37-.88,4.23-.31.77-.52,1.89-.38,2.83.21,2.4,1.9,3.17,3.2,4.03,1.29.86,2.2,1.72,2.46,3.46.26,1.74-.34,4.3.39,6.9.73,2.61,3.2,2.99,4.97,3.82,1.77.83,2.02,2.29,2.19,3.68.13,1,.02,2.57-.05,3.38h0Zm5.05-3.17c-2.7-3.09-4.47-6.07-7.9-12.87-3.54-7.02-4.86-12.83-4.86-12.83l1.08-.36c4.52,14.77,11.22,24.03,12.4,25.59-.24.16-.48.32-.72.47h0Zm8.12-5.72c-8.18-8.29-12.79-26.18-12.79-26.18,8.4-8.16,9.47-19.5,8.33-27.7-1.14-8.2-3.92-11.87-3.92-11.87l.93-.78.4.82c2.23,4.75,4.89,11.37,4.33,21.39-.56,10.02-7.81,17.89-7.81,17.89,2.32,13.43,10.27,23.53,11.83,25.4-.44.34-.87.69-1.32,1.03h0Zm-11.53-52.04c-2.59-.35-3.23-2.35-3.62-2.35s-.31.2-.31.2c1.24,6.2,0,10.75,0,10.75-2.07,7.1-6.74,9.97-6.74,9.97l-.08.65s1.6,1.03,2.44,1.37c.84.34.57.84.57.84-1.41-.19-1.94.42-2.02,1.14-.08.72.11,2.1,1.26,1.98,1.14-.12,1.52-1.45,1.52-1.45.11,1.37.72,1.94,1.33,1.9.61-.04,1.68-.3,1.68-1.6s-1.52-1.75-1.52-1.75c1.98-1.41,1.4-3.07.12-3.1-1.28-.03-1.61,2.3-1.61,2.3,0,0-1.33-1.15-.74-3.09.6-1.94,2.1-2.46,3.08-2.66.98-.19,1.74.52,1.74.52,0,0-1.34.49-1.36,1.67-.03,1.18.46,1.78,1.47,1.48,1.01-.3,1.04-1.78,1.04-1.78.33.71.98,1.26,1.47,1.18.49-.08,1.39-.82,1.33-1.89-.05-1.07-1.99-.85-1.99-.85,1.23-1.26,1.06-2.98-.3-3.09-1.36-.11-1.2,2.46-1.2,2.46-2.15-1.34-1.14-4.44-.2-5.52.94-1.08,2.28-.82,2.28-.82-1.46,1.5,0,2.81.94,2.75.94-.07.72-2.06.72-2.06.55.52,2.76,1.08,2.8-.49.03-1.57-1.92-1.54-1.92-1.54,0,0,.39-2.52-1.33-2.52s-.68,2.94-.68,2.94c-3.25-1.31-2.73-4.62-1.85-5.66.88-1.04,2-.79,2-.79,0,0-.67.4-.27,1.58.39,1.19,1.57,1.13,1.57,1.13,1.18-.25.64-2.47.64-2.47,1.51.4,2.18-.73,2.21-1.22.03-.49-.03-1.7-1.03-1.76-1-.06-1.73.55-1.73.55.58-2.68-2.38-3.18-2.42-1.37-.03,1.28,1.15,2.46,1.15,2.46h-.45Zm.85-10.6l-3.47,5.92s1.54.49,1.75-1.36c0,0,.89,1.15,1.61,1.01.72-.14,1.45-.59,1.5-1.74.05-1.15-1.5-1.03-1.5-1.03.77-.95,1.2-1.95.11-2.8h0Zm1.96-2.55l-1.09,1.42s5.02,8.04,3.49,21.99c0,0-1.9,13.9-15.29,19.52l.72,1.44s8.67-4.48,12.67-12.39c3.99-7.92,3.91-13.87,3.68-18.11-.29-5.39-2.44-10.1-4.19-13.88h0Zm-8.88,43.54l-.57.13s1.5-1.79,3.29-1.82c1.79-.02,3.27,1.43,3.34,3.45.07,2.02-.33,3.94-5.04,6.08l-.62-1.04s4.62-1.95,4.88-3.41c.26-1.46-.41-3.15-1.29-3.79-.88-.64-2.83-.14-3.98.39h0Zm.06,6.39l-1.4-3.09s1.34-1.48,2.47-2.35c1.14-.87,2.74-.63,3.16.36.42.99-.09,1.77-.78,2.51-.69.74-3.45,2.58-3.45,2.58h0Zm.16-2.15l-.11-.16s-.22-.49-.04-1.12c.18-.63,1.69-1.19,2.38-1.23.69-.04.85.65.65,1.1-.2.45-2.09,1.52-2.47,1.59-.38.07-.4-.18-.4-.18h0Zm1.4-.54l-.29.13s-.25.27-.65.29c-.4.02-.54-.74.2-1.25.74-.52,1.27-.92,1.54-.83.27.09.4.43.13.87-.27.45-.94.78-.94.78h0Zm-11.29-6.85c.75,0,1.37.61,1.37,1.37s-.61,1.37-1.37,1.37-1.37-.61-1.37-1.37.61-1.37,1.37-1.37h0Zm4.53,6.2c.75,0,1.37.62,1.37,1.37s-.62,1.37-1.37,1.37-1.37-.61-1.37-1.37.62-1.37,1.37-1.37h0Zm.19,8.53c.75,0,1.37.61,1.37,1.37s-.62,1.37-1.37,1.37-1.37-.62-1.37-1.37.62-1.37,1.37-1.37h0Zm6.04,5.41c.75,0,1.37.62,1.37,1.37s-.62,1.37-1.37,1.37-1.37-.61-1.37-1.37.62-1.37,1.37-1.37h0Zm1.24,8.82c.75,0,1.37.61,1.37,1.37s-.61,1.37-1.37,1.37-1.37-.62-1.37-1.37.62-1.37,1.37-1.37h0Zm8.63-8.55l-.61.12s-1.81.66-2.69,1.19c-.88.54-1.04.5-1.21.24-.18-.26-.1-.64.5-.98.6-.34,3.72-1.87,5.01-1.91,1.29-.04,2.69,1.61,2.88,3.06.2,1.45-.04,4.37-4.75,6.68l-.92-.92s3.87-2.19,4.3-4.01c.43-1.82-.14-3.92-2.52-3.49h0Zm-.07,2.48c-.25.05-.6.23-1.24.79-.64.56-.41,1.09-.12,1.06.3-.03,1.59-1.14,1.62-1.44.03-.3-.12-.38-.12-.38l-.15-.03h0Zm-1.62,2.42c.9,0,2.33-.98,2.67-1.79.32-.75-.52-1.59-1.63-1.04-1.12.55-1.81,1.18-1.81,1.93s.77.89.77.89h0Zm-.4,1.5s3.64-1.87,3.93-3.55c.29-1.67-.83-2.31-2.21-1.79-1.38.52-3.07,2.59-3.07,2.59l1.35,2.74h0Zm-2.67-15l-.61.13s-1.81.66-2.69,1.19c-.88.54-1.04.5-1.21.24-.18-.26-.1-.64.5-.97.6-.34,3.72-1.87,5.01-1.91,1.29-.04,2.69,1.61,2.88,3.06.2,1.45-.04,4.37-4.75,6.68l-.92-.92s3.87-2.19,4.3-4.01c.43-1.81-.14-3.92-2.52-3.49h0Zm-.07,2.48l.15.03s.15.08.12.38c-.03.3-1.32,1.4-1.62,1.44-.3.03-.53-.5.12-1.06.64-.56.99-.75,1.24-.79h0Zm-1.62,2.42s-.78-.15-.78-.89.69-1.39,1.81-1.93c1.12-.55,1.95.29,1.63,1.04-.34.81-1.77,1.79-2.67,1.79h0Zm-.4,1.5l-1.35-2.74s1.69-2.08,3.07-2.59c1.38-.52,2.49.11,2.21,1.79-.29,1.67-3.93,3.54-3.93,3.54Z" style="fill: #ffe100; fill-rule: evenodd; stroke-width: 0px;"/>
          <path d="m67.3,136.13l-1,1.2s-.75-5.59.05-9.08c.8-3.49,3.44-8.53,6.24-9.63v1.45s-7.03,5.59-5.29,16.06h0Zm-3.66-61.1c-.65.39-1.28.78-1.89,1.16-.05,1.57.17,3.57.17,3.57.49,2.09,2.15,3.55,4.24,4.34,2.08.8,2.83,2.05,3.04,3.25.21,1.2.14,2.53.07,4.61-.07,2.09.3,2.78.3,2.78.86,2.25,2.87,2.81,4.3,4.01,1.43,1.2,1.28,1.73.71,4.51-.56,2.78-.23,7.35-.23,7.35h1.59s-.47-1.56-.42-3.25c.05-1.7.54-3.37.88-4.23.31-.77.52-1.89.38-2.83-.21-2.4-1.9-3.17-3.19-4.03-1.29-.86-2.2-1.71-2.46-3.46-.26-1.74.34-4.3-.38-6.9-.73-2.61-3.2-2.99-4.97-3.82-1.77-.83-2.02-2.29-2.19-3.68-.12-1-.01-2.57.05-3.38h0Zm-5.05,3.17c2.7,3.09,4.47,6.07,7.9,12.87,3.54,7.02,4.86,12.83,4.86,12.83l-1.08.36c-4.52-14.77-11.22-24.03-12.4-25.59.24-.16.48-.32.72-.47h0Zm-8.12,5.72c8.18,8.29,12.79,26.18,12.79,26.18-8.4,8.16-9.47,19.5-8.33,27.7,1.14,8.2,3.92,11.87,3.92,11.87l-.93.78-.4-.82c-2.23-4.75-4.89-11.37-4.33-21.39.56-10.02,7.81-17.9,7.81-17.9-2.33-13.43-10.27-23.53-11.83-25.4.43-.34.87-.69,1.32-1.03h0Zm11.53,52.04c2.59.35,3.23,2.35,3.62,2.35s.31-.2.31-.2c-1.24-6.2,0-10.75,0-10.75,2.07-7.1,6.74-9.97,6.74-9.97l.08-.65s-1.6-1.03-2.44-1.37c-.84-.34-.57-.84-.57-.84,1.41.19,1.94-.42,2.02-1.14.08-.72-.11-2.1-1.26-1.98-1.14.12-1.52,1.45-1.52,1.45-.11-1.37-.72-1.94-1.33-1.91-.61.04-1.68.31-1.68,1.6s1.52,1.75,1.52,1.75c-1.98,1.41-1.4,3.07-.12,3.1,1.28.03,1.61-2.3,1.61-2.3,0,0,1.33,1.15.74,3.09-.6,1.94-2.1,2.46-3.08,2.66-.98.19-1.74-.52-1.74-.52,0,0,1.33-.49,1.36-1.67.03-1.18-.46-1.78-1.47-1.48-1.01.3-1.03,1.78-1.03,1.78-.33-.71-.98-1.26-1.47-1.18-.49.08-1.39.82-1.33,1.89.05,1.07,1.99.85,1.99.85-1.23,1.26-1.06,2.98.3,3.09,1.36.11,1.2-2.46,1.2-2.46,2.15,1.34,1.14,4.44.2,5.52-.94,1.08-2.28.82-2.28.82,1.46-1.5,0-2.81-.94-2.75-.94.07-.72,2.06-.72,2.06-.55-.52-2.77-1.08-2.8.49-.03,1.57,1.92,1.54,1.92,1.54,0,0-.39,2.52,1.33,2.52s.68-2.94.68-2.94c3.25,1.31,2.73,4.62,1.85,5.66-.88,1.04-2,.79-2,.79,0,0,.67-.4.27-1.58-.39-1.19-1.57-1.12-1.57-1.12-1.18.24-.64,2.46-.64,2.46-1.51-.4-2.18.73-2.21,1.22-.03.49.03,1.7,1.03,1.76,1,.06,1.73-.55,1.73-.55-.58,2.68,2.38,3.18,2.42,1.37.03-1.28-1.15-2.46-1.15-2.46h.45Zm-.86,10.6l3.47-5.92s-1.54-.49-1.75,1.36c0,0-.89-1.15-1.61-1.01-.72.14-1.45.59-1.5,1.74-.04,1.15,1.5,1.03,1.5,1.03-.77.95-1.2,1.95-.11,2.8h0Zm-1.96,2.55l1.09-1.42s-5.02-8.04-3.49-21.99c0,0,1.9-13.9,15.29-19.53l-.72-1.44s-8.68,4.48-12.67,12.39c-4,7.91-3.91,13.87-3.68,18.11.29,5.39,2.44,10.1,4.19,13.88h0Zm8.88-43.54l.57-.12s-1.5,1.79-3.29,1.82c-1.79.02-3.27-1.43-3.34-3.45-.07-2.02.33-3.94,5.04-6.08l.61,1.04s-4.62,1.95-4.87,3.41c-.26,1.46.41,3.15,1.29,3.79.88.64,2.83.14,3.98-.39h0Zm-.07-6.39l1.4,3.09s-1.34,1.48-2.47,2.35c-1.14.87-2.74.63-3.16-.36-.42-.99.09-1.77.78-2.51.69-.74,3.45-2.57,3.45-2.57h0Zm-.16,2.15l.11.16s.22.49.04,1.12c-.18.63-1.69,1.19-2.38,1.23-.69.04-.85-.65-.65-1.1.2-.45,2.09-1.52,2.47-1.59.38-.07.4.18.4.18h0Zm-1.4.54l.29-.13s.24-.27.64-.29c.4-.02.54.74-.2,1.25-.74.52-1.27.92-1.54.83-.27-.09-.4-.42-.13-.87.27-.45.94-.78.94-.78h0Zm11.29,6.85c-.75,0-1.37-.61-1.37-1.37s.62-1.37,1.37-1.37,1.37.61,1.37,1.37-.61,1.37-1.37,1.37h0Zm-4.53-6.2c-.75,0-1.37-.62-1.37-1.37s.61-1.37,1.37-1.37,1.37.61,1.37,1.37-.61,1.37-1.37,1.37h0Zm-.19-8.53c-.75,0-1.37-.61-1.37-1.37s.62-1.37,1.37-1.37,1.37.62,1.37,1.37-.62,1.37-1.37,1.37h0Zm-6.04-5.41c-.75,0-1.37-.62-1.37-1.37s.61-1.37,1.37-1.37,1.37.61,1.37,1.37-.62,1.37-1.37,1.37h0Zm-1.24-8.82c-.75,0-1.37-.61-1.37-1.37s.62-1.37,1.37-1.37,1.37.61,1.37,1.37-.61,1.37-1.37,1.37h0Zm-8.63,8.55l.61-.13s1.81-.66,2.69-1.19c.88-.54,1.04-.5,1.21-.24.18.26.1.64-.5.98-.6.34-3.72,1.87-5.01,1.91-1.29.04-2.69-1.61-2.89-3.06-.2-1.45.05-4.37,4.75-6.68l.92.92s-3.87,2.19-4.3,4.01c-.43,1.82.14,3.92,2.52,3.49h0Zm.07-2.48c.25-.05.6-.23,1.24-.79.64-.56.41-1.09.12-1.06-.3.03-1.59,1.14-1.62,1.44-.03.3.12.38.12.38l.15.03h0Zm1.62-2.42c-.9,0-2.33.98-2.67,1.79-.32.75.51,1.58,1.63,1.04,1.12-.55,1.81-1.18,1.81-1.93s-.77-.89-.77-.89h0Zm.4-1.5s-3.64,1.87-3.93,3.54c-.29,1.67.83,2.31,2.21,1.79,1.38-.52,3.07-2.6,3.07-2.6l-1.35-2.74h0Zm2.67,15l.61-.13s1.81-.66,2.69-1.19c.88-.54,1.03-.5,1.21-.24.18.26.1.64-.5.97-.6.34-3.72,1.87-5.01,1.91-1.29.04-2.69-1.61-2.88-3.06-.2-1.45.05-4.37,4.75-6.68l.92.92s-3.87,2.19-4.3,4.01c-.43,1.81.14,3.92,2.52,3.49h0Zm.07-2.48l-.15-.03s-.15-.08-.12-.38c.03-.3,1.32-1.41,1.62-1.44.3-.04.53.49-.12,1.06-.64.56-.99.74-1.24.79h0Zm1.62-2.42s.77.14.77.89-.69,1.39-1.81,1.93c-1.12.55-1.95-.29-1.63-1.04.34-.81,1.77-1.79,2.67-1.79h0Zm.4-1.5l1.35,2.74s-1.69,2.08-3.07,2.6c-1.38.52-2.5-.12-2.21-1.79.29-1.67,3.93-3.54,3.93-3.54Z" style="fill: #ffe100; fill-rule: evenodd; stroke-width: 0px;"/>
        </g>
        <path d="m29.59,26.78h104.39v195.06H29.59V26.78h0Zm-1.68-1.68v198.43h107.75V25.09H27.91Z" style="fill: #004ea2; fill-rule: evenodd; stroke-width: 0px;"/>
      </g>
      <g>
        <path d="m17.12,49.99c-.05-1.85-1.4-3.18-3.51-3.18s-4.02,1.79-4.13,4.35c-.1,2.56,1.13,5.16,3.23,7.98,2.1,2.82,4.67,6.87,4.58,6.87s2.47-4.05,4.58-6.87c2.1-2.82,3.33-5.42,3.23-7.98-.1-2.56-2.01-4.35-4.13-4.35s-3.47,1.34-3.51,3.18c0,0,0,.51-.17.5-.2-.02-.16-.37-.17-.5Z" style="fill: #e60012; fill-rule: evenodd; stroke-width: 0px;"/>
        <path d="m14.64,13.47h10.89v3.12h-3.16v18.12c0,1.93-.73,3.69-1.91,4.98-1.21,1.32-2.89,2.14-4.75,2.14-.26,0-.48,0-.64-.02-4.27-.38-6.32-4.28-5.98-8.11l3.12.27c-.2,2.25.87,4.53,3.13,4.73.16.01.29.02.37.02.95,0,1.82-.43,2.46-1.13.67-.73,1.08-1.75,1.08-2.87v-18.12h-4.61v-3.12Z" style="fill: #e60012; stroke-width: 0px;"/>
      </g>
      <g>
        <path d="m146.45,198.62c.04,1.85,1.4,3.18,3.51,3.18s4.02-1.79,4.13-4.35c.1-2.56-1.13-5.16-3.23-7.98-2.1-2.82-4.67-6.87-4.58-6.87s-2.47,4.05-4.58,6.87c-2.1,2.82-3.33,5.42-3.23,7.98.1,2.56,2.01,4.35,4.13,4.35s3.47-1.34,3.51-3.18c0,0,0-.51.17-.5.2.01.16.37.17.5Z" style="fill: #e60012; fill-rule: evenodd; stroke-width: 0px;"/>
        <path d="m148.93,235.14h-10.89v-3.12h3.16v-18.12c0-1.93.73-3.7,1.91-4.98,1.21-1.32,2.89-2.14,4.75-2.14.26,0,.47,0,.64.02,4.27.38,6.32,4.28,5.98,8.11l-3.12-.27c.2-2.25-.87-4.53-3.13-4.73-.16-.01-.29-.02-.37-.02-.95,0-1.82.43-2.46,1.13-.67.73-1.09,1.75-1.09,2.87v18.12h4.61v3.12Z" style="fill: #e60012; stroke-width: 0px;"/>
      </g>
    </g>
  </g>
</svg>