<?xml version="1.0" encoding="UTF-8"?>
<svg id="_图层_2" data-name="图层 2" xmlns="http://www.w3.org/2000/svg" xmlns:xlink="http://www.w3.org/1999/xlink" viewBox="0 0 163.58 248.61">
  <defs>
    <clipPath id="clippath">
      <path d="m67.09,113.92c1.58-.06,5.52-.07,8.15,1.03,3.36,1.41,4.93,3.4,7.23,5,2.17,1.5,6.83,5.73,12.22,5.73,0,.68.05,1.37.12,2.08.27,2.76.92,5.07,1.74,6.99-1.41-.06-3.58-.24-5.78-.81-3.71-.96-6.2-2.81-11.12-6.46-4.5-3.33-7.66-4.36-10.85-4.17.01-.89-.03-1.81-.12-2.76-.26-2.59-.84-4.79-1.59-6.64Z" style="clip-rule: evenodd; fill: #231815; stroke-width: 0px;"/>
    </clipPath>
  </defs>
  <g id="_图层_1-2" data-name="图层 1">
    <g>
      <path d="m162.58,242.01c0,3.08-2.51,5.6-5.57,5.6H6.57c-3.06,0-5.57-2.52-5.57-5.6V6.6C1,3.52,3.51,1,6.57,1h150.43c3.06,0,5.57,2.52,5.57,5.6v235.41Z" style="fill: #fff; fill-rule: evenodd; stroke: #231815; stroke-miterlimit: 22.93; stroke-width: 2px;"/>
      <g>
        <g>
          <path d="m46.07,40.04c-.08-3.15-2.39-5.43-5.99-5.43s-6.87,3.05-7.04,7.43c-.18,4.37,1.92,8.8,5.51,13.62,3.59,4.81,7.96,11.72,7.81,11.72s4.22-6.91,7.81-11.72c3.59-4.81,5.69-9.24,5.51-13.62-.17-4.38-3.44-7.43-7.04-7.43s-5.91,2.28-5.99,5.43c0,0,.02.87-.29.85-.34-.02-.28-.64-.29-.85Z" style="fill: #e60012; fill-rule: evenodd; stroke-width: 0px;"/>
          <path d="m117.5,208.57c.08,3.15,2.39,5.43,5.99,5.43s6.86-3.05,7.04-7.43c.18-4.38-1.92-8.81-5.51-13.62-3.59-4.81-7.96-11.72-7.81-11.72s-4.22,6.91-7.81,11.72c-3.59,4.81-5.69,9.24-5.51,13.62.17,4.38,3.44,7.43,7.04,7.43s5.91-2.28,5.99-5.43c0,0-.02-.87.29-.85.33.03.28.64.28.85Z" style="fill: #e60012; fill-rule: evenodd; stroke-width: 0px;"/>
        </g>
        <path d="m29.59,149.18l.58.56c0,1.44.57,2.04,1.09,2.37.53.33,1.26.38,1.26.38-.8,1.62.77,2.48.77,2.48-2.81,1.79-3.52,4.84-3.71,7.68v5.17c.12,1.48.38,1.22.38,1.22,1.59-.96,5.19-6.46,5.19-6.46v7.14c-1.47.57-1.71,2.19-1.71,2.19l-1.76-.42.15,1.77c-1.96.22-2.08,2.23-1.95,4.11.13,1.88,2.36,2.49,2.36,2.49l-.61,2.76,1.59-.7c-.09,1.31,1.07,2.85,3.12,2.93,2.05.09,3.12-2.47,3.12-2.47.27-.04,1.79.5,1.79.5,0,0-.12-.87-.53-1.78-.41-.91-.29-1.22-.29-1.22,1.03-.06,2.7-1.05,2.45-3.55-.25-2.49-2.42-2.91-2.42-2.91,0,0,1.03-1.84.63-1.92-.4-.07-2.16.32-2.16.32.07-1.71-1.87-2.57-1.87-2.57v-9.58c1.33,1.18,4.21,3.13,5.44,3.93,1.23.81,1.33.71,1.33.71.42-1.38-1.47-5.3-1.47-5.3.76.71,2.97,3.76,3.72,5.36.76,1.6,4.1,8.69,4.1,8.69,3.48.27,4.1,4.54,4.1,5.25s.53,5.21-4.39,7.61c-4.92,2.4-12.39,2.8-12.39,2.8,5.9,9.48,3.58,29.85,3.16,33.1h49.07c.07-2.39.35-14.5-1.07-22.77,0,0,7.19-7.83,7.19-16.64,0,0,11.31-5.34,20.63-13.3,7.68-6.56,15.12-13.19,17.5-15.32v-54.37l-.58-.56c0-1.44-.56-2.04-1.09-2.37-.53-.33-1.26-.38-1.26-.38.8-1.62-.77-2.48-.77-2.48,2.81-1.8,3.53-4.85,3.7-7.69v-5.14c-.12-1.5-.38-1.24-.38-1.24-1.59.96-5.19,6.46-5.19,6.46v-7.14c1.47-.56,1.71-2.19,1.71-2.19l1.76.42-.15-1.77c1.96-.22,2.08-2.23,1.95-4.11-.13-1.88-2.35-2.49-2.35-2.49l.61-2.76-1.59.7c.09-1.31-1.07-2.85-3.12-2.93-2.05-.09-3.12,2.47-3.12,2.47-.27.04-1.79-.5-1.79-.5,0,0,.12.87.53,1.78.41.91.29,1.22.29,1.22-1.03.06-2.7,1.05-2.45,3.55.24,2.49,2.42,2.91,2.42,2.91,0,0-1.03,1.85-.63,1.92.4.07,2.16-.33,2.16-.33-.07,1.71,1.87,2.57,1.87,2.57v9.58c-1.33-1.19-4.21-3.13-5.44-3.93-1.23-.81-1.33-.71-1.33-.71-.43,1.37,1.47,5.3,1.47,5.3-.76-.71-2.97-3.76-3.72-5.37-.76-1.6-4.1-8.69-4.1-8.69-3.48-.27-4.1-4.54-4.1-5.25s-.53-5.21,4.39-7.61c4.92-2.4,12.39-2.8,12.39-2.8-5.9-9.48-3.58-29.85-3.17-33.1h-49.07c-.07,2.39-.35,14.5,1.07,22.77,0,0-7.19,7.83-7.19,16.64,0,0-11.31,5.34-20.63,13.3-7.68,6.56-15.12,13.19-17.5,15.32v54.37Z" style="fill: #004ea2; fill-rule: evenodd; stroke-width: 0px;"/>
        <g>
          <path d="m105.25,72.55c.05.26.11.53.18.79.05.21.11.42.18.63-2.99,1.53-10.34,4.54-21.42,4-11.22-.54-19.06-7.19-20.57-8.56.13-.07.25-.14.38-.22.29-.17.59-.33.88-.5.25.22.5.45.76.66,2.22,1.86,4.9,3.41,7.85,4.6,3.77,1.52,7.99,2.44,12.24,2.65,3.83.19,7.84-.28,11.61-1.23,2.29-.57,4.5-1.32,6.53-2.19.47-.2.94-.42,1.4-.63h0Zm10.53,9.49c-16.83,11.62-33.33,8.8-33.33,8.8-16.74-2.51-27.43-12.94-29.21-14.8-.39.28-.79.56-1.18.84,5.72,5.68,18.28,15.59,34.98,15.93,17.28.44,30.48-10.31,30.48-10.31l-.08-.13c-.58-.1-1.13-.21-1.66-.33Z" style="fill: #ffe100; fill-rule: evenodd; stroke-width: 0px;"/>
          <path d="m98.38,42.44c-.46,1.23-1.41,4.11-1.44,7.23-.04,3.99,1.21,9.1,9,10.12-.33-.75-.66-1.5-.99-2.26-1.5-.15-3.94-.79-5.5-3.29,0,0-2.72-4.24-.26-9.93-.27-.63-.55-1.25-.81-1.87h0Zm2.78,6.39c.75,1.73,1.52,3.5,2.29,5.26-1.89-.7-2.71-2.36-2.71-3.57,0-.6.19-1.2.42-1.69h0Zm-1.67-3.84c.42.96.84,1.93,1.27,2.91-.47.8-.8,2.02-.3,3.69.62,2.03,2.18,2.93,3.36,3.33.27.62.54,1.23.81,1.85-5.35-.6-5.87-5.49-5.83-7.67.02-1.49.42-3.14.7-4.11Z" style="fill: #fff; fill-rule: evenodd; stroke-width: 0px;"/>
          <path d="m106.95,62.11c-.44,1.26-1.2,3.79-1.4,6.77-.27,4.15,1.18,10.44,9.74,12.26-.21-.47-.44-1-.69-1.56-1.85-.46-4.76-1.63-6.48-4.62-2.22-3.84-1.45-8.85-.32-10.91-.28-.64-.56-1.29-.85-1.94h0Zm1.09,2.5c.35.8.69,1.58,1.03,2.36-.62,1.81-.34,4.59-.34,4.59.75,3.03,2.87,4.35,4.51,4.92.37.84.71,1.62,1.03,2.34-1.58-.43-3.96-1.55-5.37-3.75-1.9-2.96-1.62-6.19-1.23-8.42.17-.98.29-1.63.37-2.04h0Zm1.52,3.47c1.21,2.76,2.33,5.33,3.31,7.56-2.47-.66-3.69-3.65-3.63-5.47.02-.83.16-1.54.32-2.09Z" style="fill: #fff; fill-rule: evenodd; stroke-width: 0px;"/>
          <path d="m104.97,70.01c.02.65.08,1.31.18,1.96-2.4,1.16-5.12,2.15-7.96,2.86-3.72.93-7.67,1.4-11.45,1.21-4.19-.21-8.34-1.12-12.05-2.61-3.17-1.27-6.01-2.97-8.29-5.02.66-.36,1.33-.72,2-1.06,4.64,4.4,10.89,6.71,17.44,7.16,6.89.47,14.11-1.12,20.14-4.49Z" style="fill: #ffe100; fill-rule: evenodd; stroke-width: 0px;"/>
          <path d="m71.33,65.43c1.34.96,7.43,4.96,15.84,4.96s15.61-3.71,18.23-5.31c-.26,1.26-.44,2.66-.44,4.14v.15c-5.98,3.43-13.21,5.04-20.09,4.57-6.36-.44-12.43-2.66-16.95-6.87,1.13-.58,2.27-1.13,3.41-1.65Z" style="fill: #ffe100; fill-rule: evenodd; stroke-width: 0px;"/>
          <path d="m71.97,65.14c1.48,1.08,6.83,4.56,14.14,4.56s12.86-1.79,19.43-5.29c.4-1.68.93-3.05,1.32-3.93-3.26-.2-5.53-1.09-7.11-2.33-.2.35-3.13,5.43-8.17,8.26-5.22,2.93-7.81,2.42-7.81,2.42-2.35-.49-4.14-3.01-5.48-6.14-2.11.7-4.22,1.52-6.32,2.46Z" style="fill: #fff; fill-rule: evenodd; stroke-width: 0px;"/>
          <path d="m81.22,40.43l.45.1s-1.08-1.46-2.88-1.69c-1.8-.23-2.93.1-3.4.53-.48.43.07.98.35.98s1.3-.7,2.28-.7,2.35.53,3.2.78h0Zm-6.78-13.66h1.07c-.26.3-.62.66-1.11,1.06.01-.45.03-.81.04-1.06h0Zm1.95,0c-.35.49-.97,1.18-2.01,1.96,0,.44-.01.95-.01,1.52,1.39-.78,2.75-2.36,3.61-3.48h-1.59Zm2.46,0c-.91,1.24-2.69,3.4-4.48,4.27,0,.43,0,.9.02,1.39,2.64-1.08,4.71-3.87,5.83-5.66h-1.36Zm2.17,0c-1.12,1.88-3.49,5.25-6.62,6.4.01.56.03,1.14.05,1.77,4.32-2.48,6.53-6.17,7.47-8.17h-.9Zm1.66,0h.41c1.61,2.79,5.86,8.85,13.21,10.94.49,1.13,1.01,2.32,1.54,3.54-.68,2.13-1.47,5.07-1.57,7.49-.11,2.7.19,6.48,3,9.02-7.16,10.9-15.01,10.47-15.01,10.47-4.4-.6-7.88-8.87-9.09-22.19-.02-.19-.03-.37-.05-.55.42-.45.77-.32,1.34-.08.61.26,1.76.49,2.58.49s1.25-.38,1.69-.64c.44-.26.7-.02.7-.02.07.35-1.54,2.06-1.73,2.47-.18.41-.17.92.24.92s1.63-2.12,1.87-2.12-.24,2.78-.54,3.96c-.3,1.18-.56,2.36-.48,2.93.07.58.53,1.03,1.28,1.67.75.65,1.12,1.15,1.57,1.11.45-.04.53-.47.25-.88-.28-.41-.28-.86.14-.91.43-.05.71.07,1.27.36.55.29,1.27.82,2.23.41.96-.41,1.14-1.76.97-2.62-.17-.86-1.04-1.66-1.44-1.6-.4.06-.38.82-.1,1.01.27.19.67.55.65,1.2-.02.65-.69.88-1.57.59-.88-.29-.9-.67-1.74-.67s-1.04.69-1.67.69-1.34-.82-1.13-2.29c.21-1.47.93-3.51.93-3.51,1.23-3.64.83-5.85.83-5.85-.29-3.96-2.98-5.58-5.33-5.44-1.66.1-2.81.82-3.34,1.23-.04-.76-.07-1.49-.1-2.17,4.91-2.69,7.28-6.9,8.2-8.95h0Zm1.22,0c1.65,2.75,5.54,8.03,12.04,10.1-.31-.71-.61-1.4-.9-2.07-4.84-1.16-7.85-5.7-9.1-8.03h-2.03Zm2.83,0c1.24,2.21,3.88,5.99,7.95,7.21-.25-.57-.49-1.12-.72-1.65-2.89-1.08-4.92-3.78-5.99-5.56h-1.24Zm2.06,0c.97,1.53,2.58,3.57,4.76,4.63-.31-.72-.61-1.39-.87-2-1.07-.82-2.03-1.82-2.73-2.62h-1.16Zm2.1,0c.35.38.74.79,1.17,1.19-.19-.44-.36-.84-.52-1.19h-.65Zm-6.81,35.01c.5.16,1.35.19,1.77.19s1.02-.42,1.07-.67c.05-.25-.11-.53-.53-.48-.42.05-.57.33-1.33.37-.76.05-1.15-.19-1.47-.19s-.48.22-.31.42c.17.2.54.3.54.3l.26.06h0Zm-1.34,2.84c.73-.73,1.27-.98,2.39-.96.84.01,1.45.67,1.72.83.28.16.74.44.77-.12.03-.55-.12-.77-.59-1.13-.48-.36-1.87-.64-2.94-.58-1.07.06-1.91.71-1.91.96s.57,1,.57,1h0Zm-5.57-21.42s-.08.49.1,1.11c.18.62.52.84,1.31.84s1.4-.62,1.42-1.18c.02-.56-.04-.74-.04-.74,0,0-.48,1.15-1.05,1.3-1.06.28-1.45-.81-1.75-1.34h0Zm3.33.91c.2.11.82.03.81-.22-.01-.18-.22-.64-.32-.47-.1.18-.49.69-.49.69h0Zm-4.05-.55c-.37-.14-.71-.11-.73.45-.01.45.27.42.54.42s.47-.62.18-.87h0Zm4.38,16.65c.21-.01.4-.06.85-.36.45-.29.7-.5,1.11-.44.42.06.59.58,1.07.58s1.08.1,1.83-.21c.74-.31.87-.37,1.31-.37s.74.17,1.08.4c.34.23.55.32.8.29.25-.03.38-.4.2-.72-.17-.32-.53-.79-.58-1.23-.04-.44-.3-.78-.33-.63-.02.15-.59.43-1.02.37-.43-.06-.85-.52-1.33-.52s-.48.5-.92.58c-.44.09-.93-.15-1.14-.42-.2-.28-.68-.29-.95.01-.26.31-.69.47-.88.31-.19-.16-.57-.6-.74-.6s-.38.13-.38.51.02,2.3.02,2.3l-.02.15h0Zm-4.94-18.6s.81-1.33,2.36-1.28c1.55.05,3,.45,3.92,1.79,0,0-1.27-.67-3.04-.86-1.51-.16-2.17-.09-3.25.35h0Zm12.65-3.06c1.31-.3,2.84,0,4.02.6,1.77.88,3.21,1.77,3.57,1.77s-.14-1.16-1.02-1.84c-.88-.67-2.93-2.26-5.54-2.44-2.61-.18-3.85.67-4.38,1.59-.53.92.14,1.55.85,1.24.71-.32,1.45-.64,2.51-.92h0Zm-2.93,3.18c.14.25.95.6.95,1.3s-.46,1.34-.6,1.69c-.14.35.14.81,1.06,1.31.92.49,3.78,2.51,3.92,2.19.14-.32-2.68-2.54-2.68-2.54,0,0,1.27.28,3.11.21,1.84-.07,2.3-.7,2.51-1.06.21-.35.39-.39.99-.39s1.38.21,1.41-.14c.04-.35-.49-.85-1.48-1.48-.99-.63-2.75-1.91-4.62-1.91s-2.83.92-2.75.63c.07-.28.78-1.06,2.01-1.13,1.24-.07,2.43.11,4.06.81,1.62.7,2.26,1.66,2.44,1.24.18-.43-.42-.88-1.24-1.27-.81-.39-2.93-1.62-4.98-1.62s-2.83,1.66-2.83,1.66l-1.38.18.11.32h0Zm2.28,2.42c0,.16,0,.26.26.26s.42.07.39-.23c-.03-.29-.55-.2-.55-.2l-.1.16h0Zm3.28-.16c-.16.29-.42.42-.97.42s-.75-.32-.97-.71c-.23-.39-.39-.13-.39-.13-.1,1.24.94,1.59,1.69,1.56.75-.03,1.4-.65,1.5-1.14.1-.49.07-.65-.23-.65s-.42.36-.42.36l-.2.29h0Zm1.66-.26c-.32.13.1.71.1.71,0,0,.42,0,.42-.32s-.23-.36-.23-.36l-.29-.03Z" style="fill: #fff; fill-rule: evenodd; stroke-width: 0px;"/>
          <path d="m91.56,26.78c4.12,9.48,23.48,53.97,25.02,57.22l7.05-2.58-27.2-54.64h-4.86Z" style="fill: #231815; fill-rule: evenodd; stroke-width: 0px;"/>
          <path d="m98.42,26.78l17.35,33.83c-.89.25-1.63.48-2.18.66l-17.17-34.49h2Z" style="fill: #e60012; fill-rule: evenodd; stroke-width: 0px;"/>
          <path d="m99.25,26.78c5.67,11.23,11.49,22.42,17.03,33.69,2.15-.58,4.97-1.22,7.74-1.46-1.04-2.75-2.67-7.91-2.9-13.55-.31-7.67-.41-12.83.52-18.67h-22.39Z" style="fill: #ffe100; fill-rule: evenodd; stroke-width: 0px;"/>
          <path d="m101.99,32.18c.18.35.35.69.53,1.04.45.67,1.06,1.24,1.71,1.45,1.34.43,2.67-.19,3.09-1.42.43-1.23.24-2.02.24-2.02,0,0-.62,1.95-2.1,2.22-1.48.27-2.4-1.21-2.35-2.57.05-1.36,1.08-1.83,1.36-1.83s0,1.61.68,1.59c.68-.02.85-.93,1.16-1.38.29-.42,1.12-1.1,1.11-2.47h-.82c-.09.46-.29,1.14-.66,1.35-.52.29-1.08-.37-1.33-1.35h-.7c-.3.48-.86,1.23-1.52,1.27-.72.04-1.25-.64-1.62-1.27h-1.13c.6.63,1.93,1.9,2.91,1.96,0,0-.61,1-.74,2.25-.04.36.03.77.19,1.19h0Zm6.3,12.36c-.02-.12-.04-.23-.04-.35,0-1.28.46-3.02.46-3.02-2.82-.61-3.79-2.99-3.55-4.66.24-1.68,1.76-2.16,3.09-2.16s1.79,1.1,1.79,1.1h-.56c-1.98-.05-2.84.51-2.96,1.77-.13,1.26.57,2.42,1.21,2.87.63.45,1.36.3,1.93-.05.57-.35.52-.94.35-.95-.17-.02-.9-.51-.92-.91-.02-.4.35-.7.79-.7s1.14.76,1.14.76c.36-.42.87-.69,1.49-.62.62.06,1.42.88,1.24,2.1-.18,1.22-1.36,1.77-1.4,1.98-.03.21-.54,1.28-.91,1.28s-.42-1.59-.42-1.59c-.7,0-1.55.52-1.61,1.71-.06,1.19.36,2.68,2.12,2.62,1.76-.06,2.33-2.13,2.33-2.13,0,3.57-2.09,3.69-3.12,3.38-.61-.18-1.36-.66-1.88-1.29-.19-.37-.38-.75-.57-1.13h0Zm3.63-6.14c-.53,0-.97.44-.97.97s.43.96.97.96.96-.43.96-.96-.43-.97-.96-.97h0Zm4.05,9.07h.56s-.45-1.1-1.79-1.1-2.85.49-3.09,2.16c-.24,1.68.73,4.05,3.55,4.66,0,0-.46,1.74-.46,3.02s1.46,2.47,2.49,2.77c1.03.31,3.12.18,3.12-3.38,0,0-.58,2.07-2.34,2.13-1.76.06-2.18-1.43-2.12-2.62.06-1.19.91-1.71,1.61-1.71,0,0,.06,1.59.42,1.59s.88-1.07.91-1.28c.03-.21,1.21-.76,1.39-1.98.18-1.22-.62-2.04-1.24-2.1-.62-.06-1.12.21-1.49.62,0,0-.7-.76-1.14-.76s-.81.3-.79.7c.02.4.75.89.92.91.18.02.22.61-.35.96-.57.35-1.3.49-1.93.05-.63-.45-1.33-1.61-1.2-2.87.13-1.26.98-1.81,2.96-1.77h0Zm2.44,2.95c.53,0,.97.43.97.96s-.44.96-.97.96-.97-.43-.97-.96.43-.96.97-.96Z" style="fill: #094; fill-rule: evenodd; stroke-width: 0px;"/>
          <path d="m73.95,39.78c-2.36,2.04-11.88,11.38-13.97,30.62,4.47-2.67,7.74-4.21,7.74-4.21,0-8.82,7.19-16.64,7.19-16.64-.51-2.97-.8-6.44-.96-9.77Z" style="fill: #231815; fill-rule: evenodd; stroke-width: 0px;"/>
          <path d="m75.05,50.32c-1.83,2.41-6.36,8.99-6.71,15.51.44-.21.9-.42,1.37-.63.03-2.57.79-7.79,5.65-12.97-.13-.7-.23-1.34-.32-1.9h0Zm.42,2.44c.12.67.27,1.38.43,2.13-3.89,4-4.27,7.69-4.18,9.44-.51.22-1.02.43-1.5.65-.21-5.01,3.95-10.6,5.25-12.21h0Zm1.18,5.17c.14.5.29,1.01.44,1.51-.84,1.23-1.15,2.4-1.24,3.27-.47.17-.94.34-1.4.52.25-2.78,1.59-4.61,2.19-5.3h0Zm-.66-2.62c.17.73.35,1.49.56,2.25-1.94,1.92-2.48,4.26-2.59,5.86-.56.22-1.12.44-1.65.66-.2-3.98,2.64-7.58,3.69-8.77h0Zm1.3,4.74c-.27.47-.69,1.33-.83,2.44.5-.17,1.01-.35,1.53-.51-.25-.63-.48-1.27-.7-1.93Z" style="fill: #fff; fill-rule: evenodd; stroke-width: 0px;"/>
          <path d="m105.17,66.4l-1.06.53c-.25.13-.49.26-.74.38l.63,1.47.99-.55c.03-.63.1-1.24.18-1.83h0Zm-2.45,1.23c-.53.25-1.06.49-1.6.72l.67,1.55c.5-.23,1-.47,1.5-.73l-.57-1.54h0Zm-2.19.97l.59,1.6c-.5.21-1.01.42-1.52.61l-.66-1.6c.54-.19,1.07-.39,1.59-.61h0Zm-2.19.82c-.51.17-1.03.34-1.56.49l.58,1.65c.51-.15,1.01-.31,1.51-.49l-.54-1.66h0Zm-2.18.67c-.49.13-.99.26-1.49.37l.13,1.76c.59-.13,1.18-.27,1.77-.43l-.4-1.7h0Zm-2.4.57c-.57.12-1.14.22-1.71.3l.17,1.72c.57-.08,1.14-.17,1.7-.28l-.17-1.74h0Zm-2.51.42c-.55.07-1.11.13-1.66.17v1.7c.59-.04,1.17-.09,1.75-.16l-.08-1.72h0Zm-2.55.23c-.58.03-1.16.04-1.75.04l-.06,1.68c.59,0,1.18,0,1.76-.03l.04-1.7h0Zm-2.72.03c-.39-.01-.79-.03-1.18-.06-.17-.02-.33-.04-.49-.05l-.06,1.69s.08,0,.13.01c.54.04,1.07.07,1.61.09v-1.68h0Zm-2.67-.24c-.56-.08-1.12-.18-1.67-.29l-.12,1.74c.19.04.37.07.56.1.39.06.79.11,1.18.16l.05-1.72h0Zm-2.31-.43c-.53-.12-1.05-.25-1.57-.39l-.43,1.7c.57.15,1.15.29,1.73.41l.28-1.72h0Zm-2.5-.66c-.52-.16-1.04-.34-1.55-.53l-.53,1.67c.49.19.99.36,1.5.51l.58-1.65h0Zm-2.25-.8c-.51-.2-1.01-.42-1.51-.66l-.72,1.55c.53.26,1.06.51,1.61.73l.62-1.63h0Zm-2.39-1.09c-.46-.24-.9-.48-1.34-.74l-.89,1.36c.46.3.92.58,1.4.85l.84-1.47h0Zm-2.25-1.3c-.12-.08-.24-.16-.36-.24,0,0-.5-.35-.91-.66-.5.24-1,.48-1.5.73l.85.67c.26.21.52.42.79.61l1.14-1.12Z" style="fill: #094; fill-rule: evenodd; stroke-width: 0px;"/>
          <path d="m105.61,73.96c.91,2.88,2.97,5.55,7.31,7.21.86.33,1.81.62,2.86.86-16.83,11.62-33.33,8.8-33.33,8.8-16.74-2.51-27.43-12.94-29.21-14.8.12-.09.24-.17.36-.25,3.18-2.23,6.55-4.41,10.02-6.39,1.51,1.38,9.35,8.02,20.57,8.56,11.08.54,18.43-2.47,21.42-4Z" style="fill: #231815; fill-rule: evenodd; stroke-width: 0px;"/>
          <path d="m58.87,72.26l1.85,1.61-3.07,4.64-3.78-2.92c.58-.4,1.16-.8,1.74-1.19.11.82.81,1.45,1.66,1.45.92,0,1.67-.75,1.67-1.67,0-.61-.33-1.14-.82-1.44.25-.16.49-.32.74-.47h0Zm-2.71,1.76s0,.1,0,.15c0,.62.5,1.12,1.12,1.12s1.12-.5,1.12-1.12c0-.51-.35-.95-.82-1.08-.47.31-.94.62-1.41.93h0Zm10.81-.97l-3.76-2.79-2.38,4.5,4.38,2.36,1.76-4.07h0Zm-2.75-1.22c.82,0,1.49.67,1.49,1.49s-.67,1.49-1.49,1.49-1.49-.67-1.49-1.49.67-1.49,1.49-1.49h0Zm0,.5c.54,0,.99.44.99.99s-.45.99-.99.99-.99-.44-.99-.99.45-.99.99-.99h0Zm5.1,7.6l-4.14-2.77-2.99,4.74,4.76,2.77,2.37-4.74h0Zm-3.28-.89c.88,0,1.59.72,1.59,1.6s-.71,1.59-1.59,1.59-1.59-.71-1.59-1.59.72-1.6,1.59-1.6h0Zm0,.49c.61,0,1.11.5,1.11,1.11s-.5,1.11-1.11,1.11-1.11-.5-1.11-1.11.5-1.11,1.11-1.11h0Zm9.26-2.12l-1.26,4.79-4.73-1.85,1.79-4.72,4.2,1.78h0Zm-2.75-.3c-.8,0-1.45.65-1.45,1.45s.65,1.45,1.45,1.45,1.45-.65,1.45-1.45-.65-1.45-1.45-1.45h0Zm0,.53c-.51,0-.92.42-.92.92s.42.92.92.92.92-.41.92-.92-.41-.92-.92-.92h0Zm5.34,11.21l1.04-5.22-4.75-1.61-1.57,5.09,5.29,1.74h0Zm-2-5.38c.91,0,1.65.74,1.65,1.65s-.74,1.65-1.65,1.65-1.65-.74-1.65-1.65.74-1.65,1.65-1.65h0Zm0,.53c.62,0,1.12.5,1.12,1.12s-.5,1.12-1.12,1.12-1.12-.5-1.12-1.12.5-1.12,1.12-1.12h0Zm8.35-4.46l-4.48-.74-.55,4.99,4.96.65.07-4.89h0Zm-2.43.24c.84,0,1.53.69,1.53,1.53s-.69,1.53-1.53,1.53-1.53-.69-1.53-1.53.69-1.53,1.53-1.53h0Zm0,.57c.53,0,.95.43.95.95s-.43.95-.95.95-.96-.43-.96-.95.43-.95.96-.95h0Zm7.19,4.4l-5.09-.3-.04,5.48,5.37.16-.24-5.34h0Zm-2.69.47c.91,0,1.66.77,1.66,1.71s-.74,1.71-1.66,1.71-1.66-.77-1.66-1.71.74-1.71,1.66-1.71h0Zm0,.59c.6,0,1.09.5,1.09,1.12s-.49,1.12-1.09,1.12-1.09-.5-1.09-1.12.49-1.12,1.09-1.12h0Zm7.34-6.36l.6,5.09h-4.99l-.32-5.01,4.71-.08h0Zm-2.26.8c-.8,0-1.45.65-1.45,1.45s.65,1.45,1.45,1.45,1.45-.65,1.45-1.45-.65-1.45-1.45-1.45h0Zm0,.5c-.52,0-.94.42-.94.94s.42.95.94.95.94-.42.94-.95-.42-.94-.94-.94h0Zm7.77,2.94l-4.92.56.45,5.28,5.39-1.18-.92-4.66h0Zm-2.16.92c.89,0,1.61.72,1.61,1.61s-.72,1.61-1.61,1.61-1.61-.72-1.61-1.61.72-1.61,1.61-1.61h0Zm0,.53c.6,0,1.08.49,1.08,1.08s-.49,1.08-1.08,1.08-1.08-.49-1.08-1.08.49-1.08,1.08-1.08h0Zm2.46-2.01l-1.61-5.01,4.46-.96,1.9,4.56-4.75,1.41h0Zm1.43-4.77c-.79,0-1.43.64-1.43,1.42s.64,1.43,1.43,1.43,1.42-.64,1.42-1.43-.64-1.42-1.42-1.42h0Zm0,.47c-.52,0-.95.43-.95.95s.43.95.95.95.95-.43.95-.95-.43-.95-.95-.95h0Zm7.71,1.14l-4.28,1.49,1.5,4.88,4.49-2.15-1.72-4.22h0Zm-1.5,1.28c.84,0,1.53.69,1.53,1.53s-.69,1.53-1.53,1.53-1.53-.69-1.53-1.53.69-1.53,1.53-1.53h0Zm0,.47c.58,0,1.06.48,1.06,1.05s-.47,1.06-1.06,1.06-1.06-.47-1.06-1.06.48-1.05,1.06-1.05Z" style="fill: #ffe100; fill-rule: evenodd; stroke-width: 0px;"/>
          <path d="m102.69,90.93v19.47c1.88-1.35,4.09-2.55,6.63-3.6,2.42-9.73,7.18-17.52,8.83-20.03-1.38-1.88-1.57-2.78-1.57-2.78-4.94,3.17-9.57,5.42-13.88,6.94Z" style="fill: #231815; fill-rule: evenodd; stroke-width: 0px;"/>
          <path d="m82.04,93.34l1.82,1.15v-.95c-.62-.05-1.23-.12-1.82-.2h0Zm-3.56-.64c.21.05.43.1.65.14l4.73,3.02v1.81s-5.09-3.08-5.09-3.08l-.29-1.89h0Zm.45,2.91l.33,2.18,4.6,2.74v-1.68s-4.93-3.24-4.93-3.24h0Zm.49,3.22l4.44,2.89v1.83s-4.07-2.35-4.07-2.35l-.36-2.37h0Zm.52,3.41l.3,1.95,3.61,2.21v-1.85s-3.91-2.31-3.91-2.31h0Zm.44,2.86l3.47,2.13v1.83s-3.14-1.85-3.14-1.85l-.33-2.11h0Zm.51,3.34l.29,1.92,2.65,1.6v-1.81s-2.95-1.71-2.95-1.71h0Zm.43,2.79l2.52,1.66v1.64s-2.22-1.4-2.22-1.4l-.29-1.9h0Zm.5,3.25l.31,2c.34.24.68.49,1.03.75.23.17.45.34.68.5v-1.92s-2.01-1.33-2.01-1.33Z" style="fill: #fff; fill-rule: evenodd; stroke-width: 0px;"/>
          <g>
            <path d="m85.09,93.63v24.97c1,.69,1.93,1.27,2.79,1.76v-26.67c-.95.01-1.88-.01-2.79-.06Z" style="fill: #ffe100; fill-rule: evenodd; stroke-width: 0px;"/>
            <path d="m85.7,94.05h1.47v.96h-1.47v-.96h0Zm0,2.36h1.47v.96h-1.47v-.96h0Zm0,2.36h1.47v.97h-1.47v-.97h0Zm0,2.36h1.47v.96h-1.47v-.96h0Zm0,2.36h1.47v.96h-1.47v-.96h0Zm0,2.36h1.47v.97h-1.47v-.97h0Zm0,2.36h1.47v.96h-1.47v-.96h0Zm0,2.36h1.47v.96h-1.47v-.96h0Zm0,2.36h1.47v.96h-1.47v-.96h0Zm0,2.36h1.47v.96h-1.47v-.96h0Zm0,2.36h1.47v.96h-1.47v-.96Z" style="fill: #094; fill-rule: evenodd; stroke-width: 0px;"/>
          </g>
          <path d="m89.36,93.65v1.08s1.46-1.18,1.46-1.18c-.49.04-.98.07-1.46.1h0Zm-.02,2.29l4.25-2.71c.25-.04.5-.08.75-.12l-.25,1.8-4.76,2.9v-1.88h.01Zm-.02,2.92v1.87s4.34-2.64,4.34-2.64l.29-2.15-4.63,2.93h0Zm-.02,2.86l4.22-2.6-.29,2.15-3.94,2.36v-1.9h.01Zm-.02,2.8v1.97s3.53-2.09,3.53-2.09l.28-2.09-3.81,2.22h0Zm-.02,2.83l3.42-2.05-.25,1.89-3.18,1.79v-1.63h0Zm-.02,2.94v1.84s2.75-1.72,2.75-1.72l.27-2.02-3.02,1.9h0Zm-.02,2.54l2.65-1.6-.26,1.93-2.4,1.5v-1.83h.01Zm-.02,3.17v1.51s2-1.29,2-1.29l.21-1.54-2.2,1.31h0Zm-.02,2.61v1.41s1.62-.88,1.62-.88l.21-1.55-1.83,1.02h0Zm-.02,2.32v.14c.45.23.88.43,1.29.61l.22-1.65-1.51.9Z" style="fill: #fff; fill-rule: evenodd; stroke-width: 0px;"/>
          <path d="m99.34,96.99l-5.15,26.37.69-.03c.53-4.98,2.84-9.04,6.93-12.27v-14.54l-2.47.48Z" style="fill: #e60012; fill-rule: evenodd; stroke-width: 0px;"/>
          <polygon points="99.96 93.81 99.54 95.94 101.81 95.47 101.81 93.43 99.96 93.81" style="fill: #fff; fill-rule: evenodd; stroke-width: 0px;"/>
          <path d="m100.37,91.69l-.26,1.35,1.7-.41v-1.4c-.48.16-.96.32-1.44.46Z" style="fill: #e60012; fill-rule: evenodd; stroke-width: 0px;"/>
          <path d="m37.97,179.11c.14.19.69.99.83,2.17.16,1.36-1.21,2.91-2.45,2.9-1.24-.02-2.41-.67-2.58-2.21-.16-1.54.27-2.73.27-2.73,0,0-1.55-.03-2.25-.19-.7-.16-1.37-1.65-1.39-2.93-.02-1.28.79-2.23,1.65-2.3.86-.07,1.49.35,1.98.23.49-.12.19-.95.19-1.87-.03-1.04.43-1.47,1.48-2.19v-15.28l.71-.45v15.68s1.4-.14,1.7,1.36c.3,1.5-.12,3.38-.42,3.42v.03s-1.48-1.43-1.48-1.43l-3.85,3.76,3.85,3.76,1.77-1.73h0Zm.18-3.89l1.9,1.86-1.68,1.64c.36.31,1.01.73,1.84.69,1.3-.06,2.09-1.43,2.13-2.48s-.49-2.55-1.98-2.95c0,0-1.23-.28-2.21,1.25Z" style="fill: #ffe100; fill-rule: evenodd; stroke-width: 0px;"/>
          <path d="m39.27,177.08l-3.07,3-3.07-3,3.07-3,3.07,3h0Zm-1,0l-2.07-2.02-2.07,2.02,2.07,2.02,2.07-2.02h0Zm-.92,0l-1.15-1.12-1.15,1.12,1.15,1.12,1.15-1.12Z" style="fill: #e60012; fill-rule: evenodd; stroke-width: 0px;"/>
          <path d="m30.12,164.54l-.09,3.34s3.02-2.48,5.14-7.04v-6.1s-4.97.62-5.05,9.8Z" style="fill: #ffe100; fill-rule: evenodd; stroke-width: 0px;"/>
          <path d="m37.06,158.87l6.11,4.7s.04-5.82-6.11-9.18v4.48Z" style="fill: #ffe100; fill-rule: evenodd; stroke-width: 0px;"/>
          <path d="m35.03,157.12l.13-.14v-1.54l-.13.1c-.55.53-3.62,3.69-3.54,8.53v1.11s.28-4.78,3.54-8.07Z" style="fill: #094; fill-rule: evenodd; stroke-width: 0px;"/>
          <path d="m37.06,155.55v1.38c2.47,1.83,4.7,4.22,4.7,4.22,0,0-.64-2.46-4.7-5.6Z" style="fill: #094; fill-rule: evenodd; stroke-width: 0px;"/>
          <path d="m29.96,146.26c-.04-.14-.12-.26-.27-.26-.04,0-.07,0-.1.02v.68c.12-.16.25-.31.37-.45h0Zm-.37-5.43c.39-.86.99-1.91,1.84-2.64,1.69-1.45,4.48-1.63,7.17-1.29,2.68.33,3.49,1.44,3.6,4.03.11,2.58-1.14,6.35-2.87,9.05,0,0-1.64,2.63-3.15,2.88,0,0-.96-2.44-3.85-.77,0,0,3.18-2.21,4.95-4.65,0,0,.11-.97-.01-1.84-.12-.87-.23-1.3-.1-2.02.12-.72,1.5-2.46,1.5-2.46,0,0-1.56,1.08-2.2,2.73,0,0-.37-.83-1.19-.85,0,0,.43-2.14-1.57-2.34,0,0,.25-2.02-.9-2.4-1.15-.38-2.05,1.1-1.9,1.78.15.68.7,1.12.7,1.12,0,0-1.16.47-2.01,1.68v-1.99h0Zm0,4.59c.12.16.27.22.47.26.14.03.27.03.36.02.08,0,.08-.02.14-.08,1.36-1.32,2.53-1.72,2.53-1.72l-.34-.39c-.75-.92-.72-1.82-.72-1.82-.93.31-1.84,1.16-2.44,1.89v1.84h0Zm5.7,2.32c.36,0,.66-.26.66-.57s-.3-.57-.66-.57-.66.25-.66.57.3.57.66.57h0Zm.15-4.08c-2.14.33-2,.76-2,.76.06.54.95,1,1.43.95.49-.05.87-1.76.87-1.76l-.3.05h0Zm-2.7-1.6c.03.9.67,1.28,1.46,1.22.78-.05.43-1.47.43-1.47-.69-1.16-1.99-.72-1.89.25h0Zm.38-1.98c-.13-.49-.1-1.46-.76-1.38-.46.05-1.03.71-.95,1.36.08.65.68,1.06,1.19.95.51-.11.51-.92.51-.92h0Zm1.96,8.45c-.88-.37-1.76-1.33-1.76-1.33-.31.22-1.49,1.33-1.9,1.86-.41.53-.65,1.1-.55,1.49.1.39.69,1,1.16.94.47-.06,3.39-2.79,3.39-2.79l-.33-.18h0Zm-1.3-2.81l.28.22s-2.05,1.46-3.55,3.39c0,0-.58-.32-.68-1.16-.1-.84.54-2,2.81-3.43,0,0,.38.48,1.14.98h0Zm-.35,6.44c-.25.22-.49.54-.54,1.36-.05.82.89,1.05,1.06.85.17-.2.72-.52,1.17-.79.45-.26.91-.68.18-1.2-.72-.52-1.7-.32-1.7-.32l-.18.11Z" style="fill: #fff; fill-rule: evenodd; stroke-width: 0px;"/>
          <path d="m44.76,160.98c.87-1.36,4.71-7.54,7.04-13.92,2.65-7.21,2.84-13.82,3.08-18.29.24-4.47.23-10.04,2.51-15.98,2.16-5.6,6.73-12.74,16.06-15.42-.46-.13-1.22-.35-2.22-.7-8.12,4.56-8.48,5.76-11.75,9.81-3.39,4.2-5.35,13.66-5.51,18.47-.16,4.81-.77,11.87-1.87,16.86-1.1,4.99-3.73,11.02-5.46,14.09-1.08,1.92-2.05,3.36-2.63,4.17.28.32.53.62.75.9Z" style="fill: #fff; fill-rule: evenodd; stroke-width: 0px;"/>
          <path d="m70.31,96.33c-1.23.72-5.06,3.01-7.42,5.23-2.84,2.68-5.67,6.75-7.23,11.19-1.55,4.44-1.87,8.76-2.3,13.48-.43,4.71-.45,11.29-3.23,20.17-2.19,7-4.9,11.45-6.39,13.34-.27-.31-.56-.63-.87-.97,1.24-1.97,3.32-5.34,4.09-6.94l-3.84-2.11,1.59-4.17,1.22.28-.7,2.25,2.76,1.78,2.36-7.28-4.54-1.88,1.11-5.22.88.15-.69,3.45,3.59.61,1.22-8.48-4.4-.64.47-4.27h.79l-.11,2.83,3.52-.07.29-7.43-4.09-1.04.55-5.2,1.37.08-.48,3.55,3.23.32s1.01-5.04,1.9-6.94l-4.3-2.68,2.22-4.99.95.51-1.09,2.7,3.21,1.79s1.71-4.01,2.7-5.25l-3.21-3.64,3.19-4.08,1.03,1-2.03,1.97,2.81,2.57s2-1.94,4.9-4.3l-2-3.78s1.42-.58,4.18,2.93l1.66-1.3c.41.17.79.32,1.15.46h0Zm-7.57-3.62c-.76-.44-1.55-.91-2.37-1.43-7.64,6.7-10.63,12.4-12.39,16.86-1.8,4.58-2.28,13.55-2.46,17.72-.18,4.16-1.9,18.15-4.63,22.75-1.85,3.12-3.33,4.17-4.09,4.53.47.38.91.75,1.34,1.12.74-.59,1.39-1.28,1.97-2.04l3.17,2.03-1.9,2.98c.23.22.44.45.66.66l3.29-5.51-3.87-2.24c1.08-1.97,1.85-4.2,2.44-6.36l3.66,1.17-.89,2.77.67.24,1.48-4.66-4.37-1.73c.26-1.13.48-2.21.68-3.19.26-1.26.51-2.69.73-4.19l3.47.06-.58,3.93.92.1.88-6.01-4.37-.46c.31-2.41.56-4.84.73-6.87l3.25.35-.09,2.48.84.03.17-5.11-3.97-1.03c.15-2.96.52-6.57.65-7.78l4.03.42-.52,3.63.77.07,1.29-5.17-4.22-2.49,3.06-7.52,3.2,1.83-1.11,2.82,1.11.54,1.71-3.48-3.29-3.56,4.8-6.06,2.9,2.86-2.12,1.97.92.88,3.49-2.91-2.99-5.47,1.96.47h0Zm-22.41,60.75l1.83,1.23-1.5,1.83c-.51-.48-1.06-.99-1.65-1.51l1.32-1.55Z" style="fill: #fff; fill-rule: evenodd; stroke-width: 0px;"/>
          <path d="m59.84,90.93c-2.55,2.14-7.26,6.69-10.25,12.08-3.45,6.24-4.29,12.77-4.4,16.1-.11,3.33-.33,8.74-.79,12.51-.47,3.77-1.55,8.27-1.55,8.27,0,0-.78-2.38-2.33-3.08-1.56-.71-5.44-.5-7.09-.27-1.59.23-3.24,2.05-3.83,3.23v-42.91h0s7.37-7.71,18.06-16.06c4.23,4.41,8.43,7.7,12.19,10.14Z" style="fill: #231815; fill-rule: evenodd; stroke-width: 0px;"/>
          <g>
            <path d="m42.15,135.82l.4.13s.35-1.54-.59-2.94c0,0,.24-.76.24-1.52s-.59-1.9-1.72-2.02c-1.13-.12-2.31,1.71-2.31,1.71,0,0-.35.12-.45-.73-.09-.85-.19-2.82-.19-2.82h-1.72v2.04c0,.45-.99,1.54-1.23,1.56,0,0,.35-1.95-1.86-2.37,0,0-.27-1.66-1.38-1.76-1.1-.1-1.44,1.01-1.4,1.32.04.31.27.31.35.59.08.27.04.29.02.96-.02.67.12,1.93,1.08,3.5.96,1.57,1.74,1.55,2.47,1.55s1.45-.35,2.5-1.02c0,0,.69.95,2.01,1.13,1.32.18,2.45-.13,3.75.69h0Zm-.76-1.75l.2.37s-1.54.11-2.39.06c-.84-.06-1.99-.76-2.53-1.92,0,0-1.54,1.69-2.89,1.58-1.35-.11-2.19-1.69-2.75-4.09,0,0-.28-1.63.23-1.75.5-.11.79.59,1.12,1.02.34.42,1.4.45,1.57,1.44.17.99-.2,1.92.28,1.97.48.06,2.22-1.75,2.08-3.7h.56s-.03,2.99.87,3.19c.9.2,1.49-1.35,2.11-1.44s.98.31.98,1.21.06,1.55.56,2.06h0Zm3.66-23.7v.18s.4,1.13.38,1.99c-.02.86-.47,1.24-.95,1.22-.47-.02-1.42-.91-1.79-1.08-.36-.17-2.47-.1-3.83-1.65-1.36-1.54-1.43-2.59-1.43-2.59,0,0-1.61.16-2.5.09-.88-.07-3.61-1.87-3.64-4.56-.03-2.69.32-3.52.23-4.24-.09-.72-.42-.65-.42-1.33s.53-1.13,1.19-1.26c.66-.13,1.08.07,1.63.77.55.71.53,1.72.53,1.72,0,0,1.68.05,2.13,1.54.45,1.49-1.16,2.43-1.47,2.83-.31.39-.25,1,.61,1.25.86.26,2.79.22,3.65-2.24l1.78,1.24s-.62,1.86-.39,2.95c.22,1.09.81,1.09.81,1.09,0,0,.96-1.61,2.27-1.66,1.31-.05,1.41.93,1.55,1.7.14.78-.14,1.61-.35,2.01h0Zm-1.24-.09l-.23.18s1.27,1.3.8,1.6c-.48.3-2.52-.4-3.94-1.4-1.42-1-1.85-2.6-2.02-3.92,0,0-1.35.97-3.12.72-1.77-.25-3.11-2.07-3.11-5.97,0,0,.05-1.41-.03-1.99-.08-.58-.24-.98.05-1.14.29-.16,1.16-.16,1.37.93.21,1.09.05,1.41.05,1.41,0,0,1.98.29,1.93,1.19-.05.9-.87,1.14-1.88,1.04,0,0-.4,1.8,1.06,2.93,0,0,.73.53,2.1.39,1.37-.13,2.7-1.95,2.7-1.95l.54.55s-.61,1.67-.17,3.07c.45,1.4,1.43,1.71,2.07,1.67.64-.04.81-.66.99-1.34.17-.68.93-.72,1.39-.21.46.51.39,1.34-.58,2.24h0Zm-8.64,11.02l-1.07-1.17-1.07-1.17,1-1.17,1-1.17,1.07,1.17,1.07,1.17-1,1.17-1,1.17h0Zm-.19,3.72l-1.74-2.18h-1.29v-1.61l-1.95-2.44,1.95-2.33v-1.52h1.27l2-2.39,1.91,2.39h1.27v1.59l1.79,2.25-1.79,2.14v1.91h-1.6l-1.83,2.18h0Zm17.03-32.05h3.6v-2.71h-3.31v-1.25c0-.88-.79-1.62-1.48-1.62s-1.8.4-1.91,1.71c-.11,1.3.32,1.89.32,1.89,0,0-.69.72-.71,1.95-.02,1.11.56,2,1.44,2.2.69.15,1.95-.25,2.06-1.03.13-.99,0-1.12,0-1.12h0Zm3.07-2.02l-.05,1.33h-3.73s.16,1.7-.85,1.65c-1-.05-1.32-1.09-.9-1.68.42-.59.71-.72.66-1.09-.05-.37-.21-1.04-.29-1.81-.08-.77.5-.88.87-.77.37.11.79,1.04.69,2.37h3.6Zm-13.33,9.55l1.34,2.43,1.87-2.43h1.64v-1.76l2.39-1.71-2.39-1.71v-2h-1.8l-1.38-2.98-1.47,2.98h-1.92v1.91l-2.18,1.62,2.18,1.66v1.99h1.71Zm-.32-3.32l2.18,2.01,2.06-2.68-2.21-1.92-2.03,2.58Z" style="fill: none; fill-rule: evenodd; stroke: #231b00; stroke-linecap: round; stroke-linejoin: round; stroke-width: .57px;"/>
            <path d="m52.22,92.97v-.69h2.81l.05-1.33h-2.86v-2.42c.05.15.08.31.08.48v1.25h3.31v2.71h-3.39Zm0-4.44v2.42h-.74c.11-1.33-.32-2.26-.69-2.37-.37-.11-.95,0-.87.77.08.77.24,1.44.29,1.81.05.37-.24.51-.66,1.09-.42.58-.11,1.62.9,1.68,1.01.05.85-1.65.85-1.65h.93v.69h-.21s.13.13,0,1.12c-.11.78-1.37,1.18-2.06,1.03-.53-.12-.95-.49-1.2-1v-2.35c.21-.5.47-.78.47-.78,0,0-.42-.58-.32-1.89.11-1.3,1.22-1.71,1.91-1.71.56,0,1.19.49,1.41,1.15h0Zm-3.47,8.67v-.35l.24.17-.24.17Zm-6.6,38.62l.4.13s.35-1.54-.59-2.94c0,0,.24-.76.24-1.52,0-.43-.19-.97-.55-1.39v5.45c.16.07.33.16.5.27h0Zm6.6-44.07v2.35c-.16-.34-.25-.75-.24-1.19.01-.46.12-.86.24-1.16h0Zm0,5.1l-2.15-1.54v-2h-1.8l-1.38-2.98-1.47,2.98h-.3v3.58l1.8-2.3,2.21,1.92-2.06,2.68-1.96-1.8v3.11h.1l1.34,2.43,1.87-2.43h1.64v-1.76l2.15-1.54v-.35h0Zm-7.1,15.63v-1.11c1.18.58,2.38.91,2.73.69.47-.3-.8-1.6-.8-1.6l.23-.18c.97-.89,1.04-1.73.58-2.24-.46-.51-1.22-.47-1.39.21-.17.68-.35,1.3-.99,1.34-.11,0-.23,0-.36-.02v-1.36c.23-.35,1.09-1.53,2.21-1.57,1.31-.05,1.41.93,1.55,1.7.14.78-.14,1.61-.35,2.01v.18s.4,1.13.38,1.99c-.02.86-.47,1.24-.95,1.22-.47-.02-1.42-.91-1.79-1.08-.14-.06-.54-.09-1.06-.2Zm0,17.61c-.29-.33-.68-.58-1.17-.63-1.13-.12-2.31,1.71-2.31,1.71,0,0-.35.12-.45-.73-.09-.85-.19-2.82-.19-2.82h-1.25v2.2c.04-.25.06-.52.04-.78h.56s-.03,2.99.87,3.19c.9.2,1.49-1.35,2.11-1.44s.98.31.98,1.21.06,1.55.56,2.06l.2.37s-1.54.11-2.39.06c-.84-.06-1.99-.76-2.53-1.92,0,0-.15.17-.4.39v1.1l.11-.07s.69.95,2.01,1.13c1.15.16,2.15-.06,3.25.42v-5.45h0Zm0-36.79v3.58l-.23.29.23.21v3.11h-1.62v-1.99l-2.18-1.66,2.18-1.62v-1.91h1.62Zm0,14.91v1.36c-.6-.09-1.34-.5-1.71-1.66-.44-1.4.17-3.07.17-3.07l-.54-.55s-1.33,1.82-2.7,1.95c-.21.02-.41.02-.59.02v-.91c.96.07,2.4-.31,3.12-2.34l1.78,1.24s-.62,1.86-.39,2.95c.22,1.09.81,1.09.81,1.09,0,0,.02-.04.06-.09h0Zm0,3.15c-.42-.21-.84-.45-1.21-.71-1.42-1-1.85-2.6-2.02-3.92,0,0-.88.63-2.15.75v1.04c.63-.03,1.17-.09,1.17-.09,0,0,.07,1.05,1.43,2.59.84.95,1.95,1.29,2.77,1.45v-1.11h0Zm-5.38,12.1v-3.47l.89-1.04-.89-.97v-4.12l.86,1.08h1.27v1.59l1.79,2.25-1.79,2.14v1.91h-1.6l-.53.63h0Zm0-20.61v-2.32c.14.18.25.39.33.65.2.67,0,1.22-.33,1.67Zm0,24.76h-.47v2.04c0,.45-.99,1.54-1.23,1.56,0,0,.35-1.95-1.86-2.37,0,0-.27-1.66-1.38-1.76-1.1-.1-1.44,1.01-1.4,1.32.04.31.27.31.35.59.08.27.04.29.02.96-.02.67.12,1.93,1.08,3.5.96,1.57,1.74,1.55,2.47,1.55s1.4-.33,2.39-.95v-1.1c-.55.49-1.56,1.26-2.49,1.19-1.35-.11-2.19-1.69-2.75-4.09,0,0-.28-1.63.23-1.75.5-.11.79.59,1.12,1.02.34.42,1.4.45,1.57,1.44.17.99-.2,1.92.28,1.97.41.05,1.77-1.29,2.04-2.92v-2.2h0Zm0-27.08v2.32c-.4.55-.97.94-1.14,1.16-.31.39-.25,1,.61,1.25.15.04.33.08.54.1v.91c-.99-.04-1.51-.41-1.51-.41-1.46-1.13-1.06-2.93-1.06-2.93,1,.11,1.82-.13,1.88-1.04.05-.9-1.93-1.19-1.93-1.19,0,0,.16-.32-.05-1.41-.21-1.09-1.08-1.09-1.37-.93-.29.16-.13.56-.05,1.14.08.59.03,1.99.03,1.99,0,3.9,1.34,5.72,3.11,5.97.34.05.67.05.97.02v1.04c-.45.02-.95.04-1.32,0-.88-.07-3.61-1.87-3.64-4.56-.03-2.69.32-3.52.23-4.24-.09-.72-.42-.65-.42-1.33s.53-1.13,1.19-1.26c.66-.13,1.08.07,1.63.77.55.71.53,1.72.53,1.72,0,0,1.15.04,1.8.89h0Zm0,13.33v4.12l-.18-.2-1.07-1.17-1,1.17-1,1.17,1.07,1.17,1.07,1.17,1-1.17.11-.12v3.47l-1.3,1.55-1.74-2.18h-1.29v-1.61l-1.95-2.44,1.95-2.33v-1.52h1.27l2-2.39,1.05,1.32Z" style="fill: #ffe100; fill-rule: evenodd; stroke-width: 0px;"/>
          </g>
          <g>
            <path d="m35.15,120.68l-.79-.86-.79-.86.73-.86.73-.86.79.86.79.86-.73.86-.73.86h0Zm6.85-23.58l1.59,1.46,1.5-1.95-1.61-1.4-1.48,1.88Z" style="fill: none; fill-rule: evenodd; stroke: #1e0000; stroke-linecap: round; stroke-linejoin: round; stroke-width: .57px;"/>
            <path d="m35.15,120.68l-.79-.86-.79-.86.73-.86.73-.86.79.86.79.86-.73.86-.73.86h0Zm6.85-23.58l1.59,1.46,1.5-1.95-1.61-1.4-1.48,1.88Z" style="fill: #e60012; fill-rule: evenodd; stroke-width: 0px;"/>
          </g>
          <path d="m73.27,92.96l-.68-2.35c-9.89-3.61-17.39-9.85-20.75-12.99-.53.39-1.06.78-1.58,1.17,8.39,8.58,19.87,13.05,23.01,14.16Z" style="fill: #e60012; fill-rule: evenodd; stroke-width: 0px;"/>
          <path d="m74.45,97.08c-2.57-.79-15.9-5.3-26.37-16.62.54-.42,1.09-.84,1.65-1.26,1.64,1.56,4.36,3.93,8.19,6.62,6.4,4.48,11.93,6.67,15.55,7.89l.97,3.38Z" style="fill: #fff; fill-rule: evenodd; stroke-width: 0px;"/>
          <path d="m55.8,129.99c.51.76,1.63,2.81,2.19,4.17.65,1.59-.44,3.45-2.41-.25.03-.42.06-.84.08-1.27.04-.9.09-1.78.14-2.66h0Zm1.1.14c.2.54.54,1.35,1.41,2.7.87,1.36,1.55,1.54,2.22,1.09.67-.45.08-1.41.08-1.41-.84-1.41-2.74-3.4-2.74-3.4l-.18,1.14-.98-.42.19.31h0Zm1.48-1.48c1.23,1.22,2.04,2.82,3.85,2.82.68,0,1.22-.6.27-1.75-.95-1.16-2.87-2.53-2.87-2.53l-.17,1.2-1.08.26h0Zm2.4-2.63l-.32-.77s.59.02,2.54,1.1c2.76,1.54,1.67,3.59.01,2.57-1.25-.77-3.07-2.55-3.07-2.55l.83-.35h0Zm.53-2.36l-.85.75s2,.85,3.26,1.11c1.26.26,1.78-.32,1.85-.96.07-.64-.29-1.72-4.87-1.72l.6.81h0Zm.06-2.41l-.74.87s2.15.13,3.29.05c1.14-.09,1.72-.13,1.82-1.1s-.63-1.27-2.26-1.15c-1.63.13-2.94.51-2.94.51l.83.82h0Zm-.64-2.81l-.4,1.26s2.13-.29,3.3-.8c1.17-.51,1.5-1.01,1.5-1.43s-.26-1.38-1.46-1.38-4.26,2.04-4.26,2.04l1.31.32h0Zm-1.5-1.2l.13-1.38-1.3-.1s1.34-1.12,2.32-1.87c.98-.75,1.97-1.12,2.68-.72.72.39.67,1.54-.5,2.3-.98.63-2.16,1.5-3.32,1.77h0Zm-1.48-2.04c.47-.28,1.57-1.27,2.8-2.35,1.53-1.34,1-2.5.12-2.43-.48.04-.99.32-1.46.74-.58,1.29-1.06,2.64-1.46,4.04Z" style="fill: #fff; fill-rule: evenodd; stroke-width: 0px;"/>
          <path d="m57.47,116.3c1.51,1.07,2.56,3.51,2.56,6.33,0,3.77-1.88,6.85-4.2,6.91.03-.58.07-1.16.1-1.73,1.42-.97,2.41-3,2.41-5.35,0-1.66-.5-3.17-1.29-4.25.13-.65.27-1.29.42-1.91Z" style="fill: #fff; fill-rule: evenodd; stroke-width: 0px;"/>
          <path d="m56.88,119.12c.7.87,1.02,2.09,1.02,3.35,0,1.72-.68,3.17-1.88,4.04.19-2.58.45-5.05.86-7.39Z" style="fill: #e60012; fill-rule: evenodd; stroke-width: 0px;"/>
          <path d="m81.75,130.89c-1.24-.86-2.4-1.72-3.4-2.47-3.26-2.44-5.97-3.37-9.61-3.69.1-1.33.09-2.72-.06-4.17-.33-3.3-1.19-5.97-2.24-8.08,1.62-.07,7.38-.09,12.16,2.88,1.27.79,2.29,1.47,3.15,2.06,1.24.86,2.4,1.72,3.4,2.47,3.26,2.44,5.97,3.37,9.61,3.69-.1,1.33-.09,2.72.06,4.17.33,3.3,1.19,5.97,2.24,8.08-1.62.07-7.38.09-12.16-2.88-1.27-.79-2.29-1.47-3.15-2.07Z" style="fill: #fff; fill-rule: evenodd; stroke-width: 0px;"/>
          <g>
            <path d="m67.09,113.92c1.58-.06,5.52-.07,8.15,1.03,3.36,1.41,4.93,3.4,7.23,5,2.17,1.5,6.83,5.73,12.22,5.73,0,.68.05,1.37.12,2.08.27,2.76.92,5.07,1.74,6.99-1.41-.06-3.58-.24-5.78-.81-3.71-.96-6.2-2.81-11.12-6.46-4.5-3.33-7.66-4.36-10.85-4.17.01-.89-.03-1.81-.12-2.76-.26-2.59-.84-4.79-1.59-6.64Z" style="fill: #231815; fill-rule: evenodd;"/>
            <g style="clip-path: url(#clippath);">
              <g>
                <path d="m95.21,130.41c.12.6.26,1.17.42,1.72h-.34v1.5s-2.8-1.71-3.7-2.5l-.3,1.17-2.84-2.53-.67.83-3.27-2.8-.3,1.17-3.13-3.3-.47,1.14-3.21-3.69-.24,1.2-3.23-2.89-.48,1.01-3.47-2.46-1.23,1.42c-.02-.28-.04-.55-.07-.83-.09-.91-.22-1.77-.39-2.59l1.92-.64s2.22,1.91,3.16,1.84v-1.15l3.13,2.71.76-.94,2.88,2.95s.17-1.36.9-1.49l2.79,3.6,1-.8,2.27,3.14.93-1.4,2.7,2.93.83-1.1,3.62,2.79Z" style="fill: none; fill-rule: evenodd; stroke: #231b00; stroke-linecap: round; stroke-linejoin: round; stroke-width: .57px;"/>
                <path d="m95.21,130.41c.12.6.26,1.17.42,1.72h-.34v1.5s-2.8-1.71-3.7-2.5l-.3,1.17-2.84-2.53-.67.83-3.27-2.8-.3,1.17-3.13-3.3-.47,1.14-3.21-3.69-.24,1.2-3.23-2.89-.48,1.01-3.47-2.46-1.23,1.42c-.02-.28-.04-.55-.07-.83-.09-.91-.22-1.77-.39-2.59l1.92-.64s2.22,1.91,3.16,1.84v-1.15l3.13,2.71.76-.94,2.88,2.95s.17-1.36.9-1.49l2.79,3.6,1-.8,2.27,3.14.93-1.4,2.7,2.93.83-1.1,3.62,2.79Z" style="fill: #ffe100; fill-rule: evenodd; stroke-width: 0px;"/>
              </g>
            </g>
          </g>
        </g>
        <g>
          <path d="m58.32,176.07c-.05-.26-.11-.53-.18-.79-.05-.21-.11-.42-.18-.63,2.99-1.53,10.34-4.54,21.42-4,11.22.54,19.06,7.18,20.57,8.56-.13.07-.25.14-.38.21-.29.17-.59.33-.88.5-.25-.22-.5-.44-.76-.66-2.21-1.86-4.89-3.41-7.84-4.59-3.77-1.52-7.99-2.44-12.24-2.66-3.83-.19-7.84.29-11.61,1.23-2.29.57-4.5,1.32-6.53,2.19-.47.2-.94.42-1.4.63h0Zm-10.53-9.49c16.83-11.62,33.33-8.8,33.33-8.8,16.74,2.51,27.43,12.94,29.21,14.8.39-.28.79-.56,1.17-.84-5.72-5.68-18.28-15.59-34.98-15.94-17.28-.44-30.48,10.32-30.48,10.32l.08.13c.58.1,1.14.21,1.66.33Z" style="fill: #ffe100; fill-rule: evenodd; stroke-width: 0px;"/>
          <path d="m65.2,206.17c.46-1.23,1.41-4.11,1.44-7.23.04-3.98-1.2-9.1-9-10.12.33.75.66,1.5.99,2.26,1.5.14,3.94.79,5.5,3.29,0,0,2.72,4.24.26,9.93.27.63.55,1.25.81,1.87h0Zm-2.78-6.38c-.75-1.73-1.52-3.49-2.29-5.26,1.89.7,2.71,2.36,2.71,3.57,0,.6-.19,1.2-.42,1.69h0Zm1.67,3.84c-.42-.96-.84-1.93-1.27-2.91.47-.8.8-2.01.3-3.69-.61-2.03-2.18-2.93-3.35-3.33-.27-.62-.54-1.24-.81-1.85,5.35.6,5.87,5.49,5.84,7.67-.02,1.49-.43,3.14-.7,4.11Z" style="fill: #fff; fill-rule: evenodd; stroke-width: 0px;"/>
          <path d="m56.62,186.51c.45-1.26,1.2-3.79,1.4-6.77.27-4.15-1.18-10.44-9.74-12.26.21.47.44,1,.69,1.57,1.85.46,4.76,1.63,6.48,4.62,2.22,3.84,1.44,8.84.32,10.91.28.64.56,1.29.85,1.94h0Zm-1.09-2.5c-.35-.8-.69-1.58-1.03-2.36.62-1.81.34-4.59.34-4.59-.75-3.03-2.87-4.35-4.51-4.92-.37-.84-.71-1.62-1.03-2.34,1.58.43,3.96,1.54,5.37,3.75,1.9,2.96,1.62,6.19,1.23,8.42-.17.98-.29,1.63-.37,2.04h0Zm-1.52-3.47c-1.21-2.77-2.33-5.33-3.31-7.56,2.47.66,3.69,3.65,3.63,5.47-.02.82-.16,1.54-.32,2.09Z" style="fill: #fff; fill-rule: evenodd; stroke-width: 0px;"/>
          <path d="m58.6,178.6c-.02-.65-.08-1.31-.18-1.96,2.4-1.16,5.12-2.14,7.96-2.86,3.72-.93,7.67-1.4,11.45-1.21,4.19.21,8.34,1.12,12.05,2.61,3.17,1.28,6.01,2.98,8.29,5.02-.66.36-1.33.71-1.99,1.06-4.64-4.4-10.89-6.71-17.44-7.16-6.89-.47-14.11,1.11-20.14,4.49Z" style="fill: #ffe100; fill-rule: evenodd; stroke-width: 0px;"/>
          <path d="m92.25,183.18c-1.34-.96-7.43-4.96-15.84-4.96s-15.62,3.71-18.23,5.31c.26-1.25.44-2.65.44-4.14,0-.05,0-.1,0-.15,5.99-3.43,13.21-5.04,20.09-4.57,6.36.44,12.43,2.65,16.95,6.87-1.13.58-2.27,1.12-3.41,1.65Z" style="fill: #ffe100; fill-rule: evenodd; stroke-width: 0px;"/>
          <path d="m91.6,183.47c-1.48-1.08-6.83-4.56-14.14-4.56s-12.86,1.79-19.43,5.29c-.4,1.68-.93,3.05-1.32,3.93,3.26.21,5.53,1.09,7.12,2.33.2-.35,3.13-5.43,8.17-8.26,5.22-2.93,7.81-2.42,7.81-2.42,2.35.49,4.13,3.01,5.48,6.14,2.11-.7,4.22-1.53,6.32-2.46Z" style="fill: #fff; fill-rule: evenodd; stroke-width: 0px;"/>
          <path d="m82.36,208.18l-.45-.1s1.08,1.46,2.88,1.69c1.8.23,2.93-.1,3.41-.53.47-.43-.07-.98-.35-.98s-1.3.71-2.28.71-2.35-.53-3.2-.78h0Zm6.78,13.66h-1.07c.26-.3.62-.66,1.11-1.06-.01.45-.03.81-.04,1.06h0Zm-1.95,0c.35-.49.97-1.18,2.01-1.96,0-.45.01-.95.01-1.52-1.38.78-2.75,2.36-3.61,3.48h1.59Zm-2.46,0c.91-1.24,2.69-3.4,4.48-4.27,0-.43,0-.9-.02-1.39-2.64,1.08-4.71,3.87-5.83,5.66h1.36Zm-2.17,0c1.12-1.88,3.5-5.25,6.62-6.4-.01-.55-.03-1.14-.05-1.77-4.32,2.48-6.53,6.17-7.47,8.17h.9Zm-1.66,0h-.42c-1.61-2.79-5.86-8.86-13.21-10.94-.49-1.13-1.01-2.32-1.54-3.54.68-2.13,1.47-5.07,1.57-7.49.11-2.7-.19-6.48-3-9.02,7.16-10.9,15.01-10.47,15.01-10.47,4.4.6,7.88,8.87,9.09,22.19.02.19.03.37.05.56-.42.44-.77.32-1.34.08-.61-.26-1.77-.49-2.58-.49s-1.25.39-1.69.64c-.44.26-.7.02-.7.02-.07-.35,1.54-2.07,1.73-2.47.18-.41.17-.92-.24-.92s-1.62,2.13-1.87,2.13.24-2.79.54-3.96c.3-1.18.56-2.35.48-2.93-.08-.58-.53-1.03-1.28-1.67-.75-.65-1.12-1.15-1.57-1.11-.45.03-.53.46-.25.88.29.41.29.86-.14.91-.43.05-.71-.07-1.27-.36-.55-.29-1.26-.82-2.23-.41-.96.41-1.14,1.76-.97,2.62.17.86,1.04,1.66,1.44,1.59.4-.06.38-.82.1-1.01-.27-.19-.67-.55-.65-1.2.02-.65.69-.88,1.57-.59.88.29.9.67,1.74.67s1.05-.69,1.67-.69,1.34.82,1.13,2.29c-.21,1.47-.93,3.51-.93,3.51-1.23,3.64-.83,5.85-.83,5.85.3,3.96,2.98,5.58,5.33,5.44,1.66-.1,2.81-.82,3.34-1.23.04.76.07,1.49.1,2.17-4.91,2.69-7.29,6.9-8.2,8.95h0Zm-1.22,0c-1.65-2.75-5.54-8.03-12.04-10.1.31.71.61,1.4.9,2.07,4.84,1.16,7.85,5.7,9.1,8.03h2.03Zm-2.83,0c-1.24-2.21-3.87-5.99-7.95-7.21.25.57.49,1.12.72,1.65,2.89,1.08,4.92,3.78,5.99,5.56h1.24Zm-2.06,0c-.97-1.53-2.58-3.57-4.76-4.63.31.72.6,1.39.87,2,1.07.82,2.03,1.82,2.73,2.62h1.16Zm-2.1,0c-.35-.38-.74-.79-1.17-1.19.19.44.36.84.52,1.19h.65Zm6.81-35.01c-.5-.15-1.35-.18-1.77-.18s-1.02.42-1.07.67c-.05.25.11.53.53.48.42-.05.57-.33,1.33-.37.76-.05,1.15.19,1.47.19s.48-.22.31-.42c-.17-.2-.54-.3-.54-.3l-.26-.06h0Zm1.34-2.84c-.73.73-1.27.98-2.39.96-.84-.01-1.45-.67-1.72-.83-.28-.16-.74-.44-.77.12-.03.55.12.77.59,1.13.48.37,1.87.64,2.94.58,1.07-.06,1.91-.72,1.91-.96s-.56-1-.56-1h0Zm5.57,21.42s.08-.49-.1-1.11c-.18-.62-.52-.85-1.31-.85s-1.4.62-1.42,1.18c-.02.56.04.74.04.74,0,0,.48-1.15,1.05-1.3,1.06-.28,1.46.81,1.75,1.34h0Zm-3.33-.91c-.2-.11-.82-.03-.81.22.01.18.22.65.32.47.1-.18.49-.69.49-.69h0Zm4.05.55c.37.14.71.11.73-.45.01-.45-.27-.42-.55-.42s-.47.62-.18.87h0Zm-4.38-16.65c-.21.01-.4.06-.85.36-.45.3-.7.51-1.11.45-.42-.06-.59-.58-1.07-.58s-1.08-.1-1.83.21c-.74.31-.87.37-1.3.37s-.74-.17-1.08-.4c-.34-.23-.55-.32-.8-.29-.24.03-.38.41-.2.72.17.32.54.79.58,1.23s.3.78.33.63c.02-.15.58-.43,1.01-.37.43.06.85.53,1.33.53s.48-.5.92-.58c.44-.09.93.15,1.14.42.2.28.69.29.95-.02.26-.3.69-.46.88-.3.19.16.57.6.74.6s.38-.13.38-.51-.01-2.3-.01-2.3l.02-.15h0Zm4.94,18.6s-.81,1.33-2.36,1.28c-1.55-.05-3-.45-3.93-1.79,0,0,1.27.67,3.04.86,1.51.16,2.17.09,3.25-.35h0Zm-12.65,3.06c-1.31.3-2.84,0-4.03-.6-1.76-.88-3.21-1.77-3.57-1.77s.14,1.16,1.02,1.84c.88.67,2.93,2.26,5.54,2.43,2.61.18,3.85-.67,4.38-1.59.53-.92-.14-1.55-.85-1.24-.71.32-1.45.64-2.51.92h0Zm2.93-3.18c-.14-.25-.95-.6-.95-1.31s.46-1.34.6-1.69c.14-.35-.14-.81-1.06-1.31-.92-.49-3.78-2.51-3.92-2.19-.14.32,2.68,2.54,2.68,2.54,0,0-1.27-.28-3.11-.21-1.84.07-2.3.71-2.51,1.06-.21.35-.39.39-.99.39s-1.38-.21-1.41.14c-.04.35.5.85,1.48,1.48.99.63,2.75,1.91,4.62,1.91s2.83-.92,2.75-.64c-.07.28-.78,1.06-2.01,1.13-1.24.07-2.43-.11-4.06-.81-1.62-.71-2.26-1.66-2.44-1.24-.18.42.42.88,1.24,1.27.81.39,2.93,1.63,4.98,1.63s2.82-1.66,2.82-1.66l1.38-.17-.11-.32h0Zm-2.28-2.42c0-.16,0-.26-.26-.26s-.42-.06-.39.23c.03.29.55.2.55.2l.1-.16h0Zm-3.28.16c.16-.29.42-.42.98-.42s.75.33.97.72c.23.39.39.13.39.13.1-1.24-.94-1.59-1.69-1.56-.75.03-1.4.65-1.5,1.14-.1.49-.07.65.23.65s.42-.36.42-.36l.19-.29h0Zm-1.66.26c.33-.13-.1-.71-.1-.71,0,0-.42,0-.42.32s.23.36.23.36l.29.03Z" style="fill: #fff; fill-rule: evenodd; stroke-width: 0px;"/>
          <path d="m72.01,221.84c-4.12-9.48-23.48-53.97-25.02-57.22l-7.04,2.58,27.2,54.64h4.86Z" style="fill: #231815; fill-rule: evenodd; stroke-width: 0px;"/>
          <path d="m65.16,221.84l-17.36-33.83c.89-.25,1.63-.48,2.18-.66l17.17,34.49h-2Z" style="fill: #e60012; fill-rule: evenodd; stroke-width: 0px;"/>
          <path d="m64.33,221.84c-5.67-11.23-11.48-22.42-17.03-33.69-2.15.58-4.97,1.22-7.74,1.46,1.04,2.75,2.67,7.9,2.9,13.55.31,7.67.41,12.83-.52,18.67h22.39Z" style="fill: #ffe100; fill-rule: evenodd; stroke-width: 0px;"/>
          <path d="m61.59,216.44c-.18-.35-.35-.7-.53-1.04-.45-.67-1.06-1.24-1.71-1.45-1.34-.43-2.66.19-3.1,1.42-.43,1.23-.23,2.02-.23,2.02,0,0,.62-1.95,2.1-2.22,1.48-.27,2.4,1.21,2.35,2.57-.05,1.36-1.08,1.83-1.36,1.83s0-1.61-.68-1.59c-.68.02-.85.92-1.16,1.38-.29.41-1.12,1.1-1.11,2.47h.82c.09-.46.29-1.14.66-1.35.51-.29,1.08.37,1.33,1.35h.7c.3-.48.86-1.23,1.52-1.27.72-.04,1.25.64,1.62,1.27h1.13c-.6-.63-1.93-1.9-2.91-1.96,0,0,.61-1,.74-2.25.04-.35-.03-.77-.19-1.19h0Zm-6.3-12.36c.02.12.04.23.04.35,0,1.28-.46,3.02-.46,3.02,2.82.61,3.79,2.99,3.55,4.66-.24,1.68-1.76,2.16-3.09,2.16s-1.79-1.1-1.79-1.1h.56c1.98.05,2.84-.51,2.96-1.77.13-1.26-.57-2.42-1.2-2.87-.63-.44-1.36-.3-1.93.05-.57.35-.52.94-.35.96.17.02.9.51.92.91.02.4-.35.7-.79.7s-1.14-.76-1.14-.76c-.37.41-.87.69-1.49.62-.62-.06-1.42-.88-1.24-2.1.18-1.22,1.37-1.77,1.4-1.98.03-.21.55-1.28.91-1.28s.43,1.59.43,1.59c.7,0,1.55-.52,1.61-1.71.06-1.19-.36-2.68-2.12-2.62-1.76.06-2.34,2.13-2.34,2.13,0-3.57,2.09-3.69,3.12-3.38.61.18,1.36.66,1.88,1.29.19.38.38.75.57,1.13h0Zm-3.63,6.14c.53,0,.96-.43.96-.96s-.43-.96-.96-.96-.96.43-.96.96.43.96.96.96h0Zm-4.05-9.07h-.56s.45,1.1,1.79,1.1,2.85-.49,3.09-2.16c.24-1.68-.73-4.05-3.55-4.66,0,0,.45-1.74.45-3.02s-1.45-2.47-2.49-2.77c-1.03-.3-3.12-.18-3.12,3.38,0,0,.58-2.07,2.34-2.13,1.76-.06,2.18,1.43,2.12,2.62-.06,1.19-.91,1.71-1.61,1.71,0,0-.06-1.58-.43-1.58s-.88,1.07-.91,1.28c-.03.21-1.21.76-1.39,1.98-.18,1.22.62,2.04,1.24,2.1.62.06,1.12-.21,1.49-.62,0,0,.7.76,1.14.76s.81-.3.79-.7c-.02-.4-.74-.89-.92-.91-.17-.01-.22-.6.35-.96.57-.35,1.3-.49,1.93-.05.63.45,1.33,1.61,1.2,2.87-.13,1.26-.98,1.81-2.96,1.77h0Zm-2.44-2.95c-.53,0-.97-.43-.97-.96s.43-.96.97-.96.96.43.96.96-.43.96-.96.96Z" style="fill: #094; fill-rule: evenodd; stroke-width: 0px;"/>
          <path d="m89.62,208.83c2.36-2.04,11.88-11.38,13.97-30.62-4.47,2.66-7.74,4.21-7.74,4.21,0,8.81-7.19,16.64-7.19,16.64.51,2.97.8,6.43.96,9.77Z" style="fill: #231815; fill-rule: evenodd; stroke-width: 0px;"/>
          <path d="m88.52,198.3c1.83-2.41,6.36-8.99,6.71-15.5-.44.21-.9.42-1.37.63-.03,2.57-.79,7.79-5.65,12.97.13.7.23,1.34.32,1.9h0Zm-.42-2.43c-.12-.67-.27-1.38-.43-2.13,3.89-4,4.27-7.69,4.18-9.44.51-.21,1.01-.43,1.5-.65.21,5.01-3.95,10.6-5.25,12.21h0Zm-1.18-5.17c-.14-.5-.29-1.01-.44-1.51.84-1.23,1.15-2.4,1.24-3.27.47-.17.94-.34,1.4-.52-.25,2.78-1.59,4.61-2.19,5.3h0Zm.66,2.62c-.17-.73-.35-1.49-.56-2.25,1.94-1.92,2.48-4.25,2.59-5.85.56-.22,1.11-.44,1.65-.66.2,3.98-2.64,7.58-3.68,8.77h0Zm-1.3-4.74c.27-.47.69-1.33.83-2.44-.5.17-1.01.35-1.53.51.25.63.48,1.28.7,1.93Z" style="fill: #fff; fill-rule: evenodd; stroke-width: 0px;"/>
          <path d="m58.41,182.21l1.06-.53c.25-.13.49-.25.74-.38l-.63-1.48-.99.55c-.03.63-.1,1.24-.18,1.83h0Zm2.45-1.23c.53-.25,1.06-.49,1.6-.72l-.67-1.55c-.5.23-1,.48-1.5.73l.57,1.54h0Zm2.19-.97l-.59-1.6c.5-.22,1.01-.42,1.52-.61l.66,1.61c-.54.19-1.07.39-1.59.61h0Zm2.19-.82c.51-.17,1.03-.34,1.56-.49l-.58-1.65c-.51.15-1.01.31-1.51.49l.54,1.66h0Zm2.18-.67c.49-.14.99-.26,1.49-.38l-.13-1.76c-.59.13-1.18.27-1.77.43l.41,1.71h0Zm2.4-.57c.57-.12,1.14-.22,1.71-.3l-.17-1.72c-.57.08-1.14.17-1.7.28l.17,1.74h0Zm2.51-.42c.55-.07,1.11-.13,1.66-.17v-1.7c-.59.04-1.17.09-1.75.16l.08,1.72h0Zm2.55-.23c.58-.03,1.16-.04,1.75-.04l.06-1.68c-.59,0-1.18,0-1.76.03l-.04,1.7h0Zm2.72-.03c.39.01.79.04,1.18.06.16.02.33.04.49.05l.06-1.69s-.09,0-.13-.01c-.53-.04-1.07-.07-1.61-.09v1.68h0Zm2.67.25c.56.08,1.12.18,1.68.29l.11-1.75c-.18-.04-.37-.07-.56-.1-.39-.06-.79-.11-1.18-.16l-.05,1.72h0Zm2.32.42c.53.12,1.05.25,1.57.39l.43-1.7c-.57-.16-1.15-.29-1.73-.42l-.28,1.72h0Zm2.5.66c.52.16,1.04.34,1.55.53l.53-1.67c-.49-.19-.99-.36-1.5-.52l-.58,1.66h0Zm2.25.8c.51.21,1.01.42,1.51.66l.73-1.56c-.53-.26-1.06-.5-1.61-.73l-.62,1.63h0Zm2.39,1.09c.46.23.9.48,1.34.74l.89-1.36c-.46-.3-.92-.58-1.4-.84l-.84,1.47h0Zm2.25,1.3c.12.08.24.16.36.24,0,0,.5.35.91.65.5-.24,1-.48,1.5-.72l-.85-.68c-.26-.21-.52-.42-.79-.61l-1.14,1.12Z" style="fill: #094; fill-rule: evenodd; stroke-width: 0px;"/>
          <path d="m57.97,174.65c-.91-2.88-2.97-5.55-7.31-7.21-.86-.33-1.81-.62-2.86-.86,16.83-11.62,33.33-8.8,33.33-8.8,16.74,2.51,27.43,12.94,29.21,14.8-.12.08-.24.17-.36.25-3.18,2.23-6.55,4.41-10.02,6.39-1.51-1.38-9.35-8.02-20.57-8.56-11.08-.54-18.43,2.47-21.42,4Z" style="fill: #231815; fill-rule: evenodd; stroke-width: 0px;"/>
          <path d="m104.7,176.35l-1.85-1.61,3.07-4.64,3.78,2.92c-.58.4-1.15.8-1.74,1.2-.11-.82-.81-1.45-1.66-1.45-.92,0-1.67.75-1.67,1.67,0,.61.33,1.14.82,1.44-.25.16-.49.32-.74.47h0Zm2.7-1.76s0-.1,0-.15c0-.62-.5-1.12-1.12-1.12s-1.12.5-1.12,1.12c0,.51.35.95.82,1.08.47-.31.94-.62,1.41-.93h0Zm-10.81.97l3.76,2.79,2.38-4.5-4.38-2.36-1.76,4.07h0Zm2.75,1.22c-.82,0-1.49-.67-1.49-1.49s.67-1.49,1.49-1.49,1.49.67,1.49,1.49-.67,1.49-1.49,1.49h0Zm0-.49c-.54,0-.99-.45-.99-.99s.44-.99.99-.99.99.45.99.99-.44.99-.99.99h0Zm-5.1-7.6l4.14,2.77,2.99-4.74-4.76-2.77-2.37,4.74h0Zm3.28.88c-.88,0-1.59-.72-1.59-1.59s.71-1.59,1.59-1.59,1.59.72,1.59,1.59-.72,1.59-1.59,1.59h0Zm0-.49c-.61,0-1.11-.5-1.11-1.11s.5-1.11,1.11-1.11,1.11.5,1.11,1.11-.5,1.11-1.11,1.11h0Zm-9.26,2.12l1.26-4.79,4.73,1.85-1.79,4.72-4.2-1.78h0Zm2.75.29c.8,0,1.45-.65,1.45-1.45s-.65-1.45-1.45-1.45-1.45.65-1.45,1.45.65,1.45,1.45,1.45h0Zm0-.53c.51,0,.92-.41.92-.92s-.41-.92-.92-.92-.93.42-.93.92.41.92.93.92h0Zm-5.34-11.21l-1.04,5.22,4.75,1.61,1.57-5.09-5.29-1.74h0Zm2,5.37c-.91,0-1.65-.74-1.65-1.65s.74-1.65,1.65-1.65,1.65.74,1.65,1.65-.74,1.65-1.65,1.65h0Zm0-.54c-.61,0-1.12-.5-1.12-1.12s.5-1.12,1.12-1.12,1.12.5,1.12,1.12-.5,1.12-1.12,1.12h0Zm-8.35,4.46l4.49.74.55-4.99-4.96-.65-.07,4.89h0Zm2.43-.24c-.84,0-1.53-.69-1.53-1.53s.69-1.53,1.53-1.53,1.53.69,1.53,1.53-.69,1.53-1.53,1.53h0Zm0-.57c-.53,0-.96-.43-.96-.95s.43-.96.96-.96.95.43.95.96-.43.95-.95.95h0Zm-7.19-4.4l5.09.3.04-5.48-5.37-.16.24,5.34h0Zm2.69-.48c-.92,0-1.66-.77-1.66-1.71s.74-1.71,1.66-1.71,1.66.77,1.66,1.71-.74,1.71-1.66,1.71h0Zm0-.59c-.6,0-1.09-.5-1.09-1.12s.49-1.12,1.09-1.12,1.09.5,1.09,1.12-.49,1.12-1.09,1.12h0Zm-7.34,6.36l-.6-5.09h4.99l.33,5.01-4.71.08h0Zm2.26-.81c.8,0,1.45-.65,1.45-1.45s-.65-1.45-1.45-1.45-1.45.65-1.45,1.45.65,1.45,1.45,1.45h0Zm0-.5c.52,0,.94-.42.94-.94s-.42-.94-.94-.94-.94.42-.94.94.42.94.94.94h0Zm-7.77-2.94l4.92-.56-.46-5.28-5.39,1.18.92,4.66h0Zm2.16-.92c-.89,0-1.61-.72-1.61-1.61s.72-1.61,1.61-1.61,1.61.72,1.61,1.61-.72,1.61-1.61,1.61h0Zm0-.53c-.6,0-1.08-.48-1.08-1.08s.49-1.08,1.08-1.08,1.08.48,1.08,1.08-.49,1.08-1.08,1.08h0Zm-2.46,2.01l1.61,5.01-4.46.96-1.9-4.56,4.75-1.41h0Zm-1.43,4.77c.79,0,1.43-.64,1.43-1.43s-.64-1.42-1.43-1.42-1.42.64-1.42,1.42.64,1.43,1.42,1.43h0Zm0-.47c.53,0,.95-.43.95-.95s-.43-.95-.95-.95-.95.43-.95.95.43.95.95.95h0Zm-7.71-1.14l4.28-1.49-1.5-4.88-4.49,2.15,1.72,4.22h0Zm1.5-1.27c-.84,0-1.53-.69-1.53-1.53s.69-1.53,1.53-1.53,1.53.69,1.53,1.53-.69,1.53-1.53,1.53h0Zm0-.47c-.58,0-1.06-.48-1.06-1.06s.47-1.05,1.06-1.05,1.05.47,1.05,1.05-.47,1.06-1.05,1.06Z" style="fill: #ffe100; fill-rule: evenodd; stroke-width: 0px;"/>
          <path d="m60.89,157.68v-19.47c-1.88,1.35-4.09,2.55-6.63,3.6-2.42,9.73-7.18,17.53-8.83,20.04,1.38,1.88,1.57,2.78,1.57,2.78,4.94-3.17,9.57-5.42,13.88-6.94Z" style="fill: #231815; fill-rule: evenodd; stroke-width: 0px;"/>
          <path d="m81.53,155.27l-1.82-1.16v.95c.62.05,1.23.12,1.82.2h0Zm3.56.64c-.21-.05-.43-.1-.65-.14l-4.74-3.02v-1.81s5.09,3.08,5.09,3.08l.29,1.9h0Zm-.45-2.91l-.33-2.18-4.6-2.74v1.68s4.93,3.24,4.93,3.24h0Zm-.49-3.22l-4.44-2.89v-1.83s4.07,2.34,4.07,2.34l.36,2.37h0Zm-.52-3.41l-.3-1.95-3.61-2.21v1.85s3.91,2.31,3.91,2.31h0Zm-.44-2.87l-3.46-2.13v-1.83s3.14,1.86,3.14,1.86l.32,2.11h0Zm-.51-3.34l-.29-1.92-2.65-1.61v1.81s2.94,1.72,2.94,1.72h0Zm-.43-2.79l-2.52-1.65v-1.64s2.22,1.4,2.22,1.4l.29,1.9h0Zm-.5-3.25l-.31-2c-.34-.24-.68-.49-1.03-.75-.23-.17-.46-.34-.68-.5v1.92s2.01,1.33,2.01,1.33Z" style="fill: #fff; fill-rule: evenodd; stroke-width: 0px;"/>
          <g>
            <path d="m78.49,154.98v-24.97c-1-.69-1.93-1.27-2.79-1.76v26.67c.95-.01,1.88.01,2.79.06Z" style="fill: #ffe100; fill-rule: evenodd; stroke-width: 0px;"/>
            <path d="m77.88,154.57h-1.47v-.96h1.47v.96h0Zm0-2.36h-1.47v-.96h1.47v.96h0Zm0-2.36h-1.47v-.96h1.47v.96h0Zm0-2.36h-1.47v-.96h1.47v.96h0Zm0-2.36h-1.47v-.96h1.47v.96h0Zm0-2.36h-1.47v-.96h1.47v.96h0Zm0-2.36h-1.47v-.96h1.47v.96h0Zm0-2.36h-1.47v-.96h1.47v.96h0Zm0-2.36h-1.47v-.96h1.47v.96h0Zm0-2.36h-1.47v-.96h1.47v.96h0Zm0-2.36h-1.47v-.96h1.47v.96Z" style="fill: #094; fill-rule: evenodd; stroke-width: 0px;"/>
          </g>
          <path d="m74.22,154.96v-1.08s-1.46,1.18-1.46,1.18c.49-.04.98-.07,1.46-.09h0Zm.01-2.29l-4.25,2.71c-.25.04-.5.08-.74.12l.24-1.8,4.76-2.9v1.88h-.01Zm.02-2.92v-1.87s-4.34,2.64-4.34,2.64l-.29,2.15,4.63-2.93h0Zm.02-2.87l-4.22,2.61.29-2.15,3.94-2.36v1.9h-.01Zm.02-2.8v-1.96s-3.53,2.09-3.53,2.09l-.28,2.09,3.81-2.22h0Zm.02-2.83l-3.42,2.05.26-1.89,3.18-1.79v1.63h0Zm.02-2.94v-1.84s-2.75,1.72-2.75,1.72l-.28,2.03,3.02-1.9h0Zm.02-2.54l-2.65,1.6.26-1.93,2.4-1.51v1.83h-.01Zm.02-3.18v-1.51s-2,1.28-2,1.28l-.21,1.53,2.2-1.31h0Zm.02-2.6v-1.41s-1.62.88-1.62.88l-.21,1.55,1.83-1.02h0Zm.01-2.32v-.14c-.45-.23-.88-.43-1.29-.61l-.22,1.65,1.51-.9Z" style="fill: #fff; fill-rule: evenodd; stroke-width: 0px;"/>
          <path d="m64.24,151.63l5.15-26.37-.69.02c-.53,4.98-2.84,9.04-6.93,12.28v14.55l2.47-.48Z" style="fill: #e60012; fill-rule: evenodd; stroke-width: 0px;"/>
          <polygon points="63.61 154.8 64.03 152.67 61.76 153.14 61.76 155.19 63.61 154.8" style="fill: #fff; fill-rule: evenodd; stroke-width: 0px;"/>
          <path d="m63.2,156.92l.26-1.36-1.7.42v1.4c.48-.16.96-.32,1.44-.46Z" style="fill: #e60012; fill-rule: evenodd; stroke-width: 0px;"/>
          <path d="m125.6,69.5c-.14-.19-.69-.99-.83-2.16-.16-1.36,1.21-2.91,2.45-2.9,1.24.02,2.41.67,2.58,2.21.16,1.54-.27,2.73-.27,2.73,0,0,1.55.03,2.25.19.7.17,1.37,1.65,1.4,2.93.02,1.28-.79,2.23-1.65,2.3-.86.07-1.49-.35-1.98-.23-.49.12-.19.96-.19,1.87.03,1.04-.43,1.47-1.48,2.19v15.28l-.71.45v-15.68s-1.4.13-1.7-1.36c-.3-1.5.12-3.38.42-3.42v-.03s1.48,1.43,1.48,1.43l3.85-3.76-3.85-3.76-1.77,1.73h0Zm-.18,3.89l-1.9-1.86,1.68-1.64c-.36-.31-1.01-.73-1.83-.69-1.3.06-2.09,1.43-2.13,2.48-.04,1.05.49,2.55,1.98,2.95,0,0,1.23.28,2.21-1.25Z" style="fill: #ffe100; fill-rule: evenodd; stroke-width: 0px;"/>
          <path d="m124.31,71.54l3.07-3,3.07,3-3.07,3-3.07-3h0Zm1,0l2.07,2.02,2.07-2.02-2.07-2.02-2.07,2.02h0Zm.92,0l1.15,1.12,1.15-1.12-1.15-1.12-1.15,1.12Z" style="fill: #e60012; fill-rule: evenodd; stroke-width: 0px;"/>
          <path d="m133.46,84.07l.09-3.34s-3.02,2.48-5.14,7.04v6.1s4.98-.61,5.05-9.8Z" style="fill: #ffe100; fill-rule: evenodd; stroke-width: 0px;"/>
          <path d="m126.52,89.75l-6.11-4.7s-.04,5.82,6.11,9.18v-4.48Z" style="fill: #ffe100; fill-rule: evenodd; stroke-width: 0px;"/>
          <path d="m128.54,91.49l-.13.13v1.54l.13-.1c.55-.53,3.61-3.69,3.54-8.53v-1.11s-.28,4.78-3.54,8.07Z" style="fill: #094; fill-rule: evenodd; stroke-width: 0px;"/>
          <path d="m126.52,93.06v-1.38c-2.47-1.83-4.7-4.22-4.7-4.22,0,0,.64,2.46,4.7,5.59Z" style="fill: #094; fill-rule: evenodd; stroke-width: 0px;"/>
          <path d="m133.61,102.36c.04.13.12.26.27.26.04,0,.07,0,.1-.02v-.68c-.12.16-.24.31-.37.45h0Zm.37,5.43c-.39.86-.98,1.92-1.84,2.64-1.69,1.44-4.48,1.62-7.17,1.29-2.68-.33-3.49-1.44-3.6-4.03-.11-2.59,1.14-6.35,2.87-9.05,0,0,1.64-2.63,3.15-2.88,0,0,.96,2.44,3.85.77,0,0-3.18,2.21-4.95,4.65,0,0-.11.97,0,1.84.12.87.23,1.3.1,2.03-.12.72-1.5,2.46-1.5,2.46,0,0,1.56-1.07,2.2-2.73,0,0,.37.83,1.19.85,0,0-.43,2.13,1.57,2.34,0,0-.24,2.02.9,2.4,1.15.38,2.05-1.1,1.9-1.78-.15-.68-.7-1.12-.7-1.12,0,0,1.16-.48,2-1.68v1.99h0Zm0-4.59c-.11-.16-.27-.22-.47-.25-.14-.03-.26-.03-.36-.02-.08,0-.08.02-.14.08-1.36,1.32-2.53,1.72-2.53,1.72l.34.39c.75.92.73,1.82.73,1.82.93-.31,1.83-1.17,2.44-1.89v-1.84h0Zm-5.7-2.32c-.37,0-.66.26-.66.57s.3.57.66.57.66-.26.66-.57-.3-.57-.66-.57h0Zm-.15,4.08c2.13-.33,2-.76,2-.76-.05-.54-.95-1.01-1.43-.95-.49.05-.87,1.77-.87,1.77l.3-.05h0Zm2.7,1.6c-.03-.9-.67-1.28-1.46-1.22-.78.05-.43,1.47-.43,1.47.69,1.16,1.98.72,1.89-.25h0Zm-.38,1.98c.13.5.11,1.46.76,1.39.46-.05,1.03-.71.95-1.36-.08-.65-.68-1.06-1.19-.95-.51.11-.51.92-.51.92h0Zm-1.96-8.45c.88.37,1.77,1.33,1.77,1.33.31-.22,1.49-1.33,1.9-1.87.41-.53.65-1.1.55-1.49-.1-.39-.69-1-1.16-.94-.47.06-3.39,2.78-3.39,2.78l.33.18h0Zm1.3,2.81l-.28-.22s2.05-1.46,3.55-3.39c0,0,.58.32.68,1.16.1.84-.54,2-2.81,3.43,0,0-.38-.48-1.14-.98h0Zm.36-6.45c.25-.21.49-.54.54-1.36.04-.82-.89-1.05-1.06-.85-.17.2-.73.52-1.17.79-.45.26-.91.68-.18,1.2.72.52,1.7.32,1.7.32l.19-.11Z" style="fill: #fff; fill-rule: evenodd; stroke-width: 0px;"/>
          <path d="m118.81,87.63c-.87,1.36-4.7,7.55-7.04,13.92-2.65,7.21-2.84,13.82-3.08,18.29-.24,4.47-.23,10.04-2.52,15.99-2.15,5.6-6.73,12.74-16.06,15.42.46.13,1.22.35,2.22.7,8.12-4.56,8.48-5.76,11.75-9.81,3.39-4.2,5.35-13.66,5.51-18.47.16-4.81.77-11.87,1.87-16.86,1.1-4.99,3.73-11.02,5.46-14.1,1.08-1.92,2.05-3.36,2.63-4.17-.28-.32-.52-.62-.75-.9Z" style="fill: #fff; fill-rule: evenodd; stroke-width: 0px;"/>
          <path d="m93.27,152.29c1.23-.72,5.06-3.01,7.42-5.23,2.84-2.68,5.67-6.74,7.23-11.18,1.55-4.44,1.88-8.76,2.3-13.48.43-4.72.45-11.29,3.23-20.17,2.19-6.99,4.9-11.45,6.39-13.34.27.31.56.64.87.97-1.24,1.97-3.32,5.34-4.09,6.94l3.84,2.1-1.59,4.17-1.22-.28.7-2.25-2.76-1.78-2.36,7.28,4.54,1.88-1.11,5.22-.88-.15.69-3.45-3.59-.61-1.22,8.48,4.4.64-.47,4.27h-.79l.11-2.83-3.51.07-.29,7.42,4.09,1.04-.55,5.2-1.37-.08.49-3.55-3.23-.32s-1.01,5.04-1.9,6.94l4.3,2.68-2.22,4.99-.95-.51,1.09-2.7-3.21-1.78s-1.71,4.01-2.69,5.24l3.21,3.64-3.19,4.08-1.03-1,2.03-1.97-2.82-2.57s-2,1.94-4.9,4.3l2,3.78s-1.42.58-4.18-2.94l-1.66,1.3c-.41-.17-.79-.32-1.15-.46h0Zm7.57,3.62c.76.44,1.55.92,2.37,1.43,7.64-6.7,10.63-12.4,12.39-16.87,1.8-4.58,2.28-13.55,2.46-17.72.18-4.16,1.9-18.15,4.63-22.75,1.85-3.12,3.33-4.17,4.09-4.53-.46-.38-.91-.75-1.34-1.12-.74.59-1.39,1.28-1.98,2.04l-3.16-2.03,1.9-2.98c-.23-.22-.45-.44-.66-.66l-3.29,5.51,3.87,2.24c-1.09,1.97-1.85,4.2-2.44,6.36l-3.66-1.17.9-2.77-.67-.24-1.48,4.66,4.37,1.73c-.26,1.13-.48,2.21-.68,3.19-.26,1.26-.5,2.69-.73,4.19l-3.47-.06.58-3.93-.92-.1-.88,6.01,4.37.46c-.31,2.41-.56,4.84-.72,6.87l-3.26-.35.09-2.48-.84-.03-.17,5.11,3.97,1.03c-.15,2.97-.52,6.57-.65,7.78l-4.02-.42.52-3.63-.76-.07-1.29,5.17,4.22,2.49-3.06,7.52-3.2-1.83,1.11-2.82-1.11-.54-1.71,3.48,3.29,3.56-4.8,6.06-2.9-2.86,2.11-1.97-.92-.89-3.49,2.92,2.99,5.47-1.96-.47h0Zm22.41-60.75l-1.83-1.23,1.51-1.83c.51.49,1.06.99,1.65,1.51l-1.32,1.55Z" style="fill: #fff; fill-rule: evenodd; stroke-width: 0px;"/>
          <path d="m103.74,157.68c2.55-2.13,7.26-6.69,10.25-12.08,3.45-6.24,4.29-12.77,4.4-16.1.11-3.33.33-8.74.8-12.51.47-3.77,1.55-8.27,1.55-8.27,0,0,.78,2.37,2.33,3.08,1.56.71,5.44.5,7.09.26,1.59-.23,3.24-2.04,3.82-3.23v42.92h0s-7.37,7.71-18.06,16.06c-4.23-4.41-8.43-7.7-12.18-10.14Z" style="fill: #231815; fill-rule: evenodd; stroke-width: 0px;"/>
          <g>
            <path d="m121.43,112.79l-.4-.13s-.35,1.54.59,2.94c0,0-.24.76-.24,1.52s.59,1.9,1.72,2.02c1.13.12,2.31-1.71,2.31-1.71,0,0,.35-.12.45.73.1.85.19,2.82.19,2.82h1.72v-2.04c0-.45.99-1.54,1.23-1.57,0,0-.35,1.95,1.86,2.37,0,0,.27,1.66,1.38,1.76,1.1.1,1.44-1.01,1.4-1.32-.04-.32-.27-.32-.35-.59-.08-.27-.04-.29-.02-.96.02-.67-.12-1.93-1.08-3.5-.96-1.57-1.74-1.55-2.47-1.55s-1.45.35-2.5,1.02c0,0-.69-.95-2.02-1.13-1.32-.18-2.45.13-3.75-.69h0Zm.76,1.75l-.2-.37s1.54-.11,2.39-.05c.84.05,1.99.76,2.53,1.92,0,0,1.54-1.69,2.89-1.58,1.35.12,2.19,1.69,2.75,4.09,0,0,.28,1.64-.22,1.75-.5.11-.79-.59-1.12-1.02-.34-.42-1.4-.45-1.57-1.44-.17-.99.2-1.92-.28-1.97-.48-.06-2.22,1.75-2.08,3.7h-.56s.03-2.99-.87-3.19c-.9-.2-1.49,1.36-2.11,1.44-.62.08-.98-.31-.98-1.21s-.06-1.55-.56-2.06h0Zm-3.66,23.7v-.18s-.4-1.13-.38-1.98c.02-.86.47-1.24.95-1.22.47.02,1.42.91,1.79,1.07.36.17,2.47.1,3.83,1.65,1.36,1.54,1.43,2.59,1.43,2.59,0,0,1.61-.16,2.5-.09.88.07,3.61,1.87,3.64,4.56s-.32,3.52-.23,4.24c.09.72.42.65.42,1.33s-.53,1.13-1.19,1.26c-.66.13-1.08-.07-1.63-.77-.55-.71-.53-1.73-.53-1.73,0,0-1.68-.05-2.13-1.54-.45-1.49,1.16-2.43,1.47-2.82.31-.39.25-1-.61-1.25-.86-.26-2.79-.22-3.65,2.24l-1.78-1.24s.62-1.86.39-2.95c-.22-1.09-.81-1.09-.81-1.09,0,0-.96,1.61-2.27,1.66-1.31.05-1.41-.93-1.55-1.7-.14-.78.14-1.61.35-2.01h0Zm1.24.09l.23-.19s-1.27-1.3-.8-1.59c.47-.3,2.52.4,3.94,1.4,1.42,1,1.85,2.59,2.02,3.92,0,0,1.35-.97,3.12-.72,1.77.25,3.11,2.07,3.11,5.97,0,0-.05,1.41.03,1.99.08.58.24.98-.05,1.14s-1.16.16-1.37-.93c-.21-1.09-.05-1.41-.05-1.41,0,0-1.98-.29-1.93-1.19.05-.9.87-1.14,1.87-1.04,0,0,.4-1.8-1.06-2.93,0,0-.73-.53-2.1-.39-1.37.13-2.7,1.95-2.7,1.95l-.55-.55s.62-1.68.17-3.07c-.45-1.4-1.43-1.71-2.07-1.67-.64.04-.81.66-.99,1.34-.17.68-.93.72-1.39.21-.46-.51-.39-1.34.58-2.24h0Zm8.64-11.02l1.07,1.17,1.07,1.17-1,1.17-1,1.17-1.07-1.17-1.07-1.17,1-1.17,1-1.17h0Zm.19-3.72l1.74,2.18h1.28v1.61l1.95,2.44-1.95,2.33v1.52h-1.27l-2.01,2.39-1.91-2.39h-1.27v-1.59l-1.79-2.25,1.79-2.14v-1.91h1.6l1.83-2.18h0Zm-17.03,32.05h-3.6v2.71h3.31v1.25c0,.88.79,1.62,1.48,1.62s1.8-.4,1.91-1.7c.11-1.31-.32-1.89-.32-1.89,0,0,.69-.72.72-1.94.02-1.11-.56-2-1.44-2.2-.69-.15-1.95.25-2.06,1.02-.13.99,0,1.12,0,1.12h0Zm-3.07,2.02l.05-1.33h3.73s-.16-1.7.85-1.65c1.01.05,1.33,1.09.9,1.68-.42.59-.72.72-.66,1.09s.21,1.04.29,1.81c.08.77-.5.88-.88.77-.37-.11-.8-1.04-.69-2.37h-3.6Zm13.33-9.55l-1.34-2.44-1.87,2.44h-1.64v1.76l-2.39,1.71,2.39,1.71v2h1.8l1.38,2.98,1.47-2.98h1.92v-1.91l2.18-1.62-2.18-1.66v-1.99h-1.72Zm.33,3.32l-2.18-2.01-2.06,2.68,2.21,1.92,2.03-2.59Z" style="fill: none; fill-rule: evenodd; stroke: #231b00; stroke-linecap: round; stroke-linejoin: round; stroke-width: .57px;"/>
            <path d="m127.3,120.99h.47v-2.04c0-.45.99-1.54,1.23-1.57,0,0-.35,1.95,1.86,2.37,0,0,.27,1.66,1.38,1.76,1.1.1,1.44-1.01,1.4-1.32-.04-.32-.27-.32-.35-.59-.08-.27-.04-.29-.02-.96.02-.67-.12-1.93-1.08-3.5-.96-1.57-1.74-1.55-2.47-1.55s-1.41.33-2.4.95v1.1c.55-.49,1.56-1.27,2.49-1.19,1.35.12,2.19,1.69,2.75,4.09,0,0,.28,1.64-.22,1.75-.5.11-.79-.59-1.12-1.02-.34-.42-1.4-.45-1.57-1.44-.17-.99.2-1.92-.28-1.97-.41-.05-1.77,1.3-2.04,2.92v2.2h0Zm0,27.08v-2.32c.4-.55.97-.94,1.14-1.16.31-.39.25-1-.61-1.25-.15-.04-.33-.08-.54-.1v-.91c.99.04,1.51.41,1.51.41,1.46,1.12,1.06,2.93,1.06,2.93-1-.11-1.82.13-1.87,1.04-.05.9,1.93,1.19,1.93,1.19,0,0-.16.32.05,1.41.21,1.09,1.08,1.09,1.37.93s.13-.56.05-1.14c-.08-.58-.03-1.99-.03-1.99,0-3.9-1.34-5.72-3.11-5.97-.34-.05-.67-.05-.97-.02v-1.04c.45-.02.95-.04,1.32,0,.88.07,3.61,1.87,3.64,4.56s-.32,3.52-.23,4.24c.09.72.42.65.42,1.33s-.53,1.13-1.19,1.26c-.66.13-1.08-.07-1.63-.77-.55-.71-.53-1.73-.53-1.73,0,0-1.15-.04-1.8-.89h0Zm0-13.33v-4.12l.18.2,1.07,1.17,1-1.17,1-1.17-1.07-1.17-1.07-1.17-1,1.17-.11.12v-3.47l1.3-1.55,1.74,2.18h1.28v1.61l1.95,2.44-1.95,2.33v1.52h-1.27l-2.01,2.39-1.05-1.32Zm-5.38-16.23c.29.33.68.58,1.18.63,1.13.12,2.31-1.71,2.31-1.71,0,0,.35-.12.45.73.1.85.19,2.82.19,2.82h1.25v-2.2c-.04.25-.06.51-.04.78h-.56s.03-2.99-.87-3.19c-.9-.2-1.49,1.36-2.11,1.44-.62.08-.98-.31-.98-1.21s-.06-1.55-.56-2.06l-.2-.37s1.54-.11,2.39-.05c.84.05,1.99.76,2.53,1.92,0,0,.15-.17.4-.39v-1.1l-.11.07s-.69-.95-2.02-1.13c-1.15-.16-2.15.06-3.25-.43v5.45h0Zm5.38,6.63v3.47l-.89,1.04.89.97v4.12l-.86-1.07h-1.27v-1.59l-1.79-2.25,1.79-2.14v-1.91h1.6l.53-.63h0Zm0,14.93v1.04c-1.27.11-2.15.75-2.15.75-.17-1.32-.6-2.92-2.02-3.92-.37-.26-.79-.5-1.21-.71v-1.11c.82.16,1.94.5,2.77,1.45,1.36,1.54,1.43,2.59,1.43,2.59,0,0,.55-.05,1.17-.08h0Zm0,2.26c-.18,0-.38,0-.59.02-1.37.13-2.7,1.95-2.7,1.95l-.55-.55s.62-1.68.17-3.07c-.37-1.16-1.1-1.57-1.71-1.66v1.36c.04-.06.06-.09.06-.09,0,0,.59,0,.81,1.09.22,1.09-.39,2.95-.39,2.95l1.78,1.24c.71-2.03,2.15-2.41,3.12-2.33v-.91h0Zm0,3.42v2.32c-.14-.18-.25-.39-.33-.65-.2-.66,0-1.22.33-1.67h0Zm-5.38,9.55v-3.58l.23-.29-.23-.21v-3.11h1.62v1.99l2.18,1.66-2.18,1.62v1.91h-1.62Zm-.5-42.51l-.4-.13s-.35,1.54.59,2.94c0,0-.24.76-.24,1.52,0,.42.18.97.55,1.39v-5.45c-.16-.07-.33-.16-.5-.27h0Zm.5,23.33v1.11c-1.18-.59-2.38-.91-2.73-.69-.47.3.8,1.59.8,1.59l-.23.19c-.97.89-1.04,1.73-.58,2.24.46.5,1.22.47,1.39-.21.17-.68.35-1.3.99-1.34.11,0,.23,0,.36.02v1.36c-.23.35-1.09,1.53-2.21,1.57-1.31.05-1.41-.93-1.55-1.7-.14-.78.14-1.61.35-2.01v-.18s-.4-1.13-.38-1.98c.02-.86.47-1.24.95-1.22.47.02,1.42.91,1.79,1.07.14.06.54.09,1.06.2h0Zm0,11.99v3.11l-1.95-1.8-2.06,2.68,2.21,1.92,1.8-2.3v3.58h-.3l-1.47,2.98-1.38-2.98h-1.8v-2l-2.15-1.54v-.35l2.15-1.53v-1.76h1.64l1.87-2.44,1.34,2.44h.1Zm-7.1,8.74c.13-.31.23-.7.24-1.16,0-.44-.08-.85-.24-1.19v2.35Zm0-5.44v.35l-.24-.17.24-.17h0Zm0,3.09v2.35c-.21.5-.47.78-.47.78,0,0,.42.58.32,1.89-.11,1.3-1.22,1.7-1.91,1.7-.56,0-1.19-.49-1.4-1.15v-2.42h.74c-.11,1.33.32,2.26.69,2.37.37.11.95,0,.88-.77-.08-.77-.24-1.44-.29-1.81s.24-.51.66-1.09c.42-.58.1-1.62-.9-1.68-1-.05-.85,1.65-.85,1.65h-.93v-.69h.21s-.13-.13,0-1.12c.1-.78,1.37-1.18,2.06-1.02.53.12.95.49,1.2,1Zm-3.47,1.14v.69h-2.81l-.05,1.33h2.86v2.42c-.05-.15-.08-.31-.08-.48v-1.25h-3.31v-2.71h3.39Z" style="fill: #ffe100; fill-rule: evenodd; stroke-width: 0px;"/>
          </g>
          <g>
            <path d="m128.43,127.93l.79.86.79.86-.73.86-.73.86-.79-.86-.79-.86.73-.86.73-.86h0Zm-6.85,23.58l-1.59-1.46-1.5,1.95,1.61,1.4,1.48-1.88Z" style="fill: none; fill-rule: evenodd; stroke: #1e0000; stroke-linecap: round; stroke-linejoin: round; stroke-width: .57px;"/>
            <path d="m128.43,127.93l.79.86.79.86-.73.86-.73.86-.79-.86-.79-.86.73-.86.73-.86h0Zm-6.85,23.58l-1.59-1.46-1.5,1.95,1.61,1.4,1.48-1.88Z" style="fill: #e60012; fill-rule: evenodd; stroke-width: 0px;"/>
          </g>
          <path d="m90.31,155.65l.67,2.34c9.89,3.61,17.4,9.85,20.75,12.99.54-.39,1.06-.78,1.58-1.17-8.4-8.58-19.87-13.05-23.01-14.16Z" style="fill: #e60012; fill-rule: evenodd; stroke-width: 0px;"/>
          <path d="m89.12,151.54c2.57.79,15.9,5.3,26.37,16.62-.54.42-1.09.84-1.65,1.26-1.64-1.56-4.36-3.93-8.19-6.61-6.4-4.48-11.93-6.67-15.55-7.89l-.97-3.38Z" style="fill: #fff; fill-rule: evenodd; stroke-width: 0px;"/>
          <path d="m107.78,118.62c-.51-.76-1.63-2.81-2.19-4.17-.65-1.59.44-3.45,2.41.24-.03.42-.06.84-.08,1.27-.05.9-.09,1.78-.14,2.66h0Zm-1.1-.14c-.2-.54-.54-1.34-1.41-2.7-.87-1.36-1.55-1.54-2.22-1.09-.67.45-.08,1.41-.08,1.41.84,1.41,2.74,3.4,2.74,3.4l.18-1.14.98.42-.19-.31h0Zm-1.48,1.48c-1.23-1.22-2.04-2.82-3.85-2.82-.68,0-1.22.6-.27,1.75.95,1.15,2.87,2.53,2.87,2.53l.18-1.2,1.08-.26h0Zm-2.4,2.63l.32.77s-.59-.02-2.54-1.1c-2.76-1.54-1.67-3.6-.01-2.58,1.25.77,3.07,2.56,3.07,2.56l-.83.35h0Zm-.53,2.36l.85-.75s-2-.85-3.26-1.11c-1.26-.26-1.78.32-1.85.96-.07.64.3,1.72,4.87,1.72l-.6-.81h0Zm-.06,2.41l.74-.87s-2.15-.13-3.3-.05c-1.14.09-1.72.13-1.82,1.1-.1.97.63,1.28,2.26,1.15,1.63-.13,2.94-.51,2.94-.51l-.83-.82h0Zm.64,2.82l.4-1.26s-2.13.29-3.31.8c-1.17.52-1.5,1.01-1.5,1.44s.26,1.38,1.46,1.38,4.26-2.04,4.26-2.04l-1.31-.31h0Zm1.5,1.19l-.13,1.38,1.3.1s-1.34,1.12-2.32,1.87c-.98.75-1.97,1.12-2.68.72-.72-.39-.67-1.54.51-2.3.98-.63,2.16-1.5,3.32-1.77h0Zm1.48,2.04c-.47.28-1.57,1.27-2.8,2.35-1.53,1.34-1,2.5-.12,2.43.48-.03.99-.32,1.46-.74.58-1.29,1.06-2.64,1.46-4.04Z" style="fill: #fff; fill-rule: evenodd; stroke-width: 0px;"/>
          <path d="m106.11,132.32c-1.5-1.07-2.56-3.51-2.56-6.33,0-3.77,1.88-6.85,4.2-6.91-.03.58-.07,1.16-.11,1.73-1.42.97-2.41,3-2.41,5.35,0,1.66.5,3.17,1.29,4.25-.13.65-.27,1.28-.42,1.91Z" style="fill: #fff; fill-rule: evenodd; stroke-width: 0px;"/>
          <path d="m106.7,129.49c-.7-.87-1.02-2.09-1.02-3.36,0-1.72.68-3.17,1.88-4.04-.19,2.58-.44,5.05-.86,7.39Z" style="fill: #e60012; fill-rule: evenodd; stroke-width: 0px;"/>
        </g>
        <path d="m29.59,26.78h104.39v195.06H29.59V26.78h0Zm-1.68-1.68v198.43h107.75V25.09H27.91Z" style="fill: #004ea2; fill-rule: evenodd; stroke-width: 0px;"/>
      </g>
      <g>
        <path d="m17.12,49.99c-.05-1.84-1.4-3.18-3.51-3.18s-4.02,1.79-4.13,4.36c-.1,2.56,1.13,5.16,3.23,7.98,2.1,2.82,4.67,6.87,4.58,6.87s2.47-4.05,4.58-6.87c2.1-2.82,3.33-5.42,3.23-7.98-.1-2.56-2.01-4.36-4.13-4.36s-3.47,1.34-3.51,3.18c0,0,0,.51-.17.5-.2-.02-.16-.37-.17-.5Z" style="fill: #e60012; fill-rule: evenodd; stroke-width: 0px;"/>
        <path d="m17.7,13.47c3.86,0,7.01,3.16,7.01,7.01v14.22c0,.85-.15,1.67-.44,2.42.47.34.96.48,1.59.45l.15,3.12c-1.56.07-2.59-.21-3.52-.89-1.26,1.18-2.94,1.91-4.8,1.91-3.86,0-7.01-3.16-7.01-7.01v-4.18c-1.12-.1-1.89-.03-1.9-.03l-.22-3.12s.85-.07,2.12.02v-6.92c0-3.86,3.16-7.01,7.01-7.01h0Zm0,3.12c-2.14,0-3.9,1.75-3.9,3.89v7.45c2.16.58,4.56,1.74,6.3,3.99.64.83,1.1,1.45,1.49,1.98v-13.42c0-2.14-1.75-3.89-3.89-3.89h0Zm-3.9,14.59v3.53c0,2.14,1.75,3.89,3.9,3.89,1.04,0,1.98-.41,2.68-1.08-.29-.39-.6-.81-.94-1.28-.57-.78-1.22-1.67-1.8-2.42-1.05-1.35-2.45-2.16-3.84-2.65Z" style="fill: #e60012; stroke-width: 0px;"/>
      </g>
      <g>
        <path d="m146.45,198.62c.05,1.85,1.4,3.18,3.51,3.18s4.02-1.79,4.13-4.35c.1-2.56-1.13-5.16-3.23-7.98-2.1-2.82-4.67-6.87-4.58-6.87s-2.47,4.05-4.58,6.87c-2.1,2.82-3.33,5.42-3.23,7.98.1,2.56,2.01,4.35,4.13,4.35s3.47-1.34,3.51-3.18c0,0,0-.51.17-.5.2.01.16.37.17.5Z" style="fill: #e60012; fill-rule: evenodd; stroke-width: 0px;"/>
        <path d="m145.88,235.14c-3.86,0-7.01-3.16-7.01-7.01v-14.22c0-.85.15-1.67.44-2.43-.47-.34-.96-.48-1.59-.45l-.15-3.12c1.56-.08,2.59.21,3.52.89,1.26-1.18,2.94-1.91,4.79-1.91,3.86,0,7.01,3.16,7.01,7.01v4.18c1.12.1,1.89.03,1.9.03l.22,3.12s-.85.08-2.12-.02v6.92c0,3.86-3.16,7.01-7.01,7.01h0Zm0-3.12c2.14,0,3.9-1.75,3.9-3.89v-7.45c-2.16-.58-4.56-1.74-6.3-3.99-.64-.82-1.1-1.45-1.49-1.98v13.42c0,2.14,1.75,3.89,3.89,3.89h0Zm3.9-14.59v-3.53c0-2.14-1.75-3.9-3.9-3.9-1.04,0-1.98.41-2.68,1.08.29.39.6.81.94,1.28.57.78,1.22,1.67,1.8,2.42,1.05,1.35,2.45,2.16,3.84,2.65Z" style="fill: #e60012; stroke-width: 0px;"/>
      </g>
    </g>
  </g>
</svg>