<?xml version="1.0" encoding="UTF-8"?>
<svg id="_图层_2" data-name="图层 2" xmlns="http://www.w3.org/2000/svg" viewBox="0 0 163.57 248.61">
  <g id="_图层_1-2" data-name="图层 1">
    <g>
      <path d="m162.57,242.01c0,3.08-2.51,5.6-5.57,5.6H6.57c-3.06,0-5.57-2.52-5.57-5.6V6.6C1,3.52,3.51,1,6.57,1h150.43c3.06,0,5.57,2.52,5.57,5.6v235.41Z" style="fill: #fff; fill-rule: evenodd; stroke: #231815; stroke-miterlimit: 22.93; stroke-width: 2px;"/>
      <g>
        <g>
          <path d="m46.07,40.04c-.08-3.15-2.39-5.43-5.99-5.43s-6.86,3.05-7.04,7.43c-.17,4.37,1.93,8.8,5.51,13.62,3.59,4.81,7.96,11.72,7.81,11.72s4.22-6.91,7.81-11.72c3.59-4.81,5.69-9.24,5.51-13.62-.17-4.38-3.44-7.43-7.04-7.43s-5.91,2.28-5.99,5.43c0,0,.02.87-.29.85-.33-.02-.28-.64-.28-.85Z" style="fill: #e60012; fill-rule: evenodd; stroke-width: 0px;"/>
          <path d="m117.5,208.57c.08,3.15,2.39,5.43,5.99,5.43s6.86-3.05,7.04-7.43c.17-4.38-1.93-8.81-5.51-13.62-3.59-4.81-7.96-11.72-7.81-11.72s-4.22,6.91-7.81,11.72c-3.59,4.81-5.69,9.24-5.51,13.62.17,4.38,3.44,7.43,7.04,7.43s5.91-2.28,5.99-5.43c0,0-.02-.87.29-.85.33.03.28.64.28.85Z" style="fill: #e60012; fill-rule: evenodd; stroke-width: 0px;"/>
        </g>
        <g>
          <path d="m29.59,175.33c3.27,2.19,5.53,12.41,5.53,12.41-.87.87-1.16,1.66-1.11,3.09.05,1.42,1.55,2.71,1.55,2.71-1.71,1.21.1,2.63.1,2.63-1.55,1.93-1.86,5.24-1.86,5.24-1.09-.94-2.66-.89-3.49.32-.31.46-.56.87-.73,1.17v3.6c1.06,1.33,3.24,1.47,3.43,1.43.21-.05.19-.14.83.4.64.55,1.42.62,1.42.76s.31.66.31.66c.66,1.23,1.7,1.28,1.89,1.21.19-.07.47-.36.71-.17.24.19.66.71,1.3.74.64.02.78-.21,1.23-.35.46-.14.54.14.72.14s.71,0,1.59.06l.47.14c.82,1.45,1.8,3.67,3.27,3.69,1.47.02,2.6-1.75,2.6-1.75,1.36-2.03,1.23-4.77,1.23-4.77h6.54l-9.31,13.17h57.78l-10.49-15.25v-3.74s.85-4.64,1.51-6.08c0,0,.48-1.15,1.4-1.21.92-.06,2.29-.58,2.33-2.01.03-1.43-1.11-2.39-1.92-2.49-.81-.1-1.95.46-2.7,1.48,0,0,1.11-5.54,1.74-6.59,0,0,.72,1.62,2.22,1.71,1.5.09,4.63-1.64,2.12-8.07,0,0,15.36-3.81,32.17-20.03v-86.28c-3.27-2.19-5.54-12.41-5.54-12.41.87-.87,1.17-1.66,1.11-3.09-.05-1.42-1.55-2.71-1.55-2.71,1.71-1.21-.1-2.62-.1-2.62,1.55-1.93,1.86-5.24,1.86-5.24,1.09.93,2.66.89,3.49-.32.31-.46.56-.87.73-1.17v-3.59c-1.06-1.33-3.24-1.47-3.44-1.43-.21.05-.19.14-.83-.4-.64-.55-1.42-.62-1.42-.76s-.31-.66-.31-.66c-.66-1.23-1.7-1.28-1.89-1.21-.19.07-.47.36-.71.17-.24-.19-.66-.71-1.3-.74-.64-.02-.78.21-1.23.35-.46.14-.54-.14-.71-.14s-.71,0-1.59-.06l-.47-.14c-.82-1.45-1.8-3.67-3.27-3.69-1.47-.02-2.6,1.75-2.6,1.75-1.36,2.03-1.23,4.77-1.23,4.77h-6.55l9.31-13.17h-57.78l10.49,15.25v3.74s-.84,4.64-1.51,6.08c0,0-.47,1.15-1.4,1.21-.92.06-2.3.58-2.33,2.01-.03,1.43,1.11,2.39,1.92,2.49.81.1,1.95-.46,2.7-1.48,0,0-1.11,5.54-1.74,6.59,0,0-.72-1.62-2.22-1.71-1.5-.09-4.63,1.64-2.12,8.07,0,0-15.36,3.81-32.17,20.03v86.28h0ZM107.06,55.15l-2.13-5.94h8.5v1.32s-1.68.15-2.26,2c-.58,1.84,1.01,3.41,2.44,3.38,1.44-.03,2.66-1.2,3.42-4.97,0,0,.21.8.73,1.29,0,0-1.59,1.07-1.07,2.86,0,0-2.19,2.57-.85,4.91,0,0-2.23,8.33-6.2,12.99h-.67s1.46-1.97,1.5-5.45c.04-3.47-2.35-9.31-3.41-12.38h0Zm-50.54,138.3l2.13,5.94h-8.5v-1.32s1.68-.15,2.26-2c.58-1.84-1.01-3.41-2.45-3.38-1.43.03-2.66,1.2-3.42,4.98,0,0-.21-.8-.73-1.29,0,0,1.59-1.08,1.07-2.86,0,0,2.19-2.57.85-4.91,0,0,2.23-8.33,6.2-12.99h.67s-1.45,1.97-1.49,5.45c-.04,3.47,2.35,9.31,3.41,12.38Z" style="fill: #004ea2; fill-rule: evenodd; stroke-width: 0px;"/>
          <g>
            <path d="m92.19,92.25l-16.37,18.03c.24,2.06.42,4.18.54,6.37h11.08c.64-7.64,2.12-15.81,4.75-24.4Z" style="fill: #e60012; fill-rule: evenodd; stroke-width: 0px;"/>
            <path d="m76.36,116.65h11.08c-.04.5-.08,1.01-.12,1.51h0c-.34,4.83-.35,9.45-.11,13.81h-11.08c.04-.5.08-1.01.12-1.51h0c.34-4.83.35-9.45.11-13.81Z" style="fill: #231815; fill-rule: evenodd; stroke-width: 0px;"/>
            <path d="m133.98,137.84c-12.98,15.24-23.7,20.74-27.25,22.26,2.06,3.86,4.85,8.02,8.45,11.15.19-.11.39-.21.58-.32,6.87-3.91,10.1-6.84,13.75-10.05,1.55-1.36,3.15-2.74,4.48-3.87v-19.16Z" style="fill: #ffe100; fill-rule: evenodd; stroke-width: 0px;"/>
            <path d="m107.54,161.55c.61,1.05,1.27,2.12,1.98,3.18,10.62-4.76,19.51-13.06,24.46-18.32v-5.63c-14.47,14.86-23.06,19.42-26.45,20.78h0Zm3.37,5.09c1.73-.88,8.22-4.3,13.65-9.03,4.12-3.59,7.54-7.12,9.43-9.15v5.89c-3.43,3.21-12.04,10.84-20.64,15.14-.87-.91-1.68-1.86-2.44-2.86Z" style="fill: #231815; fill-rule: evenodd; stroke-width: 0px;"/>
            <path d="m59.82,26.78l9.33,14.21s20.81-.39,33.48,2.27l11.56-16.48h-54.37Z" style="fill: #ffe100; fill-rule: evenodd; stroke-width: 0px;"/>
            <path d="m66.3,76.78l-.67-1.47c.61.02,1.92.03,2.92-.16,1.36-.26,2.95-1.22,3.91-3.61.96-2.39.67-3.44.41-3.44s-.37.31-.35.53c0,0-.23,2.21-.9,3.55-.65,1.3-2.31,3.02-6.3,2.47l-.66-1.46c1.94.12,3.2-.11,4.78-1.24,1.68-1.2,2.13-3.53,2.17-4.25.04-.72.03-1.13-.22-1.11-.25.02-.35.23-.37.51-.02.29-.02,1.68-.74,3.01-.72,1.33-2.35,2.44-3.91,2.54-1.07.07-1.74-.09-2.05-.2l-.74-1.64s1.19.78,2.99.46c1.79-.32,3.68-2.07,3.54-4.92-.07-1.41-.33-7.55-.58-13.37.66.57,1.68,1.07,2.6,1,1.12-.09,2.88-.75,2.88-.75,0,0-1.64,2.02-2.11,2.96-.47.94-.11,1.14-.11,1.14l2.47-3s-.74,3.79-.78,4.69c-.04.9.09,1.17.09,1.17.57,1.05,2.76,1.57,2.76,1.57l-2.4-2.25c.58-2.99,1.71-7.76,1.43-10.63-.27-2.87-2.46-3.86-4.38-3.69-1.26.11-2.23.43-2.76.64-.07-1.66-.13-2.98-.16-3.71,1.36,0,12.06.06,22.28.96.23.88.86,3.19,1.27,4.32.52,1.42,2.26,7.77,3.47,11.66,1.22,3.89,1.68,7.62,1.72,8.62.03,1-.62,2.27-.62,2.27,0,0-.1-1.26-1.01-2.11.29-1.08.51-2.73-.47-5.51-1.08-3.07-1.93-4.69-1.93-4.69l-.6.25.25.35s2.03,3.96,2.31,6.11c.22,1.63.03,2.69-.07,3.12-.18-.1-.38-.19-.61-.26-.09-.03-.17-.05-.25-.07-.14-2.77-1.03-4.85-1.57-5.78-.55-.96-.91-1.45-1.08-1.43-.16.02-.51.35,0,.9s1.44,2.38,1.73,3.65c.24,1.01.26,2.14.27,2.56-.34-.02-.65,0-.93.08-.01-.42-.06-1.72-.13-2.55-.08-1.01-1.31-2.56-1.31-2.56,0,0-.61.38-.48.5.13.12.97,1.19,1.19,2.02.21.83.06,2.41.06,2.41l-2.31-3-.53.45,2.57,3.24c-.47.41-.78,1-.93,1.65-.77-.58-1.63-1.83-2.11-2.6-.53-.86-.57-1.1-1-1.04s-.22.57.8,1.98c.83,1.15,1.87,2.07,2.22,2.37-.08,1.56.67,3.23,2.14,3.59,0,0-.7.78-1.58,1.72.08-1.31-.21-2.95-1.84-3.91-.04-.02-.07-.04-.1-.06-.41-.75-1.35-2.49-1.69-3.14-.43-.84-.55-1.21-.89-1.15-.35.06-.03.69-.03.69l1.59,3.28c-.22-.02-.44,0-.65.04-.64-.52-1.83-1.93-2.22-2.46-.44-.58-.57-.75-.78-.54-.21.21.19.76.19.76.49.64,1.79,2.02,2.2,2.45-.41.23-.75.59-.98,1.06-.61-.25-1.54-1.28-1.95-1.94-.44-.71-.44-1.01-.84-.98-.4.03-.18.85.95,2.03.74.78,1.32,1.21,1.62,1.41-.04.14-.07.28-.1.43-.05.31-.07.6-.07.85-1.79-.43-2.79-2.76-3.04-3.54-.27-.83-.3-1-.67-.9-.37.1.13,1.27.13,1.27,0,0,1.31,3.22,3.6,3.79.11.93.48,1.38.48,1.38-4-.51-5.29-4.95-5.39-5.56-.1-.61-.95-.24-.74.14.2.37.61,1.25.61,1.25,0,0,.78,2.58,3.32,4.1,2.54,1.52,4.54.81,5.05.03.51-.78.71-2.24-.2-2.64-.91-.41-1.49.07-1.56.27-.07.2.81.13,1.15.13s.51.37.41,1.09c-.1.71-.34,1.15-1.08,1.22-.75.07-1.66-.88-1.42-2.61.24-1.73,1.29-1.97,1.93-1.97s2.07.91,2.27,2.41c.13.94.03,1.66-.1,2.16-.87.89-1.76,1.76-2.29,2.13-1.29.89-3.5.96-5.32-.96-1.82-1.92-2.28-3.41-3.08-5.39-.79-1.98-1.29-2.05-1.69-2.01-.4.03-.86.2-1.34,2.26-.48,2.06-1.2,2.28-1.73,2.28,0,0,1.06-2.95,1.15-3.65,0,0,.13-.65-.21-.62-.35.03-.48.67-.8,2.15-.32,1.47-1.49,4.45-3.97,3.86,0,0,2.48-2.55,2.96-5.84,0,0,.03-.56-.19-.56s-.35.21-.67,1.45c-.32,1.23-1.44,3.81-2.96,4.82-1.52,1.02-3.95.8-4.59.72h0Zm2.31-23.25v-5.41s-.23,3.61-1.9,5.01c.32.75.7,1.77.21,1.72-.45-.04-.67-1.03-.73-1.38-.12.06-.25.1-.38.14,0,0-1.38-.1-1.74.99-.36,1.09.34,2.21,1.42,2.24,1.08.03,2.9-2,3.12-3.32h0Zm.61-5.16s1.08-.39,1.93-.57c.86-.18,1.83-.35,2.41-.13.58.22,1.31.13,1.31.13-.75-.92-1.66-1.71-3.47-1.45-1.81.26-2.14,1.8-2.14,1.8l-.05.22h0Zm.71,1.19c1.32-.21,4.65-.61,5.51.7-.06-2.46-5.39-2.61-5.75-.66l.24-.04h0Zm-.37,2.02c-.16,0-.29.13-.29.29s.13.29.29.29.29-.13.29-.29-.13-.29-.29-.29h0Zm5.09.38c-.16,0-.29.13-.29.29s.13.29.29.29.28-.13.28-.29-.13-.29-.28-.29h0Zm-4.31-.78c.2,1.12.57,2.27,1.96,2.21,1.09-.05,1.56-1.97,1.56-1.97h-.62s-.28,1.4-1.23,1.28c-.95-.12-1.16-1.52-1.16-1.52h-.52Zm-1.53,4.45l-.06-.79s-.58,3.8-1.24,5.98c-.66,2.17-1.61,4.03-2.59,4.32-.98.29-2.26.09-2.4-.55-.14-.64.32-.7.58-.7s.66.36,1.29.34c.63-.01.79-.65.7-1.19-.09-.54-.98-1.04-1.51-1.02-.52.02-1.47.59-1.63,2.14-.16,1.54,1.06,2.63,2.19,2.71,1.13.08,2.41-.27,3.17-2.12.76-1.85,1.94-4.77,1.5-9.12h0Zm-6.17,11.21l-.47-.31s0,2.33,3.11,2.33,4.23-5.44,3.95-8.06c0,0-.84,3.7-2.18,5.41-1.34,1.71-3.48,1.37-4.42.62h0Zm.28,2.02c.25,2.81,4.82,2.31,5.94.28.69-1.24.62-4.23.62-4.23-.9,3.14-2.55,4.45-3.76,4.57-1.21.12-2.8-.62-2.8-.62h0Zm10.65-5.79l-.2-.15-.18,3s.74-.61,1.47-.81c.74-.2,1.52.21,2.15.51.63.3,1.27.3,1.75.23.48-.08,1.09-.97,1.65-1.02.56-.05,1.85.82,1.85.82v-2.55s-.23.59-.91.64c-.68.05-.74,0-1.07,0s-.88-.36-.88-.36c0,0-.56.31-.96.36h-.71c-.28,0-.61-.54-.79-.54s-1.12.49-1.52.51c-.41.03-1.01.05-1.65-.64h0Zm1.96,3.86c.53.46,1.38,1.3,2.46,1.15,1.08-.15,1.73-1.13,1.73-1.13-2.58.97-4.1-.29-4.1-.29l-.09.27h0Zm.79-6.99s.42-.15.76-.09c.34.06,1.52.88,2.06,1.29.54.42,1.74.71,2.3.2.56-.51.94-1.58.76-2.47-.18-.89-1.16-1.67-1.16-1.67l-.49.53s1.03.65,1,1.62c-.04.96-1.19,1.58-2.04,1.04-.85-.55-1.83-1.71-2.26-1.73-.43-.02-1.07,1.35-1.07,1.35l.14-.05h0Zm15.22-12.3c-3.11-3.35-8.43-3.36-9.53-2.87-1.1.49-2.45,1.5-1.98,1.97.47.47,1.42.08,1.42.08,1.13-.79,2.85-1.09,4.77-.75,1.91.34,4.02,1.54,4.5,1.84.49.3,1.05.04,1.05.04l-.23-.31h0Zm-9.62,6c.74,1.08,1.6,2.16,2.42,2.57.81.41,1.03-.24,1.03-.24l-2.51-2.48h2.68c2.22,0,3.01-1.39,3.01-1.39l2.71-.03.21-.31c-1.08-1.06-3.73-2.79-6.08-3.01-2.35-.22-3.95.43-3.95.43,1.6-1.3,3.35-1.87,5.5-1.2,2.15.67,4.43,2.79,4.43,2.79l.41-.19c-2.63-2.98-6.2-4.02-8.28-3.44-2.08.58-2.56,1.8-2.82,2.04-.26.24-.98-.29-.98-.29l-.65.58,2.87,4.16h0Zm.37-2.52c-.16,0-.29.13-.29.29s.13.29.29.29.29-.13.29-.29-.13-.29-.29-.29h0Zm5.11.45c-.16,0-.29.13-.29.29s.13.29.29.29.29-.13.29-.29-.13-.29-.29-.29h0Zm-.7-.64h-.62c-.2.61-.61,1.41-1.4,1.41-.7,0-1.04-.83-1.19-1.41h-.51s.3,1.98,1.71,1.98,1.9-1.52,2.02-1.98h0Zm8.02,20.64c.26-.05.76-.21,1.34-.5.58-.29.53-.92.53-.92-.03-1.82-1.42-2.84-2.71-2.66-1.29.19-2.29,1.53-1.79,3.66.5,2.13,2.37,2.42,3.32,2.32.95-.1,3.5-.87,3.98-2.69.47-1.82.6-4.78-.42-8.14-1.02-3.35-1.66-5.5-2.83-9.44-1.04-3.49-2.7-8.8-3.06-9.96-.39-.04-.78-.08-1.16-.11.61,1.95,3.59,11.54,4.83,16.11,1.38,5.1,1.89,8.53,1.42,10.16-.46,1.63-2.71,2.75-3.56,2.73-.85-.02-1.34-1.14-1.37-1.78-.02-.63.2-.63.41-.63s.22.22.29.97c.07.76.49.88.49.88h.29Zm-1.2-28.28c.47,1.44,3.1,9.41,4.56,14.4,1.61,5.5,2.49,8.15,2.28,11.21-.21,3.07-1.85,4.25-3.03,4.67,0,0,3.24.63,4.25-2.9,1.01-3.53-1.06-9.81-2.63-14.67-1.39-4.31-3.33-10.52-4.36-12.6-.35-.04-.71-.08-1.07-.11h0Zm1.68.18c.43,1.15,1.72,4.57,2.66,7.36,1.14,3.42,3.03,9.08,3.93,12.8.9,3.72.73,8.23-.82,9.34,0,0,1.46.49,2.46-1.26,1-1.74.29-6.47-.88-10.1-1.08-3.35-5.53-16.06-6.22-18.01-.37-.05-.75-.09-1.13-.13h0Zm1.72.21c.63,1.67,4.02,10.71,5.68,16.35,1.83,6.23,1.63,6.72,1.74,8.68.11,1.97-.34,3.51-1.08,4.25h1.25s1.87-2.81,1.08-7.37c-.72-4.15-6.2-18.74-7.7-21.78-.32-.04-.65-.09-.97-.13h0Zm1.63.22c.59.09,1.17.17,1.74.27.69,1.76,3.04,7.75,4.32,11.76,1.52,4.75,3.13,8.23,3.21,11.77.08,3.54-1.48,5.3-1.48,5.3h-1.21c1.4-1.79,1.25-6.15,1.13-7.56-.12-1.4-1.14-4.64-3.17-10.08-1.69-4.54-3.87-9.83-4.54-11.46h0Zm2.46.39c.49.09.96.17,1.42.27.95,2.53,4.67,12.54,5.62,15.49,1.09,3.38,1.77,4.53,1.63,7.89-.14,3.36-1.55,4.99-1.55,4.99h-.87c1.34-2.24,1.16-6.22,1.01-7.41-.15-1.19-1.37-4.9-3.11-10.06-1.56-4.64-3.74-10.12-4.15-11.16Z" style="fill: #fff; fill-rule: evenodd; stroke-width: 0px;"/>
            <path d="m65.77,35.84c.5-.02,1.74-.19,2.44-1.34,0,0,.85.96,1.99.87,1.14-.09,1.63-1.29,1.84-1.93,0,0-2.04.27-2.34-1.27-.29-1.54.92-2.49,1.83-2.43,0,0-.29-2.54,1.66-2.81,0,0,1.61-.14,1.73,2.58,0,0,2.25.64,2.19,2.16-.06,1.53-1.41,1.69-2.04,1.69.36,1.72,3.32,1.7,4.09.47,0,0,3.09,2.34,4.9.28,0,0-1.41-.31-2.22-1.59-.8-1.28.55-2.71,1.94-2.77,0,0-.75-2.83,1.57-2.97,2.33-.15,1.86,3.03,1.86,3.03,0,0,2.52-.03,2.39,1.76-.13,1.79-1.5,2.14-2.66,2.06,0,0,.75,1.63,2.21,1.81,1.46.18,2.35-1.2,2.35-1.2,0,0,1.17,1.45,2.7,1.43,1.53-.02,1.97-1.43,1.97-1.43,0,0-2.12-.79-1.97-2.21.14-1.43,1.64-1.59,2.42-1.59,0,0-.16-2.77,1.69-2.63,1.86.15,2.27,1.56,1.84,3.41,0,0,2.32.57,2.15,2.05-.17,1.48-1.37,1.91-3.19,1.42,0,0,1.53,2.53,3.82.85,0,0,1.74,2.15,3.62.59,0,0-1.49-.52-1.69-1.67-.2-1.16,1.19-2.55,2.68-1.97,0,0,.41-1.72,1.58-2.06.81-.23,1.55.39,1.93.8l-4.4,6.27c-.41.22-.93.42-1.57.5-1.72.2-3.72.18-5.03-.7-1.31-.88-2-2.33-1.96-3.13.05-.81.82-1.56.78-2.23-.05-.66-.28-.97-.96-.97,0,0-.81-.04-.86.92-.05.96.18,2.17-.8,3.44-.98,1.27-2.12,2-3.96,2s-3.41-.42-4.76-1.63c-1.34-1.2-1.43-2.36-1.39-3.37.04-1.01.21-1.78-.58-1.91-.79-.13-.88.34-.75,1.38.13,1.03.42,1.96-.54,3.25-.96,1.29-3.02,2.14-4.61,2.27-1.6.13-4.01-.79-5.5-3.34,0,0-.54-1.06-.61-1.72-.07-.65.36-.63.36-1.33s-.29-.65-.88-.7c-.58-.04-1.08.25-1.03.66.04.4.56,1.06.63,1.99.07.93-.11,2.87-2.35,3.73-1.47.56-3,.4-3.87.21l-.65-.99h0Zm-4.7-7.15l3.74,5.7c1.32-.87,1.24-2.08,1.24-2.08-.13-1.62-2.68-1.32-2.68-1.32.2-1.78-.46-2.58-1.36-2.58-.45,0-.75.14-.94.28h0Zm6.5,9.91l1.57,2.39s20.81-.39,33.48,2.27l3.23-4.6c-.99.71-2.47,1.46-4.03,1.15-2.72-.55-4.11-4.82-4.11-4.82,0,0-3.37,4.35-6.68,4.33-3.31-.02-5.44-5.24-5.44-5.24-2.22,4.07-4.87,5.66-7.45,4.65-2.58-1.01-5.01-4.27-5.01-4.27,0,0-.78,2.7-2.35,3.57-1.21.67-2.62.63-3.21.57Z" style="fill: #231815; fill-rule: evenodd; stroke-width: 0px;"/>
            <path d="m104.01,47.38h3.32v.99h-2.91l-.41-.99h0Zm-.7-1.68h4.02v.99h-3.61l-.41-.99h0Zm.09-1.67h3.93v.99h-4.3l-.12-.29.49-.7h0Zm1.29-1.86h2.64v1.18h-3.46l.82-1.18h0Zm1.15-1.66h1.49v1.18h-2.3l.82-1.18h0Zm2.37,0h4.8v1.2h-3.56v5.41h3.75v1.21h-4.99v-7.82h0Zm3.34,3.2c-.44,0-.79.38-.79.85s.36.84.79.84.8-.38.8-.84-.36-.85-.8-.85Z" style="fill: #fff; fill-rule: evenodd; stroke-width: 0px;"/>
            <path d="m114.14,51.18l.28-.02s-.31-4.34-.53-8.5c-.22-4.16.98-8.22,2.78-8.28,1.81-.05,1.86,2.8,1.86,3.18s-.9.55-1.78.81c-.88.25-1.1.53-1.1.53l1.25,1.01s-.82,6.53-.16,9.27l-.37.1s.05,2.94-1.53,4.97c0,0-.6.71-1.31.75-.71.04-1.39-.64-1.45-1.8-.06-1.16.89-1.78,2.08-2.01Z" style="fill: #ffe100; fill-rule: evenodd; stroke-width: 0px;"/>
            <path d="m123.79,44.52c.49,0,.89.4.89.89s-.4.89-.89.89-.89-.4-.89-.89.4-.89.89-.89h0Zm-2.55-.9c.49,0,.89.4.89.89s-.4.89-.89.89-.89-.4-.89-.89.4-.89.89-.89h0Zm7.88.63l-1.2-.03v1.42l1.2.68v-2.06h0Zm.27-3.05l-1.51-.73.15,3.11h1.3l.06-2.39h0Zm-11.9-1.89l-.66-.41s.68-.06,1.01-.15c.34-.09.68-.58,1.15-.69.47-.11.66.11.68.54.02.43-.43,1.41-1,1.61-.56.21-1.26.09-1.18-.9h0Zm3.02-.67l-.26-.6s2.37-.13,2.47,1.27c.1,1.39-.46,3.74-.46,3.74l-1.57.05s.21-2.7-.18-4.46h0Zm2.83,1.71v-.44s.12-.47-.06-.84c-.17-.38-.12-.87.44-.96.55-.09,1.04.14,1.07,1.25.03,1.11.12,4.86.12,4.86,0,0-.29-.41-.84-.38s-1.01.21-1.01.21c0,0-.09-1.14.09-2.13.17-.99.2-1.57.2-1.57h0Zm2.29,3.58l-.06-3.17s-.12-.9-.12-1.42.23-.61.7-.67c.46-.06,1.01.38,1.1,1.28.09.9.06,4.39.06,4.39,0,0-.67-.47-1.68-.41h0Zm-6.81-3.17l-1.57-.02s-.36,4.21-.18,6.81c.18,2.59.67,4.88,2.61,5.37,1.94.49,7.32-.61,7.32-.61,0,0,1.91-3.57,1.61-5.13,0,0-.88-.12-1.73.15-.85.27-2.46,1.1-3.28.91,0,0,.21-.43.79-.52.58-.09.76-.55.76-1.13,0,0-.55,0-.79.27-.24.27-1.28.27-1.76-.21,0,0,0,.73.09,1.68.09.95.06,2.11-.18,2.29,0,0,.76-2.81-2.77-4.76,0,0-.06-1.59.09-2.5.15-.92.36-2.62.22-4.01,0,0-.5,1.21-1.24,1.4h0Zm7.63,3.73c.49,0,.89.4.89.89s-.4.89-.89.89-.89-.4-.89-.89.4-.89.89-.89Z" style="fill: #fff; fill-rule: evenodd; stroke-width: 0px;"/>
            <g>
              <path d="m131.53,45.92l-1.07-.06s-.93-.02-.95-1.01c-.02-.99.74-1.38.74-1.38,0,0,.37-1.34.92-1.34s1.62.46,1.75,1.22c.12.76-.23,2.21-1.4,2.58Z" style="fill: #094; fill-rule: evenodd; stroke-width: 0px;"/>
              <path d="m131.5,42.39l-.34.02s.58.48.6,1.37c.02.89-.24.99-.53.99s-1.18-.46-1.28-.89c-.1-.43,0-2.17,0-2.17,0,0,1.5-.17,2.55.34,1.06.51,1.23,1.06,1.23,1.64s-.48,1.59-.96,2.36c-.48.77-.67.79-1.11.84-.44.05-1.52-.29-1.76-.58-.24-.29-.24-.84.43-.79.68.05,1.35-.1,1.78-.43.43-.34.34-1.23.31-1.71-.02-.48-.58-.87-.94-.99Z" style="fill: #ffe100; fill-rule: evenodd; stroke-width: 0px;"/>
            </g>
            <path d="m127.38,56.3c.33,0,.61.69.61,1.54s-.27,1.54-.61,1.54-.61-.69-.61-1.54.27-1.54.61-1.54h0Zm-3.91,5.04c-.53,2.65-1.37,4.05-1.37,4.05-.54-.64-1.32-2.8-1.76-4.09-.58-.04-1.08-.1-1.53-.17.53,1.87,2.14,7.31,3.29,7.91,0,0,1.7-1.4,2.15-7.74-.27.02-.53.03-.78.04h0Zm-1.16-4.04c.45,0,.82.66.82,1.46s-.37,1.46-.82,1.46-.82-.66-.82-1.46.37-1.46.82-1.46h0Zm-9.78,14.79l-.8.34s4.24-3.73,6.51-10.2c0,0,2.16,7.16,3.83,7.61,0,0,2.23-.19,2.92-7.69,0,0,2.69,6.58,5.42,9.06l-5.23-3.31-2.88,4.72s-3.37-4.91-3.75-5.18c-.38-.27-.79.46-1.66,1.26-.87.8-3.14,2.66-4.36,3.39h0Zm3.9-11.62c-.51,1.76-2.16,7.22-3.74,9.58,0,0,3.82-3.54,5.29-9.08-.72-.16-1.22-.35-1.55-.5h0Zm9.07.74c.65,1.62,2.65,6.31,5.11,9.08,0,0-1.81-4.67-2.98-9.31-.76.1-1.47.17-2.14.23h0Zm-.58-4.44c.46,0,.82.76.82,1.7s-.37,1.69-.82,1.69-.82-.76-.82-1.69.37-1.7.82-1.7h0Zm-7.54-1.34c-.96.53-1.51,2.49-1.18,3.7.25.93,2.86,1.62,4.82,1.62s5.69-.22,6.66-.43c.96-.22,1.12-2.4,1.03-3.11-.09-.72-1.03-1.59-1.68-1.49-.65.09-1.71.37-4.73.53-3.02.16-4.91-.81-4.91-.81h0Zm2.35,1.37c.45,0,.82.71.82,1.57s-.37,1.57-.82,1.57-.82-.71-.82-1.57.37-1.57.82-1.57h0Zm-2.39-.43c.38,0,.7.59.7,1.32s-.31,1.32-.7,1.32-.7-.59-.7-1.32.31-1.32.7-1.32h0Zm2.39-2.88c1.44.21,2.79.12,4.24-.12,1.83-.31,2.47-.46,2.9-.4.43.06.83.4.86.86.03.46-.55,1.01-1.31,1.28-.76.27-3.05.55-4.67.55s-3.94-.61-4.4-.85c-.46-.24.12-1.68.58-1.68s1.1.3,1.8.37h0Zm.61,7.81c.88.06,1.91.09,3.13.04-.53,2.65-1.37,4.05-1.37,4.05-.54-.64-1.32-2.8-1.76-4.09Z" style="fill: #ffe100; fill-rule: evenodd; stroke-width: 0px;"/>
            <path d="m130.84,72.58l-5.61-3.36-2.02,3.36h7.63Zm-9.57.08l-3.05-4.19s-2.27,2.82-4.99,4.19h8.05Z" style="fill: #e60012; fill-rule: evenodd; stroke-width: 0px;"/>
            <path d="m66.84,78.01c1.23.03,3.17-.13,4.38-.96,0,0,1.58.81,2.77-.13,1.19-.94,1.28-1.15,1.96-1.28.68-.13,1.92-1.03,2.26-2.31.34-1.28.51-2.44.51-2.44,0,0,2.9,8.78,7.88,9.04l-13.71,14.93c-1.86-6.99-4.12-12.68-6.06-16.83Z" style="fill: #e60012; fill-rule: evenodd; stroke-width: 0px;"/>
            <path d="m75.19,105.64l.66-.83-.91-.65c.08.49.17.98.24,1.47h0Zm20.23-31.77h-1.62l-20.65,21.91c.16.62.31,1.24.46,1.88l21.81-23.78h0Zm2.25,0l-1.68,2.87-.13.22.17.19.99,1.12-.43,1.22-1.59-1.42-.25-.23-.24.25-2.87,3.03-.23.24.24.24,2.84,2.85-2.74,3.12-1.26-1.32,1.18-1.37.19-.22-.18-.23-1.21-1.5-.24-.3-.28.27-3.25,3.19-.23.23.21.25,2.72,3.24-2.3,2.49-.82-.84,1.07-1.39.18-.23-.2-.22-1.44-1.57-.25-.27-.26.26-3.32,3.34-.23.23.21.25,2.45,2.88-2.14,2.49-.77-.71.87-.96.2-.22-.19-.24-1.57-1.94-.26-.33-.27.32-2.92,3.45-.19.22.18.22,2.52,3.08-1.92,2.23-1.11-.98,1.17-1.22.21-.22-.2-.24-1.35-1.65-.23-.28-.27.25-2.15,1.92c-.1-.48-.21-.96-.32-1.44l22.56-24.61h1.3Zm-3.23,11.72c-.38,1.04-.75,2.08-1.1,3.11l-17.83,19.1c-.06-.41-.12-.81-.18-1.22l1.3-1.62.23-.29-.3-.21-1.79-1.28c-.15-.84-.31-1.66-.48-2.47l2.18-1.95.92,1.13-1.21,1.26-.25.26.27.24,1.64,1.46.26.23.23-.27,2.34-2.72.19-.22-.19-.23-2.52-3.08,2.46-2.91,1.12,1.38-.9,1-.23.26.26.24,1.3,1.19.27.24.24-.27,2.57-2.99.2-.23-.2-.23-2.44-2.86,2.83-2.85,1,1.09-1.08,1.4-.19.24.21.22,1.29,1.32.26.26.25-.27,2.76-2.98.21-.23-.2-.24-2.71-3.23,2.74-2.69.79.98-1.2,1.39-.21.24.22.23,1.75,1.83.26.28.25-.29,2.4-2.74h0Zm2.06-5.25c-.51,1.23-1.01,2.45-1.47,3.66l-2.63-2.64,2.4-2.54,1.7,1.52h0Zm2.9-6.47h-1.19l.2.12-1.69,2.89.85.95c.58-1.31,1.19-2.63,1.83-3.96Z" style="fill: #ffe100; fill-rule: evenodd; stroke-width: 0px;"/>
            <path d="m104.18,77.55c.48,0,.88.39.88.88s-.39.88-.88.88-.88-.39-.88-.88.39-.88.88-.88h0Zm-3.93-3.35c-26.5,52.75-1.72,97.7,1.38,102.95.91-.31,2.64-.93,4.78-1.79l-1.86-1.38,1.44-.11-.06-1.76,1.33.74.68-1.36.72,2.92c1.68-.72,3.49-1.57,5.28-2.5-5.25-5.8-7.1-9.3-8.69-12.55-1.68-3.44-4.18-9.7-4.18-9.7l-4.22-.24-.52,3.19-3.25-4.35,1.44-.08c.15-.8.48-1.76.48-1.76-.94-.08-2.43-.67-2.5-1.49-.07-.82.54-1.27.54-1.27,0,0-1.2-.73-1.13-2.02.07-1.3,1.63-1.78,1.63-1.78-.71-1.79.25-3.14,2.1-3,.23-1.09,1.46-1.43,1.46-1.43-1.66-7.93-1.63-16.88-.51-24.98-.13.31-.43.53-.79.53-.47,0-.85-.38-.85-.85s.38-.85.85-.85c.44,0,.8.34.85.76.79-5.52,2.1-10.61,3.73-14.68,4.17-10.38,13.63-21.13,13.63-21.13h-6.53l-.68,3.29-1.03-1.04-1.11.66v-1.24h-1.55l1.56-1.68h-4.42Zm-.96,12.6c.47,0,.85.38.85.85s-.38.85-.85.85-.85-.38-.85-.85.38-.85.85-.85h0Zm-4.7,7.21l4.04-4.88-.17,6.36-1.04-1.12-1.4,1.33.02-1.99-1.45.3h0Zm8.04,64.48c.47,0,.85.38.85.85s-.38.85-.85.85-.85-.38-.85-.85.38-.85.85-.85h0Zm1.71,11.58l-4.36-3.56,1.55-.15v-1.85l1.4.73,1.2-.82.21,5.64h0Zm.59.12c.47,0,.85.38.85.85s-.38.85-.85.85-.85-.38-.85-.85.38-.85.85-.85h0Zm-4.33-92.31c.48,0,.88.39.88.88s-.39.87-.88.87-.88-.39-.88-.87.39-.88.88-.88h0Zm-2.86,21.61c.47,0,.85.38.85.85s-.38.85-.85.85-.85-.38-.85-.85.38-.85.85-.85h0Zm-.28,61.78c.47,0,.85.38.85.85s-.38.85-.85.85-.85-.38-.85-.85.38-.85.85-.85h0Zm3.82-71.25c.47,0,.85.38.85.85s-.38.85-.85.85-.85-.38-.85-.85.38-.85.85-.85h0Zm-5.4,6.1c.47,0,.85.38.85.85s-.38.85-.85.85-.85-.38-.85-.85.38-.85.85-.85h0Zm-3.81,19.85c.47,0,.85.38.85.85s-.38.85-.85.85-.85-.38-.85-.85.38-.85.85-.85h0Zm-2.29,16.31c.47,0,.85.38.85.85s-.38.85-.85.85-.85-.38-.85-.85.38-.85.85-.85h0Zm4.15,19.59c.47,0,.85.39.85.86s-.38.85-.85.85-.85-.38-.85-.85.38-.86.85-.86h0Zm-.35-45.74c.47,0,.85.38.85.85s-.38.85-.85.85-.85-.38-.85-.85.38-.85.85-.85h0Zm.42,8.88l-.94-.81-1.08,1.12-.07-1.25-1.68.37,3.3-6.05.47,6.62h0Zm3.04,38.02c.47,0,.85.38.85.85s-.38.86-.85.86-.85-.38-.85-.86.38-.85.85-.85h0Zm3.33,8.21l-4.3-4,1.5-.11-.04-2.06,1.4.88,1.21-1.1.22,6.39h0Zm1.84-74.15l-.97-1.3-1.72.64.14-1.54-1.56-.28,5.31-4.89-1.2,7.38h0Zm-6.25-.59c.47,0,.85.38.85.85s-.38.86-.85.86-.85-.38-.85-.86.38-.85.85-.85h0Zm-6.48,32.32c.47,0,.85.38.85.85s-.38.85-.85.85-.85-.38-.85-.85.38-.85.85-.85h0Zm6.35-13.59l-1.1-.96-1.27,1.36-.26-1.81-1.44.42,3.4-5.35.68,6.34h0Zm5.91,65.81c.47,0,.85.38.85.85s-.38.85-.85.85-.85-.38-.85-.85.38-.85.85-.85h0Zm3.94-89.72c.48,0,.88.39.88.88s-.39.88-.88.88-.88-.39-.88-.88.39-.88.88-.88h0Zm-15.05,26.24c.47,0,.85.38.85.85s-.38.85-.85.85-.85-.38-.85-.85.38-.85.85-.85h0Zm1.55,17.89c.47,0,.85.38.85.85s-.38.85-.85.85-.85-.38-.85-.85.38-.85.85-.85h0Zm-.77,17.73c.47,0,.85.38.85.85s-.38.85-.85.85-.85-.38-.85-.85.38-.85.85-.85h0Zm3.68-11.14c.47,0,.86.38.86.85s-.38.85-.86.85-.85-.38-.85-.85.38-.85.85-.85h0Zm4.79,18.26c.47,0,.85.38.85.85s-.38.85-.85.85-.85-.38-.85-.85.38-.85.85-.85h0Zm-4.96-31.66c.47,0,.85.38.85.85s-.38.85-.85.85-.85-.38-.85-.85.38-.85.85-.85h0Zm-3.42,10.66l.66-1.82,1.09,1.28,1.46-.62-2,6.12-2.62-5.1,1.42.15h0Zm15.51,37.15c.47,0,.85.38.85.85s-.38.86-.85.86-.86-.38-.86-.86.38-.85.86-.85h0Zm-14.26-69.16c.47,0,.85.38.85.85s-.38.85-.85.85-.85-.38-.85-.85.38-.85.85-.85h0Zm1.32,27.67l-1.52-.78-.3.88-1.05-1-1.21,1.3,2.18-7.06,1.9,6.64h0Zm6.77,37.55c.47,0,.85.39.85.85s-.38.85-.85.85-.85-.38-.85-.85.38-.85.85-.85h0Zm-8.07-27.86c.47,0,.85.38.85.85s-.38.85-.85.85-.85-.38-.85-.85.38-.85.85-.85Z" style="fill: #fff; fill-rule: evenodd; stroke-width: 0px;"/>
            <path d="m110.86,79.55c.75.68,2.81,2.64,4.2,4.77,1.73,2.64,4.51,8.03,4.22,18.72-.28,10.55-5.71,24.86-21.64,30.53-.07-.51-.15-1.15-.23-1.9,10.47-4.51,17.98-13.59,19.61-24.29,1.67-10.94-1.5-18.29-3.43-21.63-1.5-2.6-3.31-3.93-4.04-4.4.44-.63.88-1.23,1.3-1.79Z" style="fill: #ffe100; fill-rule: evenodd; stroke-width: 0px;"/>
            <path d="m97.42,131.66c-.59-5.46-1.3-16.93,1.4-28.28,1.99-8.38,6.75-16.4,10.74-22.04.73.46,2.54,1.79,4.04,4.4,1.93,3.34,5.1,10.69,3.43,21.63-1.63,10.7-9.14,19.79-19.61,24.29Z" style="fill: #231815; fill-rule: evenodd; stroke-width: 0px;"/>
            <path d="m100.73,97.33c.34.52.83,1.55,1.04,3.26.31,2.62,1.11,8.92-4.54,12.87-.06.71-.12,1.42-.16,2.12.94-.61,3.72-2.65,5.24-6.3,1.8-4.3,1.71-10.31-.79-13.88-.27.64-.54,1.28-.79,1.93h0Zm-3.55,31.7c-.05-.58-.09-1.19-.13-1.83.85-.62.57-2.21.57-2.21l2.71-1.22c1.78,1.89,2.89,1.25,3.25.26.36-.99.39-3.61.39-3.61l2.51-2.38s.92.43,1.84.28c.92-.14,1.56-1.07,1.56-2.03s-.78-2.17-.78-2.17l1.26-4.42s.21-.02,1.16-.47c.95-.45,1.4-1.19,1.29-2.38-.11-1.19-1.44-1.94-1.44-1.94l-.03-4.32c.64-.17,1.68-1.09,1.6-2.6-.08-1.51-2.78-2.27-2.78-2.27l-.97-3.56c.99-.96,1.11-2.4,1.05-3.21-.06-.81-.72-1.29-1.35-1.31-.63-.02-1.57.44-1.57.44l-1.3-1.36c.19-.31.38-.62.56-.92l.76.88c1.04-.06,3.51-.27,3.94,1.95.43,2.23-.76,3.39-.76,3.39l.76,2.69c.85.49,2.82,1.54,2.82,3.57s-2.16,3.51-2.16,3.51l.06,2.18c2.53.73,2.21,3.21,2.21,3.21-.09,3.3-3.47,3.88-3.47,3.88l-.84,2.35c.86.45,1.75,2.71.7,4.6-1.05,1.88-3.68,1.44-3.68,1.44l-1.74,1.6c.52,3.75-.59,4.48-2.36,4.83-1.77.35-2.78-.76-2.78-.76l-1.49.66c-.37,2.05-1.02,2.92-1.37,3.26h0Zm-.28-5.62c-.01-.64-.02-1.3-.02-1.97,7.78-3.35,10.04-8.7,10.78-14,.75-5.38.42-9.12-.5-12.45-.76-2.77-2.31-4.77-2.81-5.36.23-.42.47-.84.7-1.25,4.58,4.94,4.69,10.04,4.26,16.66-.44,6.73-3.26,11.41-6.17,14.24-2.43,2.37-5.34,3.74-6.24,4.12h0Zm7.77-11.71l-2.5,2.02.4-3.64,2.09-1.69v3.32h0Zm1.21-15.96l-.34,2.85-2.06-1.52.13-3.31,2.27,1.98h0Zm1.16,8.44l-1.6,2.22-1.48-3.24,1.67-2.12,1.41,3.14h0Zm-6.88,14.52l-2.81-.55,1.25-2.72,3.42.37-1.86,2.9Z" style="fill: #ffe100; fill-rule: evenodd; stroke-width: 0px;"/>
            <path d="m93.33,88.7l-17.83,19.1c.19,1.39.36,2.81.5,4.26l15.47-17.43c.56-1.96,1.18-3.93,1.85-5.93Z" style="fill: #231815; fill-rule: evenodd; stroke-width: 0px;"/>
            <path d="m112.12,124.31v11.22l5.18-5.64h5.78v-33.62l-4.44-5.43c.2.72.38,1.48.52,2.26,1.57,8.88,1.37,21.45-7.04,31.21Z" style="fill: #e60012; fill-rule: evenodd; stroke: #e4007f; stroke-miterlimit: 22.93; stroke-width: 0px;"/>
            <path d="m133.98,108.78l-14.09-17.52h1.95l12.14,13.5v4.02h0Zm0-18.02v-1.68c-3.4-.08-7.01-3.69-7.01-3.69-3.39,3.19-8.43,2.28-9.6,2.01.44.97.84,2.03,1.18,3.15,6.34.44,8.24-2.58,8.24-2.58,1.52,1.78,5.71,2.56,7.19,2.79Z" style="fill: #ffe100; fill-rule: evenodd; stroke-width: 0px;"/>
            <path d="m125.86,99.66v30.22h-1.59v-32.17l1.59,1.94h0Zm8.12,30.22v-20.31l-.84-1.02v.64h-4.48v-1.86h3.48l-1.14-1.39h-2.34v-1.86h.82l-2.51-3.06v28.86h7.01Zm-5.32-3.03h4.48v1.86h-4.48v-1.86h0Zm0-3.25h4.48v1.86h-4.48v-1.86h0Zm0-3.25h4.48v1.86h-4.48v-1.86h0Zm0-3.25h4.48v1.86h-4.48v-1.86h0Zm0-3.25h4.48v1.86h-4.48v-1.86h0Zm0-3.25h4.48v1.86h-4.48v-1.86Z" style="fill: #fff; fill-rule: evenodd; stroke-width: 0px;"/>
            <path d="m98.55,148.19l-.03.2c-.83-.12-1.55-.28-1.99-.48,0,0,.04-1.29.46-1.62.41-.33,1.4.46,1.56,1.89h0Zm-2.66-1.68l-.37.5s-.37-.29-.35-.56c.02-.27.72-.17.72.06h0Zm6.16-8.55s-3.5-.07-5.53-.12c.44.86.07,1.84-.16,2.3h4.69v.65h-6.04c.58.76.62,1.65.6,2.12h5.95v.65s-3.79-.1-5.73-.06c-.04,1.11.24,1.66.52,1.95,2.12.29,6.46.87,6.46.87v.5l-4.12-.29.55,1.94c2.16.24,4.75.24,5.54.05,1.2-.29,3.34-2.4,3.34-2.4l.27-8.24c0-.71-1.31-2.01-3.3-2.3-1.33-.2-4.19-.11-6.35.47l.08,1.35,3.2.11.02.44h0Zm-3.83-.57l-1.9-.07c.35-.43.97-.78,1.73-1.04.11.17.24.5.17,1.11h0Zm-2.83,2.76h-.12c-.58,0-.93-.62-.98-1.31-.05-.68.49-1.02.84-1.02,0,0,.02,0,.04,0,.37.09.96.3,1.05.79.1.54-.36,1.2-.83,1.54h0Zm-.63,2.77h-.21s-1.21.02-1.5-.85c-.29-.87.45-1.27.85-1.27h.14c.23.09.52.3.72.75.25.59.16,1.07.01,1.37h0Zm.64,2.41s-.06,0-.09-.01c-.87-.13-1.67-.31-1.78-.66,0,0,.33-.9,1.25-1.08.18.08.38.23.48.53.19.52.18.86.13,1.22Z" style="fill: #fff; fill-rule: evenodd; stroke-width: 0px;"/>
            <path d="m108.99,145.85l.22-8.62s.81-.37,1.29-.41c.48-.04,1.04.85,1.15,2.55.11,1.7-.37,6.62-.85,6.81-.48.19-1.7.07-1.81-.33h0Zm2.71-8.67c.11.29.26.74.38,1.3l2.73.38s1.02-1.64,1.64-3.88c.62-2.23.59-3.23.59-3.23-1.11,2.26-5.31,5.41-5.31,5.41l-.03.02h0Zm.5,1.9c.88.03,2.26.15,3.21.56,1.49.63,2.61,1.43,2.55,2.16-.06.69-1.62,1.87-5.99,2.5.08-.38.15-.79.21-1.21,2.75-.72,3.18-1.41,3.17-1.75-.02-.39-.82-1.14-1.81-1.22-.38-.03-.82-.06-1.22-.08-.02-.34-.06-.65-.11-.95h0Zm.14,1.54c.01.64-.03,1.29-.09,1.92,1.5-.35,2.5-.8,2.5-1.15,0-.43-.89-.7-1.47-.74-.21-.02-.56-.03-.94-.02h0Zm1.72,3.77c.79-.14,1.68-.35,2.51-.66,3.78-1.4,1.2-4.09-1.12-4.74,0,0,2.02-4.33,2.24-6.83,0,0,.2.31.25,2.76.06,2.45-.45,3.77-.45,3.77,0,0,3.48,1.36,3.43,2.86-.05,1.5-3.08,3.43-3.85,3.7,0,0,.14,2.32-.16,4.13-1.2-3.11-1.7-3.65-2.85-4.99h0Zm-.38.06c-.81.13-1.47.18-1.78.21-.09.38-.18.72-.27,1.02l5.01,5.54c-.36-2.86-2.14-5.63-2.96-6.77Z" style="fill: #ffe100; fill-rule: evenodd; stroke-width: 0px;"/>
            <path d="m102.3,149.54h3.07s2.96-1.71,3.13-2.49h3.13l5.18,5.98c-4.79,3.45-8.49,5.26-10.58,6.13-2.41-4.73-3.69-8.81-3.93-9.62h0Zm15.4.32l5.76-2.17-.59.52c-1.81,1.58-3.53,2.95-5.14,4.15l-.03-2.49Z" style="fill: #e60012; fill-rule: evenodd; stroke: #e4007f; stroke-miterlimit: 22.93; stroke-width: 0px;"/>
            <path d="m120.79,143.04c1.54-.72,8.25-4.09,13.2-10.02v3.14c-3.17,3.11-10.39,9.55-16.33,10.04v-.72c1.05-.37,2.39-1.34,3.13-2.44h0Zm13.2-11.02v-1.39l-1.67.11s-5.13,6.79-11.39,9.5c.2.29.34.62.4.95.05.31,0,.64-.09.96,4.87-2.01,10.25-7.08,11.67-8.77.44-.52.8-.98,1.09-1.38h0Zm-16.32,14.89l.02,1.81,7.07-2.21c2.77-2.54,5.73-5.54,8.82-9.09-2.39,2.07-7.82,6.32-10.82,7.8-2.53,1.25-4.43,1.59-5.1,1.68h0Zm-.12,5.58h0s0,0,0,0h0Zm1.13-14.11c.44.24,1.23.72,1.84,1.37,2.3-.65,4.98-2.69,7.16-4.68,2.27-2.07,4.03-4.26,4.03-4.26l-2.88-.12c-3.85,4.45-9.19,7.21-10.15,7.69h0Zm-.19-2.6c0,.63-.04,1.33-.1,2.08,6.36-3.1,9.71-7.11,9.71-7.11l-2.9-.03c-2.59,3.19-5.8,4.68-6.71,5.05h0Zm-.14-2.67c.55-.47,1.74-1.51,2.6-2.47h-3.18l.04.05s.34.8.54,2.42h0Zm6.22-2.29l-3-.04s-1.15,1.59-3.16,2.91c.04.47.07,1,.08,1.59.82-.35,3.43-1.63,6.08-4.47Z" style="fill: #ffe100; fill-rule: evenodd; stroke-width: 0px;"/>
            <path d="m133.98,73.86h-18.53c-.75.85-2.31,2.66-4.2,5.17.49.42,1.91,1.72,3.44,3.8h19.29v-8.97Z" style="fill: #231815; fill-rule: evenodd; stroke-width: 0px;"/>
            <path d="m133.14,143.1c.45,0,.82.37.82.82s-.37.82-.82.82-.82-.37-.82-.82.37-.82.82-.82h0Zm.85,8.95v-1.5c-.1-.05-.21-.07-.33-.07-.45,0-.82.37-.82.82s.37.82.82.82c.12,0,.23-.03.33-.07h0Zm-3.08-6.42c.45,0,.82.37.82.82s-.37.82-.82.82-.82-.37-.82-.82.37-.82.82-.82h0Zm-2.18,2.23c.45,0,.82.37.82.82s-.37.82-.82.82-.82-.37-.82-.82.37-.82.82-.82h0Zm-2.33,2.58c.45,0,.82.37.82.82s-.37.82-.82.82-.82-.37-.82-.82.37-.82.82-.82h0Zm-2.79,2.22c.45,0,.82.37.82.82s-.37.82-.82.82-.82-.37-.82-.82.37-.82.82-.82h0Zm-2.63,1.69c.45,0,.82.37.82.82s-.37.82-.82.82-.82-.37-.82-.82.37-.82.82-.82h0Zm-2.63,2.22c.45,0,.82.37.82.82s-.37.82-.82.82-.82-.37-.82-.82.37-.82.82-.82h0Zm-2.85,1.82c.45,0,.82.37.82.82s-.37.82-.82.82-.82-.37-.82-.82.37-.82.82-.82h0Zm-2.94,1.81c.45,0,.82.37.82.82s-.37.82-.82.82-.82-.37-.82-.82.37-.82.82-.82h0Zm-2.75,1.69c.45,0,.82.37.82.82s-.37.82-.82.82-.82-.37-.82-.82.37-.82.82-.82h0Zm3.71,5.1c.45,0,.82.37.82.82s-.37.82-.82.82-.82-.37-.82-.82.37-.82.82-.82h0Zm2.86-1.93c.45,0,.82.37.82.82s-.37.82-.82.82-.82-.37-.82-.82.37-.82.82-.82h0Zm2.94-1.74c.45,0,.82.37.82.82s-.37.82-.82.82-.82-.37-.82-.82.37-.82.82-.82h0Zm2.51-2.05c.45,0,.82.37.82.82s-.37.82-.82.82-.82-.37-.82-.82.37-.82.82-.82h0Zm2.36-1.86c.45,0,.82.37.82.82s-.37.82-.82.82-.82-.37-.82-.82.37-.82.82-.82h0Zm2.6-2.22c.45,0,.82.37.82.82s-.37.82-.82.82-.82-.37-.82-.82.37-.82.82-.82h0Zm2.6-2.19c.45,0,.82.37.82.82s-.37.82-.82.82-.82-.37-.82-.82.37-.82.82-.82h0Zm2.36-2.22c.45,0,.82.37.82.82s-.37.82-.82.82-.82-.37-.82-.82.37-.82.82-.82Z" style="fill: #ffe100; fill-rule: evenodd; stroke-width: 0px;"/>
            <path d="m83.75,122.71h3.35c-.04,1.09-.06,2.17-.07,3.23h-3.28v-3.23h0Zm-7.27,3.23c.03-1.09.03-2.17.03-3.23h3.25v3.23h-3.28Zm3.58,1.28h3.43v3.23h-3.43v-3.23h0Zm-.04-9.05h3.43v3.23h-3.43v-3.23Z" style="fill: #ffe100; fill-rule: evenodd; stroke-width: 0px;"/>
          </g>
          <g>
            <path d="m71.39,156.36l16.37-18.03c-.24-2.06-.42-4.18-.54-6.37h-11.08c-.64,7.64-2.12,15.81-4.75,24.4Z" style="fill: #e60012; fill-rule: evenodd; stroke-width: 0px;"/>
            <path d="m29.59,110.77c12.98-15.24,23.7-20.74,27.25-22.26-2.06-3.86-4.85-8.02-8.45-11.15-.19.11-.39.21-.58.32-6.87,3.9-10.1,6.85-13.75,10.05-1.54,1.36-3.15,2.74-4.48,3.87v19.16Z" style="fill: #ffe100; fill-rule: evenodd; stroke-width: 0px;"/>
            <path d="m56.04,87.06c-.61-1.06-1.27-2.12-1.98-3.18-10.62,4.76-19.51,13.06-24.46,18.32v5.63c14.47-14.86,23.06-19.42,26.45-20.78h0Zm-3.37-5.09c-1.73.88-8.22,4.3-13.65,9.03-4.12,3.59-7.54,7.12-9.43,9.15v-5.89c3.43-3.21,12.04-10.84,20.64-15.14.87.91,1.68,1.86,2.44,2.86Z" style="fill: #231815; fill-rule: evenodd; stroke-width: 0px;"/>
            <path d="m103.76,221.84l-9.33-14.21s-20.81.39-33.48-2.27l-11.56,16.48h54.37Z" style="fill: #ffe100; fill-rule: evenodd; stroke-width: 0px;"/>
            <path d="m97.28,171.83l.67,1.46c-.61-.02-1.92-.03-2.92.16-1.36.26-2.96,1.22-3.91,3.61-.96,2.39-.67,3.44-.41,3.44s.37-.3.35-.53c0,0,.23-2.21.9-3.55.65-1.3,2.31-3.02,6.3-2.47l.66,1.46c-1.94-.12-3.2.11-4.77,1.24-1.68,1.2-2.13,3.53-2.17,4.25-.04.71-.03,1.13.22,1.11.25-.02.35-.23.37-.51.02-.29.02-1.68.74-3.01.72-1.33,2.35-2.44,3.91-2.54,1.07-.07,1.74.09,2.05.2l.75,1.64s-1.2-.78-2.99-.46c-1.79.32-3.68,2.07-3.54,4.92.07,1.41.33,7.55.58,13.37-.66-.57-1.68-1.07-2.6-1-1.12.09-2.88.75-2.88.75,0,0,1.64-2.02,2.11-2.96.47-.94.11-1.14.11-1.14l-2.47,3s.74-3.79.79-4.69c.04-.9-.09-1.17-.09-1.17-.57-1.05-2.76-1.57-2.76-1.57l2.4,2.25c-.58,2.99-1.71,7.76-1.43,10.63.27,2.87,2.46,3.86,4.38,3.69,1.26-.11,2.23-.43,2.76-.64.07,1.66.12,2.98.16,3.71-1.36,0-12.06-.06-22.28-.96-.23-.88-.85-3.19-1.27-4.32-.52-1.42-2.26-7.77-3.47-11.66-1.22-3.89-1.69-7.62-1.72-8.62-.03-1,.62-2.27.62-2.27,0,0,.1,1.26,1.01,2.11-.29,1.09-.51,2.73.47,5.51,1.08,3.07,1.93,4.69,1.93,4.69l.6-.25-.25-.35s-2.03-3.96-2.31-6.11c-.21-1.63-.03-2.69.07-3.12.18.1.38.19.61.26.09.03.17.05.25.07.14,2.77,1.03,4.85,1.56,5.78.55.96.92,1.45,1.08,1.43.16-.02.51-.35,0-.9-.51-.55-1.43-2.38-1.73-3.65-.24-1.01-.26-2.14-.27-2.56.34.02.65,0,.93-.08.01.42.06,1.72.13,2.55.08,1.01,1.31,2.56,1.31,2.56,0,0,.61-.38.48-.5-.13-.12-.98-1.19-1.19-2.02-.22-.83-.06-2.4-.06-2.4l2.31,3,.53-.45-2.57-3.24c.47-.41.78-1,.93-1.65.77.58,1.63,1.83,2.11,2.6.53.86.57,1.1,1,1.04.43-.06.22-.57-.8-1.98-.83-1.15-1.87-2.07-2.22-2.37.08-1.56-.67-3.23-2.14-3.59,0,0,.7-.78,1.58-1.72-.08,1.31.21,2.95,1.84,3.91.03.02.07.04.1.06.41.75,1.35,2.49,1.69,3.14.43.84.55,1.21.89,1.15.35-.06.03-.69.03-.69l-1.59-3.28c.22.02.44,0,.65-.03.64.51,1.83,1.93,2.22,2.46.44.58.57.75.78.54.21-.21-.19-.76-.19-.76-.49-.64-1.79-2.02-2.2-2.45.41-.23.75-.59.98-1.06.61.25,1.54,1.28,1.94,1.94.44.72.44,1.01.84.98.41-.03.18-.85-.95-2.03-.74-.78-1.32-1.21-1.62-1.41.04-.14.07-.28.1-.43.05-.31.07-.6.08-.85,1.79.43,2.78,2.76,3.04,3.54.27.83.3,1,.67.9.37-.1-.13-1.27-.13-1.27,0,0-1.31-3.22-3.6-3.79-.12-.93-.48-1.38-.48-1.38,4,.51,5.29,4.95,5.39,5.56.1.61.95.24.75-.14-.2-.37-.61-1.25-.61-1.25,0,0-.78-2.58-3.32-4.1-2.54-1.52-4.54-.81-5.05-.03-.51.78-.71,2.24.2,2.64.92.41,1.49-.07,1.56-.27.07-.2-.81-.13-1.15-.13s-.51-.37-.41-1.09c.1-.71.34-1.15,1.09-1.22.75-.07,1.66.88,1.42,2.61-.24,1.73-1.29,1.97-1.93,1.97s-2.07-.92-2.27-2.41c-.13-.94-.03-1.66.1-2.16.87-.89,1.76-1.76,2.29-2.13,1.29-.89,3.5-.96,5.32.96,1.82,1.92,2.28,3.41,3.08,5.39.79,1.98,1.29,2.05,1.69,2.02.4-.03.86-.2,1.34-2.27.48-2.06,1.2-2.28,1.73-2.28,0,0-1.07,2.95-1.15,3.65,0,0-.13.65.21.62.35-.03.48-.67.8-2.15.32-1.47,1.49-4.45,3.97-3.86,0,0-2.48,2.55-2.96,5.84,0,0-.03.56.19.56s.35-.21.67-1.45c.32-1.23,1.44-3.81,2.96-4.82,1.52-1.02,3.95-.8,4.59-.72h0Zm-2.31,23.25v5.41s.23-3.61,1.9-5.02c-.32-.75-.7-1.77-.21-1.72.46.04.67,1.03.74,1.39.12-.06.24-.1.38-.14,0,0,1.38.1,1.74-.99.36-1.09-.34-2.21-1.42-2.24-1.08-.03-2.9,2-3.12,3.32h0Zm-.61,5.16s-1.08.39-1.93.57c-.86.18-1.83.35-2.41.13-.58-.22-1.31-.13-1.31-.13.75.92,1.66,1.71,3.47,1.45,1.81-.26,2.14-1.8,2.14-1.8l.05-.22h0Zm-.71-1.19c-1.32.21-4.65.61-5.51-.7.06,2.46,5.38,2.61,5.75.66l-.24.04h0Zm.37-2.02c.16,0,.29-.13.29-.29s-.13-.29-.29-.29-.29.13-.29.29.13.29.29.29h0Zm-5.09-.38c.16,0,.29-.13.29-.29s-.13-.29-.29-.29-.28.13-.28.29.13.29.28.29h0Zm4.31.78c-.2-1.12-.57-2.27-1.96-2.21-1.09.05-1.56,1.97-1.56,1.97h.62s.28-1.4,1.23-1.28c.95.12,1.16,1.52,1.16,1.52h.52Zm1.53-4.45l.06.79s.58-3.8,1.24-5.98c.66-2.17,1.61-4.03,2.59-4.32.98-.29,2.26-.09,2.4.55.14.64-.32.7-.58.7s-.66-.36-1.3-.34c-.63.01-.79.65-.7,1.19.09.54.98,1.04,1.51,1.02.52-.02,1.47-.59,1.63-2.14.16-1.54-1.06-2.63-2.19-2.71-1.13-.08-2.41.27-3.17,2.12-.76,1.85-1.94,4.77-1.5,9.12h0Zm6.17-11.21l.47.31s0-2.33-3.11-2.33-4.23,5.44-3.95,8.06c0,0,.84-3.7,2.18-5.41,1.34-1.71,3.48-1.37,4.42-.62h0Zm-.28-2.02c-.25-2.81-4.82-2.31-5.94-.28-.68,1.24-.62,4.23-.62,4.23.9-3.14,2.55-4.45,3.76-4.57,1.21-.12,2.8.62,2.8.62h0Zm-10.65,5.79l.2.15.18-3s-.73.61-1.47.81c-.74.2-1.52-.2-2.15-.51-.63-.3-1.27-.3-1.75-.23-.48.08-1.09.97-1.65,1.02-.56.05-1.85-.82-1.85-.82v2.55s.23-.59.91-.64c.68-.05.74,0,1.06,0s.89.36.89.36c0,0,.56-.31.96-.36h.71c.28,0,.61.54.78.54s1.11-.49,1.52-.51c.41-.03,1.01-.05,1.65.64h0Zm-1.96-3.86c-.53-.46-1.39-1.3-2.46-1.15-1.08.15-1.73,1.13-1.73,1.13,2.58-.97,4.1.29,4.1.29l.09-.27h0Zm-.79,6.99s-.42.15-.76.09c-.34-.06-1.52-.87-2.06-1.29-.54-.42-1.74-.71-2.3-.2-.56.51-.94,1.58-.76,2.47.18.89,1.16,1.67,1.16,1.67l.49-.53s-1.03-.65-1-1.62c.04-.96,1.2-1.58,2.05-1.04.85.54,1.83,1.71,2.26,1.73.43.02,1.07-1.35,1.07-1.35l-.15.06h0Zm-15.22,12.3c3.11,3.35,8.43,3.36,9.53,2.87,1.1-.49,2.45-1.5,1.98-1.97-.47-.47-1.42-.08-1.42-.08-1.13.79-2.85,1.09-4.77.75-1.92-.34-4.02-1.54-4.51-1.84-.49-.3-1.05-.04-1.05-.04l.23.31h0Zm9.62-6c-.74-1.08-1.6-2.16-2.42-2.57-.81-.41-1.03.24-1.03.24l2.51,2.48h-2.68c-2.23,0-3.02,1.39-3.02,1.39l-2.7.03-.22.31c1.08,1.06,3.73,2.79,6.08,3.01,2.35.22,3.95-.43,3.95-.43-1.6,1.3-3.35,1.87-5.5,1.2-2.15-.67-4.43-2.79-4.43-2.79l-.41.19c2.63,2.98,6.2,4.02,8.28,3.44,2.08-.58,2.56-1.8,2.82-2.04.26-.24.98.29.98.29l.65-.58-2.87-4.16h0Zm-.37,2.52c.16,0,.29-.13.29-.29s-.13-.29-.29-.29-.29.13-.29.29.13.29.29.29h0Zm-5.11-.44c.16,0,.29-.13.29-.29s-.13-.29-.29-.29-.29.13-.29.29.13.29.29.29h0Zm.71.64h.62c.2-.61.61-1.41,1.4-1.41.7,0,1.04.83,1.19,1.41h.51s-.3-1.98-1.71-1.98-1.9,1.52-2.02,1.98h0Zm-8.02-20.64c-.26.05-.76.21-1.34.5-.58.29-.53.92-.53.92.03,1.82,1.42,2.84,2.71,2.66,1.29-.19,2.29-1.53,1.79-3.66-.5-2.14-2.37-2.42-3.32-2.32-.95.11-3.5.87-3.98,2.69-.47,1.82-.6,4.78.42,8.13,1.02,3.35,1.66,5.5,2.83,9.44,1.04,3.49,2.7,8.8,3.06,9.96.39.04.77.07,1.16.11-.61-1.95-3.59-11.54-4.83-16.11-1.38-5.1-1.89-8.53-1.42-10.16.46-1.63,2.71-2.75,3.56-2.73.85.03,1.34,1.14,1.37,1.78.03.63-.2.63-.41.63s-.22-.22-.29-.98c-.07-.76-.49-.88-.49-.88h-.29Zm1.2,28.28c-.47-1.43-3.1-9.41-4.56-14.4-1.61-5.5-2.49-8.15-2.28-11.21.21-3.07,1.85-4.25,3.03-4.67,0,0-3.24-.63-4.25,2.9-1.01,3.53,1.06,9.81,2.63,14.67,1.39,4.31,3.33,10.52,4.36,12.6.36.04.71.08,1.07.11h0Zm-1.68-.18c-.43-1.15-1.72-4.57-2.66-7.36-1.14-3.42-3.03-9.08-3.93-12.8-.9-3.72-.73-8.23.82-9.34,0,0-1.46-.49-2.46,1.26-1,1.74-.29,6.47.88,10.1,1.08,3.35,5.53,16.06,6.22,18.01.37.05.75.09,1.13.13h0Zm-1.72-.21c-.63-1.67-4.03-10.71-5.68-16.35-1.83-6.23-1.63-6.72-1.74-8.68-.11-1.97.34-3.5,1.08-4.25h-1.25s-1.87,2.81-1.08,7.37c.73,4.15,6.2,18.74,7.7,21.78.32.04.65.09.97.13h0Zm-1.63-.22c-.59-.08-1.17-.17-1.74-.27-.69-1.76-3.03-7.75-4.32-11.76-1.52-4.75-3.13-8.23-3.21-11.77-.08-3.54,1.48-5.3,1.48-5.3h1.21c-1.4,1.79-1.25,6.15-1.13,7.56.12,1.4,1.14,4.64,3.17,10.08,1.69,4.54,3.86,9.83,4.54,11.46h0Zm-2.46-.39c-.49-.09-.96-.17-1.42-.27-.95-2.53-4.67-12.54-5.62-15.49-1.09-3.38-1.78-4.53-1.63-7.89.15-3.36,1.55-4.99,1.55-4.99h.87c-1.34,2.24-1.16,6.22-1.01,7.41.14,1.19,1.37,4.9,3.11,10.06,1.56,4.64,3.73,10.12,4.15,11.16Z" style="fill: #fff; fill-rule: evenodd; stroke-width: 0px;"/>
            <path d="m97.81,212.77c-.5.02-1.74.19-2.44,1.34,0,0-.85-.96-1.99-.87-1.14.09-1.63,1.29-1.84,1.93,0,0,2.04-.27,2.34,1.27.29,1.54-.92,2.49-1.83,2.43,0,0,.29,2.55-1.65,2.81,0,0-1.61.14-1.73-2.58,0,0-2.25-.64-2.19-2.16.06-1.53,1.41-1.69,2.04-1.69-.36-1.72-3.32-1.7-4.09-.47,0,0-3.09-2.34-4.9-.28,0,0,1.41.31,2.22,1.59.8,1.28-.55,2.71-1.94,2.77,0,0,.75,2.82-1.57,2.97-2.33.15-1.87-3.03-1.87-3.03,0,0-2.52.03-2.39-1.76.13-1.79,1.5-2.14,2.67-2.06,0,0-.75-1.63-2.21-1.81-1.46-.18-2.35,1.2-2.35,1.2,0,0-1.17-1.45-2.7-1.43-1.53.02-1.97,1.43-1.97,1.43,0,0,2.12.79,1.97,2.21-.14,1.43-1.64,1.59-2.42,1.59,0,0,.16,2.77-1.7,2.63-1.86-.15-2.27-1.56-1.84-3.41,0,0-2.32-.57-2.15-2.05.17-1.48,1.37-1.91,3.19-1.42,0,0-1.53-2.53-3.82-.85,0,0-1.74-2.15-3.62-.59,0,0,1.49.52,1.69,1.67.2,1.15-1.19,2.55-2.68,1.97,0,0-.42,1.72-1.58,2.06-.81.23-1.55-.39-1.93-.79l4.4-6.28c.4-.22.93-.42,1.57-.5,1.72-.2,3.72-.18,5.03.7,1.31.88,2,2.33,1.96,3.13-.05.81-.82,1.56-.78,2.23.05.66.28.97.96.97,0,0,.81.03.86-.92.05-.96-.18-2.17.8-3.44.98-1.27,2.12-2,3.96-2s3.41.43,4.75,1.63c1.34,1.2,1.43,2.36,1.39,3.37-.04,1.01-.21,1.78.58,1.91.79.13.88-.34.75-1.38-.13-1.03-.42-1.96.54-3.25.96-1.29,3.02-2.14,4.61-2.27,1.6-.13,4.01.79,5.5,3.34,0,0,.54,1.06.61,1.72.07.65-.36.63-.36,1.33s.29.65.88.7c.58.04,1.08-.25,1.03-.65-.04-.41-.56-1.06-.63-1.99-.07-.92.11-2.87,2.35-3.73,1.47-.56,3-.39,3.87-.21l.65.99h0Zm4.7,7.15l-3.74-5.7c-1.32.87-1.24,2.08-1.24,2.08.13,1.62,2.68,1.32,2.68,1.32-.2,1.78.46,2.58,1.36,2.58.45,0,.75-.14.95-.28h0Zm-6.5-9.91l-1.57-2.39s-20.81.39-33.48-2.27l-3.23,4.6c.99-.71,2.47-1.46,4.03-1.15,2.72.55,4.11,4.82,4.11,4.82,0,0,3.37-4.35,6.68-4.33,3.31.02,5.44,5.24,5.44,5.24,2.22-4.07,4.87-5.66,7.45-4.65,2.58,1.01,5.02,4.28,5.02,4.28,0,0,.77-2.7,2.35-3.58,1.21-.67,2.62-.63,3.21-.57Z" style="fill: #231815; fill-rule: evenodd; stroke-width: 0px;"/>
            <path d="m59.56,201.24h-3.32v-.99h2.91l.41.99h0Zm.7,1.69h-4.02v-.99h3.61l.41.99h0Zm-.09,1.66h-3.93v-.99h4.3l.12.29-.49.7h0Zm-1.29,1.85h-2.64v-1.18h3.46l-.82,1.18h0Zm-1.15,1.66h-1.49v-1.17h2.3l-.82,1.17h0Zm-2.37,0h-4.8v-1.2h3.56v-5.41h-3.75v-1.21h4.99v7.82h0Zm-3.34-3.2c.44,0,.8-.38.8-.84s-.36-.85-.8-.85-.79.38-.79.85.36.84.79.84Z" style="fill: #fff; fill-rule: evenodd; stroke-width: 0px;"/>
            <path d="m49.44,197.43l-.28.02s.31,4.34.53,8.5c.22,4.16-.98,8.22-2.78,8.28-1.81.05-1.86-2.8-1.86-3.18s.9-.55,1.78-.81c.88-.25,1.1-.53,1.1-.53l-1.25-1.01s.82-6.53.16-9.27l.37-.1s-.05-2.94,1.53-4.98c0,0,.6-.7,1.31-.75.71-.04,1.39.64,1.45,1.8.06,1.16-.89,1.78-2.07,2.01Z" style="fill: #ffe100; fill-rule: evenodd; stroke-width: 0px;"/>
            <path d="m39.79,204.09c-.49,0-.89-.4-.89-.89s.4-.89.89-.89.89.4.89.89-.4.89-.89.89h0Zm2.55.9c-.49,0-.89-.4-.89-.89s.4-.89.89-.89.89.4.89.89-.4.89-.89.89h0Zm-7.88-.63l1.2.04v-1.42l-1.2-.68v2.06h0Zm-.27,3.05l1.51.73-.15-3.11h-1.3l-.06,2.39h0Zm11.9,1.89l.66.41s-.68.05-1.01.15c-.34.09-.68.58-1.15.69-.47.11-.66-.11-.68-.54-.02-.43.43-1.41,1-1.61.56-.21,1.26-.09,1.18.9h0Zm-3.02.67l.26.59s-2.37.13-2.47-1.27c-.1-1.39.46-3.74.46-3.74l1.57-.05s-.21,2.71.18,4.46h0Zm-2.83-1.71v.44s-.12.47.06.84c.17.38.12.87-.43.96-.55.09-1.04-.15-1.07-1.25-.03-1.1-.12-4.86-.12-4.86,0,0,.29.41.84.38.55-.03,1.01-.2,1.01-.2,0,0,.09,1.13-.09,2.12-.17.99-.2,1.57-.2,1.57h0Zm-2.29-3.58l.06,3.17s.12.9.12,1.43-.23.61-.69.67c-.46.06-1.01-.38-1.1-1.28-.09-.9-.06-4.39-.06-4.39,0,0,.67.47,1.68.41h0Zm6.81,3.17l1.57.02s.37-4.21.18-6.81c-.18-2.59-.67-4.88-2.61-5.37-1.94-.49-7.32.61-7.32.61,0,0-1.91,3.57-1.61,5.13,0,0,.88.12,1.73-.15.85-.27,2.46-1.1,3.28-.91,0,0-.21.43-.79.52-.58.09-.76.55-.76,1.13,0,0,.55,0,.79-.27.24-.27,1.28-.27,1.76.21,0,0,0-.73-.09-1.68-.09-.95-.06-2.11.18-2.29,0,0-.76,2.81,2.76,4.76,0,0,.06,1.59-.09,2.5-.15.92-.36,2.62-.23,4.01,0,0,.5-1.2,1.24-1.4h0Zm-7.63-3.73c-.49,0-.89-.4-.89-.89s.4-.89.89-.89.89.4.89.89-.4.89-.89.89Z" style="fill: #fff; fill-rule: evenodd; stroke-width: 0px;"/>
            <g>
              <path d="m32.05,202.69l1.07.06s.93.02.95,1.01c.02.99-.74,1.38-.74,1.38,0,0-.37,1.34-.92,1.34s-1.62-.45-1.75-1.22c-.12-.76.23-2.21,1.4-2.58Z" style="fill: #094; fill-rule: evenodd; stroke-width: 0px;"/>
              <path d="m32.08,206.23l.34-.03s-.58-.48-.6-1.37c-.02-.89.24-.99.53-.99s1.18.46,1.28.89c.1.43,0,2.17,0,2.17,0,0-1.49.17-2.55-.34-1.06-.51-1.23-1.06-1.23-1.64s.48-1.59.96-2.36c.48-.77.67-.79,1.11-.84.43-.05,1.52.29,1.76.58.24.29.24.84-.43.79-.67-.05-1.35.1-1.78.43-.43.34-.34,1.23-.31,1.71.02.48.58.87.94.99Z" style="fill: #ffe100; fill-rule: evenodd; stroke-width: 0px;"/>
            </g>
            <path d="m36.2,192.31c-.33,0-.61-.69-.61-1.54s.27-1.54.61-1.54.61.69.61,1.54-.27,1.54-.61,1.54h0Zm3.91-5.04c.53-2.65,1.37-4.05,1.37-4.05.54.64,1.32,2.8,1.76,4.09.58.04,1.08.1,1.53.17-.53-1.87-2.14-7.31-3.29-7.91,0,0-1.7,1.4-2.15,7.74.27-.01.53-.03.78-.04h0Zm1.16,4.04c-.45,0-.82-.66-.82-1.46s.37-1.46.82-1.46.82.66.82,1.46-.37,1.46-.82,1.46h0Zm9.78-14.79l.8-.34s-4.24,3.73-6.51,10.2c0,0-2.16-7.16-3.83-7.61,0,0-2.23.19-2.92,7.69,0,0-2.69-6.58-5.42-9.06l5.23,3.31,2.88-4.72s3.37,4.91,3.75,5.18c.38.27.79-.46,1.67-1.26.87-.8,3.14-2.67,4.35-3.39h0Zm-3.9,11.62c.51-1.76,2.16-7.22,3.74-9.58,0,0-3.82,3.54-5.29,9.08.72.16,1.22.35,1.55.5h0Zm-9.07-.74c-.65-1.62-2.65-6.31-5.11-9.08,0,0,1.81,4.67,2.98,9.31.76-.1,1.47-.17,2.13-.23h0Zm.58,4.44c-.45,0-.82-.76-.82-1.7s.37-1.69.82-1.69.82.76.82,1.69-.37,1.7-.82,1.7h0Zm7.54,1.34c.96-.53,1.5-2.49,1.18-3.7-.25-.93-2.86-1.62-4.82-1.62s-5.69.22-6.66.43c-.96.22-1.12,2.4-1.03,3.11.09.72,1.03,1.59,1.68,1.49.65-.09,1.71-.37,4.73-.53,3.02-.16,4.91.81,4.91.81h0Zm-2.35-1.37c-.45,0-.82-.71-.82-1.57s.37-1.57.82-1.57.82.7.82,1.57-.37,1.57-.82,1.57h0Zm2.4.43c-.39,0-.7-.59-.7-1.32s.31-1.32.7-1.32.7.59.7,1.32-.31,1.32-.7,1.32h0Zm-2.39,2.88c-1.44-.21-2.79-.12-4.25.12-1.83.31-2.47.46-2.9.4-.43-.06-.82-.4-.85-.86-.03-.46.55-1.01,1.31-1.28.76-.28,3.05-.55,4.67-.55s3.94.61,4.4.86c.46.24-.12,1.68-.58,1.68s-1.1-.3-1.8-.37h0Zm-.61-7.81c-.88-.06-1.91-.09-3.13-.04.53-2.65,1.37-4.05,1.37-4.05.54.64,1.32,2.8,1.76,4.09Z" style="fill: #ffe100; fill-rule: evenodd; stroke-width: 0px;"/>
            <path d="m32.73,176.03l5.61,3.36,2.02-3.36h-7.63Zm9.57-.08l3.05,4.19s2.27-2.82,4.99-4.19h-8.04Z" style="fill: #e60012; fill-rule: evenodd; stroke-width: 0px;"/>
            <path d="m96.73,170.6c-1.23-.03-3.17.13-4.38.96,0,0-1.58-.81-2.77.13-1.19.94-1.28,1.15-1.96,1.28-.68.13-1.92,1.03-2.26,2.31-.34,1.28-.51,2.44-.51,2.44,0,0-2.9-8.78-7.88-9.04l13.71-14.93c1.86,6.99,4.12,12.68,6.06,16.83Z" style="fill: #e60012; fill-rule: evenodd; stroke-width: 0px;"/>
            <path d="m88.39,142.98l-.66.83.91.65c-.08-.48-.17-.98-.24-1.47h0Zm-20.23,31.77h1.62l20.65-21.91c-.16-.62-.31-1.24-.46-1.88l-21.81,23.78h0Zm-2.25,0l1.67-2.87.13-.22-.17-.19-.99-1.12.43-1.22,1.59,1.42.25.23.23-.25,2.87-3.03.23-.24-.24-.24-2.84-2.85,2.74-3.12,1.27,1.32-1.18,1.37-.19.22.18.23,1.21,1.5.24.3.27-.27,3.25-3.19.23-.23-.21-.25-2.72-3.24,2.3-2.49.82.84-1.07,1.39-.18.23.2.22,1.44,1.57.25.27.26-.26,3.32-3.34.23-.23-.21-.25-2.45-2.88,2.14-2.49.77.71-.87.96-.2.22.19.23,1.57,1.94.26.33.27-.32,2.92-3.45.19-.22-.18-.22-2.52-3.08,1.92-2.23,1.11.98-1.17,1.22-.22.22.2.24,1.35,1.65.23.28.27-.25,2.15-1.92c.1.48.21.96.32,1.44l-22.56,24.61h-1.3Zm3.23-11.72c.38-1.04.75-2.08,1.1-3.11l17.83-19.1c.06.41.12.81.18,1.22l-1.3,1.62-.23.29.3.21,1.79,1.28c.15.84.31,1.66.48,2.47l-2.18,1.95-.92-1.13,1.21-1.26.25-.26-.27-.24-1.64-1.46-.26-.24-.23.27-2.34,2.72-.19.22.19.23,2.52,3.08-2.46,2.91-1.12-1.38.9-1,.23-.26-.26-.24-1.3-1.19-.27-.25-.24.27-2.57,2.99-.2.23.2.23,2.44,2.86-2.83,2.85-1-1.09,1.08-1.4.18-.24-.21-.22-1.29-1.32-.26-.26-.25.27-2.76,2.98-.21.23.2.24,2.71,3.23-2.74,2.69-.79-.98,1.2-1.39.21-.24-.22-.23-1.75-1.83-.26-.28-.25.29-2.41,2.74h0Zm-2.06,5.25c.51-1.23,1.01-2.45,1.47-3.66l2.63,2.64-2.4,2.54-1.7-1.52h0Zm-2.9,6.47h1.19l-.2-.12,1.68-2.89-.85-.95c-.58,1.31-1.19,2.63-1.83,3.96Z" style="fill: #ffe100; fill-rule: evenodd; stroke-width: 0px;"/>
            <path d="m59.4,171.07c-.48,0-.88-.39-.88-.88s.39-.88.88-.88.88.39.88.88-.39.88-.88.88h0Zm3.93,3.34c26.5-52.75,1.72-97.7-1.38-102.95-.91.31-2.64.93-4.78,1.79l1.86,1.38-1.44.11.06,1.76-1.33-.74-.68,1.36-.72-2.92c-1.68.73-3.49,1.57-5.28,2.5,5.25,5.8,7.1,9.3,8.69,12.55,1.68,3.44,4.18,9.7,4.18,9.7l4.22.24.52-3.19,3.25,4.35-1.44.08c-.15.8-.48,1.76-.48,1.76.94.08,2.43.67,2.5,1.49.07.82-.54,1.27-.54,1.27,0,0,1.2.73,1.13,2.02-.07,1.3-1.63,1.78-1.63,1.78.71,1.79-.25,3.14-2.1,3-.23,1.09-1.46,1.43-1.46,1.43,1.66,7.93,1.64,16.88.52,24.98.13-.31.43-.53.79-.53.47,0,.85.38.85.85s-.38.85-.85.85c-.44,0-.8-.34-.85-.76-.79,5.51-2.1,10.61-3.73,14.68-4.17,10.38-13.63,21.13-13.63,21.13h6.53l.68-3.29,1.03,1.04,1.12-.66v1.24h1.55l-1.56,1.68h4.42Zm.96-12.6c-.47,0-.85-.38-.85-.85s.38-.85.85-.85.85.38.85.85-.38.85-.85.85h0Zm4.7-7.21l-4.04,4.89.17-6.37,1.04,1.12,1.4-1.33-.02,1.99,1.45-.3h0Zm-8.04-64.48c-.47,0-.85-.38-.85-.85s.38-.85.85-.85.85.38.85.85-.38.85-.85.85h0Zm-1.71-11.58l4.36,3.56-1.55.15v1.85l-1.4-.73-1.2.82-.2-5.64h0Zm-.59-.12c-.47,0-.85-.38-.85-.85s.38-.85.85-.85.85.38.85.85-.38.85-.85.85h0Zm4.33,92.32c-.48,0-.88-.39-.88-.88s.39-.87.88-.87.88.39.88.87-.39.88-.88.88h0Zm2.86-21.62c-.47,0-.85-.38-.85-.85s.38-.85.85-.85.86.38.86.85-.38.85-.86.85h0Zm.28-61.78c-.47,0-.85-.38-.85-.85s.38-.85.85-.85.85.38.85.85-.38.85-.85.85h0Zm-3.82,71.25c-.47,0-.85-.38-.85-.85s.38-.85.85-.85.86.38.86.85-.39.85-.86.85h0Zm5.4-6.1c-.47,0-.85-.38-.85-.85s.38-.85.85-.85.85.39.85.85-.38.85-.85.85h0Zm3.81-19.85c-.47,0-.85-.38-.85-.85s.38-.85.85-.85.85.38.85.85-.38.85-.85.85h0Zm2.29-16.31c-.47,0-.85-.38-.85-.85s.38-.85.85-.85.85.38.85.85-.38.85-.85.85h0Zm-4.15-19.59c-.47,0-.85-.39-.85-.85s.38-.85.85-.85.85.38.85.85-.38.85-.85.85h0Zm.35,45.74c-.47,0-.85-.38-.85-.85s.38-.85.85-.85.85.38.85.85-.38.85-.85.85h0Zm-.42-8.88l.94.81,1.08-1.12.07,1.25,1.68-.37-3.3,6.05-.47-6.63h0Zm-3.04-38.02c-.47,0-.85-.38-.85-.85s.38-.85.85-.85.86.38.86.85-.38.85-.86.85h0Zm-3.33-8.21l4.29,4-1.5.11.04,2.06-1.39-.88-1.21,1.1-.22-6.39h0Zm-1.84,74.15l.97,1.3,1.72-.64-.14,1.54,1.56.28-5.31,4.89,1.2-7.37h0Zm6.25.59c-.47,0-.85-.38-.85-.85s.38-.85.85-.85.85.38.85.85-.38.85-.85.85h0Zm6.49-32.32c-.47,0-.85-.38-.85-.85s.38-.85.85-.85.85.38.85.85-.38.85-.85.85h0Zm-6.35,13.59l1.1.96,1.27-1.36.25,1.81,1.44-.42-3.4,5.35-.68-6.34h0Zm-5.91-65.81c-.47,0-.85-.38-.85-.85s.38-.85.85-.85.85.38.85.85-.38.85-.85.85h0Zm-3.94,89.72c-.48,0-.87-.39-.87-.87s.39-.88.87-.88.88.39.88.88-.39.87-.88.87h0Zm15.05-26.24c-.47,0-.85-.38-.85-.85s.38-.85.85-.85.85.38.85.85-.38.85-.85.85h0Zm-1.55-17.89c-.47,0-.85-.38-.85-.85s.38-.85.85-.85.85.38.85.85-.38.85-.85.85h0Zm.77-17.73c-.47,0-.85-.38-.85-.85s.38-.85.85-.85.85.38.85.85-.38.85-.85.85h0Zm-3.68,11.14c-.47,0-.85-.38-.85-.85s.38-.85.85-.85.85.38.85.85-.38.85-.85.85h0Zm-4.79-18.26c-.47,0-.85-.38-.85-.85s.38-.85.85-.85.85.38.85.85-.38.85-.85.85h0Zm4.96,31.66c-.47,0-.85-.38-.85-.86s.38-.85.85-.85.85.38.85.85-.38.86-.85.86h0Zm3.42-10.67l-.66,1.82-1.09-1.28-1.46.62,2-6.12,2.62,5.1-1.42-.15h0Zm-15.51-37.15c-.47,0-.85-.38-.85-.85s.38-.85.85-.85.85.38.85.85-.38.85-.85.85h0Zm14.26,69.16c-.47,0-.85-.38-.85-.85s.38-.85.85-.85.85.38.85.85-.38.85-.85.85h0Zm-1.32-27.67l1.51.77.3-.89,1.05,1,1.21-1.3-2.17,7.06-1.9-6.64h0Zm-6.77-37.56c-.47,0-.85-.38-.85-.85s.38-.85.85-.85.86.38.86.85-.38.85-.86.85h0Zm8.07,27.86c-.47,0-.85-.38-.85-.85s.38-.85.85-.85.85.38.85.85-.38.85-.85.85Z" style="fill: #fff; fill-rule: evenodd; stroke-width: 0px;"/>
            <path d="m52.71,169.06c-.75-.68-2.81-2.64-4.2-4.77-1.73-2.64-4.51-8.03-4.22-18.72.28-10.55,5.71-24.86,21.63-30.53.07.51.15,1.15.23,1.9-10.47,4.51-17.98,13.59-19.61,24.29-1.67,10.94,1.5,18.29,3.43,21.63,1.5,2.6,3.31,3.93,4.04,4.4-.45.63-.88,1.23-1.3,1.79Z" style="fill: #ffe100; fill-rule: evenodd; stroke-width: 0px;"/>
            <path d="m66.15,116.95c.59,5.46,1.3,16.93-1.4,28.28-1.99,8.39-6.75,16.4-10.74,22.04-.73-.46-2.54-1.79-4.04-4.4-1.93-3.34-5.1-10.69-3.43-21.63,1.63-10.7,9.14-19.79,19.61-24.29Z" style="fill: #231815; fill-rule: evenodd; stroke-width: 0px;"/>
            <path d="m62.85,151.28c-.34-.52-.83-1.55-1.04-3.26-.31-2.62-1.11-8.92,4.54-12.87.06-.71.12-1.42.16-2.12-.94.61-3.72,2.65-5.25,6.3-1.8,4.3-1.71,10.31.79,13.88.27-.64.54-1.28.79-1.93h0Zm3.55-31.7c.04.58.09,1.19.13,1.83-.85.62-.57,2.21-.57,2.21l-2.71,1.22c-1.78-1.89-2.89-1.25-3.25-.26-.36.99-.39,3.61-.39,3.61l-2.51,2.38s-.92-.43-1.84-.29c-.92.14-1.56,1.07-1.56,2.03s.78,2.17.78,2.17l-1.26,4.42s-.21.02-1.16.47c-.95.45-1.4,1.19-1.29,2.38.11,1.19,1.44,1.94,1.44,1.94l.04,4.32c-.64.17-1.68,1.09-1.6,2.6.08,1.51,2.78,2.27,2.78,2.27l.96,3.56c-.99.96-1.11,2.4-1.05,3.21.06.81.72,1.29,1.35,1.31.63.02,1.57-.44,1.57-.44l1.3,1.36c-.19.31-.38.62-.56.92l-.76-.88c-1.04.06-3.51.28-3.94-1.95-.43-2.23.76-3.39.76-3.39l-.76-2.69c-.85-.49-2.82-1.54-2.82-3.57s2.17-3.51,2.17-3.51l-.06-2.18c-2.53-.73-2.21-3.21-2.21-3.21.09-3.3,3.47-3.88,3.47-3.88l.84-2.35c-.86-.45-1.75-2.71-.7-4.6,1.05-1.88,3.68-1.44,3.68-1.44l1.74-1.6c-.52-3.75.59-4.48,2.36-4.83,1.77-.35,2.78.76,2.78.76l1.5-.66c.37-2.05,1.02-2.92,1.37-3.26h0Zm.28,5.62c.01.64.02,1.3.02,1.97-7.78,3.35-10.03,8.7-10.78,14-.75,5.38-.42,9.12.5,12.45.76,2.77,2.31,4.77,2.81,5.36-.23.42-.46.84-.7,1.25-4.57-4.94-4.69-10.04-4.26-16.66.44-6.73,3.26-11.41,6.17-14.24,2.43-2.37,5.34-3.74,6.24-4.12h0Zm-7.77,11.71l2.5-2.02-.4,3.64-2.1,1.69v-3.32h0Zm-1.2,15.96l.34-2.85,2.06,1.52-.13,3.31-2.27-1.98h0Zm-1.16-8.44l1.6-2.22,1.48,3.24-1.67,2.12-1.41-3.14h0Zm6.88-14.52l2.81.55-1.25,2.72-3.42-.37,1.86-2.9Z" style="fill: #ffe100; fill-rule: evenodd; stroke-width: 0px;"/>
            <path d="m70.24,159.92l17.83-19.1c-.19-1.39-.36-2.81-.5-4.26l-15.47,17.43c-.56,1.96-1.18,3.93-1.85,5.93Z" style="fill: #231815; fill-rule: evenodd; stroke-width: 0px;"/>
            <path d="m51.46,124.31v-11.22l-5.18,5.64h-5.78v33.62l4.44,5.42c-.2-.72-.38-1.48-.52-2.26-1.57-8.89-1.37-21.46,7.04-31.21Z" style="fill: #e60012; fill-rule: evenodd; stroke: #e4007f; stroke-miterlimit: 22.93; stroke-width: 0px;"/>
            <path d="m29.59,139.83l14.08,17.52h-1.95l-12.14-13.5v-4.02h0Zm0,18.02v1.68c3.4.08,7.01,3.7,7.01,3.7,3.39-3.19,8.43-2.28,9.6-2.02-.44-.97-.84-2.03-1.18-3.15-6.34-.44-8.24,2.58-8.24,2.58-1.52-1.78-5.71-2.56-7.19-2.79Z" style="fill: #ffe100; fill-rule: evenodd; stroke-width: 0px;"/>
            <path d="m37.71,148.95v-30.22h1.59v32.17l-1.59-1.95h0Zm-8.12-30.22v20.31l.83,1.02v-.64h4.48v1.86h-3.48l1.14,1.39h2.34v1.86h-.82l2.51,3.06v-28.86h-7.01Zm5.32,3.03h-4.48v-1.86h4.48v1.86h0Zm0,3.25h-4.48v-1.86h4.48v1.86h0Zm0,3.25h-4.48v-1.86h4.48v1.86h0Zm0,3.25h-4.48v-1.86h4.48v1.86h0Zm0,3.25h-4.48v-1.86h4.48v1.86h0Zm0,3.25h-4.48v-1.86h4.48v1.86Z" style="fill: #fff; fill-rule: evenodd; stroke-width: 0px;"/>
            <path d="m65.02,100.42l.03-.2c.83.12,1.54.28,1.99.48,0,0-.04,1.28-.46,1.62-.42.33-1.4-.46-1.56-1.89h0Zm2.66,1.68l.37-.5s.37.29.35.56c-.02.27-.72.17-.72-.06h0Zm-6.16,8.55s3.5.07,5.53.11c-.44-.86-.07-1.84.16-2.3h-4.69v-.65h6.04c-.58-.76-.62-1.65-.59-2.12h-5.95v-.65s3.79.1,5.73.06c.04-1.11-.24-1.67-.52-1.95-2.12-.29-6.46-.87-6.46-.87v-.5l4.12.29-.55-1.94c-2.16-.24-4.75-.24-5.54-.05-1.2.29-3.34,2.4-3.34,2.4l-.27,8.24c0,.71,1.31,2.01,3.3,2.3,1.33.2,4.19.11,6.35-.47l-.08-1.35-3.2-.11-.02-.43h0Zm3.83.57l1.9.07c-.35.43-.97.78-1.73,1.04-.11-.17-.24-.5-.17-1.11h0Zm2.83-2.76h.12c.58,0,.93.62.98,1.31.05.68-.49,1.02-.84,1.02,0,0-.02,0-.04,0-.37-.09-.96-.3-1.05-.79-.1-.54.36-1.2.83-1.54h0Zm.63-2.77h.21s1.21-.02,1.5.85c.29.87-.45,1.27-.85,1.27h-.14c-.23-.09-.52-.3-.71-.75-.25-.59-.17-1.07,0-1.37h0Zm-.64-2.41s.06,0,.09.01c.87.13,1.67.31,1.78.66,0,0-.33.9-1.25,1.08-.18-.08-.38-.23-.48-.53-.19-.52-.18-.87-.13-1.22Z" style="fill: #fff; fill-rule: evenodd; stroke-width: 0px;"/>
            <path d="m54.59,102.76l-.22,8.62s-.81.37-1.29.41c-.48.04-1.04-.85-1.15-2.55-.11-1.7.37-6.62.85-6.81.48-.19,1.7-.07,1.81.33h0Zm-2.71,8.67c-.11-.29-.26-.74-.38-1.3l-2.73-.38s-1.02,1.64-1.64,3.88c-.62,2.23-.59,3.23-.59,3.23,1.11-2.26,5.31-5.41,5.31-5.41l.03-.02h0Zm-.5-1.9c-.88-.03-2.26-.15-3.2-.56-1.49-.63-2.61-1.43-2.55-2.16.06-.69,1.62-1.87,5.99-2.5-.08.38-.15.79-.21,1.21-2.75.72-3.18,1.41-3.17,1.75.02.39.82,1.14,1.81,1.22.38.03.82.06,1.22.08.02.34.06.65.11.95h0Zm-.14-1.54c-.01-.65.03-1.29.09-1.92-1.5.35-2.5.8-2.5,1.15,0,.43.89.7,1.47.74.21.02.56.03.94.02h0Zm-1.72-3.77c-.79.14-1.68.35-2.5.66-3.77,1.41-1.2,4.09,1.12,4.74,0,0-2.02,4.32-2.24,6.83,0,0-.2-.31-.25-2.76-.06-2.45.45-3.77.45-3.77,0,0-3.48-1.36-3.43-2.86.05-1.5,3.08-3.43,3.85-3.7,0,0-.14-2.32.16-4.13,1.2,3.11,1.7,3.65,2.85,4.99h0Zm.38-.07c.81-.13,1.47-.18,1.78-.21.09-.38.18-.72.27-1.02l-5.01-5.54c.36,2.86,2.14,5.63,2.96,6.77Z" style="fill: #ffe100; fill-rule: evenodd; stroke-width: 0px;"/>
            <path d="m61.27,99.08h-3.07s-2.96,1.71-3.13,2.49h-3.13l-5.18-5.98c4.79-3.45,8.49-5.26,10.58-6.13,2.42,4.73,3.69,8.8,3.93,9.62h0Zm-15.4-.32l-5.76,2.17.59-.52c1.81-1.58,3.53-2.95,5.14-4.15l.04,2.5Z" style="fill: #e60012; fill-rule: evenodd; stroke: #e4007f; stroke-miterlimit: 22.93; stroke-width: 0px;"/>
            <path d="m42.79,105.57c-1.54.72-8.25,4.09-13.2,10.02v-3.14c3.17-3.11,10.39-9.55,16.33-10.04v.72c-1.05.37-2.39,1.34-3.13,2.44h0Zm-13.2,11.02v1.39l1.67-.12s5.12-6.79,11.39-9.5c-.2-.3-.35-.62-.4-.96-.05-.31,0-.64.09-.96-4.87,2.01-10.25,7.08-11.66,8.77-.44.52-.8.98-1.09,1.38h0Zm16.32-14.89l-.03-1.81-7.07,2.21c-2.77,2.54-5.73,5.54-8.82,9.08,2.39-2.07,7.82-6.32,10.82-7.8,2.53-1.25,4.44-1.59,5.1-1.68h0Zm.11-5.58h0s0,0,0,0h0Zm-1.13,14.11c-.44-.24-1.23-.73-1.84-1.37-2.3.65-4.98,2.69-7.16,4.68-2.27,2.07-4.03,4.26-4.03,4.26l2.88.12c3.85-4.45,9.19-7.21,10.15-7.69h0Zm.19,2.6c0-.63.04-1.33.1-2.08-6.36,3.1-9.71,7.11-9.71,7.11l2.9.03c2.59-3.19,5.8-4.68,6.71-5.05h0Zm.14,2.67c-.55.47-1.74,1.51-2.6,2.47h3.18l-.04-.05s-.34-.8-.54-2.42h0Zm-6.22,2.29l3,.04s1.15-1.59,3.16-2.91c-.04-.47-.07-1-.08-1.59-.82.35-3.43,1.63-6.08,4.47Z" style="fill: #ffe100; fill-rule: evenodd; stroke-width: 0px;"/>
            <path d="m29.59,174.75h18.53c.75-.85,2.31-2.66,4.2-5.17-.49-.42-1.91-1.72-3.44-3.8h-19.29v8.97Z" style="fill: #231815; fill-rule: evenodd; stroke-width: 0px;"/>
            <path d="m30.44,105.51c-.45,0-.82-.37-.82-.82s.37-.82.82-.82.82.37.82.82-.37.82-.82.82h0Zm-.85-8.95v1.5c.1.04.21.07.33.07.45,0,.82-.37.82-.82s-.37-.82-.82-.82c-.12,0-.23.03-.33.07h0Zm3.08,6.42c-.45,0-.82-.37-.82-.82s.37-.82.82-.82.82.37.82.82-.37.82-.82.82h0Zm2.18-2.23c-.45,0-.82-.37-.82-.82s.37-.82.82-.82.82.37.82.82-.37.82-.82.82h0Zm2.33-2.58c-.45,0-.82-.37-.82-.82s.37-.82.82-.82.82.37.82.82-.37.82-.82.82h0Zm2.79-2.22c-.45,0-.82-.37-.82-.82s.37-.82.82-.82.82.37.82.82-.37.82-.82.82h0Zm2.63-1.69c-.45,0-.82-.37-.82-.82s.37-.82.82-.82.82.37.82.82-.37.82-.82.82h0Zm2.63-2.22c-.45,0-.82-.37-.82-.82s.37-.82.82-.82.82.37.82.82-.37.82-.82.82h0Zm2.85-1.82c-.45,0-.82-.37-.82-.82s.37-.82.82-.82.82.37.82.82-.37.82-.82.82h0Zm2.94-1.81c-.45,0-.82-.37-.82-.82s.37-.82.82-.82.82.37.82.82-.37.82-.82.82h0Zm2.75-1.69c-.45,0-.82-.37-.82-.82s.37-.82.82-.82.82.37.82.82-.37.82-.82.82h0Zm-3.71-5.1c-.45,0-.82-.37-.82-.82s.37-.82.82-.82.82.37.82.82-.37.82-.82.82h0Zm-2.86,1.93c-.45,0-.82-.37-.82-.82s.37-.82.82-.82.82.37.82.82-.37.82-.82.82h0Zm-2.94,1.74c-.45,0-.82-.37-.82-.82s.37-.82.82-.82.82.37.82.82-.37.82-.82.82h0Zm-2.51,2.05c-.45,0-.82-.37-.82-.82s.37-.82.82-.82.82.37.82.82-.37.82-.82.82h0Zm-2.36,1.86c-.45,0-.82-.37-.82-.82s.37-.82.82-.82.82.37.82.82-.37.82-.82.82h0Zm-2.6,2.22c-.45,0-.82-.37-.82-.82s.37-.82.82-.82.82.37.82.82-.37.82-.82.82h0Zm-2.6,2.19c-.45,0-.82-.37-.82-.82s.37-.82.82-.82.82.37.82.82-.37.82-.82.82h0Zm-2.36,2.22c-.45,0-.82-.37-.82-.82s.37-.82.82-.82.82.37.82.82-.37.82-.82.82Z" style="fill: #ffe100; fill-rule: evenodd; stroke-width: 0px;"/>
          </g>
        </g>
        <path d="m29.59,26.78h104.39v195.06H29.59V26.78h0Zm-1.68-1.68v198.43h107.75V25.09H27.91Z" style="fill: #004ea2; fill-rule: evenodd; stroke-width: 0px;"/>
      </g>
      <g>
        <path d="m17.12,49.99c-.05-1.84-1.4-3.18-3.51-3.18s-4.02,1.79-4.13,4.36c-.1,2.56,1.13,5.16,3.23,7.98,2.1,2.82,4.67,6.87,4.58,6.87s2.47-4.05,4.58-6.87c2.1-2.82,3.33-5.42,3.23-7.98-.1-2.56-2.01-4.36-4.13-4.36s-3.47,1.34-3.51,3.18c0,0,0,.51-.17.5-.2-.02-.16-.37-.17-.5Z" style="fill: #e60012; fill-rule: evenodd; stroke-width: 0px;"/>
        <polygon points="8.5 13.47 16.2 13.47 16.2 16.59 13.89 16.59 13.89 26.94 20.33 16.59 18.38 16.59 18.38 13.47 26.08 13.47 26.08 16.59 24 16.59 18.49 25.44 24.69 38.7 25.92 38.7 25.92 41.82 18.45 41.82 18.45 38.7 21.26 38.7 16.53 28.59 13.89 32.83 13.89 38.7 16.48 38.7 16.48 41.82 9 41.82 9 38.7 10.77 38.7 10.77 16.59 8.5 16.59 8.5 13.47" style="fill: #e60012; stroke-width: 0px;"/>
      </g>
      <g>
        <path d="m146.45,198.62c.05,1.85,1.4,3.18,3.51,3.18s4.02-1.79,4.13-4.35c.1-2.56-1.13-5.16-3.23-7.98-2.1-2.82-4.67-6.87-4.58-6.87s-2.47,4.05-4.58,6.87c-2.1,2.82-3.33,5.42-3.23,7.98.1,2.56,2.01,4.35,4.13,4.35s3.47-1.34,3.51-3.18c0,0,0-.51.17-.5.2.01.16.37.17.5Z" style="fill: #e60012; fill-rule: evenodd; stroke-width: 0px;"/>
        <polygon points="155.07 235.14 147.37 235.14 147.37 232.02 149.68 232.02 149.68 221.67 143.24 232.02 145.2 232.02 145.2 235.14 137.5 235.14 137.5 232.02 139.58 232.02 145.08 223.17 138.88 209.91 137.65 209.91 137.65 206.79 145.12 206.79 145.12 209.91 142.31 209.91 147.04 220.03 149.68 215.78 149.68 209.91 147.1 209.91 147.1 206.79 154.57 206.79 154.57 209.91 152.8 209.91 152.8 232.02 155.07 232.02 155.07 235.14" style="fill: #e60012; stroke-width: 0px;"/>
      </g>
    </g>
  </g>
</svg>