<?xml version="1.0" encoding="UTF-8"?>
<svg id="_图层_2" data-name="图层 2" xmlns="http://www.w3.org/2000/svg" viewBox="0 0 163.57 248.61">
  <g id="_图层_1-2" data-name="图层 1">
    <g>
      <path d="m162.57,242.01c0,3.08-2.51,5.6-5.57,5.6H6.57c-3.06,0-5.57-2.52-5.57-5.6V6.6C1,3.52,3.51,1,6.57,1h150.43c3.06,0,5.57,2.52,5.57,5.6v235.41Z" style="fill: #fff; fill-rule: evenodd; stroke: #231815; stroke-miterlimit: 22.93; stroke-width: 2px;"/>
      <g>
        <g>
          <path d="m9.81,22.26c-.88-3.38.31-5.83,2.37-7.3,1.28-.91,2.88-1.4,4.51-1.48,1.6-.07,3.26.26,4.68,1.01,2.47,1.31,4.19,3.81,3.7,7.52-.49,3.67-2.75,5.31-5.87,7.56,0,0,0,0,0,0t0,0s0,0,0,0c0,0,0,0,0,0,0,0,0,0,0,0-.04.03-.19.14-.59.43-1.52,1.1-3.26,3.05-4.53,5.18-.71,1.18-1.26,2.39-1.54,3.51h9.69v-3.72h3.12v6.84H9.27l-.03-1.53c-.04-2.09.86-4.49,2.18-6.7,1.49-2.48,3.55-4.78,5.37-6.1.63-.46,0,0,.6-.43,2.49-1.8,4.31-3.11,4.62-5.45.29-2.18-.67-3.63-2.07-4.37-.91-.48-2.01-.7-3.1-.65-1.06.05-2.07.35-2.84.89-1.07.76-1.66,2.09-1.17,3.98l-3.01.78Z" style="fill: #e60012; stroke-width: 0px;"/>
          <path d="m17.12,49.99c-.04-1.85-1.4-3.18-3.51-3.18s-4.02,1.79-4.13,4.35c-.1,2.56,1.13,5.16,3.23,7.98,2.1,2.82,4.67,6.87,4.58,6.87s2.47-4.05,4.58-6.87c2.1-2.82,3.33-5.42,3.23-7.98-.1-2.56-2.01-4.35-4.13-4.35s-3.47,1.34-3.51,3.18c0,0,0,.51-.17.5-.2-.01-.16-.37-.17-.5Z" style="fill: #e60012; fill-rule: evenodd; stroke-width: 0px;"/>
        </g>
        <g>
          <path d="m153.76,226.36c.88,3.38-.31,5.83-2.37,7.3-1.28.91-2.88,1.41-4.51,1.48-1.6.07-3.26-.26-4.68-1.01-2.47-1.31-4.19-3.81-3.7-7.52.49-3.67,2.75-5.31,5.87-7.56,0,0,0,0,0,0s0,0,0,0,0,0,0,0c0,0,0,0,0,0,0,0,0,0,0,0,.04-.03.19-.14.59-.43,1.52-1.1,3.26-3.05,4.53-5.18.71-1.18,1.26-2.39,1.54-3.51h-9.69v3.72h-3.12v-6.84h16.08l.03,1.53c.04,2.09-.86,4.49-2.18,6.7-1.49,2.48-3.55,4.78-5.37,6.1-.63.46,0,0-.6.43-2.49,1.8-4.31,3.11-4.62,5.45-.29,2.18.67,3.63,2.07,4.37.91.48,2.01.7,3.1.65,1.06-.05,2.07-.35,2.84-.89,1.07-.76,1.66-2.09,1.17-3.98l3.01-.78Z" style="fill: #e60012; stroke-width: 0px;"/>
          <path d="m146.45,198.62c.04,1.85,1.4,3.18,3.51,3.18s4.02-1.79,4.13-4.35c.1-2.56-1.13-5.16-3.23-7.98-2.1-2.82-4.67-6.87-4.58-6.87s-2.47,4.05-4.58,6.87c-2.1,2.82-3.33,5.42-3.23,7.98.1,2.56,2.01,4.35,4.13,4.35s3.47-1.34,3.51-3.18c0,0,0-.51.17-.5.2.01.16.37.17.5Z" style="fill: #e60012; fill-rule: evenodd; stroke-width: 0px;"/>
        </g>
        <path d="m82.14,210.67c.1,3.83,2.91,6.61,7.29,6.61s8.35-3.71,8.56-9.04c.21-5.32-2.34-10.71-6.7-16.57-4.36-5.85-9.69-14.26-9.5-14.26s-5.13,8.41-9.5,14.26c-4.37,5.85-6.92,11.25-6.71,16.57.21,5.32,4.18,9.04,8.56,9.04s7.19-2.78,7.29-6.61c0,0-.02-1.06.35-1.03.41.03.34.77.35,1.03h0Zm-.7-172.72c-.1-3.83-2.91-6.61-7.29-6.61s-8.35,3.71-8.56,9.04c-.21,5.32,2.34,10.71,6.71,16.57,4.36,5.85,9.69,14.26,9.5,14.26s5.13-8.41,9.5-14.26c4.36-5.85,6.92-11.25,6.71-16.57-.21-5.32-4.18-9.04-8.56-9.04s-7.19,2.78-7.29,6.61c0,0,.02,1.06-.35,1.03-.41-.03-.34-.77-.34-1.03Z" style="fill: #e60012; fill-rule: evenodd; stroke-width: 0px;"/>
      </g>
    </g>
  </g>
</svg>