<?xml version="1.0" encoding="UTF-8"?>
<svg id="_图层_2" data-name="图层 2" xmlns="http://www.w3.org/2000/svg" viewBox="0 0 163.58 248.61">
  <g id="_图层_1-2" data-name="图层 1">
    <g>
      <path d="m162.58,242.01c0,3.08-2.51,5.6-5.57,5.6H6.57c-3.06,0-5.57-2.52-5.57-5.6V6.6C1,3.52,3.51,1,6.57,1h150.43c3.06,0,5.57,2.52,5.57,5.6v235.41Z" style="fill: #fff; fill-rule: evenodd; stroke: #231815; stroke-miterlimit: 22.93; stroke-width: 2px;"/>
      <g>
        <g>
          <path d="m25.25,13.47v3.25l-6.2,5.66c.53.08,1.05.22,1.56.41,1.31.48,2.5,1.31,3.46,2.41,1.09,1.25,1.88,2.86,2.21,4.74.59,3.35-.63,6.37-2.72,8.45-1.08,1.08-2.41,1.9-3.84,2.39-1.45.49-3.02.63-4.56.34-2.7-.52-5.29-2.34-7.01-5.94l2.81-1.34c1.23,2.58,2.99,3.88,4.78,4.22,1,.19,2.03.1,2.99-.23.98-.33,1.89-.9,2.64-1.64,1.41-1.41,2.24-3.44,1.84-5.71-.23-1.3-.76-2.4-1.49-3.23-.62-.71-1.37-1.23-2.18-1.53-.81-.3-1.7-.39-2.58-.23-.96.17-1.93.63-2.84,1.42l-2.07-2.33.03-.02h0s.03-.03.05-.04l8.67-7.92h-8.94v3.8h-3.12v-6.92h16.53Z" style="fill: #e60012; stroke-width: 0px;"/>
          <path d="m17.12,49.99c-.05-1.85-1.4-3.18-3.51-3.18s-4.02,1.79-4.13,4.35c-.1,2.56,1.13,5.16,3.23,7.98,2.1,2.82,4.67,6.87,4.58,6.87s2.47-4.05,4.58-6.87c2.1-2.82,3.33-5.42,3.23-7.98-.1-2.56-2.01-4.35-4.13-4.35s-3.47,1.34-3.51,3.18c0,0,0,.51-.17.5-.2-.01-.16-.37-.17-.5Z" style="fill: #e60012; fill-rule: evenodd; stroke-width: 0px;"/>
        </g>
        <g>
          <path d="m138.32,235.14v-3.25l6.2-5.66c-.53-.08-1.05-.22-1.56-.41-1.31-.48-2.5-1.31-3.46-2.41-1.09-1.25-1.88-2.86-2.21-4.74-.59-3.35.63-6.37,2.72-8.45,1.08-1.08,2.41-1.9,3.84-2.39,1.45-.49,3.02-.63,4.56-.34,2.7.52,5.29,2.34,7.01,5.94l-2.81,1.34c-1.23-2.58-2.99-3.88-4.78-4.22-1-.19-2.03-.1-2.99.23-.98.33-1.89.9-2.64,1.64-1.41,1.4-2.24,3.44-1.84,5.7.23,1.3.76,2.4,1.49,3.23.62.71,1.37,1.23,2.18,1.53.81.3,1.7.39,2.59.23.96-.17,1.93-.63,2.84-1.42l2.07,2.33-.03.02h0s-.03.03-.05.04l-8.67,7.92h8.95v-3.8h3.12v6.92h-16.53Z" style="fill: #e60012; stroke-width: 0px;"/>
          <path d="m146.45,198.62c.05,1.85,1.4,3.18,3.51,3.18s4.02-1.79,4.13-4.35c.1-2.56-1.13-5.16-3.23-7.98-2.1-2.82-4.67-6.87-4.58-6.87s-2.47,4.05-4.58,6.87c-2.1,2.82-3.33,5.42-3.23,7.98.1,2.56,2.01,4.35,4.13,4.35s3.47-1.34,3.51-3.18c0,0,0-.51.17-.5.2.01.16.37.17.5Z" style="fill: #e60012; fill-rule: evenodd; stroke-width: 0px;"/>
        </g>
        <path d="m82.14,210.67c.1,3.83,2.91,6.61,7.29,6.61s8.35-3.71,8.56-9.04c.21-5.32-2.34-10.71-6.71-16.57-4.36-5.85-9.69-14.26-9.5-14.26s-5.13,8.41-9.5,14.26c-4.36,5.85-6.92,11.25-6.71,16.57.21,5.32,4.18,9.04,8.57,9.04s7.19-2.78,7.29-6.61c0,0-.02-1.06.35-1.03.41.03.34.77.34,1.03h0Zm-.7-172.72c-.1-3.83-2.91-6.61-7.29-6.61s-8.35,3.71-8.56,9.04c-.21,5.32,2.34,10.71,6.71,16.57,4.36,5.85,9.69,14.26,9.5,14.26s5.13-8.41,9.5-14.26c4.36-5.85,6.92-11.25,6.71-16.57-.21-5.32-4.18-9.04-8.56-9.04s-7.19,2.78-7.29,6.61c0,0,.02,1.06-.35,1.03-.41-.03-.34-.77-.34-1.03h0Zm0,73.04c-.1-3.83-2.91-6.61-7.29-6.61s-8.35,3.71-8.56,9.04c-.21,5.32,2.34,10.71,6.71,16.57,4.36,5.85,9.69,14.26,9.5,14.26s5.13-8.41,9.5-14.26c4.36-5.85,6.92-11.25,6.71-16.57-.21-5.32-4.18-9.04-8.56-9.04s-7.19,2.78-7.29,6.61c0,0,.02,1.06-.35,1.03-.41-.03-.34-.77-.34-1.03Z" style="fill: #e60012; fill-rule: evenodd; stroke-width: 0px;"/>
      </g>
    </g>
  </g>
</svg>