<?xml version="1.0" encoding="UTF-8"?>
<svg id="_图层_2" data-name="图层 2" xmlns="http://www.w3.org/2000/svg" viewBox="0 0 163.58 248.61">
  <g id="_图层_1-2" data-name="图层 1">
    <g>
      <path d="m162.58,242.01c0,3.08-2.51,5.6-5.57,5.6H6.57c-3.07,0-5.57-2.52-5.57-5.6V6.6C1,3.52,3.51,1,6.57,1h150.43c3.06,0,5.57,2.52,5.57,5.6v235.41Z" style="fill: #fff; fill-rule: evenodd; stroke: #231815; stroke-miterlimit: 22.93; stroke-width: 2px;"/>
      <g>
        <g>
          <path d="m23.62,16.59h-10.65l-.09,5.21c1.62-.58,3.88-1.01,6.43-.39.51.13.99.3,1.44.51,2.3,1.09,3.81,3.23,4.57,5.71.72,2.35.77,5.04.2,7.38-.19.77-.45,1.51-.77,2.2-1.11,2.35-2.95,3.86-5.01,4.55-1.04.35-2.11.49-3.17.42-1.06-.07-2.12-.34-3.12-.81-2.08-.99-3.86-2.85-4.78-5.58l2.95-.99c.62,1.85,1.8,3.1,3.16,3.75.62.3,1.3.47,1.98.51.69.04,1.37-.04,2-.25,1.29-.44,2.46-1.41,3.18-2.94.24-.5.42-1.04.57-1.61.45-1.82.41-3.91-.15-5.72-.52-1.69-1.49-3.12-2.93-3.81-.27-.13-.55-.23-.86-.3-3.68-.91-5.77.62-8.1,2.61l-.98-.61.39-11.42.03-1.54h13.71v3.12Z" style="fill: #e60012; stroke-width: 0px;"/>
          <path d="m17.12,49.99c-.05-1.85-1.4-3.18-3.51-3.18s-4.02,1.79-4.13,4.35c-.1,2.56,1.13,5.16,3.23,7.98,2.1,2.82,4.67,6.87,4.58,6.87s2.47-4.05,4.58-6.87c2.1-2.82,3.33-5.42,3.23-7.98-.1-2.56-2.01-4.35-4.13-4.35s-3.47,1.34-3.51,3.18c0,0,0,.51-.17.5-.2-.01-.16-.37-.17-.5Z" style="fill: #e60012; fill-rule: evenodd; stroke-width: 0px;"/>
        </g>
        <g>
          <path d="m139.96,232.02h10.65l.09-5.21c-1.62.58-3.88,1.01-6.43.39-.51-.13-.99-.3-1.44-.51-2.3-1.09-3.81-3.23-4.57-5.71-.72-2.35-.77-5.04-.2-7.38.19-.77.45-1.51.77-2.2,1.11-2.35,2.95-3.86,5.01-4.55,1.04-.35,2.11-.49,3.17-.42,1.06.07,2.12.34,3.12.81,2.08.99,3.86,2.85,4.78,5.58l-2.95.99c-.62-1.85-1.8-3.1-3.16-3.75-.62-.29-1.3-.47-1.98-.51-.69-.04-1.37.04-2,.25-1.29.44-2.46,1.41-3.18,2.94-.24.5-.42,1.04-.57,1.61-.45,1.82-.41,3.91.15,5.72.52,1.69,1.49,3.12,2.92,3.81.27.13.56.23.86.3,3.68.91,5.77-.62,8.1-2.61l.98.61-.39,11.42-.03,1.54h-13.71v-3.12Z" style="fill: #e60012; stroke-width: 0px;"/>
          <path d="m146.45,198.62c.05,1.85,1.4,3.18,3.51,3.18s4.02-1.79,4.13-4.35c.1-2.56-1.13-5.16-3.23-7.98-2.1-2.82-4.67-6.87-4.58-6.87s-2.47,4.05-4.58,6.87c-2.1,2.82-3.33,5.42-3.23,7.98.1,2.56,2.01,4.35,4.13,4.35s3.47-1.34,3.51-3.18c0,0,0-.51.17-.5.2.01.16.37.17.5Z" style="fill: #e60012; fill-rule: evenodd; stroke-width: 0px;"/>
        </g>
        <path d="m81.44,110.98c-.1-3.83-2.91-6.61-7.29-6.61s-8.35,3.71-8.56,9.04c-.21,5.32,2.34,10.71,6.71,16.57,4.36,5.85,9.69,14.26,9.5,14.26s5.13-8.41,9.5-14.26c4.36-5.85,6.92-11.25,6.71-16.57-.21-5.32-4.18-9.04-8.56-9.04s-7.19,2.78-7.29,6.61c0,0,.02,1.06-.35,1.03-.41-.03-.34-.77-.34-1.03h0Zm-33.81,100.16c.1,3.83,2.91,6.61,7.29,6.61s8.35-3.71,8.56-9.04c.21-5.32-2.34-10.71-6.71-16.57-4.36-5.85-9.69-14.26-9.5-14.26s-5.13,8.41-9.5,14.26c-4.36,5.85-6.92,11.25-6.71,16.57.21,5.32,4.18,9.04,8.56,9.04s7.19-2.78,7.29-6.61c0,0-.02-1.06.35-1.03.41.03.34.77.34,1.03h0Zm69.02,0c.1,3.83,2.91,6.61,7.29,6.61s8.35-3.71,8.56-9.04c.21-5.32-2.34-10.71-6.7-16.57-4.36-5.85-9.69-14.26-9.5-14.26s-5.13,8.41-9.5,14.26c-4.37,5.85-6.92,11.25-6.71,16.57.21,5.32,4.18,9.04,8.56,9.04s7.19-2.78,7.29-6.61c0,0-.02-1.06.35-1.03.41.03.34.77.34,1.03h0Zm-.7-173.68c-.1-3.83-2.91-6.61-7.29-6.61s-8.35,3.71-8.56,9.04c-.21,5.32,2.34,10.71,6.71,16.57,4.36,5.85,9.69,14.26,9.5,14.26s5.13-8.41,9.5-14.26c4.37-5.85,6.92-11.25,6.71-16.57-.21-5.32-4.18-9.04-8.56-9.04s-7.19,2.78-7.29,6.61c0,0,.02,1.06-.35,1.03-.41-.03-.34-.77-.34-1.03h0Zm-69.02,0c-.1-3.83-2.91-6.61-7.29-6.61s-8.35,3.71-8.56,9.04c-.21,5.32,2.34,10.71,6.71,16.57,4.36,5.85,9.69,14.26,9.5,14.26s5.13-8.41,9.5-14.26c4.36-5.85,6.92-11.25,6.71-16.57-.21-5.32-4.18-9.04-8.56-9.04s-7.19,2.78-7.29,6.61c0,0,.02,1.06-.35,1.03-.41-.03-.34-.77-.34-1.03Z" style="fill: #e60012; fill-rule: evenodd; stroke-width: 0px;"/>
      </g>
    </g>
  </g>
</svg>