<?xml version="1.0" encoding="UTF-8"?>
<svg id="_图层_2" data-name="图层 2" xmlns="http://www.w3.org/2000/svg" viewBox="0 0 163.57 248.61">
  <g id="_图层_1-2" data-name="图层 1">
    <g>
      <path d="m162.57,242.01c0,3.08-2.51,5.6-5.57,5.6H6.57c-3.06,0-5.57-2.52-5.57-5.6V6.6C1,3.52,3.51,1,6.57,1h150.43c3.06,0,5.57,2.52,5.57,5.6v235.41Z" style="fill: #fff; fill-rule: evenodd; stroke: #231815; stroke-miterlimit: 22.93; stroke-width: 2px;"/>
      <g>
        <g>
          <path d="m9.11,20.21v-6.74h14.38l1.98,2.42c-.54.88-8.25,13.75-9.18,25.75h-3.13c.71-9.99,5.83-20.47,8.32-25.05h-9.26v3.62h-3.12Z" style="fill: #e60012; stroke-width: 0px;"/>
          <path d="m17.12,49.99c-.05-1.85-1.4-3.18-3.51-3.18s-4.02,1.79-4.13,4.35c-.1,2.56,1.13,5.16,3.23,7.98,2.1,2.82,4.67,6.87,4.58,6.87s2.47-4.05,4.58-6.87c2.1-2.82,3.33-5.42,3.23-7.98-.1-2.56-2.01-4.35-4.13-4.35s-3.47,1.34-3.51,3.18c0,0,0,.51-.17.5-.2-.01-.16-.37-.17-.5Z" style="fill: #e60012; fill-rule: evenodd; stroke-width: 0px;"/>
        </g>
        <g>
          <path d="m154.47,228.4v6.74h-14.38l-1.98-2.42c.54-.88,8.25-13.75,9.18-25.75h3.13c-.71,9.99-5.83,20.47-8.32,25.05h9.26v-3.62h3.12Z" style="fill: #e60012; stroke-width: 0px;"/>
          <path d="m146.45,198.62c.05,1.85,1.4,3.18,3.51,3.18s4.02-1.79,4.13-4.35c.1-2.56-1.13-5.16-3.23-7.98-2.1-2.82-4.67-6.87-4.58-6.87s-2.47,4.05-4.58,6.87c-2.1,2.82-3.33,5.42-3.23,7.98.1,2.56,2.01,4.35,4.13,4.35s3.47-1.34,3.51-3.18c0,0,0-.51.17-.5.2.01.16.37.17.5Z" style="fill: #e60012; fill-rule: evenodd; stroke-width: 0px;"/>
        </g>
        <path d="m47.63,211.15c.1,3.83,2.91,6.61,7.29,6.61s8.35-3.71,8.56-9.04-2.34-10.71-6.71-16.57c-4.36-5.85-9.69-14.26-9.5-14.26s-5.13,8.41-9.5,14.26c-4.36,5.85-6.92,11.25-6.71,16.57s4.18,9.04,8.56,9.04,7.19-2.78,7.29-6.61c0,0-.02-1.06.35-1.03.41.03.34.77.34,1.03h0Zm69.02,0c.1,3.83,2.91,6.61,7.29,6.61s8.35-3.71,8.56-9.04c.21-5.32-2.34-10.71-6.71-16.57-4.36-5.85-9.69-14.26-9.5-14.26s-5.13,8.41-9.5,14.26c-4.37,5.85-6.92,11.25-6.71,16.57.21,5.32,4.18,9.04,8.56,9.04s7.19-2.78,7.29-6.61c0,0-.02-1.06.35-1.03.41.03.34.77.34,1.03h0Zm-35.21-136.92c-.1-3.83-2.91-6.61-7.29-6.61s-8.35,3.71-8.56,9.04c-.21,5.32,2.34,10.71,6.71,16.57,4.36,5.85,9.69,14.26,9.5,14.26s5.13-8.41,9.5-14.26c4.37-5.86,6.92-11.25,6.71-16.57-.21-5.32-4.18-9.04-8.56-9.04s-7.19,2.78-7.29,6.61c0,0,.02,1.06-.35,1.03-.41-.03-.34-.77-.34-1.03h0Zm34.51,36.76c-.1-3.83-2.91-6.61-7.29-6.61s-8.35,3.71-8.56,9.04c-.21,5.32,2.34,10.71,6.71,16.57,4.36,5.85,9.69,14.26,9.5,14.26s5.13-8.41,9.5-14.26c4.36-5.85,6.92-11.25,6.71-16.57-.21-5.32-4.18-9.04-8.56-9.04s-7.19,2.78-7.29,6.61c0,0,.02,1.06-.35,1.03-.41-.03-.34-.77-.34-1.03h0Zm-69.02,0c-.1-3.83-2.91-6.61-7.29-6.61s-8.35,3.71-8.56,9.04c-.21,5.32,2.34,10.71,6.71,16.57,4.36,5.85,9.69,14.26,9.5,14.26s5.13-8.41,9.5-14.26c4.36-5.85,6.92-11.25,6.71-16.57-.21-5.32-4.18-9.04-8.56-9.04s-7.19,2.78-7.29,6.61c0,0,.02,1.06-.35,1.03-.41-.03-.34-.77-.34-1.03h0ZM115.95,37.47c-.1-3.83-2.91-6.61-7.29-6.61s-8.35,3.71-8.56,9.04c-.21,5.32,2.34,10.71,6.71,16.57,4.36,5.85,9.69,14.26,9.5,14.26s5.13-8.41,9.5-14.26c4.36-5.85,6.92-11.25,6.71-16.57-.21-5.32-4.18-9.04-8.56-9.04s-7.19,2.78-7.29,6.61c0,0,.02,1.06-.35,1.03-.41-.03-.34-.77-.34-1.03h0Zm-69.02,0c-.1-3.83-2.91-6.61-7.29-6.61s-8.35,3.71-8.56,9.04c-.21,5.32,2.34,10.71,6.71,16.57,4.36,5.85,9.69,14.26,9.5,14.26s5.13-8.41,9.5-14.26c4.36-5.85,6.92-11.25,6.71-16.57-.21-5.32-4.18-9.04-8.56-9.04s-7.19,2.78-7.29,6.61c0,0,.02,1.06-.35,1.03-.41-.03-.34-.77-.34-1.03Z" style="fill: #e60012; fill-rule: evenodd; stroke-width: 0px;"/>
      </g>
    </g>
  </g>
</svg>