<?xml version="1.0" encoding="UTF-8"?>
<svg id="_图层_2" data-name="图层 2" xmlns="http://www.w3.org/2000/svg" viewBox="0 0 163.58 248.61">
  <g id="_图层_1-2" data-name="图层 1">
    <g>
      <path d="m162.58,242.01c0,3.08-2.51,5.6-5.57,5.6H6.57c-3.06,0-5.57-2.52-5.57-5.6V6.6C1,3.52,3.51,1,6.57,1h150.43c3.06,0,5.57,2.52,5.57,5.6v235.41Z" style="fill: #fff; fill-rule: evenodd; stroke: #231815; stroke-miterlimit: 22.93; stroke-width: 2px;"/>
      <g>
        <g>
          <path d="m21.41,27.12c.81.37,1.56.84,2.2,1.4,1.69,1.46,2.75,3.49,2.75,5.75s-1.05,4.29-2.75,5.75c-1.64,1.41-3.88,2.28-6.32,2.28s-4.69-.87-6.33-2.28c-1.69-1.46-2.75-3.49-2.75-5.75s1.05-4.29,2.75-5.75c.65-.56,1.39-1.03,2.2-1.4-.57-.3-1.09-.66-1.56-1.07-1.52-1.33-2.47-3.19-2.47-5.25s.95-3.91,2.47-5.25c1.47-1.29,3.48-2.08,5.68-2.08s4.21.8,5.68,2.08c1.52,1.33,2.47,3.19,2.47,5.25s-.95,3.91-2.47,5.25c-.47.41-.99.77-1.56,1.07h0Zm-4.12,2.24c-1.69,0-3.21.58-4.29,1.51-1.03.88-1.66,2.09-1.66,3.39s.64,2.51,1.66,3.4c1.09.93,2.6,1.51,4.29,1.51s3.2-.58,4.29-1.51c1.03-.88,1.66-2.09,1.66-3.4s-.64-2.51-1.66-3.39c-1.09-.93-2.6-1.51-4.29-1.51h0Zm0-12.77c-1.43,0-2.71.5-3.63,1.3-.86.76-1.4,1.79-1.4,2.91s.54,2.15,1.4,2.91c.92.8,2.2,1.3,3.63,1.3s2.71-.5,3.63-1.3c.86-.76,1.4-1.79,1.4-2.91s-.54-2.15-1.4-2.91c-.92-.8-2.2-1.3-3.63-1.3Z" style="fill: #e60012; stroke-width: 0px;"/>
          <path d="m17.12,49.99c-.05-1.85-1.4-3.18-3.51-3.18s-4.02,1.79-4.13,4.35c-.1,2.56,1.13,5.16,3.23,7.98,2.1,2.82,4.67,6.87,4.58,6.87s2.47-4.05,4.58-6.87c2.1-2.82,3.33-5.42,3.23-7.98-.1-2.56-2.01-4.35-4.13-4.35s-3.47,1.34-3.51,3.18c0,0,0,.51-.17.5-.2-.02-.16-.37-.17-.5Z" style="fill: #e60012; fill-rule: evenodd; stroke-width: 0px;"/>
        </g>
        <g>
          <path d="m142.16,221.49c-.81-.37-1.56-.84-2.2-1.4-1.7-1.46-2.75-3.49-2.75-5.75s1.05-4.29,2.75-5.75c1.63-1.41,3.87-2.28,6.32-2.28s4.69.87,6.32,2.28c1.69,1.46,2.75,3.49,2.75,5.75s-1.05,4.29-2.75,5.75c-.65.56-1.39,1.03-2.2,1.4.57.3,1.09.66,1.56,1.07,1.52,1.33,2.47,3.19,2.47,5.25s-.95,3.91-2.47,5.25c-1.47,1.29-3.48,2.08-5.68,2.08s-4.21-.8-5.68-2.08c-1.52-1.33-2.47-3.19-2.47-5.25s.95-3.91,2.47-5.25c.47-.41.99-.77,1.56-1.07h0Zm4.12-2.24c1.69,0,3.2-.58,4.29-1.51,1.03-.88,1.66-2.09,1.66-3.4s-.64-2.51-1.66-3.4c-1.09-.93-2.6-1.51-4.29-1.51s-3.21.58-4.29,1.51c-1.03.88-1.66,2.09-1.66,3.4s.64,2.51,1.66,3.4c1.09.93,2.6,1.51,4.29,1.51h0Zm0,12.77c1.43,0,2.71-.5,3.63-1.3.86-.76,1.4-1.79,1.4-2.91s-.54-2.15-1.4-2.91c-.92-.8-2.2-1.3-3.63-1.3s-2.71.5-3.63,1.3c-.86.75-1.4,1.79-1.4,2.91s.54,2.15,1.4,2.91c.92.8,2.2,1.3,3.63,1.3Z" style="fill: #e60012; stroke-width: 0px;"/>
          <path d="m146.45,198.62c.04,1.85,1.4,3.18,3.51,3.18s4.02-1.79,4.13-4.35c.1-2.56-1.13-5.16-3.23-7.98-2.1-2.82-4.67-6.87-4.58-6.87s-2.47,4.05-4.58,6.87c-2.1,2.82-3.33,5.42-3.23,7.98.1,2.56,2.02,4.35,4.13,4.35s3.47-1.34,3.51-3.18c0,0,0-.51.17-.5.2.01.16.37.17.5Z" style="fill: #e60012; fill-rule: evenodd; stroke-width: 0px;"/>
        </g>
        <path d="m82.14,174.39c.1,3.83,2.91,6.61,7.29,6.61s8.35-3.72,8.56-9.04c.21-5.32-2.34-10.71-6.71-16.57-4.36-5.85-9.69-14.26-9.5-14.26s-5.13,8.41-9.5,14.26c-4.36,5.85-6.92,11.25-6.71,16.57.21,5.32,4.18,9.04,8.56,9.04s7.19-2.78,7.29-6.61c0,0-.02-1.06.35-1.03.41.03.34.77.34,1.03h0Zm33.81-63.41c-.1-3.83-2.91-6.61-7.29-6.61s-8.35,3.71-8.56,9.04c-.21,5.32,2.34,10.71,6.71,16.57,4.36,5.85,9.68,14.26,9.5,14.26s5.13-8.41,9.5-14.26c4.37-5.85,6.92-11.25,6.71-16.57-.21-5.32-4.18-9.04-8.56-9.04s-7.2,2.78-7.29,6.61c0,0,.02,1.06-.35,1.03-.41-.03-.34-.77-.35-1.03h0Zm-69.02,0c-.1-3.83-2.91-6.61-7.29-6.61s-8.35,3.71-8.56,9.04c-.21,5.32,2.34,10.71,6.71,16.57,4.36,5.85,9.69,14.26,9.5,14.26s5.13-8.41,9.5-14.26c4.37-5.85,6.92-11.25,6.71-16.57-.21-5.32-4.18-9.04-8.56-9.04s-7.19,2.78-7.29,6.61c0,0,.02,1.06-.35,1.03-.41-.03-.34-.77-.34-1.03h0Zm34.51-36.76c-.1-3.83-2.91-6.61-7.29-6.61s-8.35,3.71-8.56,9.04,2.34,10.71,6.71,16.57c4.36,5.86,9.69,14.26,9.5,14.26s5.13-8.41,9.5-14.26c4.36-5.85,6.92-11.24,6.71-16.57s-4.18-9.04-8.56-9.04-7.19,2.78-7.29,6.61c0,0,.02,1.06-.35,1.03-.41-.03-.34-.77-.34-1.03h0Zm34.51-36.76c-.1-3.83-2.91-6.61-7.29-6.61s-8.35,3.71-8.56,9.04c-.21,5.32,2.34,10.71,6.71,16.57,4.36,5.85,9.68,14.26,9.5,14.26s5.13-8.41,9.5-14.26c4.37-5.85,6.92-11.25,6.71-16.57-.21-5.32-4.18-9.04-8.56-9.04s-7.2,2.78-7.29,6.61c0,0,.02,1.06-.35,1.03-.41-.03-.34-.77-.35-1.03h0Zm-69.02,0c-.1-3.83-2.91-6.61-7.29-6.61s-8.35,3.71-8.56,9.04c-.21,5.32,2.34,10.71,6.71,16.57,4.36,5.85,9.69,14.26,9.5,14.26s5.13-8.41,9.5-14.26c4.37-5.85,6.92-11.25,6.71-16.57-.21-5.32-4.18-9.04-8.56-9.04s-7.19,2.78-7.29,6.61c0,0,.02,1.06-.35,1.03-.41-.03-.34-.77-.34-1.03h0Zm.7,173.68c.1,3.83,2.91,6.61,7.29,6.61s8.35-3.71,8.56-9.04c.21-5.32-2.34-10.71-6.71-16.57-4.36-5.85-9.69-14.26-9.5-14.26s-5.13,8.41-9.5,14.26c-4.37,5.85-6.92,11.25-6.71,16.57.21,5.32,4.18,9.04,8.56,9.04s7.19-2.78,7.29-6.61c0,0-.02-1.06.35-1.03.41.03.34.77.34,1.03h0Zm69.02,0c.1,3.83,2.91,6.61,7.29,6.61s8.35-3.71,8.56-9.04-2.34-10.71-6.71-16.57c-4.36-5.85-9.69-14.26-9.5-14.26s-5.13,8.41-9.5,14.26c-4.36,5.86-6.92,11.25-6.71,16.57.21,5.32,4.18,9.04,8.56,9.04s7.19-2.78,7.29-6.61c0,0-.02-1.06.36-1.03.41.03.34.77.34,1.03Z" style="fill: #e60012; fill-rule: evenodd; stroke-width: 0px;"/>
      </g>
    </g>
  </g>
</svg>