<?xml version="1.0" encoding="UTF-8"?>
<svg id="_图层_2" data-name="图层 2" xmlns="http://www.w3.org/2000/svg" viewBox="0 0 163.57 248.61">
  <g id="_图层_1-2" data-name="图层 1">
    <g>
      <path d="m162.57,242.01c0,3.08-2.51,5.6-5.57,5.6H6.57c-3.06,0-5.57-2.52-5.57-5.6V6.6C1,3.52,3.51,1,6.57,1h150.43c3.06,0,5.57,2.52,5.57,5.6v235.41Z" style="fill: #fff; fill-rule: evenodd; stroke: #231815; stroke-miterlimit: 22.93; stroke-width: 2px;"/>
      <g>
        <g>
          <path d="m11.6,35.58s1.5,3.39,5.71,3.05h-.04c1.71-.17,2.84-1.16,3.61-2.63.72-1.38,1.16-3.17,1.46-5.14-.21.18-.43.35-.65.5-1.25.87-2.65,1.33-4.06,1.39-1.4.07-2.81-.26-4.09-.95-2.06-1.11-3.76-3.17-4.48-6.07-1.1-4.45.5-8.16,3.07-10.29,1.41-1.16,3.11-1.86,4.83-1.96,1.77-.11,3.56.41,5.09,1.67,1.94,1.6,3.42,4.44,3.76,8.79h0c.13,1.68.09,3.59-.16,5.74-.34,2.9-.89,5.63-1.99,7.75-1.24,2.38-3.12,3.99-6.05,4.3h-.04c-6.4.54-8.81-4.88-8.81-4.9l2.85-1.25h0Zm11.08-11.81c-.3-3.14-1.31-5.13-2.62-6.22-.87-.72-1.9-1.01-2.92-.95-1.07.06-2.13.51-3.03,1.25-1.74,1.44-2.81,4-2.04,7.14.49,1.98,1.6,3.35,2.93,4.07.77.41,1.62.61,2.47.57.84-.04,1.67-.31,2.42-.83,1.3-.91,2.35-2.55,2.78-5.03Z" style="fill: #e60012; stroke-width: 0px;"/>
          <path d="m17.12,49.99c-.05-1.85-1.4-3.18-3.51-3.18s-4.02,1.79-4.12,4.35c-.1,2.56,1.13,5.16,3.23,7.98,2.1,2.82,4.67,6.87,4.58,6.87s2.47-4.05,4.58-6.87c2.1-2.82,3.33-5.42,3.23-7.98-.1-2.56-2.01-4.35-4.13-4.35s-3.46,1.34-3.51,3.18c0,0,0,.51-.17.5-.2-.02-.16-.37-.17-.5Z" style="fill: #e60012; fill-rule: evenodd; stroke-width: 0px;"/>
        </g>
        <g>
          <path d="m151.98,213.04s-1.5-3.39-5.71-3.05h.04c-1.71.17-2.84,1.16-3.61,2.63-.72,1.38-1.16,3.17-1.46,5.14.21-.18.43-.35.65-.5,1.25-.87,2.65-1.33,4.06-1.39,1.4-.07,2.81.26,4.09.95,2.06,1.11,3.76,3.17,4.48,6.07,1.1,4.45-.5,8.16-3.07,10.29-1.4,1.16-3.11,1.86-4.83,1.96-1.77.11-3.56-.41-5.09-1.67-1.94-1.6-3.42-4.44-3.76-8.79h0c-.13-1.68-.09-3.59.16-5.74.34-2.9.89-5.63,2-7.75,1.24-2.38,3.12-3.99,6.05-4.3h.04c6.41-.54,8.81,4.88,8.81,4.9l-2.85,1.25h0Zm-11.08,11.81c.3,3.14,1.31,5.13,2.62,6.21.87.72,1.9,1.01,2.92.95,1.07-.06,2.13-.51,3.03-1.25,1.74-1.44,2.81-4,2.04-7.14-.49-1.98-1.6-3.35-2.93-4.07-.77-.41-1.62-.61-2.47-.57-.84.04-1.67.31-2.42.83-1.3.91-2.35,2.55-2.78,5.03Z" style="fill: #e60012; stroke-width: 0px;"/>
          <path d="m146.45,198.62c.05,1.85,1.4,3.18,3.51,3.18s4.03-1.79,4.13-4.35c.1-2.56-1.13-5.16-3.23-7.98-2.1-2.82-4.67-6.87-4.58-6.87s-2.47,4.05-4.58,6.87c-2.1,2.82-3.33,5.42-3.23,7.98.1,2.56,2.01,4.35,4.12,4.35s3.47-1.34,3.51-3.18c0,0,0-.51.17-.5.2.01.16.37.17.5Z" style="fill: #e60012; fill-rule: evenodd; stroke-width: 0px;"/>
        </g>
        <path d="m81.44,110.98c-.1-3.83-2.91-6.61-7.29-6.61s-8.35,3.71-8.56,9.04c-.21,5.32,2.34,10.71,6.71,16.57,4.36,5.85,9.69,14.26,9.5,14.26s5.13-8.41,9.5-14.26c4.37-5.85,6.92-11.25,6.71-16.57-.21-5.32-4.18-9.04-8.56-9.04s-7.19,2.78-7.29,6.61c0,0,.02,1.06-.35,1.03-.41-.03-.34-.77-.35-1.03h0Zm-34.51-24.5c-.1-3.83-2.91-6.61-7.29-6.61s-8.35,3.71-8.56,9.04c-.21,5.32,2.34,10.71,6.71,16.57,4.36,5.85,9.69,14.26,9.5,14.26s5.13-8.41,9.5-14.26c4.37-5.85,6.92-11.25,6.71-16.57-.21-5.32-4.18-9.04-8.56-9.04s-7.2,2.78-7.29,6.61c0,0,.02,1.06-.35,1.03-.41-.03-.34-.77-.35-1.03h0Zm69.02,0c-.1-3.83-2.91-6.61-7.29-6.61s-8.35,3.71-8.56,9.04c-.21,5.32,2.34,10.71,6.71,16.57,4.36,5.85,9.69,14.26,9.5,14.26s5.13-8.41,9.5-14.26c4.36-5.85,6.92-11.25,6.71-16.57-.21-5.32-4.18-9.04-8.56-9.04s-7.19,2.78-7.29,6.61c0,0,.02,1.06-.36,1.03-.41-.03-.34-.77-.34-1.03h0Zm.7,75.66c.1,3.83,2.91,6.61,7.29,6.61s8.35-3.71,8.56-9.04c.21-5.32-2.34-10.71-6.71-16.57-4.36-5.85-9.69-14.26-9.5-14.26s-5.13,8.41-9.5,14.26c-4.37,5.85-6.92,11.25-6.71,16.57.21,5.32,4.18,9.04,8.56,9.04s7.2-2.78,7.29-6.61c0,0-.02-1.06.35-1.03.41.03.34.77.35,1.03h0Zm-69.02,0c.1,3.83,2.91,6.61,7.29,6.61s8.35-3.71,8.56-9.04c.21-5.32-2.34-10.71-6.71-16.57-4.36-5.85-9.69-14.26-9.5-14.26s-5.13,8.41-9.5,14.26c-4.36,5.85-6.92,11.25-6.71,16.57.21,5.32,4.18,9.04,8.56,9.04s7.19-2.78,7.29-6.61c0,0-.02-1.06.36-1.03.41.03.34.77.34,1.03h0Zm-.7-124.67c-.1-3.83-2.91-6.61-7.29-6.61s-8.35,3.71-8.56,9.04c-.21,5.32,2.34,10.71,6.71,16.57,4.36,5.85,9.69,14.26,9.5,14.26s5.13-8.41,9.5-14.26c4.37-5.85,6.92-11.25,6.71-16.57-.21-5.32-4.18-9.04-8.56-9.04s-7.2,2.78-7.29,6.61c0,0,.02,1.06-.35,1.03-.41-.03-.34-.77-.35-1.03h0Zm69.02,0c-.1-3.83-2.91-6.61-7.29-6.61s-8.35,3.71-8.56,9.04c-.21,5.32,2.34,10.71,6.71,16.57,4.36,5.85,9.69,14.26,9.5,14.26s5.13-8.41,9.5-14.26c4.36-5.85,6.92-11.25,6.71-16.57-.21-5.32-4.18-9.04-8.56-9.04s-7.19,2.78-7.29,6.61c0,0,.02,1.06-.36,1.03-.41-.03-.34-.77-.34-1.03h0Zm.7,173.68c.1,3.83,2.91,6.61,7.29,6.61s8.35-3.71,8.56-9.04-2.34-10.71-6.71-16.57-9.69-14.26-9.5-14.26-5.13,8.41-9.5,14.26c-4.37,5.85-6.92,11.25-6.71,16.57.21,5.32,4.18,9.04,8.56,9.04s7.2-2.78,7.29-6.61c0,0-.02-1.06.35-1.03.41.03.34.77.35,1.03h0Zm-69.02,0c.1,3.83,2.91,6.61,7.29,6.61s8.35-3.71,8.56-9.04-2.34-10.71-6.71-16.57c-4.36-5.85-9.69-14.26-9.5-14.26s-5.13,8.41-9.5,14.26c-4.36,5.85-6.92,11.25-6.71,16.57s4.18,9.04,8.56,9.04,7.19-2.78,7.29-6.61c0,0-.02-1.06.36-1.03.41.03.34.77.34,1.03Z" style="fill: #e60012; fill-rule: evenodd; stroke-width: 0px;"/>
      </g>
    </g>
  </g>
</svg>