<?xml version="1.0" encoding="UTF-8"?>
<svg id="_图层_2" data-name="图层 2" xmlns="http://www.w3.org/2000/svg" viewBox="0 0 210.38 79.98">
  <g id="_图层_9" data-name="图层 9">
    <g>
      <g>
        <ellipse cx="104.74" cy="27.97" rx="104.43" ry="27.66" style="fill: #b7ce45; stroke: #96ab22; stroke-miterlimit: 10; stroke-width: .61px;"/>
        <ellipse cx="62.65" cy="47.1" rx="1.88" ry=".71" style="fill: #fff; stroke-width: 0px;"/>
        <ellipse cx="60.23" cy="44.7" rx="1.88" ry=".71" style="fill: #fff; stroke-width: 0px;"/>
        <ellipse cx="71.33" cy="46.4" rx="1.88" ry=".71" style="fill: #fff; stroke-width: 0px;"/>
        <ellipse cx="64.96" cy="49.22" rx="1.88" ry=".71" style="fill: #fff; stroke-width: 0px;"/>
        <ellipse cx="53.83" cy="47.65" rx="1.88" ry=".71" style="fill: #fff; stroke-width: 0px;"/>
        <ellipse cx="138.12" cy="9.02" rx="1.88" ry=".71" style="fill: #fff; stroke-width: 0px;"/>
        <ellipse cx="155.53" cy="7.85" rx="1.88" ry=".71" style="fill: #fff; stroke-width: 0px;"/>
        <ellipse cx="147.72" cy="46.85" rx="1.88" ry=".71" style="fill: #fff; stroke-width: 0px;"/>
        <ellipse cx="183.6" cy="26.03" rx="1.88" ry=".71" style="fill: #fff; stroke-width: 0px;"/>
        <ellipse cx="189.86" cy="27.44" rx="1.88" ry=".71" style="fill: #fff; stroke-width: 0px;"/>
        <ellipse cx="196.22" cy="29.08" rx="1.88" ry=".71" style="fill: #fff; stroke-width: 0px;"/>
        <polygon points="127.32 9.31 152.44 12.86 165.27 6.49 141.02 3.09 127.32 9.31" style="fill: none; opacity: .99; stroke: #fff; stroke-miterlimit: 10; stroke-width: .31px;"/>
        <polygon points="31.51 31.02 31.51 24.09 4.61 24.09 4.32 31.02 31.51 31.02" style="fill: none; stroke: #fff; stroke-miterlimit: 10; stroke-width: .31px;"/>
        <polygon points="142.28 50.91 167.4 48.09 154.05 42.04 129.7 45.15 142.28 50.91" style="fill: none; stroke: #fff; stroke-miterlimit: 10; stroke-width: .31px;"/>
        <polygon points="43.1 48.35 56.51 42.19 80.82 45.15 67.36 51.69 43.1 48.35" style="fill: none; stroke: #fff; stroke-miterlimit: 10; stroke-width: .31px;"/>
        <polygon points="174.42 31.29 202.26 30.95 202.26 23.8 174.42 23.8 174.42 31.29" style="fill: none; stroke: #fff; stroke-miterlimit: 10; stroke-width: .31px;"/>
        <path d="m89.06,54.27c5.12.2,10.35.3,15.68.3,5.72,0,11.34-.12,16.81-.35l-3.79-5.11h-25.46l-3.25,5.16Z" style="fill: #fff; stroke: #96ab22; stroke-miterlimit: 10; stroke-width: .61px;"/>
        <path d="m179.17,35.76c-.77,2.14-10.27,5.4-10.27,5.4l17.18,4.15c6.48-2.13,11.8-4.52,15.69-7.1l-22.6-2.45Z" style="fill: #fff; stroke: #96ab22; stroke-miterlimit: 10; stroke-width: .61px;"/>
        <path d="m31.51,20.37c.53-2.04,9.59-5.25,9.59-5.25l-18.35-4.29c-6.79,2.27-12.25,4.84-16.09,7.61l24.84,1.93Z" style="fill: #fff; stroke: #96ab22; stroke-miterlimit: 10; stroke-width: .61px;"/>
        <path d="m91.75,7.3h25.1l5.2-6.61c-5.63-.25-11.41-.38-17.31-.38s-12.16.14-18.01.41l5.03,6.58Z" style="fill: #fff; stroke: #96ab22; stroke-miterlimit: 10; stroke-width: .61px;"/>
        <path d="m186.62,10.8l-18.71,4.3c5.5.97,10.9,5,10.9,5l23.32-2.13c-3.81-2.6-9.07-5.01-15.51-7.17Z" style="fill: #fff; stroke: #96ab22; stroke-miterlimit: 10; stroke-width: .61px;"/>
        <polygon points="57.22 13.53 81.37 9.73 67.63 3.13 42.05 7 57.22 13.53" style="fill: none; stroke: #fff; stroke-miterlimit: 10; stroke-width: .31px;"/>
        <ellipse cx="63.69" cy="6.15" rx="1.7" ry=".57" style="fill: #fff; stroke-width: 0px;"/>
        <ellipse cx="66.96" cy="7.59" rx="1.7" ry=".57" style="fill: #fff; stroke-width: 0px;"/>
        <ellipse cx="70.36" cy="9.04" rx="1.7" ry=".57" style="fill: #fff; stroke-width: 0px;"/>
        <ellipse cx="59.15" cy="10.79" rx="1.7" ry=".57" style="fill: #fff; stroke-width: 0px;"/>
        <ellipse cx="56.12" cy="9.33" rx="1.7" ry=".57" style="fill: #fff; stroke-width: 0px;"/>
        <ellipse cx="52.97" cy="7.87" rx="1.7" ry=".57" style="fill: #fff; stroke-width: 0px;"/>
        <ellipse cx="25.68" cy="26.1" rx="1.88" ry=".71" style="fill: #fff; stroke-width: 0px;"/>
        <ellipse cx="25.68" cy="29.36" rx="1.88" ry=".71" style="fill: #fff; stroke-width: 0px;"/>
        <ellipse cx="13" cy="26.1" rx="1.88" ry=".71" style="fill: #fff; stroke-width: 0px;"/>
        <ellipse cx="13" cy="29.36" rx="1.88" ry=".71" style="fill: #fff; stroke-width: 0px;"/>
        <path d="m.31,28.77s2.16,26.48,107.85,26.31c105.7-.17,100.48-29.69,100.48-29.69,0,0,3.23,16.29-.01,30.2,0,0-5.56,21.02-99.54,24.08,0,0-88.75.38-108.02-23.56L.31,28.77Z" style="fill: #b7ce45; stroke: #96ab22; stroke-miterlimit: 10; stroke-width: .61px;"/>
        <path d="m185.5,69.64c7.67-2.41,12.82-4.92,16.26-7.13v-24.97c-3.42,2.78-8.51,5.7-16.08,8.33l-.18,23.77Z" style="fill: #fff; stroke: #96ab22; stroke-miterlimit: 10; stroke-width: .61px;"/>
        <path d="m121.55,54.67c-4.26.12-8.71.19-13.39.2-6.79.01-13.14-.09-19.1-.29v24.51c11.89.62,20.03.59,20.03.59,4.34-.14,8.49-.32,12.46-.54v-24.47Z" style="fill: #fff; stroke: #96ab22; stroke-miterlimit: 10; stroke-width: .62px;"/>
        <path d="m7.27,37.92c4.23,2.9,10.25,5.57,17.71,7.91l16.13-4.42c-3.33-.39-10.51-5.4-10.51-5.4l-23.32,1.91Z" style="fill: #fff; stroke: #96ab22; stroke-miterlimit: 10; stroke-width: .61px;"/>
        <path d="m7.96,62.58c4.44,2.93,10.02,5.38,16.28,7.43l.24-24.04c-7.52-2.5-12.72-5.21-16.29-7.73l-.23,24.33Z" style="fill: #fff; stroke: #96ab22; stroke-miterlimit: 10; stroke-width: .62px;"/>
        <path d="m104.74,9.73c-37.18,0-67.31,7.93-67.31,17.71s30.14,17.71,67.31,17.71,67.31-7.93,67.31-17.71-30.14-17.71-67.31-17.71Zm.31,33.88c-33.39,0-60.46-7.12-60.46-15.91s27.07-15.91,60.46-15.91,60.46,7.12,60.46,15.91-27.07,15.91-60.46,15.91Z" style="fill: #96ab22; stroke-width: 0px;"/>
        <path d="m159.75,17.24l-4.88,1.45c3.39,1.3,6.08,2.73,7.9,4.26l4.34-2.17c-1.94-1.26-4.42-2.44-7.36-3.54Z" style="fill: #fff; stroke-width: 0px;"/>
        <path d="m165.51,27.7c0,.85-.26,1.68-.75,2.49l5.68,1.09c1.04-1.24,1.61-2.53,1.61-3.85,0-.48-.09-.95-.23-1.41h-6.65c.22.55.34,1.11.34,1.67Z" style="fill: #fff; stroke-width: 0px;"/>
        <path d="m159.97,34.35c-1.72.99-3.81,1.92-6.23,2.78l.54,2.3c4.64-1.33,8.51-2.84,11.45-4.5l-5.76-.58Z" style="fill: #fff; stroke-width: 0px;"/>
        <path d="m142.62,40.16c-4.04.85-8.5,1.56-13.29,2.11v1.66c5.06-.52,9.81-1.2,14.18-2.01l-.89-1.76Z" style="fill: #fff; stroke-width: 0px;"/>
        <path d="m112.12,45.05v-1.55c-2.32.07-4.68.11-7.08.11s-4.77-.04-7.1-.11l-.05,1.57c2.25.06,4.54.09,6.85.09,2.5,0,4.96-.04,7.38-.11Z" style="fill: #fff; stroke-width: 0px;"/>
        <path d="m80.82,42.28c-4.38-.5-8.49-1.14-12.25-1.89l-.93,1.83c4.1.71,8.52,1.31,13.19,1.78v-1.72Z" style="fill: #fff; stroke-width: 0px;"/>
        <path d="m56.24,37.09c-2.27-.82-4.26-1.69-5.91-2.62l-5.58,1c3.03,1.56,6.91,2.99,11.5,4.25v-2.63Z" style="fill: #fff; stroke-width: 0px;"/>
        <path d="m130.1,13.23c5.17.62,9.94,1.42,14.2,2.38v-2.49c-4.28-.82-8.93-1.51-13.89-2.05l-.31,2.16Z" style="fill: #fff; stroke-width: 0px;"/>
        <path d="m42.05,20.99l5.09,2.13c1.57-1.37,3.82-2.67,6.65-3.86l-2.67-2.53c-3.73,1.29-6.79,2.72-9.08,4.26Z" style="fill: #fff; stroke-width: 0px;"/>
        <path d="m44.59,27.7c0-.36.06-.72.15-1.08l-7.15-.38c-.1.4-.17.79-.17,1.19,0,1.41.65,2.78,1.83,4.1l6.77-.39c-.94-1.11-1.45-2.27-1.45-3.46Z" style="fill: #fff; stroke-width: 0px;"/>
        <path d="m64.69,13.21v2.65c4.3-1.01,9.15-1.87,14.43-2.53l-1.26-2.13c-4.69.54-9.11,1.21-13.17,2Z" style="fill: #fff; stroke-width: 0px;"/>
        <path d="m96.38,9.87v2.09c2.83-.11,5.72-.17,8.67-.17,2.42,0,4.8.04,7.15.11v-2.07c-2.45-.07-4.94-.11-7.46-.11-2.83,0-5.62.05-8.36.14Z" style="fill: #fff; stroke-width: 0px;"/>
      </g>
      <g>
        <path d="m64.2,36.75l.52-2.07c-1.82-.08-3.1-.63-3.83-1.64-.72-1-.84-2.36-.37-4.06h3.83c-.18.86-.19,1.48-.01,1.86.18.38.55.59,1.11.61l.94-3.73c-1.76-.44-2.94-1.04-3.56-1.8-.61-.75-.74-1.73-.4-2.94.37-1.32,1.14-2.36,2.31-3.15s2.52-1.18,4.12-1.21l.31-1.25h1.54l-.29,1.23c1.51.04,2.6.43,3.29,1.19.7.76.93,1.84.7,3.25h-3.5c.1-.61.06-1.07-.13-1.38-.19-.31-.53-.47-1.01-.49l-.75,3.14c1.83.49,3.08,1.12,3.74,1.89s.86,1.85.58,3.21c-.33,1.61-1.06,2.87-2.22,3.75-1.17.89-2.75,1.41-4.75,1.53l-.49,2.05h-1.67Zm3.42-12.8l.69-2.81h-.08c-.57,0-1.03.11-1.38.34-.34.22-.58.57-.7,1.03-.09.35-.03.64.18.86.21.22.64.42,1.27.59Zm-.6,7.5c.68,0,1.22-.13,1.63-.39s.67-.65.78-1.15c.1-.44.03-.79-.2-1.04-.23-.26-.7-.5-1.41-.73l-.79,3.32Z" style="fill: #fff; stroke: #96ab22; stroke-miterlimit: 10;"/>
        <path d="m73.49,34.4s.02-.12.03-.21c.01-.09.02-.16.03-.21.24-1.21.79-2.34,1.65-3.39.85-1.03,2.1-2.1,3.73-3.18.43-.29,1.01-.66,1.75-1.11,1.76-1.08,2.68-2,2.79-2.78.09-.59,0-1.05-.26-1.38-.26-.33-.66-.5-1.19-.5-.67,0-1.2.22-1.61.66-.41.44-.69,1.12-.84,2.04l-.04.26h-3.85c.01-.06.02-.13.03-.23.01-.1.02-.16.03-.21.36-1.85,1.16-3.27,2.41-4.28,1.23-1,2.76-1.49,4.59-1.49,1.68,0,2.96.42,3.86,1.26.91.85,1.28,1.99,1.12,3.43-.11.96-.41,1.78-.89,2.43s-1.42,1.4-2.8,2.22c-.17.1-.43.26-.8.48-1.34.77-2.38,1.46-3.13,2.06h6.74l-.48,4.12h-12.86Z" style="fill: #fff; stroke: #96ab22; stroke-miterlimit: 10;"/>
        <path d="m88.32,29.95l4.39-.46c.13.49.35.86.67,1.11.32.25.73.38,1.23.38.66,0,1.19-.2,1.59-.59.4-.39.61-.92.65-1.59s-.11-1.23-.45-1.63c-.34-.4-.79-.61-1.37-.61-.35,0-.68.07-.98.22-.3.15-.57.37-.8.65l-4-.36,2.24-8.27h8.88l-.12,3.48h-6.19l-.58,2.14c.42-.25.88-.43,1.37-.54.49-.11,1.04-.17,1.65-.17,1.46,0,2.62.44,3.48,1.33.87.9,1.29,2.11,1.25,3.63-.05,1.9-.68,3.42-1.89,4.52-1.23,1.12-2.91,1.69-5.03,1.69-1.75,0-3.16-.44-4.21-1.32s-1.63-2.08-1.77-3.62Z" style="fill: #fff; stroke: #96ab22; stroke-miterlimit: 10;"/>
        <path d="m103.06,38.92l.04-2.39c.76-.12,1.32-.37,1.67-.74.34-.37.52-.89.52-1.57h-2.15l.07-4.97h4.52l.07,5.04c.02,1.3-.38,2.36-1.19,3.16-.82.81-2,1.3-3.54,1.46Z" style="fill: #fff; stroke: #96ab22; stroke-miterlimit: 10;"/>
        <path d="m109.36,26.2c-.07-2.65.41-4.6,1.42-5.89.99-1.28,2.48-1.91,4.49-1.91s3.6.63,4.77,1.91c1.19,1.3,1.93,3.25,2.22,5.89s-.04,4.9-1.03,6.39c-1.01,1.52-2.63,2.3-4.87,2.3s-3.94-.78-5.14-2.3c-1.18-1.5-1.79-3.65-1.86-6.39Zm8.43,0c-.13-1.67-.37-2.83-.72-3.49-.35-.66-.87-.99-1.57-.99s-1.19.32-1.45.98c-.26.66-.35,1.82-.26,3.5s.31,2.95.66,3.66c.36.71.91,1.07,1.66,1.07s1.25-.36,1.51-1.08c.26-.72.32-1.94.18-3.65Z" style="fill: #fff; stroke: #96ab22; stroke-miterlimit: 10;"/>
        <path d="m123.11,26.2c-.3-2.65,0-4.6.9-5.89.88-1.28,2.32-1.91,4.32-1.91s3.65.63,4.93,1.91c1.3,1.3,2.22,3.25,2.74,5.89s.39,4.9-.46,6.39c-.87,1.52-2.43,2.3-4.67,2.3s-4.01-.78-5.34-2.3c-1.31-1.5-2.11-3.65-2.42-6.39Zm8.43,0c-.28-1.67-.62-2.83-1.03-3.49-.41-.66-.96-.99-1.66-.99s-1.16.32-1.37.98c-.21.66-.19,1.82.05,3.5s.57,2.95.99,3.66c.42.71,1,1.07,1.76,1.07s1.21-.36,1.41-1.08c.19-.72.15-1.94-.14-3.65Z" style="fill: #fff; stroke: #96ab22; stroke-miterlimit: 10;"/>
        <path d="m136.86,26.2c-.53-2.65-.4-4.6.38-5.89.77-1.28,2.15-1.91,4.15-1.91s3.71.63,5.1,1.91c1.42,1.3,2.5,3.25,3.26,5.89s.83,4.9.1,6.39c-.74,1.52-2.23,2.3-4.46,2.3s-4.08-.78-5.55-2.3c-1.44-1.5-2.44-3.65-2.99-6.39Zm8.43,0c-.43-1.67-.87-2.83-1.34-3.49-.46-.66-1.05-.99-1.75-.99s-1.13.32-1.28.98c-.15.66-.03,1.82.36,3.5s.83,2.95,1.31,3.66c.48.71,1.1,1.07,1.85,1.07s1.18-.36,1.32-1.08c.13-.72-.02-1.94-.46-3.65Z" style="fill: #fff; stroke: #96ab22; stroke-miterlimit: 10;"/>
      </g>
    </g>
  </g>
</svg>