<?xml version="1.0" encoding="UTF-8"?>
<svg id="_图层_2" data-name="图层 2" xmlns="http://www.w3.org/2000/svg" viewBox="0 0 210.38 79.93">
  <g id="_图层_9" data-name="图层 9">
    <g>
      <g>
        <ellipse cx="104.67" cy="27.8" rx="104.37" ry="27.55" style="fill: #b7ce45; stroke: #96ab22; stroke-miterlimit: 10; stroke-width: .51px;"/>
        <path d="m104.57,9.57c-36.85,0-66.72,8.05-66.72,17.98s29.87,17.98,66.72,17.98,66.72-8.05,66.72-17.98-29.87-17.98-66.72-17.98Zm.32,33.95c-33.7,0-61.02-7.04-61.02-15.73s27.32-15.73,61.02-15.73,61.02,7.04,61.02,15.73-27.32,15.73-61.02,15.73Z" style="fill: #96ab22; stroke-width: 0px;"/>
        <path d="m133.67,41.66c-3.74.52-7.72.94-11.88,1.25l-.3,2.04c5.15-.36,10.06-.89,14.64-1.55-.75-.53-1.66-1.17-2.46-1.74Z" style="fill: #fff; stroke-width: 0px;"/>
        <path d="m157.48,35.77c-2.44,1.07-5.36,2.05-8.67,2.94l.16,2.27c5.09-1.22,9.47-2.65,12.98-4.24l-4.46-.97Z" style="fill: #fff; stroke-width: 0px;"/>
        <path d="m43.87,27.79c0-1.24.55-2.44,1.6-3.59l-6.23-.31c-.91,1.18-1.39,2.41-1.39,3.67,0,.49.08.98.22,1.47h5.98c-.12-.41-.18-.81-.18-1.23Z" style="fill: #fff; stroke-width: 0px;"/>
        <path d="m165.88,28.28c-.21,1.79-1.58,3.5-3.92,5.08l5.48.22c2.2-1.67,3.52-3.45,3.8-5.3h-5.36Z" style="fill: #fff; stroke-width: 0px;"/>
        <path d="m163.66,19.19l-5.07,1.12c2.81,1.34,4.89,2.79,6.1,4.33l5.34-.59c-1.26-1.72-3.43-3.35-6.37-4.86Z" style="fill: #fff; stroke-width: 0px;"/>
        <path d="m136.96,14.4c5.3.85,10.06,1.89,14.12,3.11l-.17-2.9c-3.48-.91-7.32-1.71-11.46-2.4l-2.48,2.19Z" style="fill: #fff; stroke-width: 0px;"/>
        <path d="m104.67,12.06c.07,0,.14,0,.22,0,5.75,0,11.31.21,16.58.59l-.7-2.54c-4.67-.31-9.52-.5-14.52-.53l-1.57,2.49Z" style="fill: #fff; stroke-width: 0px;"/>
        <path d="m47.14,18.39l2.64,2.63c2.7-1.46,6.24-2.79,10.46-3.96l-3.82-1.96c-3.54.99-6.65,2.1-9.28,3.29Z" style="fill: #fff; stroke-width: 0px;"/>
        <path d="m72.24,11.82l-.31,2.73c4.79-.79,10.03-1.42,15.61-1.84l-1.53-2.43c-4.84.38-9.46.9-13.78,1.54Z" style="fill: #fff; stroke-width: 0px;"/>
        <path d="m103.77,43.52c-4.48-.02-8.85-.17-13.04-.42l-1.74,1.95c4.93.32,10.08.49,15.37.49l-.58-2.02Z" style="fill: #fff; stroke-width: 0px;"/>
        <path d="m72.99,41.2c-3.69-.59-7.13-1.27-10.25-2.04l-3.17,1.66c4.23,1.04,8.96,1.94,14.09,2.66l-.66-2.29Z" style="fill: #fff; stroke-width: 0px;"/>
        <path d="m49.4,37.66l2.94-1.88c-2.39-1.04-4.34-2.16-5.75-3.35l-5.5.65c1.97,1.64,4.78,3.18,8.31,4.57Z" style="fill: #fff; stroke-width: 0px;"/>
        <path d="m62.02,9.57l23.45-2.32-5.18-6.23c-10.95.69-21.23,1.84-30.53,3.36l12.26,5.2Z" style="fill: #fff; stroke: #96ab22; stroke-miterlimit: 10; stroke-width: .51px;"/>
        <path d="m154.57,3.6l-10.55,5.96s13,1.39,18.89,3.88l17.8-4.51c-7.56-2.12-16.37-3.93-26.14-5.33Z" style="fill: #fff; stroke: #96ab22; stroke-miterlimit: 10; stroke-width: .51px;"/>
        <path d="m182.63,33.59l22.04,2.12c2.84-2.5,4.37-5.16,4.37-7.91,0-.08,0-.15-.01-.22l-24.01.22s.29,3.31-2.39,5.78Z" style="fill: #fff; stroke: #96ab22; stroke-miterlimit: 10; stroke-width: .51px;"/>
        <path d="m146.99,46.27c-12.92,2.93-23.26,2.42-23.26,2.42l4.82,5.94c10.56-.65,20.5-1.73,29.56-3.16l-11.12-5.2Z" style="fill: #fff; stroke: #96ab22; stroke-miterlimit: 10; stroke-width: .51px;"/>
        <path d="m31.18,47.12c7.39,1.95,15.89,3.6,25.22,4.9l9.68-5.4c-9.26-.29-19.16-3.71-19.16-3.71l-15.74,4.21Z" style="fill: #fff; stroke: #96ab22; stroke-miterlimit: 10; stroke-width: .51px;"/>
        <path d="m.31,27.8c0,.2.01.39.03.59l24.31-.17s.24-3.86,3.3-5.91l-23.98-1.76c-2.38,2.31-3.66,4.74-3.66,7.25Z" style="fill: #fff; stroke: #96ab22; stroke-miterlimit: 10; stroke-width: .51px;"/>
        <path d="m.31,28.42s2.16,26.64,107.85,26.47c105.7-.17,100.48-29.87,100.48-29.87,0,0,3.23,16.38-.01,30.38,0,0-5.56,21.14-99.54,24.22,0,0-88.75.38-108.02-23.7L.31,28.42Z" style="fill: #fff; opacity: .5; stroke: #231815; stroke-miterlimit: 10; stroke-width: .61px;"/>
        <path d="m.31,28.42s2.16,26.64,107.85,26.47c105.7-.17,100.48-29.87,100.48-29.87,0,0,3.23,16.38-.01,30.38,0,0-5.56,21.14-99.54,24.22,0,0-88.75.38-108.02-23.7L.31,28.42Z" style="fill: #b7ce45; stroke: #96ab22; stroke-miterlimit: 10; stroke-width: .61px;"/>
        <path d="m55.83,52.14c-10.08-1.33-18.23-3.05-24.82-4.96-.22,1.93-.07,17.04.01,23.64,7.77,2.24,16.33,3.91,24.81,5.16v-23.83Z" style="fill: #fff; stroke: #96ab22; stroke-miterlimit: 10; stroke-width: .6px;"/>
        <polygon points="81.24 46.27 109.82 47.18 107.3 53.96 77.22 53.23 81.24 46.27" style="fill: none; stroke: #fff; stroke-miterlimit: 10; stroke-width: .16px;"/>
        <ellipse cx="101.03" cy="48.43" rx="1.61" ry=".49" style="fill: #fff; stroke-width: 0px;"/>
        <ellipse cx="99.31" cy="51.8" rx="1.61" ry=".49" style="fill: #fff; stroke-width: 0px;"/>
        <ellipse cx="93.92" cy="49.89" rx="1.61" ry=".49" style="fill: #fff; stroke-width: 0px;"/>
        <ellipse cx="88.22" cy="47.94" rx="1.61" ry=".49" style="fill: #fff; stroke-width: 0px;"/>
        <ellipse cx="86.62" cy="51.32" rx="1.61" ry=".49" style="fill: #fff; stroke-width: 0px;"/>
        <ellipse cx="29.55" cy="34.07" rx="1.61" ry=".49" style="fill: #fff; stroke-width: 0px;"/>
        <ellipse cx="34.24" cy="37.04" rx="1.61" ry=".49" style="fill: #fff; stroke-width: 0px;"/>
        <ellipse cx="22.61" cy="38.35" rx="1.61" ry=".49" style="fill: #fff; stroke-width: 0px;"/>
        <ellipse cx="17.68" cy="35.07" rx="1.61" ry=".49" style="fill: #fff; stroke-width: 0px;"/>
        <polygon points="9.4 34.07 19.29 40.93 45.01 38.35 34.76 31.21 9.4 34.07" style="fill: none; stroke: #fff; stroke-miterlimit: 10; stroke-width: .16px;"/>
        <ellipse cx="38.27" cy="16.12" rx="1.61" ry=".49" style="fill: #fff; stroke-width: 0px;"/>
        <ellipse cx="33.1" cy="15.1" rx="1.61" ry=".49" style="fill: #fff; stroke-width: 0px;"/>
        <ellipse cx="28.14" cy="14.13" rx="1.61" ry=".49" style="fill: #fff; stroke-width: 0px;"/>
        <ellipse cx="35.85" cy="11.47" rx="1.61" ry=".49" style="fill: #fff; stroke-width: 0px;"/>
        <ellipse cx="40.89" cy="12.44" rx="1.61" ry=".49" style="fill: #fff; stroke-width: 0px;"/>
        <ellipse cx="45.98" cy="13.41" rx="1.61" ry=".49" style="fill: #fff; stroke-width: 0px;"/>
        <polygon points="18.1 13.89 39.88 18.39 55.62 12.68 33.6 8.72 18.1 13.89" style="fill: none; stroke: #fff; stroke-miterlimit: 10; stroke-width: .16px;"/>
        <path d="m102.96,1.01l-3.54,6.98,27.04,1.03s3.35-6.98,3.35-7.08-26.85-.92-26.85-.92Z" style="fill: none; stroke: #fff; stroke-miterlimit: 10; stroke-width: .16px;"/>
        <ellipse cx="108.65" cy="6.6" rx="1.61" ry=".49" style="fill: #fff; stroke-width: 0px;"/>
        <ellipse cx="123.07" cy="3.68" rx="1.61" ry=".49" style="fill: #fff; stroke-width: 0px;"/>
        <ellipse cx="175.28" cy="17.99" rx="1.61" ry=".49" style="fill: #fff; stroke-width: 0px;"/>
        <ellipse cx="183.6" cy="18.68" rx="1.61" ry=".49" style="fill: #fff; stroke-width: 0px;"/>
        <ellipse cx="191.94" cy="19.68" rx="1.61" ry=".49" style="fill: #fff; stroke-width: 0px;"/>
        <polygon points="166.59 16.49 191.36 13.85 202.49 20.16 176.88 23.38 166.59 16.49" style="fill: none; stroke: #fff; stroke-miterlimit: 10; stroke-width: .16px;"/>
        <polygon points="153.14 41.57 169.65 35.77 191.67 40.15 175.4 45.77 153.14 41.57" style="fill: none; stroke: #fff; stroke-miterlimit: 10; stroke-width: .16px;"/>
        <ellipse cx="172.4" cy="41.25" rx="1.61" ry=".49" style="fill: #fff; stroke-width: 0px;"/>
        <path d="m128.81,78.61c11.33-.8,21.02-1.92,29.3-3.22v-23.67c-8.28,1.23-17.97,2.17-29.3,2.69v24.19Z" style="fill: #fff; stroke: #96ab22; stroke-miterlimit: 10; stroke-width: .61px;"/>
        <path d="m208.45,27.63c-.41,1.84-1.5,4.49-4.32,7.43.6,3.23,1.68,11.59.3,25.37,3.64-2.94,4.18-5.02,4.18-5.02.06-.25.11-.5.16-.74.13-7,.28-20.29-.33-27.04Z" style="fill: #fff; stroke: #96ab22; stroke-miterlimit: 10; stroke-width: .61px;"/>
      </g>
      <g>
        <path d="m63.79,37.74l.52-2.07c-1.82-.08-3.1-.63-3.83-1.64-.72-1-.84-2.36-.37-4.06h3.83c-.18.86-.19,1.48-.01,1.86.18.38.55.59,1.11.61l.94-3.73c-1.76-.44-2.94-1.04-3.56-1.8-.61-.75-.74-1.73-.4-2.94.37-1.32,1.14-2.36,2.31-3.15s2.52-1.18,4.12-1.21l.31-1.25h1.54l-.29,1.23c1.51.04,2.6.43,3.29,1.19.7.76.93,1.84.7,3.25h-3.5c.1-.61.06-1.07-.13-1.38-.19-.31-.53-.47-1.01-.49l-.75,3.14c1.83.49,3.08,1.12,3.74,1.89s.86,1.85.58,3.21c-.33,1.61-1.06,2.87-2.22,3.75-1.17.89-2.75,1.41-4.75,1.53l-.49,2.05h-1.67Zm3.42-12.8l.69-2.81h-.08c-.57,0-1.03.11-1.38.34-.34.22-.58.57-.7,1.03-.09.35-.03.64.18.86.21.22.64.42,1.27.59Zm-.6,7.5c.68,0,1.22-.13,1.63-.39s.67-.65.78-1.15c.1-.44.03-.79-.2-1.04-.23-.26-.7-.5-1.41-.73l-.79,3.32Z" style="fill: #fff; stroke: #96ab22; stroke-miterlimit: 10;"/>
        <path d="m73.07,35.39s.02-.12.03-.21c.01-.09.02-.16.03-.21.24-1.21.79-2.34,1.65-3.39.85-1.03,2.1-2.1,3.73-3.18.43-.29,1.01-.66,1.75-1.11,1.76-1.08,2.68-2,2.79-2.78.09-.59,0-1.05-.26-1.38-.26-.33-.66-.5-1.19-.5-.67,0-1.2.22-1.61.66-.41.44-.69,1.12-.84,2.04l-.04.26h-3.85c.01-.06.02-.13.03-.23.01-.1.02-.16.03-.21.36-1.85,1.16-3.27,2.41-4.28,1.23-1,2.76-1.49,4.59-1.49,1.68,0,2.96.42,3.86,1.26.91.85,1.28,1.99,1.12,3.43-.11.96-.41,1.78-.89,2.43s-1.42,1.4-2.8,2.22c-.17.1-.43.26-.8.48-1.34.77-2.38,1.46-3.13,2.06h6.74l-.48,4.12h-12.86Z" style="fill: #fff; stroke: #96ab22; stroke-miterlimit: 10;"/>
        <path d="m87.9,30.94l4.39-.46c.13.49.35.86.67,1.11.32.25.73.38,1.23.38.66,0,1.19-.2,1.59-.59.4-.39.61-.92.65-1.59s-.11-1.23-.45-1.63c-.34-.4-.79-.61-1.37-.61-.35,0-.68.07-.98.22-.3.15-.57.37-.8.65l-4-.36,2.24-8.27h8.88l-.12,3.48h-6.19l-.58,2.14c.42-.25.88-.43,1.37-.54.49-.11,1.04-.17,1.65-.17,1.46,0,2.62.44,3.48,1.33.87.9,1.29,2.11,1.25,3.63-.05,1.9-.68,3.42-1.89,4.52-1.23,1.12-2.91,1.69-5.03,1.69-1.75,0-3.16-.44-4.21-1.32s-1.63-2.08-1.77-3.62Z" style="fill: #fff; stroke: #96ab22; stroke-miterlimit: 10;"/>
        <path d="m102.65,39.92l.04-2.39c.76-.12,1.32-.37,1.67-.74.34-.37.52-.89.52-1.57h-2.15l.07-4.97h4.52l.07,5.04c.02,1.3-.38,2.36-1.19,3.16-.82.81-2,1.3-3.54,1.46Z" style="fill: #fff; stroke: #96ab22; stroke-miterlimit: 10;"/>
        <path d="m108.94,27.19c-.07-2.65.41-4.6,1.42-5.89.99-1.28,2.48-1.91,4.49-1.91s3.6.63,4.77,1.91c1.19,1.3,1.93,3.25,2.22,5.89s-.04,4.9-1.03,6.39c-1.01,1.52-2.63,2.3-4.87,2.3s-3.94-.78-5.14-2.3c-1.18-1.5-1.79-3.65-1.86-6.39Zm8.43,0c-.13-1.67-.37-2.83-.72-3.49-.35-.66-.87-.99-1.57-.99s-1.19.32-1.45.98c-.26.66-.35,1.82-.26,3.5s.31,2.95.66,3.66c.36.71.91,1.07,1.66,1.07s1.25-.36,1.51-1.08c.26-.72.32-1.94.18-3.65Z" style="fill: #fff; stroke: #96ab22; stroke-miterlimit: 10;"/>
        <path d="m122.69,27.19c-.3-2.65,0-4.6.9-5.89.88-1.28,2.32-1.91,4.32-1.91s3.65.63,4.93,1.91c1.3,1.3,2.22,3.25,2.74,5.89s.39,4.9-.46,6.39c-.87,1.52-2.43,2.3-4.67,2.3s-4.01-.78-5.34-2.3c-1.31-1.5-2.11-3.65-2.42-6.39Zm8.43,0c-.28-1.67-.62-2.83-1.03-3.49-.41-.66-.96-.99-1.66-.99s-1.16.32-1.37.98c-.21.66-.19,1.82.05,3.5s.57,2.95.99,3.66c.42.71,1,1.07,1.76,1.07s1.21-.36,1.41-1.08c.19-.72.15-1.94-.14-3.65Z" style="fill: #fff; stroke: #96ab22; stroke-miterlimit: 10;"/>
        <path d="m136.44,27.19c-.53-2.65-.4-4.6.38-5.89.77-1.28,2.15-1.91,4.15-1.91s3.71.63,5.1,1.91c1.42,1.3,2.5,3.25,3.26,5.89s.83,4.9.1,6.39c-.74,1.52-2.23,2.3-4.46,2.3s-4.08-.78-5.55-2.3c-1.44-1.5-2.44-3.65-2.99-6.39Zm8.43,0c-.43-1.67-.87-2.83-1.34-3.49-.46-.66-1.05-.99-1.75-.99s-1.13.32-1.28.98c-.15.66-.03,1.82.36,3.5s.83,2.95,1.31,3.66c.48.71,1.1,1.07,1.85,1.07s1.18-.36,1.32-1.08c.13-.72-.02-1.94-.46-3.65Z" style="fill: #fff; stroke: #96ab22; stroke-miterlimit: 10;"/>
      </g>
    </g>
  </g>
</svg>