<?xml version="1.0" encoding="UTF-8"?>
<svg id="_图层_2" data-name="图层 2" xmlns="http://www.w3.org/2000/svg" viewBox="0 0 210.38 79.98">
  <g id="_图层_9" data-name="图层 9">
    <g>
      <g>
        <ellipse cx="104.67" cy="28.13" rx="104.37" ry="27.82" style="fill: #b7ce45; stroke: #96ab22; stroke-miterlimit: 10; stroke-width: .62px;"/>
        <path d="m104.46,9.8c-36.85,0-66.72,7.99-66.72,17.85s29.87,17.85,66.72,17.85,66.72-7.99,66.72-17.85-29.87-17.85-66.72-17.85Zm.32,33.7c-33.7,0-61.02-6.99-61.02-15.62s27.32-15.62,61.02-15.62,61.02,6.99,61.02,15.62-27.32,15.62-61.02,15.62Z" style="fill: #96ab22; stroke-width: 0px;"/>
        <path d="m45.57,36.05l3.36-1.86c-1.86-1.08-3.26-2.22-4.13-3.42l-5.89.22c1.27,1.8,3.54,3.5,6.67,5.06Z" style="fill: #fff; stroke-width: 0px;"/>
        <path d="m66.71,40.09c-3.34-.68-6.39-1.45-9.11-2.3l-4.07,1.39c3.84,1.21,8.27,2.29,13.18,3.19v-2.28Z" style="fill: #fff; stroke-width: 0px;"/>
        <path d="m95.24,43.31c-4.33-.17-8.5-.46-12.48-.86l-1.8,1.91c4.86.49,10,.83,15.33,1.01l-1.05-2.06Z" style="fill: #fff; stroke-width: 0px;"/>
        <path d="m126.39,42.49c-3.96.38-8.11.67-12.4.83l-.92,2.03c5.27-.18,10.35-.53,15.17-1.02l-1.84-1.84Z" style="fill: #fff; stroke-width: 0px;"/>
        <path d="m151.47,37.94c-2.64.8-5.58,1.54-8.79,2.19v2.16c4.64-.87,8.84-1.89,12.51-3.04l-3.71-1.31Z" style="fill: #fff; stroke-width: 0px;"/>
        <path d="m164.67,30.87c.73-.97,1.12-1.97,1.12-2.99,0-8.62-27.32-15.62-61.02-15.62s-61.02,6.99-61.02,15.62,27.32,15.62,61.02,15.62c25.16,0,46.75-3.9,56.09-9.46,1.69-1.01,2.98-2.07,3.81-3.17Z" style="fill: none; stroke-width: 0px;"/>
        <path d="m160.86,34.04l2.32,2.09c3.27-1.62,5.63-3.39,6.91-5.26h-5.42c-.83,1.1-2.12,2.16-3.81,3.17Z" style="fill: #fff; stroke-width: 0px;"/>
        <path d="m167.94,22.15l-6.12.19c2.38,1.6,3.77,3.33,3.95,5.14l5.39-.25c-.15-1.77-1.27-3.48-3.22-5.09Z" style="fill: #fff; stroke-width: 0px;"/>
        <path d="m37.74,27.51l6.05-.17c.23-1.71,1.52-3.34,3.72-4.86l-6.3-.53c-2.2,1.75-3.42,3.62-3.48,5.56Z" style="fill: #fff; stroke-width: 0px;"/>
        <path d="m52.79,16.36l.31,3.22c3.5-1.42,7.87-2.69,12.93-3.76l-3.84-1.98c-3.43.75-6.58,1.6-9.4,2.52Z" style="fill: #fff; stroke-width: 0px;"/>
        <path d="m81.05,10.93l-.96,2.67c4.95-.56,10.24-.96,15.77-1.17l-1.35-2.44c-4.66.19-9.17.5-13.46.93Z" style="fill: #fff; stroke-width: 0px;"/>
        <path d="m113.96,12.45c5.57.22,10.9.62,15.87,1.2l-.46-2.56c-4.42-.48-9.07-.83-13.9-1.04-.42.67-.99,1.58-1.5,2.41Z" style="fill: #fff; stroke-width: 0px;"/>
        <path d="m143.92,15.91c5.01,1.07,9.33,2.35,12.78,3.77l.53-2.96c-2.89-1-6.16-1.91-9.76-2.72l-3.55,1.91Z" style="fill: #fff; stroke-width: 0px;"/>
        <path d="m116.14.31l-2.72,6.98s22.44.87,24.84,1.75l11.12-6.33c-10.28-1.26-21.47-2.09-33.23-2.4Z" style="fill: #fff; stroke: #96ab22; stroke-miterlimit: 10; stroke-width: .51px;"/>
        <path d="m40.54,15.82s12.3-4.31,16.18-4.31l-13.89-5.7c-8.57,1.69-16.11,3.72-22.36,6.01l20.07,4.01Z" style="fill: #fff; stroke: #96ab22; stroke-miterlimit: 10; stroke-width: .51px;"/>
        <path d="m208.53,25.48c-.87-2.68-3.19-5.26-6.76-7.66l-23.6,2.34s6.03,3.56,5.82,5.74l24.55-.42Z" style="fill: #fff; stroke: #96ab22; stroke-miterlimit: 10; stroke-width: .51px;"/>
        <path d="m170.34,41.16s-6.47,3.2-17.74,4.62l12.67,5.15c8.83-1.67,16.69-3.68,23.32-5.96l-18.25-3.8Z" style="fill: #fff; stroke: #96ab22; stroke-miterlimit: 10; stroke-width: .54px;"/>
        <path d="m72.11,48.05l-9.13,4.95c9.71,1.13,20.2,1.89,31.2,2.18l2.11-5.54c-11,.36-24.18-1.6-24.18-1.6Z" style="fill: #fff; stroke: #96ab22; stroke-miterlimit: 10; stroke-width: .51px;"/>
        <path d="m1.88,31.57c1.37,2.66,4.17,5.21,8.21,7.57l20.24-2.68-5.36-5.48-23.09.59Z" style="fill: #fff; stroke: #96ab22; stroke-miterlimit: 10; stroke-width: .51px;"/>
        <path d="m.31,28.63s2.16,26.56,107.85,26.39c105.7-.17,100.48-29.78,100.48-29.78,0,0,3.23,16.33-.01,30.29,0,0-5.56,21.08-99.54,24.15,0,0-88.75.38-108.02-23.63L.31,28.63Z" style="fill: #b7ce45; stroke: #96ab22; stroke-miterlimit: 10; stroke-width: .61px;"/>
        <ellipse cx="191.57" cy="35.65" rx="1.61" ry=".48" style="fill: #fff; stroke-width: 0px;"/>
        <ellipse cx="187.09" cy="33.7" rx="1.61" ry=".48" style="fill: #fff; stroke-width: 0px;"/>
        <ellipse cx="182.66" cy="31.62" rx="1.61" ry=".48" style="fill: #fff; stroke-width: 0px;"/>
        <ellipse cx="126.42" cy="49.42" rx="1.61" ry=".48" style="fill: #fff; stroke-width: 0px;"/>
        <ellipse cx="44.15" cy="43.62" rx="1.61" ry=".48" style="fill: #fff; stroke-width: 0px;"/>
        <ellipse cx="44.25" cy="41.29" rx="1.61" ry=".48" style="fill: #fff; stroke-width: 0px;"/>
        <ellipse cx="53.19" cy="43.62" rx="1.61" ry=".48" style="fill: #fff; stroke-width: 0px;"/>
        <ellipse cx="44.15" cy="45.95" rx="1.61" ry=".48" style="fill: #fff; stroke-width: 0px;"/>
        <ellipse cx="35.21" cy="43.5" rx="1.61" ry=".48" style="fill: #fff; stroke-width: 0px;"/>
        <ellipse cx="26.82" cy="24" rx="1.61" ry=".48" style="fill: #fff; stroke-width: 0px;"/>
        <ellipse cx="30.03" cy="20.72" rx="1.61" ry=".48" style="fill: #fff; stroke-width: 0px;"/>
        <ellipse cx="17.8" cy="19.91" rx="1.61" ry=".48" style="fill: #fff; stroke-width: 0px;"/>
        <ellipse cx="14.58" cy="23.2" rx="1.61" ry=".48" style="fill: #fff; stroke-width: 0px;"/>
        <ellipse cx="75.04" cy="4.98" rx="1.61" ry=".48" style="fill: #fff; stroke-width: 0px;"/>
        <ellipse cx="76.9" cy="6.65" rx="1.61" ry=".48" style="fill: #fff; stroke-width: 0px;"/>
        <ellipse cx="78.39" cy="8.2" rx="1.61" ry=".48" style="fill: #fff; stroke-width: 0px;"/>
        <ellipse cx="87.31" cy="4.2" rx="1.61" ry=".48" style="fill: #fff; stroke-width: 0px;"/>
        <ellipse cx="89.15" cy="5.8" rx="1.61" ry=".48" style="fill: #fff; stroke-width: 0px;"/>
        <ellipse cx="90.75" cy="7.4" rx="1.61" ry=".48" style="fill: #fff; stroke-width: 0px;"/>
        <ellipse cx="174.28" cy="12.02" rx="1.61" ry=".48" style="fill: #fff; stroke-width: 0px;"/>
        <ellipse cx="156.2" cy="12.02" rx="1.61" ry=".48" style="fill: #fff; stroke-width: 0px;"/>
        <polygon points="74.32 10.3 100.84 8.68 93.66 1.62 66.02 3.51 74.32 10.3" style="fill: none; stroke: #fff; stroke-miterlimit: 10; stroke-width: .31px;"/>
        <polygon points="11.69 17.37 4.37 24.48 31.01 26.03 37.5 19.12 11.69 17.37" style="fill: none; stroke: #fff; stroke-miterlimit: 10; stroke-width: .31px;"/>
        <polygon points="23.98 43.5 44.15 38.46 62.98 43.02 44.25 48.35 23.98 43.5" style="fill: none; stroke: #fff; stroke-miterlimit: 10; stroke-width: .31px;"/>
        <polygon points="111.55 46.46 117.79 53.22 144.28 51.62 137.61 45.01 111.55 46.46" style="fill: none; stroke: #fff; stroke-miterlimit: 10; stroke-width: .31px;"/>
        <polygon points="169.78 35.65 196 37.94 202.46 30.87 176.62 29.23 169.78 35.65" style="fill: none; stroke: #fff; stroke-miterlimit: 10; stroke-width: .31px;"/>
        <polygon points="165.1 16.85 184.09 11.54 166.07 6.87 146.4 11.54 165.1 16.85" style="fill: none; stroke: #fff; stroke-miterlimit: 10; stroke-width: .31px;"/>
        <path d="m62.98,76.81c11.54,1.43,22.57,2.15,30.88,2.51v-24.45c-11.76-.28-21.99-.96-30.88-1.91v23.86Z" style="fill: #fff; stroke: #96ab22; stroke-miterlimit: 10; stroke-width: .6px;"/>
        <path d="m165.48,74.4c9.72-1.76,17.26-3.77,23.11-5.81l-.23-23.8c-5.82,2.26-13.29,4.36-22.89,6.06v23.56Z" style="fill: #fff; stroke: #96ab22; stroke-miterlimit: 10; stroke-width: .61px;"/>
        <path d="m10.07,39.44c-4.55-2.78-6.99-5.42-8.29-7.39-1.04,5.5-.02,24.68-.01,24.83,2.01,2.27,4.66,4.31,7.79,6.14-.52-10.81.35-21.71.5-23.58Z" style="fill: #fff; stroke: #96ab22; stroke-miterlimit: 10; stroke-width: .61px;"/>
      </g>
      <g>
        <path d="m62.35,37.75l.52-2.07c-1.82-.08-3.1-.63-3.83-1.64-.72-1-.84-2.36-.37-4.06h3.83c-.18.86-.19,1.48-.01,1.86.18.38.55.59,1.11.61l.94-3.73c-1.76-.44-2.94-1.04-3.56-1.8-.61-.75-.74-1.73-.4-2.94.37-1.32,1.14-2.36,2.31-3.15s2.52-1.18,4.12-1.21l.31-1.25h1.54l-.29,1.23c1.51.04,2.6.43,3.29,1.19.7.76.93,1.84.7,3.25h-3.5c.1-.61.06-1.07-.13-1.38-.19-.31-.53-.47-1.01-.49l-.75,3.14c1.83.49,3.08,1.12,3.74,1.89s.86,1.85.58,3.21c-.33,1.61-1.06,2.87-2.22,3.75-1.17.89-2.75,1.41-4.75,1.53l-.49,2.05h-1.67Zm3.42-12.8l.69-2.81h-.08c-.57,0-1.03.11-1.38.34-.34.22-.58.57-.7,1.03-.09.35-.03.64.18.86.21.22.64.42,1.27.59Zm-.6,7.5c.68,0,1.22-.13,1.63-.39s.67-.65.78-1.15c.1-.44.03-.79-.2-1.04-.23-.26-.7-.5-1.41-.73l-.79,3.32Z" style="fill: #fff; stroke: #96ab22; stroke-miterlimit: 10;"/>
        <path d="m71.64,35.4s.02-.12.03-.21c.01-.09.02-.16.03-.21.24-1.21.79-2.34,1.65-3.39.85-1.03,2.1-2.1,3.73-3.18.43-.29,1.01-.66,1.75-1.11,1.76-1.08,2.68-2,2.79-2.78.09-.59,0-1.05-.26-1.38-.26-.33-.66-.5-1.19-.5-.67,0-1.2.22-1.61.66-.41.44-.69,1.12-.84,2.04l-.04.26h-3.85c.01-.06.02-.13.03-.23.01-.1.02-.16.03-.21.36-1.85,1.16-3.27,2.41-4.28,1.23-1,2.76-1.49,4.59-1.49,1.68,0,2.96.42,3.86,1.26.91.85,1.28,1.99,1.12,3.43-.11.96-.41,1.78-.89,2.43s-1.42,1.4-2.8,2.22c-.17.1-.43.26-.8.48-1.34.77-2.38,1.46-3.13,2.06h6.74l-.48,4.12h-12.86Z" style="fill: #fff; stroke: #96ab22; stroke-miterlimit: 10;"/>
        <path d="m86.47,30.95l4.39-.46c.13.49.35.86.67,1.11.32.25.73.38,1.23.38.66,0,1.19-.2,1.59-.59.4-.39.61-.92.65-1.59s-.11-1.23-.45-1.63c-.34-.4-.79-.61-1.37-.61-.35,0-.68.07-.98.22-.3.15-.57.37-.8.65l-4-.36,2.24-8.27h8.88l-.12,3.48h-6.19l-.58,2.14c.42-.25.88-.43,1.37-.54.49-.11,1.04-.17,1.65-.17,1.46,0,2.62.44,3.48,1.33.87.9,1.29,2.11,1.25,3.63-.05,1.9-.68,3.42-1.89,4.52-1.23,1.12-2.91,1.69-5.03,1.69-1.75,0-3.16-.44-4.21-1.32s-1.63-2.08-1.77-3.62Z" style="fill: #fff; stroke: #96ab22; stroke-miterlimit: 10;"/>
        <path d="m101.21,39.92l.04-2.39c.76-.12,1.32-.37,1.67-.74.34-.37.52-.89.52-1.57h-2.15l.07-4.97h4.52l.07,5.04c.02,1.3-.38,2.36-1.19,3.16-.82.81-2,1.3-3.54,1.46Z" style="fill: #fff; stroke: #96ab22; stroke-miterlimit: 10;"/>
        <path d="m107.51,27.2c-.07-2.65.41-4.6,1.42-5.89.99-1.28,2.48-1.91,4.49-1.91s3.6.63,4.77,1.91c1.19,1.3,1.93,3.25,2.22,5.89s-.04,4.9-1.03,6.39c-1.01,1.52-2.63,2.3-4.87,2.3s-3.94-.78-5.14-2.3c-1.18-1.5-1.79-3.65-1.86-6.39Zm8.43,0c-.13-1.67-.37-2.83-.72-3.49-.35-.66-.87-.99-1.57-.99s-1.19.32-1.45.98c-.26.66-.35,1.82-.26,3.5s.31,2.95.66,3.66c.36.71.91,1.07,1.66,1.07s1.25-.36,1.51-1.08c.26-.72.32-1.94.18-3.65Z" style="fill: #fff; stroke: #96ab22; stroke-miterlimit: 10;"/>
        <path d="m121.26,27.2c-.3-2.65,0-4.6.9-5.89.88-1.28,2.32-1.91,4.32-1.91s3.65.63,4.93,1.91c1.3,1.3,2.22,3.25,2.74,5.89s.39,4.9-.46,6.39c-.87,1.52-2.43,2.3-4.67,2.3s-4.01-.78-5.34-2.3c-1.31-1.5-2.11-3.65-2.42-6.39Zm8.43,0c-.28-1.67-.62-2.83-1.03-3.49-.41-.66-.96-.99-1.66-.99s-1.16.32-1.37.98c-.21.66-.19,1.82.05,3.5s.57,2.95.99,3.66c.42.71,1,1.07,1.76,1.07s1.21-.36,1.41-1.08c.19-.72.15-1.94-.14-3.65Z" style="fill: #fff; stroke: #96ab22; stroke-miterlimit: 10;"/>
        <path d="m135.01,27.2c-.53-2.65-.4-4.6.38-5.89.77-1.28,2.15-1.91,4.15-1.91s3.71.63,5.1,1.91c1.42,1.3,2.5,3.25,3.26,5.89s.83,4.9.1,6.39c-.74,1.52-2.23,2.3-4.46,2.3s-4.08-.78-5.55-2.3c-1.44-1.5-2.44-3.65-2.99-6.39Zm8.43,0c-.43-1.67-.87-2.83-1.34-3.49-.46-.66-1.05-.99-1.75-.99s-1.13.32-1.28.98c-.15.66-.03,1.82.36,3.5s.83,2.95,1.31,3.66c.48.71,1.1,1.07,1.85,1.07s1.18-.36,1.32-1.08c.13-.72-.02-1.94-.46-3.65Z" style="fill: #fff; stroke: #96ab22; stroke-miterlimit: 10;"/>
      </g>
    </g>
  </g>
</svg>