<?xml version="1.0" encoding="UTF-8"?>
<svg id="_图层_2" data-name="图层 2" xmlns="http://www.w3.org/2000/svg" viewBox="0 0 163.57 248.61">
  <g id="_图层_1-2" data-name="图层 1">
    <g>
      <path d="m162.57,242.01c0,3.08-2.51,5.6-5.57,5.6H6.57c-3.06,0-5.57-2.52-5.57-5.6V6.61C1,3.52,3.51,1,6.57,1h150.43c3.06,0,5.57,2.52,5.57,5.61v235.4Z" style="fill: #fff; fill-rule: evenodd; stroke: #231815; stroke-miterlimit: 22.93; stroke-width: 2px;"/>
      <g>
        <g>
          <path d="m10.41,38.76l5.36-25.29h3.89l5.36,25.29h2.31v3.12h-7.78v-3.12h2.2l-.89-4.22h-6.29l-.9,4.22h2.47v3.12h-7.78v-3.12h2.04Zm9.79-7.34l-2.48-11.72-2.49,11.72h4.97Z" style="fill: #231815; stroke-width: 0px;"/>
          <path d="m17.81,46.89c-.14,0-1.42,2.91-2.89,4.87-1.48,1.96-2.95,3.67-3.67,5.5-.72,1.83-.61,3.22.05,4.23.66,1.01,1.77,1.56,3.06,1.44,1.29-.12,2.08-1.15,2.37-2.47,0,0,.1-.5.28-.52.19-.03.36.16.15,1.74-.21,1.59-.68,3.33-1.69,4.26h4.86c-1-.93-1.45-2.67-1.66-4.26-.21-1.59-.04-1.77.14-1.74.18.03.28.52.28.52.29,1.31,1.07,2.35,2.33,2.47,1.27.12,2.36-.43,3-1.44.65-1.01.75-2.4.05-4.23s-2.15-3.54-3.6-5.5c-1.45-1.96-2.92-4.87-3.06-4.87Z" style="fill: #231815; fill-rule: evenodd; stroke-width: 0px;"/>
        </g>
        <g>
          <path d="m153.16,209.85l-5.36,25.29h-3.89l-5.36-25.29h-2.31v-3.12h7.78v3.12h-2.2l.9,4.22h6.29l.89-4.22h-2.47v-3.12h7.78v3.12h-2.04Zm-9.79,7.34l2.49,11.72,2.48-11.72h-4.97Z" style="fill: #231815; stroke-width: 0px;"/>
          <path d="m145.76,201.73c.14,0,1.41-2.91,2.89-4.87,1.48-1.96,2.95-3.67,3.67-5.5.72-1.84.61-3.22-.05-4.23-.66-1.01-1.77-1.56-3.06-1.44-1.29.12-2.08,1.15-2.37,2.47,0,0-.09.5-.28.52-.19.03-.36-.16-.15-1.74.21-1.59.68-3.33,1.69-4.26h-4.86c1,.93,1.45,2.67,1.66,4.26.21,1.58.04,1.77-.15,1.74-.18-.03-.28-.52-.28-.52-.29-1.31-1.07-2.35-2.33-2.47-1.26-.12-2.36.43-3,1.44-.64,1.01-.75,2.39-.05,4.23.71,1.83,2.15,3.54,3.6,5.5,1.45,1.96,2.92,4.87,3.06,4.87Z" style="fill: #231815; fill-rule: evenodd; stroke-width: 0px;"/>
        </g>
      </g>
      <g>
        <path d="m84.88,73.39c-9.96,15.68-19.33,25.68-24.55,32.16-5.22,6.48-13.28,16.71-11.5,27.84,1.78,11.14,10.95,15.38,18.97,14.77,7.7-.58,13.22-8.07,13.22-8.07-1.3,13.46-11.29,23.87-11.29,23.87,4.56-1.77,12.3-1.91,15.15-1.91s10.59.14,15.15,1.91c0,0-9.99-10.4-11.29-23.87,0,0,5.52,7.49,13.22,8.07,8.02.61,17.19-3.64,18.97-14.77,1.78-11.14-6.29-21.36-11.5-27.84-5.22-6.48-14.59-16.48-24.55-32.16Z" style="fill: none; fill-rule: evenodd; stroke: #fff; stroke-linecap: round; stroke-linejoin: round; stroke-width: 1.13px;"/>
        <path d="m84.88,73.39c-9.96,15.68-19.33,25.68-24.55,32.16-5.22,6.48-13.28,16.71-11.5,27.84,1.78,11.14,10.95,15.38,18.97,14.77,7.7-.58,13.22-8.07,13.22-8.07-1.3,13.46-11.29,23.87-11.29,23.87,4.56-1.77,12.3-1.91,15.15-1.91s10.59.14,15.15,1.91c0,0-9.99-10.4-11.29-23.87,0,0,5.52,7.49,13.22,8.07,8.02.61,17.19-3.64,18.97-14.77,1.78-11.14-6.29-21.36-11.5-27.84-5.22-6.48-14.59-16.48-24.55-32.16Z" style="fill: #231815; fill-rule: evenodd; stroke-width: 0px;"/>
      </g>
      <g>
        <g>
          <polygon points="84.78 97.64 104.18 107.46 104.26 127.06 84.68 136.76 65.18 127.06 65.39 107.5 84.78 97.64" style="fill: #fff; stroke: #231815; stroke-miterlimit: 10; stroke-width: .55px;"/>
          <polygon points="68.06 108.25 84.55 99.83 88.84 102.3 76.64 108.45 84.81 112.63 93.17 108.43 91.04 107.18 84.79 110.67 80.78 108.31 91.04 103.08 101.08 108.5 84.72 116.91 68.06 108.25" style="fill: #231815; stroke: #231815; stroke-miterlimit: 10; stroke-width: .55px;"/>
          <polygon points="67.51 109.44 84.08 117.79 83.91 128.29 77.91 125.04 77.93 127.32 83.71 130.29 83.91 134.42 73.59 129.28 73.79 122.69 71.46 121.93 71.37 128.27 67.16 126.09 67.51 109.44" style="fill: #231815; stroke-width: 0px;"/>
          <polyline points="102.01 122.08 89.99 128.37 89.99 126 102.12 119.82 102.12 115.75 90.36 121.89 89.62 121.84 89.62 119.84 102.33 113.49 102.33 109.45 85.59 117.86 85.59 134.61 102.33 125.95 102.18 122.03" style="fill: #231815; stroke-width: 0px;"/>
        </g>
        <polygon points="71.48 115.75 71.48 117.95 79.66 121.93 79.76 119.67 71.48 115.75" style="fill: #fff; stroke-width: 0px;"/>
      </g>
    </g>
  </g>
</svg>