<?xml version="1.0" encoding="UTF-8"?>
<svg id="_图层_2" data-name="图层 2" xmlns="http://www.w3.org/2000/svg" viewBox="0 0 163.57 248.61">
  <g id="_图层_1-2" data-name="图层 1">
    <g>
      <path d="m162.57,242.01c0,3.08-2.51,5.6-5.57,5.6H6.57c-3.06,0-5.57-2.52-5.57-5.6V6.6C1,3.52,3.51,1,6.57,1h150.43c3.07,0,5.57,2.52,5.57,5.6v235.41Z" style="fill: #fff; fill-rule: evenodd; stroke: #231815; stroke-miterlimit: 22.93; stroke-width: 2px;"/>
      <g>
        <g>
          <path d="m45.6,31.98c-.26,0-2.65,5.45-5.42,9.12-2.77,3.67-5.53,6.88-6.88,10.31-1.35,3.44-1.14,6.04.09,7.93,1.23,1.89,3.32,2.92,5.74,2.69,2.41-.23,3.9-2.16,4.45-4.63,0,0,.18-.93.53-.98.35-.05.68.3.28,3.27-.4,2.97-1.27,6.24-3.17,7.98h9.1c-1.87-1.74-2.72-5.01-3.11-7.98-.39-2.97-.07-3.32.27-3.27.35.05.52.98.52.98.54,2.47,2,4.4,4.37,4.63,2.37.23,4.42-.8,5.63-2.69,1.21-1.89,1.41-4.49.09-7.93-1.33-3.44-4.03-6.64-6.75-10.31-2.72-3.67-5.47-9.12-5.73-9.12Z" style="fill: #231815; fill-rule: evenodd; stroke-width: 0px;"/>
          <path d="m117.98,216.63c.26,0,2.65-5.45,5.42-9.12,2.77-3.67,5.53-6.88,6.88-10.31,1.35-3.44,1.14-6.04-.09-7.93s-3.32-2.92-5.74-2.69c-2.41.23-3.9,2.16-4.45,4.63,0,0-.18.93-.53.98-.35.05-.68-.3-.28-3.27.4-2.97,1.27-6.24,3.17-7.98h-9.1c1.87,1.74,2.72,5.01,3.11,7.98.39,2.97.07,3.32-.27,3.27-.35-.05-.52-.98-.52-.98-.54-2.47-2-4.4-4.37-4.63-2.37-.23-4.42.8-5.63,2.69-1.21,1.89-1.41,4.49-.09,7.93,1.32,3.44,4.03,6.64,6.75,10.31,2.72,3.67,5.47,9.12,5.73,9.12Z" style="fill: #231815; fill-rule: evenodd; stroke-width: 0px;"/>
        </g>
        <g>
          <path d="m47.88,165.05l-10.52-7.76s-1.34.8-1.26,1.72c-2.43-.13-3.9,1.51-2.73,3.76,0,0-1.96,1.35-.59,3.44,0,0-.9.91-.82,1.97.08,1.05,1.14,1.43,1.14,1.43,0,0-.69.84-.49,2.14.2,1.29,1.78,1.27,1.78,1.27,0,0-1.72,2.33,1.47,2.53v.66s-3.27,1-4,5.02c-.73,4.02,3.45,8.94,3.45,8.94l-3.62,5.1,3.72,5.62s-2.94,3.02-3.47,7.42c-.53,4.4,3.13,6.9,5.4,6.67,2.27-.23,5.17-1.93,5-6.57,0,0,.16-3.09-3.39-7.44l3.57-5.68-3.51-5.08s3.54-4.63,3.61-7.49c.08-2.86-1.18-5.07-3.89-6.44v-.79c5.66-.89,7.6-4.76,8.97-9.89l.17-.56Z" style="fill: #004ea2; fill-rule: evenodd; stroke-width: 0px;"/>
          <path d="m36.15,159.82s-.07,1.15.35,1.87c0,0-1-.1-2.69.62-.57-1.55.45-2.78,2.35-2.5h0Zm.3,2.37c-1.88,0-4.1,1.25-3.34,3.57,2.11-1.63,3.85-1.22,3.85-1.22-.74-1-.51-2.35-.51-2.35h0Zm-.03,2.83s-.52,1.55.73,2.34c0,0-2.32.35-3.57,1.82,0,0-.73-.47-.74-1.34-.03-1.73,2.15-2.69,3.58-2.82h0Zm-.1,3.18c-1.29.42-3.3,1.48-2.96,3.16.17.83,1.27,1.07,1.27,1.07l2.54-2.16c-.88-.89-.84-2.08-.84-2.08h0Zm.51-8.47s.93.31,1,1.16c.07.85-.29.78-.53.78-.44,0-.44-1.54-.46-1.94h0Zm.62,2.46s.71-.11.78.65c.07.76-.11,1.58-.4,1.7-.37.14-1.29-2.44-.38-2.34h0Zm-.03,2.79c.34,0,.99.07,1.2.56.29.68.12,1.69-.27,1.8-1,.3-1.75-2.37-.92-2.37h0Zm-.43,4.05c.21,1.56,2.49,1.08,2.49-.04,0-.48-.96-1.12-1.55-1.08-.58.04-1.05.38-.95,1.12h0Zm.9,5.99c-.35.03-.7.04-1.04.03-1.9-.1-2.62-.72-1.97-1.81,1.11-.69,3.28-.56,3.01,1.79h0Zm-.52-15.65c.38.18.78.57.87,1.13.09.55,0,1.11.21,1.45.21.34.3.32.3.96s-.22,1.65.12,2.03c.34.38.34,1.16.34,2.15s.72,1.31.72,1.31c-.54-4.39,1.53-6.27,1.53-6.27-.99,3.22-.82,8.37-.82,8.37-3.54.12-4.07.98-4.07.98-.3.24-.57.46-.8.68,1.77-.13,2.74,1.03,2.83,2.75,2.31-.43,4.69-1.8,5.7-3.28,1.27-1.87,2.94-6.48,2.94-6.48,0,0-8.24-6.16-8.78-6.6-.55-.45-.9-.53-1.28-.21-.37.32-.36.72-.36.72l.54.3Z" style="fill: #fff; fill-rule: evenodd; stroke-width: 0px;"/>
          <path d="m32.63,195.3l3.53-5.06s-2.88-3.62-3.58-6.55c-.7-2.92,1.24-7.04,4.78-7,3.54.04,4.57,4.24,4.45,6.51-.12,2.27-3.21,6.38-3.71,7.04l3.64,5.11-3.58,5.7s3.41,4.1,3.49,7.86c.09,3.75-2.54,5.39-4.31,5.39s-4.62-1.51-4.57-5.31c.04-3.8,2.63-7.21,3.41-8.07l-3.54-5.62Z" style="fill: #ffe100; fill-rule: evenodd; stroke-width: 0px;"/>
          <path d="m37.19,191.38l.47.71.95,1.44.95,1.44.2.31-.2.31-.95,1.44-.95,1.44-.47.71-.47-.71-.95-1.44-.95-1.44-.2-.31.2-.31.95-1.44.95-1.44.47-.71h0Zm0,2.04l-.48.73-.74,1.13.74,1.13.48.73.48-.73.74-1.13-.74-1.13-.48-.73h0Zm.06,10.21c-.52.63-1.03,1.37-1.44,2.1-.45.78-.79,1.54-.9,2.14-.29,1.43.15,2.41.85,2.92.57.42,1.32.54,1.99.36.66-.18,1.25-.66,1.51-1.45.41-1.26.04-3.26-2.01-6.06h0Zm-.25-.79l.28-.32.26.34c2.44,3.21,2.87,5.56,2.38,7.05-.34,1.04-1.12,1.68-1.99,1.91-.87.24-1.84.08-2.59-.47-.9-.66-1.48-1.88-1.13-3.62.13-.67.5-1.51.98-2.35.51-.89,1.16-1.81,1.8-2.54h0Zm.28-14.42l-.28-.32c-.64-.74-1.29-1.65-1.8-2.54-.48-.84-.85-1.68-.98-2.35-.35-1.75.22-2.96,1.13-3.62.75-.55,1.72-.71,2.59-.47.88.24,1.65.88,1.99,1.92.49,1.5.06,3.85-2.38,7.05l-.26.34h0Zm-.04-1.11c2.05-2.8,2.42-4.81,2.01-6.06-.26-.79-.84-1.27-1.51-1.46-.67-.18-1.42-.06-1.99.36-.7.51-1.14,1.49-.85,2.92.12.59.46,1.36.9,2.14.41.73.92,1.47,1.44,2.1Z" style="fill: #004ea2; stroke-width: 0px;"/>
          <path d="m115.7,83.56l10.52,7.76s1.34-.8,1.26-1.72c2.43.13,3.9-1.51,2.73-3.76,0,0,1.96-1.35.59-3.44,0,0,.9-.91.82-1.96-.08-1.05-1.14-1.43-1.14-1.43,0,0,.69-.85.49-2.14-.2-1.29-1.78-1.27-1.78-1.27,0,0,1.72-2.33-1.47-2.53v-.67s3.27-1,4-5.02c.73-4.02-3.45-8.94-3.45-8.94l3.62-5.1-3.72-5.62s2.94-3.02,3.47-7.42c.53-4.4-3.13-6.9-5.4-6.67s-5.17,1.93-5,6.57c0,0-.16,3.09,3.39,7.44l-3.58,5.68,3.51,5.08s-3.54,4.63-3.61,7.48c-.08,2.86,1.18,5.07,3.89,6.44v.79c-5.66.89-7.6,4.76-8.97,9.88l-.17.56Z" style="fill: #004ea2; fill-rule: evenodd; stroke-width: 0px;"/>
          <path d="m127.42,88.79s.07-1.15-.35-1.87c0,0,1,.1,2.69-.63.57,1.55-.45,2.79-2.35,2.5h0Zm-.3-2.37c1.88,0,4.1-1.25,3.34-3.57-2.11,1.63-3.85,1.22-3.85,1.22.74,1,.51,2.35.51,2.35h0Zm.03-2.83s.52-1.55-.73-2.34c0,0,2.32-.35,3.57-1.82,0,0,.73.46.75,1.34.03,1.73-2.15,2.69-3.58,2.82h0Zm.1-3.18c1.29-.42,3.3-1.48,2.96-3.16-.17-.83-1.26-1.07-1.26-1.07l-2.54,2.16c.88.89.84,2.08.84,2.08h0Zm-.51,8.47s-.93-.31-1-1.16c-.07-.85.29-.78.53-.78.44,0,.44,1.54.47,1.94h0Zm-.62-2.46s-.71.11-.78-.65c-.07-.76.11-1.58.4-1.7.37-.14,1.29,2.44.38,2.34h0Zm.02-2.79c-.34,0-.99-.07-1.19-.56-.29-.68-.12-1.69.28-1.81,1-.3,1.75,2.37.92,2.37h0Zm.43-4.05c-.21-1.56-2.49-1.08-2.49.04,0,.48.96,1.12,1.54,1.08.58-.04,1.05-.38.95-1.12h0Zm-.9-5.99c.35-.03.7-.04,1.04-.03,1.9.1,2.62.72,1.97,1.82-1.11.69-3.28.55-3.01-1.79h0Zm.51,15.65c-.38-.18-.78-.57-.87-1.13-.09-.56,0-1.11-.21-1.45-.21-.34-.3-.32-.3-.97s.21-1.64-.12-2.03c-.34-.38-.34-1.15-.34-2.15s-.72-1.31-.72-1.31c.54,4.39-1.53,6.27-1.53,6.27.99-3.22.82-8.37.82-8.37,3.54-.12,4.07-.98,4.07-.98.3-.24.57-.46.8-.68-1.77.13-2.74-1.03-2.83-2.75-2.31.43-4.69,1.8-5.7,3.28-1.27,1.87-2.94,6.48-2.94,6.48,0,0,8.24,6.16,8.79,6.61.55.45.9.53,1.28.21.37-.31.36-.72.36-.72l-.54-.3Z" style="fill: #fff; fill-rule: evenodd; stroke-width: 0px;"/>
          <path d="m130.94,53.32l-3.53,5.06s2.88,3.62,3.58,6.55c.7,2.92-1.23,7.04-4.78,7-3.54-.04-4.57-4.24-4.45-6.51.12-2.27,3.21-6.38,3.71-7.04l-3.64-5.11,3.58-5.7s-3.41-4.1-3.49-7.86c-.08-3.75,2.55-5.39,4.32-5.39s4.62,1.51,4.58,5.31c-.04,3.8-2.63,7.21-3.41,8.07l3.54,5.62Z" style="fill: #ffe100; fill-rule: evenodd; stroke-width: 0px;"/>
          <path d="m126.28,60.2l.28.32c.64.74,1.29,1.65,1.8,2.54.48.84.85,1.68.98,2.35.35,1.75-.22,2.96-1.13,3.62-.75.55-1.72.71-2.59.47-.88-.24-1.65-.87-1.99-1.92-.49-1.5-.06-3.85,2.38-7.05l.26-.34h0Zm.04,1.12c-2.04,2.81-2.42,4.81-2.01,6.06.26.79.85,1.27,1.51,1.45.67.18,1.42.06,1.99-.36.7-.51,1.14-1.49.85-2.92-.12-.59-.46-1.36-.9-2.14-.42-.73-.92-1.46-1.44-2.1h0Zm0-16.33c.52-.63,1.03-1.37,1.44-2.1.45-.78.78-1.54.9-2.14.29-1.43-.15-2.41-.85-2.92-.57-.42-1.32-.54-1.99-.36-.66.18-1.25.66-1.51,1.45-.41,1.25-.03,3.26,2.01,6.06h0Zm.25.79l-.28.32-.26-.34c-2.44-3.21-2.87-5.56-2.38-7.05.34-1.04,1.12-1.68,1.99-1.92.87-.24,1.84-.08,2.59.47.9.66,1.48,1.88,1.13,3.62-.13.67-.5,1.51-.98,2.35-.51.89-1.16,1.81-1.8,2.54h0Zm-.18,11.45l-.47-.71-.95-1.44-.95-1.44-.2-.31.2-.31.95-1.44.95-1.44.47-.71.47.71.95,1.44.95,1.44.2.31-.2.31-.95,1.44-.95,1.44-.47.71h0Zm0-2.04l.48-.73.74-1.13-.74-1.13-.48-.73-.48.73-.74,1.13.74,1.13.48.73Z" style="fill: #004ea2; stroke-width: 0px;"/>
          <path d="m29.59,151.81l32.28,24.19c-.68.61-.66,1.34-.46,1.94.2.6.42,1.28-.08,1.78-.5.5-.61,1.11-.5,1.68.1.57.29.91-.04,1.14-.33.23-.7.5-.7,1.08s.54.6.46,1.95c-.08,1.35-1.13,2.09-2.27,3.06-1.14.97-1.27,1.62-1.09,2.16.18.54,2.32,4.75,3.25,6.9.94,2.15.36,2.96-.36,4.44-.71,1.48-.13,4.48-.13,4.48l-8.87,15.21h52.03l-7.72-15.89s.35-3.16,3.68-9.2c3.32-6.04,3.04-7.37,2.03-10.36l1.7-2.33s5.18.32,4.19-6.49c0,0,9.82-4.23,15.31-9.84,0,0,7.8,4.66,11.67,5.87v-76.81l-32.28-24.19c.68-.61.66-1.34.46-1.94-.2-.61-.42-1.28.08-1.78.5-.5.61-1.11.5-1.68-.1-.57-.29-.91.04-1.15.33-.23.7-.5.7-1.08s-.54-.6-.46-1.95c.08-1.35,1.13-2.09,2.27-3.06,1.14-.97,1.27-1.62,1.09-2.16-.18-.54-2.32-4.75-3.25-6.9-.94-2.15-.36-2.96.36-4.44.71-1.48.13-4.48.13-4.48l8.87-15.21h-52.03l7.72,15.89s-.35,3.16-3.68,9.2c-3.32,6.04-3.04,7.37-2.03,10.36l-1.7,2.33s-5.18-.32-4.19,6.49c0,0-9.82,4.24-15.31,9.84,0,0-7.81-4.66-11.67-5.87v76.81Z" style="fill: #004ea2; fill-rule: evenodd; stroke-width: 0px;"/>
          <path d="m29.59,110.19c1.05.65,3.95,2.48,6.76,4.7,3.52,2.79,16.58,15.26,18.38,34.97l6.91-12.32c.81.43,1.66.84,2.5,1.22l-10.81,18.18-.34-.23s-.21-11.41-3.83-20.33c-3.57-8.77-9.88-18.01-19.58-23.54v-2.66h0Zm0,11.09v3.39c1.97,1.44,11.45,9.15,14.2,25.43l2.43,1.75c-.79-18.37-14.35-28.91-16.63-30.57h0Zm8.66,24.81l1.93,1.39c.14-.7.34-1.84.25-2.44-.13-.9-1.03-1.52-2.22-1.44-.75.05-1.62.56-2.14.92l1.4,1.01c.42-.1.92.1.77.55h0Zm-8.66-6.86c1.51-1.45,3.46-2.67,3.85-2.67.43,0,1.3.43.23,1.7-.72.86-2.2,1.79-3.09,2.3l1.17.84c1.44-1.12,3.89-3.26,4.29-3.78.53-.7.63-1.63.3-2.27s-1.63-1.6-2.47-1.27c-.66.26-3.23,2.48-4.28,3.4v1.74h0Zm0-2.15c2.1-1.39,4.24-3.3,4.18-4.83-.07-1.6-1.57-2.7-2.5-2.47-.56.14-1.23.68-1.68,1.09v1.93c.45.01,1.06.02,1.48-.02.73-.07.6.2.6.2.07.48-1.24,1.9-2.08,2.75v1.34h0Zm2.21,4.36l1.14.83c1.27-1.16,2.1-1.49,2.81-1.49.75,0,1.05.15.98.47-.05.26-1.71,1.6-2.32,2.08l1.63,1.18,1.29-1.09c1.65-1.59,2.33-2.66,1.86-3.57-.47-.9-2.18-1.8-3.36-1.29-.96.42-3.23,2.22-4.04,2.87Z" style="fill: #ffe100; fill-rule: evenodd; stroke-width: 0px;"/>
          <path d="m133.99,138.43c-1.05-.65-3.95-2.48-6.76-4.7-3.52-2.79-16.58-15.26-18.39-34.97l-6.92,12.32c-.81-.43-1.65-.84-2.5-1.22l10.81-18.18.34.23s.21,11.41,3.83,20.33c3.57,8.77,9.88,18.01,19.58,23.54v2.66h0Zm0-11.09v-3.39c-1.97-1.44-11.46-9.14-14.2-25.43l-2.43-1.75c.79,18.37,14.34,28.91,16.63,30.57h0Zm-8.66-24.81l-1.93-1.39c-.14.7-.34,1.84-.26,2.44.13.9,1.03,1.52,2.22,1.45.76-.05,1.61-.56,2.14-.92l-1.4-1.01c-.43.1-.92-.1-.77-.55h0Zm8.66,6.86c-1.51,1.45-3.46,2.67-3.85,2.67-.43,0-1.3-.43-.23-1.7.72-.86,2.2-1.79,3.09-2.3l-1.17-.84c-1.44,1.12-3.89,3.26-4.29,3.78-.53.7-.63,1.63-.3,2.27.34.63,1.63,1.6,2.47,1.27.66-.26,3.23-2.48,4.28-3.4v-1.74h0Zm0,2.15c-2.1,1.39-4.25,3.3-4.18,4.83.07,1.6,1.57,2.7,2.5,2.47.56-.14,1.23-.68,1.68-1.09v-1.93c-.45-.01-1.06-.02-1.48.02-.73.07-.6-.2-.6-.2-.07-.47,1.24-1.9,2.08-2.75v-1.34h0Zm-2.21-4.36l-1.15-.83c-1.27,1.16-2.1,1.49-2.81,1.49-.75,0-1.05-.15-.98-.47.05-.26,1.71-1.6,2.32-2.08l-1.63-1.18-1.29,1.09c-1.65,1.59-2.33,2.66-1.86,3.56.47.9,2.18,1.8,3.35,1.29.96-.42,3.23-2.22,4.04-2.88Z" style="fill: #ffe100; fill-rule: evenodd; stroke-width: 0px;"/>
          <path d="m47.27,86.62c-.25,1.09-.69,3.38-.81,6.02-.16,3.57.4,30.12,23.29,36.17-.04-.43-.09-.86-.14-1.28-.32-2.73-.84-5.44-1.48-8.18-1.44-6.12-3.8-12.41-8.64-19.48-2.72-3.97-5.81-7.24-8.52-9.9-1.28-1.25-2.52-2.37-3.69-3.35Z" style="fill: #231815; fill-rule: evenodd; stroke-width: 0px;"/>
          <path d="m116.31,161.99c.25-1.09.7-3.38.81-6.02.16-3.58-.4-30.12-23.28-36.17.04.43.09.86.14,1.28.32,2.73.83,5.44,1.48,8.18,1.44,6.12,3.8,12.41,8.64,19.47,2.72,3.97,5.81,7.24,8.52,9.9,1.28,1.25,2.52,2.37,3.69,3.35Z" style="fill: #231815; fill-rule: evenodd; stroke-width: 0px;"/>
          <path d="m51.03,74.69c.08-.05.17-.1.25-.14.59-.33,1.17-.64,1.73-.92v16.87c-.66-.67-1.32-1.31-1.96-1.91,0,0-.02-.02-.02-.02v-13.87h0Zm9.08,20.56v-20.84c.38-.01,1.2,0,2.13-.32v20.72c-.47.06-1.29.18-2.13.43h0Zm-4.71-21.78v-.63s-1.05.9-1.48.9c0,0-.1,3.06,1.17,5.5,1.27,2.44,2.54,4.37,2.69,5.46.15,1.09.3,2.53-.84,5l.96.9s1.2-1.45,1.32-4.4c.12-2.96-.96-4.38-2.26-6.5-1.3-2.12-1.53-4.51-1.56-6.23h0Zm2.02-.51c.53.5,1.04,1,1.77,1.23,0,1.63.08,3.69-.86,4.88-.22.28-.46.59-.7.93l-.98-1.21c.51-.86.87-1.61.93-2.24.12-1.23-.16-3.59-.16-3.59h0Zm-2.31,8.23l1.13,1.09c-.17.35-.29.68-.35.96-.24,1.12-.9,2.95.36,6.17,1.11,2.84,2.76,5.5,3.14,6.1-.43.18-.84.39-1.19.66-.41-.76-2.41-4.48-3.21-5.98-.9-1.68-1.42-6.6-.11-8.64.07-.12.15-.23.22-.35Z" style="fill: #fff; fill-rule: evenodd; stroke-width: 0px;"/>
          <path d="m112.54,173.92c-.08.05-.17.1-.25.14-.59.33-1.17.64-1.73.92v-16.87c.66.67,1.32,1.31,1.96,1.92,0,0,.02.01.02.02v13.87h0Zm-9.08-20.56v20.83c-.38.01-1.2,0-2.13.32v-20.72c.47-.05,1.29-.18,2.13-.43h0Zm4.71,21.78v.63s1.05-.9,1.48-.9c0,0,.1-3.06-1.17-5.5-1.27-2.44-2.54-4.37-2.69-5.45-.15-1.08-.3-2.53.84-5.01l-.96-.9s-1.2,1.45-1.32,4.4c-.12,2.95.96,4.38,2.26,6.5,1.3,2.12,1.53,4.51,1.56,6.23h0Zm-2.02.51c-.53-.5-1.05-1-1.77-1.23,0-1.63-.08-3.69.86-4.88.22-.28.46-.6.7-.93l.98,1.21c-.51.86-.87,1.61-.93,2.24-.12,1.23.16,3.59.16,3.59h0Zm2.31-8.23l-1.13-1.09c.17-.35.29-.68.35-.96.24-1.12.9-2.95-.36-6.17-1.11-2.84-2.76-5.5-3.14-6.1.43-.17.84-.39,1.19-.66.41.77,2.4,4.48,3.21,5.98.9,1.68,1.42,6.6.11,8.64-.07.12-.15.23-.22.35Z" style="fill: #fff; fill-rule: evenodd; stroke-width: 0px;"/>
          <path d="m100.6,145.08c1.49,2.64,3.15,5.07,4.89,7.28-1.56,1.3-4.55,1.48-4.55,1.48,0,0-2,.55-2.63-.35-.64-.9-1.36-1.26-1.85-.79-.49.47-1.96.93-3.24.81-1.28-.11-2.84-.87-3.31-1.34-.47-.48-.97-.53-1.7-.36-.72.17-1.81.64-3.34.42-1.53-.22-2.28-.84-3.34-2.26-1.07-1.42-2.09-1.7-2.57-1.7s-.89.9-.89.9l-12.51,24.75s-1.79-.02-2.94,1.29l-1.27-.87-.2-.14,14.44-26.47h0c.3.2.56.37.73.46.63.34,1.33.64,1.68.17.35-.47-.37-1.03-1.34-1.39-.97-.36-4.93-2.55-5.19-7.35-.17-3.22-.32-7.25-.72-11.46-.86-9.02-3.26-16.62-7.76-24.61-1.49-2.64-3.15-5.07-4.89-7.28,1.56-1.29,4.55-1.48,4.55-1.48,0,0,2-.55,2.63.35.64.9,1.36,1.26,1.85.79.49-.47,1.96-.93,3.24-.81,1.28.11,2.84.87,3.31,1.34.47.48.97.53,1.7.36.72-.17,1.81-.64,3.34-.42,1.53.22,2.28.84,3.34,2.26,1.07,1.42,2.09,1.7,2.57,1.7s.89-.9.89-.9l12.51-24.75s1.79.02,2.94-1.3l1.47,1.01-14.44,26.47c-.3-.2-.56-.36-.73-.46-.63-.34-1.33-.64-1.68-.17-.35.47.37,1.03,1.34,1.39.97.36,4.93,2.55,5.19,7.35.3,5.78.5,10.79,1.23,15.58,1.04,6.77,3.08,13.09,7.25,20.5Z" style="fill: #231815; fill-rule: evenodd; stroke-width: 0px;"/>
          <path d="m62.83,26.78l6.64,13.86s17.07-5.63,33.2-.93l7.27-12.93h-47.11Z" style="fill: #e60012; fill-rule: evenodd; stroke-width: 0px;"/>
          <path d="m100.75,221.84l-6.64-13.86s-17.07,5.63-33.2.93l-7.27,12.93h47.1Z" style="fill: #e60012; fill-rule: evenodd; stroke-width: 0px;"/>
          <path d="m67.65,26.78l3.68,8.72,4.65-1.17-1.46-7.55h1.85l1.55,8.05.16.84-.83.21-6.24,1.57-.75.19-.3-.72-4.28-10.15h1.97Zm11.17,0h1.83l.95,6.69,7.95-.22,1.27-6.47h1.85l-1.48,7.54-.14.72-.73.02-9.49.26-.81.02-.12-.81-1.09-7.75h0Zm16.04,0h1.84l-1.17,6.91,5.53.67,3.46-7.58h2l-4.08,8.94-.28.6-.66-.08-7.13-.86-.95-.12.16-.94,1.28-7.55Z" style="fill: #231815; stroke-width: 0px;"/>
          <path d="m95.93,221.84l-3.68-8.72-4.65,1.17,1.46,7.55h-1.85l-1.55-8.05-.16-.84.83-.21,6.24-1.57.75-.19.3.72,4.28,10.15h-1.97Zm-11.18,0h-1.83l-.95-6.69-7.95.22-1.27,6.47h-1.85l1.48-7.54.14-.72.73-.02,9.49-.26.81-.02.11.81,1.09,7.75h0Zm-16.04,0h-1.84l1.17-6.91-5.53-.67-3.46,7.58h-2l4.08-8.94.28-.61.66.08,7.13.87.95.11-.16.94-1.28,7.55Z" style="fill: #231815; stroke-width: 0px;"/>
          <path d="m64.46,63.79c-.46.84-.93,1.66-1.54,2.55.38.51.71,1.14.86,1.87.55-.83,1.5-2.38,2.1-3.95-.22-.03-.44-.07-.67-.15-.27-.09-.52-.2-.75-.33h0Zm-3.1,1.05l1.58-2.37c.17.23.54.67,1.11,1.06l-1.54,2.3c-.45-.49-.89-.82-1.15-1h0Zm5.07-.55c.6-.02,1.14-.2,1.58-.45-.25.86-.72,2.4-1.53,4.41-1.29,3.23-3.68,5.53-6.15,5.53s-3.27-3.02-3.23-4.55c.03-1.53,1.04-3.93,2.81-4.03,1.77-.1,2.81,1.15,3.13,2.36.31,1.22,0,2.01-.7,2.71-.69.69-1.35,1.29-2.38,1.01-1.03-.28-1.27-1.56-.85-2.75.42-1.18,1.53-1.36,1.77-.73.24.63-.04,1.29-.28,1.53-.24.24-.35.8,0,.76.35-.04.9-.97.9-1.77s-.52-1.53-1.39-1.46c-.87.07-1.77,1.49-1.77,2.78s.97,2.29,2.19,2.26,2.57-1.22,3.82-3.41c.84-1.47,1.63-3.22,2.06-4.21h0Zm6.69-.15l-1,2.31c.41.47.69,1.06.85,1.57l1.66-3.86c-.51.09-1.04.09-1.51-.02h0Zm-1.86-1c.42.31.87.6,1.28.8l-.79,2.16c-.32-.26-.69-.45-1.14-.52-.06,0-.12-.02-.18-.02.23-.97.56-1.83.82-2.42h0Zm-1.38-1.12c-.47.59-1.38,1.96-2.02,4.24.41-.28,1.09-.63,1.93-.7.27-.71.68-1.72,1.14-2.66-.42-.32-.79-.64-1.05-.88h0Zm1.55,7.86c-.14.55-.52.35-.55-.09-.03-.43-.14-1.33-.92-1.33s-.87.9-.87,1.39.32,1.67,1.5,1.67,1.73-1.21,1.73-2.28-.11-2.8-1.88-3.15c-1.76-.35-3.32.9-3.64,3.03-.32,2.14,1.13,4.59,3.41,4.59s3.29-1.16,4.44-4.42c.99-2.79,1.55-5.34,1.7-6-.34.35-.79.6-1.28.76-.3.95-1.24,3.8-2.06,5.65-1,2.24-2,2.36-2.97,2.28-.96-.08-1.52-.96-1.52-2.28s.96-1.92,1.56-1.92c.92,0,1.55,1.3,1.33,2.1h0Zm5.67-7.7c.14.53.5,1.48,1.38,2.29-.27,3.01-1.52,5.88-1.99,7.05-.53,1.29-.76,1.41-1.51,1.48-.76.08-1.25-.34-1.14-.61.11-.27.76-1.48.76-1.48,1.8-4.06,2.37-7.71,2.5-8.73h0Zm1.81,2.64c-.17,1.2-.69,3.72-2.38,8.03l1.66-.08s2.3-3.89,2.35-7.17c-.66-.19-1.2-.47-1.63-.78Z" style="fill: #ffe100; fill-rule: evenodd; stroke-width: 0px;"/>
          <path d="m99.11,184.82c.47-.84.93-1.66,1.54-2.55-.38-.51-.71-1.14-.86-1.87-.55.84-1.5,2.38-2.1,3.95.22.03.45.07.67.15.27.09.52.2.75.33h0Zm3.1-1.05l-1.57,2.37c-.17-.23-.54-.67-1.11-1.06l1.53-2.3c.45.49.89.82,1.15.99h0Zm-5.07.55c-.6.02-1.14.2-1.58.45.25-.86.72-2.4,1.53-4.41,1.29-3.23,3.69-5.52,6.15-5.52s3.27,3.02,3.23,4.55c-.04,1.53-1.04,3.93-2.81,4.03-1.77.11-2.81-1.15-3.13-2.36-.31-1.22,0-2.01.69-2.71.69-.7,1.35-1.29,2.38-1.01,1.03.28,1.27,1.56.85,2.75-.42,1.18-1.53,1.35-1.77.73-.24-.63.04-1.29.28-1.53s.35-.8,0-.76c-.35.04-.9.97-.9,1.77s.52,1.53,1.39,1.46c.87-.07,1.77-1.49,1.77-2.78s-.97-2.29-2.19-2.26c-1.22.04-2.57,1.22-3.82,3.4-.84,1.47-1.63,3.22-2.06,4.21h0Zm-6.69.15l1-2.31c-.41-.47-.69-1.06-.85-1.57l-1.66,3.86c.51-.09,1.04-.09,1.51.02h0Zm1.86,1c-.42-.31-.87-.6-1.29-.8l.79-2.16c.32.26.69.45,1.13.51.06.01.12.02.18.02-.23.97-.56,1.82-.82,2.42h0Zm1.38,1.12c.47-.59,1.38-1.96,2.02-4.24-.41.28-1.08.63-1.93.7-.27.71-.68,1.72-1.14,2.66.42.32.79.64,1.05.88h0Zm-1.55-7.86c.14-.55.52-.35.55.09.03.43.15,1.33.92,1.33s.87-.9.87-1.39-.32-1.67-1.5-1.67-1.73,1.21-1.73,2.28.12,2.8,1.88,3.14c1.76.35,3.32-.89,3.64-3.03.32-2.14-1.12-4.59-3.41-4.59s-3.29,1.16-4.45,4.42c-.99,2.8-1.55,5.34-1.7,6,.34-.35.79-.6,1.28-.76.3-.95,1.24-3.8,2.06-5.65,1-2.24,2-2.36,2.97-2.28.96.08,1.52.96,1.52,2.28s-.96,1.92-1.56,1.92c-.92,0-1.55-1.3-1.34-2.1h0Zm-5.66,7.7c-.14-.53-.5-1.48-1.39-2.29.27-3.01,1.52-5.88,2-7.05.53-1.29.76-1.41,1.51-1.48.76-.08,1.25.34,1.14.61-.11.27-.76,1.48-.76,1.48-1.79,4.06-2.37,7.71-2.5,8.73h0Zm-1.81-2.64c.17-1.2.69-3.72,2.38-8.03l-1.66.08s-2.3,3.89-2.36,7.17c.66.19,1.2.47,1.63.78Z" style="fill: #ffe100; fill-rule: evenodd; stroke-width: 0px;"/>
          <path d="m68.72,43.04c-.13,1.1-.67,3.19-2.46,6.86-3.07,6.26-3.6,6.76-3.67,9.24-.07,2.48,1.41,4.7,3.81,4.7s3.59-2.63,3.59-3.99-.7-3-2-3.26c-1.29-.26-3,.7-3.07,1.96-.07,1.26.7,2.89,1.89,2.89s1.33-1.63.44-2.15c-.89-.52-.7-.89-.33-.92.37-.04,1.26.78,1.4,1.44.15.67-.07,2.07-1.26,2.15-1.18.07-2.7-1-2.7-3.03s.93-3.44,1.77-5.33c.79-1.75,4.48-8.66,5.18-11.33-1.15.32-2.04.6-2.6.79h0Zm3.05-.91c.54-.15,1.14-.3,1.78-.46-.4,1.03-1.59,4.04-2.88,7.15-1.59,3.84-2.77,6.91-2.77,6.91l-2.65,1.12s3.04-6.74,4.74-10.13c1.17-2.32,1.62-3.86,1.78-4.6h0Zm2.34-.59c.54-.13,1.1-.25,1.69-.37-1.57,5.45-6.25,15.48-6.25,15.48l-1.3-.63s3.1-7.6,4.17-10.04c.74-1.7,1.37-3.49,1.69-4.43h0Zm2.33-.5c.61-.12,1.24-.24,1.9-.35-1.27,3.97-5.83,14.4-6.26,15.42-.45,1.05-.69,1.36-.69,3.09s2.29,3.41,3.68,2.85c1.4-.56,1.31-2.32,1.16-3.06-.15-.74-.92-1.57-1.51-1.57s-1.22.03-1.25,1.28c-.03,1.25.42,2.02.68,1.78.27-.24-.33-1.07-.33-1.43s.18-1.1.77-1.1,1.16.5,1.16,1.61-.5,2.08-1.28,2.08-2.58-1.16-2.58-3,1.6-3.06,2.88-3.03c1.28.03,3.09,2.38,2.7,4.9-.39,2.53-2.35,3.18-3.98,3.06-1.63-.12-3.42-1.99-3.42-1.99,1.07-2.32-.17-4.53-.17-4.53,3.78-7.25,5.95-14.1,6.52-16h0Zm2.43-.44c-.47,1.4-1.64,4.81-2.99,8.03-1.75,4.17-2.76,6.93-2.76,6.93,0,0,1-.37,1.6-.52l6.01-14.71c-.64.08-1.26.17-1.87.27h0Zm2.34-.33l-6,14.83s1.23.78,1.6,1.3c0,0,1.22-4.18,2.87-8.4,1.25-3.19,2.7-6.51,3.33-7.93-.61.06-1.22.12-1.81.2h0Zm2.34-.24c-.5,1.31-1.64,4.26-2.9,7.11-1.69,3.82-3.34,9.82-3.34,9.82,0,0,1.28,1.5.29,4.71,0,0,.91,3.1,3.1,3.49,2.19.39,4.14-.94,4.54-3.41.39-2.48-.5-4.9-2.5-4.9s-3.31,1.35-3.31,3.07,1.25,2.63,2.16,2.66c.91.03,1.62-.65,1.62-1.93s-.5-1.48-.78-1.48-.75.73-1.41.73.18-1.02,1.12-1.2c.94-.18,1.51.7,1.51,1.77s-.39,2.45-1.93,2.58c-1.54.13-2.74-1.25-2.92-3.08-.18-1.82-.29-3.68,1.96-9.15,1.74-4.23,3.64-8.97,4.41-10.9-.54.03-1.07.07-1.6.11h0Zm2.12-.14c.47-.02.94-.04,1.41-.05-.31,2.52-3.19,9.15-4.18,11.56-1.02,2.5-1.7,5-1.7,5-1.21.6-1.89,1.59-1.89,1.59-.3-1.89,1.89-6.89,3.67-11.08,1.38-3.25,2.33-5.96,2.69-7.02Z" style="fill: #ffe100; fill-rule: evenodd; stroke-width: 0px;"/>
          <path d="m94.85,205.58c.13-1.1.67-3.19,2.47-6.86,3.07-6.26,3.59-6.76,3.67-9.24.07-2.48-1.4-4.7-3.81-4.7s-3.59,2.62-3.59,3.99.7,3,2,3.25c1.29.26,3-.7,3.07-1.96.07-1.26-.7-2.88-1.89-2.88s-1.33,1.63-.44,2.14c.89.52.7.89.33.92-.37.04-1.26-.78-1.41-1.44-.15-.67.07-2.07,1.26-2.15,1.18-.07,2.7,1,2.7,3.03s-.92,3.44-1.78,5.33c-.79,1.75-4.48,8.65-5.18,11.33,1.15-.32,2.04-.6,2.6-.79h0Zm-3.05.91c-.54.15-1.14.3-1.78.45.4-1.02,1.59-4.04,2.88-7.15,1.59-3.84,2.77-6.91,2.77-6.91l2.65-1.12s-3.04,6.74-4.74,10.13c-1.17,2.32-1.62,3.86-1.78,4.6h0Zm-2.34.59c-.54.12-1.1.25-1.69.37,1.57-5.45,6.25-15.48,6.25-15.48l1.3.63s-3.1,7.6-4.18,10.04c-.74,1.7-1.37,3.49-1.69,4.43h0Zm-2.33.5c-.61.12-1.24.24-1.9.35,1.27-3.98,5.82-14.4,6.26-15.42.45-1.05.69-1.36.69-3.08s-2.29-3.42-3.68-2.85c-1.4.56-1.31,2.32-1.16,3.06.15.74.92,1.57,1.52,1.57s1.22-.03,1.25-1.28c.03-1.25-.42-2.02-.68-1.78-.27.24.33,1.07.33,1.42s-.18,1.1-.77,1.1-1.16-.51-1.16-1.6.5-2.08,1.28-2.08,2.58,1.16,2.58,3-1.6,3.06-2.88,3.03c-1.28-.03-3.09-2.38-2.7-4.9.39-2.53,2.35-3.18,3.98-3.06,1.63.12,3.42,1.99,3.42,1.99-1.07,2.32.17,4.53.17,4.53-3.78,7.25-5.95,14.1-6.52,16h0Zm-2.43.44c.47-1.4,1.64-4.81,2.99-8.03,1.75-4.17,2.76-6.93,2.76-6.93,0,0-1.01.37-1.6.52l-6.01,14.71c.64-.08,1.26-.17,1.87-.27h0Zm-2.34.33l6-14.83s-1.24-.78-1.6-1.3c0,0-1.22,4.18-2.87,8.4-1.25,3.19-2.7,6.51-3.33,7.93.61-.06,1.22-.12,1.81-.2h0Zm-2.34.24c.5-1.31,1.64-4.26,2.9-7.11,1.69-3.82,3.34-9.82,3.34-9.82,0,0-1.28-1.5-.29-4.71,0,0-.91-3.1-3.1-3.49-2.19-.39-4.14.94-4.54,3.42-.39,2.48.5,4.9,2.5,4.9s3.31-1.36,3.31-3.08-1.25-2.63-2.16-2.66c-.91-.03-1.62.65-1.62,1.93s.5,1.49.78,1.49.75-.73,1.41-.73-.18,1.01-1.12,1.2c-.94.18-1.51-.7-1.51-1.77s.39-2.45,1.93-2.58c1.54-.13,2.74,1.25,2.92,3.08.18,1.82.29,3.68-1.96,9.15-1.74,4.23-3.63,8.98-4.41,10.91.54-.03,1.07-.07,1.6-.12h0Zm-2.12.14c-.47.02-.94.04-1.41.05.31-2.52,3.19-9.15,4.18-11.57,1.02-2.5,1.7-4.99,1.7-4.99,1.21-.6,1.89-1.59,1.89-1.59.3,1.89-1.89,6.89-3.67,11.09-1.38,3.25-2.33,5.96-2.69,7.02Z" style="fill: #ffe100; fill-rule: evenodd; stroke-width: 0px;"/>
          <path d="m87.74,39.83c-.13.7-.6,2.63-2.26,6.72-2.2,5.39-3.23,6.87-3.54,9.81,0,0,2.32-.5,3.43,1.76,1.11,2.27.34,5.09-.53,6.06-.88.97-2.62,1.64-3.68,1.6,0,0,2.56,5.28,8.78,7.48,6.22,2.21,11.5.65,11.7-1.83,0,0-.04-.46-.27-.81-.23-.35-.34-1.49.18-1.93.51-.43.57-.99.57-1.7s-1.31-.6-2.04-.48c-.73.12-2.82.3-3.3.3s-.46-.34-.17-.71c.29-.38.29-.97.29-.97,0,0,.86.46,1.48.46s1.82-.76,2.3-1.12c.48-.36.57-.48,1-.57.44-.08.75-.25.75-.82s0-.67.17-1.2c.17-.53.87-1.38,2-2.28,1.13-.89,1.1-1.4,1.08-1.69-.02-.29-.17-.48-.89-1.9-.72-1.42-2.33-4.52-2.64-5.79-.31-1.27-.28-2.03.37-3.36.62-1.28.8-2.52.23-5.15-2.25-.71-7.18-1.92-14.7-1.92h-.32Zm-6.91,26.89c1.3,1.84,3.21,4.46,6.58,5.93h-8.57c1.41-2.42,1.99-5.93,1.99-5.93Z" style="fill: #fff; fill-rule: evenodd; stroke-width: 0px;"/>
          <path d="m75.83,208.78c.13-.69.6-2.63,2.26-6.72,2.2-5.39,3.23-6.87,3.54-9.81,0,0-2.32.5-3.43-1.77-1.1-2.27-.34-5.09.53-6.06.88-.97,2.62-1.64,3.68-1.6,0,0-2.56-5.28-8.78-7.48-6.22-2.21-11.5-.65-11.7,1.83,0,0,.04.46.27.81.23.35.34,1.49-.18,1.93-.51.43-.57.99-.57,1.7s1.31.6,2.04.48c.73-.12,2.82-.3,3.3-.3s.46.34.17.71c-.29.38-.29.96-.29.96,0,0-.86-.46-1.48-.46s-1.82.75-2.3,1.11c-.48.36-.56.48-1,.57-.44.08-.75.25-.75.82s0,.67-.17,1.2c-.17.52-.87,1.38-2,2.27-1.13.89-1.1,1.4-1.08,1.69.03.29.17.48.89,1.9.72,1.42,2.33,4.52,2.64,5.79.31,1.27.28,2.03-.37,3.36-.63,1.28-.8,2.53-.23,5.15,2.25.71,7.19,1.92,14.7,1.92.11,0,.21,0,.32,0h0Zm6.91-26.89c-1.3-1.84-3.21-4.46-6.58-5.93h8.57c-1.41,2.42-1.99,5.93-1.99,5.93Z" style="fill: #fff; fill-rule: evenodd; stroke-width: 0px;"/>
          <path d="m92.52,45.28c-1.22.71-1.79,1.38-2.36,1.71-.57.32-.88.13-.98-.16-.1-.29.02-.38.41-.83.39-.46,3.17-2.71,5.66-3.39,2.48-.68,4.29.11,4.99.63.7.52.81.91.81,1.28s-.24.37-.46.37-.74-.61-1.69-.83c-2.28-.53-5.15.53-6.38,1.24h0Zm.45,3.56l-.24.19s-.36.21-.41.04c-.04-.17.23-.51.89-1.07.66-.55,2.36-1.49,2.96-1.77.59-.28,1.13-.3,1.58-.15.45.15.55.3.7.23.15-.06-.23-.72-1.09-.81-.85-.08-2.15.23-3.41,1.04-1.26.81-3.07,2.66-3.49,3.11-.43.45-.15,1.19.02,1.53.17.34.57.11,1.13-.15.55-.26,2.02,0,2.28.47.26.47,1.13.53,1.92.53s1.49.04,1.49.19-.71,1.04-1.64,1.72c-.93.68-.85.82-.85,1.07s.34.3.87.11c.53-.19.71-.61,1.21-1,.49-.39,1.28-1.49,1.73-1.93.45-.43.65-.75.59-.98-.06-.23-.77-.79-.76-1.48.01-.69.18-1.28.66-1.7.48-.42.87-.83.9-1.24.03-.41-.21-.48-.51-.44s-.85.6-1.61.71c-.75.1-2.28.26-2.99.47-.7.21-1.61,1.04-1.95,1.28h0Zm.79,1.68c-.28-.18-.12-.51.21-.64.33-.13.49-.33.74-.43.25-.1.67.13.83.39.16.25.25,1,0,1.14-.47.27-1.42-.23-1.78-.46h0Zm3.07.25c-.27-.16-.45-.41-.55-.73-.12-.37-.01-.96.22-.96s.48.28.49.71c.01.43.05.91-.16.98h0Zm2.83,6.26c.12-.22,0-.54-.3-.54s-1.25.38-1.31,1.73c-.06,1.35.42,2.55,1.67,2.75,1.25.2,1.15-.3,2.19-.5,1.03-.2,1.95-.14,2.03-.97.08-.83-.6-1.33-1.29-1.25-.7.08-1.37.9-2.01,1.29-.64.4-1.41.12-1.69-.56-.42-1.02.31-1.21.72-1.95h0Zm-5.84,5.37c-.3-.44-.81-.82-1.51-.54-.71.29-.89,1.71.02,2.32.91.61,2.4.57,3.87-.6,1.46-1.18,2.33-1.97,3.55-2,1.22-.02,1.98.81,1.91,1.32-.07.51-.38.55-1.31.67-.94.11-2.08.39-3.14.99-1.07.6-1.98,1.58-3.54,1.58s-2.73-1.77-2.73-3.1,1.01-2.12,1.8-2.16c.79-.04,1.45.39,1.53.86.08.47-.31.9-.31.9l-.12-.24Z" style="fill: #004ea2; fill-rule: evenodd; stroke-width: 0px;"/>
          <path d="m71.05,203.34c1.22-.71,1.79-1.38,2.36-1.71.57-.33.88-.13.97.16.1.29-.02.37-.41.83-.39.46-3.18,2.71-5.66,3.39-2.48.68-4.29-.11-4.99-.63-.7-.52-.81-.91-.81-1.28s.24-.37.46-.37.74.61,1.69.83c2.28.53,5.15-.53,6.37-1.24h0Zm-.45-3.56l.24-.19s.36-.21.4-.04c.04.17-.23.51-.89,1.07-.66.55-2.36,1.49-2.96,1.77-.6.28-1.13.3-1.58.15-.45-.15-.55-.3-.7-.23-.15.06.23.72,1.09.81.85.08,2.15-.24,3.41-1.04,1.26-.81,3.07-2.66,3.49-3.11.43-.45.15-1.19-.02-1.53-.17-.34-.58-.11-1.13.15-.55.25-2.02,0-2.28-.47-.25-.47-1.13-.53-1.92-.53s-1.49-.04-1.49-.19.71-1.04,1.63-1.72c.93-.69.85-.83.85-1.07s-.34-.3-.87-.11c-.53.19-.71.61-1.21.99-.5.39-1.29,1.49-1.73,1.93-.45.44-.65.75-.59.98.06.23.78.79.76,1.48-.02.7-.18,1.28-.66,1.71-.48.42-.87.83-.9,1.24-.03.41.21.48.51.44.3-.04.85-.6,1.61-.71.75-.11,2.28-.26,2.99-.47.71-.21,1.6-1.04,1.95-1.28h0Zm-.79-1.68c.28.18.12.5-.21.64-.33.13-.49.33-.74.43-.25.1-.67-.13-.83-.39-.16-.25-.25-1,0-1.14.47-.27,1.42.23,1.78.46h0Zm-3.07-.25c.27.16.45.41.55.73.12.37.01.97-.22.97s-.47-.28-.49-.71c-.01-.43-.04-.91.16-.98h0Zm-2.83-6.26c-.12.22,0,.54.3.54s1.25-.38,1.31-1.73c.06-1.35-.42-2.55-1.67-2.75-1.25-.2-1.15.3-2.19.5-1.04.2-1.95.14-2.03.97-.08.84.6,1.33,1.29,1.25.7-.08,1.37-.89,2.01-1.29.64-.4,1.41-.12,1.69.56.42,1.02-.31,1.21-.71,1.95h0Zm5.84-5.37c.3.44.81.83,1.51.54.71-.29.89-1.71-.02-2.32-.91-.61-2.4-.57-3.87.61-1.46,1.17-2.33,1.97-3.55,2-1.22.02-1.98-.81-1.91-1.32.07-.51.38-.55,1.32-.67.94-.11,2.08-.39,3.14-1,1.07-.6,1.98-1.58,3.54-1.58s2.73,1.77,2.73,3.1-1.01,2.12-1.8,2.16c-.79.04-1.45-.39-1.53-.86-.08-.47.31-.9.31-.9l.12.24Z" style="fill: #004ea2; fill-rule: evenodd; stroke-width: 0px;"/>
          <path d="m47.58,76.86c.09-.06.17-.12.26-.17,1.04-.69,2.12-1.38,3.19-1.99v13.87c-1.2-1.12-2.35-2.13-3.42-3.02-.01-.01-.02-.02-.03-.03v-8.66Z" style="fill: #231815; fill-rule: evenodd; stroke-width: 0px;"/>
          <path d="m116,171.76c-.09.06-.17.12-.26.18-1.04.69-2.12,1.37-3.19,1.99v-13.87c1.2,1.13,2.35,2.13,3.42,3.02.01,0,.02.02.04.03v8.66Z" style="fill: #231815; fill-rule: evenodd; stroke-width: 0px;"/>
          <path d="m41.69,81.14c.59-.47,3.03-2.37,5.89-4.29v8.66c-2.78-2.3-4.98-3.78-5.89-4.37Z" style="fill: #e60012; fill-rule: evenodd; stroke-width: 0px;"/>
          <path d="m121.89,167.47c-.59.46-3.04,2.37-5.89,4.28v-8.66c2.78,2.3,4.98,3.79,5.89,4.37Z" style="fill: #e60012; fill-rule: evenodd; stroke-width: 0px;"/>
          <g>
            <path d="m65.58,84.07h27.72l-7.78,15.38s-.41.9-.89.9-1.5-.28-2.57-1.7c-1.07-1.42-1.81-2.04-3.34-2.26-1.53-.22-2.62.25-3.34.42-.72.17-1.22.11-1.7-.36-.47-.48-2.03-1.23-3.31-1.34-1.28-.11-2.75.34-3.24.81-.42.4-1,.2-1.56-.42v-11.43Z" style="fill: #e60012; fill-rule: evenodd; stroke-width: 0px;"/>
            <path d="m78.63,88.55v1.01h.41c.26-.48.76-.82,1.35-.82.84,0,1.52.69,1.52,1.52s-.69,1.52-1.52,1.52c-.45,0-.85-.2-1.13-.51h-.62v1.44c.32.28.52.69.52,1.15,0,.84-.69,1.52-1.52,1.52s-1.52-.68-1.52-1.52c0-.61.36-1.13.87-1.38v-1.21h-.88c-.28.31-.68.51-1.13.51-.84,0-1.53-.69-1.53-1.52s.69-1.52,1.53-1.52c.58,0,1.09.33,1.35.82h.66v-.78c-.51-.25-.87-.77-.87-1.38,0-.84.68-1.52,1.52-1.52s1.52.68,1.52,1.52c0,.46-.2.86-.52,1.14Z" style="fill: #fff; fill-rule: evenodd; stroke-width: 0px;"/>
          </g>
          <g>
            <path d="m98,164.54h-27.72l7.77-15.38s.41-.9.89-.9,1.5.28,2.57,1.7c1.07,1.42,1.81,2.03,3.34,2.26,1.53.22,2.62-.25,3.34-.42.72-.17,1.22-.11,1.7.36.47.47,2.03,1.23,3.31,1.34,1.28.11,2.75-.34,3.24-.81.42-.4,1-.2,1.56.43v11.43Z" style="fill: #e60012; fill-rule: evenodd; stroke-width: 0px;"/>
            <path d="m84.94,160.06v-1.01h-.4c-.26.48-.77.81-1.35.81-.84,0-1.52-.68-1.52-1.52s.68-1.52,1.52-1.52c.45,0,.85.2,1.13.51h.62v-1.44c-.32-.28-.52-.69-.52-1.14,0-.84.68-1.52,1.52-1.52s1.52.68,1.52,1.52c0,.61-.36,1.13-.87,1.38v1.21h.88c.28-.31.68-.51,1.13-.51.84,0,1.52.68,1.52,1.52s-.68,1.52-1.52,1.52c-.59,0-1.1-.33-1.35-.81h-.66v.78c.51.25.87.77.87,1.38,0,.84-.68,1.52-1.52,1.52s-1.52-.68-1.52-1.52c0-.46.2-.87.52-1.15Z" style="fill: #fff; fill-rule: evenodd; stroke-width: 0px;"/>
          </g>
          <path d="m65.58,82.16h28.68l-.64,1.26h-28.04v-1.26h0Zm0-6.16h31.8l-.64,1.26h-31.16v-1.26h0Zm28.33,2.04h1.7v1.46l-.9,1.77h-.8v-3.23h0Zm-5.56,0h1.88v3.23h-1.88v-3.23h0Zm-5.65,0h2.05v3.23h-2.05v-3.23h0Zm-5.59,0h2.05v3.23h-2.05v-3.23h0Zm-5.46,0h2.05v3.23h-2.05v-3.23h0Zm-5.59,0h2.05v3.23h-2.05v-3.23Z" style="fill: #ffe100; fill-rule: evenodd; stroke-width: 0px;"/>
          <path d="m98,166.45h-28.68l.64-1.26h28.05v1.26h0Zm0,6.16h-31.8l.64-1.26h31.16v1.26h0Zm-28.33-2.04h-1.7v-1.46l.89-1.77h.8v3.23h0Zm5.56,0h-1.88v-3.23h1.88v3.23h0Zm5.65,0h-2.05v-3.23h2.05v3.23h0Zm5.59,0h-2.05v-3.23h2.05v3.23h0Zm5.46,0h-2.05v-3.23h2.05v3.23h0Zm5.59,0h-2.05v-3.23h2.05v3.23Z" style="fill: #ffe100; fill-rule: evenodd; stroke-width: 0px;"/>
          <path d="m47.35,149.77l4.04-.08v1.96l-4.04.06v-1.94h0Zm-17.76-30.24v-5.03l2.44,1.53-2.44,3.5h0Zm20.7,24.53l-4.01,1.44.63,1.79,3.96-1.27-.58-1.96h0Zm-4.57-1.51l-.68-1.78,3.81-1.73.78,1.84-3.91,1.67h0Zm1.12-8.14l-3.57,2.13,1.01,1.56,3.59-1.91-1.03-1.78h0Zm-5.95-1.98l3.26-2.64,1.26,1.45-3.13,2.75-1.38-1.55h0Zm-2.55-3.9l1.3,1.56,3.24-3.07-1.36-1.53-3.17,3.04h0Zm-3.15-3.77l3.03-3.24,1.54,1.45-3.03,3.24-1.54-1.45h0Zm-3.39-3.12l1.79,1.27,2.51-3.63-1.83-1.25-2.47,3.62Z" style="fill: #fff; fill-rule: evenodd; stroke-width: 0px;"/>
          <path d="m116.23,98.85l-4.04.08v-1.96l4.04-.06v1.94h0Zm17.76,30.24v5.03l-2.44-1.53,2.44-3.5h0Zm-20.7-24.53l4.01-1.44-.63-1.79-3.96,1.27.58,1.96h0Zm4.57,1.51l.68,1.78-3.81,1.73-.78-1.84,3.91-1.67h0Zm-1.11,8.14l3.57-2.13-1.01-1.56-3.59,1.91,1.03,1.78h0Zm5.95,1.98l-3.26,2.64-1.26-1.45,3.13-2.75,1.38,1.55h0Zm2.56,3.9l-1.3-1.55-3.24,3.07,1.36,1.53,3.17-3.04h0Zm3.15,3.77l-3.03,3.24-1.54-1.45,3.03-3.24,1.54,1.45h0Zm3.39,3.12l-1.78-1.27-2.51,3.63,1.83,1.26,2.47-3.62Z" style="fill: #fff; fill-rule: evenodd; stroke-width: 0px;"/>
          <polygon points="29.59 148.71 56.16 167.53 58.16 163.95 29.59 142.8 29.59 148.71" style="fill: #231815; fill-rule: evenodd; stroke-width: 0px;"/>
          <polygon points="133.99 99.9 107.41 81.08 105.42 84.66 133.99 105.81 133.99 99.9" style="fill: #231815; fill-rule: evenodd; stroke-width: 0px;"/>
          <path d="m29.59,141.12l29.56,21.06-.99,1.78-28.57-21.15v-1.69h0Zm26.57,26.41l-26.57-18.82v2.11l25.4,18.8,1.17-2.09Z" style="fill: #e60012; fill-rule: evenodd; stroke-width: 0px;"/>
          <path d="m133.99,107.5l-29.56-21.06.99-1.78,28.57,21.15v1.68h0Zm-26.57-26.41l26.57,18.82v-2.11l-25.4-18.8-1.17,2.09Z" style="fill: #e60012; fill-rule: evenodd; stroke-width: 0px;"/>
          <path d="m71.26,143.31l-.14-.24-15.5,27.12,1.72,1.34,14.75-27.08s-.45-.53-.83-1.15Z" style="fill: #f6ab00; fill-rule: evenodd; stroke: #fff100; stroke-miterlimit: 22.93; stroke-width: 0px;"/>
          <path d="m92.32,105.31l.14.24,15.5-27.12-1.72-1.34-14.75,27.08s.45.53.83,1.15Z" style="fill: #f6ab00; fill-rule: evenodd; stroke: #fff100; stroke-miterlimit: 22.93; stroke-width: 0px;"/>
          <path d="m58.35,160.31l11.23-19.92,1.34,1.71-11.08,19.24-1.49-1.03h0Zm-2.42-1.64c.23.38,1.21.69,1.59.69.78,0,1.83-.92,1.83-.92,0,0-.83-.85-1.75-.78-.92.07-1.67,1.01-1.67,1.01h0Zm2.69-1.2c.04-1.71-1.37-2.84-2.76-2.64.24,2.31,2.76,2.64,2.76,2.64h0Zm.64-3.87s-1.42,1.79.31,3.89c1.14-.93.15-3.4-.31-3.89h0Zm-.13-1.28c.25.42,1.31.75,1.72.75.84,0,1.98-1,1.98-1,0,0-.9-.92-1.89-.85-.99.08-1.81,1.09-1.81,1.09h0Zm2.92-1.3c.05-1.85-1.48-3.08-2.99-2.86.26,2.5,2.99,2.86,2.99,2.86h0Zm.69-4.19s-1.54,1.94.34,4.21c1.24-1.01.16-3.69-.34-4.21h0Zm.09-1.25c.25.42,1.31.75,1.72.75.84,0,1.98-1,1.98-1,0,0-.9-.92-1.89-.85-.99.08-1.81,1.09-1.81,1.09h0Zm2.92-1.3c.05-1.85-1.48-3.08-2.99-2.86.26,2.5,2.99,2.86,2.99,2.86h0Zm.69-4.19s-1.53,1.94.34,4.21c1.24-1.01.16-3.69-.34-4.21Z" style="fill: #fff; fill-rule: evenodd; stroke-width: 0px;"/>
          <path d="m105.23,88.31l-11.23,19.92-1.33-1.71,11.08-19.24,1.49,1.03h0Zm2.42,1.63c-.23-.38-1.21-.69-1.59-.69-.78,0-1.83.92-1.83.92,0,0,.83.85,1.74.78.92-.07,1.68-1.01,1.68-1.01h0Zm-2.7,1.2c-.04,1.71,1.37,2.84,2.76,2.64-.24-2.31-2.76-2.64-2.76-2.64h0Zm-.64,3.87s1.42-1.79-.31-3.89c-1.14.93-.15,3.4.31,3.89h0Zm.13,1.28c-.25-.42-1.31-.75-1.72-.75-.84,0-1.98,1-1.98,1,0,0,.9.92,1.89.85.99-.08,1.81-1.09,1.81-1.09h0Zm-2.92,1.3c-.05,1.85,1.48,3.08,2.99,2.86-.26-2.5-2.99-2.86-2.99-2.86h0Zm-.69,4.19s1.53-1.94-.34-4.21c-1.24,1.01-.16,3.69.34,4.21h0Zm-.09,1.25c-.25-.42-1.31-.75-1.72-.75-.84,0-1.98,1-1.98,1,0,0,.9.92,1.89.85.99-.08,1.82-1.09,1.82-1.09h0Zm-2.92,1.3c-.04,1.85,1.48,3.08,2.99,2.86-.26-2.5-2.99-2.86-2.99-2.86h0Zm-.69,4.19s1.54-1.94-.34-4.21c-1.24,1.01-.16,3.69.34,4.21Z" style="fill: #fff; fill-rule: evenodd; stroke-width: 0px;"/>
          <path d="m84.49,105.42h.32c1.88,0,3.41,1.53,3.41,3.41v9.28h-6.82v-9.61c0-1.7,1.39-3.09,3.09-3.09h0Zm-15.5,12.69c-.6-2.27-1.33-4.49-2.21-6.69v-8.54c0-1.7,1.39-3.09,3.09-3.09h.32c1.88,0,3.41,1.53,3.41,3.41v14.9h-4.61Zm-2.76-8.03c-.55-1.29-1.16-2.58-1.82-3.87.32-1.4.12-3.01-.25-3.71-.38-.72-1.31-1.41-2.31-.87-.35-.56-.71-1.12-1.07-1.66.48-.29,1.13-.51,1.71-.51h.32c1.88,0,3.41,1.53,3.41,3.41v7.21h0Zm10.46-9.25h.71c1.88,0,3.41,1.53,3.41,3.41v13.87h-6.82v-14.58c0-1.49,1.21-2.7,2.7-2.7h0Zm8,14.73c-.45-1.55.26-2.32.82-3.14.56-.82.96-1.88.84-3.01-.12-1.12-.77-1.72-1.71-1.72s-1.45,1.27-1.13,2.16c.32.88,1.52,1.1,1.52,1.88s-.76,1.51-.85,2.41c-.09.89.48,1.62.48,1.62l.04-.21h0Zm-7.79-2.07c-.04-2.65,1.22-4.46,1.94-5.76.72-1.3.46-2.72.05-3.4-.41-.67-1.57-1.28-2.39-.31-.82.96-.58,2.31.05,2.55.63.24,1.08.63.92,1.38-.17.75-.82,2.05-.94,3.64-.12,1.59.36,2.27.36,2.27v-.37h.01Zm-6.5-.57s-.14-2.52,0-3.84c.14-1.32,1.46-2.52,1.63-3.75.17-1.23-.03-3.31-1.54-3.36-1.51-.06-1.74,1.48-1.6,2.27.2,1.15,1.17.71,1.1,2.8-.02.69-.17,1.59-.36,2.65-.18.97-.05,2.14.78,3.24Z" style="fill: #e60012; fill-rule: evenodd; stroke-width: 0px;"/>
          <path d="m79.08,143.2h-.32c-1.87,0-3.41-1.53-3.41-3.41v-9.28h6.82v9.6c0,1.7-1.39,3.09-3.09,3.09h0Zm15.5-12.69c.6,2.27,1.33,4.49,2.21,6.68v8.54c0,1.7-1.39,3.09-3.09,3.09h-.32c-1.87,0-3.41-1.53-3.41-3.41v-14.9h4.61Zm2.76,8.03c.55,1.29,1.16,2.58,1.81,3.87-.32,1.41-.12,3.01.25,3.71.38.71,1.31,1.41,2.31.87.35.56.71,1.12,1.07,1.66-.48.29-1.13.51-1.71.51h-.32c-1.88,0-3.41-1.53-3.41-3.41v-7.21h0Zm-10.46,9.25h-.71c-1.88,0-3.41-1.53-3.41-3.41v-13.87h6.82v14.58c0,1.49-1.22,2.7-2.7,2.7h0Zm-8-14.73c.44,1.55-.26,2.32-.82,3.15-.56.82-.96,1.88-.84,3.01.12,1.13.77,1.71,1.71,1.71s1.45-1.27,1.13-2.16c-.32-.88-1.52-1.1-1.52-1.89s.76-1.51.86-2.41c.09-.9-.48-1.62-.48-1.62l-.04.21h0Zm7.79,2.07c.04,2.66-1.21,4.46-1.94,5.76-.72,1.3-.46,2.72-.05,3.4.41.67,1.57,1.28,2.39.31.82-.96.58-2.31-.05-2.55-.63-.24-1.08-.63-.92-1.37.17-.75.82-2.05.94-3.64.12-1.59-.36-2.27-.36-2.27v.36h-.01Zm6.5.57s.14,2.52,0,3.84c-.14,1.32-1.46,2.52-1.62,3.76-.17,1.23.03,3.31,1.54,3.36,1.51.06,1.74-1.49,1.6-2.27-.21-1.15-1.17-.71-1.1-2.8.02-.69.17-1.59.36-2.65.17-.97.05-2.14-.78-3.24Z" style="fill: #e60012; fill-rule: evenodd; stroke-width: 0px;"/>
          <path d="m79.08,143.2h-.32c-1.87,0-3.41-1.53-3.41-3.41v-9.28h6.82v9.6c0,1.7-1.39,3.09-3.09,3.09h0Zm15.48-12.69c.58,2.22,1.31,4.45,2.23,6.73v8.49c0,1.7-1.39,3.09-3.09,3.09h-.32c-1.87,0-3.41-1.53-3.41-3.41v-14.9h4.59Zm2.79,8.07h0c.54,1.25,1.14,2.53,1.81,3.83-.32,1.4-.12,3,.25,3.71.38.71,1.31,1.41,2.31.87l1.07,1.66c-.48.29-1.13.51-1.71.51h-.32c-1.88,0-3.41-1.53-3.41-3.41v-7.17h0Zm-10.46,9.21h-.71c-1.88,0-3.41-1.53-3.41-3.41v-13.87h6.82v14.58c0,1.49-1.22,2.7-2.7,2.7h0Zm-8-14.73c.44,1.55-.26,2.32-.82,3.15-.56.82-.96,1.88-.84,3.01.12,1.13.77,1.71,1.71,1.71s1.45-1.27,1.13-2.16c-.32-.88-1.52-1.1-1.52-1.89s.76-1.51.86-2.41c.09-.9-.48-1.62-.48-1.62l-.04.21h0Zm7.79,2.07c.04,2.66-1.21,4.46-1.94,5.76-.72,1.3-.46,2.72-.05,3.4.41.67,1.57,1.28,2.39.31.82-.96.58-2.31-.05-2.55-.63-.24-1.08-.63-.92-1.37.17-.75.82-2.05.94-3.64.12-1.59-.36-2.27-.36-2.27v.36h-.01Zm6.5.57s.14,2.52,0,3.84c-.14,1.32-1.46,2.52-1.62,3.76-.17,1.23.03,3.31,1.54,3.36,1.51.06,1.74-1.49,1.6-2.27-.21-1.15-1.17-.71-1.1-2.8.02-.69.17-1.59.36-2.65.17-.97.05-2.14-.78-3.24Z" style="fill: #e60012; fill-rule: evenodd; stroke-width: 0px;"/>
          <path d="m84.49,105.42h.32c1.88,0,3.41,1.53,3.41,3.41v9.28h-6.82v-9.61c0-1.7,1.39-3.09,3.09-3.09h0Zm-15.48,12.69c-.58-2.23-1.31-4.45-2.23-6.74v-8.49c0-1.7,1.39-3.09,3.09-3.09h.32c1.88,0,3.41,1.53,3.41,3.41v14.9h-4.59Zm-2.79-8.07h0c-.54-1.25-1.15-2.53-1.81-3.84.32-1.4.12-3-.25-3.7-.38-.72-1.31-1.41-2.31-.87l-1.07-1.66c.48-.29,1.13-.51,1.71-.51h.32c1.88,0,3.41,1.53,3.41,3.41v7.17h0Zm10.46-9.21h.71c1.88,0,3.41,1.53,3.41,3.41v13.87h-6.82v-14.58c0-1.49,1.21-2.7,2.7-2.7h0Zm8,14.73c-.45-1.55.26-2.32.82-3.14.56-.82.96-1.88.84-3.01-.12-1.12-.77-1.72-1.71-1.72s-1.45,1.27-1.13,2.16c.32.88,1.52,1.1,1.52,1.88s-.76,1.51-.85,2.41c-.09.89.48,1.62.48,1.62l.04-.21h0Zm-7.79-2.07c-.04-2.65,1.22-4.46,1.94-5.76.72-1.3.46-2.72.05-3.4-.41-.67-1.57-1.28-2.39-.31-.82.96-.58,2.31.05,2.55.63.24,1.08.63.92,1.38-.17.75-.82,2.05-.94,3.64-.12,1.59.36,2.27.36,2.27v-.37h.01Zm-6.5-.57s-.14-2.52,0-3.84c.14-1.32,1.46-2.52,1.63-3.75.17-1.23-.03-3.31-1.54-3.36-1.51-.06-1.74,1.48-1.6,2.27.2,1.15,1.17.71,1.1,2.8-.02.69-.17,1.59-.36,2.65-.18.97-.05,2.14.78,3.24Z" style="fill: #e60012; fill-rule: evenodd; stroke-width: 0px;"/>
          <path d="m77.14,120.59h9.3c.43,0,.79.36.79.79v1.68h.84l.39-.28,2.11-1.49v6.03l-2.11-1.49-.39-.28h-.84v1.68c0,.43-.36.79-.79.79h-9.3c-.43,0-.79-.35-.79-.79v-1.68h-.84l-.39.28-2.11,1.49v-6.03l2.11,1.49.39.28h.84v-1.68c0-.43.35-.79.79-.79Z" style="fill: #004ea2; fill-rule: evenodd; stroke-width: 0px;"/>
          <path d="m86.44,128.02h-9.3c-.43,0-.79-.35-.79-.79v-1.68h-.84l-.39.28-2.11,1.49v-6.03l2.11,1.49.39.28h.84v-1.68c0-.43.35-.79.79-.79h9.3c.43,0,.79.36.79.79v1.68h.84l.39-.28,2.11-1.49v6.03l-2.11-1.49-.39-.28h-.84v1.68c0,.43-.36.79-.79.79Z" style="fill: #004ea2; fill-rule: evenodd; stroke-width: 0px;"/>
          <path d="m77.14,120.59h9.3c.43,0,.79.36.79.79v1.68h.84l.39-.28,2.11-1.49v6.03l-2.11-1.49-.39-.28h-.84v1.68c0,.43-.36.79-.79.79h-9.3c-.43,0-.79-.35-.79-.79v-1.68h-.84l-.39.28-2.11,1.49v-6.03l2.11,1.49.39.28h.84v-1.68c0-.43.35-.79.79-.79Z" style="fill: #ffe100; fill-rule: evenodd; stroke-width: 0px;"/>
          <path d="m65.58,71.32v24.18c-.1-.11-.2-.23-.29-.37-.64-.9-2.63-.35-2.63-.35,0,0-.15,0-.41.04v-20.72c.09-.03.18-.07.27-.1,1.07-.43,2.25-1.23,3.07-2.68Z" style="fill: #231815; fill-rule: evenodd; stroke-width: 0px;"/>
          <path d="m98,177.3v-24.18c.1.11.2.23.29.37.64.9,2.63.35,2.63.35,0,0,.15,0,.41-.04v20.71c-.09.03-.18.07-.27.1-1.07.43-2.24,1.23-3.07,2.68Z" style="fill: #231815; fill-rule: evenodd; stroke-width: 0px;"/>
          <path d="m102.44,74.42l.2.14,2.19,1.51-14.96,26.1s-1.05-.74-1.87-1.28c0,0,0,0,0,0l14.44-26.47Z" style="fill: #ffe100; fill-rule: evenodd; stroke-width: 0px;"/>
          <path d="m61.14,174.19l-.2-.14-2.19-1.51,14.96-26.11s1.05.74,1.87,1.28c0,0,0,0,0,0l-14.44,26.47Z" style="fill: #ffe100; fill-rule: evenodd; stroke-width: 0px;"/>
          <path d="m61.14,174.19l-.2-.14-2.19-1.51,14.96-26.11s1.05.74,1.87,1.28c0,0,0,0,0,0l-14.44,26.47Z" style="fill: #ffe100; fill-rule: evenodd; stroke-width: 0px;"/>
          <path d="m102.44,74.42l.2.14,2.19,1.51-14.96,26.1s-1.05-.74-1.87-1.28c0,0,0,0,0,0l14.44-26.47Z" style="fill: #ffe100; fill-rule: evenodd; stroke-width: 0px;"/>
          <g>
            <path d="m45.66,115.8s3.8-2.27,5.73,1.31c-1.88,1.42-4.66,1.45-5.73-1.31h0Zm1.18-7.91l.27-.02s-.91-3.88-5.23-2.96c0,0,.29,4.28,4.96,2.98h0Zm.38.59s-1.23.43-2.03,1.59c0-.05,0-.1,0-.15,0-.88-.72-1.59-1.59-1.59s-1.59.72-1.59,1.59.71,1.59,1.59,1.59c.42,0,.8-.16,1.09-.43-.33,1.04-.27,2.46.7,4.33,2.15-1.61,3.37-4.43,1.83-6.93h0Zm4.5,9.16s-3.71,3.11-.03,7.33c2.3-1.76,1.98-5.88.03-7.33h0Zm-10.37-20.47c.86,0,1.56.7,1.56,1.56s-.7,1.56-1.56,1.56-1.56-.7-1.56-1.56.7-1.56,1.56-1.56h0Zm3.77,1.48s-4.26.38-3.53,5.95c2.5-.6,4.05-3.47,3.53-5.95h0Zm3.39,19.88c.86,0,1.55.7,1.55,1.55s-.7,1.55-1.55,1.55-1.56-.7-1.56-1.55.7-1.55,1.56-1.55h0Zm-3.16-30.72s-4.58-.11-4.79,4.64c2.41-.12,4.84-1.92,4.79-4.64h0Zm21.13,42.97s2.65.04,3.64,3.61c.02.55.04,1.1.06,1.66-2-.34-4.71-1.95-3.7-5.27h0Zm-25.11-37.96s-1.78,4.3,3.29,5.1c.45-2.3-.77-4.98-3.29-5.1h0Zm17.07,32.39s-1.19,1.14-1.05,2.92c-.17-.67-.78-1.17-1.5-1.17-.85,0-1.55.69-1.55,1.55s.69,1.55,1.55,1.55,1.55-.69,1.55-1.55c.18,1.01.8,2.2,2.27,3.48,1.28-2.21,1.16-5.33-1.27-6.78h0Zm-16.68-40.14c.35,0,.67.11.94.29-.59-1.12-.36-2.37-.36-2.37.06,0,.12,0,.18,0,.77.53,1.62,1.14,2.53,1.83.38.7.54,1.5.35,2.23-.94-.14-1.59-.47-2.06-.88.07.18.1.37.1.57,0,.93-.76,1.69-1.69,1.69s-1.69-.76-1.69-1.69.76-1.69,1.69-1.69h0Zm23.04,47.7c.83,0,1.51.68,1.51,1.51s-.68,1.51-1.51,1.51-1.51-.68-1.51-1.51.68-1.51,1.51-1.51h0Zm-12.71-8.09s2.5-3.12,5.92-.03c-1.23,1.66-4.46,2.68-5.92.03h0Zm13.7,5.52l.04-.34s-3.99-1.64-5.52,1.79c0,0,3.47,2.76,5.48-1.45Z" style="fill: none; fill-rule: evenodd; stroke: #1d2088; stroke-linecap: round; stroke-linejoin: round; stroke-width: .57px;"/>
            <path d="m66.29,134.54v-.48c.01.08.02.16.02.24s0,.16-.02.24h0Zm0-2c.22,2.15,2.29,3.25,3.9,3.52-.02-.56-.04-1.11-.06-1.66-.99-3.57-3.64-3.61-3.64-3.61-.11.35-.17.68-.2.99v.76Zm0-.76v.76c-.02-.24-.03-.49,0-.76h0Zm0,2.27v.48c-.12.72-.74,1.27-1.49,1.27-.83,0-1.51-.68-1.51-1.51s.68-1.51,1.51-1.51c.75,0,1.37.55,1.49,1.27h0Zm-5.88-2.31c.59.42,3.57,2.25,5.38-1.53l.04-.34s-3.81-1.57-5.41,1.57v.29h0Zm0-1.62v-2.11c.14.68.14,1.41,0,2.11Zm0-2.11v2.11c-.13.66-.37,1.3-.7,1.88-1.47-1.28-2.09-2.47-2.27-3.48,0,.75-.55,1.39-1.26,1.52v-3.04c.59.11,1.07.56,1.22,1.14-.13-1.78,1.05-2.92,1.05-2.92,1.11.67,1.74,1.68,1.97,2.8h0Zm0,3.43c-.04.07-.07.14-.1.22,0,0,.04.03.1.08v-.29h0Zm-4.24-5.42c.75-.29,1.41-.79,1.83-1.36-.65-.59-1.26-.95-1.83-1.15v2.52Zm0-2.52v2.52c-1.15.46-2.5.43-3.47-.52v-1.39c.69-.53,1.92-1.16,3.47-.6h0Zm0,3.48v3.04c-.09.02-.19.03-.28.03-.85,0-1.55-.69-1.55-1.55s.69-1.55,1.55-1.55c.1,0,.19,0,.28.03h0Zm-3.47-3.19c.85-1.51.78-3.58,0-5.01v5.01Zm-1.97-7.64c.24.26.46.57.66.94-.21.16-.43.3-.66.42v-1.37h0Zm1.97,2.63v5.01c-.25.44-.58.84-1,1.16-.41-.47-.73-.92-.97-1.36v-4.74c.46-.78,1-1.23,1-1.23.39.29.72.69.97,1.16h0Zm0,5.32c-.39.3-.61.57-.61.57.18.33.39.59.61.82v-1.39Zm-2.63-8.51c.23.15.45.33.66.56v1.37c-.21.11-.43.21-.66.29v-2.22h0Zm.66,3.27v4.74c-.45-.82-.64-1.58-.66-2.26v-.28c.03-.88.33-1.63.66-2.2h0Zm-.66,1.31s0-.06,0-.1,0-.06,0-.1v.2Zm-3.28-4.87c.89-.27,2.17-.43,3.28.29v2.22c-1.13.39-2.35.32-3.28-.42v-2.08h0Zm3.28,4.67v.2c-.05.81-.73,1.46-1.55,1.46s-1.56-.7-1.56-1.55.7-1.55,1.56-1.55,1.5.64,1.55,1.46h0Zm0,1.08c0,.09,0,.18,0,.28v-.28h0Zm-3.28-7.05v-5.34c.26-.14.44-.2.44-.2,1.16,1.88.75,3.95-.44,5.54h0Zm0-6.12v-.86c.24.47.32.83.32.83l-.27.02h-.05Zm-1.13,7.9s.46-.27,1.13-.48v2.08c-.46-.37-.85-.89-1.13-1.6h0Zm1.13-8.76v.86c-2.89.78-4.08-.59-4.58-1.72v-1.34c2.78-.45,4.05,1.16,4.58,2.2h0Zm0,1.64c-.43.23-1.1.67-1.6,1.38,0-.05,0-.1,0-.15,0-.88-.72-1.59-1.59-1.59-.6,0-1.12.33-1.39.82v1.55c.27.49.79.82,1.39.82.42,0,.8-.16,1.09-.43-.33,1.04-.27,2.46.7,4.33.53-.4,1-.87,1.39-1.39v-5.34h0Zm-4.58-4.28c2.13-.89,3.4-3.48,2.92-5.75,0,0-1.87.17-2.92,1.89v3.85h0Zm0-4.37v-2.6c.42.28.7.76.7,1.3s-.28,1.02-.7,1.3h0Zm0-3.06c.54.44,1.33.79,2.45.96.4-2.03-.5-4.35-2.45-4.95v3.99h0Zm0-4.85v-3.25c1.39-1.09,3.14-1.05,3.14-1.05.04,2.09-1.39,3.64-3.14,4.3h0Zm0-3.71c.71-.2,1.24-.85,1.24-1.63,0-.2-.04-.39-.1-.57.46.41,1.12.74,2.06.88.19-.72.03-1.53-.35-2.23-.91-.7-1.76-1.31-2.53-1.83-.06,0-.12,0-.18,0,0,0-.24,1.24.36,2.37-.15-.1-.31-.18-.49-.22v3.26Zm0-3.26v3.26c-.14.04-.3.06-.45.06-.93,0-1.69-.76-1.69-1.69s.76-1.69,1.69-1.69c.16,0,.31.02.45.06h0Zm0,3.72v3.25c-.53.2-1.09.31-1.65.34.08-1.81.8-2.91,1.65-3.59h0Zm0,4.1v3.99c-1.91-1.53-.84-4.14-.84-4.14.3.02.58.07.84.14h0Zm0,4.46v2.6c-.25.16-.54.26-.86.26-.86,0-1.56-.7-1.56-1.56s.7-1.56,1.56-1.56c.32,0,.61.1.86.26h0Zm0,3.11v3.85c-.2.08-.4.15-.61.2-.25-1.88.08-3.17.61-4.05h0Zm0,4.3v1.34c-.29-.68-.33-1.28-.33-1.28.11-.02.22-.04.33-.06h0Zm0,4.3v1.55c-.13-.23-.2-.5-.2-.78s.07-.55.2-.78Z" style="fill: #e60012; fill-rule: evenodd; stroke-width: 0px;"/>
          </g>
          <g>
            <path d="m117.92,132.81s-3.8,2.27-5.73-1.32c1.88-1.42,4.66-1.45,5.73,1.32h0Zm-1.18,7.91l-.26.02s.91,3.87,5.23,2.96c0,0-.29-4.28-4.96-2.98h0Zm-.38-.59s1.23-.43,2.03-1.59c0,.05,0,.1,0,.15,0,.88.72,1.59,1.59,1.59s1.59-.72,1.59-1.59-.72-1.59-1.59-1.59c-.42,0-.8.16-1.09.43.33-1.04.27-2.45-.7-4.32-2.15,1.61-3.38,4.43-1.83,6.93h0Zm-4.5-9.16s3.71-3.11.03-7.33c-2.29,1.76-1.98,5.88-.03,7.33h0Zm10.37,20.47c-.86,0-1.56-.7-1.56-1.56s.7-1.56,1.56-1.56,1.56.7,1.56,1.56-.7,1.56-1.56,1.56h0Zm-3.78-1.48s4.26-.38,3.53-5.95c-2.49.6-4.06,3.47-3.53,5.95h0Zm-3.39-19.88c-.86,0-1.55-.7-1.55-1.56s.7-1.55,1.55-1.55,1.55.7,1.55,1.55-.7,1.56-1.55,1.56h0Zm3.16,30.72s4.58.11,4.79-4.64c-2.41.12-4.84,1.91-4.79,4.64h0Zm-21.13-42.97s-2.65-.04-3.64-3.61c-.02-.55-.04-1.1-.06-1.66,2,.34,4.71,1.95,3.7,5.26h0Zm25.11,37.96s1.77-4.3-3.29-5.1c-.45,2.3.77,4.98,3.29,5.1h0Zm-17.07-32.39s1.19-1.14,1.05-2.92c.17.67.78,1.17,1.5,1.17.85,0,1.55-.7,1.55-1.55s-.69-1.55-1.55-1.55-1.55.69-1.55,1.55c-.18-1.01-.8-2.2-2.27-3.49-1.28,2.21-1.16,5.33,1.27,6.78h0Zm16.68,40.14c-.35,0-.67-.11-.94-.29.59,1.12.36,2.37.36,2.37-.06,0-.12,0-.17-.01-.77-.52-1.62-1.13-2.54-1.83-.38-.7-.54-1.51-.35-2.23.94.14,1.59.46,2.05.88-.07-.18-.1-.37-.1-.57,0-.93.76-1.69,1.69-1.69s1.69.76,1.69,1.69-.76,1.69-1.69,1.69h0Zm-23.04-47.7c-.83,0-1.51-.68-1.51-1.51s.68-1.51,1.51-1.51,1.51.68,1.51,1.51-.68,1.51-1.51,1.51h0Zm12.71,8.09s-2.5,3.12-5.92.03c1.23-1.66,4.46-2.68,5.92-.03h0Zm-13.7-5.52l-.04.34s3.99,1.64,5.52-1.79c0,0-3.47-2.76-5.48,1.45Z" style="fill: none; fill-rule: evenodd; stroke: #1d2088; stroke-linecap: round; stroke-linejoin: round; stroke-width: .57px;"/>
            <path d="m121.37,163.47v-3.26c.14-.04.29-.06.45-.06.93,0,1.69.76,1.69,1.69s-.76,1.69-1.69,1.69c-.16,0-.31-.02-.45-.06h0Zm0-3.72v-3.25c.53-.2,1.09-.32,1.65-.34-.08,1.81-.79,2.91-1.65,3.59h0Zm0-4.1v-3.99c1.91,1.53.84,4.14.84,4.14-.3-.01-.58-.06-.84-.15h0Zm0-4.46v-2.6c.25-.16.54-.26.86-.26.86,0,1.56.7,1.56,1.56s-.7,1.56-1.56,1.56c-.32,0-.61-.09-.86-.26h0Zm0-3.11v-3.85c.2-.08.4-.15.61-.2.25,1.88-.08,3.17-.61,4.05h0Zm0-4.3v-1.34c.29.68.33,1.28.33,1.28-.11.03-.22.04-.33.06h0Zm0-4.3v-1.55c.13.23.2.49.2.78s-.07.55-.2.78Zm-3.45-6.66s-.45.27-1.13.48v-2.08c.46.37.85.89,1.13,1.61h0Zm3.45,5.1c-.27-.49-.8-.82-1.39-.82-.42,0-.8.16-1.09.43.33-1.04.27-2.45-.7-4.32-.53.4-1.01.87-1.4,1.39v5.34c.43-.23,1.1-.67,1.6-1.39,0,.05,0,.1,0,.15,0,.88.72,1.59,1.59,1.59.6,0,1.12-.33,1.39-.82v-1.55h0Zm0,4.51v1.34c-2.78.45-4.05-1.16-4.58-2.2v-.86c2.89-.78,4.09.59,4.58,1.72h0Zm0,1.79c-2.13.89-3.4,3.48-2.92,5.75,0,0,1.87-.17,2.92-1.89v-3.85h0Zm0,4.37v2.6c-.42-.28-.7-.76-.7-1.3s.28-1.02.7-1.3h0Zm0,3.06c-.55-.44-1.33-.79-2.46-.96-.4,2.03.51,4.35,2.46,4.95v-3.99h0Zm0,4.85v3.25c-1.39,1.09-3.14,1.05-3.14,1.05-.04-2.09,1.39-3.64,3.14-4.3h0Zm0,3.71c-.71.2-1.24.85-1.24,1.63,0,.2.03.39.1.57-.46-.41-1.12-.74-2.05-.88-.19.72-.03,1.53.35,2.23.91.7,1.76,1.31,2.54,1.83.06,0,.12,0,.17.01,0,0,.24-1.24-.36-2.37.15.1.32.18.49.23v-3.26Zm-4.58-26.92c-.89.28-2.16.44-3.28-.29v-2.21c1.13-.39,2.35-.32,3.28.42v2.08h0Zm0,1.3v5.34c-.26.14-.44.2-.44.2-1.16-1.88-.75-3.95.44-5.54h0Zm0,6.12v.86c-.24-.47-.32-.83-.32-.83l.26-.02h.05Zm-3.28-12.1v-.18c.05-.82.73-1.46,1.55-1.46s1.55.7,1.55,1.55-.7,1.56-1.55,1.56-1.5-.65-1.55-1.46h0Zm0-1.07c0-.1,0-.2,0-.3v.3Zm0,5.45c-.23-.15-.45-.33-.66-.56v-1.37c.21-.12.44-.21.66-.29v2.21h0Zm0-5.75v.3c-.03.88-.33,1.62-.66,2.19v-4.74c.45.81.64,1.57.66,2.25h0Zm0,1.18s0,.06,0,.09,0,.06,0,.09v-.18Zm-.66,4.01c-.24-.26-.46-.57-.66-.94.21-.16.43-.3.66-.42v1.37h0Zm0-7.44v4.74c-.46.79-1,1.23-1,1.23-.39-.29-.72-.69-.97-1.16v-5.01c.25-.45.58-.84,1-1.16.41.47.73.92.97,1.36h0Zm-1.97-.51c.39-.3.61-.57.61-.57-.18-.33-.38-.6-.61-.82v1.39Zm0-1.39v1.39c-.69.53-1.92,1.16-3.47.6v-2.51c1.15-.46,2.5-.43,3.47.52h0Zm0,1.7c-.85,1.51-.78,3.58,0,5.01v-5.01h0Zm-3.47-3.19v-3.04c.09-.02.19-.03.29-.03.85,0,1.55.69,1.55,1.55s-.69,1.55-1.55,1.55c-.1,0-.19,0-.29-.03Zm0-3.04v3.04c-.59-.11-1.07-.56-1.21-1.14.13,1.77-1.05,2.92-1.05,2.92-1.11-.66-1.74-1.68-1.97-2.79v-2.11c.13-.66.36-1.3.7-1.88,1.47,1.28,2.09,2.47,2.27,3.49,0-.75.54-1.39,1.26-1.52h0Zm0,4.01c-.75.3-1.41.79-1.83,1.36.65.58,1.26.95,1.83,1.15v-2.51h0Zm-4.24-5.42c.04-.07.07-.14.1-.22,0,0-.04-.03-.1-.08v.3Zm0-.3v.3c-1.6,3.14-5.41,1.57-5.41,1.57l.04-.34c1.81-3.78,4.78-1.95,5.38-1.53h0Zm0,1.62c-.14.71-.14,1.43,0,2.11v-2.11h0Zm-5.88-1.65v-.77c.03.24.03.5,0,.77h0Zm0-2.28c.12.72.74,1.27,1.49,1.27.83,0,1.51-.68,1.51-1.51s-.68-1.51-1.51-1.51c-.75,0-1.37.55-1.49,1.27v.48Zm0-.48v.48c-.01-.08-.02-.16-.02-.24s0-.16.02-.24h0Zm0,2c-.22-2.15-2.29-3.24-3.9-3.51.02.55.04,1.11.06,1.66.99,3.56,3.64,3.61,3.64,3.61.11-.35.17-.68.2-.99v-.77Z" style="fill: #e60012; fill-rule: evenodd; stroke-width: 0px;"/>
          </g>
          <path d="m38.33,80.48s-.03.11-.03.14c-4.28,17.9,1.26,42.06,16.85,52.9,2.83,1.97,9.68,6.52,15.01,6.96.03,0,.06,0,.09,0,0-.37,0-.73.01-1.1,0-.43,0-.7,0-.7,0-.15,0-.29-.01-.44-.3-.07-.81-.19-1.48-.38-2.78-.77-8.33-2.65-12.8-6.21-6.24-4.98-11.7-11.29-15.47-25.62,0,0-2.7-9.68-.51-22.24.11-.65.24-1.31.38-1.98,0,0,0-.04,0-.05,0-.03.01-.07.02-.12-.96-.58-1.67-.96-2.07-1.16Z" style="fill: #fff; fill-rule: evenodd; stroke-width: 0px;"/>
          <path d="m125.25,168.13s.03-.11.04-.13c4.28-17.89-1.26-42.06-16.85-52.9-2.83-1.96-9.67-6.52-15.01-6.96-.03,0-.06,0-.09,0,0,.37,0,.73-.01,1.1,0,.42,0,.7,0,.7,0,.15,0,.3,0,.44.3.07.81.19,1.48.38,2.79.77,8.33,2.65,12.8,6.21,6.24,4.98,11.7,11.29,15.47,25.62,0,0,2.7,9.67.51,22.24-.12.65-.24,1.31-.38,1.98,0,0,0,.04,0,.05,0,.03-.01.08-.02.12.95.58,1.67.96,2.07,1.16Z" style="fill: #fff; fill-rule: evenodd; stroke-width: 0px;"/>
          <path d="m52.32,91.33c-.37.65-1.06,1.09-1.86,1.09-1.18,0-2.13-.96-2.13-2.13,0-.78.42-1.46,1.04-1.83.18.17.37.34.56.51-.52.21-.88.72-.88,1.32,0,.79.64,1.42,1.42,1.42.61,0,1.13-.38,1.33-.92.18.18.35.35.53.54h0Zm-1.86-1.72c-.37,0-.68.3-.68.68s.3.68.68.68.68-.3.68-.68c0-.06,0-.11-.02-.16-.05-.05-.1-.1-.15-.15-.12-.12-.24-.23-.36-.35-.05,0-.1-.02-.15-.02h0Zm10.75,27.86c1.18,0,2.13.96,2.13,2.14s-.96,2.13-2.13,2.13-2.13-.96-2.13-2.13.96-2.14,2.13-2.14h0Zm0,.71c-.79,0-1.42.64-1.42,1.42s.64,1.42,1.42,1.42,1.42-.64,1.42-1.42-.64-1.42-1.42-1.42h0Zm0,.75c-.37,0-.68.3-.68.68s.3.68.68.68.68-.31.68-.68-.3-.68-.68-.68h0Zm-6.72-9.42c1.18,0,2.13.96,2.13,2.13s-.96,2.13-2.13,2.13-2.13-.96-2.13-2.13.96-2.13,2.13-2.13h0Zm0,.71c-.79,0-1.42.64-1.42,1.42s.64,1.42,1.42,1.42,1.42-.64,1.42-1.42-.64-1.42-1.42-1.42h0Zm0,.75c-.37,0-.68.3-.68.68s.3.68.68.68.68-.3.68-.68-.3-.68-.68-.68h0Zm3.07,2.82c-1.18,0-2.13.95-2.13,2.13s.96,2.13,2.13,2.13,2.13-.96,2.13-2.13-.96-2.13-2.13-2.13h0Zm0,.71c.79,0,1.42.64,1.42,1.42s-.64,1.42-1.42,1.42-1.42-.64-1.42-1.42.64-1.42,1.42-1.42h0Zm0,.74c.37,0,.68.3.68.68s-.3.68-.68.68-.68-.3-.68-.68.3-.68.68-.68h0Zm-7.16-21.56c1.18,0,2.13.96,2.13,2.13s-.96,2.13-2.13,2.13-2.14-.96-2.14-2.13.96-2.13,2.14-2.13h0Zm0,.71c-.79,0-1.42.64-1.42,1.42s.64,1.42,1.42,1.42,1.42-.64,1.42-1.42-.64-1.42-1.42-1.42h0Zm0,.75c-.38,0-.68.3-.68.68s.3.68.68.68.68-.3.68-.68-.3-.68-.68-.68h0Zm.5,3.96c1.18,0,2.13.96,2.13,2.13s-.96,2.13-2.13,2.13-2.13-.96-2.13-2.13.96-2.13,2.13-2.13h0Zm0,.71c-.79,0-1.42.64-1.42,1.42s.64,1.42,1.42,1.42,1.42-.64,1.42-1.42-.64-1.42-1.42-1.42h0Zm0,.75c-.37,0-.68.3-.68.68s.3.68.68.68.68-.3.68-.68-.3-.68-.68-.68h0Zm1.36,3.93c1.17,0,2.13.96,2.13,2.13s-.96,2.13-2.13,2.13-2.14-.96-2.14-2.13.96-2.13,2.14-2.13h0Zm0,.71c-.79,0-1.42.64-1.42,1.42s.64,1.42,1.42,1.42,1.42-.64,1.42-1.42-.64-1.42-1.42-1.42h0Zm0,.75c-.38,0-.68.3-.68.68s.3.68.68.68.68-.31.68-.68-.3-.68-.68-.68h0Zm12.77,14.44c-1.18,0-2.13.96-2.13,2.14s.96,2.13,2.13,2.13,2.13-.96,2.13-2.13-.96-2.14-2.13-2.14h0Zm0,.71c.78,0,1.42.64,1.42,1.42s-.64,1.42-1.42,1.42-1.42-.64-1.42-1.42.64-1.42,1.42-1.42h0Zm0,.75c.37,0,.68.3.68.68s-.3.68-.68.68-.68-.3-.68-.68.3-.68.68-.68h0Zm4.5,4.96c-1.11-.08-1.99-1-1.99-2.13,0-.89.55-1.65,1.32-1.97.05.24.09.48.13.72-.44.24-.74.71-.74,1.25,0,.7.51,1.28,1.18,1.4.03.24.07.48.1.73h0Zm-.22-1.56c-.05-.33-.1-.66-.16-.98-.09.11-.14.26-.14.42,0,.24.12.44.31.57h0Zm-22.53-38.79c-.34,1.16-1.05,4.04-1.09,8.03-.02,1.6.07,3.38.33,5.29.94,6.96,4.27,20.35,17.18,27.6,2,1.12,4.22,2.09,6.7,2.88-.05-.67-.12-1.33-.19-2-1.79-.64-5.03-2-8.36-4.35-2.35-1.65-4.74-3.79-6.71-6.52-4.03-5.57-6.22-12-6.87-19.01-.33-3.53-.26-7.2.16-10.99,0-.03,0-.06.01-.09,0-.03.01-.07.02-.09-.38-.32-.75-.64-1.11-.94-.03.07-.05.15-.06.19h0Zm6.57,5.93c-.25,3.04-.96,21.01,15.1,28.32-.1-.45-.2-.9-.31-1.34-.04-.18-.08-.36-.13-.54-3.69-2.06-13.85-9.24-13.5-25.18-.39-.43-.79-.85-1.17-1.26h0Zm3.95,4.66l.07-.05c.21.26.41.52.61.79l-.08.06c-.26.2-.62.19-.78-.03h0c-.16-.22-.08-.56.18-.76h0Zm.63,1.78l.53-.4c.35.48.7.97,1.04,1.46.2.29.39.58.58.86l-.45.34c-.74.56-1.73.51-2.2-.12h0c-.47-.62-.25-1.59.49-2.14h0Zm1.3,3.3l1.17-.88c.53.82,1.03,1.62,1.5,2.42l-.97.73c-.74.56-1.73.51-2.2-.12h0c-.47-.62-.25-1.59.49-2.14h0Zm1.31,3.35l1.68-1.27c.52.91,1.01,1.81,1.46,2.71l-1.31.99c-.74.56-1.75.47-2.26-.2h0c-.5-.67-.31-1.67.43-2.23h0Zm2.31,3.09l1.2-.9c.43.89.83,1.77,1.19,2.65l-.68.52c-.74.56-1.73.51-2.2-.12h0c-.47-.62-.25-1.59.49-2.14h0Zm2.43,2.75l.28-.22c.37.92.7,1.82,1,2.72-.71.25-1.41.13-1.78-.36h0c-.47-.62-.25-1.59.49-2.14h0Zm1.64,3.71c-.29.08-.56,0-.64-.2h0c-.08-.21.09-.47.38-.59.02,0,.03-.01.04-.02.09.27.17.54.26.8-.02,0-.03,0-.04.01h0Zm-11.73-20.64c0,3.54.7,17.65,12.49,23.08-.14-.54-.29-1.07-.46-1.61-2.25-1.04-4.45-3.1-5.88-5-2.02-2.68-3.94-7.27-4.43-10.6-.22-1.51-.33-3.06-.39-4.31-.44-.54-.89-1.05-1.33-1.56Z" style="fill: #ffe100; fill-rule: evenodd; stroke-width: 0px;"/>
          <path d="m111.26,157.28c.37-.65,1.06-1.09,1.86-1.09,1.18,0,2.13.96,2.13,2.13,0,.78-.42,1.46-1.04,1.83-.18-.17-.37-.34-.55-.51.52-.21.88-.72.88-1.32,0-.78-.64-1.42-1.42-1.42-.61,0-1.13.38-1.33.92-.18-.18-.35-.36-.53-.54h0Zm1.86,1.72c.38,0,.68-.3.68-.68s-.3-.68-.68-.68-.68.3-.68.68c0,.06,0,.11.02.16.05.05.1.1.15.15.12.12.24.24.36.35.05.01.1.02.15.02h0Zm-10.75-27.86c-1.18,0-2.13-.96-2.13-2.13s.96-2.13,2.13-2.13,2.13.96,2.13,2.13-.96,2.13-2.13,2.13h0Zm0-.71c.79,0,1.42-.64,1.42-1.42s-.64-1.42-1.42-1.42-1.42.64-1.42,1.42.64,1.42,1.42,1.42h0Zm0-.75c.38,0,.68-.3.68-.68s-.3-.68-.68-.68-.68.3-.68.68.3.68.68.68h0Zm6.72,9.42c-1.18,0-2.13-.96-2.13-2.13s.96-2.13,2.13-2.13,2.13.96,2.13,2.13-.96,2.13-2.13,2.13h0Zm0-.71c.79,0,1.42-.64,1.42-1.42s-.64-1.42-1.42-1.42-1.42.64-1.42,1.42.64,1.42,1.42,1.42h0Zm0-.75c.37,0,.68-.3.68-.68s-.3-.68-.68-.68-.68.3-.68.68.3.68.68.68h0Zm-3.07-2.82c1.18,0,2.13-.96,2.13-2.13s-.96-2.13-2.13-2.13-2.13.96-2.13,2.13.96,2.13,2.13,2.13h0Zm0-.71c-.79,0-1.42-.64-1.42-1.42s.64-1.42,1.42-1.42,1.42.64,1.42,1.42-.64,1.42-1.42,1.42h0Zm0-.75c-.38,0-.68-.3-.68-.68s.3-.68.68-.68.68.3.68.68-.3.68-.68.68h0Zm7.16,21.56c-1.18,0-2.13-.96-2.13-2.14s.96-2.13,2.13-2.13,2.13.96,2.13,2.13-.96,2.14-2.13,2.14h0Zm0-.71c.79,0,1.42-.64,1.42-1.43s-.64-1.42-1.42-1.42-1.42.64-1.42,1.42.64,1.43,1.42,1.43h0Zm0-.75c.37,0,.68-.3.68-.68s-.3-.68-.68-.68-.68.3-.68.68.3.68.68.68h0Zm-.51-3.96c-1.18,0-2.13-.96-2.13-2.13s.96-2.14,2.13-2.14,2.14.96,2.14,2.14-.96,2.13-2.14,2.13h0Zm0-.71c.79,0,1.42-.64,1.42-1.42s-.64-1.42-1.42-1.42-1.42.64-1.42,1.42.64,1.42,1.42,1.42h0Zm0-.75c.37,0,.68-.3.68-.68s-.3-.68-.68-.68-.68.3-.68.68.3.68.68.68h0Zm-1.35-3.93c-1.18,0-2.13-.96-2.13-2.13s.96-2.13,2.13-2.13,2.14.96,2.14,2.13-.96,2.13-2.14,2.13h0Zm0-.71c.79,0,1.42-.64,1.42-1.42s-.64-1.42-1.42-1.42-1.42.64-1.42,1.42.64,1.42,1.42,1.42h0Zm0-.75c.38,0,.68-.3.68-.68s-.3-.68-.68-.68-.68.3-.68.68.3.68.68.68h0Zm-12.77-14.44c1.18,0,2.13-.96,2.13-2.14s-.96-2.13-2.13-2.13-2.13.96-2.13,2.13.96,2.14,2.13,2.14h0Zm0-.71c-.78,0-1.42-.64-1.42-1.42s.64-1.42,1.42-1.42,1.42.64,1.42,1.42-.64,1.42-1.42,1.42h0Zm0-.75c-.37,0-.68-.3-.68-.68s.3-.68.68-.68.68.3.68.68-.3.68-.68.68h0Zm-4.5-4.96c1.11.08,1.99,1,1.99,2.13,0,.89-.55,1.65-1.32,1.97-.05-.24-.09-.48-.13-.72.44-.24.74-.71.74-1.25,0-.7-.51-1.28-1.18-1.4-.04-.24-.07-.48-.1-.73h0Zm.22,1.56c.05.33.11.66.16.98.09-.12.14-.26.14-.42,0-.24-.12-.44-.31-.57h0Zm22.54,38.79c.34-1.16,1.05-4.04,1.09-8.03.02-1.6-.07-3.37-.33-5.29-.94-6.96-4.27-20.35-17.18-27.6-2-1.12-4.22-2.09-6.7-2.88.05.67.12,1.33.19,2,1.79.64,5.03,2,8.36,4.35,2.35,1.65,4.74,3.79,6.71,6.52,4.03,5.57,6.22,12,6.87,19.01.33,3.53.26,7.2-.16,10.99,0,.03,0,.06,0,.09,0,.03-.01.07-.02.09.38.32.74.64,1.11.93.02-.07.05-.15.06-.19h0Zm-6.57-5.93c.24-3.04.96-21.01-15.11-28.33.1.45.2.9.31,1.35.04.18.08.36.13.54,3.69,2.06,13.85,9.24,13.49,25.18.39.43.79.86,1.18,1.26h0Zm-3.95-4.66l-.07.05c-.2-.26-.41-.52-.61-.78l.08-.06c.26-.2.62-.19.78.03h0c.16.22.08.56-.18.76h0Zm-.63-1.78l-.53.4c-.35-.48-.7-.97-1.04-1.47-.2-.29-.39-.57-.58-.86l.45-.34c.74-.56,1.73-.51,2.2.12h0c.47.62.25,1.59-.49,2.14h0Zm-1.3-3.3l-1.17.88c-.53-.82-1.03-1.62-1.5-2.42l.96-.72c.74-.56,1.73-.51,2.2.12h0c.47.62.25,1.59-.49,2.14h0Zm-1.31-3.35l-1.68,1.27c-.52-.91-1.01-1.81-1.46-2.7l1.31-.99c.74-.56,1.75-.47,2.26.2h0c.5.67.31,1.67-.43,2.23h0Zm-2.31-3.09l-1.2.9c-.43-.89-.83-1.77-1.19-2.65l.69-.52c.74-.56,1.73-.51,2.2.12h0c.47.62.25,1.59-.49,2.14h0Zm-2.43-2.75l-.28.22c-.37-.92-.7-1.82-1.01-2.72.71-.25,1.41-.13,1.78.36h0c.47.62.25,1.59-.49,2.14h0Zm-1.64-3.71c.29-.08.56,0,.64.21h0c.08.2-.09.46-.38.59-.02,0-.03.01-.04.02-.09-.27-.17-.54-.26-.8.02,0,.03,0,.04-.01h0Zm11.73,20.64c0-3.54-.7-17.65-12.48-23.08.14.54.29,1.07.45,1.61,2.25,1.04,4.45,3.1,5.88,5,2.02,2.68,3.93,7.27,4.43,10.6.22,1.51.33,3.06.39,4.31.44.54.89,1.05,1.33,1.56Z" style="fill: #ffe100; fill-rule: evenodd; stroke-width: 0px;"/>
        </g>
        <path d="m133.99,221.84H29.59V26.78h104.39v195.06h0Zm1.68,1.68V25.09H27.91v198.43h107.75Z" style="fill: #004ea2; fill-rule: evenodd; stroke-width: 0px;"/>
      </g>
      <g>
        <path d="m17.25,46.89c-.14,0-1.42,2.91-2.89,4.87-1.48,1.96-2.95,3.67-3.67,5.5-.72,1.83-.61,3.22.05,4.23.66,1.01,1.77,1.56,3.06,1.44,1.29-.12,2.08-1.15,2.38-2.47,0,0,.09-.5.28-.52.19-.03.36.16.15,1.75-.21,1.59-.68,3.33-1.69,4.26h4.85c-1-.93-1.45-2.67-1.66-4.26-.21-1.59-.04-1.77.14-1.75.18.03.28.52.28.52.29,1.32,1.07,2.35,2.33,2.47,1.26.12,2.36-.43,3-1.44.65-1.01.75-2.4.05-4.23-.71-1.84-2.15-3.54-3.6-5.5-1.45-1.96-2.92-4.87-3.06-4.87Z" style="fill: #231815; fill-rule: evenodd; stroke-width: 0px;"/>
        <path d="m14.64,13.47h10.89v3.12h-3.16v18.12c0,1.93-.73,3.69-1.91,4.98-1.21,1.32-2.89,2.14-4.75,2.14-.26,0-.47,0-.64-.02-4.27-.38-6.32-4.28-5.98-8.11l3.12.27c-.2,2.25.87,4.53,3.13,4.73.16.01.29.02.37.02.95,0,1.82-.43,2.46-1.13.67-.73,1.09-1.75,1.09-2.87v-18.12h-4.61v-3.12Z" style="fill: #231815; stroke-width: 0px;"/>
      </g>
      <g>
        <path d="m146.33,201.72c.14,0,1.41-2.91,2.89-4.87,1.48-1.96,2.95-3.67,3.67-5.5.72-1.83.61-3.22-.05-4.23-.66-1.01-1.77-1.56-3.06-1.44-1.29.12-2.08,1.15-2.38,2.47,0,0-.09.5-.28.52-.19.03-.36-.16-.15-1.75s.68-3.33,1.69-4.26h-4.86c1,.93,1.45,2.67,1.66,4.26.21,1.59.04,1.77-.15,1.75-.18-.03-.28-.52-.28-.52-.29-1.31-1.07-2.35-2.33-2.47-1.26-.12-2.36.43-3,1.44-.65,1.01-.75,2.4-.05,4.23.71,1.83,2.15,3.55,3.6,5.5,1.45,1.96,2.92,4.87,3.06,4.87Z" style="fill: #231815; fill-rule: evenodd; stroke-width: 0px;"/>
        <path d="m148.93,235.14h-10.89v-3.12h3.16v-18.13c0-1.93.73-3.69,1.91-4.98,1.21-1.32,2.89-2.14,4.75-2.14.26,0,.48,0,.64.02,4.27.38,6.32,4.28,5.98,8.11l-3.12-.27c.2-2.25-.87-4.53-3.13-4.73-.16-.01-.29-.02-.37-.02-.95,0-1.82.43-2.46,1.13-.67.73-1.09,1.75-1.09,2.87v18.13h4.61v3.12Z" style="fill: #231815; stroke-width: 0px;"/>
      </g>
    </g>
  </g>
</svg>