<?xml version="1.0" encoding="UTF-8"?>
<svg id="_图层_2" data-name="图层 2" xmlns="http://www.w3.org/2000/svg" viewBox="0 0 163.57 248.61">
  <g id="_图层_1-2" data-name="图层 1">
    <g>
      <path d="m162.57,242.01c0,3.08-2.51,5.6-5.57,5.6H6.57c-3.06,0-5.57-2.52-5.57-5.6V6.6C1,3.52,3.51,1,6.57,1h150.43c3.06,0,5.57,2.52,5.57,5.6v235.41Z" style="fill: #fff; fill-rule: evenodd; stroke: #231815; stroke-miterlimit: 22.93; stroke-width: 2px;"/>
      <g>
        <g>
          <path d="m45.6,31.98c-.26,0-2.65,5.45-5.42,9.12-2.77,3.67-5.53,6.88-6.88,10.31-1.35,3.44-1.14,6.04.09,7.93,1.23,1.89,3.32,2.92,5.73,2.69,2.41-.23,3.9-2.16,4.45-4.63,0,0,.18-.93.53-.98.35-.05.68.3.28,3.27-.4,2.97-1.27,6.24-3.17,7.98h9.1c-1.87-1.74-2.72-5.01-3.11-7.98-.39-2.97-.07-3.32.27-3.27.35.05.52.98.52.98.54,2.47,2,4.4,4.37,4.63,2.37.23,4.42-.8,5.63-2.69,1.21-1.89,1.41-4.49.09-7.93-1.33-3.44-4.03-6.64-6.75-10.31-2.72-3.67-5.47-9.12-5.73-9.12Z" style="fill: #231815; fill-rule: evenodd; stroke-width: 0px;"/>
          <path d="m117.97,216.63c.26,0,2.65-5.45,5.42-9.12,2.77-3.67,5.53-6.88,6.88-10.31,1.35-3.44,1.14-6.04-.09-7.93-1.23-1.89-3.32-2.92-5.74-2.69-2.41.23-3.9,2.16-4.45,4.63,0,0-.18.93-.53.98s-.68-.3-.28-3.27c.4-2.97,1.27-6.24,3.17-7.98h-9.1c1.87,1.74,2.72,5.01,3.11,7.98.39,2.97.07,3.32-.27,3.27s-.52-.98-.52-.98c-.54-2.47-2-4.4-4.37-4.63-2.37-.23-4.42.8-5.63,2.69-1.21,1.89-1.41,4.49-.09,7.93,1.33,3.44,4.03,6.64,6.75,10.31,2.72,3.67,5.47,9.12,5.73,9.12Z" style="fill: #231815; fill-rule: evenodd; stroke-width: 0px;"/>
        </g>
        <g>
          <path d="m29.59,159.09l3.63,3.1c-.79,1.32-.69,4.12-.24,8.37.5,4.83,2.2,16.76,2.35,17.82-.47-.42-1.08-.67-1.74-.67-1.53,0-2.77,1.36-2.77,3.02s1.24,3.02,2.77,3.02c.41,0,.81-.1,1.16-.28l-2.84,5.15,3.76,7.05,3.97-7.05-2.76-5.57c.5.51,1.16.83,1.9.83,1.53,0,2.77-1.36,2.77-3.02s-1.24-3.02-2.77-3.02c-.79,0-1.51.37-2.01.95.32-2.23,1.65-11.38,2.06-14.61.33-2.6.72-5.15.92-6.42l3.96,3.38c-.49,11.8,1.53,27.89,5.31,37.97v12.73h50.58c-.66-2.93-3.46-16.93.08-29.15l-.45-.76s-6.04-1.01-10.42-4.34c0,0,1.92-4.35,10.71-15.14,0,0,7.52-10.29,20.81-17.88,0,0,1.69,1.38,1.58,2.62l-.99.93-2-1.15-.45.43.7,3.58s-2.07.81-2.07,2.67,1.86,2.62,1.86,2.62c0,0-.9,3.56-1.62,4.2l.45.65s1.68-1.37,3.42-1.68c1.31,1.99,3.79,1.55,4.82,0,0,0,2.89,1.07,3.47,1.6l.62-.56s-.96-2.6-1.27-4.57c1.57-.96,1.56-3.49.09-4.54,0,0,.14-2.37.88-3.97l-.64-.46-2.87,1.24-1.1-.95s.89-3.53-2.15-5.32l2.86-2.17,8.09,4.96v-65.14l-3.63-3.1c.79-1.31.69-4.11.24-8.37-.5-4.83-2.2-16.75-2.35-17.82.47.42,1.08.67,1.74.67,1.52,0,2.77-1.36,2.77-3.02s-1.25-3.02-2.77-3.02c-.41,0-.81.1-1.16.28l2.83-5.15-3.76-7.05-3.97,7.05,2.76,5.57c-.5-.51-1.16-.83-1.9-.83-1.53,0-2.77,1.36-2.77,3.02s1.24,3.02,2.77,3.02c.79,0,1.51-.37,2.01-.95-.32,2.23-1.65,11.38-2.05,14.61-.33,2.6-.72,5.15-.92,6.42l-3.96-3.38c.49-11.8-1.53-27.89-5.32-37.97v-12.73h-50.58c.66,2.93,3.46,16.93-.08,29.15l.45.77s6.05,1.01,10.42,4.34c0,0-1.92,4.35-10.71,15.14,0,0-7.52,10.29-20.81,17.88,0,0-1.69-1.38-1.58-2.63l.99-.93,2,1.15.45-.43-.7-3.58s2.07-.81,2.07-2.67-1.86-2.62-1.86-2.62c0,0,.9-3.56,1.63-4.2l-.45-.64s-1.68,1.37-3.42,1.68c-1.31-1.99-3.79-1.55-4.82,0,0,0-2.89-1.07-3.47-1.6l-.62.56s.96,2.6,1.27,4.57c-1.57.96-1.56,3.49-.08,4.54,0,0-.14,2.37-.88,3.97l.64.46,2.87-1.24,1.1.95s-.88,3.53,2.15,5.32l-2.86,2.17-8.09-4.96v65.14Z" style="fill: #004ea2; fill-rule: evenodd; stroke-width: 0px;"/>
          <g>
            <path d="m108.52,117.78c2.3-.58,4.05-3.53,4.05-7.05,0-.87-.11-1.71-.31-2.49l6.5-30.73,4.86,4.24c.02.78.06,2.08.12,3.05.08,1.36,1.44,3.09,2.95,3.37-1.61.36-2.83,1.85-2.83,3.63,0,1.63,1.02,3.02,2.43,3.52v1.04s-2.13.58-1.87,3.72c.23,2.71,1.33,13.39,1.63,16.27l-9.8-7.38-5.79,8.81h-1.95Zm21.46-30.49l4.01,3.5v31.52l-4.44-3.34c.24-3.27,1.2-16.15,1.44-18.89.26-3.14-1.86-3.72-1.86-3.72v-1.29c1.12-.63,1.89-1.86,1.89-3.27,0-1.84-1.3-3.38-3-3.67.71-.12,1.34-.4,1.97-.83Z" style="fill: #e60012; fill-rule: evenodd; stroke-width: 0px;"/>
            <path d="m66.72,74.28s0,0,0,0l36.09,37.11c.2,3.23,1.88,5.84,4.03,6.39h-12.36l-16.55-17.38h-5.35c-.45-3.84-2.17-7.48-2.17-7.48-3.83-6.95-8.1-10.72-9.45-11.8,2-2.15,3.92-4.45,5.76-6.84Z" style="fill: #e60012; fill-rule: evenodd; stroke-width: 0px;"/>
            <path d="m107.68,117.89c2.7,0,4.89-3.22,4.89-7.16s-2.2-7.16-4.89-7.16-4.89,3.21-4.89,7.16,2.2,7.16,4.89,7.16Z" style="fill: #231815; fill-rule: evenodd; stroke-width: 0px;"/>
            <path d="m112.11,26.78c.36.53.93,1.21,1.73,1.68.01-.72.02-1.29.03-1.68h-1.76Zm1.61,8.08c-.01.51-.02,1.03-.03,1.56-6.45-2.66-7.58-7.96-7.78-9.64h1.02c.29,1.5,1.54,5.46,6.8,8.08h0Zm.05-2.31c-.01.53-.02,1.08-.03,1.65-4.55-1.87-6.01-5.93-6.41-7.42h1.09c.3,1.33,1.43,4.66,5.35,5.77h0Zm.03-1.57c0,.32-.01.65-.02.99-3.34-.95-4.45-3.91-4.78-5.19h.85c1.22,2.58,2.8,3.71,3.95,4.2h0Zm.04-1.9c0,.37-.01.77-.02,1.2-1.87-.73-2.85-2.44-3.31-3.5h1.03c.62,1.26,1.5,1.94,2.29,2.31h0Zm-8.28-2.31h-1.1c-.4,1.94-1.93,6.74-7.56,7.85-.19.41-.39.84-.59,1.27.77-.04,2.6-.28,4.5-1.66,2.35-1.71,4.4-4.8,4.76-7.46h0Zm-1.54,0c-.43,1.91-1.75,4.16-3.41,5.53-1.26,1.04-2.63,1.5-3.43,1.7.29-.62.56-1.21.81-1.77,3.56-1.5,4.51-4.34,4.76-5.46h1.27Zm-1.81,0c-1.01,3.19-3.01,4.4-3.91,4.8.39-.85.74-1.62,1.05-2.3,1.1-.87,1.63-1.87,1.88-2.5h.99Zm-5.4,19.17l-.34-.16c-.11-.07-.5-.45-.25-.71.25-.25.84,0,.91.3.07.29,0,.52-.32.57h0Zm4.67,9.35l.7-.74s.16-.19.12-.53c-.05-.35-.3-.51-.49-.51s-1.39.93-1.42,2c-.02,1.07.44,2.58,1.98,2.67,1.54.09,1.21-.42,2.23-.54,1.02-.12,1.37-.54,1.42-1.09.05-.56-.51-1.04-1.02-1.12-.51-.07-1.07.42-2.37,1.05-1.3.63-1.37-.88-1.14-1.19h0Zm.84,8.55l.11-.22s.76.04,1.09.4c.32.36,1.55.04,2.1-.14.54-.18,1.19-.51,1.45-.47.25.04.47.29.14.58-.33.29-.61.58-.61.58l.8.73s-.29-.04-.91-.25c-.61-.22-1.56-.15-2.32.33-.76.47-.87.51-1.34.62-.47.11-.54-.18-.4-.44.14-.25.69-.44,1.01-.54.33-.11-1.12-.76-1.12-1.16h0Zm-1.65-21.54l.35-.12s-.32-1.07-1.7-1.21c-1.39-.15-4.36,1.38-6.03,3.12,0,0-1.3,1.07-1.3,1.59s.4.61,1.21.43c.81-.17,1.7-.11,2.25.17.55.29,1.1.9,2.63.92,1.53.03,3.12,0,3.12,0,0,0-2.45,2.37-2.77,2.63-.32.26-.2.61.52.52.72-.09,1.53-1.04,2.34-1.93.81-.9,1.38-2.31,1.41-2.77.03-.46-.35-.43-.52-1.1-.17-.66-.03-1.3.81-2.05,0,0,.12-.32-.14-.32s-.61.26-1.13.55c-.52.29-.95.29-1.88.32-.92.03-.9,0-1.73.06-.84.06-1.04.06-1.82.52,0,0-.38.2-.38-.17s.78-1.13,1.88-1.33c1.1-.2,2.16,0,2.89.17h0Zm.43,2.78c.47-.02.5.14.5.46s-.32.55-.57.5c-.21-.04-.35-.79.07-.95h0Zm7.11-1.71l-.54.22s.32-1.63,2.33-1.6c1.86.03,3.14.57,3.53,1.59,0,.07,0,.14,0,.21-.28-.17-1.2-.68-2.18-.68-1.18,0-2.04-.19-3.13.25h0Zm-.34,2.17c-.06.35.29.63.52.58.23-.05.5-.57.3-.92-.24-.44-.77-.01-.82.34h0Zm1.33-.22l.16-.26s.83.9,1.25.83c.42-.06,1.18-1.05,1.18-1.05,0,0,.26.51-.13,1.12-.38.61-.64.64-1.12.64s-1.25-.54-1.34-1.28h0Zm-8.01,15.65l-.33-.22s-.47.11-.51.51c-.04.4.04,1.31-.22,1.6-.25.29-.04.62.36.55.4-.07.69-.26,1.34-.51.65-.26,1.41-.47,1.99,0,.58.47,1.38.4,1.81.33.43-.07,1.01-.51,1.34-.69.33-.18,1.19-.22,1.37-.04.18.18.54-.07.54-.44s-.18-1.67-.36-1.75c-.18-.07-.15.04-.87.25-.72.22-1.45-.04-1.45-.04,0,0-.58.47-.83.54-.25.07-1.01-.04-1.34-.4-.33-.36-1.16.51-1.74.51s-.9-.04-1.12-.22h0Zm11.85-15.97l-.29-.13s-.29.83-.22.99c.06.16.51-.1.51-.86h0Zm-8.7-3.62c-.35,0-.49-.38-1.1-.75-.61-.37-2.48-.66-5.08-.49-2.6.17-2.17.61-2.94.81-.78.2-1.24-.35-.23-1.18,1.01-.84,4.56-2.17,6.72-1.36,2.17.81,2.97,2.63,2.97,2.63l-.35.35h0Zm-6.27,3.34c.04.95.54,1.27,1.11,1.16.57-.11.91-.98,1-.7.09.27-.16,1.04-.54,1.11-.39.07-.98.23-1.52-.32-.54-.54-.57-1.29-.57-1.29l.52.04h0Zm7.86-15.84l-.14-.4s-2.73,7.47-9.84,8.18c-2.32,4.96-5.29,11.16-8.51,17.5.68,2.13,3.29,9.21,8.89,12.17,6.63,3.51,11.07,3.66,13.16-.29,2.1-3.95,3.02-7.07,3.41-9.56.16-1.03.35-4.54.51-8.29.02-.63.04-1.27.05-1.93-.5.83-1.67,1.07-2.66,1.04-1.07-.03-2.45-.33-2.45-.33.14.86,1.31,1.71,1.64,2.08.34.37.16.54.16.54-.66.06-1.61-.8-1.95-1.25-.34-.45-.4-.3-.4-.3-.06.72.1,2.49.59,3.93.5,1.44.58,2.58.53,3.29-.05.71-.73,1.46-1.37,1.83-.63.37-1.01.56-1.49,1.25-.48.69-.48.37-.48.37-.05-.69.28-1.58.88-2.24.61-.66,1.35-1.1,1.43-1.58.09-.48-.29-1.85-.29-1.85-.59-2.01-1.97-6.45-.66-10.31,1.32-3.87,3.68-4,4.69-4.04.66-.02,1.49.38,1.98.66.01-.75.03-1.49.05-2.22-.91-.39-6.1-2.82-7.76-8.26h0Zm4.41,12.41c1.78-.08,2.87.64,3.24.93,0-.23.01-.46.02-.69-.35-.84-1.33-1.16-2.33-1.23-1.28-.1-1.85,1.05-1.85,1.05l.93-.06Z" style="fill: #fff; fill-rule: evenodd; stroke-width: 0px;"/>
            <path d="m87.48,26.78h-22.36c.73,3.65,3.5,19.03,0,28.79,0,0,3.33.69,7.39,2.65l14.96-31.45Z" style="fill: #ffe100; fill-rule: evenodd; stroke-width: 0px;"/>
            <path d="m92.22,26.78c-1.66,4.42-7.35,18.86-16.06,33.48-.98-.63-1.95-1.18-2.9-1.66-.02-.01-.04-.02-.05-.03l15.12-31.79h3.89Z" style="fill: #e60012; fill-rule: evenodd; stroke-width: 0px;"/>
            <path d="m111.08,113.87l-4.54,1.35-39.81-40.94c14.01-18.17,23.3-41.65,25.5-47.51h8.24c-1.96,4.4-13.16,29.29-22.97,45.64l29.42,30.8,6.79-31.56,5.34,4.55-7.97,37.67Z" style="fill: #231815; fill-rule: evenodd; stroke-width: 0px;"/>
            <path d="m79.49,76.75l-.26-.05s.17,2.28.05,3.46c-.12,1.18-.63,1.58-1.32,2.05-.68.47-.4,2.24.47,2.38.87.14,1.96-.68,2.05-3.06.09-2.38-.19-4.36-.99-4.78h0Zm5.92,6.63l-.42-.28s.28,2.07.17,3.37c-.11,1.3-.37,1.47-.96,1.87-.6.4-.71,1.73.23,2.12.93.4,2.04-.42,2.12-2.38.08-1.95-.29-3.82-1.13-4.7h0Zm5.47,5.42l-.2-.29s.2,2.32.15,3.34c-.06,1.02-.26,1.41-1.11,1.73-.85.32-.7,2.08.41,2.32,1.11.23,2.16-1.05,1.87-3.52-.29-2.46-1.11-3.57-1.11-3.57h0Zm5.48,5.37l-.41-.25s.16,2.22.16,3.3-.32,1.54-.91,1.77c-.59.23-.98.85-.37,1.67.62.83,2.17.41,2.33-1.33.16-1.74.16-4.49-.8-5.16h0Zm4.89,5.75l-.56-.27s.56,1.23.56,2.32-.05,2.24-.91,3.09c-.85.85-.51,1.81.45,1.89.96.08,1.49-1.49,1.52-3.22.03-1.73-.08-3.03-1.06-3.81h0Zm14-24.48s-.07,1.01.24,1.5c.37.58,1.56.84,1.56-.2,0-.56-1.28-1.21-1.8-1.3h0Zm-1.85,5.95s.58,1.34.99,1.88c.41.54.55.86.55,1.21s-.29.65-.63.7c-1.16.16-1.48-3.14-.91-3.79h0Zm-1.5,6.31l.14-.14s.29,1.89.99,2.73c.7.84.64,1.09.36,1.29-.29.2-1.42-.22-1.69-1.54-.27-1.32.1-2.19.2-2.34h0Zm-1.62,7.29s.11,1.54.82,1.98c.71.44.92,1.31.35,1.59-1.43.71-1.96-2.64-1.17-3.57h0Zm-32.67-19.98c.89.38,1.32,2.45,1.25,3.34-.12,1.34-.88,1.84-1.42,1.59-.54-.25-.62-1.22-.35-1.51s.62-.63.67-1.24c.04-.61-.15-2.17-.15-2.17h0Zm5.71,5.85c.82.42,1.44,2.07,1.44,3.4s-.71,2.07-1.44,1.98c-.74-.08-1.05-1.22-.54-1.61.51-.4.71-.82.65-1.61-.06-.79-.45-2.26-.45-2.26l.34.11h0Zm5.93,6.04c.99.53,1.02,1.93,1.02,3.31s-.59,1.99-1.05,1.91-.73-.35-.52-1.06c.2-.7.52-.73.61-1.7.09-.97-.29-2.52-.29-2.52l.23.06h0Zm4.96,5.51c.85.7,1.15,1.66,1.25,2.84.12,1.35-.5,2.05-.96,2.08-.47.03-.99-1.09-.67-1.55.32-.47.47-.47.52-1.17.06-.7-.15-2.2-.15-2.2h0Zm5.33,5.23c.82.57,1,1.99,1,3.12s-.34,1.86-.93,1.83c-.59-.02-.82-1.05-.43-1.4.39-.34.32-.96.3-1.6-.02-.64-.23-2.02-.23-2.02l.3.07h0Zm8.1,6.42c2.33,0,4.23,2.92,4.23,6.49s-1.9,6.49-4.23,6.49-4.23-2.91-4.23-6.49,1.9-6.49,4.23-6.49h0Zm.04,1.69c-1.74,0-3.11,2.28-3.03,5.07.08,2.8,1.56,5.08,3.3,5.08s3.11-2.28,3.03-5.08c-.07-2.79-1.55-5.07-3.3-5.07h0Zm0,4.58c.49-.56.66-1.48.71-1.91.13-1.19-.63-1.67-.97-1.69-.34-.02-1.05.32-1.07,1.45-.02,1.12,1.32,2.15,1.32,2.15h0Zm1.59-.66c-.48,0-.88.39-.88.88s.39.88.88.88.88-.39.88-.88-.39-.88-.88-.88h0Zm-2.91.48c-.48,0-.88.39-.88.88s.39.88.88.88.88-.39.88-.88-.39-.88-.88-.88h0Zm1.59,1.12c-.48.56-.66,1.48-.71,1.91-.14,1.19.63,1.67.97,1.69.34.01,1.05-.33,1.07-1.45.02-1.12-1.32-2.15-1.32-2.15h0Zm5.93-33.44c-.38.19-.38,2.12-.06,3.45.31,1.34.96,2.58,1.77,2.55.81-.03,1.24-.53,1.28-1.03.03-.5-.06-1.09-.65-1.18-.59-.09-1-.19-1.43-1.09-.44-.9-.68-2.74-.68-2.74l-.22.03h0Zm-1.66,7.27c-.4,1.03.44,5.56,1.92,5.63.64.03,1.26-.4,1.23-.98-.03-.58-.5-1.27-.82-1.29-.32-.01-.87-.01-1.36-.69-.5-.68-.98-2.67-.98-2.67h0Zm-1.51,7.3c-.68,3.38,1.5,4.99,1.94,4.91.44-.08.96-.3.93-1.1-.03-.8-.52-.63-1.42-1.43-.9-.8-1.28-2.55-1.28-2.55l-.16.16h0Zm-1.73,7.67c-.16,1.49.18,3.78,1.05,4.47.87.69,1.92.32,2.12-.25.21-.57.16-1.21-.45-1.55-.61-.34-.88,0-1.56-.43-.68-.43-1.01-2.65-1.01-2.65l-.15.42h0Zm-32.61-26.16c.32,0,.77.7.85,1.72.09,1.02-.12,2.04-.81,2.46-.7.42-1.16-.37-1.1-.9.06-.54.68-.8.77-1.31.05-.29-.19-1.97.29-1.97h0Zm5.29,5.2l-.35-.12s.35,1.53.24,2.28c-.12.75-.19,1.15-.47,1.55-.28.4,0,1.41.61,1.34.61-.07,1.22-.47,1.08-1.93-.14-1.46-.31-2.4-1.11-3.13h0Zm5.13,5.7c1.21.26,1.77,2.02,1.87,3.37.08,1.16-.25,1.98-1.13,2.09-.88.11-.96-.79-.65-1.3.31-.51.45-.48.45-1.56s-.54-2.6-.54-2.6h0Zm5.74,5.5c1.05.62,1.25,1.7,1.28,3.08.03,1.38-.55,1.88-1.11,1.88s-.61-.85-.41-1.17c.21-.32.32-.7.32-1.67s-.5-2.17-.5-2.17l.41.06h0Zm5.31,5.57c.96.72,1.24,2.71,1.21,3.8-.02.82-.37,1.17-.93,1.15-.57-.02-.82-.39-.78-.78.05-.39.39-.6.46-1.1.07-.5.04-3.07.04-3.07h0Zm5.17,5.68h-.27s.4,1.46.35,2.34c-.05.88-.19,1.01-.37,1.46-.19.45.19.96.61.96s1.6-.85,1.12-2.42c-.48-1.57-.85-1.89-1.44-2.34h0Zm11.37-24.92l.16-.67s.2,1.19,1,1.63c.8.45,1.02.54,1.04,1.01.02.47-.29.87-.84.89-.56.02-1.54-.78-1.36-2.86h0Zm-1.71,7.22c0,2.83.87,3.29,1.33,3.26.46-.03.54-.37.44-.72-.09-.35-.6-.65-.96-1.16-.36-.51-.77-1.77-.77-1.77l-.03.38h0Zm-1.33,6.1c-.87.62-.12,3.6.95,3.59.77-.01.89-.72.84-.96-.05-.25-.42-.35-.95-.95-.53-.6-.84-1.67-.84-1.67h0Zm-1.89,7.74c-.25,2.49.72,3.47,1.4,3.54.68.07.97-.27.86-.88-.11-.61-.92-.86-1.4-1.41-.47-.54-.72-1.72-.72-1.72l-.13.48h0Zm-35.85-22.24c.15.34.49.77.86.71.37-.06.77-.43.86-.8.09-.37-.28-.77-.89-.68-.61.09-1.16.22-.83.77Z" style="fill: #ffe100; fill-rule: evenodd; stroke-width: 0px;"/>
            <path d="m86.7,55.61l1.65,9.18,1.1.26-1.11-7.06c-.47-.91-.92-1.9-1.34-2.97-.1.2-.2.39-.3.59h0Zm-1.38,2.67c.25-.48.5-.96.75-1.45l1.39,7.75-.99-.23-1.16-6.07h0Zm-1.79,3.39l.7,2.15,1.35.31-.89-4.66c-.39.74-.77,1.47-1.16,2.2h0Zm-.95,1.77l.7.16-.3-.91c-.13.25-.27.5-.4.74h0Zm7.75,1.81l.99.23-.58-3.65c-.42-.55-.83-1.15-1.24-1.8l.82,5.22h0Zm1.87.44l1.06.25-.23-1.46c-.39-.4-.81-.84-1.23-1.33l.4,2.54h0Zm1.94.45l1.07.25c-.34-.26-.74-.58-1.18-.97l.12.72Z" style="fill: #fff; fill-rule: evenodd; stroke-width: 0px;"/>
            <path d="m106.05,97.46l-20.01-20.55s14.05,2.49,23.71.67l-3.71,19.88h0Zm-13.8-17.39l-.3.55,12.95,13.2.49-.18,1.87-13.56h-15Zm14,.65h-1.89l-2.18,1.96-.17.15-.21-.09-4.69-2.02h-3.03l8.23,3.54,3.95-3.54h0Zm-2.94,0h-4.43l3,1.29,1.44-1.29h0Zm-9.98.44l2.5,2.58,6.91,2.97,3.58-3.22.33-2.19-4.04,3.63-.17.15-.2-.09-8.91-3.83h0Zm3.76,3.88l1.95,2.02,3.97,1.71,2.91-2.61.23-1.57-3.12,2.8-.17.15-.2-.09-5.58-2.4h0Zm3.22,3.32l1.63,1.69,1.7.73,1.84-1.65.28-1.89-2.45,2.2-.17.15-.2-.09-2.63-1.13h0Zm2.9,2.99l1.68,1.73.43-2.87-1.37,1.23-.17.15-.21-.09-.36-.15h0Zm2.14,6.15c.69.85,1.14,1.3,1.34.37.2-.93,3.4-19.1,3.56-19.87.15-.76-.15-.95-.57-.92-.42.04-3.09.38-9.91.5-6.82.11-14.33-1.59-14.68-1.67-.35-.07-.73.08-.38.53.35.46,2.29,2.37,2.29,2.37l18.34,18.69h0Zm7.58-22.23c-17.12,3.52-31.54-1.25-35.23-2.65l29.22,30.59,6.01-27.95Z" style="fill: #ffe100; fill-rule: evenodd; stroke-width: 0px;"/>
            <path d="m80.58,67.08c3.67,1.4,15.6,5.31,29.23,2.61l3.63,3.17-.39,1.8c-3.32.68-8.5,1.47-14.13,1.32-8.21-.21-16.35-1.81-21.15-4.04.93-1.55,1.87-3.18,2.8-4.86h0Zm.3-.53c2.7,1.08,14.49,5.28,28.39,2.66l-.91-.8c-3.52,2.63-9.04-.05-9.04-.05-8.36,0-15.87-2.7-17.59-3.37-.29.52-.57,1.03-.85,1.55Z" style="fill: #ffe100; fill-rule: evenodd; stroke-width: 0px;"/>
            <path d="m130.91,49.94l-3.15-5.68-3.03,5.45,2.8,6.18,3.38-5.95h0Zm-1.15.12l-2.11,3.26-1.8-3.46,2.04-3.11,1.88,3.3Z" style="fill: #ffe100; fill-rule: evenodd; stroke-width: 0px;"/>
            <polygon points="129.07 50.14 127.96 47.95 126.5 49.94 127.73 52.13 129.07 50.14" style="fill: #e60012; fill-rule: evenodd; stroke-width: 0px;"/>
            <path d="m124.87,55.5c1.13,0,2.05,1,2.05,2.23s-.92,2.23-2.05,2.23-2.05-1-2.05-2.23.92-2.23,2.05-2.23h0Zm5.13.15c1.13,0,2.05,1,2.05,2.23s-.92,2.23-2.05,2.23-2.05-1-2.05-2.23.92-2.23,2.05-2.23Z" style="fill: #ffe100; fill-rule: evenodd; stroke-width: 0px;"/>
            <path d="m128.11,68.38s1.01,10.33,1.1,11.94c.01.27.05.55.08.85.23,2.1.59,5.42-2.29,5.82-.21.03-.42.06-.47-.36-.05-.42.15-.44.36-.47,2.07-.29,1.76-3.11,1.57-4.9-.04-.35-.07-.67-.09-.89-.11-1.78-1.09-11.88-1.09-11.91-.02-.21-.04-.42.38-.46.42-.04.44.17.46.38h0Zm-.75-8.33s-2.56,18.9-3.03,22.26c-.47,3.36,1.01,5.25,2.55,5.25s3.3-.13,3.36-4.37c.07-4.17-2.36-20.09-2.89-23.14Z" style="fill: #ffe100; stroke-width: 0px;"/>
            <path d="m93.68,117.78h-2.2l-5.34-5.61-9.05-9.5h-4.41c.02-.41.02-.82,0-1.24,0-.12-.01-.23-.02-.35h5.13l15.9,16.7h0Zm-4.45,0l-3.84-4.07-8.17-8.65-.6-.64h-4.13c-.05.34-.11.68-.17,1-.06.31-.13.61-.21.91h3.93l9.71,9.89,1.53,1.56h1.96Zm-2.79,0l-5.12-5.11-5.55-5.54h-3.89c-.02.08-.05.16-.07.23-.09.26-.18.51-.29.76-.05.13-.11.26-.17.39h3.78l5.35,5.61,2.93,3.07.57.6h2.47Zm-4.66,0l-6.41-6.73-.77-.81h-4.2c-.15.23-.31.47-.47.7-.06.08-.11.16-.17.24h4l2.67,2.77,3.68,3.82h1.67Z" style="fill: #ffe100; fill-rule: evenodd; stroke-width: 0px;"/>
            <path d="m94.48,117.78h-.8l-15.9-16.7h-5.13c-.01-.17-.03-.34-.05-.51,0-.06-.01-.12-.02-.18h5.35l16.55,17.38h0Zm-3,0l-5.34-5.61-9.05-9.5h-4.41c-.01.23-.03.46-.05.68,0,.05-.01.11-.02.17-.04.31-.08.61-.12.9h4.13l.6.64,8.17,8.65,3.84,4.07h2.25Zm-4.21,0l-1.53-1.56-9.71-9.89h-3.93c-.07.27-.15.53-.23.79h3.89l5.55,5.54,5.12,5.11h.83Zm-3.3,0l-.57-.6-2.93-3.07-5.35-5.61h-3.78c-.15.34-.32.67-.5,1.01-.14.25-.28.49-.44.74h4.2l.77.81,6.41,6.73h2.19Z" style="fill: #231815; fill-rule: evenodd; stroke-width: 0px;"/>
            <path d="m67.88,81.43c.06.38-.15,1.16-1.2,1.25-1.05.09-2.59-.88-2.83-2.62-.23-1.75,1.17-3.44,2.94-3.7,1.78-.26,3.03,1.17,3.96,3.67.93,2.51.96,5.24,1.51,8.47.55,3.23,1.36,5.85,3.18,7.36,1.82,1.51,5.25.1,5.4-2.37.15-2.47-.76-3.73-2.22-3.98-1.46-.25-2.32.61-2.52,3.23,0,0-1.26-.3-1.16-1.92.1-1.61,1.26-2.62,1.26-2.62,0,0-3.53-1.66-3.98-3.78-.46-2.12.5-3.08,1.06-3.03.55.05.71.61.55,1.56-.15.96,0,2.12,1.76,3.13,1.77,1.01,3.83,1.46,5.25,2.98,1.41,1.51,1.46,3.63.15,7.06,0,0,2.42-.12,4.46,0,0,0,4.23.69,4.73,3.46.51,2.77.35,6.49.51,8.49.16,2,.99,3.86,3.05,4.25,2.05.39,3.41-1,3.76-2.34.35-1.34-.8-3.04-1.71-3.06-.91-.02-1.49.28-2.14,1.39,0,0-.28-.46-.15-1.26.13-.8,1.23-1.58,2.53-1.39,1.29.19,3.68,1.82,2.27,5.64,0,0,2.21-.1,3.24.49,1.04.59,1.55,1.42,1.42,3.12-.14,1.7-1.55,2.5-2.45,2.53-.9.04-1.59-.66-1.76-1.49-.17-.83.72-.76.96-.24.24.52.97.87,1.66.35.69-.52.79-2.01,0-2.67-.79-.66-2.04-.83-3.28-.59-1.24.24-1.76.87-2.97,1.01-1.21.14-6.46.43-6.43-8.38,0,0-1.53,1.18-2.84,1-1.31-.18-2.76-1.45-2.79-3.47-.03-2.02,1.75-2.82,2.05-2.82s.48.42.41.62c-.06.21-1.19.86-1.1,2.44.09,1.57,1.1,1.99,2.11,1.93,1.01-.06,2.41-1.07,2.5-2.79.09-1.72-.5-3.22-2.22-4.26-1.71-1.04-4.51-.74-7.5-.34-2.99.4-5.74-.2-7.69-6.06-1.95-5.86-1.5-10.17-2.05-11.8-.55-1.63-1.63-2.27-2.48-2.24-.84.03-1.52.64-1.78,1.78-.54,2.33,2.42,1.28,2.54,2.04h0Zm.25,2.59c-.54,0-.98.44-.98.98s.44.98.98.98.98-.44.98-.98-.44-.98-.98-.98h0Zm13.01,14.7c-.53,0-.96.43-.96.96s.43.96.96.96.96-.43.96-.96-.43-.96-.96-.96h0Zm2.66-6.46c-.53,0-.96.43-.96.96s.43.96.96.96.96-.43.96-.96-.43-.96-.96-.96h0Zm9.52,10.31c-.53,0-.96.43-.96.96s.43.96.96.96.96-.43.96-.96-.43-.96-.96-.96Z" style="fill: #fff; fill-rule: evenodd; stroke-width: 0px;"/>
            <path d="m122.24,80.54c-.52.35-1.75,1.31-2.98,3.21-1.62,2.5-1.63,5.39-.94,8.05.68,2.66,1.13,4.52.24,5.21-.89.69-1.37.08-1.74.32-.36.24-.04,1.57.97,1.57s1.98-1.29,1.98-2.1c0,0,.63,3.13.51,5.11-.12,1.98-1.08,3.06-2.46,3.33-1.38.27-1.86-1.29-1.59-1.98.27-.69.57-1.08.6-1.26.03-.18-.15-.54-.84-.45-.69.09-1.29,1.02-1.08,2.91.21,1.89,1.86,2.37,2.79,2.34s1.38-.54,1.38-.54c0,0,.09.09.06.69-.03.6-.12,1.51.57,2.54.69,1.04,2.35.97,2.79.41.44-.56-1.76-.88-1.69-2.23.06-1.35.19-2.64.85-5.05.66-2.42-.28-5.85-1.71-10.4,0,0,1.85.16,2.64-.43.79-.59,1.27-2.26.03-2.32,0,0-.17,1.08-1.36,1.3-1.19.23-1.73-.71-1.87-2.77-.14-2.02,1.38-5.08,4.04-6.41l-1.19-1.04Z" style="fill: #fff; fill-rule: evenodd; stroke-width: 0px;"/>
            <g>
              <path d="m127.43,94.82c1.53,0,2.77-1.38,2.77-3.06s-1.25-3.07-2.77-3.07-2.77,1.38-2.77,3.07,1.25,3.06,2.77,3.06Z" style="fill: #ffe100; fill-rule: evenodd; stroke-width: 0px;"/>
              <path d="m128.04,89.39l-.41-.15c1.76,1.25.77,3.33-1.17,4.33,0,0,.88.26,1.65.11.77-.15,1.54-1.36,1.54-2.17s-.44-1.47-1.61-2.13Z" style="fill: #094; fill-rule: evenodd; stroke-width: 0px;"/>
            </g>
            <g>
              <path d="m126.77,116.89c-.29-3.23-1.18-13.05-1.4-15.15-.26-2.52-.3-5.03,2.4-5.14,0,0,2.54.11,2.54,2.21,0,1.86-.98,16.57-1.2,19.84l-2.34-1.76Z" style="fill: #ffe100; fill-rule: evenodd; stroke-width: 0px;"/>
              <path d="m127.9,117.74c.09-1.72.42-7.96.69-11.32.31-3.92.49-7.93-.49-8.6,0,0-.43-.45-.16-.65.27-.2,1.4.09,1.59,1.29.19,1.19-.76,10.68-.72,11.7.04.87-.34,6.29-.46,7.91l-.46-.34Z" style="fill: #094; fill-rule: evenodd; stroke-width: 0px;"/>
            </g>
            <path d="m58.6,83.55c.75.66,2.96,2.65,5.11,5.24,2.65,3.18,4.36,5,5.73,9.43,1.37,4.43.11,9-1.63,11.56-1.74,2.56-4.77,4.82-6.56,6.36-1.79,1.54-5.54,6.07-8.27,10.23-2.74,4.16-6.24,9.43-6.24,9.43l-14.77-11.61-2.41,1.25,17.64,13.57c3.35-5,8.05-12.41,10.62-15.68,2.28-2.9,4.4-5.5,7.43-7.92,2.11-1.89,3.25-3.33,3.25-3.33,3.44-4.11,3.69-8.66,3.44-11.37-.25-2.71-1.16-6.91-4.16-11.2-2.64-3.77-6.3-7.23-7.15-8.02-.66.7-1.33,1.39-2,2.06Z" style="fill: #ffe100; fill-rule: evenodd; stroke-width: 0px;"/>
            <path d="m60.43,108.37l3.75-1.9s.72-.42.93-.42.49.39.21,1.35c-.28.96-2.12,5.66-2.46,5.74-.34.08-1.06-1.58-1.06-1.58,0,0-.62.62-1.14.7-.52.08-.78-.81.08-1.61,0,0,.21-.47-.41-.47s-1.55-.1-1.55-.49.03-.57,1.65-1.33h0Zm-5,6.36c.29,0,.53.26.52.55-.01.29-.26.53-.55.52-.29,0-.53-.26-.52-.55,0-.29.26-.53.55-.52h0Zm2.06,2.35c.29,0,.52.25.52.55,0,.29-.25.53-.55.52-.29,0-.52-.26-.52-.55,0-.29.26-.52.55-.51h0Zm-3.8-.16c-1.73.71-3.16,1.31-3.18,1.73-.01.42.78.63,1.43.66.65.02.52.51.39.81-.12.3-.22.91.12,1.15.34.24.93-.43,1.27-.42.34.01.6,1.54.87,1.51.27-.03.51-.44.66-1.62.15-1.18,1.64-3.6,1.89-4.28.25-.68.26-.87-.2-.84-.46.02-1.69.59-1.69.59l-1.55.71h0Zm14.06-20.12c.29,0,.53.24.53.53s-.24.53-.53.53-.53-.24-.53-.53.24-.53.53-.53h0Zm-20.15,27.82c.3,0,.55.23.56.52,0,.3-.23.55-.52.56-.3,0-.55-.22-.56-.52-.01-.3.22-.55.52-.56h0Zm2.24,2.25c.3,0,.55.22.56.52,0,.3-.22.55-.52.56-.3.01-.55-.22-.56-.52-.01-.3.22-.55.52-.56h0Zm-3.87.09c-1.71.83-3.12,1.54-3.11,1.96.01.43.83.59,1.49.57.66-.02.56.48.45.8-.11.31-.16.93.19,1.15.36.22.91-.5,1.26-.51.35-.01.71,1.52.98,1.48.27-.05.49-.48.56-1.68.07-1.2,1.42-3.76,1.63-4.47.21-.7.2-.9-.26-.84-.46.05-1.68.71-1.68.71l-1.52.82h0Zm14.34-26.6c.29,0,.53.24.53.53s-.24.53-.53.53-.53-.24-.53-.53.24-.53.53-.53h0Zm-10.54,6.15l.21.09s1.81,1.27,3.43,1.38c1.63.11,2.1-.47,2.1-1.12s-.54-2.17-3-3.36c-2.46-1.19-5.71-1.35-6.66-1.13,0,0-1.65,1.4-2.37,5.87-.71,4.47.15,8.6.15,8.6,0,0,5.45.19,6.8.19,0,0,1.39,0,1.54-.86.16-.87-.2-1.34-1.02-1.52-.82-.18-2.98-.55-3.65-.85-.67-.3-.06-.91.43-.69.49.22,2.51.79,3.95.93,1.43.14,2.47-.3,2.53-1.66,0,0-2.81-.33-4.3-.71-1.49-.38-1.39-.73-1.39-.97s.31-.34,1.1-.02c.79.32,2.73.83,3.73.85,1,.02,2.02-.16,2.06-1.52.04-1.36-.72-1.34-1.6-1.37-.87-.02-3.21-.36-4.54-1.49,0,0-.23-.28.02-.58.26-.3.47-.06.47-.06h0Zm15.83-11.8c.29,0,.53.24.53.53s-.24.53-.53.53-.53-.24-.53-.53.24-.53.53-.53h0Zm-2.06,10.69c-.29,0-.53.24-.53.53s.24.53.53.53.53-.24.53-.53-.24-.53-.53-.53h0Zm-6.17.29c-.13.83-.41,1.61.05,1.61s1.14-.52,1.14-.52c.7,1.17.93,1.53,1.27.52.34-1.01,1.94-4.47,2.17-5.25.23-.78-.13-.88-.36-.8-.23.08-1.73.83-3.26,1.61-1.53.78-2.61,1.14-2.61,1.74s1.71.6,1.71.6l-.1.49h0Zm-14.99,13.94c.3,0,.54.24.54.54s-.24.54-.54.54-.54-.24-.54-.54.24-.54.54-.54h0Zm2.17,2.32c.3,0,.54.24.54.54s-.24.54-.54.54-.54-.24-.54-.54.24-.54.54-.54h0Zm-3.87-.04l1.55-.77s1.24-.62,1.7-.66c.46-.04.46.16.23.85-.23.7-1.66,3.21-1.78,4.41s-.35,1.62-.62,1.66c-.27.04-.58-1.51-.93-1.51s-.93.7-1.28.47c-.35-.23-.27-.85-.16-1.16.12-.31.23-.81-.42-.81s-1.47-.19-1.47-.62,1.43-1.08,3.17-1.86h0Zm13.7-18.27c.72.84,1.54,1.54,1.89,2.89.25.97-.72,1.84-.72,1.84,0,0,.54.69.51,1.84-.04,1.16-1.26,1.95-1.26,1.95.79,2.28-2.3,2.55-2.3,2.55.64,3.2-1.65,3.09-4.04,3.09s-4.9-.27-4.9-.27c-.27,1.38-2.93.96-2.93.96l-8.15,5.38,14.22,11.02s5.39-8.36,7.41-11.15c2.03-2.79,4.75-6.24,6.39-7.8,1.64-1.57,2.97-2.14,5.94-5.35,2.97-3.21,3.26-7.11,2.67-10.81-.59-3.71-3.51-7.75-3.51-7.75l-11.21,11.61h0Zm11.43,4c-.29,0-.53.24-.53.53s.24.53.53.53.53-.24.53-.53-.24-.53-.53-.53h0Zm-2.54-8.47s-.53.76-.67,1.19c-.14.43.06.88.45.62s.59-.62.96-.45c.36.17.31,1.47.9,1.27.59-.2,2.19-4.89,2.36-5.46.17-.57.08-.93-.31-.91s-3.6,1.81-4.3,2.15c-.7.34-1.32.65-.93,1.05.39.4,1.49.31,1.49.31l.06.23h0Zm-1.02,3.71c.29,0,.53.24.53.53s-.24.53-.53.53-.53-.24-.53-.53.24-.53.53-.53Z" style="fill: #fff; fill-rule: evenodd; stroke-width: 0px;"/>
            <path d="m51.97,90.12s-1.19,7-.84,12.23c.15.04.3.09.46.14.84-.85,2.71-3,3.07-5.83.29-2.27-.19-5.61-2.68-6.54h0Zm-1.3,12.1c-.28-.86-.97-2.48-2.56-4.29-2.29-2.61-5.84-2.01-7.06-6.08-.72.29-1.41.25-2.21,0,.02.92.25,3.54,2.02,4.43,2.05,1.02,5.36,1.33,7.75,5.51.6.08,1.28.21,2.06.42h0Zm-9.39-5.16c3,.6,6.21,3.52,6.91,4.69-1.67-.17-2.61.1-3.04.29-4.39-1.98-3.87-4.97-3.87-4.97Z" style="fill: #ffe100; fill-rule: evenodd; stroke-width: 0px;"/>
            <path d="m43.92,87.71h-1.62s.53.59.43,2.28l1.41.63-.22-2.91h0Zm-6.22-.1l-2.3.13-.49,2.77,2.2-.76c.03-.72.19-1.55.59-2.15h0Zm-.32-7.78l-2.74-1.14.81,3.56h2.08s-.64-1.93-.14-2.42h0Zm6.65,2.3l-1.61.23s.39-.93.25-2.44l2.08-1.02-.72,3.23Z" style="fill: #e60012; fill-rule: evenodd; stroke-width: 0px;"/>
            <path d="m36.46,82.8h1.06v1.79h-.98c-.19,0-.35.16-.35.35h0c0,.2.16.35.35.35h.98v1.88h-1.06c-1.2,0-2.19-.98-2.19-2.19h0c0-1.2.98-2.19,2.19-2.19h0Zm5.82,0h1.33c1.2,0,2.19.98,2.19,2.19h0c0,1.2-.98,2.19-2.19,2.19h-1.33v-1.88h.65c.19,0,.35-.16.35-.35h0c0-.19-.16-.35-.35-.35h-.65v-1.79h0Zm-1.4,4.45c.76.34,1.29,1.11,1.29,2,0,1.21-.98,2.19-2.19,2.19s-2.19-.98-2.19-2.19c0-.81.44-1.51,1.09-1.89.16-.09.19-.11.36,0,.14.09.28.26.38.55v.9h.71v-1.29c.06-.09.15-.19.25-.26.13-.09.15-.06.29,0h0Zm-.9-8.78c1.21,0,2.19.98,2.19,2.19,0,.9-.54,1.67-1.32,2.01-.14.06-.16.04-.28-.06-.09-.07-.17-.15-.23-.26v-1.38h-.71v.96c-.05.21-.14.44-.29.61-.18.2-.21.15-.43.03-.66-.38-1.11-1.09-1.11-1.91,0-1.2.98-2.19,2.19-2.19h0Zm-.08,4.31l1.09,1.09,1.09,1.09-1.09,1.09-1.09,1.09-1.09-1.09-1.09-1.09,1.09-1.09,1.09-1.09Z" style="fill: #ffe100; fill-rule: evenodd; stroke-width: 0px;"/>
            <path d="m42.88,107.87l-.08.35s-.23,1.69-.06,4.51c.17,2.82.17,3.17.26,4,.09.83-.35,1-.78,1.17s-1,.13-1.13-.56c-.13-.7-.43-4.39-.43-6.6s.78-5.3,1.36-6.76c.58-1.45,1.14-2.1,1.84-2.04.7.06,1.03.45.61,1.26-.42.81-1.17,2.27-1.58,4.67Z" style="fill: #ffe100; fill-rule: evenodd; stroke-width: 0px;"/>
            <path d="m35.01,97.91c.52,1.39,1.76,4.53,3.23,6.95l-3.09,3.26s-.63.23,2.74,4.4c0,0-2.08,3.5-2.67,8.99.97-.63,1.89-1.25,2.68-1.79.02-.9.13-2.29.62-3.54.8-2.06,1.15-2.84,1.3-3.64.16-.81-.05-1.54-.78-2.37-.72-.83-1.24-2.03-1.24-2.03,0,0,1.58-.84,2.8-1.36.16-.77.34-1.43.52-1.99-.58-.65-2.09-2.5-2.67-4.85l-3.45-2.02Z" style="fill: #231815; fill-rule: evenodd; stroke-width: 0px;"/>
            <path d="m41.12,104.78c.59-1.81,1.21-2.59,1.21-2.59l-3.88-2.27c.58,2.35,2.08,4.2,2.67,4.85h0Zm-3.22,14.93c1.52-1.04,2.55-1.79,2.55-1.79-.64-5.02-.36-8.66.15-11.16-1.22.52-2.8,1.36-2.8,1.36,0,0,.52,1.2,1.24,2.03.72.83.93,1.56.78,2.37-.16.81-.5,1.58-1.3,3.64-.49,1.25-.6,2.64-.62,3.54h0Zm-8.31-24.97l5.42,3.17c.52,1.39,1.76,4.53,3.23,6.95l-3.09,3.26s-.63.23,2.74,4.4c0,0-2.08,3.5-2.67,8.99-1.76,1.14-3.69,2.31-5.33,3.13l5.36-10.81.1-.2-.14-.17-3.64-4.5,3.27-4.18.14-.18-.11-.2-5.27-9.28v-.36Z" style="fill: #ffe100; fill-rule: evenodd; stroke-width: 0px;"/>
            <polygon points="29.59 96.51 34.14 104.52 30.84 108.73 30.67 108.95 30.84 109.16 34.51 113.7 29.59 123.63 29.59 96.51" style="fill: #e60012; fill-rule: evenodd; stroke-width: 0px;"/>
            <g>
              <path d="m62.24,118.82h29.01s18.46,0,18.46,0c-4.22,6.42-7.2,9.75-8.37,10.97h-29.01s-18.46,0-18.46,0c4.22-6.42,7.2-9.75,8.37-10.97Z" style="fill: #fff; fill-rule: evenodd; stroke-width: 0px;"/>
              <path d="m108.42,120.74c-2.24,3.27-4.06,5.59-5.36,7.12h-47.9c2.24-3.27,4.06-5.59,5.36-7.12h47.9Z" style="fill: #231815; fill-rule: evenodd; stroke-width: 0px;"/>
            </g>
            <path d="m73.05,47.1c-.59.2-.94-.86-1-1.3-.11-.74.82-1.38,1.31-1.39.49-.02.61.99.61,1.36s.12,1.02-.93,1.34h0Zm12.82-20.33h-.75c-.21,1.7-.68,2.87-1.57,3.54-1.02.77-1.77.82-1.77.82l-.09-1.09c1.12-.02,1.85-1.34,2.07-2.39.07-.36.11-.65.11-.88h-3.72s0,.06,0,.09c.06.63.04,1.19-.2,1.15-.18-.03-.79-.87-1.47-1.24h-1.21c-.77.38-1.55,1.35-1.5,2.66.06,1.64,1.78,2.52,1.78,2.52-.62.16-1.71,1.66-1.06,3.15.65,1.5,2.09,1.55,2.55,1.47.46-.08,1.2-.35,1.33-1.52.14-1.17.14-2.39.14-2.39l.49-.3c.46.49,1.17,3.24.03,4.21-1.14.98-1.96,1.06-2.96,1.22-1,.16-1.42.58-1.45,1.01-.03.43.27.52.82,1,.54.49.85,1.82,0,3.92-.85,2.1-2.57,2.56-2.82,2.53-.24-.03-.18-1.61-.18-1.61,1.06,0,2.36-1.09,2.36-2.4s-.97-2.52-2.66-2.28c-1.7.24-1.39,1.64-1.45,2.68-.06,1.04-.33,1.1-.73.55-.39-.55-1.03-1.46-1.97-1.46s-1.97.88-1.97,2.68,1.66,1.95,2.21,1.95.42.24.42.24c-.39.18-1.76,1.43-1.67,2.92.09,1.49,1.42,1.92,2.48,1.77,1.06-.15,1.69-.97,1.79-1.64.09-.67-.09-2.04-.09-2.04l.49-.27c.36.12.67,1.44.61,2.88-.06,1.44-1.63,2.21-2.4,2.3-.77.1-2.17.03-2.17.03l-.35.99c.48.45.89,1.18,1.02,2.17.08.62.1,1.23.1,1.61.15.06.3.13.46.19.08-.51.2-1.43.2-1.98,0-.78-1.13-2.08-1.13-2.08l.09-.39s3.21.43,4.39-1.56c.59-1.05.39-2.8.18-3.79-.18-.86-.16-.89-.16-.89,3.8-.76,4.23-4.42,4.08-5.82-.15-1.39-1.24-1.81-1.27-2.12-.03-.3.21-.3.21-.3,0,0,1.66.18,3.48-1.09,1.81-1.27,1.2-3.66,1-4.33-.2-.67-.59-1.05-.23-1.32.36-.27.77-.25,1.4-.54.63-.29,1.11-.81,1.11-.81.93-1,1.38-2.78,1.56-3.71h0Zm-4.77,3.73c.14.76.18,1.47-.92,1.82,0,0-.3-.07-.69-.57-1.11-1.44,1.35-2.66,1.61-1.24Z" style="fill: #231815; fill-rule: evenodd; stroke-width: 0px;"/>
          </g>
          <g>
            <path d="m55.06,130.83c-2.3.58-4.05,3.53-4.05,7.05,0,.87.11,1.71.31,2.49l-6.5,30.73-4.86-4.24c-.02-.78-.06-2.08-.12-3.05-.08-1.36-1.44-3.09-2.94-3.37,1.61-.36,2.83-1.85,2.83-3.63,0-1.63-1.02-3.02-2.43-3.52v-1.04s2.13-.58,1.86-3.73c-.23-2.71-1.33-13.39-1.63-16.27l9.8,7.38,5.79-8.81h1.95Zm-21.46,30.48l-4.01-3.5v-31.52l4.44,3.34c-.24,3.27-1.2,16.15-1.43,18.89-.27,3.14,1.86,3.73,1.86,3.73v1.29c-1.12.63-1.89,1.86-1.89,3.27,0,1.84,1.3,3.38,3,3.67-.71.12-1.34.4-1.97.83Z" style="fill: #e60012; fill-rule: evenodd; stroke-width: 0px;"/>
            <path d="m96.85,174.33s0,0,0,0l-36.09-37.11c-.2-3.23-1.88-5.84-4.03-6.39h12.36l16.55,17.38h5.34c.45,3.84,2.17,7.48,2.17,7.48,3.83,6.95,8.1,10.72,9.45,11.8-2,2.15-3.92,4.45-5.76,6.84Z" style="fill: #e60012; fill-rule: evenodd; stroke-width: 0px;"/>
            <ellipse cx="55.89" cy="137.88" rx="4.89" ry="7.16" style="fill: #231815; stroke-width: 0px;"/>
            <path d="m51.46,221.84c-.36-.53-.93-1.2-1.73-1.68-.01.72-.02,1.29-.03,1.68h1.76Zm-1.61-8.08c0-.51.02-1.03.03-1.56,6.45,2.66,7.58,7.96,7.78,9.64h-1.02c-.29-1.5-1.54-5.46-6.8-8.08h0Zm-.05,2.31c0-.53.02-1.08.03-1.65,4.55,1.87,6.01,5.93,6.41,7.42h-1.09c-.3-1.33-1.43-4.66-5.35-5.77h0Zm-.03,1.57c0-.32.01-.65.02-.99,3.34.95,4.45,3.91,4.78,5.19h-.85c-1.22-2.58-2.81-3.71-3.95-4.2h0Zm-.04,1.9c0-.37.01-.77.02-1.2,1.87.73,2.85,2.44,3.3,3.5h-1.03c-.62-1.26-1.5-1.94-2.29-2.31h0Zm8.28,2.31h1.1c.4-1.94,1.93-6.74,7.56-7.85.19-.41.39-.84.59-1.27-.77.04-2.6.28-4.5,1.66-2.35,1.71-4.4,4.8-4.76,7.46h0Zm1.54,0c.43-1.91,1.75-4.16,3.41-5.53,1.26-1.04,2.63-1.5,3.43-1.7-.29.62-.56,1.21-.81,1.76-3.56,1.51-4.51,4.34-4.76,5.46h-1.27Zm1.81,0c1.01-3.19,3.01-4.4,3.91-4.8-.39.85-.74,1.62-1.04,2.3-1.1.87-1.63,1.87-1.88,2.5h-.99Zm5.4-19.17l.34.16c.11.07.5.45.25.7-.25.25-.84,0-.91-.3-.07-.29,0-.52.32-.57h0Zm-4.67-9.35l-.7.74s-.16.19-.11.53c.05.35.3.51.49.51s1.4-.93,1.42-2c.02-1.07-.44-2.58-1.98-2.67-1.53-.09-1.21.42-2.23.54-1.02.12-1.37.54-1.42,1.09-.05.56.51,1.04,1.02,1.12.51.07,1.07-.42,2.37-1.05,1.3-.63,1.37.88,1.14,1.19h0Zm-.84-8.55l-.11.22s-.76-.04-1.09-.4c-.33-.36-1.56-.04-2.1.14-.54.18-1.19.51-1.45.47-.25-.04-.47-.29-.14-.58.32-.29.62-.58.62-.58l-.8-.73s.29.04.9.25c.62.22,1.56.15,2.31-.33.76-.47.87-.51,1.34-.62.47-.11.54.18.4.44-.15.25-.69.44-1.01.54-.33.11,1.12.76,1.12,1.17h0Zm1.65,21.54l-.35.11s.32,1.07,1.7,1.21c1.38.15,4.36-1.38,6.03-3.12,0,0,1.3-1.07,1.3-1.59s-.4-.61-1.21-.43c-.81.17-1.7.12-2.25-.17-.55-.29-1.1-.9-2.63-.92-1.53-.03-3.12,0-3.12,0,0,0,2.45-2.37,2.77-2.63.32-.26.2-.61-.52-.52-.72.09-1.53,1.04-2.34,1.93-.81.9-1.39,2.31-1.41,2.77-.03.46.35.43.52,1.1.17.66.03,1.3-.81,2.05,0,0-.12.32.15.32s.6-.26,1.13-.55c.52-.29.95-.29,1.88-.32.92-.03.89,0,1.73-.06.84-.06,1.04-.06,1.82-.52,0,0,.38-.2.38.17s-.78,1.12-1.88,1.33c-1.1.2-2.17,0-2.89-.17h0Zm-.43-2.78c-.48.02-.5-.14-.5-.45s.32-.55.57-.5c.2.04.35.79-.07.95h0Zm-7.12,1.71l.54-.22s-.32,1.63-2.33,1.6c-1.86-.03-3.14-.57-3.53-1.59,0-.07,0-.14,0-.21.28.17,1.2.68,2.18.68,1.18,0,2.04.19,3.13-.25h0Zm.35-2.17c.06-.35-.29-.63-.52-.58-.23.05-.5.57-.3.92.25.44.77.01.82-.34h0Zm-1.34.22l-.16.26s-.83-.89-1.25-.83c-.42.06-1.18,1.05-1.18,1.05,0,0-.25-.51.13-1.12.39-.61.64-.64,1.12-.64s1.25.54,1.34,1.28h0Zm8.01-15.65l.33.22s.47-.11.51-.51c.04-.4-.04-1.31.22-1.6.25-.29.04-.62-.36-.55-.4.07-.69.26-1.34.51-.65.25-1.41.47-1.99,0-.58-.47-1.38-.4-1.81-.33-.43.07-1.01.51-1.34.69-.32.18-1.19.22-1.37.04-.18-.18-.54.07-.54.44s.18,1.67.36,1.75c.18.07.15-.04.87-.25.72-.22,1.45.04,1.45.04,0,0,.58-.47.83-.54.25-.07,1.01.04,1.34.4.33.36,1.16-.51,1.74-.51s.91.04,1.12.22h0Zm-11.85,15.97l.29.13s.29-.83.22-.99c-.06-.16-.51.1-.51.86h0Zm8.7,3.62c.35,0,.49.38,1.1.75.61.38,2.48.66,5.08.49,2.6-.17,2.16-.61,2.94-.81.78-.2,1.24.35.23,1.18-1.01.84-4.56,2.17-6.73,1.36-2.16-.81-2.97-2.63-2.97-2.63l.35-.35h0Zm6.28-3.34c-.05-.95-.55-1.27-1.11-1.16-.57.11-.91.98-1,.7-.09-.27.16-1.04.54-1.11.39-.07.98-.23,1.52.32.54.54.57,1.29.57,1.29l-.52-.04h0Zm-7.86,15.84l.14.4s2.73-7.47,9.84-8.18c2.32-4.96,5.29-11.16,8.51-17.5-.68-2.13-3.29-9.21-8.89-12.17-6.63-3.51-11.07-3.66-13.16.29-2.1,3.95-3.02,7.07-3.41,9.56-.16,1.03-.35,4.54-.51,8.29-.02.63-.04,1.27-.06,1.93.5-.83,1.67-1.07,2.66-1.04,1.07.03,2.45.33,2.45.33-.14-.86-1.31-1.71-1.64-2.08-.33-.37-.16-.54-.16-.54.65-.06,1.61.8,1.95,1.25.34.45.4.3.4.3.06-.72-.1-2.49-.59-3.93-.5-1.44-.58-2.58-.53-3.29.05-.71.73-1.46,1.37-1.83.63-.37,1.01-.56,1.49-1.25.48-.69.48-.37.48-.37.05.69-.28,1.58-.89,2.24-.61.66-1.35,1.1-1.43,1.59-.09.48.29,1.85.29,1.85.59,2.01,1.97,6.45.66,10.31-1.32,3.87-3.68,4-4.69,4.04-.66.02-1.49-.38-1.98-.66-.02.75-.03,1.49-.05,2.22.91.39,6.1,2.82,7.76,8.26h0Zm-4.41-12.42c-1.78.08-2.87-.64-3.24-.93,0,.23-.01.46-.02.69.34.84,1.33,1.16,2.33,1.23,1.28.1,1.85-1.05,1.85-1.05l-.93.06Z" style="fill: #fff; fill-rule: evenodd; stroke-width: 0px;"/>
            <path d="m76.1,221.84h22.36c-.73-3.65-3.49-19.03,0-28.79,0,0-3.33-.69-7.4-2.65l-14.96,31.45Z" style="fill: #ffe100; fill-rule: evenodd; stroke-width: 0px;"/>
            <path d="m71.35,221.84c1.66-4.42,7.35-18.86,16.06-33.48.98.63,1.96,1.18,2.9,1.66.02.01.04.02.05.03l-15.12,31.79h-3.89Z" style="fill: #e60012; fill-rule: evenodd; stroke-width: 0px;"/>
            <path d="m52.5,134.75l4.54-1.35,39.81,40.93c-14.01,18.17-23.3,41.65-25.5,47.51h-8.24c1.96-4.4,13.17-29.29,22.98-45.64l-29.42-30.8-6.79,31.56-5.34-4.55,7.97-37.67Z" style="fill: #231815; fill-rule: evenodd; stroke-width: 0px;"/>
            <path d="m84.09,171.86l.26.05s-.17-2.28-.05-3.46c.12-1.18.64-1.58,1.32-2.05.68-.47.4-2.24-.47-2.38-.87-.14-1.95.68-2.05,3.06-.09,2.38.19,4.36.99,4.78h0Zm-5.92-6.63l.43.29s-.28-2.07-.17-3.37c.11-1.3.37-1.47.96-1.87.59-.4.71-1.73-.23-2.12-.93-.4-2.04.42-2.12,2.38-.09,1.95.28,3.82,1.13,4.7h0Zm-5.47-5.42l.21.29s-.21-2.32-.15-3.34c.06-1.03.26-1.41,1.11-1.73.85-.32.7-2.08-.41-2.32-1.11-.23-2.16,1.05-1.87,3.52.29,2.46,1.11,3.57,1.11,3.57h0Zm-5.48-5.37l.41.25s-.16-2.22-.16-3.3.32-1.54.91-1.77c.59-.23.98-.85.37-1.67-.62-.83-2.17-.41-2.33,1.33-.16,1.74-.16,4.49.8,5.15h0Zm-4.89-5.75l.56.27s-.56-1.22-.56-2.32.05-2.24.91-3.09c.85-.85.51-1.81-.45-1.89-.96-.08-1.49,1.49-1.52,3.22-.03,1.73.08,3.04,1.07,3.81h0Zm-14,24.48s.07-1.01-.25-1.5c-.37-.58-1.56-.84-1.56.2,0,.55,1.27,1.21,1.8,1.3h0Zm1.85-5.95s-.57-1.34-.99-1.88c-.41-.54-.55-.86-.55-1.21s.29-.65.63-.7c1.16-.16,1.48,3.14.91,3.79h0Zm1.5-6.31l-.14.14s-.29-1.89-.99-2.73c-.7-.84-.64-1.09-.36-1.29.29-.2,1.42.22,1.69,1.54.27,1.32-.1,2.19-.2,2.34h0Zm1.62-7.29s-.11-1.54-.82-1.98c-.71-.44-.92-1.31-.36-1.59,1.43-.71,1.96,2.64,1.18,3.57h0Zm32.67,19.98c-.89-.38-1.32-2.45-1.25-3.34.12-1.34.88-1.83,1.42-1.59.54.25.62,1.22.35,1.51-.28.29-.62.63-.67,1.24-.04.61.15,2.17.15,2.17h0Zm-5.71-5.85c-.82-.42-1.44-2.07-1.44-3.4s.71-2.07,1.44-1.98c.74.08,1.05,1.22.54,1.61-.51.4-.71.82-.65,1.61.06.79.45,2.26.45,2.26l-.34-.11h0Zm-5.93-6.04c-.99-.53-1.02-1.93-1.02-3.31s.58-1.99,1.05-1.91c.47.09.73.35.53,1.06-.2.7-.53.73-.61,1.7-.09.97.29,2.52.29,2.52l-.23-.06h0Zm-4.96-5.51c-.85-.7-1.15-1.66-1.25-2.84-.12-1.35.5-2.05.96-2.08.47-.03.99,1.09.67,1.55-.32.47-.47.47-.52,1.17-.06.7.14,2.2.14,2.2h0Zm-5.32-5.23c-.82-.57-1-1.99-1-3.12s.34-1.86.93-1.83c.59.02.82,1.05.43,1.4-.39.34-.32.96-.3,1.6.02.64.23,2.02.23,2.02l-.3-.07h0Zm-8.1-6.42c-2.33,0-4.23-2.92-4.23-6.49s1.9-6.49,4.23-6.49,4.23,2.92,4.23,6.49-1.9,6.49-4.23,6.49h0Zm-.04-1.69c1.74,0,3.11-2.28,3.03-5.07-.07-2.8-1.56-5.08-3.3-5.08s-3.11,2.28-3.03,5.08c.07,2.8,1.56,5.07,3.3,5.07h0Zm0-4.58c-.48.56-.66,1.48-.71,1.91-.14,1.19.63,1.67.96,1.69.34.02,1.05-.32,1.07-1.45.02-1.12-1.32-2.15-1.32-2.15h0Zm-1.59.67c.48,0,.88-.39.88-.88s-.39-.88-.88-.88-.88.39-.88.88.39.88.88.88h0Zm2.91-.48c.48,0,.88-.39.88-.88s-.4-.88-.88-.88-.88.39-.88.88.39.88.88.88h0Zm-1.59-1.12c.48-.56.66-1.48.71-1.91.14-1.19-.63-1.67-.97-1.69-.34-.01-1.05.33-1.07,1.45-.02,1.12,1.32,2.15,1.32,2.15h0Zm-5.93,33.44c.37-.19.37-2.12.06-3.45-.31-1.34-.96-2.58-1.77-2.55-.81.03-1.24.53-1.27,1.03-.03.5.06,1.09.65,1.18.59.09,1,.19,1.43,1.09.44.9.68,2.74.68,2.74l.22-.03h0Zm1.66-7.27c.4-1.03-.44-5.56-1.92-5.63-.64-.03-1.26.4-1.23.98.03.58.5,1.27.82,1.29.32.01.87.01,1.36.69.5.68.98,2.67.98,2.67h0Zm1.51-7.3c.68-3.38-1.5-4.99-1.94-4.91-.44.08-.96.3-.93,1.1.03.79.52.63,1.42,1.43.9.8,1.28,2.55,1.28,2.55l.16-.17h0Zm1.73-7.67c.16-1.49-.18-3.78-1.05-4.47-.87-.69-1.92-.32-2.12.25-.2.57-.16,1.21.45,1.55.61.34.88,0,1.56.43.68.43,1.02,2.65,1.02,2.65l.15-.42h0Zm32.61,26.16c-.32,0-.77-.7-.85-1.72-.09-1.02.12-2.04.81-2.46.7-.42,1.16.37,1.1.9-.06.54-.68.8-.77,1.31-.05.29.19,1.97-.29,1.97h0Zm-5.29-5.2l.35.12s-.35-1.53-.24-2.28c.12-.75.19-1.15.47-1.55.28-.4,0-1.41-.61-1.34-.61.07-1.23.47-1.08,1.93.14,1.46.31,2.4,1.11,3.13h0Zm-5.13-5.7c-1.21-.26-1.77-2.02-1.87-3.37-.08-1.16.26-1.98,1.13-2.09.88-.11.96.79.65,1.3-.31.51-.45.48-.45,1.56s.54,2.6.54,2.6h0Zm-5.74-5.5c-1.05-.62-1.25-1.7-1.28-3.08-.03-1.38.55-1.88,1.11-1.88s.61.85.41,1.17c-.2.32-.32.7-.32,1.67s.5,2.17.5,2.17l-.41-.06h0Zm-5.31-5.57c-.96-.72-1.24-2.71-1.21-3.8.02-.82.37-1.17.93-1.15.57.02.82.39.78.78-.05.39-.39.6-.46,1.1-.07.5-.05,3.07-.05,3.07h0Zm-5.17-5.68h.27s-.4-1.46-.35-2.34c.05-.88.19-1.01.37-1.46.19-.45-.19-.96-.61-.96s-1.6.85-1.12,2.42c.48,1.57.85,1.89,1.44,2.34h0Zm-11.38,24.92l-.16.67s-.2-1.19-1-1.63c-.8-.45-1.02-.54-1.05-1.01-.02-.47.29-.87.84-.89.56-.02,1.54.78,1.36,2.86h0Zm1.72-7.22c0-2.83-.87-3.29-1.33-3.26-.46.03-.54.37-.44.72.09.35.6.65.96,1.16.37.51.78,1.77.78,1.77l.03-.38h0Zm1.33-6.1c.87-.62.12-3.6-.95-3.59-.77.01-.89.72-.84.96s.42.35.95.95c.53.6.84,1.67.84,1.67h0Zm1.89-7.74c.25-2.5-.72-3.47-1.4-3.54-.68-.07-.97.27-.86.88.11.61.93.86,1.4,1.41.47.54.72,1.72.72,1.72l.13-.48h0Zm35.85,22.24c-.16-.34-.49-.77-.86-.71-.37.06-.77.43-.86.8-.09.37.28.77.89.68.62-.09,1.16-.22.83-.77Z" style="fill: #ffe100; fill-rule: evenodd; stroke-width: 0px;"/>
            <path d="m76.87,193l-1.65-9.18-1.1-.26,1.11,7.06c.47.91.92,1.9,1.34,2.97.1-.2.2-.39.3-.59h0Zm1.38-2.67c-.25.48-.5.96-.75,1.45l-1.39-7.75.98.23,1.16,6.07h0Zm1.79-3.39l-.7-2.15-1.35-.31.89,4.66c.39-.73.77-1.47,1.16-2.2h0Zm.95-1.77l-.7-.16.3.91c.13-.25.27-.5.4-.74h0Zm-7.75-1.81l-.99-.23.58,3.65c.42.55.83,1.15,1.24,1.8l-.82-5.23h0Zm-1.87-.44l-1.06-.25.23,1.46c.39.4.8.84,1.23,1.33l-.4-2.54h0Zm-1.94-.45l-1.07-.25c.34.26.74.58,1.18.97l-.11-.72Z" style="fill: #fff; fill-rule: evenodd; stroke-width: 0px;"/>
            <path d="m57.53,151.16l20.01,20.55s-14.05-2.5-23.72-.67l3.71-19.88h0Zm13.8,17.39l.3-.55-12.95-13.2-.49.18-1.87,13.56h15Zm-14-.65h1.89l2.18-1.96.17-.15.21.09,4.7,2.02h3.03l-8.23-3.54-3.95,3.54h0Zm2.94,0h4.43l-3-1.29-1.43,1.29h0Zm9.98-.44l-2.5-2.58-6.91-2.97-3.58,3.22-.33,2.19,4.04-3.63.17-.15.21.09,8.91,3.83h0Zm-3.76-3.88l-1.95-2.02-3.97-1.71-2.91,2.61-.24,1.57,3.12-2.8.17-.15.21.09,5.58,2.4h0Zm-3.22-3.32l-1.63-1.68-1.7-.73-1.84,1.65-.28,1.89,2.45-2.2.17-.15.21.09,2.63,1.13h0Zm-2.9-2.99l-1.68-1.73-.43,2.87,1.38-1.23.17-.15.21.09.36.15h0Zm-2.14-6.15c-.69-.85-1.14-1.3-1.34-.37-.2.93-3.4,19.1-3.56,19.87-.15.76.15.95.57.92.42-.04,3.09-.38,9.91-.5,6.82-.11,14.32,1.59,14.68,1.67.35.07.73-.08.38-.53-.35-.46-2.3-2.37-2.3-2.37l-18.34-18.69h0Zm-7.58,22.23c17.12-3.52,31.54,1.25,35.23,2.65l-29.22-30.59-6.02,27.95Z" style="fill: #ffe100; fill-rule: evenodd; stroke-width: 0px;"/>
            <path d="m83,181.53c-3.67-1.4-15.6-5.31-29.23-2.61l-3.63-3.17.38-1.79c3.32-.68,8.5-1.47,14.13-1.33,8.21.21,16.35,1.81,21.15,4.04-.93,1.55-1.86,3.18-2.8,4.86h0Zm-.3.53c-2.7-1.08-14.49-5.28-28.39-2.66l.91.8c3.52-2.63,9.04.05,9.04.05,8.36,0,15.87,2.7,17.59,3.37.29-.52.57-1.03.86-1.55Z" style="fill: #ffe100; fill-rule: evenodd; stroke-width: 0px;"/>
            <path d="m32.66,198.67l3.15,5.68,3.03-5.45-2.8-6.18-3.38,5.95h0Zm1.15-.12l2.11-3.26,1.8,3.46-2.03,3.11-1.88-3.3Z" style="fill: #ffe100; fill-rule: evenodd; stroke-width: 0px;"/>
            <polygon points="34.5 198.48 35.62 200.67 37.08 198.67 35.85 196.48 34.5 198.48" style="fill: #e60012; fill-rule: evenodd; stroke-width: 0px;"/>
            <path d="m38.7,193.11c-1.13,0-2.05-1-2.05-2.23s.92-2.23,2.05-2.23,2.05,1,2.05,2.23-.92,2.23-2.05,2.23h0Zm-5.13-.15c-1.13,0-2.05-1-2.05-2.23s.92-2.23,2.05-2.23,2.05,1,2.05,2.23-.92,2.23-2.05,2.23Z" style="fill: #ffe100; fill-rule: evenodd; stroke-width: 0px;"/>
            <path d="m35.46,180.23s-1-10.33-1.1-11.94c-.02-.27-.05-.55-.08-.85-.23-2.1-.59-5.42,2.29-5.82.21-.03.42-.06.47.36.06.41-.15.44-.36.47-2.07.29-1.76,3.11-1.57,4.9.04.35.07.67.09.89.1,1.78,1.09,11.88,1.09,11.9.02.21.04.42-.38.46-.42.04-.44-.17-.46-.38h0Zm.75,8.33s2.56-18.9,3.03-22.26c.47-3.36-1.01-5.25-2.55-5.25s-3.3.13-3.36,4.37c-.07,4.17,2.36,20.09,2.89,23.13Z" style="fill: #ffe100; stroke-width: 0px;"/>
            <path d="m69.9,130.83h2.2l5.34,5.61,9.05,9.5h4.41c-.02.41-.01.82,0,1.24,0,.12.01.23.02.35h-5.13l-15.9-16.69h0Zm4.45,0l3.84,4.07,8.17,8.65.6.64h4.13c.05-.34.11-.68.17-1,.06-.31.13-.61.21-.91h-3.93l-9.71-9.89-1.53-1.56h-1.96Zm2.79,0l5.12,5.11,5.55,5.54h3.89c.02-.08.05-.16.07-.23.09-.26.18-.51.28-.76.05-.13.11-.26.17-.39h-3.78l-5.35-5.61-2.93-3.07-.57-.6h-2.47Zm4.66,0l6.41,6.73.77.81h4.2c.15-.23.3-.47.47-.7.06-.08.11-.16.17-.24h-4l-2.67-2.77-3.69-3.82h-1.67Z" style="fill: #ffe100; fill-rule: evenodd; stroke-width: 0px;"/>
            <path d="m69.1,130.83h.8l15.9,16.69h5.13c.01.17.03.34.05.51,0,.06.01.12.02.18h-5.34l-16.55-17.38h0Zm3,0l5.34,5.61,9.05,9.5h4.41c.01-.23.03-.46.05-.68,0-.06.01-.11.02-.17.03-.31.07-.61.12-.9h-4.13l-.6-.64-8.17-8.65-3.84-4.07h-2.25Zm4.21,0l1.53,1.56,9.71,9.89h3.93c.07-.27.14-.53.23-.79h-3.89l-5.55-5.54-5.12-5.11h-.83Zm3.3,0l.57.6,2.93,3.07,5.35,5.61h3.78c.15-.34.32-.67.5-1.01.14-.25.28-.49.44-.74h-4.2l-.77-.81-6.41-6.73h-2.2Z" style="fill: #231815; fill-rule: evenodd; stroke-width: 0px;"/>
            <path d="m95.7,167.19c-.06-.38.15-1.16,1.19-1.25,1.05-.09,2.59.87,2.83,2.62.23,1.75-1.17,3.44-2.94,3.7-1.78.26-3.03-1.17-3.96-3.67-.93-2.51-.95-5.24-1.51-8.47-.55-3.23-1.36-5.85-3.18-7.36-1.82-1.51-5.25-.1-5.4,2.37-.15,2.47.76,3.73,2.22,3.98,1.46.25,2.32-.61,2.52-3.23,0,0,1.26.3,1.16,1.92-.1,1.61-1.26,2.62-1.26,2.62,0,0,3.53,1.66,3.98,3.78.45,2.12-.5,3.08-1.06,3.03-.55-.05-.71-.61-.55-1.56.15-.96,0-2.12-1.77-3.13-1.76-1.01-3.83-1.46-5.25-2.98-1.41-1.51-1.46-3.63-.15-7.06,0,0-2.42.12-4.46,0,0,0-4.23-.69-4.74-3.46-.51-2.77-.35-6.49-.51-8.49-.16-2-1-3.86-3.05-4.25-2.05-.39-3.41,1-3.76,2.34-.35,1.34.8,3.04,1.71,3.06.91.02,1.49-.28,2.14-1.39,0,0,.28.45.15,1.26-.13.8-1.23,1.58-2.52,1.39-1.3-.19-3.69-1.82-2.27-5.64,0,0-2.21.1-3.24-.49-1.03-.59-1.55-1.42-1.41-3.12.14-1.7,1.55-2.5,2.45-2.53.9-.04,1.59.66,1.76,1.49.17.83-.72.76-.97.24-.24-.52-.96-.87-1.66-.35-.69.52-.79,2.01,0,2.67.79.66,2.04.83,3.28.59,1.24-.24,1.76-.87,2.96-1,1.21-.14,6.46-.43,6.43,8.38,0,0,1.53-1.18,2.84-1,1.31.18,2.76,1.45,2.79,3.47s-1.75,2.82-2.04,2.82-.48-.41-.42-.62c.06-.21,1.19-.86,1.1-2.44-.09-1.57-1.1-1.99-2.11-1.93-1.01.06-2.41,1.07-2.5,2.79-.09,1.72.5,3.22,2.21,4.26,1.71,1.04,4.51.74,7.5.34,2.99-.4,5.74.2,7.69,6.06,1.95,5.86,1.5,10.17,2.05,11.8.55,1.63,1.63,2.27,2.48,2.24.84-.03,1.51-.64,1.78-1.78.54-2.33-2.42-1.28-2.54-2.04h0Zm-.25-2.59c.54,0,.98-.44.98-.98s-.44-.98-.98-.98-.98.44-.98.98.44.98.98.98h0Zm-13.01-14.7c.53,0,.96-.43.96-.96s-.43-.96-.96-.96-.96.43-.96.96.43.96.96.96h0Zm-2.66,6.46c.53,0,.96-.43.96-.96s-.43-.96-.96-.96-.96.43-.96.96.43.96.96.96h0Zm-9.52-10.31c.53,0,.96-.43.96-.96s-.43-.96-.96-.96-.96.43-.96.96.43.96.96.96Z" style="fill: #fff; fill-rule: evenodd; stroke-width: 0px;"/>
            <path d="m41.33,168.07c.52-.35,1.75-1.31,2.98-3.21,1.62-2.5,1.63-5.39.94-8.05-.69-2.66-1.13-4.52-.24-5.21.89-.69,1.37-.08,1.74-.32.36-.24.04-1.57-.97-1.57s-1.98,1.29-1.98,2.1c0,0-.63-3.13-.51-5.11.12-1.98,1.08-3.06,2.46-3.33,1.38-.27,1.86,1.29,1.59,1.98-.27.69-.57,1.08-.6,1.26-.03.18.15.54.84.45.69-.09,1.29-1.02,1.08-2.91-.21-1.89-1.86-2.37-2.79-2.34-.93.03-1.38.54-1.38.54,0,0-.09-.09-.06-.69.03-.6.12-1.51-.57-2.54-.69-1.04-2.35-.97-2.79-.41-.44.56,1.76.88,1.7,2.23-.06,1.35-.19,2.64-.85,5.05-.66,2.42.28,5.85,1.71,10.4,0,0-1.85-.16-2.64.43-.79.59-1.27,2.26-.03,2.32,0,0,.17-1.08,1.36-1.3,1.19-.23,1.73.71,1.87,2.77.14,2.02-1.38,5.08-4.04,6.41l1.19,1.04Z" style="fill: #fff; fill-rule: evenodd; stroke-width: 0px;"/>
            <g>
              <path d="m36.14,159.92c-1.53,0-2.77-1.37-2.77-3.07s1.24-3.07,2.77-3.07,2.77,1.37,2.77,3.07-1.24,3.07-2.77,3.07Z" style="fill: #ffe100; fill-rule: evenodd; stroke-width: 0px;"/>
              <path d="m35.54,159.23l.4.15c-1.76-1.25-.77-3.33,1.17-4.33,0,0-.88-.26-1.65-.11-.77.15-1.54,1.36-1.54,2.17s.44,1.47,1.62,2.13Z" style="fill: #094; fill-rule: evenodd; stroke-width: 0px;"/>
            </g>
            <g>
              <path d="m36.8,131.72c.29,3.23,1.18,13.05,1.4,15.15.26,2.52.3,5.03-2.4,5.14,0,0-2.54-.11-2.54-2.21,0-1.86.98-16.57,1.2-19.84l2.34,1.76Z" style="fill: #ffe100; fill-rule: evenodd; stroke-width: 0px;"/>
              <path d="m35.68,130.88c-.09,1.72-.42,7.96-.69,11.32-.31,3.92-.49,7.93.49,8.6,0,0,.43.45.16.65-.27.2-1.4-.09-1.59-1.29-.19-1.19.76-10.68.72-11.7-.04-.87.34-6.29.46-7.91l.45.34Z" style="fill: #094; fill-rule: evenodd; stroke-width: 0px;"/>
            </g>
            <path d="m104.97,165.06c-.75-.66-2.96-2.65-5.11-5.24-2.65-3.18-4.36-5-5.73-9.43-1.37-4.43-.11-9,1.63-11.56,1.74-2.57,4.77-4.82,6.56-6.36,1.79-1.54,5.54-6.07,8.27-10.23,2.74-4.16,6.24-9.43,6.24-9.43l14.77,11.62,2.41-1.25-17.64-13.57c-3.35,5-8.05,12.41-10.62,15.68-2.28,2.9-4.4,5.5-7.43,7.92-2.11,1.89-3.25,3.33-3.25,3.33-3.44,4.11-3.69,8.66-3.44,11.37.25,2.71,1.16,6.91,4.16,11.2,2.63,3.77,6.3,7.23,7.15,8.03.66-.7,1.33-1.39,2-2.06Z" style="fill: #ffe100; fill-rule: evenodd; stroke-width: 0px;"/>
            <path d="m103.14,140.24l-3.75,1.9s-.72.42-.93.42-.49-.39-.21-1.35c.29-.96,2.12-5.66,2.46-5.74.34-.08,1.06,1.58,1.06,1.58,0,0,.62-.62,1.14-.7.52-.08.78.81-.08,1.61,0,0-.21.47.42.47s1.55.1,1.55.49-.03.57-1.65,1.33h0Zm5-6.36c-.29,0-.53-.25-.52-.55,0-.29.26-.53.55-.52.29,0,.52.26.51.55,0,.29-.25.53-.55.52h0Zm-2.06-2.35c-.29,0-.53-.25-.52-.55,0-.29.26-.53.55-.52.29,0,.52.26.51.55,0,.29-.26.52-.55.52h0Zm3.8.16c1.74-.71,3.16-1.31,3.18-1.73.01-.42-.78-.63-1.43-.66-.65-.02-.52-.51-.39-.81.12-.3.22-.91-.12-1.15-.34-.24-.93.43-1.27.42-.34-.01-.6-1.54-.87-1.51-.27.03-.51.44-.66,1.62-.15,1.18-1.64,3.6-1.89,4.28-.25.68-.26.87.2.84.46-.02,1.7-.6,1.7-.6l1.54-.71h0Zm-14.06,20.12c-.29,0-.53-.24-.53-.53s.24-.53.53-.53.53.24.53.53-.24.53-.53.53h0Zm20.15-27.82c-.3,0-.55-.23-.56-.52,0-.3.22-.55.52-.56.3,0,.55.22.56.52.01.3-.22.55-.52.56h0Zm-2.24-2.25c-.3,0-.55-.22-.56-.52-.01-.3.22-.55.52-.56.3-.01.55.22.56.52.01.3-.22.55-.52.56h0Zm3.87-.09c1.71-.83,3.12-1.54,3.11-1.96-.02-.43-.83-.59-1.49-.57-.66.02-.56-.48-.45-.8.11-.31.16-.93-.19-1.15-.36-.22-.91.5-1.26.51-.35.01-.71-1.52-.98-1.48-.27.05-.49.48-.56,1.68-.08,1.2-1.42,3.76-1.63,4.47-.21.7-.2.9.26.84.46-.05,1.68-.71,1.68-.71l1.52-.82h0Zm-14.34,26.6c-.29,0-.53-.24-.53-.53s.24-.53.53-.53.53.24.53.53-.24.53-.53.53h0Zm10.54-6.15l-.22-.09s-1.81-1.27-3.43-1.38c-1.63-.11-2.1.47-2.1,1.12s.54,2.17,3,3.36c2.46,1.19,5.71,1.35,6.66,1.13,0,0,1.65-1.4,2.37-5.87.71-4.47-.15-8.6-.15-8.6,0,0-5.45-.19-6.8-.19,0,0-1.39,0-1.54.86-.16.87.2,1.34,1.02,1.52.82.18,2.98.55,3.65.85.67.3.06.91-.43.69-.49-.22-2.51-.79-3.95-.93-1.43-.14-2.47.29-2.53,1.66,0,0,2.81.33,4.3.71s1.39.73,1.39.97-.31.34-1.1.02c-.79-.32-2.73-.83-3.73-.85-1-.02-2.02.16-2.06,1.52-.04,1.36.73,1.34,1.6,1.37.87.02,3.22.36,4.54,1.49,0,0,.23.28-.02.58-.26.3-.47.06-.47.06h0Zm-15.83,11.8c-.29,0-.53-.24-.53-.53s.24-.53.53-.53.53.24.53.53-.24.53-.53.53h0Zm2.06-10.69c.29,0,.53-.24.53-.53s-.24-.53-.53-.53-.53.24-.53.53.24.53.53.53h0Zm6.17-.29c.13-.83.41-1.61-.05-1.61s-1.14.52-1.14.52c-.7-1.17-.93-1.53-1.27-.52s-1.94,4.47-2.17,5.25c-.23.78.13.88.36.81.23-.08,1.73-.83,3.26-1.61,1.52-.78,2.61-1.14,2.61-1.74s-1.71-.6-1.71-.6l.1-.49h0Zm14.99-13.94c-.3,0-.54-.24-.54-.54s.24-.54.54-.54.54.24.54.54-.24.54-.54.54h0Zm-2.17-2.32c-.3,0-.54-.24-.54-.54s.24-.54.54-.54.54.24.54.54-.24.54-.54.54h0Zm3.87.04l-1.55.77s-1.24.62-1.7.66c-.46.04-.46-.16-.23-.85s1.66-3.21,1.78-4.41c.12-1.2.35-1.62.62-1.66.27-.04.58,1.51.93,1.51s.93-.7,1.28-.47c.35.23.27.85.16,1.16-.12.31-.23.81.42.81s1.47.19,1.47.62-1.43,1.08-3.17,1.86h0Zm-13.7,18.27c-.72-.84-1.54-1.54-1.89-2.89-.25-.97.72-1.84.72-1.84,0,0-.54-.69-.51-1.84.04-1.16,1.26-1.95,1.26-1.95-.8-2.28,2.3-2.55,2.3-2.55-.64-3.2,1.65-3.09,4.05-3.09s4.9.27,4.9.27c.27-1.38,2.93-.96,2.93-.96l8.15-5.38-14.21-11.02s-5.39,8.36-7.41,11.15c-2.03,2.79-4.75,6.24-6.39,7.8-1.64,1.57-2.97,2.14-5.94,5.35-2.97,3.21-3.25,7.11-2.67,10.81.58,3.71,3.51,7.75,3.51,7.75l11.22-11.61h0Zm-11.43-4c.29,0,.53-.24.53-.53s-.24-.53-.53-.53-.53.24-.53.53.24.53.53.53h0Zm2.54,8.47s.54-.76.68-1.19c.14-.43-.06-.88-.45-.62-.39.25-.59.62-.96.45-.37-.17-.31-1.47-.9-1.27-.59.2-2.19,4.89-2.36,5.46-.17.57-.08.93.31.91.39-.03,3.6-1.81,4.3-2.15.7-.34,1.32-.65.93-1.05-.39-.4-1.49-.31-1.49-.31l-.06-.23h0Zm1.02-3.71c-.29,0-.53-.24-.53-.53s.24-.53.53-.53.53.24.53.53-.24.53-.53.53Z" style="fill: #fff; fill-rule: evenodd; stroke-width: 0px;"/>
            <path d="m111.61,158.5s1.19-7,.84-12.23c-.15-.04-.3-.09-.45-.14-.84.85-2.71,3-3.07,5.83-.29,2.27.19,5.61,2.68,6.54h0Zm1.3-12.1c.28.86.97,2.48,2.55,4.29,2.3,2.61,5.84,2.01,7.06,6.08.72-.29,1.41-.26,2.21,0-.02-.92-.25-3.54-2.02-4.43-2.05-1.02-5.36-1.33-7.75-5.51-.6-.08-1.28-.21-2.06-.42h0Zm9.39,5.16c-3-.6-6.21-3.52-6.91-4.68,1.67.17,2.61-.1,3.04-.29,4.39,1.98,3.87,4.97,3.87,4.97Z" style="fill: #ffe100; fill-rule: evenodd; stroke-width: 0px;"/>
            <path d="m119.65,160.9h1.62s-.53-.59-.43-2.28l-1.41-.63.22,2.91h0Zm6.23.1l2.3-.13.49-2.77-2.2.76c-.03.72-.19,1.55-.59,2.15h0Zm.32,7.78l2.74,1.14-.8-3.56h-2.08s.64,1.93.14,2.42h0Zm-6.66-2.3l1.61-.23s-.39.93-.25,2.44l-2.08,1.02.72-3.23Z" style="fill: #e60012; fill-rule: evenodd; stroke-width: 0px;"/>
            <path d="m127.12,165.81h-1.06v-1.79h.98c.19,0,.35-.16.35-.35h0c0-.2-.16-.35-.35-.35h-.98v-1.88h1.06c1.2,0,2.19.98,2.19,2.19h0c0,1.2-.99,2.19-2.19,2.19h0Zm-5.81,0h-1.33c-1.2,0-2.19-.98-2.19-2.19h0c0-1.2.98-2.19,2.19-2.19h1.33v1.88h-.65c-.2,0-.35.16-.35.35h0c0,.19.16.35.35.35h.65v1.79h0Zm1.4-4.45c-.76-.34-1.29-1.11-1.29-2,0-1.21.98-2.19,2.19-2.19s2.19.98,2.19,2.19c0,.81-.44,1.51-1.09,1.89-.16.09-.19.11-.36,0-.14-.09-.28-.26-.38-.55v-.9h-.71v1.29c-.06.09-.15.19-.25.26-.13.09-.15.06-.29,0h0Zm.9,8.78c-1.21,0-2.19-.98-2.19-2.19,0-.9.55-1.67,1.32-2.01.14-.06.16-.04.28.06.09.07.17.15.23.26v1.38h.71v-.96c.05-.21.14-.44.29-.61.18-.2.21-.15.43-.03.66.38,1.11,1.09,1.11,1.91,0,1.2-.98,2.19-2.19,2.19h0Zm.08-4.31l-1.09-1.09-1.09-1.09,1.09-1.08,1.09-1.09,1.09,1.09,1.09,1.08-1.09,1.09-1.09,1.09Z" style="fill: #ffe100; fill-rule: evenodd; stroke-width: 0px;"/>
            <path d="m120.69,140.74l.08-.35s.23-1.69.06-4.51c-.17-2.82-.17-3.17-.26-4-.09-.83.35-1,.78-1.17.43-.17,1-.13,1.13.56.13.7.43,4.39.43,6.6s-.77,5.3-1.36,6.76c-.58,1.45-1.14,2.1-1.84,2.04-.7-.06-1.03-.45-.61-1.26.42-.81,1.17-2.27,1.59-4.67Z" style="fill: #ffe100; fill-rule: evenodd; stroke-width: 0px;"/>
            <path d="m128.57,150.71c-.52-1.39-1.76-4.53-3.23-6.95l3.09-3.26s.63-.23-2.74-4.4c0,0,2.08-3.5,2.67-8.99-.97.63-1.9,1.25-2.69,1.79-.02.9-.13,2.29-.62,3.54-.8,2.06-1.15,2.84-1.3,3.64-.15.81.05,1.54.78,2.37.72.83,1.24,2.03,1.24,2.03,0,0-1.58.84-2.8,1.36-.16.77-.34,1.43-.52,1.99.58.65,2.09,2.5,2.67,4.85l3.45,2.02Z" style="fill: #231815; fill-rule: evenodd; stroke-width: 0px;"/>
            <path d="m122.45,143.84c-.59,1.81-1.21,2.59-1.21,2.59l3.88,2.27c-.58-2.35-2.08-4.2-2.67-4.85h0Zm3.22-14.93c-1.51,1.04-2.55,1.79-2.55,1.79.64,5.02.36,8.66-.15,11.16,1.22-.52,2.8-1.36,2.8-1.36,0,0-.52-1.2-1.24-2.03-.73-.83-.93-1.56-.78-2.37.16-.81.5-1.58,1.3-3.64.49-1.25.61-2.65.62-3.54h0Zm8.31,24.97l-5.42-3.17c-.52-1.39-1.76-4.53-3.23-6.95l3.09-3.26s.63-.23-2.74-4.4c0,0,2.08-3.5,2.67-8.99,1.76-1.14,3.69-2.31,5.33-3.13l-5.36,10.81-.1.2.14.17,3.64,4.5-3.27,4.18-.14.18.12.2,5.27,9.28v.36Z" style="fill: #ffe100; fill-rule: evenodd; stroke-width: 0px;"/>
            <polygon points="133.98 152.1 129.44 144.1 132.74 139.88 132.91 139.66 132.73 139.45 129.06 134.91 133.98 124.98 133.98 152.1" style="fill: #e60012; fill-rule: evenodd; stroke-width: 0px;"/>
            <path d="m90.52,201.51c.59-.2.94.86,1,1.3.11.74-.82,1.37-1.31,1.39-.49.02-.61-.99-.61-1.36s-.12-1.02.93-1.34h0Zm-12.82,20.33h.75c.21-1.7.68-2.87,1.57-3.54,1.02-.77,1.77-.82,1.77-.82l.09,1.09c-1.12.02-1.85,1.34-2.07,2.39-.08.36-.11.65-.11.88h3.72s0-.06,0-.09c-.06-.63-.04-1.19.19-1.15.18.03.79.87,1.47,1.24h1.21c.77-.38,1.55-1.35,1.5-2.66-.06-1.64-1.78-2.52-1.78-2.52.62-.16,1.71-1.66,1.06-3.15-.65-1.5-2.09-1.55-2.55-1.47-.46.08-1.2.35-1.33,1.52-.14,1.17-.14,2.39-.14,2.39l-.49.3c-.46-.49-1.17-3.24-.03-4.21,1.14-.98,1.96-1.06,2.96-1.22,1.01-.16,1.42-.58,1.45-1.01.03-.42-.27-.52-.82-1-.54-.49-.85-1.83,0-3.92.85-2.1,2.57-2.56,2.81-2.53.24.03.18,1.61.18,1.61-1.06,0-2.36,1.09-2.36,2.4s.97,2.53,2.66,2.28c1.69-.24,1.39-1.64,1.45-2.68.06-1.04.33-1.1.73-.55.39.55,1.03,1.46,1.97,1.46s1.97-.88,1.97-2.68-1.67-1.95-2.21-1.95-.42-.24-.42-.24c.39-.18,1.76-1.43,1.66-2.92-.09-1.49-1.42-1.92-2.48-1.77-1.06.15-1.7.97-1.79,1.64-.09.67.09,2.04.09,2.04l-.48.27c-.36-.12-.67-1.44-.61-2.88.07-1.44,1.63-2.21,2.4-2.3s2.17-.03,2.17-.03l.35-.99c-.48-.45-.89-1.18-1.02-2.17-.08-.62-.1-1.24-.1-1.61-.15-.06-.3-.13-.46-.19-.08.51-.2,1.43-.2,1.98,0,.78,1.13,2.08,1.13,2.08l-.09.39s-3.21-.43-4.39,1.56c-.59,1.04-.39,2.8-.18,3.79.18.86.16.89.16.89-3.8.76-4.23,4.42-4.08,5.82s1.24,1.81,1.27,2.12c.03.3-.21.3-.21.3,0,0-1.66-.18-3.48,1.09-1.82,1.27-1.2,3.66-1,4.33.2.67.59,1.05.23,1.32-.36.27-.77.25-1.4.54-.63.29-1.11.81-1.11.81-.93,1-1.38,2.78-1.56,3.71h0Zm4.77-3.73c-.14-.76-.19-1.47.92-1.82,0,0,.3.07.69.57,1.11,1.44-1.35,2.66-1.61,1.24Z" style="fill: #231815; fill-rule: evenodd; stroke-width: 0px;"/>
          </g>
        </g>
        <path d="m29.59,26.78h104.39v195.06H29.59V26.78h0Zm-1.68-1.68v198.43h107.75V25.09H27.91Z" style="fill: #004ea2; fill-rule: evenodd; stroke-width: 0px;"/>
      </g>
      <g>
        <path d="m17.25,46.89c-.14,0-1.41,2.91-2.89,4.87-1.48,1.96-2.95,3.67-3.67,5.5-.72,1.84-.61,3.22.05,4.23.66,1.01,1.77,1.56,3.06,1.44,1.29-.12,2.08-1.15,2.38-2.47,0,0,.09-.5.28-.52.19-.03.36.16.15,1.75-.21,1.58-.68,3.33-1.69,4.26h4.85c-1-.93-1.45-2.67-1.66-4.26-.21-1.59-.04-1.77.14-1.75.18.03.28.52.28.52.29,1.32,1.07,2.35,2.33,2.47,1.26.12,2.36-.43,3-1.44.65-1.01.75-2.4.05-4.23-.71-1.83-2.15-3.54-3.6-5.5-1.45-1.96-2.92-4.87-3.06-4.87Z" style="fill: #231815; fill-rule: evenodd; stroke-width: 0px;"/>
        <path d="m17.7,13.47c3.86,0,7.01,3.16,7.01,7.01v14.22c0,.85-.15,1.67-.44,2.42.47.34.96.48,1.59.45l.15,3.12c-1.56.08-2.6-.21-3.52-.89-1.26,1.18-2.95,1.91-4.8,1.91-3.86,0-7.01-3.16-7.01-7.01v-4.18c-1.12-.1-1.9-.03-1.9-.03l-.22-3.12s.85-.07,2.12.02v-6.92c0-3.86,3.16-7.01,7.01-7.01h0Zm0,3.12c-2.14,0-3.89,1.75-3.89,3.9v7.45c2.16.58,4.55,1.74,6.3,3.99.64.83,1.1,1.45,1.49,1.98v-13.42c0-2.14-1.75-3.9-3.9-3.9h0Zm-3.89,14.59v3.53c0,2.14,1.75,3.89,3.89,3.89,1.04,0,1.98-.41,2.68-1.08-.29-.39-.6-.81-.94-1.28-.57-.78-1.22-1.67-1.8-2.42-1.05-1.35-2.46-2.16-3.84-2.65Z" style="fill: #231815; stroke-width: 0px;"/>
      </g>
      <g>
        <path d="m146.33,201.72c.14,0,1.42-2.91,2.89-4.87,1.48-1.96,2.95-3.67,3.67-5.5.72-1.83.61-3.22-.05-4.23-.66-1.01-1.77-1.56-3.06-1.44-1.29.12-2.08,1.15-2.38,2.47,0,0-.09.5-.28.52-.19.03-.36-.16-.15-1.75.21-1.59.68-3.33,1.69-4.26h-4.85c1,.93,1.45,2.67,1.66,4.26.21,1.58.04,1.77-.14,1.75-.18-.03-.28-.52-.28-.52-.29-1.31-1.07-2.35-2.33-2.47-1.26-.12-2.36.43-3,1.44-.65,1.01-.75,2.4-.05,4.23.71,1.83,2.15,3.55,3.6,5.5,1.45,1.96,2.92,4.87,3.06,4.87Z" style="fill: #231815; fill-rule: evenodd; stroke-width: 0px;"/>
        <path d="m145.88,235.14c-3.86,0-7.01-3.16-7.01-7.01v-14.23c0-.85.15-1.67.43-2.42-.47-.34-.96-.48-1.59-.45l-.15-3.12c1.56-.08,2.6.21,3.52.89,1.26-1.18,2.95-1.91,4.8-1.91,3.86,0,7.01,3.16,7.01,7.01v4.18c1.12.1,1.9.03,1.9.03l.22,3.12s-.85.08-2.12-.02v6.92c0,3.86-3.16,7.01-7.01,7.01h0Zm0-3.12c2.14,0,3.9-1.75,3.9-3.89v-7.45c-2.16-.58-4.56-1.74-6.3-3.99-.64-.82-1.1-1.45-1.49-1.98v13.42c0,2.14,1.75,3.89,3.9,3.89h0Zm3.9-14.59v-3.53c0-2.14-1.75-3.9-3.9-3.9-1.04,0-1.98.41-2.68,1.08.29.39.6.81.94,1.28.57.78,1.22,1.67,1.8,2.42,1.05,1.35,2.45,2.16,3.84,2.65Z" style="fill: #231815; stroke-width: 0px;"/>
      </g>
    </g>
  </g>
</svg>