<?xml version="1.0" encoding="UTF-8"?>
<svg id="_图层_2" data-name="图层 2" xmlns="http://www.w3.org/2000/svg" viewBox="0 0 163.58 248.61">
  <g id="_图层_1-2" data-name="图层 1">
    <g>
      <path d="m162.58,242.01c0,3.08-2.51,5.6-5.57,5.6H6.57c-3.06,0-5.57-2.52-5.57-5.6V6.6C1,3.52,3.51,1,6.57,1h150.43c3.06,0,5.57,2.52,5.57,5.6v235.41Z" style="fill: #fff; fill-rule: evenodd; stroke: #231815; stroke-miterlimit: 22.93; stroke-width: 2px;"/>
      <g>
        <g>
          <path d="m45.6,31.98c-.26,0-2.65,5.45-5.42,9.12-2.77,3.67-5.53,6.88-6.88,10.32-1.35,3.44-1.14,6.04.09,7.93,1.23,1.89,3.32,2.92,5.74,2.69,2.41-.23,3.9-2.16,4.45-4.63,0,0,.18-.93.53-.98.35-.05.68.3.28,3.27-.4,2.97-1.27,6.24-3.17,7.98h9.1c-1.87-1.74-2.72-5.01-3.11-7.98-.39-2.97-.07-3.32.27-3.27.35.05.52.98.52.98.54,2.46,2,4.4,4.37,4.63,2.37.23,4.42-.81,5.63-2.69,1.21-1.89,1.41-4.49.09-7.93-1.33-3.44-4.03-6.64-6.75-10.32-2.72-3.67-5.47-9.12-5.73-9.12Z" style="fill: #231815; fill-rule: evenodd; stroke-width: 0px;"/>
          <path d="m117.97,216.63c.26,0,2.65-5.45,5.42-9.12,2.77-3.67,5.53-6.88,6.88-10.31,1.35-3.44,1.14-6.04-.09-7.93-1.23-1.88-3.32-2.92-5.73-2.69-2.41.23-3.9,2.16-4.45,4.63,0,0-.18.93-.53.98-.35.05-.68-.3-.28-3.27.4-2.97,1.27-6.24,3.17-7.98h-9.1c1.87,1.74,2.72,5.01,3.11,7.98.39,2.97.07,3.32-.27,3.27-.35-.05-.52-.98-.52-.98-.54-2.46-2-4.4-4.37-4.63-2.37-.23-4.42.8-5.63,2.69-1.21,1.89-1.41,4.49-.09,7.93,1.32,3.44,4.03,6.64,6.75,10.31,2.72,3.67,5.47,9.12,5.73,9.12Z" style="fill: #231815; fill-rule: evenodd; stroke-width: 0px;"/>
        </g>
        <g>
          <path d="m29.59,140.11l1.18.22-.24,63.04,5.3,5.57,4.98-4.89v-38.22c2.69,2.53,12.43,7.56,12.43,7.56l.81,3.23c-.75,1.9-1.17,5.5-.26,9.14.91,3.63,2.53,6.05,2.53,6.05l.08,1.78-1.02,1.19h1.02l-.17,5.97-11,21.08h60.13l-10.91-23.47s4.05-17.86,6.63-20.96c0,0,1.55,2.51,3.35,2.36,1.8-.16,3.02-1.77,3.36-3.58.34-1.8-.65-3.33-.96-3.36,0,0,6-1.93,10.58-4.25,4.41-2.24,12.47-7.31,16.55-11v-49.08l-1.18-.22.24-63.04-5.3-5.57-4.98,4.89v38.22c-2.69-2.53-12.43-7.56-12.43-7.56l-.81-3.23c.75-1.9,1.17-5.5.26-9.14-.91-3.63-2.53-6.05-2.53-6.05l-.08-1.78,1.02-1.19h-1.02l.17-5.97,11-21.08h-60.13l10.91,23.47s-4.05,17.86-6.63,20.96c0,0-1.55-2.51-3.35-2.36-1.8.16-3.02,1.77-3.36,3.58-.34,1.8.65,3.33.96,3.36,0,0-6,1.93-10.58,4.25-4.41,2.24-12.47,7.31-16.55,11v49.08Z" style="fill: #004ea2; fill-rule: evenodd; stroke-width: 0px;"/>
          <path d="m70.32,161.07c2.18-.66,3.63.74,4.41,1.8,1.06,1.43.97,3.58.97,3.58,2.35-2.41,4.38-1.85,6.09-.21,1.71,1.65,1.7,4.42,1.7,4.42,2.1-2.22,6.09-.07,6.17,2.91,1.05-1.07,2.42-1.82,3.88-2.49-2.95-4.63-5.55-14.52-6.76-20.75-1.3-6.69-1.39-16.33-1.39-16.33h7.99c1.22,10.25,3.56,17.72,6.17,25.11,2.09,5.92,5.46,11.05,6.72,12.86,3.04-.85,6.09-2.07,8.99-3.46-1.8-1.22-3.02-3.81-5.96-9.42-3.23-6.15-4.97-11.96-4.97-11.96-1.25-4.26-3.18-12.59-3.32-22.86-.13-10.27,1.7-14.56,1.7-14.56l18.75,10.46.04-6.76c-.27,1.04-.86,2.36-2.41,1.95-1.54-.41-1.86-2.41-1.86-2.41l-13.34-7.78c2.7-10.17,11.09-19.41,12.29-20.73,1.02-1.12,2.8-2.87,3.32-3.38-3.59-2.39-8.16-4.6-9.02-5.01.06.77.02,1.96-.58,2.86-.97,1.47-3.16,1.67-3.16,1.67.75,1.94-.04,5.45-2.73,5.78-.07,0-.14.02-.2.02-6.92,12.48-10.59,28.49-10.59,28.49h-6.82c.62-12,5.71-24.65,6.85-27.35-2.19.66-3.63-.75-4.41-1.81-1.06-1.43-.97-3.58-.97-3.58-2.35,2.41-4.38,1.85-6.09.21-1.71-1.65-1.7-4.42-1.7-4.42-2.1,2.22-6.09.07-6.17-2.91-1.05,1.07-2.42,1.82-3.88,2.49,2.95,4.63,5.55,14.52,6.76,20.75,1.3,6.69,1.39,16.33,1.39,16.33h-7.99c-1.22-10.25-3.56-17.72-6.17-25.11-2.09-5.92-5.46-11.05-6.72-12.86-3.04.85-6.09,2.07-8.99,3.46,1.8,1.22,3.02,3.81,5.96,9.42,3.23,6.15,4.97,11.96,4.97,11.96,1.25,4.26,3.18,12.59,3.32,22.86.13,10.27-1.7,14.56-1.7,14.56l-18.75-10.46-.05,6.76c.27-1.04.86-2.36,2.41-1.95,1.54.41,1.86,2.41,1.86,2.41l13.34,7.78c-2.7,10.17-11.09,19.41-12.29,20.73-1.02,1.12-2.81,2.87-3.32,3.38,3.59,2.39,8.16,4.6,9.02,5.01-.06-.77-.02-1.96.58-2.86.97-1.47,3.16-1.67,3.16-1.67-.76-1.94.04-5.45,2.72-5.78.07,0,.14-.01.2-.02,6.92-12.48,10.59-28.49,10.59-28.49h6.82c-.62,12-5.71,24.65-6.85,27.35Z" style="fill: #231815; fill-rule: evenodd; stroke-width: 0px;"/>
          <g>
            <path d="m122.89,127.34c.4.6,1.35,1.71,2.87,1.78,2.08.09,4.26-1.05,4.26-1.05,0,0,2.07.77,3.97-.3v16.89c-3.31-2.93-5.96-6.93-5.96-6.93-.51-.81-.97-1.6-1.41-2.36-1.63-.54-1.78-2.35-1.73-3.29-.85-1.76-1.5-3.34-1.99-4.74Z" style="fill: #231815; fill-rule: evenodd; stroke-width: 0px;"/>
            <path d="m68.83,46.56l.77,1.65s15.95-5.53,36.73-1.47l.77-1.44c-3.99.63-5.96-2.02-6.57-3.06-1.45,1.24-2.77,2.36-5.93,2.31-2.75-.04-4.86-2.08-5.61-2.9-.78.97-3.12,3.58-5.99,3.67-2.73.09-4.9-1.47-5.72-2.15-2.11,3.96-6.73,3.65-8.45,3.39Z" style="fill: #e60012; fill-rule: evenodd; stroke-width: 0px;"/>
            <path d="m59.66,26.78l8.82,19.01c.93.2,6.36,1.15,8.38-3.32l.2-.45.36.34s2.38,2.37,5.57,2.26c3.16-.1,5.7-3.71,5.71-3.72l.27-.38.29.36s2.26,2.93,5.36,2.98c2.91.05,4.14-1,5.49-2.16.12-.1.22-.19.31-.27l.35-.3.19.42s1.77,4.05,6.57,2.96l9.44-17.73h-57.3Z" style="fill: #ffe100; fill-rule: evenodd; stroke-width: 0px;"/>
            <path d="m63.35,34.74c.61-.05,1.73-.06,2.33.41.84.67.89,1.72.8,2.61,0,0,1.12-.17,1.92.48.8.65.83,1.18.8,2.07-.02.89-1.01,1.88-2.22,1.88l-.2-.03-.89-1.92c.12-.18.2-.41.2-.66,0-.55-.37-1-.81-1-.05,0-.1,0-.15.02l-1.79-3.85h0Zm3.48,7.5l.9,1.94c.98.63,2.42,1.21,4.32,1.02,3.83-.37,4.77-4.7,4.77-4.7h.38c.09.26,2.08,3.64,6.03,3.32,3.95-.32,5.55-4.71,5.55-4.71h.44s1.2,2.64,3.2,3.6c2,.97,4.03.6,5.74-.43,1.7-1.03,3.16-2.75,3.16-2.75.52,2.94,2.78,4.16,3.96,4.39.67.13,1.71.14,2.49.12l1.25-2.35c-1.33-.23-2.31-1.15-2.31-1.15,0,0-.95,1.15-2.25.87-1.3-.28-1.75-1.67-1.75-1.67,0,0,.5.04,1.1.04s2-.37,2-2.09-1.89-2.32-1.89-2.32c0,0,.92-.48.73-1.72-.19-1.23-1.21-2.02-2.26-2.02s-2.05.73-2.17,1.83c-.12,1.1.26,1.58.26,1.58-1.27-.12-2.91,1-2.76,2.47.15,1.48,1.99,2.1,1.99,2.1,0,0-.56,1.28-2.19,1.02-1.63-.25-2.64-1.37-2.64-1.37-.51.7-1.64,1.5-2.91,1.36-1.27-.14-1.66-1.28-1.66-1.28.33,0,2.07-.12,2.22-2.06.14-1.94-2.22-2.4-2.22-2.4,0,0,.94-.53.61-1.72-.32-1.18-1.24-1.96-2.28-1.96s-2.08.71-2.21,1.88c-.13,1.17.59,1.95.59,1.95-1.33-.21-2.62,1.04-2.6,2.08.03,1.04.73,2.09,1.68,2.3.94.21,1.75-.19,1.75-.19-.4.81-1.37,1.97-2.58,1.97s-2.48-1.09-2.48-1.09c0,0-1.27,1.57-2.67,1.47-1.39-.1-2.28-1.42-2.28-1.42,1.1.08,2.06-.58,2.28-1.27.22-.69.19-1.82-.5-2.57-.69-.75-2.17-.69-2.17-.69.19-2.51-1.24-2.92-2.09-2.92s-2.2.41-2.25,2.01c-.05,1.6,1.2,2.25,1.2,2.25-1.18-.05-1.98,1.13-1.98,2s.55,2.29,1.9,2.34c1.35.05,1.86-.7,1.86-.7-.46,1.21-1.54,1.98-2.41,2-.87.02-2-.53-2-.53,0,0-1.52.99-2.65.91-1.13-.07-2.17-.77-2.17-.77l-.02.02h0Zm42.96-1.99c-.45-.25-1.09-.78-1.21-1.88-.18-1.74,1.92-2.88,3.18-2.07,0,0-.41-1.18.04-2.11.37-.77,1.19-1.13,1.87-1.23l-3.88,7.29h0Zm-33.64-3.69c.53,0,.97.45.97,1s-.43,1.01-.97,1.01-.97-.45-.97-1.01.43-1,.97-1h0Zm12.44-1.18c.53,0,.97.45.97,1s-.43,1.01-.97,1.01-.97-.45-.97-1.01.43-1,.97-1h0Zm13.48.27c.53,0,.97.45.97,1s-.43,1.01-.97,1.01-.97-.45-.97-1.01.44-1,.97-1Z" style="fill: #231815; fill-rule: evenodd; stroke-width: 0px;"/>
            <path d="m102.84,56.19l.2-.1s-.18,1.15.73,1.17c.91.03.91-.79,1.14-1.2.23-.41.63-.25.61,0-.03.25-.08.92-.66,1.45-.58.53-1.39.43-2.03-.05-.63-.48-.2-1.04,0-1.27h0Zm-1.12.15l.2-.05-.03,1.58s-1.24-.53-1.24-.81.56-.64,1.06-.71h0Zm-16.64,16.33l.1-.23.62.35s-1.05,2.31-1.7,4.24c-.65,1.93,1.08,2.21,1.77,1.13.7-1.08,1.55-3.82,1.55-3.82l.5.28s-.6,2.16-1.25,3.24c-.65,1.08-1.32,1.45-1.97,1.48-.65.02-1.57-.65-1.32-1.96.25-1.31,1.7-4.72,1.7-4.72h0Zm8.62-.04l-.64.19s.64-1.18.7-2.26c0,0,.7.8,1.21.7.51-.1.92-.77,1.62-.77s.67.57,1.27.57,1.05-.22,1.43-.38c.38-.16.86.58,1.46.58s1.14-.19,1.14-.19c0,0,.32,0,.32.77s.1,1.82.1,1.82c0,0-.79-1.37-1.62-1.37s-1.21.61-1.81.61-.98-.16-2-.48c-1.02-.32-2.22-.03-3.17.22h0Zm-24.06-21.99c-.29,1.38-1.32,6.19-2.8,11.04-1.75,5.75-2.97,8.42-3.96,10.15-.98,1.73-2.2,2.75-3.46,2.68-1.25-.07-1.36-1.42-1.36-2.03s.27-.81.51-.81.24.37.2.85c-.03.47-.13,1.56.98,1.39,1.12-.17,2.3-1.42,2.3-1.86,0,0,.14-.85-1.32-1.9-1.46-1.05-2.58-.88-3.7.75-1.12,1.63-.83,4.39.76,4.97,1.6.58,3.47.15,4.98-1.36,1.51-1.51,2.92-3.62,5.04-10.06,1.75-5.29,2.86-11.93,3.2-14.13-.56.13-1.03.24-1.41.34h0Zm1.93-.46c.43-.1.91-.2,1.42-.3-.85,7.49-2.92,15.87-5.04,20.42-2.17,4.65-5.59,7.76-7.22,7.76s-1.8-1.35-1.8-1.35c1.17-.05,2.84-.45,4.78-2.44,1.94-1.99,4.01-7.4,5.45-12.09,1.19-3.9,2.13-10.04,2.41-12h0Zm1.87-.4c.52-.11,1.08-.21,1.67-.32-.1,1.75-.52,5.99-2.49,13.23-2.28,8.38-4.28,11.46-6.1,13.89-1.82,2.44-3.95,1.28-3.95,1.28,4.68-3.32,6.9-9.44,8.56-15.54,1.38-5.05,2.09-10.73,2.3-12.54h0Zm2.16-.41c.56-.1,1.16-.21,1.78-.31-.23,1.72-.75,5.19-1.82,10.44-1.6,7.85-4.29,14.06-6.35,16.62-2.06,2.55-3.29,1.81-3.29,1.81,3.95-3.63,6.48-12.46,7.67-16.46.98-3.3,1.77-9.89,2.02-12.11h0Zm2.3-.39c.44-.07.88-.14,1.34-.21l-.72,5.29c-1.95,10.32-3.3,13.77-5.45,18.72-2.15,4.95-4.53,4.68-4.53,4.68,4.22-3.65,6.34-12.97,7.47-17.71.92-3.87,1.65-9.03,1.89-10.79h0Zm1.79-.27c-.13,1.4-.6,5.95-1.34,9.55-.88,4.32-3.57,13.76-6.4,17.64,0,0,2.54-.49,4.78-7.4,2.14-6.59,4.19-16.43,4.32-19.97-.46.06-.92.12-1.36.19h0Zm1.8-.24c-.18,1.87-.8,7.81-1.76,11.86-1.15,4.87-3.52,11.04-4.57,13.1,0,0,2.52-2.56,4.17-6.9,1.58-4.17,3.87-14.01,3.94-18.27-.6.06-1.19.13-1.77.21h0Zm2.48-.28c-.23,1.56-.99,6.52-1.87,10.75-.88,4.21-2.66,10.25-5.64,13.79.08.77.35,1.45,1.05,1.49.86.04,1.15-.45,1.81-1.8.66-1.35,2.07-5.26,2.07-5.26l.51.4s-1.45,3.62-2.29,5.38c-.84,1.76-1.7,2.12-2.55,1.77-.69-.28-.94-1.17-1.02-1.5-.17.18-.33.34-.5.5.16.82.66,2.48,2.05,2.43,1.85-.07,3.15-3.42,3.6-4.41.46-.99,1.18-3.09,1.18-3.09l.48.38s-1.59,4.15-2.57,5.6c-.98,1.46-2.08,2.09-2.84,2.09s-1.36-.47-1.78-1.2c-.28-.49-.45-1.1-.53-1.45-.23.2-.48.37-.72.54.02,1.92,2.1,4.02,4.09,3.63,1.99-.39,3.48-4.35,3.98-5.87.5-1.52.56-2.13.83-2.13s.39.25.27.72c-.12.47-.95,2.6-1.42,3.61-.47,1.01-1.41,2.47-1.41,2.47,0,0-.44,3.18,1.43,4.86,1.86,1.68,4.64,1.65,6.17-1.37,1.53-3.02,1.41-3.76,1.41-3.76,0,0,.58-.12.49.27-.09.4-.34,1.28-.73,2.29-.4,1.01-.82,1.83-.82,1.83,0,0-.3,1.74.31,3.42.61,1.68,2.78,2.84,4.11,2.43,1.33-.42,3.62-1.87,4.8-7.35,0,0,5.96-.93,7.26-7.01,0,0,.27-1.09.53-3.36-.34.39-.84.87-1.28.95-.75.13-1.63.05-2.56-.47-1.02-.51-1.63-.51-2.61-.88-.67-.26-.41-1.25.21-1.35s.96.21,1.6.55c.65.34,1.29,1.12,2.67,1.12s1.58-.65,1.47-1.04c-.1-.39-.65-1.2-1.11-1.46-.47-.26-.03-.34.31-.26.29.07,1.07.71,1.48,1.14.04-.39.07-.81.1-1.25.13-1.81.3-5.24.44-8.59-.8.23-1.67.92-2.85.92-1.33,0-2.59-.35-2.59-.35l2.61,2.61-.12.55-2.48-1.6s.7,2.94.7,4.03-.76,1.94-1.48,2.36c-.73.42-1.54,1.24-1.54,1.24-.12-1.7,1.64-2.15,2.09-2.66.45-.52.18-1.64-.26-3.64-.44-1.99-1.2-5.31-1.2-7s.27-3.68.27-3.68c0,0,1.51.27,2.57.27s1.11-.4,2.04-.4c.86,0,1.46.49,2.52,1.09.05-1.19.08-2.09.09-2.51-7.81-1.6-16.01-1.46-22.8-.77h0Zm9.84,5.73l1.92-.07s-1.36.85-1.4,1.27c-.03.42.62.62.62,1.2s-.52,1.72-1.56,2.83c-1.04,1.11-1.92,1.72-2.31,1.59-.39-.13.2-.59.71-1.04.52-.46.91-.94.91-.94,0,0-2.86-.07-3.41-.1-.55-.03-1.63-1.07-2.31-1.3-.68-.23-1.17-.06-1.76-.06s-1.2-1.04-1.2-1.04c0,0,1.01-.71,1.63-1.49.62-.78,1.56-1.63,3.25-2.05,1.69-.42,4.13-.59,4.91,1.2h0Zm.99,8.28l.66.43s-.98.86-1.09,1.91c-.12,1.05.58,1.29,1.48,1.25.9-.04,1.44-1.01,2.06-1.17.62-.16,1.13.2,1.13.55s-.58.62-1.36.9c-.78.27-1.05.86-1.95.86s-2.22-.35-2.22-1.83.62-2.42,1.29-2.88h0Zm-3.95,15.64l.22-.41.55.38s-.93,1.46-1.4,3.08c-.47,1.62.44,4.15,1.87,4.26,1.43.11,3.41-1.15,3.9-5.55l.69.28s-.19,1.98-1.56,3.95c-1.38,1.98-2.78,2.09-3.76,1.67-.99-.41-1.68-1.48-1.73-3.16-.06-1.68.71-3.35,1.24-4.5h0Zm1.37.36l.52.14s-.88,1.59-1.1,2.94c-.22,1.35.44,2.11,1.02,2.11s1.29-1.54,1.67-2.77c.38-1.24.41-1.46.41-1.46l.6.25s-.52,2.06-1.18,3.21c-.66,1.15-1.35,1.43-1.76,1.43s-1.26-.88-1.26-1.89c0-1.13.48-2.97,1.07-3.96h0Zm-3.98-22.16h.39l-.03,1.69-1.43-.98s-.07-.46,1.07-.72h0Zm12.41-1.94l-.42.42.31-2.38s2-.25,3.36-.28c1.07-.03,2.11.09,2.67.63l-.03,1.34c-.45-.38-1.29-.98-2.22-1.09-1.37-.17-2.52.14-3.68,1.37h0Zm-16.64,17.53c-1.01,2.14-2.23,5.51-2.21,6.68.02,1.16.65,2.66,1.96,3.09,1.31.42,2.49-.11,3.41-1.39.91-1.28,1.93-4.08,1.93-4.08l-.5-.43s-.32,1.17-1.37,3.31c-1.05,2.15-2.32,2.68-3.69,1.72-1.37-.95-1.42-2.7-.66-4.74.76-2.04,1.82-4.11,1.82-4.11l-.55-.4-.13.34h0Zm15.58,8.08c.25-.09.49-.19.73-.3.2.71.77,2.69,1.19,3.55.51,1.06,1.23,1.42,2.01,1.42s2.07-1.3,2.07-2.51c0-1.11-1-4.26-1.44-5.45.21-.29.41-.59.59-.92,0,0,1,3.33,1.4,4.77.4,1.44.36,2.32.36,2.32-1.16,4.25-3.8,3.61-5.09,2.17s-1.84-5.05-1.84-5.05h0Zm-9.56-23.5c.03.39.16,1.11.78,1.04.62-.06,1.1-.94,1.17-1.2.06-.26.46-.13.46-.13.26,1.79-.59,2.31-1.79,2.18-1.2-.13-1.43-1.92-1.43-1.92l.81.03h0Zm3.32,0c.26,0,.49.32.49.58s-.62.88-.62.88l-.03-1.37.16-.1h0Zm11.23-1.72l-3.96.88s.7-1.93,2.31-2.21c1.61-.28,2.87.28,3.29.98,0,0-.42.14-1.65.35h0Zm1.27,2.36v-.18s.07-.36.43-.36.25.58.1.64c-.15.05-.35.05-.53-.1h0Zm-27.89,15.42c-.25.51.07.54.33.51.25-.04,2.78-7.27,2.78-7.27l-.44-.07-2.67,6.83h0Zm28.55,7.79c-.11-.38-.21-.75-.31-1.13,2.98-.17,2.93-2.36,2.76-3.67-.17-1.33-.99-3.43-1.31-4.19-.32-.76-.69-1.48-1.01-1.45-.32.02-.15.54-.15.54l.86,1.63c.64,1.41,1.28,3.65.99,5.18-.24,1.24-1.76,1.3-2.33,1.27-.09-.32-.17-.65-.26-.97,2.37-.46,1.84-2.46,1.45-3.61-.33-.96-1.1-2.04-1.37-2.4.21-1.32.4-2.95.52-4.82.16-2.66.31-4.96.42-6.57.34.61.95,1.93,1.27,4.02.43,2.82.42,3.79-.05,5.13l-.78-1.56-.38.27s2.66,5.16,2.92,7.21.66,4.63-3.23,5.11h0Zm.31-21.05c1.54,1.95,1.95,5.45,2.03,7.6.07,1.72-.2,2.97-.33,3.5l.66,1.32s.64-2.84.38-6.69c-.27-3.85-2.62-7.33-2.62-7.33,0,0-.04.58-.11,1.6h0Zm-2.94,17.8c.18.6.5,1.73.89,3.11.57,2.05,0,3.99-1.53,3.96-1.18-.02-2.04-3.24-2.38-4.7.25-.12.49-.25.72-.39.13.67.29,1.44.39,1.83.21.78.69,1.39,1.44,1.39s1.08-.72.66-2.26c-.23-.83-.5-1.72-.7-2.36.17-.18.34-.37.5-.56h0Zm-.86.91c.27.67.61,1.57.69,2.11.15.94-.06,1.6-.33,1.66-.27.06-.63-.12-.87-.94-.15-.5-.34-1.42-.46-2.07.34-.23.67-.49.97-.77h0Zm-6.42-26.93l.29-.03s-.36.58-.36,1.27-.07,1.88-.07,1.88c0,0-.39-.36-.39-.68s-.2-1.14-.52-1.14-2.79-.1-3.12-.1-1.62-.49-2.83-.65c-1.2-.16-3.09-.45-5.1,1.69,0,0-.36-.16-.36-.68s.78-1.14,1.69-1.56c.91-.42,2.6-.98,4.06-.94,1.46.03,2.89.78,4.13,1.01,1.24.23,1.79.16,2.57-.06h0Zm.65,23.61c.82,0,1.37.06,2-.19.63-.25,1.36-.67,1.36-.96s-.13-.48-.51-.32c-.38.16-1.36.77-2.13.77s-1.21-.42-1.87-.54c-.67-.13-.92.54-.57.64.35.09,1.14.41,1.14.41l.57.19h0Zm8.39,2.54c-.18-.64-.37-1.27-.59-1.91,0,0,.32-1.11.66-3.06.18.23.61.86.95,1.67.42,1.01.86,3-1.01,3.3h0Zm-14.26-10.18l-.12-.18s-.31-.4-1.14-.43c-.83-.03-1.7.83-1.67,1.97.03,1.14,1.02,2.68,2.19,2.71,1.17.03,2.31-.49,3.08-1.08.77-.59,1.42-.62,1.94-.62s1.2-.34,1.2-.53-.15-.71-1.02-.71-1.94.4-2.68.99c-.74.59-1.63,1.08-2.34,1.08s-1.6-.34-1.7-1.29c-.09-.96.22-1.85,1.08-1.82.86.03,1.17-.09,1.17-.09h0Zm.66-12.32c-2.54.1-6.5,1.95-6.5,1.95-.16-1.66,3.12-3.45,5.39-3.45s2.73,1.5,2.73,1.5h-1.63Z" style="fill: #fff; fill-rule: evenodd; stroke-width: 0px;"/>
            <path d="m74.26,82.29l-.22.21s-.65-.2-.76-1.37c-.11-1.17.99-2.2,2.11-2.24,1.12-.04,2.98.61,3.79,4.51,0,0,.29.16.74-.11.45-.27,1.03-.29,1.46.07.42.36.42.63.42,1.08s-1.14.87-1.64,1.6c-.51.73-.49,1.2-.44,2.26.04,1.06.15,1.48.15,1.48,0,0-1.46-1-1.75-2.55-.29-1.55-.68-3.5-1.47-4.69-.79-1.19-1.97-.77-2.39-.24h0Zm11.71,7.25l-.74.29s.96-1.3,1.79-2.15c.83-.85,1.46-.9,2.04-.74.58.16,1.01,1.03.69,2.91,0,0-.34.13-.58-.22-.25-.36-.38-.67-.99-.67s-1.34.16-2.22.58h0Zm-6.4,1.53c-1.03,0-1.87.84-1.87,1.87h0c0,1.03.84,1.87,1.87,1.87h1.07v1.87c0,1.02.83,1.85,1.85,1.85h0c1.01,0,1.85-.83,1.85-1.85v-1.87h1.07c1.03,0,1.87-.84,1.87-1.87h0c0-1.03-.84-1.87-1.87-1.87h-1.07v-1.87c0-1.02-.83-1.84-1.85-1.84h0c-1.01,0-1.85.83-1.85,1.84v1.87h-1.07Zm2.92.51c.75,0,1.36.61,1.36,1.36s-.61,1.36-1.36,1.36-1.36-.61-1.36-1.36.61-1.36,1.36-1.36h0Zm0,.33c.56,0,1.02.46,1.02,1.02s-.46,1.02-1.02,1.02-1.02-.46-1.02-1.02.46-1.02,1.02-1.02h0Zm-2.47,4.62c-.21.89-.42,1.62-.31,2.87.11,1.25,1.36,1.43,1.36,1.75s-.37,1.41-1.82.99c-1.46-.42-2.19-2.45-1.56-3.99.62-1.54,1.72-2.11,2.03-2.11s.47.26.47.26l-.16.23h0Zm5.55,2.27l-.1-1.75s-.13-.6-.13-.83.63-.31,1.07.11c.44.42,1.17,1.82,1.2,3.07.03,1.25-.55,2.45-1.67,2.53-1.12.08-1.69-.57-1.69-1.15s1.33-.83,1.33-1.98h0Zm-3.98,11.11v.53s.16,1.32.16,2.58-.2,2.18-1.31,3.1c-1.12.92-1.41-.2-1.02-.79.39-.6.39-1.32.39-3.01s-.03-3.11,0-3.86c.03-.76.33-2.45,2.3-2.58,1.97-.13,2.93,1.22,2.93,3.07s.07,4.66.07,5.35.62,1.22.62,1.55-.3.63-.76.63-1.35-.99-1.68-1.82c-.33-.83-.26-2.08-.26-3.3s.13-2.25-.56-2.28c-.69-.03-.89.4-.89.83Z" style="fill: #ffe100; fill-rule: evenodd; stroke-width: 0px;"/>
            <path d="m93.25,87.54c-1.14,2.7-6.22,15.35-6.85,27.35h6.82s3.67-16.01,10.59-28.49c-.84.06-1.52-.13-2.08-.46-1.35,3.01-5.41,12.2-7.01,17.38-1.94,6.25-2.64,10.14-2.64,10.14h-4.08c0-1.86,1.47-8.91,3.83-16.33,1.57-4.94,3.06-8.94,3.89-11.07-.91.79-1.73,1.25-2.47,1.47Z" style="fill: #ffe100; fill-rule: evenodd; stroke-width: 0px;"/>
            <path d="m99.12,80.21c-.42.81-2.03,3.87-2.54,5.06-.6,1.38-1.95,5.28-3.68,10.42-1.73,5.13-3.93,13.97-4.13,17.06h2.59s.69-3.11,1.6-6.2c.91-3.04,3.67-11.1,8.27-20.97-.8-.7-1.25-1.69-1.49-2.42-.26-.79-.49-2.05-.63-2.94Z" style="fill: #e60012; fill-rule: evenodd; stroke-width: 0px;"/>
            <path d="m113.54,81.82l-.03-2.71s-1.02.45-2.65,1.06c-1.63.61-1.98.89-2.46,1.48-.47.6-.39,1.53.25,1.93.65.41,1.09.12,1.45-.17,0,0,.17-.17.32-.05,0,0-.44.63-.94,1.03-.5.4-1.01.51-1.01.51l1.63,1.09s-.15-.45.17-1.3c.32-.85.56-1.12.59-1.08,0,0-.41,1.03.19,1.61.6.58,1.46.46,1.99-.37.53-.83.61-1.43.48-3.05h0Zm-5.64,8.26l-.37-2.68s-.95.58-2.49,1.39c-1.54.81-1.85,1.13-2.25,1.79-.39.65-.19,1.57.5,1.89.69.32,1.09-.02,1.41-.36,0,0,.15-.19.31-.09,0,0-.35.69-.8,1.15-.45.46-.93.64-.93.64l1.75.87s-.2-.43,0-1.31c.21-.88.41-1.18.45-1.15,0,0-.28,1.08.4,1.57.67.5,1.5.27,1.93-.62.42-.89.42-1.5.09-3.09h0Zm-4.21,9.01l-.69-2.61s-.87.69-2.3,1.67c-1.43.99-1.7,1.34-2.01,2.03-.31.69,0,1.57.72,1.81.72.24,1.08-.15,1.36-.52,0,0,.12-.21.3-.12,0,0-.27.72-.66,1.23-.39.51-.85.74-.85.74l1.84.66s-.25-.4-.15-1.3c.1-.9.27-1.22.31-1.19,0,0-.15,1.1.58,1.51.72.41,1.52.09,1.84-.84.31-.93.24-1.53-.27-3.07h0Zm-3.3,9.65l-1.07-2.48s-.76.81-2.02,2c-1.26,1.19-1.48,1.58-1.69,2.31-.2.73.23,1.56.98,1.68.75.13,1.04-.31,1.26-.72,0,0,.09-.22.27-.17,0,0-.16.75-.47,1.31-.31.56-.73.86-.73.86l1.92.38s-.31-.36-.35-1.26c-.03-.9.08-1.24.13-1.23,0,0,.02,1.11.8,1.41.78.3,1.52-.14,1.69-1.11.17-.97,0-1.55-.73-2.99h0Zm-1.53,10.19l-1.42-2.29s-.63.91-1.71,2.27c-1.07,1.36-1.23,1.78-1.33,2.54-.09.76.45,1.51,1.22,1.52.76.01.99-.46,1.15-.89,0,0,.05-.23.25-.2,0,0-.05.77-.27,1.37-.22.6-.59.96-.59.96l1.95.09s-.36-.31-.53-1.2c-.17-.88-.1-1.24-.06-1.23,0,0,.18,1.09,1,1.28.81.18,1.48-.36,1.51-1.35.03-.98-.22-1.54-1.16-2.85h0Zm-.31,9.57l-1.77-2.03s-.48,1-1.32,2.52c-.84,1.52-.93,1.96-.9,2.72.03.76.69,1.42,1.45,1.31.76-.11.9-.62.99-1.07,0,0,.02-.24.21-.24,0,0,.08.77-.05,1.4-.12.63-.43,1.04-.43,1.04l1.94-.23s-.41-.25-.71-1.1c-.31-.85-.3-1.21-.25-1.21,0,0,.35,1.05,1.19,1.1.83.05,1.4-.6,1.27-1.57-.13-.98-.46-1.48-1.61-2.63h0Zm1.09,9.82l-1.85-1.96s-.44,1.02-1.22,2.57c-.78,1.55-.85,2-.8,2.75.06.76.75,1.39,1.5,1.25.75-.14.88-.65.94-1.11,0,0,0-.24.2-.25,0,0,.11.76,0,1.39-.1.63-.39,1.06-.39,1.06l1.93-.3s-.41-.23-.76-1.07c-.34-.83-.35-1.2-.3-1.2,0,0,.4,1.03,1.23,1.05.83.02,1.38-.65,1.21-1.62-.17-.97-.52-1.46-1.71-2.56h0Zm2,9.67l-2.16-1.62s-.26,1.08-.77,2.74c-.5,1.66-.5,2.11-.31,2.84.19.74.97,1.24,1.69.97.72-.26.75-.79.74-1.25,0,0-.03-.24.15-.28,0,0,.24.73.25,1.38,0,.64-.2,1.11-.2,1.11l1.85-.63s-.45-.16-.93-.92c-.48-.76-.55-1.12-.5-1.13,0,0,.56.95,1.39.82.83-.13,1.25-.88.92-1.8-.33-.93-.76-1.35-2.12-2.24h0Zm3.09,8.38l-2.3-1.42s-.16,1.1-.51,2.8c-.35,1.7-.31,2.15-.06,2.86.25.72,1.08,1.15,1.77.82.69-.33.68-.85.63-1.31,0,0-.06-.23.13-.3,0,0,.3.71.37,1.35.07.64-.1,1.13-.1,1.13l1.79-.79s-.46-.12-1.01-.84c-.54-.72-.65-1.07-.6-1.08,0,0,.65.9,1.46.7.81-.2,1.16-.99.75-1.88-.41-.89-.88-1.28-2.31-2.03h0Zm3.79,7.86l-2.3-1.42s-.16,1.1-.51,2.8c-.35,1.7-.31,2.15-.06,2.86.25.72,1.08,1.15,1.77.82.69-.33.68-.85.63-1.31,0,0-.06-.23.13-.29,0,0,.3.71.37,1.35.07.64-.1,1.12-.1,1.12l1.79-.79s-.46-.12-1.01-.84c-.54-.72-.65-1.07-.6-1.08,0,0,.65.9,1.46.7.81-.2,1.17-.99.75-1.88-.41-.89-.88-1.28-2.31-2.03Z" style="fill: #fff; fill-rule: evenodd; stroke-width: 0px;"/>
            <path d="m70.03,77.51c-.48.22-.97.43-1.46.64-.21.09-.4.16-.59.21,3.22,5.37,5.94,15.22,7.03,20.69,1.27,6.36,1.8,14.14,1.8,14.14h-5.16c-.82-14.22-7.46-28.49-8.36-30.63-.45-1.06-1.14-2.74-1.72-4.16-.05-.03-.07-.04-.07-.04-2.74.54-3.33-1.96-3.33-1.96-.28.07-.57.15-.85.23,1.26,1.8,4.63,6.94,6.72,12.86,2.61,7.38,4.95,14.86,6.17,25.11h7.99s-.09-9.64-1.39-16.33c-1.21-6.23-3.82-16.12-6.76-20.75Z" style="fill: #ffe100; fill-rule: evenodd; stroke-width: 0px;"/>
            <path d="m67.36,78.5c-1.22.18-1.88-.28-1.88-.28-1.43.82-2.67.64-3.37.41.8,1.68,3.7,7.85,4.88,11.13,1.37,3.83,5.3,16.63,5.3,22.61h3.65s-.27-7.24-2.46-17.27c-1.76-8.05-4.59-14.26-6.12-16.6Z" style="fill: #e60012; fill-rule: evenodd; stroke-width: 0px;"/>
            <g>
              <path d="m81.76,128.03c-.37-.32-1.43-1.6-1.44-3.7-.01-2.1,1.44-3.74,1.44-3.74,0,0,1.46,1.64,1.44,3.74-.02,2.11-1.07,3.38-1.44,3.7h0Zm0,.79c.48-.39,1.84-1.94,1.86-4.49.02-2.55-1.86-4.54-1.86-4.54,0,0-1.88,1.99-1.86,4.54.02,2.55,1.39,4.1,1.86,4.49h0Zm0,2.19c.82-.58,3.18-2.88,3.21-6.66.03-3.79-3.21-6.73-3.21-6.73,0,0-3.24,2.95-3.21,6.73.04,3.79,2.39,6.08,3.21,6.66h0Zm0,.51c.92-.63,3.54-3.09,3.58-7.17.04-4.08-3.58-7.25-3.58-7.25,0,0-3.62,3.17-3.58,7.25.04,4.08,2.67,6.55,3.58,7.17h0Zm0,1.35c1.16-.75,4.51-3.67,4.56-8.51.05-4.84-4.56-8.61-4.56-8.61,0,0-4.61,3.77-4.56,8.61.05,4.84,3.4,7.77,4.56,8.51Z" style="fill: #ffe100; fill-rule: evenodd; stroke-width: 0px;"/>
              <path d="m70.32,120.07h7.49c-.61,1.27-1.04,2.73-1.02,4.28.02,1.63.38,3.05.9,4.28h-7.37v-8.56h0Zm15.39,0h7.54v8.56h-7.42c.53-1.22.89-2.65.91-4.28.01-1.55-.41-3.01-1.03-4.28Z" style="fill: #e60012; fill-rule: evenodd; stroke-width: 0px;"/>
            </g>
            <path d="m122.73,92.5c-2.25,2.77-6.48,8.74-9.6,17.68l3.78,2.07s-.17-5.03,5.82-4.92v-14.83Z" style="fill: #e60012; fill-rule: evenodd; stroke-width: 0px;"/>
            <path d="m107.56,101.79l1.27,3.45c.42-1.12.97-2.46,1.68-3.95l-.69-4.15c-.91,1.71-1.66,3.29-2.26,4.66h0Zm5,8.47c.82-2.6,3.92-11.46,10.16-18.65v-2.45c-6.26,7.22-9.94,15.95-11.52,20.31l1.36.79h0Zm10.16-22.15c-1.04,1.16-2.02,2.37-2.92,3.59l-2.78-.02c.92-1.26,1.92-2.54,3.03-3.83h.08s2.59.25,2.59.25h0Zm0-.71v-2.47c-.74.76-1.44,1.52-2.11,2.27l2.11.2h0Zm0-3.47c-.79.79-1.54,1.59-2.25,2.38l-.13-3.65c.19-.19.38-.38.58-.57.69.52,1.31,1.03,1.8,1.53v.31h0Zm-2.38-2.25c-.23.23-.46.46-.69.68h-.03s0,.02,0,.02c-9.1,9.19-13.42,20.57-14.45,23.57l-1.28-.75c2.7-10.17,11.09-19.41,12.29-20.73,1.02-1.12,2.8-2.87,3.32-3.38.29.19.57.38.84.58h0Zm-14.55,24.64c.23-.69.68-1.95,1.37-3.58l1.29,3.53c-.18.52-.33.97-.44,1.35l-2.22-1.29h0Zm2.84,1.65c.11-.37.26-.83.44-1.35l2.72-.57c-.48,1.16-.88,2.2-1.2,3.07l-1.96-1.14h0Zm.72-2.12c.43-1.17,1.01-2.61,1.78-4.24l2.75-.14c-.67,1.35-1.25,2.62-1.76,3.8l-2.78.58h0Zm1.01-9.71c.66-1.2,1.4-2.46,2.22-3.74l.62,3.8c-.83,1.41-1.55,2.75-2.17,4l-.67-4.06h0Zm1.11,4.75c.61-1.24,1.32-2.59,2.14-4h0l2.78-.06c-.79,1.33-1.51,2.65-2.16,3.92l-2.77.14h0Zm1.67-9.35c.89-1.35,1.87-2.72,2.94-4.08l.08,4.21c-.89,1.23-1.69,2.45-2.41,3.62l-.62-3.75h0Zm.89,4.64c.74-1.23,1.57-2.5,2.49-3.8h0l2.76.03c-.88,1.23-1.7,2.48-2.46,3.72l-2.8.06h0Zm2.74-9.57c.9-1.1,1.86-2.19,2.89-3.25l.13,3.73c-1.07,1.23-2.04,2.45-2.94,3.65l-.08-4.13h0Zm2.12-5.9s-.05-.03-.07-.05l.07.05h0Zm-.13-.08c-.19-.12-.38-.24-.58-.36h0c.19.12.39.24.58.36Z" style="fill: #ffe100; fill-rule: evenodd; stroke-width: 0px;"/>
            <path d="m132.05,45.59l-4.16-4.6-4.21,3.91.06,62.6s1.97.09,4.07.23c-.32-2.33-.72-5.73-.72-8.32,0-2.75.33-5.35.98-9.15.66-3.81.39-6.02.39-7.11s-.59-3.26-1.13-5.18c-.54-1.92-1.12-4.36-1.12-6.05s0-3.9.56-5.84c.56-1.95.79-4,.97-6.32.18-2.33-.3-10.04-.3-10.04h1v10.16c0,3.69-.58,5.81-.83,8.19-.25,2.38-.25,5.92.41,8.02.66,2.1,1.49,5.69,1.62,8.42.13,2.73-.28,4.12-.6,7.69-.33,3.57-.85,7.69-.27,11.69.29,2.01.73,3.26,1.1,4,.74.07,1.42.14,1.93.22l.25-62.53Z" style="fill: #fff; fill-rule: evenodd; stroke-width: 0px;"/>
            <path d="m133.98,111.53l-12.95-.8v2.62c0,.78-.77,1.57-1.54,1.6-.77.03-1.84-.91-1.95-1.88-.11-.96-.22-5.03,3.82-5.03,3.27,0,10.12.73,12.62,1.01v2.47Z" style="fill: #ffe100; fill-rule: evenodd; stroke-width: 0px;"/>
            <path d="m130.77,118.74l-.68.25s-.41.14-.94.31c.14-.28.23-.54.28-.79.06-.37.02-.7-.13-.98h0c-.15-.28-.4-.5-.75-.63-.11-.04-.22-.07-.35-.09.66-.46,1.43-.38,2.02-.56.63-.19,1.69-1.12,1.91-1.7.22-.58,1.28-.25,1.31.82.03,1.07-.38,2.57-2.67,3.37h0Zm-2.62.87h-.02c.35-.46.56-.87.61-1.21.04-.21.02-.39-.06-.53h0c-.07-.13-.2-.24-.38-.31-.18-.07-.41-.1-.68-.09-.58.91-1.11,2.42-.62,2.4.22,0,.66-.12,1.14-.26h0Zm2.13-.1c-.43.17-.89.33-1.34.47.06.09.11.19.16.29.13.34.17.74.11,1.17-.07.49-.26,1.03-.58,1.53.46-.01.81-.08.81-.08,3.52-.88,4.12-1.91,4.14-3.01.02-1.1-.19-1.43-.85-1.37-.66.06-1.7.59-1.7.59l-.74.39h0Zm-2.48,3.43c-.26-.04-.51-.11-.71-.23-.82-.47-.25-2.19-.25-2.19,0,0,.58-.12,1.34-.33.11.09.2.2.25.34.09.22.11.51.07.82-.07.51-.31,1.07-.7,1.59h0Zm4.08,2.24l-.61.2s-.77.28-1.54.3c-.14,0-.29,0-.45,0,.29-.59.28-1.08.05-1.52-.12-.24-.3-.45-.52-.65.15,0,.3,0,.45,0,.88,0,2.26-.72,2.76-.91.5-.2,1.49.5,1.49,1.08s-.52,1.19-1.63,1.5h0Zm-3.35.42c.3-.48.33-.83.18-1.12-.18-.35-.61-.67-1.16-1.03-.09,0-.13-.01-.13-.01,0,0-.61.78-.06,1.5.29.38.72.57,1.17.67h0Zm2.66.41l.86-.22s.69.08.74.78c.06.69-.61,1.11-1.16,1.19-.21.03-.58.09-.99.05.15-.58.15-1.33.14-1.7.17-.03.31-.06.42-.09h0Zm-1.23,1.63c-.45-.2-.87-.59-1.09-1.35,0,0,.59-.03,1.2-.09,0,.36,0,1-.11,1.44h0Zm-.94-14.76c.17.51.83,1.28,1.33,1.3.75.04,1.32-.23,1.32-.23,0-.76-2.65-1.07-2.65-1.07h0Zm-4.5,4.61l-.38.04s.84-.96,2.55-1.46c1.71-.49,3.51.26,4.61-1.25,0,0-.98.05-1.66-.33-.68-.38-1.12-1.67-1.12-1.67h-4c-.7,0-2.2,1.03-2.5,3.62-.31,2.59-.07,5.03.38,7.34.45,2.31,1.53,4.77,3.3,4.77s3.51-.69,3.51-.69c0,0-.6-2.01-1.98-2.43l-1.17.84s.09-2.46.09-2.91-.63-1.38-1.14-1.62c0,0,1.23-1.83,1.08-3.18,0,0-.18-1.11-1.56-1.08Z" style="fill: #fff; fill-rule: evenodd; stroke-width: 0px;"/>
            <path d="m125.95,132.08s.56,1.25,1.89,1.16c1.33-.09,1.92-1.5,1.42-2.58,0,0,.92.48,1.06,1.52.13,1.04-.61,2.36-1.74,2.47-1.17.12-2.9-.66-2.64-2.56h0Zm1.65-2.36c-2.15.16-2.71,2.36-2.1,4.01.74,1.63,2.55,2.04,3.7,1.7,1.15-.34,2.16-1.75,1.89-3.33-.27-1.59-1.96-2.49-3.5-2.38Z" style="fill: #ffe100; fill-rule: evenodd; stroke-width: 0px;"/>
            <path d="m121.38,120.16c0,.96.19,5.11,3.5,11.92-.04.94.1,2.75,1.73,3.29.43.76.9,1.55,1.41,2.36,0,0,2.65,4,5.96,6.93v1.38c-3.8-3.57-7.01-7.83-9.42-12.55-2.21-4.34-3.74-9.07-4.41-14.02l1.23.69h0Zm12.6,26.83c-4.06-3.71-7.5-8.2-10.04-13.18-2.33-4.57-3.91-9.55-4.55-14.76l-.51-.29.32,1.52.08.39-.4.03-1.49.11-.29.02-.07-.29-.31-1.23-.89.08.56,2.94,2.64.05h.29s.05.3.05.3l.5,3.08.04.27-.24.11-1.11.5-.33.15-.14-.34-.56-1.39-.62.05c.08.58.28,1.72.57,2.57l2.33-.55.28-.07.12.26,1.34,3.02.16.35-.37.12-1.15.38-.29.1-.13-.28-.48-1.02-.9.46,1.05,2.5,2.27-.68.28-.09.13.26,1.53,3.08.16.31-.31.16-1,.5-.25.13-.18-.22-.84-1.06-.61.51,1.13,1.66,2.58-.98.28-.1.15.26,1.64,2.81.19.32-.33.17-1.5.75-.27.14-.17-.25-.29-.42-.39.34,1.17,1.56,2.22-1.65.29-.22.21.3,2.02,2.94.18.26-.25.2-1.2.99-.27.22-.23-.26-.68-.81-.59.55,1.6,2.06,1.95-1.52.22-.17.21.18,2.23,1.83.26.21-.2.27-1.16,1.52-.23.31-.28-.26-.88-.81-.37.47,2.18,2,1.97-2.04v-1.69h0Zm0,2.69l-1.71,1.77-.24.25-.25-.23-2.67-2.45-.24-.22.2-.25.8-1.03.23-.3.28.26.88.81.72-.94-1.75-1.43-2.01,1.57-.28.21-.21-.28-2.01-2.58-.19-.25.23-.22,1.09-1.02.27-.25.24.28.7.82.68-.57-1.63-2.38-2.21,1.64-.28.21-.21-.28-1.57-2.1-.19-.26.24-.21.92-.82.3-.26.22.33.34.5.9-.45-1.3-2.23-2.56.97-.26.1-.16-.23-1.47-2.14-.18-.26.25-.2,1.14-.94.27-.23.22.28.89,1.12.44-.22-1.25-2.51-2.29.69-.3.09-.12-.29-1.3-3.09-.13-.3.29-.15,1.51-.77.32-.16.15.33.5,1.06.49-.16-1.07-2.4-2.34.55-.29.07-.11-.28c-.52-1.27-.77-3.38-.77-3.38l-.05-.37.37-.03,1.24-.11.26-.02.1.24.53,1.3.53-.24-.41-2.52-2.63-.05h-.29s-.05-.29-.05-.29l-.69-3.61-.07-.38.39-.03,1.57-.14.29-.03.08.29.31,1.24.8-.06-.37-1.73-3.84-2.14c.04,7.01,2.25,14.49,5.76,21.27,3.61,6.98,8.59,13.21,13.99,17.42v-1.61l-.79-.63.05-.21.29-1.32.1-.47.34.21v-1.13h0Zm0,2.59v.08h-.01s.01-.08.01-.08h0Zm0,3.47c-5.64-4.27-10.86-10.73-14.61-17.98-3.62-7-5.88-14.75-5.84-21.98l-1.22-.68c0,2.82.08,7.6,3.62,17.76,3.81,10.95,12.01,19.46,14.33,21.47,1.12.97,2.31,1.94,3.25,2.67.18-.14.34-.26.48-.38v-.88Z" style="fill: #ffe100; fill-rule: evenodd; stroke-width: 0px;"/>
            <path d="m115.27,168.52h0c-1.8-1.21-3.02-3.81-5.96-9.41-3.23-6.15-4.97-11.96-4.97-11.96-1.25-4.26-3.18-12.59-3.32-22.86-.13-10.27,1.7-14.56,1.7-14.56l1.49.83c-.45,2.63-1.63,10.16-1.38,15.83.32,6.98,1.74,14.26,2.86,18.38,1.08,3.96,4.49,14.14,10.44,23.34-.29.14-.57.28-.86.42Z" style="fill: #fff; fill-rule: evenodd; stroke-width: 0px;"/>
            <path d="m104.97,111c-.38,1.66-1.19,5.82-1.43,11.98-.02.46-.03.96-.04,1.47,1.06.66,3.99,2.54,6.44,4.73,3.06,2.72,7.14,7.65,8.84,13.56,1.7,5.91,2.44,14.06-1.46,22.52,0,0-.47.95-.47,1.54,0,.06,0,.11.03.16.37.2.75.29,1.12.19.01,0,.02,0,.03,0,6.81-3.6,12.53-7.83,15.19-9.91-2.04-1.43-5.75-4.37-9.31-9.01-5.15-6.71-11.67-17.48-12.27-33.49l-6.67-3.72Z" style="fill: #e60012; fill-rule: evenodd; stroke-width: 0px;"/>
            <path d="m117.56,161.68l-1.72-2.03,2.45-1.23c-.2,1.14-.44,2.24-.73,3.26h0Zm1.26-8.2l-2.15-1.58,2.15-1.61c.04,1.07.04,2.14,0,3.19h0Zm-.53-8.03l-2.61-1.04,1.84-2.18c.32,1.04.57,2.12.77,3.21h0Zm-4.31-10.39l-.95,2.95,2.72-.08c-.54-1.02-1.14-1.97-1.77-2.87h0Zm-2.75-3.32l-2.48.5.31-2.57c.71.62,1.44,1.31,2.17,2.07h0Zm-.03,26.25c.21.45.42.89.64,1.34.23.14.53.33.88.56.87.58,1.74.96,1.8,2.12.04.8-.19,1.43-.34,1.75.07.12.13.23.2.35,0,0,.25.45.65,1,.13.05.27.08.42.07.94-.07,1.77-1.23,1.71-2.35-.06-1.13-.71-2.67-2.06-3.32-1.14-.54-3.27-1.29-3.91-1.51h0Zm-7.58-29.29c.03.53.07,1.07.11,1.63,1.79-.56,3,.71,3,1.73,0,1.07-.52,2.18-.94,2.61-.42.42-.32.79-.32.79.59-.02,2.79-2.04,2.84-4.32.05-2.28-1.79-3.41-2.98-3.38-.87.02-1.46.62-1.71.95h0Zm10.28,24.5c1.2,0,2.37,1.06,2.37,2.27s-1,2.3-2.09,2.3-2.12-.67-2.12-.67c.25,1.31,2.39,2.04,4.15,1.82,1.75-.22,2.81-2.63,2.81-3.58s-.7-1.99-1.95-2.38c-1.25-.39-2.7-.7-3.65-.7s-1.53.7-1.53.7l2.01.25h0Zm.07-6.38c2.01,0,2.33.89,2.14,2.36-.19,1.47-3.61,2.04-3.61,2.04.42.51,2.17.22,2.17.22,2.56-.38,4.54-2.11,4.09-3.99-.45-1.88-2.05-2.21-3.52-2.08-1.47.13-3.61,1.38-3.61,1.38l2.33.06h0Zm-1.42-6.42c1.14-.15,1.95.32,2.1,1.96.15,1.64-3.15,2.93-3.15,2.93,1.72.35,3.4-.77,4.17-1.49.77-.72,1.38-1.55,1.15-3.11-.23-1.55-1.6-2.42-3.15-2.19-1.55.23-3.83,2.56-3.83,2.56l2.72-.67h0Zm-6.24-3.86s1.25-3.05,3.03-3.79c1.79-.75,3.94.58,3.94,2.91s-3.33,4.4-3.77,4.4c0,0,2.02-2.03,1.92-3.52-.1-1.49-1.72-1.96-2.73-1.46-.87.44-1.5,1.18-2.39,1.46h0Zm-1.93-.75c.61.58,4.19,4.09,5.68,8.08,1.55,4.15,1.84,10.81,1.12,14.07-.59-1.26-1.14-2.5-1.64-3.74-.02-1.16-.1-3.8-.58-6.66-.59-3.53-2.79-7.4-4.01-8.55-.22-1.09-.4-2.16-.56-3.19Z" style="fill: #fff; fill-rule: evenodd; stroke-width: 0px;"/>
          </g>
          <g>
            <path d="m40.68,121.28c-.4-.6-1.35-1.71-2.87-1.78-2.08-.09-4.26,1.05-4.26,1.05,0,0-2.07-.77-3.97.3v-16.89c3.31,2.93,5.96,6.93,5.96,6.93.51.81.97,1.6,1.41,2.36,1.63.54,1.78,2.35,1.73,3.29.85,1.76,1.5,3.34,1.99,4.74Z" style="fill: #231815; fill-rule: evenodd; stroke-width: 0px;"/>
            <path d="m94.74,202.06l-.77-1.65s-15.95,5.52-36.73,1.47l-.77,1.44c3.99-.63,5.96,2.02,6.57,3.06,1.45-1.24,2.77-2.36,5.93-2.31,2.74.04,4.86,2.08,5.61,2.9.78-.97,3.12-3.58,5.99-3.67,2.73-.09,4.9,1.47,5.72,2.15,2.1-3.96,6.73-3.65,8.45-3.39Z" style="fill: #e60012; fill-rule: evenodd; stroke-width: 0px;"/>
            <path d="m103.92,221.84l-8.82-19.01c-.93-.2-6.36-1.15-8.38,3.32l-.2.45-.36-.34s-2.38-2.37-5.57-2.26c-3.16.1-5.7,3.71-5.71,3.72l-.27.38-.29-.36s-2.26-2.93-5.36-2.98c-2.91-.05-4.14,1-5.49,2.16-.12.1-.22.19-.31.27l-.35.3-.19-.42s-1.77-4.05-6.57-2.96l-9.44,17.73h57.3Z" style="fill: #ffe100; fill-rule: evenodd; stroke-width: 0px;"/>
            <path d="m100.22,213.87c-.61.05-1.73.06-2.33-.42-.84-.67-.89-1.72-.8-2.61,0,0-1.12.17-1.92-.48-.8-.65-.83-1.18-.81-2.07s1.01-1.88,2.22-1.88l.2.03.89,1.92c-.12.18-.2.41-.2.66,0,.55.36,1,.81,1,.05,0,.1,0,.15-.02l1.79,3.85h0Zm-3.48-7.5l-.9-1.94c-.98-.63-2.42-1.21-4.32-1.02-3.83.37-4.77,4.7-4.77,4.7h-.38c-.09-.26-2.08-3.64-6.03-3.32-3.95.32-5.55,4.71-5.55,4.71h-.44s-1.2-2.64-3.2-3.6c-2-.97-4.03-.6-5.74.43-1.7,1.03-3.16,2.75-3.16,2.75-.52-2.94-2.78-4.16-3.96-4.39-.67-.13-1.71-.14-2.49-.12l-1.25,2.35c1.33.23,2.31,1.15,2.31,1.15,0,0,.95-1.15,2.25-.87,1.31.28,1.76,1.67,1.76,1.67,0,0-.5-.04-1.1-.04s-2,.37-2,2.08,1.89,2.32,1.89,2.32c0,0-.92.48-.73,1.71.19,1.23,1.21,2.03,2.26,2.03s2.05-.73,2.17-1.83c.11-1.1-.26-1.58-.26-1.58,1.27.12,2.91-1,2.76-2.47-.15-1.48-1.99-2.1-1.99-2.1,0,0,.56-1.28,2.19-1.02,1.63.25,2.64,1.37,2.64,1.37.51-.7,1.64-1.5,2.91-1.36,1.27.14,1.66,1.28,1.66,1.28-.33,0-2.07.12-2.22,2.06-.14,1.94,2.22,2.4,2.22,2.4,0,0-.94.54-.61,1.72.32,1.19,1.24,1.96,2.28,1.96s2.08-.71,2.21-1.88c.13-1.17-.59-1.95-.59-1.95,1.33.21,2.62-1.04,2.6-2.08-.02-1.04-.73-2.09-1.68-2.3-.94-.21-1.75.19-1.75.19.4-.81,1.37-1.97,2.58-1.97s2.48,1.09,2.48,1.09c0,0,1.27-1.57,2.67-1.47,1.39.09,2.28,1.42,2.28,1.42-1.1-.08-2.06.58-2.28,1.27-.22.69-.19,1.82.49,2.57.69.75,2.17.69,2.17.69-.19,2.51,1.24,2.93,2.09,2.93s2.2-.41,2.25-2.01c.05-1.6-1.2-2.25-1.2-2.25,1.18.05,1.98-1.13,1.98-2s-.56-2.29-1.9-2.34c-1.35-.05-1.86.7-1.86.7.46-1.2,1.54-1.98,2.41-2,.87-.02,2,.53,2,.53,0,0,1.52-.99,2.65-.92,1.13.07,2.17.77,2.17.77l.02-.02h0Zm-42.96,1.99c.45.25,1.09.78,1.2,1.88.19,1.74-1.92,2.88-3.18,2.07,0,0,.41,1.18-.04,2.11-.37.77-1.19,1.13-1.87,1.23l3.88-7.29h0Zm33.64,3.7c-.53,0-.97-.45-.97-1.01s.43-1.01.97-1.01.97.45.97,1.01-.43,1.01-.97,1.01h0Zm-12.44,1.18c-.53,0-.97-.45-.97-1s.43-1.01.97-1.01.97.45.97,1.01-.43,1-.97,1h0Zm-13.48-.27c-.53,0-.97-.45-.97-1s.44-1.01.97-1.01.97.45.97,1.01-.44,1-.97,1Z" style="fill: #231815; fill-rule: evenodd; stroke-width: 0px;"/>
            <path d="m60.74,192.43l-.2.1s.18-1.15-.74-1.17c-.91-.03-.91.79-1.14,1.2-.23.41-.63.25-.61,0,.03-.25.08-.92.66-1.45.58-.53,1.39-.43,2.03.05.63.48.2,1.04,0,1.27h0Zm1.11-.15l-.2.05.03-1.58s1.24.53,1.24.81-.56.64-1.06.71h0Zm16.64-16.33l-.1.23-.62-.35s1.05-2.31,1.7-4.24c.65-1.93-1.08-2.21-1.77-1.13-.7,1.08-1.55,3.82-1.55,3.82l-.5-.28s.6-2.16,1.25-3.24c.65-1.08,1.32-1.45,1.97-1.48.65-.02,1.57.65,1.32,1.96-.25,1.31-1.7,4.72-1.7,4.72h0Zm-8.62.04l.63-.19s-.63,1.18-.7,2.26c0,0-.7-.8-1.21-.7-.51.1-.92.77-1.62.77s-.67-.58-1.27-.58-1.05.22-1.43.38c-.38.16-.86-.57-1.46-.57s-1.14.19-1.14.19c0,0-.32,0-.32-.76s-.09-1.82-.09-1.82c0,0,.79,1.37,1.62,1.37s1.2-.61,1.81-.61.98.16,2,.48c1.02.32,2.22.03,3.17-.22h0Zm24.06,21.99c.29-1.38,1.32-6.19,2.79-11.04,1.75-5.75,2.98-8.42,3.96-10.15.98-1.73,2.2-2.75,3.46-2.68,1.25.07,1.36,1.42,1.36,2.03s-.27.81-.51.81-.24-.37-.2-.85c.03-.47.13-1.56-.98-1.39-1.12.17-2.3,1.42-2.3,1.86,0,0-.14.85,1.32,1.9,1.46,1.05,2.58.88,3.7-.75,1.12-1.63.83-4.39-.76-4.97-1.6-.58-3.47-.15-4.98,1.36-1.51,1.51-2.92,3.62-5.04,10.06-1.75,5.29-2.86,11.93-3.2,14.13.56-.13,1.03-.24,1.41-.34h0Zm-1.93.46c-.43.1-.91.2-1.42.3.85-7.49,2.92-15.87,5.04-20.42,2.17-4.65,5.59-7.76,7.22-7.76s1.8,1.35,1.8,1.35c-1.17.05-2.84.45-4.78,2.44-1.94,1.99-4.01,7.4-5.45,12.09-1.19,3.9-2.13,10.04-2.41,12h0Zm-1.87.4c-.52.11-1.08.21-1.67.33.1-1.75.52-5.99,2.49-13.23,2.28-8.38,4.28-11.46,6.1-13.89s3.95-1.28,3.95-1.28c-4.68,3.32-6.9,9.43-8.56,15.54-1.38,5.05-2.09,10.73-2.3,12.53h0Zm-2.16.42c-.57.1-1.16.2-1.78.31.23-1.72.75-5.19,1.82-10.44,1.6-7.85,4.29-14.06,6.35-16.62,2.06-2.55,3.29-1.81,3.29-1.81-3.95,3.63-6.48,12.46-7.67,16.46-.98,3.3-1.77,9.89-2.02,12.11h0Zm-2.3.39c-.44.07-.88.14-1.34.2l.72-5.29c1.95-10.32,3.3-13.77,5.45-18.72,2.15-4.95,4.53-4.68,4.53-4.68-4.22,3.65-6.34,12.97-7.47,17.71-.92,3.87-1.65,9.03-1.89,10.79h0Zm-1.79.27c.13-1.4.6-5.95,1.34-9.55.88-4.32,3.57-13.76,6.4-17.64,0,0-2.54.49-4.78,7.4-2.14,6.59-4.19,16.43-4.32,19.97.46-.06.92-.12,1.36-.19h0Zm-1.81.24c.18-1.87.81-7.81,1.76-11.86,1.15-4.87,3.52-11.04,4.57-13.1,0,0-2.52,2.56-4.17,6.9-1.58,4.17-3.87,14.01-3.94,18.27.6-.06,1.19-.13,1.77-.21h0Zm-2.47.28c.23-1.56.99-6.52,1.87-10.75.87-4.21,2.66-10.25,5.64-13.79-.08-.77-.35-1.45-1.05-1.49-.86-.04-1.15.45-1.81,1.8-.66,1.35-2.07,5.26-2.07,5.26l-.51-.4s1.45-3.62,2.29-5.38c.84-1.76,1.7-2.12,2.55-1.77.69.28.95,1.17,1.02,1.5.16-.18.33-.34.5-.5-.16-.82-.66-2.48-2.06-2.43-1.85.07-3.14,3.42-3.6,4.41-.46.99-1.18,3.09-1.18,3.09l-.48-.38s1.59-4.15,2.57-5.6c.98-1.46,2.08-2.09,2.84-2.09s1.36.47,1.78,1.2c.28.48.45,1.1.53,1.45.24-.2.48-.37.72-.54-.02-1.92-2.1-4.02-4.09-3.63-1.99.39-3.48,4.35-3.98,5.87-.5,1.52-.56,2.13-.83,2.13s-.39-.25-.27-.72c.12-.47.95-2.6,1.42-3.61.47-1.01,1.41-2.47,1.41-2.47,0,0,.44-3.18-1.42-4.86-1.86-1.68-4.64-1.65-6.17,1.38-1.53,3.02-1.41,3.76-1.41,3.76,0,0-.58.12-.49-.27.09-.4.33-1.28.73-2.29.4-1.01.82-1.83.82-1.83,0,0,.3-1.74-.31-3.42-.61-1.68-2.78-2.84-4.11-2.43-1.33.42-3.62,1.87-4.8,7.35,0,0-5.96.93-7.26,7.01,0,0-.27,1.09-.54,3.36.34-.39.84-.87,1.28-.95.75-.13,1.63-.05,2.56.47,1.02.51,1.63.51,2.61.88.67.26.41,1.25-.21,1.35-.62.1-.96-.21-1.6-.55-.65-.34-1.3-1.12-2.67-1.12s-1.58.65-1.47,1.04c.1.39.65,1.2,1.11,1.46.47.26.03.34-.31.26-.29-.07-1.07-.71-1.48-1.14-.04.39-.07.81-.1,1.25-.13,1.81-.3,5.24-.44,8.59.8-.23,1.67-.92,2.85-.92,1.33,0,2.59.35,2.59.35l-2.61-2.61.12-.54,2.48,1.6s-.7-2.94-.7-4.03.76-1.94,1.48-2.36c.72-.43,1.54-1.24,1.54-1.24.12,1.7-1.64,2.15-2.09,2.66-.45.52-.18,1.64.26,3.64.44,1.99,1.2,5.31,1.2,7s-.27,3.68-.27,3.68c0,0-1.51-.27-2.57-.27s-1.11.4-2.04.4c-.86,0-1.46-.49-2.52-1.09-.04,1.19-.08,2.09-.09,2.51,7.81,1.6,16.01,1.46,22.8.77h0Zm-9.84-5.73l-1.92.07s1.37-.85,1.4-1.27c.03-.42-.62-.62-.62-1.2s.52-1.72,1.56-2.83c1.04-1.11,1.92-1.72,2.31-1.59.39.13-.2.59-.71,1.04-.52.46-.91.94-.91.94,0,0,2.86.07,3.41.1.55.03,1.62,1.07,2.31,1.3.68.23,1.17.06,1.76.06s1.2,1.04,1.2,1.04c0,0-1.01.71-1.63,1.49-.62.78-1.56,1.63-3.25,2.05-1.69.42-4.13.58-4.91-1.2h0Zm-1-8.28l-.66-.43s.97-.86,1.09-1.91c.12-1.05-.58-1.29-1.48-1.25-.9.04-1.44,1.01-2.06,1.17-.62.16-1.13-.2-1.13-.54s.58-.62,1.36-.9c.78-.27,1.05-.86,1.95-.86s2.22.35,2.22,1.83-.62,2.42-1.29,2.88h0Zm3.95-15.64l-.22.41-.55-.38s.93-1.46,1.4-3.08c.47-1.62-.44-4.15-1.87-4.25-1.43-.11-3.4,1.15-3.9,5.55l-.69-.28s.19-1.98,1.56-3.96c1.38-1.98,2.77-2.09,3.76-1.67.99.41,1.68,1.48,1.73,3.16s-.71,3.35-1.24,4.5h0Zm-1.37-.36l-.52-.14s.88-1.59,1.1-2.94c.22-1.35-.44-2.12-1.02-2.12s-1.29,1.54-1.68,2.77c-.38,1.24-.41,1.46-.41,1.46l-.6-.25s.52-2.06,1.18-3.21c.66-1.15,1.35-1.43,1.76-1.43s1.26.88,1.26,1.89c0,1.13-.48,2.97-1.07,3.96h0Zm3.98,22.16h-.39l.03-1.69,1.43.98s.07.46-1.07.72h0Zm-12.41,1.94l.42-.42-.32,2.38s-2,.25-3.36.28c-1.07.03-2.11-.09-2.67-.63l.03-1.34c.45.38,1.29.98,2.22,1.1,1.37.17,2.52-.14,3.68-1.37h0Zm16.64-17.53c1.01-2.14,2.23-5.51,2.21-6.68-.02-1.16-.64-2.66-1.96-3.09-1.31-.42-2.49.11-3.41,1.39-.91,1.28-1.93,4.08-1.93,4.08l.5.43s.32-1.17,1.37-3.31c1.05-2.15,2.32-2.68,3.69-1.72,1.37.95,1.42,2.7.66,4.74-.76,2.04-1.82,4.11-1.82,4.11l.55.4.13-.34h0Zm-15.58-8.08c-.25.09-.49.19-.73.3-.2-.71-.78-2.69-1.19-3.55-.51-1.06-1.23-1.42-2.01-1.42s-2.07,1.3-2.07,2.51c0,1.11,1,4.26,1.43,5.45-.21.29-.41.59-.59.92,0,0-1-3.33-1.4-4.77-.4-1.44-.36-2.32-.36-2.32,1.16-4.25,3.81-3.61,5.09-2.17s1.84,5.05,1.84,5.05h0Zm9.56,23.5c-.03-.39-.16-1.11-.78-1.04-.62.07-1.11.94-1.17,1.2-.06.26-.46.13-.46.13-.26-1.79.58-2.31,1.79-2.18,1.2.13,1.43,1.92,1.43,1.92l-.81-.03h0Zm-3.31,0c-.26,0-.49-.33-.49-.58s.62-.88.62-.88l.03,1.37-.16.1h0Zm-11.23,1.72l3.96-.88s-.7,1.93-2.31,2.21-2.87-.28-3.29-.98c0,0,.42-.14,1.65-.35h0Zm-1.27-2.36v.18s-.08.36-.43.36-.25-.58-.1-.64c.15-.05.35-.05.53.1h0Zm27.89-15.42c.25-.51-.07-.54-.33-.51-.25.04-2.78,7.27-2.78,7.27l.43.07,2.67-6.83h0Zm-28.55-7.79c.11.38.21.75.31,1.13-2.98.17-2.93,2.36-2.76,3.67.17,1.33.99,3.43,1.31,4.19.32.76.69,1.48,1.01,1.46.32-.02.15-.54.15-.54l-.86-1.63c-.64-1.41-1.28-3.65-.99-5.18.24-1.24,1.76-1.3,2.33-1.28.09.32.17.65.26.97-2.37.46-1.84,2.46-1.45,3.61.33.96,1.1,2.04,1.37,2.4-.21,1.32-.4,2.95-.52,4.82-.16,2.66-.31,4.96-.42,6.57-.34-.61-.95-1.93-1.27-4.02-.43-2.82-.41-3.79.05-5.13l.78,1.56.37-.27s-2.66-5.16-2.92-7.21c-.26-2.05-.66-4.63,3.24-5.11h0Zm-.31,21.05c-1.54-1.95-1.95-5.45-2.03-7.6-.07-1.72.2-2.97.33-3.5l-.66-1.32s-.64,2.84-.37,6.69c.27,3.85,2.62,7.33,2.62,7.33,0,0,.04-.58.11-1.6h0Zm2.94-17.8c-.18-.6-.51-1.73-.89-3.11-.57-2.05,0-3.99,1.53-3.96,1.18.02,2.05,3.24,2.38,4.7-.25.12-.49.25-.72.39-.13-.67-.29-1.44-.39-1.83-.21-.78-.69-1.39-1.44-1.39s-1.08.72-.66,2.26c.23.83.5,1.72.7,2.36-.17.18-.34.37-.5.57h0Zm.86-.91c-.27-.67-.61-1.57-.69-2.11-.15-.94.06-1.6.33-1.66.27-.06.63.12.87.94.14.5.34,1.42.46,2.07-.34.23-.67.49-.97.77h0Zm6.42,26.93l-.29.03s.36-.58.36-1.27.07-1.88.07-1.88c0,0,.39.36.39.68s.2,1.14.52,1.14,2.8.1,3.12.1,1.62.49,2.83.65c1.2.16,3.09.45,5.11-1.69,0,0,.36.16.36.68s-.78,1.14-1.69,1.56c-.91.42-2.6.98-4.06.94-1.46-.03-2.89-.78-4.13-1.01-1.24-.23-1.79-.16-2.57.06h0Zm-.65-23.61c-.82,0-1.36-.06-2,.19-.63.25-1.37.67-1.37.96s.13.48.51.32c.38-.16,1.36-.77,2.13-.77s1.21.42,1.87.54c.67.13.92-.54.57-.64-.35-.09-1.14-.41-1.14-.41l-.57-.19h0Zm-8.39-2.54c.18.64.37,1.27.59,1.91,0,0-.32,1.11-.66,3.06-.18-.23-.61-.86-.95-1.67-.42-1.01-.86-3,1.01-3.3h0Zm14.26,10.18l.12.18s.31.4,1.14.43c.83.03,1.7-.83,1.66-1.97-.03-1.14-1.02-2.68-2.19-2.71-1.17-.03-2.31.49-3.08,1.08-.77.59-1.42.62-1.94.62s-1.2.34-1.2.53.15.71,1.02.71,1.94-.4,2.68-.99c.74-.58,1.63-1.08,2.34-1.08s1.6.34,1.7,1.29c.09.96-.22,1.85-1.08,1.82-.86-.03-1.17.09-1.17.09h0Zm-.66,12.32c2.53-.1,6.5-1.95,6.5-1.95.16,1.66-3.12,3.45-5.4,3.45s-2.73-1.5-2.73-1.5h1.63Z" style="fill: #fff; fill-rule: evenodd; stroke-width: 0px;"/>
            <path d="m89.31,166.32l.21-.21s.65.2.76,1.37c.11,1.17-.99,2.2-2.11,2.24-1.12.05-2.98-.6-3.79-4.5,0,0-.29-.16-.74.11-.45.27-1.03.29-1.46-.07-.43-.36-.43-.63-.43-1.08s1.14-.87,1.64-1.6c.51-.73.49-1.2.44-2.26-.04-1.06-.15-1.48-.15-1.48,0,0,1.46,1,1.75,2.55.29,1.55.68,3.5,1.47,4.69.79,1.19,1.97.77,2.39.24h0Zm-11.71-7.25l.74-.29s-.96,1.3-1.79,2.15c-.83.85-1.46.9-2.04.74-.58-.16-1.01-1.03-.7-2.91,0,0,.34-.14.58.22.25.36.38.67.99.67s1.34-.16,2.22-.58h0Zm6.4-1.53c1.03,0,1.87-.84,1.87-1.87h0c0-1.03-.84-1.87-1.87-1.87h-1.07v-1.87c0-1.02-.83-1.85-1.84-1.85h0c-1.02,0-1.85.83-1.85,1.85v1.87h-1.07c-1.03,0-1.87.84-1.87,1.87h0c0,1.03.84,1.87,1.87,1.87h1.07v1.87c0,1.02.83,1.85,1.85,1.85h0c1.01,0,1.84-.83,1.84-1.85v-1.87h1.07Zm-2.92-.51c-.75,0-1.36-.61-1.36-1.36s.61-1.36,1.36-1.36,1.36.61,1.36,1.36-.61,1.36-1.36,1.36h0Zm0-.33c-.56,0-1.02-.46-1.02-1.02s.46-1.02,1.02-1.02,1.02.46,1.02,1.02-.46,1.02-1.02,1.02h0Zm2.47-4.62c.21-.89.42-1.62.31-2.87-.1-1.25-1.35-1.43-1.35-1.75s.36-1.41,1.82-.99,2.19,2.45,1.56,3.99c-.63,1.54-1.72,2.11-2.03,2.11s-.47-.26-.47-.26l.16-.23h0Zm-5.55-2.27l.1,1.75s.13.6.13.83-.63.31-1.07-.1c-.44-.42-1.17-1.82-1.2-3.07-.03-1.25.55-2.45,1.67-2.53,1.12-.08,1.69.57,1.69,1.15s-1.33.83-1.33,1.98h0Zm3.98-11.11v-.53s-.16-1.32-.16-2.58.2-2.18,1.31-3.1c1.12-.92,1.41.2,1.02.79-.4.6-.4,1.32-.4,3.01s.03,3.11,0,3.86c-.03.76-.33,2.45-2.3,2.58-1.97.13-2.92-1.22-2.92-3.07s-.07-4.66-.07-5.35-.62-1.22-.62-1.55.3-.63.76-.63,1.35.99,1.68,1.82.26,2.08.26,3.3-.13,2.25.56,2.28c.69.03.89-.4.89-.83Z" style="fill: #ffe100; fill-rule: evenodd; stroke-width: 0px;"/>
            <path d="m70.32,161.07c1.14-2.7,6.22-15.35,6.85-27.35h-6.82s-3.67,16.01-10.59,28.49c.84-.06,1.52.13,2.08.46,1.35-3.01,5.41-12.2,7.02-17.38,1.94-6.25,2.64-10.14,2.64-10.14h4.08c0,1.86-1.47,8.9-3.83,16.33-1.57,4.94-3.06,8.94-3.89,11.07.91-.79,1.73-1.25,2.47-1.47Z" style="fill: #ffe100; fill-rule: evenodd; stroke-width: 0px;"/>
            <path d="m64.46,168.4c.42-.81,2.03-3.87,2.54-5.06.59-1.38,1.95-5.28,3.68-10.42,1.73-5.13,3.93-13.97,4.13-17.06h-2.59s-.69,3.11-1.6,6.2c-.9,3.04-3.67,11.1-8.27,20.97.8.7,1.26,1.69,1.49,2.42.26.79.49,2.05.63,2.94Z" style="fill: #e60012; fill-rule: evenodd; stroke-width: 0px;"/>
            <path d="m50.04,166.79l.03,2.7s1.02-.45,2.65-1.06c1.63-.61,1.98-.89,2.46-1.48.47-.6.39-1.53-.25-1.94-.65-.41-1.09-.12-1.45.17,0,0-.17.17-.32.05,0,0,.44-.63.94-1.03.5-.4,1.01-.51,1.01-.51l-1.63-1.09s.15.45-.17,1.3c-.32.85-.56,1.12-.59,1.08,0,0,.41-1.03-.19-1.61-.6-.58-1.46-.46-1.99.37-.53.83-.61,1.43-.48,3.05h0Zm5.64-8.26l.37,2.68s.95-.58,2.49-1.39c1.54-.81,1.85-1.13,2.24-1.79.39-.65.2-1.57-.5-1.89-.69-.32-1.09.02-1.41.36,0,0-.14.19-.31.09,0,0,.36-.69.81-1.15.45-.46.93-.64.93-.64l-1.75-.87s.2.43,0,1.31c-.21.88-.41,1.18-.45,1.15,0,0,.28-1.08-.4-1.57-.67-.5-1.5-.27-1.93.62-.42.89-.42,1.5-.09,3.09h0Zm4.21-9.01l.69,2.61s.87-.69,2.3-1.67c1.43-.99,1.7-1.34,2.01-2.03.31-.69,0-1.58-.72-1.81-.72-.24-1.08.15-1.36.52,0,0-.12.21-.3.12,0,0,.27-.72.66-1.23.39-.51.85-.74.85-.74l-1.84-.66s.25.4.15,1.3c-.1.9-.27,1.22-.31,1.19,0,0,.15-1.1-.58-1.51-.73-.41-1.52-.09-1.84.84-.32.93-.24,1.53.27,3.07h0Zm3.3-9.65l1.07,2.48s.76-.81,2.02-2c1.26-1.19,1.48-1.58,1.69-2.31.2-.73-.23-1.56-.98-1.68-.75-.12-1.04.31-1.26.72,0,0-.09.22-.27.17,0,0,.16-.75.47-1.31.31-.56.73-.86.73-.86l-1.92-.38s.31.36.35,1.26c.04.9-.08,1.24-.13,1.23,0,0-.02-1.11-.8-1.41-.78-.3-1.52.14-1.69,1.11-.17.97,0,1.55.73,2.99h0Zm1.53-10.19l1.42,2.29s.63-.91,1.71-2.27c1.07-1.36,1.23-1.78,1.33-2.53.09-.76-.45-1.51-1.22-1.52-.76-.01-.99.46-1.15.89,0,0-.05.23-.25.2,0,0,.05-.77.27-1.37.22-.6.59-.96.59-.96l-1.95-.09s.36.31.53,1.2c.17.88.1,1.24.06,1.23,0,0-.18-1.09-1-1.28-.82-.18-1.48.36-1.51,1.35-.03.98.22,1.54,1.16,2.85h0Zm.31-9.57l1.77,2.04s.48-1,1.32-2.52c.84-1.52.93-1.96.9-2.72-.03-.76-.69-1.42-1.45-1.31-.75.11-.9.62-.99,1.07,0,0-.02.24-.21.24,0,0-.08-.77.05-1.4.12-.63.43-1.04.43-1.04l-1.94.23s.41.25.71,1.1c.31.85.3,1.21.25,1.21,0,0-.35-1.05-1.19-1.1-.83-.05-1.4.6-1.27,1.57.13.98.46,1.48,1.61,2.63h0Zm-1.09-9.82l1.85,1.96s.44-1.02,1.22-2.57c.78-1.55.85-2,.79-2.75-.06-.76-.75-1.39-1.5-1.25-.75.14-.87.65-.94,1.1,0,0,0,.24-.2.25,0,0-.11-.76,0-1.39.1-.63.39-1.06.39-1.06l-1.93.3s.42.23.76,1.07c.34.83.35,1.2.3,1.2,0,0-.4-1.04-1.23-1.05-.83-.02-1.38.65-1.21,1.62.17.97.52,1.46,1.71,2.56h0Zm-2-9.67l2.16,1.62s.26-1.08.77-2.74c.5-1.66.5-2.11.32-2.84-.19-.74-.97-1.24-1.69-.97-.71.26-.75.79-.74,1.25,0,0,.04.24-.16.28,0,0-.23-.73-.24-1.38-.01-.64.2-1.11.2-1.11l-1.85.63s.45.16.93.92c.48.76.55,1.12.5,1.13,0,0-.57-.95-1.39-.82-.83.13-1.25.88-.92,1.8.33.93.76,1.35,2.12,2.24h0Zm-3.1-8.38l2.3,1.42s.16-1.1.51-2.8c.35-1.7.31-2.15.06-2.86-.25-.72-1.08-1.15-1.77-.82-.69.33-.68.85-.63,1.31,0,0,.06.23-.13.3,0,0-.3-.71-.37-1.35-.07-.64.1-1.13.1-1.13l-1.79.79s.46.12,1.01.84c.55.72.65,1.07.6,1.08,0,0-.65-.9-1.46-.7-.81.2-1.16.99-.75,1.88.41.89.88,1.28,2.31,2.03h0Zm-3.79-7.86l2.3,1.42s.16-1.1.51-2.8c.35-1.7.31-2.15.06-2.86-.25-.72-1.08-1.15-1.77-.82-.69.33-.68.85-.63,1.31,0,0,.06.23-.13.29,0,0-.3-.71-.37-1.35-.07-.64.1-1.12.1-1.12l-1.79.79s.46.12,1.01.84c.55.72.65,1.07.6,1.08,0,0-.65-.9-1.46-.69-.81.2-1.16.99-.75,1.88.41.89.88,1.28,2.31,2.03Z" style="fill: #fff; fill-rule: evenodd; stroke-width: 0px;"/>
            <path d="m93.54,171.1c.48-.22.97-.43,1.46-.64.21-.09.4-.16.59-.21-3.22-5.37-5.94-15.22-7.03-20.69-1.27-6.36-1.8-14.14-1.8-14.14h5.16c.82,14.22,7.46,28.49,8.36,30.63.44,1.06,1.14,2.74,1.72,4.16.05.03.07.04.07.04,2.74-.54,3.33,1.96,3.33,1.96.28-.07.57-.15.85-.23-1.26-1.8-4.63-6.94-6.72-12.86-2.61-7.38-4.95-14.86-6.17-25.11h-7.99s.09,9.64,1.39,16.33c1.21,6.23,3.82,16.12,6.76,20.75Z" style="fill: #ffe100; fill-rule: evenodd; stroke-width: 0px;"/>
            <path d="m96.22,170.11c1.22-.18,1.88.28,1.88.28,1.43-.82,2.67-.64,3.37-.41-.8-1.68-3.7-7.85-4.88-11.13-1.37-3.83-5.3-16.63-5.3-22.61h-3.65s.27,7.24,2.46,17.27c1.76,8.05,4.59,14.26,6.12,16.6Z" style="fill: #e60012; fill-rule: evenodd; stroke-width: 0px;"/>
            <path d="m40.85,156.12c2.25-2.77,6.48-8.74,9.61-17.68l-3.78-2.07s.17,5.03-5.82,4.92v14.83Z" style="fill: #e60012; fill-rule: evenodd; stroke-width: 0px;"/>
            <path d="m56.01,146.83l-1.27-3.45c-.42,1.12-.97,2.46-1.68,3.95l.69,4.15c.91-1.71,1.66-3.29,2.26-4.66h0Zm-5-8.47c-.82,2.6-3.92,11.46-10.17,18.65v2.44c6.26-7.21,9.94-15.95,11.52-20.3l-1.36-.79h0Zm-10.17,22.15c1.04-1.16,2.02-2.37,2.93-3.59l2.78.02c-.92,1.26-1.92,2.54-3.03,3.83h-.08s-2.6-.25-2.6-.25h0Zm0,.71v2.47c.74-.76,1.44-1.52,2.11-2.27l-2.11-.2h0Zm0,3.47c.79-.79,1.54-1.59,2.26-2.38l.13,3.65c-.19.19-.38.38-.58.57-.69-.52-1.31-1.03-1.81-1.53v-.31h0Zm2.38,2.25c.23-.23.46-.46.69-.68h.03s0-.02,0-.02c9.1-9.19,13.42-20.57,14.45-23.57l1.28.75c-2.7,10.17-11.09,19.41-12.29,20.73-1.02,1.12-2.8,2.87-3.32,3.38-.29-.19-.57-.38-.84-.58h0Zm14.55-24.63c-.23.69-.68,1.94-1.37,3.58l-1.29-3.53c.18-.52.33-.97.44-1.35l2.22,1.3h0Zm-2.84-1.66c-.11.37-.26.83-.44,1.35l-2.72.57c.48-1.16.88-2.2,1.2-3.07l1.96,1.14h0Zm-.72,2.12c-.43,1.17-1.01,2.61-1.78,4.24l-2.75.14c.67-1.35,1.25-2.62,1.76-3.8l2.78-.58h0Zm-1.01,9.71c-.66,1.2-1.4,2.46-2.22,3.74l-.63-3.8c.83-1.41,1.55-2.75,2.17-4l.67,4.06h0Zm-1.11-4.75c-.61,1.24-1.32,2.59-2.14,4h0l-2.78.06c.79-1.33,1.51-2.65,2.16-3.92l2.77-.14h0Zm-1.67,9.35c-.89,1.35-1.87,2.72-2.94,4.08l-.08-4.21c.89-1.23,1.69-2.45,2.41-3.62l.62,3.75h0Zm-.89-4.64c-.74,1.23-1.57,2.5-2.49,3.8h0l-2.77-.03c.88-1.23,1.71-2.48,2.46-3.72l2.8-.06h0Zm-2.74,9.57c-.9,1.1-1.87,2.19-2.89,3.25l-.13-3.73c1.07-1.23,2.04-2.45,2.94-3.65l.08,4.13h0Zm-2.12,5.9s.05.03.07.05l-.07-.05h0Zm.13.08c.19.12.38.24.58.36,0,0,0,0,0,0-.19-.12-.39-.24-.58-.36Z" style="fill: #ffe100; fill-rule: evenodd; stroke-width: 0px;"/>
            <path d="m31.53,203.02l4.16,4.6,4.21-3.91-.06-62.6s-1.97-.09-4.07-.23c.32,2.33.72,5.73.72,8.32,0,2.75-.33,5.35-.98,9.15-.65,3.81-.39,6.02-.39,7.11s.59,3.26,1.13,5.18c.54,1.92,1.12,4.36,1.12,6.05s0,3.9-.56,5.84c-.56,1.95-.79,4-.97,6.32-.18,2.33.3,10.04.3,10.04h-1v-10.16c0-3.69.58-5.81.83-8.19.25-2.38.25-5.92-.41-8.02-.65-2.1-1.49-5.69-1.62-8.42-.13-2.73.28-4.12.6-7.69.33-3.57.85-7.69.27-11.69-.29-2.01-.73-3.26-1.1-4-.74-.07-1.42-.14-1.93-.22l-.25,62.53Z" style="fill: #fff; fill-rule: evenodd; stroke-width: 0px;"/>
            <path d="m29.59,137.08l12.95.79v-2.62c0-.78.77-1.57,1.54-1.6.77-.03,1.84.91,1.95,1.88.11.96.22,5.03-3.82,5.03-3.27,0-10.12-.73-12.62-1.01v-2.47Z" style="fill: #ffe100; fill-rule: evenodd; stroke-width: 0px;"/>
            <path d="m32.81,129.87l.68-.25s.41-.14.94-.31c-.14.28-.23.54-.28.79-.06.37-.02.7.13.98h0c.15.28.4.5.75.63.11.04.22.07.35.09-.66.46-1.43.38-2.02.56-.63.19-1.69,1.12-1.91,1.7-.22.58-1.28.25-1.31-.82-.03-1.07.38-2.57,2.67-3.37h0Zm2.62-.87h.02c-.35.46-.56.87-.61,1.21-.04.21-.02.39.06.53h0c.07.13.2.24.38.31.18.07.41.1.68.09.58-.91,1.11-2.42.62-2.4-.22,0-.66.12-1.14.26h0Zm-2.13.1c.43-.18.89-.33,1.34-.47-.06-.09-.11-.19-.16-.29-.13-.34-.17-.74-.11-1.17.07-.49.26-1.03.58-1.53-.46.01-.81.08-.81.08-3.51.88-4.12,1.91-4.14,3.01-.02,1.1.19,1.43.85,1.37.66-.06,1.7-.59,1.7-.59l.74-.39h0Zm2.48-3.43c.26.04.51.11.71.23.82.47.24,2.19.24,2.19,0,0-.58.12-1.34.33-.11-.08-.2-.2-.25-.34-.09-.22-.11-.51-.07-.82.07-.51.31-1.07.7-1.59h0Zm-4.08-2.24l.61-.2s.77-.28,1.54-.3c.14,0,.29,0,.45,0-.29.59-.28,1.08-.05,1.52.12.24.3.45.52.65-.15,0-.3,0-.45,0-.88,0-2.26.72-2.76.91-.5.2-1.49-.5-1.49-1.08s.52-1.19,1.62-1.5h0Zm3.35-.42c-.3.48-.33.83-.18,1.12.18.35.61.67,1.16,1.03.09,0,.14.01.14.01,0,0,.61-.78.06-1.5-.29-.38-.72-.57-1.17-.67h0Zm-2.67-.41l-.86.22s-.69-.08-.74-.78c-.06-.69.61-1.11,1.16-1.19.21-.03.58-.09.99-.05-.15.58-.15,1.33-.13,1.7-.17.03-.31.06-.42.09h0Zm1.23-1.63c.45.2.87.59,1.09,1.35,0,0-.59.03-1.2.09,0-.36,0-1,.11-1.44h0Zm.94,14.76c-.17-.51-.83-1.28-1.33-1.3-.75-.04-1.32.23-1.32.23,0,.76,2.65,1.07,2.65,1.07h0Zm4.5-4.61l.38-.04s-.84.96-2.55,1.46c-1.71.49-3.51-.26-4.61,1.25,0,0,.98-.05,1.66.33.68.38,1.12,1.67,1.12,1.67h4c.7,0,2.2-1.03,2.5-3.62.3-2.59.07-5.03-.38-7.34-.45-2.31-1.53-4.77-3.3-4.77s-3.51.69-3.51.69c0,0,.6,2.01,1.98,2.43l1.17-.84s-.09,2.46-.09,2.91.63,1.38,1.14,1.62c0,0-1.23,1.83-1.08,3.18,0,0,.18,1.11,1.56,1.08Z" style="fill: #fff; fill-rule: evenodd; stroke-width: 0px;"/>
            <path d="m37.63,116.53s-.56-1.25-1.89-1.16c-1.33.09-1.92,1.5-1.42,2.58,0,0-.92-.48-1.06-1.52-.13-1.04.61-2.36,1.74-2.47,1.17-.12,2.9.66,2.64,2.56h0Zm-1.65,2.36c2.15-.16,2.71-2.36,2.1-4.01-.74-1.63-2.55-2.04-3.7-1.7-1.15.34-2.17,1.75-1.89,3.33.27,1.59,1.96,2.49,3.5,2.38Z" style="fill: #ffe100; fill-rule: evenodd; stroke-width: 0px;"/>
            <path d="m42.19,128.46c0-.96-.19-5.11-3.5-11.92.04-.94-.1-2.75-1.73-3.29-.43-.76-.9-1.55-1.41-2.36,0,0-2.65-4-5.96-6.93v-1.38c3.8,3.57,7.01,7.83,9.42,12.55,2.21,4.34,3.74,9.07,4.41,14.02l-1.23-.69h0Zm-12.6-26.83c4.06,3.71,7.5,8.2,10.04,13.18,2.33,4.57,3.91,9.55,4.55,14.76l.51.29-.32-1.52-.08-.39.4-.03,1.49-.11.29-.02.07.29.31,1.23.89-.08-.56-2.94-2.64-.05h-.29s-.05-.3-.05-.3l-.5-3.08-.04-.26.24-.11,1.1-.5.33-.15.13.34.56,1.39.62-.05c-.08-.58-.28-1.72-.57-2.57l-2.33.55-.28.07-.12-.26-1.35-3.02-.16-.35.37-.12,1.15-.38.29-.1.13.28.48,1.02.9-.46-1.05-2.5-2.27.68-.28.09-.13-.27-1.53-3.08-.16-.31.31-.16,1-.5.25-.13.18.22.85,1.06.61-.51-1.13-1.66-2.58.98-.28.1-.15-.26-1.64-2.81-.19-.32.33-.17,1.5-.75.27-.14.17.25.29.42.39-.34-1.17-1.56-2.22,1.65-.29.22-.21-.3-2.02-2.94-.18-.26.25-.2,1.2-.99.27-.22.22.26.69.81.59-.55-1.6-2.05-1.95,1.52-.22.17-.22-.18-2.23-1.83-.26-.21.2-.27,1.16-1.52.23-.3.28.26.88.81.37-.47-2.18-2-1.97,2.04v1.69h0Zm0-2.69l1.71-1.77.24-.25.25.23,2.67,2.45.24.22-.2.25-.8,1.03-.23.3-.28-.26-.88-.81-.72.94,1.75,1.43,2.01-1.56.28-.21.22.28,2,2.58.19.25-.23.22-1.09,1.02-.27.25-.24-.28-.7-.82-.68.57,1.63,2.38,2.21-1.64.28-.21.21.28,1.57,2.1.19.26-.24.21-.92.82-.3.26-.23-.33-.34-.5-.9.45,1.3,2.23,2.56-.97.26-.1.16.23,1.47,2.14.18.26-.25.2-1.13.94-.27.23-.22-.28-.89-1.12-.44.22,1.25,2.51,2.29-.69.3-.09.12.29,1.3,3.09.13.3-.29.15-1.51.77-.32.16-.16-.33-.5-1.06-.49.16,1.07,2.41,2.34-.55.29-.07.11.28c.51,1.27.77,3.38.77,3.38l.05.37-.37.03-1.24.11-.26.02-.1-.24-.53-1.3-.53.24.41,2.52,2.63.05h.29s.05.29.05.29l.69,3.61.07.38-.39.03-1.57.14-.29.03-.07-.29-.31-1.24-.8.06.37,1.73,3.84,2.14c-.04-7.01-2.25-14.49-5.76-21.27-3.61-6.98-8.59-13.21-13.99-17.42v1.61l.79.63-.05.21-.29,1.32-.1.47-.34-.21v1.13h0Zm0-2.59v-.08h.01s-.01.08-.01.08h0Zm0-3.47c5.64,4.27,10.86,10.73,14.61,17.98,3.62,7,5.88,14.75,5.84,21.98l1.22.68c0-2.82-.08-7.6-3.62-17.76-3.81-10.95-12.01-19.46-14.33-21.47-1.12-.97-2.31-1.94-3.25-2.67-.18.14-.33.26-.48.38v.88Z" style="fill: #ffe100; fill-rule: evenodd; stroke-width: 0px;"/>
            <path d="m48.31,80.09h0c1.8,1.21,3.02,3.81,5.96,9.41,3.23,6.15,4.97,11.96,4.97,11.96,1.25,4.26,3.18,12.59,3.32,22.86.13,10.27-1.7,14.56-1.7,14.56l-1.49-.83c.45-2.63,1.63-10.16,1.38-15.83-.32-6.98-1.74-14.26-2.86-18.38-1.08-3.96-4.49-14.14-10.44-23.34.29-.14.57-.28.86-.42Z" style="fill: #fff; fill-rule: evenodd; stroke-width: 0px;"/>
            <path d="m58.61,137.62c.38-1.66,1.19-5.82,1.43-11.98.02-.46.03-.96.04-1.47-1.06-.66-3.99-2.54-6.44-4.73-3.06-2.72-7.14-7.65-8.84-13.56-1.7-5.91-2.44-14.06,1.46-22.52,0,0,.47-.95.47-1.54,0-.06,0-.11-.02-.16-.37-.2-.75-.29-1.12-.19-.01,0-.02,0-.03,0-6.81,3.6-12.53,7.83-15.19,9.91,2.05,1.43,5.75,4.37,9.31,9.01,5.15,6.71,11.67,17.48,12.28,33.49l6.67,3.72Z" style="fill: #e60012; fill-rule: evenodd; stroke-width: 0px;"/>
            <path d="m46.02,86.94l1.72,2.03-2.45,1.23c.2-1.14.44-2.24.73-3.26h0Zm-1.26,8.2l2.15,1.58-2.15,1.61c-.04-1.07-.04-2.14,0-3.19h0Zm.53,8.03l2.61,1.04-1.84,2.18c-.32-1.04-.57-2.12-.77-3.21h0Zm4.31,10.39l.95-2.95-2.72.08c.54,1.02,1.14,1.97,1.77,2.87h0Zm2.75,3.32l2.48-.5-.31,2.57c-.71-.62-1.44-1.31-2.17-2.07h0Zm.03-26.25c-.21-.45-.42-.89-.64-1.34-.23-.14-.53-.33-.88-.56-.87-.58-1.74-.97-1.8-2.12-.04-.8.19-1.43.33-1.75-.07-.12-.13-.23-.2-.35,0,0-.25-.45-.65-1-.13-.05-.27-.08-.42-.07-.93.06-1.77,1.23-1.71,2.35.07,1.13.71,2.67,2.06,3.32,1.14.54,3.27,1.29,3.91,1.51h0Zm7.58,29.29c-.03-.53-.07-1.07-.11-1.63-1.79.56-3-.71-3-1.73,0-1.07.52-2.18.94-2.61.42-.42.32-.79.32-.79-.59.03-2.79,2.04-2.84,4.32-.05,2.28,1.79,3.41,2.98,3.38.87-.02,1.46-.62,1.71-.95h0Zm-10.28-24.5c-1.2,0-2.37-1.06-2.37-2.27s1-2.3,2.09-2.3,2.12.67,2.12.67c-.25-1.31-2.39-2.04-4.15-1.82-1.75.22-2.81,2.63-2.81,3.58s.7,1.99,1.95,2.38c1.25.39,2.7.7,3.65.7s1.53-.7,1.53-.7l-2.01-.25h0Zm-.07,6.38c-2.01,0-2.33-.89-2.14-2.36.19-1.47,3.61-2.04,3.61-2.04-.42-.51-2.17-.22-2.17-.22-2.56.38-4.54,2.11-4.09,3.99.45,1.88,2.04,2.21,3.51,2.08,1.47-.13,3.61-1.38,3.61-1.38l-2.33-.06h0Zm1.42,6.42c-1.14.15-1.95-.32-2.1-1.96-.15-1.64,3.15-2.93,3.15-2.93-1.72-.35-3.4.77-4.17,1.49-.77.72-1.38,1.56-1.15,3.11.23,1.55,1.6,2.42,3.15,2.19,1.54-.23,3.83-2.56,3.83-2.56l-2.72.68h0Zm6.24,3.86s-1.25,3.05-3.03,3.79c-1.79.75-3.94-.58-3.94-2.91s3.34-4.4,3.77-4.4c0,0-2.02,2.03-1.92,3.52.1,1.49,1.72,1.96,2.73,1.46.87-.44,1.5-1.18,2.39-1.46h0Zm1.93.75c-.61-.58-4.19-4.08-5.68-8.08-1.55-4.15-1.84-10.81-1.12-14.07.59,1.26,1.13,2.5,1.64,3.74.02,1.16.1,3.8.58,6.66.59,3.53,2.79,7.4,4.01,8.55.22,1.09.4,2.16.56,3.19Z" style="fill: #fff; fill-rule: evenodd; stroke-width: 0px;"/>
          </g>
        </g>
        <path d="m29.59,26.78h104.39v195.06H29.59V26.78h0Zm-1.68-1.68v198.43h107.76V25.09H27.91Z" style="fill: #004ea2; fill-rule: evenodd; stroke-width: 0px;"/>
      </g>
      <g>
        <path d="m17.25,46.89c-.14,0-1.41,2.91-2.89,4.87s-2.95,3.67-3.67,5.5c-.72,1.83-.61,3.22.05,4.23.66,1.01,1.77,1.56,3.06,1.44,1.29-.12,2.08-1.15,2.38-2.47,0,0,.09-.5.28-.52.19-.03.36.16.15,1.75-.21,1.58-.68,3.33-1.69,4.26h4.85c-1-.93-1.45-2.67-1.66-4.26-.21-1.59-.04-1.77.15-1.75.18.03.28.52.28.52.29,1.32,1.07,2.35,2.33,2.47,1.26.12,2.36-.43,3-1.44.64-1.01.75-2.4.05-4.23-.71-1.84-2.15-3.54-3.6-5.5s-2.92-4.87-3.06-4.87Z" style="fill: #231815; fill-rule: evenodd; stroke-width: 0px;"/>
        <polygon points="8.5 13.47 16.2 13.47 16.2 16.59 13.89 16.59 13.89 26.94 20.33 16.59 18.38 16.59 18.38 13.47 26.08 13.47 26.08 16.59 24 16.59 18.49 25.44 24.69 38.7 25.92 38.7 25.92 41.82 18.45 41.82 18.45 38.7 21.26 38.7 16.53 28.59 13.89 32.83 13.89 38.7 16.48 38.7 16.48 41.82 9 41.82 9 38.7 10.77 38.7 10.77 16.59 8.5 16.59 8.5 13.47" style="fill: #231815; stroke-width: 0px;"/>
      </g>
      <g>
        <path d="m146.33,201.72c.14,0,1.41-2.91,2.89-4.87,1.48-1.96,2.95-3.67,3.67-5.5.72-1.83.61-3.22-.05-4.23-.66-1.01-1.77-1.56-3.06-1.44-1.29.12-2.08,1.15-2.38,2.47,0,0-.09.5-.28.52-.19.03-.36-.16-.15-1.75s.68-3.33,1.69-4.26h-4.86c1,.93,1.45,2.67,1.66,4.26.21,1.59.04,1.77-.15,1.75-.18-.03-.28-.52-.28-.52-.29-1.31-1.07-2.35-2.33-2.47-1.26-.12-2.36.43-3,1.44-.65,1.01-.75,2.4-.05,4.23.71,1.83,2.15,3.55,3.6,5.5,1.45,1.96,2.92,4.87,3.06,4.87Z" style="fill: #231815; fill-rule: evenodd; stroke-width: 0px;"/>
        <polygon points="155.07 235.14 147.38 235.14 147.38 232.02 149.69 232.02 149.69 221.67 143.24 232.02 145.2 232.02 145.2 235.14 137.5 235.14 137.5 232.02 139.58 232.02 145.09 223.17 138.88 209.91 137.65 209.91 137.65 206.79 145.13 206.79 145.13 209.91 142.31 209.91 147.04 220.03 149.69 215.78 149.69 209.91 147.1 209.91 147.1 206.79 154.57 206.79 154.57 209.91 152.8 209.91 152.8 232.02 155.07 232.02 155.07 235.14" style="fill: #231815; stroke-width: 0px;"/>
      </g>
    </g>
  </g>
</svg>