<?xml version="1.0" encoding="UTF-8"?>
<svg id="_图层_2" data-name="图层 2" xmlns="http://www.w3.org/2000/svg" viewBox="0 0 163.57 248.61">
  <g id="_图层_1-2" data-name="图层 1">
    <g>
      <path d="m162.57,242.01c0,3.08-2.51,5.6-5.57,5.6H6.57c-3.06,0-5.57-2.52-5.57-5.6V6.61C1,3.52,3.51,1,6.57,1h150.43c3.06,0,5.57,2.52,5.57,5.61v235.41Z" style="fill: #fff; fill-rule: evenodd; stroke: #231815; stroke-miterlimit: 22.93; stroke-width: 2px;"/>
      <g>
        <path d="m81.69,29.15c-.32,0-3.29,6.75-6.72,11.31-3.44,4.55-6.85,8.52-8.52,12.79-1.67,4.26-1.42,7.49.11,9.83,1.53,2.34,4.12,3.62,7.11,3.34,2.99-.28,4.83-2.68,5.52-5.74,0,0,.22-1.15.66-1.21.44-.06.84.37.34,4.05-.5,3.68-1.57,7.74-3.93,9.89h11.28c-2.31-2.15-3.37-6.21-3.86-9.89-.49-3.68-.09-4.12.34-4.05.43.06.64,1.21.64,1.21.67,3.06,2.48,5.46,5.42,5.74,2.94.28,5.48-1,6.98-3.34,1.5-2.34,1.75-5.57.11-9.83-1.64-4.26-5-8.24-8.37-12.79-3.37-4.55-6.78-11.31-7.1-11.31h0Zm.2,190.32c.32,0,3.29-6.75,6.72-11.3,3.43-4.55,6.85-8.53,8.52-12.79,1.67-4.26,1.42-7.49-.11-9.83-1.53-2.34-4.12-3.62-7.11-3.34-2.99.28-4.83,2.68-5.52,5.74,0,0-.22,1.15-.65,1.22s-.84-.37-.34-4.05c.5-3.68,1.57-7.74,3.93-9.89h-11.28c2.32,2.15,3.37,6.21,3.86,9.89s.09,4.12-.34,4.05c-.43-.06-.64-1.22-.64-1.22-.67-3.06-2.48-5.46-5.42-5.74s-5.48,1-6.98,3.34c-1.5,2.34-1.75,5.56-.11,9.83,1.64,4.26,5,8.23,8.37,12.79,3.37,4.55,6.78,11.3,7.1,11.3h0Zm-.2-117.29c-.32,0-3.29,6.75-6.72,11.31-3.44,4.55-6.85,8.52-8.52,12.79-1.67,4.26-1.42,7.49.11,9.83,1.53,2.34,4.12,3.62,7.11,3.34,2.99-.28,4.83-2.68,5.52-5.74,0,0,.22-1.15.66-1.22s.84.37.34,4.05c-.5,3.68-1.57,7.74-3.93,9.89h11.28c-2.31-2.15-3.37-6.21-3.86-9.89-.49-3.68-.09-4.12.34-4.05s.64,1.22.64,1.22c.67,3.06,2.48,5.46,5.42,5.74,2.94.28,5.48-1,6.98-3.34,1.5-2.34,1.75-5.57.11-9.83-1.64-4.26-5-8.24-8.37-12.79-3.37-4.55-6.78-11.31-7.1-11.31Z" style="fill: #231815; fill-rule: evenodd; stroke-width: 0px;"/>
        <g>
          <path d="m25.25,13.47v3.25l-6.2,5.66c.53.08,1.05.22,1.56.41,1.31.49,2.5,1.31,3.46,2.41,1.09,1.25,1.88,2.86,2.21,4.74.59,3.35-.63,6.37-2.72,8.45-1.08,1.08-2.41,1.9-3.84,2.38-1.45.49-3.02.63-4.56.34-2.7-.52-5.29-2.34-7.01-5.94l2.81-1.34c1.23,2.59,2.99,3.88,4.78,4.22,1,.19,2.03.1,2.99-.23.98-.33,1.89-.9,2.64-1.64,1.41-1.4,2.24-3.44,1.84-5.71-.23-1.3-.76-2.4-1.49-3.23-.62-.71-1.37-1.23-2.19-1.53-.81-.3-1.7-.39-2.58-.23-.96.17-1.93.63-2.84,1.42l-2.07-2.33.02-.02h0s.03-.03.05-.04l8.68-7.92h-8.95v3.8h-3.12v-6.92h16.53Z" style="fill: #231815; stroke-width: 0px;"/>
          <path d="m17.25,46.89c-.14,0-1.41,2.91-2.89,4.87-1.48,1.96-2.95,3.67-3.67,5.5-.72,1.83-.61,3.22.05,4.23.66,1.01,1.77,1.56,3.06,1.44,1.29-.12,2.08-1.15,2.37-2.47,0,0,.09-.5.28-.52.19-.03.36.16.15,1.75-.21,1.58-.68,3.33-1.69,4.26h4.85c-1-.93-1.45-2.67-1.66-4.26-.21-1.59-.04-1.77.14-1.75.18.03.28.52.28.52.29,1.32,1.07,2.35,2.33,2.47,1.26.12,2.36-.43,3-1.44.65-1.01.75-2.4.05-4.23-.71-1.83-2.15-3.54-3.6-5.5-1.45-1.96-2.92-4.87-3.06-4.87Z" style="fill: #231815; fill-rule: evenodd; stroke-width: 0px;"/>
        </g>
        <g>
          <path d="m138.32,235.14v-3.25l6.2-5.66c-.53-.08-1.05-.22-1.56-.41-1.31-.49-2.5-1.31-3.46-2.41-1.09-1.25-1.88-2.86-2.21-4.74-.59-3.35.63-6.37,2.72-8.45,1.08-1.08,2.41-1.9,3.84-2.38,1.45-.49,3.02-.63,4.56-.34,2.7.52,5.29,2.34,7.01,5.94l-2.81,1.34c-1.23-2.58-2.99-3.88-4.78-4.22-1-.19-2.03-.1-2.99.23-.98.33-1.89.9-2.64,1.64-1.41,1.4-2.24,3.44-1.84,5.71.23,1.3.76,2.4,1.49,3.23.62.71,1.37,1.23,2.19,1.53.81.3,1.7.39,2.58.23.96-.17,1.93-.63,2.84-1.42l2.07,2.33-.02.02h0s-.03.03-.05.04l-8.67,7.92h8.94v-3.8h3.12v6.92h-16.53Z" style="fill: #231815; stroke-width: 0px;"/>
          <path d="m146.33,201.72c.14,0,1.42-2.91,2.89-4.87,1.48-1.96,2.95-3.67,3.67-5.5.72-1.84.61-3.22-.05-4.23-.66-1.01-1.77-1.56-3.06-1.44-1.29.12-2.08,1.15-2.38,2.47,0,0-.09.5-.28.52-.19.03-.36-.16-.15-1.75.21-1.58.68-3.33,1.69-4.26h-4.85c1,.93,1.45,2.67,1.66,4.26.21,1.59.04,1.77-.14,1.75-.18-.03-.28-.52-.28-.52-.29-1.32-1.07-2.35-2.33-2.47-1.26-.12-2.36.43-3,1.44-.65,1.01-.75,2.39-.05,4.23.71,1.83,2.15,3.54,3.6,5.5,1.45,1.96,2.92,4.87,3.06,4.87Z" style="fill: #231815; fill-rule: evenodd; stroke-width: 0px;"/>
        </g>
      </g>
    </g>
  </g>
</svg>