<?xml version="1.0" encoding="UTF-8"?>
<svg id="_图层_2" data-name="图层 2" xmlns="http://www.w3.org/2000/svg" viewBox="0 0 163.57 248.61">
  <g id="_图层_1-2" data-name="图层 1">
    <g>
      <path d="m162.57,242.01c0,3.08-2.51,5.6-5.57,5.6H6.57c-3.06,0-5.57-2.52-5.57-5.6V6.61C1,3.52,3.51,1,6.57,1h150.43c3.06,0,5.57,2.52,5.57,5.61v235.41Z" style="fill: #fff; fill-rule: evenodd; stroke: #231815; stroke-miterlimit: 22.93; stroke-width: 2px;"/>
      <g>
        <path d="m81.69,102.18c-.32,0-3.29,6.75-6.72,11.31-3.43,4.55-6.85,8.52-8.52,12.79-1.67,4.26-1.42,7.49.11,9.83,1.53,2.34,4.12,3.62,7.11,3.34,2.99-.28,4.83-2.68,5.52-5.74,0,0,.22-1.15.66-1.22.44-.06.84.37.34,4.05-.5,3.68-1.57,7.74-3.93,9.89h11.28c-2.31-2.15-3.37-6.21-3.86-9.89s-.09-4.12.34-4.05.64,1.22.64,1.22c.67,3.06,2.48,5.46,5.42,5.74,2.94.28,5.48-1,6.98-3.34,1.5-2.34,1.75-5.56.11-9.83-1.64-4.26-4.99-8.23-8.37-12.79-3.37-4.55-6.78-11.31-7.1-11.31h0Zm-34.31,117.76c.32,0,3.29-6.75,6.72-11.31,3.44-4.55,6.85-8.52,8.52-12.79,1.67-4.26,1.42-7.49-.11-9.83-1.53-2.34-4.12-3.62-7.11-3.34-2.99.28-4.83,2.68-5.52,5.74,0,0-.22,1.15-.65,1.22-.44.06-.84-.37-.34-4.05.5-3.68,1.57-7.74,3.93-9.89h-11.28c2.32,2.15,3.37,6.21,3.86,9.89.49,3.68.09,4.12-.34,4.05-.43-.06-.64-1.22-.64-1.22-.67-3.06-2.48-5.46-5.42-5.74-2.94-.28-5.48,1-6.98,3.34-1.5,2.34-1.75,5.56-.11,9.83s5,8.23,8.37,12.79c3.37,4.55,6.78,11.31,7.1,11.31h0Zm69.02,0c.32,0,3.29-6.75,6.72-11.31,3.43-4.55,6.85-8.52,8.52-12.79,1.67-4.26,1.42-7.49-.11-9.83-1.53-2.34-4.12-3.62-7.11-3.34-2.99.28-4.83,2.68-5.52,5.74,0,0-.22,1.15-.65,1.22-.44.06-.84-.37-.34-4.05s1.57-7.74,3.93-9.89h-11.28c2.32,2.15,3.37,6.21,3.86,9.89s.09,4.12-.34,4.05c-.43-.06-.64-1.22-.64-1.22-.67-3.06-2.48-5.46-5.42-5.74-2.94-.28-5.48,1-6.98,3.34-1.5,2.34-1.75,5.56-.11,9.83,1.64,4.26,5,8.23,8.37,12.79,3.37,4.55,6.78,11.31,7.1,11.31h0Zm-.2-191.28c-.32,0-3.29,6.75-6.72,11.31-3.44,4.55-6.85,8.52-8.52,12.79-1.67,4.26-1.42,7.49.11,9.83,1.53,2.34,4.12,3.62,7.11,3.34,2.99-.28,4.83-2.68,5.52-5.74,0,0,.22-1.15.66-1.22s.84.37.34,4.05c-.5,3.68-1.57,7.74-3.93,9.89h11.28c-2.32-2.15-3.37-6.21-3.86-9.89-.49-3.68-.09-4.12.34-4.05.43.06.64,1.22.64,1.22.67,3.06,2.48,5.46,5.42,5.74,2.94.28,5.48-1,6.98-3.34,1.5-2.34,1.75-5.56.11-9.83-1.64-4.26-5-8.23-8.37-12.79-3.37-4.55-6.78-11.31-7.1-11.31h0Zm-69.02,0c-.32,0-3.29,6.75-6.72,11.31-3.43,4.55-6.85,8.52-8.52,12.79-1.67,4.26-1.42,7.49.11,9.83,1.53,2.34,4.12,3.62,7.11,3.34,2.99-.28,4.83-2.68,5.52-5.74,0,0,.22-1.15.65-1.22.44-.06.84.37.34,4.05-.5,3.68-1.57,7.74-3.93,9.89h11.28c-2.32-2.15-3.37-6.21-3.86-9.89s-.09-4.12.34-4.05c.43.06.64,1.22.64,1.22.67,3.06,2.48,5.46,5.42,5.74,2.94.28,5.48-1,6.98-3.34,1.5-2.34,1.75-5.56.11-9.83-1.64-4.26-5-8.23-8.37-12.79-3.37-4.55-6.78-11.31-7.1-11.31Z" style="fill: #231815; fill-rule: evenodd; stroke-width: 0px;"/>
        <g>
          <path d="m23.62,16.59h-10.65l-.09,5.21c1.62-.58,3.88-1.01,6.43-.39.51.12.99.3,1.44.51,2.3,1.09,3.81,3.23,4.57,5.71.72,2.35.77,5.04.2,7.38-.19.77-.45,1.51-.77,2.2-1.11,2.35-2.95,3.86-5.01,4.56-1.04.35-2.11.49-3.17.42-1.06-.07-2.12-.34-3.12-.81-2.08-.99-3.86-2.85-4.78-5.57l2.95-.99c.62,1.85,1.8,3.1,3.16,3.75.62.3,1.3.47,1.98.51.69.04,1.37-.04,2-.25,1.29-.43,2.46-1.41,3.18-2.94.24-.5.42-1.04.57-1.61.45-1.82.41-3.91-.15-5.72-.52-1.69-1.49-3.12-2.93-3.81-.27-.13-.55-.23-.86-.31-3.68-.91-5.77.63-8.1,2.61l-.98-.61.39-11.42.03-1.53h13.71v3.12Z" style="fill: #231815; stroke-width: 0px;"/>
          <path d="m17.25,46.89c-.14,0-1.41,2.91-2.89,4.87-1.48,1.96-2.95,3.67-3.67,5.5-.72,1.83-.61,3.22.05,4.23.66,1.01,1.77,1.56,3.06,1.44,1.29-.12,2.08-1.15,2.38-2.47,0,0,.09-.5.28-.52.19-.03.36.16.15,1.74-.21,1.59-.68,3.33-1.69,4.26h4.85c-1-.93-1.45-2.67-1.66-4.26-.21-1.59-.04-1.77.15-1.74.18.03.28.52.28.52.29,1.31,1.07,2.35,2.33,2.47,1.26.12,2.36-.43,3-1.44.64-1.01.75-2.4.05-4.23-.71-1.83-2.15-3.54-3.6-5.5-1.45-1.96-2.92-4.87-3.06-4.87Z" style="fill: #231815; fill-rule: evenodd; stroke-width: 0px;"/>
        </g>
        <g>
          <path d="m139.96,232.02h10.65l.09-5.21c-1.62.58-3.88,1.02-6.43.39-.51-.12-.99-.3-1.44-.51-2.3-1.09-3.81-3.23-4.57-5.71-.72-2.35-.77-5.04-.2-7.38.19-.77.45-1.51.77-2.2,1.11-2.35,2.95-3.86,5.01-4.56,1.04-.35,2.11-.49,3.17-.42,1.06.07,2.12.34,3.12.81,2.08.99,3.86,2.85,4.78,5.58l-2.95.99c-.62-1.85-1.8-3.1-3.16-3.75-.62-.3-1.3-.47-1.98-.51-.69-.04-1.37.04-2,.25-1.29.44-2.46,1.41-3.18,2.94-.24.5-.42,1.04-.56,1.61-.45,1.82-.41,3.91.15,5.72.52,1.69,1.49,3.12,2.93,3.81.27.13.55.23.86.3,3.68.91,5.77-.62,8.1-2.61l.98.61-.39,11.42-.03,1.53h-13.71v-3.12Z" style="fill: #231815; stroke-width: 0px;"/>
          <path d="m146.33,201.73c.14,0,1.41-2.91,2.89-4.87,1.48-1.96,2.95-3.67,3.67-5.5.72-1.83.61-3.22-.05-4.23-.66-1.01-1.77-1.56-3.06-1.44-1.29.12-2.08,1.15-2.38,2.47,0,0-.09.5-.28.52-.19.03-.36-.16-.15-1.75.21-1.58.68-3.33,1.69-4.26h-4.85c1,.93,1.45,2.67,1.66,4.26.21,1.59.04,1.77-.15,1.75-.18-.03-.28-.52-.28-.52-.29-1.31-1.07-2.35-2.33-2.47-1.26-.12-2.36.43-3,1.44-.64,1.01-.75,2.4-.05,4.23.71,1.83,2.15,3.55,3.6,5.5,1.45,1.96,2.92,4.87,3.06,4.87Z" style="fill: #231815; fill-rule: evenodd; stroke-width: 0px;"/>
        </g>
      </g>
    </g>
  </g>
</svg>