<?xml version="1.0" encoding="UTF-8"?>
<svg id="_图层_2" data-name="图层 2" xmlns="http://www.w3.org/2000/svg" viewBox="0 0 163.58 248.61">
  <g id="_图层_1-2" data-name="图层 1">
    <g>
      <path d="m162.58,242.01c0,3.08-2.51,5.6-5.57,5.6H6.57c-3.06,0-5.57-2.52-5.57-5.6V6.6C1,3.52,3.51,1,6.57,1h150.43c3.06,0,5.57,2.52,5.57,5.6v235.41Z" style="fill: #fff; fill-rule: evenodd; stroke: #231815; stroke-miterlimit: 22.93; stroke-width: 2px;"/>
      <g>
        <path d="m81.69,65.43c-.32,0-3.29,6.75-6.72,11.31-3.43,4.55-6.85,8.52-8.52,12.79-1.67,4.26-1.42,7.49.11,9.83,1.53,2.34,4.12,3.62,7.11,3.34,2.99-.28,4.83-2.68,5.52-5.74,0,0,.22-1.15.65-1.22.44-.06.84.37.34,4.05-.5,3.68-1.57,7.74-3.93,9.89h11.28c-2.32-2.15-3.37-6.21-3.86-9.89s-.09-4.12.34-4.05c.43.06.64,1.22.64,1.22.67,3.06,2.48,5.46,5.42,5.74,2.94.28,5.48-1,6.98-3.34,1.5-2.34,1.75-5.56.11-9.83-1.64-4.26-5-8.24-8.37-12.79-3.37-4.55-6.78-11.31-7.1-11.31h0ZM47.18,28.67c-.32,0-3.29,6.75-6.72,11.31-3.43,4.55-6.85,8.52-8.52,12.79-1.67,4.26-1.42,7.49.11,9.83,1.53,2.34,4.12,3.62,7.11,3.34,2.99-.28,4.83-2.68,5.52-5.74,0,0,.22-1.15.65-1.22.44-.06.84.37.34,4.05-.5,3.68-1.57,7.74-3.93,9.89h11.28c-2.32-2.15-3.37-6.21-3.86-9.89s-.09-4.12.34-4.05c.43.06.64,1.22.64,1.22.67,3.06,2.48,5.46,5.42,5.74,2.94.28,5.48-1,6.98-3.34,1.5-2.34,1.75-5.57.11-9.83-1.64-4.26-5-8.23-8.37-12.79-3.37-4.55-6.78-11.31-7.1-11.31h0Zm34.71,154.52c.32,0,3.29-6.75,6.72-11.3,3.43-4.55,6.85-8.53,8.52-12.79,1.67-4.26,1.42-7.49-.11-9.83-1.53-2.34-4.12-3.62-7.11-3.34-2.99.28-4.83,2.68-5.52,5.74,0,0-.22,1.15-.66,1.22-.44.06-.84-.37-.34-4.05.5-3.68,1.57-7.74,3.93-9.89h-11.28c2.31,2.15,3.37,6.21,3.86,9.89s.09,4.12-.34,4.05-.64-1.22-.64-1.22c-.67-3.05-2.48-5.46-5.42-5.74-2.94-.28-5.48,1-6.98,3.34-1.5,2.34-1.75,5.56-.11,9.83,1.64,4.26,5,8.23,8.37,12.79,3.37,4.55,6.78,11.3,7.1,11.3h0Zm34.31-81.01c-.32,0-3.29,6.75-6.72,11.31-3.44,4.55-6.85,8.52-8.52,12.79-1.67,4.26-1.42,7.49.11,9.83,1.53,2.34,4.12,3.62,7.11,3.34,2.99-.28,4.83-2.68,5.52-5.74,0,0,.22-1.15.65-1.22s.84.37.34,4.05c-.5,3.68-1.57,7.74-3.93,9.89h11.28c-2.31-2.15-3.37-6.21-3.86-9.89-.49-3.68-.09-4.12.34-4.05s.64,1.22.64,1.22c.67,3.06,2.48,5.46,5.42,5.74,2.94.28,5.48-1,6.98-3.34,1.5-2.34,1.75-5.57.11-9.83-1.64-4.26-5-8.23-8.37-12.79s-6.78-11.31-7.1-11.31h0Zm-69.02,0c-.32,0-3.29,6.75-6.72,11.31-3.43,4.55-6.85,8.52-8.52,12.79-1.67,4.26-1.42,7.49.11,9.83,1.53,2.34,4.12,3.62,7.11,3.34,2.99-.28,4.83-2.68,5.52-5.74,0,0,.22-1.15.65-1.22.44-.06.84.37.34,4.05-.5,3.68-1.57,7.74-3.93,9.89h11.28c-2.32-2.15-3.37-6.21-3.86-9.89-.49-3.68-.09-4.12.34-4.05.43.06.64,1.22.64,1.22.67,3.06,2.48,5.46,5.42,5.74,2.94.28,5.48-1,6.98-3.34,1.5-2.34,1.75-5.57.11-9.83-1.64-4.26-5-8.23-8.37-12.79s-6.78-11.31-7.1-11.31h0Zm.2,117.76c.32,0,3.29-6.75,6.72-11.31,3.43-4.55,6.85-8.52,8.52-12.79,1.67-4.26,1.42-7.49-.11-9.83-1.53-2.34-4.12-3.62-7.11-3.34-2.99.28-4.83,2.68-5.52,5.74,0,0-.22,1.15-.65,1.22s-.84-.37-.34-4.05c.5-3.68,1.57-7.74,3.93-9.89h-11.28c2.32,2.15,3.37,6.21,3.86,9.89.49,3.68.09,4.12-.34,4.05-.43-.06-.64-1.22-.64-1.22-.67-3.06-2.48-5.46-5.42-5.74-2.94-.28-5.48,1-6.98,3.34-1.5,2.34-1.75,5.57-.11,9.83,1.64,4.26,5,8.23,8.37,12.79,3.37,4.55,6.78,11.31,7.1,11.31h0Zm69.02,0c.32,0,3.29-6.75,6.72-11.31,3.43-4.55,6.85-8.52,8.52-12.79,1.67-4.26,1.42-7.49-.11-9.83-1.53-2.34-4.12-3.62-7.11-3.34-2.99.28-4.83,2.68-5.52,5.74,0,0-.22,1.15-.66,1.22-.44.06-.84-.37-.34-4.05.5-3.68,1.57-7.74,3.93-9.89h-11.28c2.32,2.15,3.37,6.21,3.86,9.89.49,3.68.09,4.12-.34,4.05s-.64-1.22-.64-1.22c-.67-3.06-2.48-5.46-5.42-5.74-2.94-.28-5.48,1-6.98,3.34-1.5,2.34-1.75,5.57-.11,9.83,1.64,4.26,4.99,8.23,8.37,12.79,3.37,4.55,6.78,11.31,7.1,11.31h0Zm-.2-191.28c-.32,0-3.29,6.75-6.72,11.31-3.44,4.55-6.85,8.52-8.52,12.79-1.67,4.26-1.42,7.49.11,9.83,1.53,2.34,4.12,3.62,7.11,3.34,2.99-.28,4.83-2.68,5.52-5.74,0,0,.22-1.15.65-1.22s.84.37.34,4.05c-.5,3.68-1.57,7.74-3.93,9.89h11.28c-2.31-2.15-3.37-6.21-3.86-9.89s-.09-4.12.34-4.05.64,1.22.64,1.22c.67,3.06,2.48,5.46,5.42,5.74,2.94.28,5.48-1,6.98-3.34,1.5-2.34,1.75-5.57.11-9.83-1.64-4.26-5-8.23-8.37-12.79-3.37-4.55-6.78-11.31-7.1-11.31Z" style="fill: #231815; fill-rule: evenodd; stroke-width: 0px;"/>
        <g>
          <path d="m21.41,27.12c.81.37,1.56.84,2.2,1.4,1.69,1.46,2.75,3.49,2.75,5.75s-1.05,4.29-2.75,5.75c-1.64,1.41-3.88,2.28-6.32,2.28s-4.69-.87-6.33-2.28c-1.69-1.46-2.75-3.49-2.75-5.75s1.05-4.29,2.75-5.75c.65-.56,1.39-1.03,2.2-1.4-.57-.3-1.09-.66-1.56-1.07-1.52-1.33-2.47-3.19-2.47-5.25s.95-3.91,2.47-5.25c1.47-1.29,3.48-2.08,5.68-2.08s4.21.8,5.68,2.08c1.52,1.33,2.47,3.19,2.47,5.25s-.95,3.91-2.47,5.25c-.47.41-.99.77-1.56,1.07h0Zm-4.12,2.24c-1.69,0-3.21.58-4.29,1.52-1.03.88-1.66,2.09-1.66,3.39s.64,2.51,1.66,3.39c1.09.94,2.6,1.52,4.29,1.52s3.2-.58,4.29-1.52c1.03-.88,1.66-2.09,1.66-3.39s-.64-2.51-1.66-3.39c-1.09-.94-2.6-1.52-4.29-1.52h0Zm0-12.77c-1.43,0-2.71.5-3.63,1.3-.86.76-1.4,1.79-1.4,2.91s.54,2.15,1.4,2.91c.92.8,2.2,1.3,3.63,1.3s2.71-.5,3.63-1.3c.86-.76,1.4-1.79,1.4-2.91s-.54-2.15-1.4-2.91c-.92-.8-2.2-1.3-3.63-1.3Z" style="fill: #231815; stroke-width: 0px;"/>
          <path d="m17.25,46.89c-.14,0-1.41,2.91-2.89,4.87s-2.95,3.67-3.67,5.5c-.72,1.83-.61,3.22.05,4.23.66,1.01,1.77,1.56,3.06,1.44,1.29-.12,2.08-1.15,2.38-2.47,0,0,.09-.5.28-.52.19-.03.36.16.15,1.75-.21,1.58-.68,3.33-1.69,4.26h4.86c-1-.93-1.45-2.67-1.66-4.26-.21-1.59-.04-1.77.15-1.75.18.03.28.52.28.52.29,1.32,1.07,2.35,2.33,2.47,1.26.12,2.36-.43,3-1.44.65-1.01.75-2.4.05-4.23-.71-1.84-2.15-3.54-3.6-5.5s-2.92-4.87-3.06-4.87Z" style="fill: #231815; fill-rule: evenodd; stroke-width: 0px;"/>
        </g>
        <g>
          <path d="m142.17,221.49c-.81-.37-1.56-.84-2.2-1.4-1.7-1.46-2.75-3.49-2.75-5.75s1.05-4.29,2.75-5.75c1.64-1.41,3.87-2.28,6.32-2.28s4.69.87,6.32,2.28c1.69,1.46,2.75,3.49,2.75,5.75s-1.05,4.29-2.75,5.75c-.65.56-1.39,1.03-2.2,1.4.57.3,1.09.66,1.56,1.07,1.52,1.34,2.47,3.19,2.47,5.25s-.95,3.91-2.47,5.25c-1.47,1.29-3.48,2.08-5.68,2.08s-4.21-.8-5.68-2.08c-1.52-1.34-2.47-3.19-2.47-5.25s.95-3.91,2.47-5.25c.47-.41.99-.77,1.56-1.07h0Zm4.12-2.24c1.69,0,3.2-.58,4.29-1.51,1.03-.88,1.66-2.09,1.66-3.4s-.64-2.51-1.66-3.39c-1.09-.93-2.6-1.51-4.29-1.51s-3.21.58-4.29,1.51c-1.03.88-1.66,2.09-1.66,3.39s.64,2.51,1.66,3.4c1.09.93,2.6,1.51,4.29,1.51h0Zm0,12.77c1.43,0,2.71-.5,3.63-1.3.86-.75,1.4-1.79,1.4-2.91s-.54-2.15-1.4-2.91c-.92-.8-2.2-1.3-3.63-1.3s-2.71.5-3.63,1.3c-.86.75-1.4,1.79-1.4,2.91s.54,2.15,1.4,2.91c.92.8,2.2,1.3,3.63,1.3Z" style="fill: #231815; stroke-width: 0px;"/>
          <path d="m146.33,201.72c.14,0,1.41-2.91,2.89-4.87,1.48-1.96,2.95-3.67,3.67-5.5.72-1.83.61-3.22-.05-4.23-.66-1.01-1.77-1.56-3.06-1.44-1.29.12-2.08,1.15-2.38,2.47,0,0-.09.5-.28.52-.19.03-.36-.16-.15-1.75.21-1.58.68-3.33,1.69-4.26h-4.86c1,.93,1.45,2.67,1.66,4.26.21,1.59.04,1.77-.15,1.75-.18-.03-.28-.52-.28-.52-.29-1.31-1.07-2.35-2.33-2.47-1.26-.12-2.36.43-3,1.44-.65,1.01-.75,2.4-.05,4.23.71,1.83,2.15,3.55,3.6,5.5,1.45,1.96,2.92,4.87,3.06,4.87Z" style="fill: #231815; fill-rule: evenodd; stroke-width: 0px;"/>
        </g>
      </g>
    </g>
  </g>
</svg>