<?xml version="1.0" encoding="UTF-8"?>
<svg id="_图层_2" data-name="图层 2" xmlns="http://www.w3.org/2000/svg" viewBox="0 0 163.57 248.61">
  <g id="_图层_1-2" data-name="图层 1">
    <g>
      <path d="m162.57,242.01c0,3.08-2.51,5.6-5.57,5.6H6.57c-3.06,0-5.57-2.52-5.57-5.6V6.6C1,3.52,3.51,1,6.57,1h150.43c3.06,0,5.57,2.52,5.57,5.6v235.41Z" style="fill: #fff; fill-rule: evenodd; stroke: #231815; stroke-miterlimit: 22.93; stroke-width: 2px;"/>
      <g>
        <path d="m81.69,102.18c-.32,0-3.29,6.75-6.72,11.31-3.44,4.55-6.85,8.52-8.52,12.79-1.67,4.26-1.42,7.49.11,9.83,1.53,2.34,4.12,3.62,7.11,3.34,2.99-.28,4.83-2.68,5.52-5.74,0,0,.22-1.15.65-1.22.44-.06.84.37.34,4.05-.5,3.68-1.57,7.74-3.93,9.89h11.28c-2.32-2.15-3.37-6.21-3.86-9.89-.49-3.68-.09-4.12.34-4.05.43.06.64,1.22.64,1.22.67,3.06,2.48,5.46,5.42,5.74,2.94.28,5.48-1,6.98-3.34,1.5-2.34,1.75-5.57.11-9.83-1.64-4.26-5-8.23-8.37-12.79s-6.78-11.31-7.1-11.31h0Zm34.51-24.5c-.32,0-3.29,6.75-6.72,11.31-3.43,4.55-6.85,8.52-8.52,12.79-1.67,4.26-1.42,7.49.11,9.83,1.53,2.34,4.12,3.62,7.11,3.34,2.99-.28,4.83-2.68,5.52-5.74,0,0,.22-1.15.66-1.22.44-.06.84.37.34,4.05s-1.57,7.74-3.93,9.89h11.28c-2.32-2.15-3.37-6.21-3.86-9.89s-.09-4.12.34-4.05c.43.06.64,1.22.64,1.22.67,3.06,2.48,5.46,5.42,5.74,2.94.28,5.48-1,6.98-3.34,1.5-2.34,1.75-5.56.11-9.83-1.64-4.26-5-8.23-8.37-12.79-3.37-4.55-6.78-11.31-7.1-11.31h0Zm0-49.01c-.32,0-3.29,6.75-6.72,11.31-3.43,4.55-6.85,8.52-8.52,12.79-1.67,4.26-1.42,7.49.11,9.83,1.53,2.34,4.12,3.62,7.11,3.34,2.99-.28,4.83-2.68,5.52-5.74,0,0,.22-1.15.66-1.22.44-.06.84.37.34,4.05s-1.57,7.74-3.93,9.89h11.28c-2.32-2.15-3.37-6.21-3.86-9.89s-.09-4.12.34-4.05c.43.06.64,1.22.64,1.22.67,3.06,2.48,5.46,5.42,5.74,2.94.28,5.48-1,6.98-3.34,1.5-2.34,1.75-5.57.11-9.83-1.64-4.26-5-8.23-8.37-12.79-3.37-4.55-6.78-11.31-7.1-11.31h0Zm.2,142.27c.32,0,3.29-6.75,6.72-11.31,3.43-4.55,6.85-8.52,8.52-12.79,1.67-4.26,1.42-7.49-.11-9.83-1.53-2.34-4.12-3.62-7.11-3.34-2.99.28-4.83,2.68-5.52,5.74,0,0-.22,1.15-.66,1.22-.44.06-.84-.37-.34-4.05.5-3.68,1.57-7.74,3.93-9.89h-11.28c2.32,2.15,3.37,6.21,3.86,9.89.49,3.68.09,4.12-.34,4.05-.43-.06-.64-1.22-.64-1.22-.67-3.06-2.48-5.46-5.42-5.74-2.94-.28-5.48,1-6.98,3.34-1.5,2.34-1.75,5.56-.11,9.83,1.64,4.26,4.99,8.23,8.37,12.79,3.37,4.55,6.78,11.31,7.1,11.31h0Zm0,49.01c.32,0,3.29-6.75,6.72-11.31,3.43-4.55,6.85-8.52,8.52-12.79,1.67-4.26,1.42-7.49-.11-9.83-1.53-2.34-4.12-3.62-7.11-3.34-2.99.28-4.83,2.68-5.52,5.74,0,0-.22,1.15-.66,1.22-.44.06-.84-.37-.34-4.05.5-3.68,1.57-7.74,3.93-9.89h-11.28c2.32,2.15,3.37,6.21,3.86,9.89.49,3.68.09,4.12-.34,4.05-.43-.06-.64-1.22-.64-1.22-.67-3.06-2.48-5.46-5.42-5.74-2.94-.28-5.48,1-6.98,3.34-1.5,2.34-1.75,5.57-.11,9.83,1.64,4.26,4.99,8.23,8.37,12.79,3.37,4.55,6.78,11.31,7.1,11.31h0ZM47.18,77.68c-.32,0-3.29,6.75-6.72,11.31-3.44,4.55-6.85,8.52-8.52,12.79-1.67,4.26-1.42,7.49.11,9.83,1.53,2.34,4.12,3.62,7.11,3.34,2.99-.28,4.83-2.68,5.52-5.74,0,0,.22-1.15.66-1.22.44-.06.84.37.34,4.05-.5,3.68-1.57,7.74-3.93,9.89h11.28c-2.31-2.15-3.37-6.21-3.86-9.89s-.09-4.12.34-4.05c.43.06.64,1.22.64,1.22.67,3.06,2.48,5.46,5.42,5.74,2.94.28,5.48-1,6.98-3.34,1.5-2.34,1.75-5.56.11-9.83s-5-8.23-8.37-12.79c-3.37-4.55-6.78-11.31-7.1-11.31h0Zm0-49.01c-.32,0-3.29,6.75-6.72,11.31-3.44,4.55-6.85,8.52-8.52,12.79-1.67,4.26-1.42,7.49.11,9.83,1.53,2.34,4.12,3.62,7.11,3.34,2.99-.28,4.83-2.68,5.52-5.74,0,0,.22-1.15.66-1.22s.84.37.34,4.05c-.5,3.68-1.57,7.74-3.93,9.89h11.28c-2.31-2.15-3.37-6.21-3.86-9.89s-.09-4.12.34-4.05.64,1.22.64,1.22c.67,3.06,2.48,5.46,5.42,5.74,2.94.28,5.48-1,6.98-3.34,1.5-2.34,1.75-5.57.11-9.83-1.64-4.26-5-8.23-8.37-12.79-3.37-4.55-6.78-11.31-7.1-11.31h0Zm.2,142.27c.32,0,3.29-6.75,6.72-11.31,3.44-4.55,6.85-8.52,8.52-12.79,1.67-4.26,1.42-7.49-.11-9.83-1.53-2.34-4.12-3.62-7.11-3.34-2.99.28-4.83,2.68-5.52,5.74,0,0-.22,1.15-.65,1.22-.44.06-.84-.37-.34-4.05.5-3.68,1.57-7.74,3.93-9.89h-11.28c2.32,2.15,3.37,6.21,3.86,9.89.49,3.68.09,4.12-.34,4.05-.43-.06-.64-1.22-.64-1.22-.67-3.06-2.48-5.46-5.42-5.74-2.94-.28-5.48,1-6.98,3.34-1.5,2.34-1.75,5.56-.11,9.83,1.64,4.26,5,8.23,8.37,12.79,3.37,4.55,6.78,11.31,7.1,11.31h0Zm0,49.01c.32,0,3.29-6.75,6.72-11.31,3.44-4.55,6.85-8.52,8.52-12.79,1.67-4.26,1.42-7.49-.11-9.83-1.53-2.34-4.12-3.62-7.11-3.34-2.99.28-4.83,2.68-5.52,5.74,0,0-.22,1.15-.65,1.22s-.84-.37-.34-4.05c.5-3.68,1.57-7.74,3.93-9.89h-11.28c2.32,2.15,3.37,6.21,3.86,9.89.49,3.68.09,4.12-.34,4.05-.43-.06-.64-1.22-.64-1.22-.67-3.06-2.48-5.46-5.42-5.74-2.94-.28-5.48,1-6.98,3.34-1.5,2.34-1.75,5.57-.11,9.83,1.64,4.26,5,8.23,8.37,12.79,3.37,4.55,6.78,11.31,7.1,11.31Z" style="fill: #231815; fill-rule: evenodd; stroke-width: 0px;"/>
        <g>
          <path d="m11.6,35.58s1.5,3.39,5.71,3.04h-.04c1.71-.17,2.84-1.16,3.61-2.63.72-1.38,1.16-3.17,1.46-5.14-.21.18-.43.35-.65.5-1.25.87-2.65,1.33-4.06,1.39-1.4.07-2.81-.26-4.09-.95-2.06-1.11-3.76-3.17-4.48-6.07-1.1-4.45.5-8.16,3.07-10.28,1.41-1.16,3.11-1.86,4.83-1.96,1.77-.11,3.56.41,5.09,1.67,1.94,1.6,3.42,4.44,3.76,8.79h0c.13,1.68.09,3.59-.16,5.74-.34,2.9-.89,5.63-2,7.75-1.24,2.38-3.12,3.99-6.05,4.3h-.04c-6.41.54-8.81-4.88-8.81-4.9l2.85-1.25h0Zm11.08-11.81c-.3-3.14-1.31-5.13-2.62-6.22-.87-.72-1.9-1.01-2.92-.95-1.07.06-2.13.51-3.03,1.25-1.74,1.44-2.81,4-2.03,7.14.49,1.98,1.6,3.35,2.93,4.07.77.41,1.62.61,2.47.57.84-.04,1.67-.31,2.42-.83,1.3-.91,2.35-2.55,2.78-5.02Z" style="fill: #231815; stroke-width: 0px;"/>
          <path d="m17.25,46.89c-.14,0-1.41,2.91-2.89,4.87-1.48,1.96-2.95,3.67-3.67,5.5-.72,1.84-.61,3.22.05,4.23.66,1.01,1.77,1.56,3.06,1.44,1.29-.12,2.08-1.15,2.38-2.47,0,0,.09-.5.28-.52.19-.03.36.16.15,1.75-.21,1.58-.68,3.33-1.69,4.26h4.86c-1-.93-1.45-2.67-1.66-4.26-.21-1.59-.04-1.77.15-1.75.18.03.28.52.28.52.29,1.32,1.07,2.35,2.33,2.47,1.26.12,2.36-.43,3-1.44.65-1.01.75-2.4.05-4.23-.71-1.84-2.15-3.54-3.6-5.5-1.45-1.96-2.92-4.87-3.06-4.87Z" style="fill: #231815; fill-rule: evenodd; stroke-width: 0px;"/>
        </g>
        <g>
          <path d="m151.98,213.04s-1.5-3.39-5.71-3.04h.04c-1.71.17-2.84,1.16-3.61,2.63-.72,1.38-1.16,3.17-1.46,5.14.21-.18.43-.35.65-.5,1.25-.87,2.65-1.33,4.06-1.39,1.4-.07,2.81.26,4.09.95,2.06,1.11,3.76,3.17,4.48,6.07,1.1,4.45-.5,8.16-3.07,10.29-1.41,1.16-3.11,1.86-4.83,1.96-1.77.11-3.56-.41-5.09-1.67-1.94-1.6-3.42-4.44-3.76-8.79h0c-.13-1.68-.09-3.59.16-5.74.34-2.9.89-5.63,2-7.75,1.24-2.38,3.12-3.99,6.05-4.3h.04c6.41-.54,8.81,4.88,8.81,4.9l-2.85,1.25h0Zm-11.08,11.81c.3,3.14,1.31,5.13,2.62,6.22.87.72,1.9,1.01,2.92.95,1.07-.06,2.13-.51,3.03-1.25,1.74-1.44,2.81-4,2.04-7.14-.49-1.97-1.6-3.35-2.93-4.07-.77-.41-1.62-.61-2.47-.57-.84.04-1.67.31-2.42.83-1.3.9-2.35,2.55-2.78,5.02Z" style="fill: #231815; stroke-width: 0px;"/>
          <path d="m146.33,201.72c.14,0,1.41-2.91,2.89-4.87,1.48-1.96,2.95-3.67,3.67-5.5.72-1.83.61-3.22-.05-4.23-.66-1.01-1.77-1.56-3.06-1.44-1.29.12-2.08,1.15-2.38,2.47,0,0-.09.5-.28.52-.19.03-.36-.16-.15-1.75.21-1.58.68-3.33,1.69-4.26h-4.85c1,.93,1.45,2.67,1.66,4.26.21,1.59.04,1.77-.15,1.75-.18-.03-.28-.52-.28-.52-.29-1.31-1.07-2.35-2.33-2.47-1.26-.12-2.36.43-3,1.44-.64,1.01-.75,2.4-.05,4.23.71,1.83,2.15,3.55,3.6,5.5,1.45,1.96,2.92,4.87,3.06,4.87Z" style="fill: #231815; fill-rule: evenodd; stroke-width: 0px;"/>
        </g>
      </g>
    </g>
  </g>
</svg>