<?xml version="1.0" encoding="UTF-8"?>
<svg id="_图层_2" data-name="图层 2" xmlns="http://www.w3.org/2000/svg" viewBox="0 0 210.38 79.98">
  <g id="_图层_7" data-name="图层 7">
    <g>
      <ellipse cx="104.74" cy="27.97" rx="104.43" ry="27.66" style="fill: #2e2d2f; stroke: #040000; stroke-miterlimit: 10; stroke-width: .61px;"/>
      <ellipse cx="62.65" cy="47.1" rx="1.88" ry=".71" style="fill: #fff; stroke-width: 0px;"/>
      <ellipse cx="60.23" cy="44.7" rx="1.88" ry=".71" style="fill: #fff; stroke-width: 0px;"/>
      <ellipse cx="71.33" cy="46.4" rx="1.88" ry=".71" style="fill: #fff; stroke-width: 0px;"/>
      <ellipse cx="64.96" cy="49.22" rx="1.88" ry=".71" style="fill: #fff; stroke-width: 0px;"/>
      <ellipse cx="53.83" cy="47.65" rx="1.88" ry=".71" style="fill: #fff; stroke-width: 0px;"/>
      <ellipse cx="138.12" cy="9.02" rx="1.88" ry=".71" style="fill: #fff; stroke-width: 0px;"/>
      <ellipse cx="155.53" cy="7.85" rx="1.88" ry=".71" style="fill: #fff; stroke-width: 0px;"/>
      <ellipse cx="147.72" cy="46.85" rx="1.88" ry=".71" style="fill: #fff; stroke-width: 0px;"/>
      <ellipse cx="183.6" cy="26.03" rx="1.88" ry=".71" style="fill: #fff; stroke-width: 0px;"/>
      <ellipse cx="189.86" cy="27.44" rx="1.88" ry=".71" style="fill: #fff; stroke-width: 0px;"/>
      <ellipse cx="196.22" cy="29.08" rx="1.88" ry=".71" style="fill: #fff; stroke-width: 0px;"/>
      <polygon points="127.32 9.31 152.44 12.86 165.27 6.49 141.02 3.09 127.32 9.31" style="fill: none; opacity: .99; stroke: #fff; stroke-miterlimit: 10; stroke-width: .31px;"/>
      <polygon points="31.51 31.02 31.51 24.09 4.61 24.09 4.32 31.02 31.51 31.02" style="fill: none; stroke: #fff; stroke-miterlimit: 10; stroke-width: .31px;"/>
      <polygon points="142.28 50.91 167.4 48.09 154.05 42.04 129.7 45.15 142.28 50.91" style="fill: none; stroke: #fff; stroke-miterlimit: 10; stroke-width: .31px;"/>
      <polygon points="43.1 48.35 56.51 42.19 80.82 45.15 67.36 51.69 43.1 48.35" style="fill: none; stroke: #fff; stroke-miterlimit: 10; stroke-width: .31px;"/>
      <polygon points="174.42 31.29 202.26 30.95 202.26 23.8 174.42 23.8 174.42 31.29" style="fill: none; stroke: #fff; stroke-miterlimit: 10; stroke-width: .31px;"/>
      <path d="m89.06,54.27c5.12.2,10.35.3,15.68.3,5.72,0,11.34-.12,16.81-.35l-3.79-5.11h-25.46l-3.25,5.16Z" style="fill: #fff; stroke: #040000; stroke-miterlimit: 10; stroke-width: .61px;"/>
      <path d="m179.17,35.76c-.77,2.14-10.27,5.4-10.27,5.4l17.18,4.15c6.48-2.13,11.8-4.52,15.69-7.1l-22.6-2.45Z" style="fill: #fff; stroke: #040000; stroke-miterlimit: 10; stroke-width: .61px;"/>
      <path d="m31.51,20.37c.53-2.04,9.59-5.25,9.59-5.25l-18.35-4.29c-6.79,2.27-12.25,4.84-16.09,7.61l24.84,1.93Z" style="fill: #fff; stroke: #040000; stroke-miterlimit: 10; stroke-width: .61px;"/>
      <path d="m91.75,7.3h25.1l5.2-6.61c-5.63-.25-11.41-.38-17.31-.38s-12.16.14-18.01.41l5.03,6.58Z" style="fill: #fff; stroke: #040000; stroke-miterlimit: 10; stroke-width: .61px;"/>
      <path d="m186.62,10.8l-18.71,4.3c5.5.97,10.9,5,10.9,5l23.32-2.13c-3.81-2.6-9.07-5.01-15.51-7.17Z" style="fill: #fff; stroke: #040000; stroke-miterlimit: 10; stroke-width: .61px;"/>
      <polygon points="57.22 13.53 81.37 9.73 67.63 3.13 42.05 7 57.22 13.53" style="fill: none; stroke: #fff; stroke-miterlimit: 10; stroke-width: .31px;"/>
      <ellipse cx="63.69" cy="6.15" rx="1.7" ry=".57" style="fill: #fff; stroke-width: 0px;"/>
      <ellipse cx="66.96" cy="7.59" rx="1.7" ry=".57" style="fill: #fff; stroke-width: 0px;"/>
      <ellipse cx="70.36" cy="9.04" rx="1.7" ry=".57" style="fill: #fff; stroke-width: 0px;"/>
      <ellipse cx="59.15" cy="10.79" rx="1.7" ry=".57" style="fill: #fff; stroke-width: 0px;"/>
      <ellipse cx="56.12" cy="9.33" rx="1.7" ry=".57" style="fill: #fff; stroke-width: 0px;"/>
      <ellipse cx="52.97" cy="7.87" rx="1.7" ry=".57" style="fill: #fff; stroke-width: 0px;"/>
      <ellipse cx="25.68" cy="26.1" rx="1.88" ry=".71" style="fill: #fff; stroke-width: 0px;"/>
      <ellipse cx="25.68" cy="29.36" rx="1.88" ry=".71" style="fill: #fff; stroke-width: 0px;"/>
      <ellipse cx="13" cy="26.1" rx="1.88" ry=".71" style="fill: #fff; stroke-width: 0px;"/>
      <ellipse cx="13" cy="29.36" rx="1.88" ry=".71" style="fill: #fff; stroke-width: 0px;"/>
      <path d="m.31,28.77s2.16,26.48,107.85,26.31c105.7-.17,100.48-29.69,100.48-29.69,0,0,3.23,16.29-.01,30.2,0,0-5.56,21.02-99.54,24.08,0,0-88.75.38-108.02-23.56L.31,28.77Z" style="fill: #2e2d2f; stroke: #040000; stroke-miterlimit: 10; stroke-width: .61px;"/>
      <path d="m185.5,69.64c7.67-2.41,12.82-4.92,16.26-7.13v-24.97c-3.42,2.78-8.51,5.7-16.08,8.33l-.18,23.77Z" style="fill: #fff; stroke: #040000; stroke-miterlimit: 10; stroke-width: .61px;"/>
      <path d="m121.55,54.67c-4.26.12-8.71.19-13.39.2-6.79.01-13.14-.09-19.1-.29v24.51c11.89.62,20.03.59,20.03.59,4.34-.14,8.49-.32,12.46-.54v-24.47Z" style="fill: #fff; stroke: #040000; stroke-miterlimit: 10; stroke-width: .62px;"/>
      <path d="m7.27,37.92c4.23,2.9,10.25,5.57,17.71,7.91l16.13-4.42c-3.33-.39-10.51-5.4-10.51-5.4l-23.32,1.91Z" style="fill: #fff; stroke: #040000; stroke-miterlimit: 10; stroke-width: .61px;"/>
      <path d="m7.96,62.08c4.44,2.85,10.02,5.25,16.28,7.25l.24-23.45c-7.52-2.44-12.72-5.08-16.29-7.54l-.23,23.74Z" style="fill: #fff; stroke: #040000; stroke-miterlimit: 10; stroke-width: .61px;"/>
      <path d="m104.74,9.73c-37.18,0-67.31,7.93-67.31,17.71s30.14,17.71,67.31,17.71,67.31-7.93,67.31-17.71-30.14-17.71-67.31-17.71Zm.31,33.88c-33.39,0-60.46-7.12-60.46-15.91s27.07-15.91,60.46-15.91,60.46,7.12,60.46,15.91-27.07,15.91-60.46,15.91Z" style="fill: #040000; stroke-width: 0px;"/>
      <path d="m159.75,17.24l-4.88,1.45c3.39,1.3,6.08,2.73,7.9,4.26l4.34-2.17c-1.94-1.26-4.42-2.44-7.36-3.54Z" style="fill: #fff; stroke-width: 0px;"/>
      <path d="m165.51,27.7c0,.85-.26,1.68-.75,2.49l5.68,1.09c1.04-1.24,1.61-2.53,1.61-3.85,0-.48-.09-.95-.23-1.41h-6.65c.22.55.34,1.11.34,1.67Z" style="fill: #fff; stroke-width: 0px;"/>
      <path d="m159.97,34.35c-1.72.99-3.81,1.92-6.23,2.78l.54,2.3c4.64-1.33,8.51-2.84,11.45-4.5l-5.76-.58Z" style="fill: #fff; stroke-width: 0px;"/>
      <path d="m142.62,40.16c-4.04.85-8.5,1.56-13.29,2.11v1.66c5.06-.52,9.81-1.2,14.18-2.01l-.89-1.76Z" style="fill: #fff; stroke-width: 0px;"/>
      <path d="m112.12,45.05v-1.55c-2.32.07-4.68.11-7.08.11s-4.77-.04-7.1-.11l-.05,1.57c2.25.06,4.54.09,6.85.09,2.5,0,4.96-.04,7.38-.11Z" style="fill: #fff; stroke-width: 0px;"/>
      <path d="m80.82,42.28c-4.38-.5-8.49-1.14-12.25-1.89l-.93,1.83c4.1.71,8.52,1.31,13.19,1.78v-1.72Z" style="fill: #fff; stroke-width: 0px;"/>
      <path d="m56.24,37.09c-2.27-.82-4.26-1.69-5.91-2.62l-5.58,1c3.03,1.56,6.91,2.99,11.5,4.25v-2.63Z" style="fill: #fff; stroke-width: 0px;"/>
      <path d="m130.1,13.23c5.17.62,9.94,1.42,14.2,2.38v-2.49c-4.28-.82-8.93-1.51-13.89-2.05l-.31,2.16Z" style="fill: #fff; stroke-width: 0px;"/>
      <path d="m42.05,20.99l5.09,2.13c1.57-1.37,3.82-2.67,6.65-3.86l-2.67-2.53c-3.73,1.29-6.79,2.72-9.08,4.26Z" style="fill: #fff; stroke-width: 0px;"/>
      <path d="m44.59,27.7c0-.36.06-.72.15-1.08l-7.15-.38c-.1.4-.17.79-.17,1.19,0,1.41.65,2.78,1.83,4.1l6.77-.39c-.94-1.11-1.45-2.27-1.45-3.46Z" style="fill: #fff; stroke-width: 0px;"/>
      <path d="m64.69,13.21v2.65c4.3-1.01,9.15-1.87,14.43-2.53l-1.26-2.13c-4.69.54-9.11,1.21-13.17,2Z" style="fill: #fff; stroke-width: 0px;"/>
      <path d="m96.38,9.87v2.09c2.83-.11,5.72-.17,8.67-.17,2.42,0,4.8.04,7.15.11v-2.07c-2.45-.07-4.94-.11-7.46-.11-2.83,0-5.62.05-8.36.14Z" style="fill: #fff; stroke-width: 0px;"/>
      <g>
        <path d="m74.13,32.53l.84-2.76h3.57l2.33-8.62-3.75,1.54.92-3.03,4.66-1.93h3.64l-2.67,12.03h3.56l-.52,2.76h-12.59Zm2.73-8.98l2.86-1.15-.51,1.82-1.14.42-1.21-1.08Zm-3.01,9.88h13.63l.66-3.66,1.73,1.41-.69,4.24h-12.9l-2.43-2Zm13.28-15.69l1.47,1.46-1.9,9.72h-1.96l2.39-11.19Z" style="fill: #fff; stroke-width: 0px;"/>
        <path d="m112.72,24.63c.16,2.95-.42,5.13-1.77,6.43s-3.89,2.01-7.49,2.01-6.07-.67-7.36-1.99c-1.26-1.29-1.68-3.47-1.32-6.44.35-2.8,1.21-4.68,2.59-5.72s3.55-1.52,6.63-1.52,5.24.5,6.52,1.53c1.31,1.05,2.04,2.92,2.19,5.72Zm-2.02-6.5l2.16,1.51c.92.64,1.6,1.41,2.03,2.3s.73,2.16.87,3.77c.27,3.23-.46,5.79-2.24,7.58-1.84,1.84-4.74,2.79-8.66,2.79-1.13,0-2.15-.12-3.04-.35s-1.62-.57-2.2-1.01l-2.35-1.82c.59.39,1.36.66,2.31.83s2.29.26,4.01.26c3.83,0,6.54-.76,8.09-2.26s2.15-3.82,1.95-6.96c-.11-1.73-.4-3.09-.86-4.11s-1.14-1.83-2.07-2.53Zm-10.3,6.53c-.15,2.17.01,3.71.49,4.58s1.37,1.32,2.66,1.32,2.21-.45,2.75-1.34.8-2.41.81-4.56-.24-3.45-.73-4.19-1.29-1.09-2.44-1.09-2,.36-2.52,1.08-.87,2.12-1.01,4.2Zm2.97,5.1c-.9-.11-1.51-.52-1.83-1.22s-.43-1.88-.33-3.55c.12-2.08.38-3.4.77-4.02s1.03-.92,1.93-.92c.63,0,1.14.18,1.53.53s.62.85.68,1.49c-.32-.18-.59-.3-.82-.38s-.45-.12-.65-.12c-.52,0-.89.15-1.1.47s-.34,1.08-.39,2.33l-.02.42c-.03.64-.02,1.36.02,2.17s.11,1.75.22,2.8Z" style="fill: #fff; stroke-width: 0px;"/>
        <path d="m135.04,24.63c.81,2.95.71,5.13-.35,6.43s-3.45,2.01-7.05,2.01-6.22-.67-7.8-1.99c-1.54-1.29-2.45-3.47-2.74-6.44-.27-2.8.18-4.68,1.32-5.72s3.21-1.52,6.3-1.52,5.36.5,6.86,1.53c1.54,1.05,2.69,2.92,3.46,5.72Zm-3.46-6.5l2.5,1.51c1.06.64,1.91,1.41,2.54,2.3s1.21,2.16,1.7,3.77c.98,3.23.82,5.79-.57,7.58-1.44,1.84-4.13,2.79-8.04,2.79-1.13,0-2.17-.12-3.12-.35s-1.75-.57-2.42-1.01l-2.75-1.82c.68.39,1.51.66,2.49.83s2.34.26,4.07.26c3.83,0,6.37-.76,7.59-2.26s1.3-3.82.41-6.96c-.49-1.73-1.08-3.09-1.77-4.11s-1.55-1.83-2.63-2.53Zm-8.85,6.53c.33,2.17.83,3.71,1.5,4.58s1.66,1.32,2.95,1.32,2.11-.45,2.46-1.34.27-2.41-.2-4.56-1-3.45-1.65-4.19-1.53-1.09-2.68-1.09-1.92.36-2.29,1.08-.4,2.12-.08,4.2Zm4.1,5.1c-.92-.11-1.62-.52-2.1-1.22s-.84-1.88-1.11-3.55c-.34-2.08-.37-3.4-.12-4.02s.82-.92,1.72-.92c.63,0,1.18.18,1.65.53s.81.85,1,1.49c-.35-.18-.66-.3-.91-.38s-.48-.12-.68-.12c-.52,0-.86.15-1,.47s-.1,1.08.12,2.33l.08.42c.12.64.28,1.36.49,2.17s.5,1.75.84,2.8Z" style="fill: #fff; stroke-width: 0px;"/>
      </g>
    </g>
  </g>
</svg>