<?xml version="1.0" encoding="UTF-8"?>
<svg id="_图层_2" data-name="图层 2" xmlns="http://www.w3.org/2000/svg" viewBox="0 0 210.38 79.98">
  <g id="_图层_7" data-name="图层 7">
    <g>
      <g>
        <ellipse cx="104.67" cy="28.13" rx="104.37" ry="27.82" style="fill: #2d2b2e; stroke: #080103; stroke-miterlimit: 10; stroke-width: .62px;"/>
        <path d="m104.46,9.8c-36.85,0-66.72,7.99-66.72,17.85s29.87,17.85,66.72,17.85,66.72-7.99,66.72-17.85-29.87-17.85-66.72-17.85Zm.32,33.7c-33.7,0-61.02-6.99-61.02-15.62s27.32-15.62,61.02-15.62,61.02,6.99,61.02,15.62-27.32,15.62-61.02,15.62Z" style="fill: #070102; stroke-width: 0px;"/>
        <path d="m45.57,36.05l3.36-1.86c-1.86-1.08-3.26-2.22-4.13-3.42l-5.89.22c1.27,1.8,3.54,3.5,6.67,5.06Z" style="fill: #fff; stroke-width: 0px;"/>
        <path d="m66.71,40.09c-3.34-.68-6.39-1.45-9.11-2.3l-4.07,1.39c3.84,1.21,8.27,2.29,13.18,3.19v-2.28Z" style="fill: #fff; stroke-width: 0px;"/>
        <path d="m95.24,43.31c-4.33-.17-8.5-.46-12.48-.86l-1.8,1.91c4.86.49,10,.83,15.33,1.01l-1.05-2.06Z" style="fill: #fff; stroke-width: 0px;"/>
        <path d="m126.39,42.49c-3.96.38-8.11.67-12.4.83l-.92,2.03c5.27-.18,10.35-.53,15.17-1.02l-1.84-1.84Z" style="fill: #fff; stroke-width: 0px;"/>
        <path d="m151.47,37.94c-2.64.8-5.58,1.54-8.79,2.19v2.16c4.64-.87,8.84-1.89,12.51-3.04l-3.71-1.31Z" style="fill: #fff; stroke-width: 0px;"/>
        <path d="m164.67,30.87c.73-.97,1.12-1.97,1.12-2.99,0-8.62-27.32-15.62-61.02-15.62s-61.02,6.99-61.02,15.62,27.32,15.62,61.02,15.62c25.16,0,46.75-3.9,56.09-9.46,1.69-1.01,2.98-2.07,3.81-3.17Z" style="fill: none; stroke-width: 0px;"/>
        <path d="m160.86,34.04l2.32,2.09c3.27-1.62,5.63-3.39,6.91-5.26h-5.42c-.83,1.1-2.12,2.16-3.81,3.17Z" style="fill: #fff; stroke-width: 0px;"/>
        <path d="m167.94,22.15l-6.12.19c2.38,1.6,3.77,3.33,3.95,5.14l5.39-.25c-.15-1.77-1.27-3.48-3.22-5.09Z" style="fill: #fff; stroke-width: 0px;"/>
        <path d="m37.74,27.51l6.05-.17c.23-1.71,1.52-3.34,3.72-4.86l-6.3-.53c-2.2,1.75-3.42,3.62-3.48,5.56Z" style="fill: #fff; stroke-width: 0px;"/>
        <path d="m52.79,16.36l.31,3.22c3.5-1.42,7.87-2.69,12.93-3.76l-3.84-1.98c-3.43.75-6.58,1.6-9.4,2.52Z" style="fill: #fff; stroke-width: 0px;"/>
        <path d="m81.05,10.93l-.96,2.67c4.95-.56,10.24-.96,15.77-1.17l-1.35-2.44c-4.66.19-9.17.5-13.46.93Z" style="fill: #fff; stroke-width: 0px;"/>
        <path d="m113.96,12.45c5.57.22,10.9.62,15.87,1.2l-.46-2.56c-4.42-.48-9.07-.83-13.9-1.04-.42.67-.99,1.58-1.5,2.41Z" style="fill: #fff; stroke-width: 0px;"/>
        <path d="m143.92,15.91c5.01,1.07,9.33,2.35,12.78,3.77l.53-2.96c-2.89-1-6.16-1.91-9.76-2.72l-3.55,1.91Z" style="fill: #fff; stroke-width: 0px;"/>
        <path d="m116.14.31l-2.72,6.98s22.44.87,24.84,1.75l11.12-6.33c-10.28-1.26-21.47-2.09-33.23-2.4Z" style="fill: #fff; stroke: #29512f; stroke-miterlimit: 10; stroke-width: .51px;"/>
        <path d="m40.54,15.82s12.3-4.31,16.18-4.31l-13.89-5.7c-8.57,1.69-16.11,3.72-22.36,6.01l20.07,4.01Z" style="fill: #fff; stroke: #29512f; stroke-miterlimit: 10; stroke-width: .51px;"/>
        <path d="m208.53,25.48c-.87-2.68-3.19-5.26-6.76-7.66l-23.6,2.34s6.03,3.56,5.82,5.74l24.55-.42Z" style="fill: #fff; stroke: #080103; stroke-miterlimit: 10; stroke-width: .51px;"/>
        <path d="m170.34,41.16s-6.47,3.2-17.74,4.62l12.67,5.15c8.83-1.67,16.69-3.68,23.32-5.96l-18.25-3.8Z" style="fill: #fff; stroke: #080103; stroke-miterlimit: 10; stroke-width: .54px;"/>
        <path d="m72.11,48.05l-9.13,4.95c9.71,1.13,20.2,1.89,31.2,2.18l2.11-5.54c-11,.36-24.18-1.6-24.18-1.6Z" style="fill: #fff; stroke: #080103; stroke-miterlimit: 10; stroke-width: .51px;"/>
        <path d="m1.88,31.57c1.37,2.66,4.17,5.21,8.21,7.57l20.24-2.68-5.36-5.48-23.09.59Z" style="fill: #fff; stroke: #080103; stroke-miterlimit: 10; stroke-width: .51px;"/>
        <path d="m.31,28.63s2.16,26.56,107.85,26.39c105.7-.17,100.48-29.78,100.48-29.78,0,0,3.23,16.33-.01,30.29,0,0-5.56,21.08-99.54,24.15,0,0-88.75.38-108.02-23.63L.31,28.63Z" style="fill: #2b2d2d; stroke: #080103; stroke-miterlimit: 10; stroke-width: .61px;"/>
        <ellipse cx="191.57" cy="35.65" rx="1.61" ry=".48" style="fill: #fff; stroke-width: 0px;"/>
        <ellipse cx="187.09" cy="33.7" rx="1.61" ry=".48" style="fill: #fff; stroke-width: 0px;"/>
        <ellipse cx="182.66" cy="31.62" rx="1.61" ry=".48" style="fill: #fff; stroke-width: 0px;"/>
        <ellipse cx="126.42" cy="49.42" rx="1.61" ry=".48" style="fill: #fff; stroke-width: 0px;"/>
        <ellipse cx="44.15" cy="43.62" rx="1.61" ry=".48" style="fill: #fff; stroke-width: 0px;"/>
        <ellipse cx="44.25" cy="41.29" rx="1.61" ry=".48" style="fill: #fff; stroke-width: 0px;"/>
        <ellipse cx="53.19" cy="43.62" rx="1.61" ry=".48" style="fill: #fff; stroke-width: 0px;"/>
        <ellipse cx="44.15" cy="45.95" rx="1.61" ry=".48" style="fill: #fff; stroke-width: 0px;"/>
        <ellipse cx="35.21" cy="43.5" rx="1.61" ry=".48" style="fill: #fff; stroke-width: 0px;"/>
        <ellipse cx="26.82" cy="24" rx="1.61" ry=".48" style="fill: #fff; stroke-width: 0px;"/>
        <ellipse cx="30.03" cy="20.72" rx="1.61" ry=".48" style="fill: #fff; stroke-width: 0px;"/>
        <ellipse cx="17.8" cy="19.91" rx="1.61" ry=".48" style="fill: #fff; stroke-width: 0px;"/>
        <ellipse cx="14.58" cy="23.2" rx="1.61" ry=".48" style="fill: #fff; stroke-width: 0px;"/>
        <ellipse cx="75.04" cy="4.98" rx="1.61" ry=".48" style="fill: #fff; stroke-width: 0px;"/>
        <ellipse cx="76.9" cy="6.65" rx="1.61" ry=".48" style="fill: #fff; stroke-width: 0px;"/>
        <ellipse cx="78.39" cy="8.2" rx="1.61" ry=".48" style="fill: #fff; stroke-width: 0px;"/>
        <ellipse cx="87.31" cy="4.2" rx="1.61" ry=".48" style="fill: #fff; stroke-width: 0px;"/>
        <ellipse cx="89.15" cy="5.8" rx="1.61" ry=".48" style="fill: #fff; stroke-width: 0px;"/>
        <ellipse cx="90.75" cy="7.4" rx="1.61" ry=".48" style="fill: #fff; stroke-width: 0px;"/>
        <ellipse cx="174.28" cy="12.02" rx="1.61" ry=".48" style="fill: #fff; stroke-width: 0px;"/>
        <ellipse cx="156.2" cy="12.02" rx="1.61" ry=".48" style="fill: #fff; stroke-width: 0px;"/>
        <polygon points="74.32 10.3 100.84 8.68 93.66 1.62 66.02 3.51 74.32 10.3" style="fill: none; stroke: #fff; stroke-miterlimit: 10; stroke-width: .31px;"/>
        <polygon points="11.69 17.37 4.37 24.48 31.01 26.03 37.5 19.12 11.69 17.37" style="fill: none; stroke: #fff; stroke-miterlimit: 10; stroke-width: .31px;"/>
        <polygon points="23.98 43.5 44.15 38.46 62.98 43.02 44.25 48.35 23.98 43.5" style="fill: none; stroke: #fff; stroke-miterlimit: 10; stroke-width: .31px;"/>
        <polygon points="111.55 46.46 117.79 53.22 144.28 51.62 137.61 45.01 111.55 46.46" style="fill: none; stroke: #fff; stroke-miterlimit: 10; stroke-width: .31px;"/>
        <polygon points="169.78 35.65 196 37.94 202.46 30.87 176.62 29.23 169.78 35.65" style="fill: none; stroke: #fff; stroke-miterlimit: 10; stroke-width: .31px;"/>
        <polygon points="165.1 16.85 184.09 11.54 166.07 6.87 146.4 11.54 165.1 16.85" style="fill: none; stroke: #fff; stroke-miterlimit: 10; stroke-width: .31px;"/>
        <path d="m62.98,76.81c11.54,1.43,22.57,2.15,30.88,2.51v-24.45c-11.76-.28-21.99-.96-30.88-1.91v23.86Z" style="fill: #fff; stroke: #080103; stroke-miterlimit: 10; stroke-width: .6px;"/>
        <path d="m165.48,74.4c9.72-1.76,17.26-3.77,23.11-5.81l-.23-23.8c-5.82,2.26-13.29,4.36-22.89,6.06v23.56Z" style="fill: #fff; stroke: #080103; stroke-miterlimit: 10; stroke-width: .61px;"/>
        <path d="m10.07,39.44c-4.55-2.78-6.99-5.42-8.29-7.39-1.04,5.5-.02,24.68-.01,24.83,2.01,2.27,4.66,4.31,7.79,6.14-.52-10.81.35-21.71.5-23.58Z" style="fill: #fff; stroke: #080103; stroke-miterlimit: 10; stroke-width: .61px;"/>
      </g>
      <g>
        <path d="m71.74,33.45l.84-2.76h3.57l2.33-8.62-3.75,1.54.92-3.03,4.66-1.93h3.64l-2.67,12.03h3.56l-.52,2.76h-12.59Zm2.73-8.98l2.86-1.15-.51,1.82-1.14.42-1.21-1.08Zm-3.01,9.88h13.63l.66-3.66,1.73,1.41-.69,4.24h-12.9l-2.43-2Zm13.28-15.69l1.47,1.46-1.9,9.72h-1.96l2.39-11.19Z" style="fill: #fff; stroke-width: 0px;"/>
        <path d="m110.32,25.55c.16,2.95-.42,5.13-1.77,6.43s-3.89,2.01-7.49,2.01-6.07-.67-7.36-1.99c-1.26-1.29-1.68-3.47-1.32-6.44.35-2.8,1.21-4.68,2.59-5.72s3.55-1.52,6.63-1.52,5.24.5,6.52,1.53c1.31,1.05,2.04,2.92,2.19,5.72Zm-2.02-6.5l2.16,1.51c.92.64,1.6,1.41,2.03,2.3s.73,2.16.87,3.77c.27,3.23-.46,5.79-2.24,7.58-1.84,1.84-4.74,2.79-8.66,2.79-1.13,0-2.15-.12-3.04-.35-.89-.23-1.62-.57-2.2-1.01l-2.35-1.82c.59.39,1.36.66,2.31.83s2.29.26,4.01.26c3.83,0,6.54-.76,8.09-2.26s2.15-3.82,1.95-6.96c-.11-1.73-.4-3.09-.86-4.11s-1.14-1.83-2.07-2.53Zm-10.3,6.53c-.15,2.17.01,3.71.49,4.58s1.37,1.32,2.66,1.32,2.21-.45,2.75-1.34.8-2.41.81-4.56-.24-3.45-.73-4.19-1.29-1.09-2.44-1.09-2,.36-2.52,1.08-.87,2.12-1.01,4.2Zm2.97,5.1c-.9-.11-1.51-.52-1.83-1.22s-.43-1.88-.33-3.55c.12-2.08.38-3.4.77-4.02s1.03-.92,1.93-.92c.63,0,1.14.18,1.53.53s.62.85.68,1.49c-.32-.18-.59-.3-.82-.38s-.45-.12-.65-.12c-.52,0-.89.15-1.1.47s-.34,1.08-.39,2.33l-.02.42c-.03.64-.02,1.36.02,2.17s.11,1.75.22,2.8Z" style="fill: #fff; stroke-width: 0px;"/>
        <path d="m132.65,25.55c.81,2.95.71,5.13-.35,6.43s-3.45,2.01-7.05,2.01-6.22-.67-7.8-1.99c-1.54-1.29-2.45-3.47-2.74-6.44-.27-2.8.18-4.68,1.32-5.72s3.21-1.52,6.3-1.52,5.36.5,6.86,1.53c1.54,1.05,2.69,2.92,3.46,5.72Zm-3.46-6.5l2.5,1.51c1.06.64,1.91,1.41,2.54,2.3s1.21,2.16,1.7,3.77c.98,3.23.82,5.79-.57,7.58-1.44,1.84-4.13,2.79-8.04,2.79-1.13,0-2.17-.12-3.12-.35-.94-.23-1.75-.57-2.42-1.01l-2.75-1.82c.68.39,1.51.66,2.49.83s2.34.26,4.07.26c3.83,0,6.37-.76,7.59-2.26s1.3-3.82.41-6.96c-.49-1.73-1.08-3.09-1.77-4.11s-1.55-1.83-2.63-2.53Zm-8.85,6.53c.33,2.17.83,3.71,1.5,4.58s1.66,1.32,2.95,1.32,2.11-.45,2.46-1.34.27-2.41-.2-4.56-1-3.45-1.65-4.19-1.53-1.09-2.68-1.09-1.92.36-2.29,1.08-.4,2.12-.08,4.2Zm4.1,5.1c-.92-.11-1.62-.52-2.1-1.22s-.84-1.88-1.11-3.55c-.34-2.08-.37-3.4-.12-4.02s.82-.92,1.72-.92c.63,0,1.18.18,1.65.53s.81.85,1,1.49c-.35-.18-.66-.3-.91-.38s-.48-.12-.68-.12c-.52,0-.86.15-1,.47s-.1,1.08.12,2.33l.08.42c.12.64.28,1.36.49,2.17s.5,1.75.84,2.8Z" style="fill: #fff; stroke-width: 0px;"/>
      </g>
    </g>
  </g>
</svg>