<?xml version="1.0" encoding="UTF-8"?>
<svg id="_图层_2" data-name="图层 2" xmlns="http://www.w3.org/2000/svg" viewBox="0 0 210.66 79.98">
  <defs>
    <style>
      .red2-cls-1 {
        stroke-width: .6px;
      }

      .red2-cls-1, .red2-cls-2 {
        stroke: #9b2124;
      }

      .red2-cls-1, .red2-cls-2, .red2-cls-3, .red2-cls-4, .red2-cls-5, .red2-cls-6 {
        stroke-miterlimit: 10;
      }

      .red2-cls-1, .red2-cls-2, .red2-cls-7, .red2-cls-5 {
        fill: #fff;
      }

      .red2-cls-2, .red2-cls-3, .red2-cls-4 {
        stroke-width: .61px;
      }

      .red2-cls-3 {
        fill: #c02125;
      }

      .red2-cls-3, .red2-cls-4 {
        stroke: #942223;
      }

      .red2-cls-7, .red2-cls-8 {
        stroke-width: 0px;
      }

      .red2-cls-8 {
        fill: #9b2124;
      }

      .red2-cls-4 {
        fill: #cc1d24;
      }

      .red2-cls-5 {
        stroke: #231815;
      }

      .red2-cls-6 {
        fill: none;
        stroke: #fff;
        stroke-width: .31px;
      }
    </style>
  </defs>
  <g id="_图层_4" data-name="图层 4">
    <g>
      <path class="red2-cls-3" d="m.83,28.84s2.15,26.45,107.59,26.28c105.43-.17,100.23-29.65,100.23-29.65,0,0,3.22,16.26-.01,30.16,0,0-5.55,20.99-99.29,24.05,0,0-88.53.38-107.75-23.53l-.76-27.3Z"/>
      <ellipse class="red2-cls-4" cx="105.45" cy="27.98" rx="103.7" ry="27.67"/>
      <rect class="red2-cls-6" x="90.42" y="2.11" width="27.39" height="6.98"/>
      <ellipse class="red2-cls-7" cx="99.23" cy="4.15" rx="1.84" ry=".47"/>
      <ellipse class="red2-cls-7" cx="99.23" cy="5.85" rx="1.84" ry=".47"/>
      <ellipse class="red2-cls-7" cx="99.34" cy="7.52" rx="1.84" ry=".47"/>
      <ellipse class="red2-cls-7" cx="112.16" cy="3.97" rx="1.84" ry=".47"/>
      <ellipse class="red2-cls-7" cx="112.16" cy="5.85" rx="1.84" ry=".47"/>
      <ellipse class="red2-cls-7" cx="112.16" cy="7.52" rx="1.84" ry=".47"/>
      <polygon class="red2-cls-6" points="11.9 37.54 36.99 33.99 51.41 40.37 27.96 43.42 11.9 37.54"/>
      <ellipse class="red2-cls-7" cx="33.89" cy="36.6" rx="1.94" ry=".57"/>
      <ellipse class="red2-cls-7" cx="31.34" cy="38.86" rx="1.94" ry=".57"/>
      <ellipse class="red2-cls-7" cx="29.04" cy="41" rx="1.94" ry=".57"/>
      <ellipse class="red2-cls-7" cx="22.59" cy="38.29" rx="1.94" ry=".57"/>
      <ellipse class="red2-cls-7" cx="40.29" cy="39.66" rx="1.94" ry=".57"/>
      <path class="red2-cls-2" d="m68.1,2.74l7.87,5.82s-18.3,2.19-20.61,3.46l-16.39-4.74s19.53-4.36,29.14-4.54Z"/>
      <path class="red2-cls-2" d="m143.13,2.74l-7.87,5.82s18.3,2.19,20.61,3.46l16.39-4.74s-19.53-4.36-29.14-4.54Z"/>
      <path class="red2-cls-2" d="m207.64,32.72l-22.39-1.01s2.08-4.15,0-6.92l23.71-.07s1.39,4.17-1.32,8Z"/>
      <path class="red2-cls-2" d="m156.2,44.9c-2.55,1.15-21.77,3.23-21.77,3.23l7.63,5.31v.28c16.32-.14,24.58-2.31,28.15-3.66l-14.01-5.15Z"/>
      <path class="red2-cls-2" d="m142.05,53.71v23.92s17.71-.83,28.54-3.82v-23.62l-.39-.14c-3.57,1.35-11.83,3.52-28.15,3.66Z"/>
      <path class="red2-cls-2" d="m68.18,53.09v24.54c-11.08-1.2-20.52-2.92-28.5-4.86v-23.31c7.8,1.49,17.2,2.75,28.5,3.62Z"/>
      <path class="red2-cls-2" d="m39.68,49.47h0s15.04-4.57,15.04-4.57c0,0,19.91,3.92,22,3.23,2.09-.69-8.54,4.97-8.54,4.97,0,0-23.06-2.49-28.5-3.63"/>
      <path class="red2-cls-2" d="m3.58,32.72l22.39-1.01s-2.08-4.15,0-6.92l-23.71-.07s-1.39,4.17,1.32,8Z"/>
      <path class="red2-cls-2" d="m2.26,24.72s-4.16,8.88-.36,31.3c0,0,.18-23.24,1.67-23.3,0,0-1.7-5.84-1.32-8Z"/>
      <path class="red2-cls-7" d="m105.24,10.8c-37.02,0-67.02,7.69-67.02,17.17s30.01,17.17,67.02,17.17,67.02-7.69,67.02-17.17-30.01-17.17-67.02-17.17Zm.37,33.17c-34.01,0-61.58-7.18-61.58-16.04s27.57-16.04,61.58-16.04,61.58,7.18,61.58,16.04-27.57,16.04-61.58,16.04Z"/>
      <path class="red2-cls-8" d="m160.6,35.16c-1.64.84-3.55,1.64-5.71,2.39l.13,1.92c4.34-1.23,7.98-2.62,10.79-4.14l-5.21-.18Z"/>
      <path class="red2-cls-8" d="m167.19,28.03c0,1.12-.44,2.21-1.28,3.26l4.92.32c.93-1.14,1.43-2.32,1.43-3.54,0-.4-.06-.79-.16-1.19h-5.07c.1.38.16.76.16,1.14Z"/>
      <path class="red2-cls-8" d="m131.27,13.43c5.23.62,10.06,1.42,14.38,2.37l.21-1.43c-4.4-.85-9.21-1.57-14.36-2.12l-.23,1.18Z"/>
      <path class="red2-cls-8" d="m97.5,10.96v1.12c2.65-.09,5.36-.14,8.11-.14s5.65.05,8.39.15v-1.09c-2.87-.1-5.79-.15-8.76-.15-2.62,0-5.2.04-7.74.11Z"/>
      <path class="red2-cls-8" d="m159.51,17.98l-3.45.84c3.68,1.38,6.56,2.91,8.45,4.56l3.62-1.23c-2.13-1.5-5.05-2.9-8.62-4.16Z"/>
      <path class="red2-cls-8" d="m44.04,27.93c0-.46.08-.92.23-1.37h-5.82c-.15.47-.23.94-.23,1.41,0,1.29.56,2.54,1.61,3.75l5.55-.46c-.87-1.08-1.33-2.19-1.33-3.33Z"/>
      <path class="red2-cls-8" d="m56.12,37.48c-2.47-.87-4.61-1.8-6.37-2.79l-5.17.6c2.96,1.61,6.87,3.08,11.54,4.37v-2.18Z"/>
      <path class="red2-cls-8" d="m81.35,42.68c-4.37-.49-8.47-1.1-12.25-1.83l-1.92,1.26c4.41.78,9.2,1.43,14.28,1.92l-.11-1.36Z"/>
      <path class="red2-cls-8" d="m112.92,45.04v-1.18c-2.4.07-4.84.11-7.31.11s-4.8-.04-7.14-.11l-.05,1.2c2.24.06,4.51.09,6.81.09,2.6,0,5.16-.04,7.68-.11Z"/>
      <path class="red2-cls-8" d="m65.88,14.08l-.05,1.62c4.22-.93,8.94-1.72,14.03-2.33l-.9-1.19c-4.65.51-9.03,1.15-13.07,1.9Z"/>
      <path class="red2-cls-8" d="m43.73,21.14l3.19,1.93c1.75-1.44,4.26-2.78,7.4-4.01l-3.26-1.19c-2.89,1.01-5.35,2.11-7.32,3.28Z"/>
      <path class="red2-cls-8" d="m142.22,40.83c-3.77.73-7.87,1.34-12.23,1.83v1.27c4.77-.49,9.26-1.11,13.42-1.85l-1.2-1.26Z"/>
      <polygon class="red2-cls-6" points="90.44 53.37 117.8 53.09 117.8 46.15 90.44 46.15 90.44 53.37"/>
      <ellipse class="red2-cls-7" cx="105.61" cy="49.92" rx="2.15" ry=".53"/>
      <polygon class="red2-cls-6" points="11.9 17.87 25.45 12.02 50.35 15.21 37.09 21.18 11.9 17.87"/>
      <ellipse class="red2-cls-7" cx="29.03" cy="14.5" rx="1.94" ry=".57"/>
      <ellipse class="red2-cls-7" cx="22.77" cy="17.51" rx="1.94" ry=".57"/>
      <ellipse class="red2-cls-7" cx="33.89" cy="19.04" rx="1.94" ry=".57"/>
      <ellipse class="red2-cls-7" cx="40.16" cy="16.23" rx="1.94" ry=".57"/>
      <polygon class="red2-cls-6" points="175.5 21.25 199.06 17.98 186.04 11.9 160.35 14.97 175.5 21.25"/>
      <ellipse class="red2-cls-7" cx="171.2" cy="16.24" rx="2.11" ry=".67"/>
      <ellipse class="red2-cls-7" cx="188.55" cy="17.49" rx="2.11" ry=".67"/>
      <polygon class="red2-cls-6" points="174.05 33.68 198.37 37.32 185.25 43.36 160.85 39.84 174.05 33.68"/>
      <ellipse class="red2-cls-7" cx="177.46" cy="36.56" rx="2.15" ry=".65"/>
      <ellipse class="red2-cls-7" cx="179.78" cy="38.95" rx="2.15" ry=".65"/>
      <ellipse class="red2-cls-7" cx="182.15" cy="41.18" rx="2.15" ry=".65"/>
      <path class="red2-cls-1" d="m207.93,33.19s2.98-4.18,1.31,22.48c0,0,2.51-23.67.01-30.27,0,0-.54,6.72-1.32,7.79Z"/>
    </g>
  </g>
  <g id="_图层_7" data-name="图层 7">
    <g>
      <path class="red2-cls-5" d="m88.87,40.98l.84-3.66c-3.65-.14-6.21-1.06-7.61-2.71s-1.49-3.62-.55-6.07h6.93c-.27,1.21-.23,2.12.13,2.68s1.08.88,2.15.92l1.25-5.32c-3.15-.59-5.27-1.37-6.37-2.34s-1.3-2.13-.74-3.55c.58-1.49,1.78-2.64,3.58-3.47s3.82-1.22,6.29-1.25l.28-1.25h2.34l-.22,1.23c2.34.04,4.13.44,5.41,1.23s2.02,1.99,2.07,3.58h-5.78c.03-.7-.14-1.21-.51-1.56s-.94-.52-1.72-.54l-.64,3.6c3.2.59,5.49,1.37,6.83,2.34s2.1,2.43,2.08,4.31c-.03,2.34-.98,4.26-2.91,5.66s-5.03,2.32-8.99,2.54l-.66,3.62h-3.47Zm4.75-18.91l.71-3.2h-.13c-.92,0-1.64.12-2.17.37s-.87.63-1.01,1.15c-.11.4.02.73.4.99s1.11.49,2.2.7Zm.14,10.07c1.28,0,2.27-.2,2.99-.59s1.1-.96,1.19-1.69c.08-.63-.13-1.11-.6-1.47s-1.37-.69-2.69-1l-.88,4.76Z"/>
      <path class="red2-cls-5" d="m106.77,29.92l7.92-.66c.41.7.96,1.24,1.65,1.61s1.52.56,2.45.56c1.24,0,2.14-.29,2.69-.87s.69-1.33.44-2.26-.76-1.67-1.54-2.21-1.64-.79-2.65-.79c-.62,0-1.16.1-1.63.29s-.87.48-1.18.86l-7.15-.48,1.81-9.57h13.78l1.35,3.74h-10.11l-.28,2.5c.63-.3,1.33-.51,2.11-.64s1.67-.2,2.68-.2c2.44,0,4.57.52,6.45,1.61s3.36,2.68,4.17,4.73c1.07,2.71.87,5-.76,6.75-1.71,1.85-4.74,2.81-9,2.81-3.52,0-6.51-.75-8.89-2.21s-3.71-3.28-4.33-5.55Z"/>
    </g>
  </g>
</svg>