<?xml version="1.0" encoding="UTF-8"?>
<svg id="_图层_2" data-name="图层 2" xmlns="http://www.w3.org/2000/svg" viewBox="0 0 210.38 79.98">
  <defs>
    <style>
      .red4-cls-1 {
        stroke-width: .6px;
      }

      .red4-cls-1, .red4-cls-2, .red4-cls-3, .red4-cls-4, .red4-cls-5, .red4-cls-6, .red4-cls-7, .red4-cls-8, .red4-cls-9, .red4-cls-10, .red4-cls-11 {
        stroke-miterlimit: 10;
      }

      .red4-cls-1, .red4-cls-2, .red4-cls-4, .red4-cls-5 {
        stroke: #892022;
      }

      .red4-cls-1, .red4-cls-12, .red4-cls-5, .red4-cls-6, .red4-cls-7, .red4-cls-8, .red4-cls-9, .red4-cls-10, .red4-cls-11 {
        fill: #fff;
      }

      .red4-cls-13, .red4-cls-3 {
        fill: none;
      }

      .red4-cls-13, .red4-cls-12, .red4-cls-14, .red4-cls-15 {
        stroke-width: 0px;
      }

      .red4-cls-2 {
        fill: #cc1d24;
        stroke-width: .62px;
      }

      .red4-cls-3 {
        stroke: #fff;
        stroke-width: .31px;
      }

      .red4-cls-4 {
        fill: #cb1d24;
      }

      .red4-cls-4, .red4-cls-6, .red4-cls-7 {
        stroke-width: .61px;
      }

      .red4-cls-5, .red4-cls-8, .red4-cls-11 {
        stroke-width: .51px;
      }

      .red4-cls-14 {
        fill: #892022;
      }

      .red4-cls-15 {
        fill: #8e2123;
      }

      .red4-cls-6, .red4-cls-8, .red4-cls-10 {
        stroke: #8e2123;
      }

      .red4-cls-7, .red4-cls-11 {
        stroke: #842021;
      }

      .red4-cls-9 {
        stroke: #231815;
      }

      .red4-cls-10 {
        stroke-width: .54px;
      }
    </style>
  </defs>
  <g id="_图层_4" data-name="图层 4">
    <g>
      <ellipse class="red4-cls-2" cx="104.67" cy="28.13" rx="104.37" ry="27.82"/>
      <path class="red4-cls-12" d="m104.46,9.8c-36.85,0-66.72,7.99-66.72,17.85s29.87,17.85,66.72,17.85,66.72-7.99,66.72-17.85-29.87-17.85-66.72-17.85Zm.32,33.7c-33.7,0-61.02-6.99-61.02-15.62s27.32-15.62,61.02-15.62,61.02,6.99,61.02,15.62-27.32,15.62-61.02,15.62Z"/>
      <path class="red4-cls-15" d="m45.57,36.05l3.36-1.86c-1.86-1.08-3.26-2.22-4.13-3.42l-5.89.22c1.27,1.8,3.54,3.5,6.67,5.06Z"/>
      <path class="red4-cls-14" d="m66.71,40.09c-3.34-.68-6.39-1.45-9.11-2.3l-4.07,1.39c3.84,1.21,8.27,2.29,13.18,3.19v-2.28Z"/>
      <path class="red4-cls-14" d="m95.24,43.31c-4.33-.17-8.5-.46-12.48-.86l-1.8,1.91c4.86.49,10,.83,15.33,1.01l-1.05-2.06Z"/>
      <path class="red4-cls-14" d="m126.39,42.49c-3.96.38-8.11.67-12.4.83l-.92,2.03c5.27-.18,10.35-.53,15.17-1.02l-1.84-1.84Z"/>
      <path class="red4-cls-14" d="m151.47,37.94c-2.64.8-5.58,1.54-8.79,2.19v2.16c4.64-.87,8.84-1.89,12.51-3.04l-3.71-1.31Z"/>
      <path class="red4-cls-13" d="m164.67,30.87c.73-.97,1.12-1.97,1.12-2.99,0-8.62-27.32-15.62-61.02-15.62s-61.02,6.99-61.02,15.62,27.32,15.62,61.02,15.62c25.16,0,46.75-3.9,56.09-9.46,1.69-1.01,2.98-2.07,3.81-3.17Z"/>
      <path class="red4-cls-14" d="m160.86,34.04l2.32,2.09c3.27-1.62,5.63-3.39,6.91-5.26h-5.42c-.83,1.1-2.12,2.16-3.81,3.17Z"/>
      <path class="red4-cls-15" d="m167.94,22.15l-6.12.19c2.38,1.6,3.77,3.33,3.95,5.14l5.39-.25c-.15-1.77-1.27-3.48-3.22-5.09Z"/>
      <path class="red4-cls-15" d="m37.74,27.51l6.05-.17c.23-1.71,1.52-3.34,3.72-4.86l-6.3-.53c-2.2,1.75-3.42,3.62-3.48,5.56Z"/>
      <path class="red4-cls-15" d="m52.79,16.36l.31,3.22c3.5-1.42,7.87-2.69,12.93-3.76l-3.84-1.98c-3.43.75-6.58,1.6-9.4,2.52Z"/>
      <path class="red4-cls-15" d="m81.05,10.93l-.96,2.67c4.95-.56,10.24-.96,15.77-1.17l-1.35-2.44c-4.66.19-9.17.5-13.46.93Z"/>
      <path class="red4-cls-15" d="m113.96,12.45c5.57.22,10.9.62,15.87,1.2l-.46-2.56c-4.42-.48-9.07-.83-13.9-1.04-.42.67-.99,1.58-1.5,2.41Z"/>
      <path class="red4-cls-15" d="m143.92,15.91c5.01,1.07,9.33,2.35,12.78,3.77l.53-2.96c-2.89-1-6.16-1.91-9.76-2.72l-3.55,1.91Z"/>
      <path class="red4-cls-8" d="m116.14.31l-2.72,6.98s22.44.87,24.84,1.75l11.12-6.33c-10.28-1.26-21.47-2.09-33.23-2.4Z"/>
      <path class="red4-cls-8" d="m40.54,15.82s12.3-4.31,16.18-4.31l-13.89-5.7c-8.57,1.69-16.11,3.72-22.36,6.01l20.07,4.01Z"/>
      <path class="red4-cls-5" d="m208.53,25.48c-.87-2.68-3.19-5.26-6.76-7.66l-23.6,2.34s6.03,3.56,5.82,5.74l24.55-.42Z"/>
      <path class="red4-cls-10" d="m170.34,41.16s-6.47,3.2-17.74,4.62l12.67,5.15c8.83-1.67,16.69-3.68,23.32-5.96l-18.25-3.8Z"/>
      <path class="red4-cls-5" d="m72.11,48.05l-9.13,4.95c9.71,1.13,20.2,1.89,31.2,2.18l2.11-5.54c-11,.36-24.18-1.6-24.18-1.6Z"/>
      <path class="red4-cls-11" d="m1.88,31.57c1.37,2.66,4.17,5.21,8.21,7.57l20.24-2.68-5.36-5.48-23.09.59Z"/>
      <path class="red4-cls-4" d="m.31,28.63s2.16,26.56,107.85,26.39c105.7-.17,100.48-29.78,100.48-29.78,0,0,3.23,16.33-.01,30.29,0,0-5.56,21.08-99.54,24.15,0,0-88.75.38-108.02-23.63L.31,28.63Z"/>
      <ellipse class="red4-cls-12" cx="191.57" cy="35.65" rx="1.61" ry=".48"/>
      <ellipse class="red4-cls-12" cx="187.09" cy="33.7" rx="1.61" ry=".48"/>
      <ellipse class="red4-cls-12" cx="182.66" cy="31.62" rx="1.61" ry=".48"/>
      <ellipse class="red4-cls-12" cx="126.42" cy="49.42" rx="1.61" ry=".48"/>
      <ellipse class="red4-cls-12" cx="44.15" cy="43.62" rx="1.61" ry=".48"/>
      <ellipse class="red4-cls-12" cx="44.25" cy="41.29" rx="1.61" ry=".48"/>
      <ellipse class="red4-cls-12" cx="53.19" cy="43.62" rx="1.61" ry=".48"/>
      <ellipse class="red4-cls-12" cx="44.15" cy="45.95" rx="1.61" ry=".48"/>
      <ellipse class="red4-cls-12" cx="35.21" cy="43.5" rx="1.61" ry=".48"/>
      <ellipse class="red4-cls-12" cx="26.82" cy="24" rx="1.61" ry=".48"/>
      <ellipse class="red4-cls-12" cx="30.03" cy="20.72" rx="1.61" ry=".48"/>
      <ellipse class="red4-cls-12" cx="17.8" cy="19.91" rx="1.61" ry=".48"/>
      <ellipse class="red4-cls-12" cx="14.58" cy="23.2" rx="1.61" ry=".48"/>
      <ellipse class="red4-cls-12" cx="75.04" cy="4.98" rx="1.61" ry=".48"/>
      <ellipse class="red4-cls-12" cx="76.9" cy="6.65" rx="1.61" ry=".48"/>
      <ellipse class="red4-cls-12" cx="78.39" cy="8.2" rx="1.61" ry=".48"/>
      <ellipse class="red4-cls-12" cx="87.31" cy="4.2" rx="1.61" ry=".48"/>
      <ellipse class="red4-cls-12" cx="89.15" cy="5.8" rx="1.61" ry=".48"/>
      <ellipse class="red4-cls-12" cx="90.75" cy="7.4" rx="1.61" ry=".48"/>
      <ellipse class="red4-cls-12" cx="174.28" cy="12.02" rx="1.61" ry=".48"/>
      <ellipse class="red4-cls-12" cx="156.2" cy="12.02" rx="1.61" ry=".48"/>
      <polygon class="red4-cls-3" points="74.32 10.3 100.84 8.68 93.66 1.62 66.02 3.51 74.32 10.3"/>
      <polygon class="red4-cls-3" points="11.69 17.37 4.37 24.48 31.01 26.03 37.5 19.12 11.69 17.37"/>
      <polygon class="red4-cls-3" points="23.98 43.5 44.15 38.46 62.98 43.02 44.25 48.35 23.98 43.5"/>
      <polygon class="red4-cls-3" points="111.55 46.46 117.79 53.22 144.28 51.62 137.61 45.01 111.55 46.46"/>
      <polygon class="red4-cls-3" points="169.78 35.65 196 37.94 202.46 30.87 176.62 29.23 169.78 35.65"/>
      <polygon class="red4-cls-3" points="165.1 16.85 184.09 11.54 166.07 6.87 146.4 11.54 165.1 16.85"/>
      <path class="red4-cls-1" d="m62.98,76.81c11.54,1.43,22.57,2.15,30.88,2.51v-24.45c-11.76-.28-21.99-.96-30.88-1.91v23.86Z"/>
      <path class="red4-cls-6" d="m165.48,74.4c9.72-1.76,17.26-3.77,23.11-5.81l-.23-23.8c-5.82,2.26-13.29,4.36-22.89,6.06v23.56Z"/>
      <path class="red4-cls-7" d="m10.07,39.44c-4.55-2.78-6.99-5.42-8.29-7.39-1.04,5.5-.02,24.68-.01,24.83,2.01,2.27,4.66,4.31,7.79,6.14-.52-10.81.35-21.71.5-23.58Z"/>
    </g>
  </g>
  <g id="_图层_7" data-name="图层 7">
    <g>
      <path class="red4-cls-9" d="m92.31,41.6l.84-3.66c-3.65-.14-6.21-1.06-7.61-2.71s-1.49-3.62-.55-6.07h6.93c-.27,1.21-.23,2.12.13,2.68s1.08.88,2.15.92l1.25-5.32c-3.15-.59-5.27-1.37-6.37-2.34s-1.3-2.13-.74-3.55c.58-1.49,1.78-2.64,3.58-3.47s3.82-1.22,6.29-1.25l.28-1.25h2.34l-.22,1.23c2.34.04,4.13.44,5.41,1.23s2.02,1.99,2.07,3.58h-5.78c.03-.7-.14-1.21-.51-1.56s-.94-.52-1.72-.54l-.64,3.6c3.2.59,5.49,1.37,6.83,2.34s2.1,2.43,2.08,4.31c-.03,2.34-.98,4.26-2.91,5.66s-5.03,2.32-8.99,2.54l-.66,3.62h-3.47Zm4.75-18.91l.71-3.2h-.13c-.92,0-1.64.12-2.17.37s-.87.63-1.01,1.15c-.11.4.02.73.4.99s1.11.49,2.2.7Zm.14,10.07c1.28,0,2.27-.2,2.99-.59s1.1-.96,1.19-1.69c.08-.63-.13-1.11-.6-1.47s-1.37-.69-2.69-1l-.88,4.76Z"/>
      <path class="red4-cls-9" d="m110.21,30.54l7.92-.66c.41.7.96,1.24,1.65,1.61s1.52.56,2.45.56c1.24,0,2.14-.29,2.69-.87s.69-1.33.44-2.26-.76-1.67-1.54-2.21-1.64-.79-2.65-.79c-.62,0-1.16.1-1.63.29s-.87.48-1.18.86l-7.15-.48,1.81-9.57h13.78l1.35,3.74h-10.11l-.28,2.5c.63-.3,1.33-.51,2.11-.64s1.67-.2,2.68-.2c2.44,0,4.57.52,6.45,1.61s3.36,2.68,4.17,4.73c1.07,2.71.87,5-.76,6.75-1.71,1.85-4.74,2.81-9,2.81-3.52,0-6.51-.75-8.89-2.21s-3.71-3.28-4.33-5.55Z"/>
    </g>
  </g>
</svg>