<?xml version="1.0" encoding="UTF-8"?>
<svg width="164px" id="_图层_2" data-name="图层 2" xmlns="http://www.w3.org/2000/svg" viewBox="0 0 466.74 735.61">
  <g id="_图层_1-2" data-name="图层 1">
    <path d="m465.81,712.56c.21,20.56-26.52,22.12-26.52,22.12,0,0-398.31-1.8-414.55-2.16-16.24-.36-23.38-20.01-23.38-20.01L.93,23.05C.72,2.49,27.45.93,27.45.93c0,0,398.31,1.8,414.55,2.16,16.24.36,23.38,20.01,23.38,20.01l.43,689.79" style="fill: #fff; stroke: #231815; stroke-miterlimit: 10; stroke-width: 1.86px;"/>
    <polygon points="25.03 49.62 46.96 26.16 39.84 26.24 25.05 42.87 25.03 49.62" style="fill: #d5d5d4; stroke-width: 0px;"/>
    <polyline points="54.45 26.18 25.01 55.73 24.98 64.93 62.52 26.21" style="fill: #d5d5d4; stroke-width: 0px;"/>
    <polygon points="149.56 372.69 153.91 376.4 217.02 313.79 211.64 308.99 149.56 372.69" style="fill: #1c1d1d; stroke-width: 0px;"/>
    <polyline points="68.96 453.01 73.67 456.73 135.27 394.76 131.03 390.56" style="fill: #1c1d1d; stroke-width: 0px;"/>
    <polygon points="24.94 79.35 77.82 26.25 69.87 26.23 24.96 71.79 24.94 79.35" style="fill: #d5d5d4; stroke-width: 0px;"/>
    <polygon points="24.89 95.29 92.6 26.3 83.88 26.27 24.92 84.74 24.89 95.29" style="fill: #d5d5d4; stroke-width: 0px;"/>
    <polygon points="24.84 109.41 106.62 26.34 100.09 26.32 24.87 100.98 24.84 109.41" style="fill: #d5d5d4; stroke-width: 0px;"/>
    <polygon points="24.83 115.36 24.79 125.17 121.47 26.39 114.21 26.37 24.83 115.36" style="fill: #d5d5d4; stroke-width: 0px;"/>
    <polygon points="65.31 91.08 68.99 94.69 24.75 139.18 24.77 130.73 65.31 91.08" style="fill: #d5d5d4; stroke-width: 0px;"/>
    <path d="m136.82,26.43l-45.77,46.05c-1.24-1.25-2.36-2.37-3.3-3.31l43.73-42.76,5.34.02Z" style="fill: #d5d5d4; stroke-width: 0px;"/>
    <g>
      <polygon points="98.2 79.74 150.46 26.48 145.53 25.79 94.78 76.29 98.2 79.74" style="fill: #d5d5d4; stroke-width: 0px;"/>
      <polygon points="72.66 98.31 24.73 146.01 24.7 154.64 76.38 101.98 72.66 98.31" style="fill: #d5d5d4; stroke-width: 0px;"/>
    </g>
    <g>
      <polygon points="105.83 87.45 165.54 26.52 160.47 26.51 102.25 83.84 105.83 87.45" style="fill: #d5d5d4; stroke-width: 0px;"/>
      <polygon points="80.1 105.65 24.69 160.21 24.66 170.27 84.11 109.6 80.1 105.65" style="fill: #d5d5d4; stroke-width: 0px;"/>
    </g>
    <polygon points="24.64 175.55 24.61 185.36 180.34 26.57 175.58 26.55 24.64 175.55" style="fill: #d5d5d4; stroke-width: 0px;"/>
    <polygon points="24.85 190.66 24.57 199.29 195.21 26.61 190.07 26.6 24.85 190.66" style="fill: #d5d5d4; stroke-width: 0px;"/>
    <polygon points="24.55 205 24.52 213.74 210.77 26.66 205.7 26.49 24.55 205" style="fill: #d5d5d4; stroke-width: 0px;"/>
    <polygon points="24.5 220.57 24.63 230.27 225.51 26.71 220.33 26.69 24.5 220.57" style="fill: #d5d5d4; stroke-width: 0px;"/>
    <polygon points="24.46 234.45 24.43 244.22 239.23 26.75 236.37 26.74 24.46 234.45" style="fill: #d5d5d4; stroke-width: 0px;"/>
    <polygon points="24.41 250.66 24.38 260.18 255.24 26.64 252.39 26.63 24.41 250.66" style="fill: #d5d5d4; stroke-width: 0px;"/>
    <polygon points="24.37 265.24 24.52 274.57 269.68 26.34 265.31 26.33 24.37 265.24" style="fill: #d5d5d4; stroke-width: 0px;"/>
    <polygon points="24.32 280.45 24.29 289.19 285.27 26.39 282.25 26.19 24.32 280.45" style="fill: #d5d5d4; stroke-width: 0px;"/>
    <polygon points="291.89 26.41 303.61 26.29 23.49 301.99 23.5 298.18 291.89 26.41" style="fill: #d5d5d4; stroke-width: 0px;"/>
    <polygon points="308.93 27.2 23.46 311.81 23.45 315.15 317.05 27.23 308.93 27.2" style="fill: #d5d5d4; stroke-width: 0px;"/>
    <path d="m334.03,26.39l-1.19.89-5,4.92-17.22,16.93-73.65,72.35-15.57,15.31c-.24-.22-2.6-2.3-4.22-.87-1.72,1.5-5.97,5.46-5.97,5.46,0,0-1.59.89.86,3.35l.61.62-16.58,16.31-9.79,9.61-14.44,14.18c-1.08-.86-2.77-1.55-4.51.14-2.93,2.82-6.05,6.72-6.05,6.72,0,0-.75.65.79,2.74l-16.43,16.15-98.21,96.5-17.78,17.47-5.51,5.42v-3.91s21.1-21.05,21.1-21.05l97.52-97.34,40.26-40.2,9.99-9.99,40.3-40.22,72.48-72.35,17.18-17.15,2.02-2,9.01.03Z" style="fill: #d5d5d4; stroke-width: 0px;"/>
    <path d="m166.02,199.17c.95.92,2.04,1.98,3.25,3.12l-16.43,16.15-98.13,96.29-16.69,16.39-8.59,8.45-5.3,5.2v-3.3s3.6-3.6,3.6-3.6l8.57-8.59,16.43-16.48,97.11-97.37,16.19-16.24Z" style="fill: #d5d5d4; stroke-width: 0px;"/>
    <polygon points="219.9 152.62 203.37 168.84 193.59 178.44 179.3 192.45 175.89 189.3 190.12 175.02 199.79 165.33 216.19 148.89 219.9 152.62" style="fill: #d5d5d4; stroke-width: 0px;"/>
    <path d="m348.51,26.39l-2.18,2.15-10.31,10.12-17.05,16.72-74.72,73.33-15.67,15.37c-1.45-1.46-2.73-2.76-3.79-3.83l15.46-15.5,73.25-73.45,16.98-17.02,7.9-7.93,10.13.03Z" style="fill: #d5d5d4; stroke-width: 0px;"/>
    <polygon points="443.39 189.93 443.85 125.9 22.48 547.17 22.37 607.07 443.39 189.93" style="fill: #96252c; stroke-width: 0px;"/>
    <path d="m174.42,207.16c.85.82,1.71,1.64,2.54,2.43l-16.56,16.31-97.97,96.5-16.84,16.59-8.44,8.3-13.07,12.88v-2.68s11.64-11.64,11.64-11.64l8.4-8.39,16.68-16.69,97.21-97.21,16.42-16.41Z" style="fill: #d5d5d4; stroke-width: 0px;"/>
    <polygon points="227.27 160.04 210.85 176.22 201.11 185.82 187.04 199.66 184.39 197.18 198.39 183.16 208.09 173.49 224.41 157.16 227.27 160.04" style="fill: #d5d5d4; stroke-width: 0px;"/>
    <path d="m362.92,26.44l-10.08,9.95-8.78,8.63-16.84,16.57-75.59,74.47-15.72,15.48c-1-1.03-1.97-2.02-2.9-2.95l15.56-15.57,74.52-74.52,16.79-16.78,9.51-9.5,5.6-5.61,7.95-.16Z" style="fill: #d5d5d4; stroke-width: 0px;"/>
    <polygon points="232.11 164.91 234.86 167.67 218.58 183.82 185.89 216.23 168.38 233.58 70.56 330.55 53.66 347.33 45.38 355.51 27.74 373 23.25 377.45 23.27 373.02 25.49 370.79 43.1 353.25 51.37 345.01 68.22 328.21 165.72 231.08 182.27 214.6 192.32 204.58 206.15 190.78 215.85 181.13 232.11 164.91" style="fill: #d5d5d4; stroke-width: 0px;"/>
    <path d="m377.24,26.54l-9.37,9.28-8.5,8.45-7.21,7.15-16.6,16.45-76.36,75.71-15.74,15.61c-.95-.93-1.86-1.87-2.77-2.78l15.69-15.63,75.75-75.49,16.62-16.56,7.84-7.81,7.49-7.46.3-.3,6.7-6.68,6.16.07Z" style="fill: #d5d5d4; stroke-width: 0px;"/>
    <polygon points="239.09 171.93 242.21 175.07 225.96 191.11 210.8 206.05 177.02 239.31 77.41 337.48 60.47 354.16 52.18 362.33 34.57 379.68 24.78 389.32 23.21 390.87 23.24 387.78 23.24 386.91 32.51 377.68 50.06 360.2 58.28 352.03 75.16 335.2 173.13 237.62 198.01 212.84 222.88 188.06 239.09 171.93" style="fill: #d5d5d4; stroke-width: 0px;"/>
    <path d="m392.97,26.53l-.71.71-15.59,15.35-2.67,2.64-7.6,7.5-5.6,5.51-16.45,16.22-77.69,76.54-15.85,15.63c-1.08-1.08-2.13-2.15-3.17-3.21l15.76-15.68,76.74-76.44,16.45-16.39,6.37-6.33,7.54-7.52,1.83-1.82,13.04-12.99,5.94.22,1.68.06Z" style="fill: #d5d5d4; stroke-width: 0px;"/>
    <path d="m246.91,179.79l2.6,2.61-16.17,15.96-9.62,9.5-22.65,22.33-116.77,115.21-42.2,41.65-9.82,9.69-9.09,8.96v-2.57s7.76-7.72,7.76-7.72l9.75-9.74,42.47-42.39,108.99-108.83s.02.02.02,0l28.78-28.73,9.86-9.86,16.12-16.07Z" style="fill: #d5d5d4; stroke-width: 0px;"/>
    <path d="m407.42,26.63l-3.53,3.49-3.57,3.51-15.46,15.26-4.26,4.21-7.66,7.54-4.05,4.01-16.27,16.04-78.64,77.58-15.95,15.72c-.87-.88-1.74-1.77-2.64-2.67l15.82-15.8,77.73-77.61,16.23-16.2,4.74-4.73,7.58-7.57,3.51-3.49,15.41-15.39,3.92-3.92.13-.32h.2s6.74.34,6.74.34Z" style="fill: #d5d5d4; stroke-width: 0px;"/>
    <polygon points="201.48 239.55 203.86 241.77 189.61 255.86 66.86 377.42 49.64 394.47 39.78 404.22 23.81 420.03 23.12 420.72 23.13 418 38.33 402.78 48.14 393 65.67 375.44 187.36 253.68 201.48 239.55" style="fill: #d5d5d4; stroke-width: 0px;"/>
    <path d="m256.6,189.54l-16.08,15.91-9.67,9.6-16.02,15.85c-.32-.34-1.24-1.21-2.82-1.87l16.43-16.43,9.6-9.6,16-16.04,2.56,2.58Z" style="fill: #d5d5d4; stroke-width: 0px;"/>
    <path d="m421.08,26.67l-2.76,2.75-8.18,8.09-2.18,2.17-15.31,15.16-5.77,5.7-7.68,7.61-2.6,2.58-16.06,15.89-79.46,78.68-15.99,15.81c-.85-.86-1.71-1.72-2.58-2.61l15.86-15.87,78.62-78.66,16.04-16.06,3.27-3.25,7.62-7.63,5.02-5.03,15.28-15.29,2.84-2.84,7.28-7.28,1.86.02,4.88.05Z" style="fill: #d5d5d4; stroke-width: 0px;"/>
    <polygon points="208.87 246.46 211.58 249 197.14 263.18 73.95 384.36 56.67 401.37 46.74 411.13 30.66 426.96 23.1 434.39 23.11 432 29.42 425.69 45.37 409.77 55.21 399.93 72.33 382.83 72.35 382.83 194.6 260.72 208.87 246.46" style="fill: #d5d5d4; stroke-width: 0px;"/>
    <polygon points="264.22 197.22 248.18 212.99 238.4 222.63 222.32 238.44 219.63 235.73 235.58 219.79 245.25 210.12 261.22 194.19 264.22 197.22" style="fill: #d5d5d4; stroke-width: 0px;"/>
    <path d="m436.78,27.5l-11.41,11.23-7.77,7.63-.54.54-15.24,15-7.56,7.44-7.75,7.61-.92.89-15.91,15.65-80.84,79.53-16.1,15.83c-.98-.99-2-2.02-3.08-3.12l15.95-15.91,79.71-79.61,15.87-15.85,1.72-1.73,7.68-7.67,6.63-6.61,15.18-15.16,1.36-1.37,7.96-7.94,7.19-7.18,7.87.81Z" style="fill: #d5d5d4; stroke-width: 0px;"/>
    <polygon points="216.82 253.9 219.51 256.42 204.96 270.77 81.99 392 64.6 409.15 54.63 418.97 38.51 434.88 30.02 443.25 23.03 450.14 23.04 448.81 29.29 442.52 37.7 434.06 53.66 418.02 63.52 408.09 80.71 390.81 202.45 268.34 216.82 253.9" style="fill: #d5d5d4; stroke-width: 0px;"/>
    <path d="m271.82,204.86l-15.95,15.72-9.86,9.73-16.06,15.81-.04-.04-2.65-2.67,15.89-16,9.73-9.78,15.82-15.91,3.12,3.14Z" style="fill: #d5d5d4; stroke-width: 0px;"/>
    <path d="m444.13,34.95l-12.38,12.19-21.51,21.21-9.19,9.06-22.8,22.5-81.81,80.67-16.12,15.89c-.89-.88-1.97-1.98-3.21-3.21l15.95-16.04,80.42-80.89,15.63-15.72.22-.24,7.69-7.72,8.12-8.19,22.54-22.66,12.12-12.2.8-.33,2.13,2.09,1.39,3.6Z" style="fill: #d5d5d4; stroke-width: 0px;"/>
    <path d="m132.72,709.23l1.19-.89,5-4.92,17.22-16.93,73.65-72.35,15.57-15.31c.24.22,2.6,2.3,4.22.87,1.72-1.5,5.97-5.46,5.97-5.46,0,0,1.59-.89-.86-3.35l-.61-.62,16.58-16.31,9.79-9.61,14.44-14.18c1.08.86,2.77,1.55,4.51-.14,2.93-2.82,6.05-6.72,6.05-6.72,0,0,.75-.65-.79-2.74l16.43-16.15,98.21-96.5,17.78-17.47,5.51-5.42v3.91s-21.1,21.05-21.1,21.05l-97.52,97.34-40.26,40.2-9.99,9.99-40.3,40.22-72.48,72.35-17.18,17.15-2.02,2-9.01-.03Z" style="fill: #d5d5d4; stroke-width: 0px;"/>
    <path d="m118.23,709.22l2.18-2.15,10.31-10.12,17.05-16.72,74.72-73.33,15.67-15.37c1.45,1.46,2.73,2.76,3.79,3.83l-15.46,15.5-73.25,73.45-16.98,17.02-7.9,7.93-10.13-.03Z" style="fill: #d5d5d4; stroke-width: 0px;"/>
    <path d="m103.82,709.17l10.08-9.95,8.78-8.63,16.84-16.57,75.59-74.47,15.72-15.48c1,1.03,1.97,2.02,2.9,2.95l-15.56,15.57-74.52,74.52-16.79,16.78-9.51,9.5-5.6,5.61-7.95.16Z" style="fill: #d5d5d4; stroke-width: 0px;"/>
    <path d="m89.51,709.07l9.37-9.28,8.5-8.45,7.21-7.15,16.6-16.45,76.36-75.71,15.74-15.61c.95.93,1.86,1.87,2.77,2.78l-15.69,15.63-75.75,75.49-16.62,16.56-7.84,7.81-7.49,7.46-.3.3-6.7,6.68-6.16-.07Z" style="fill: #d5d5d4; stroke-width: 0px;"/>
    <path d="m73.77,709.08l.71-.71,15.59-15.35,2.67-2.64,7.6-7.5,5.6-5.51,16.45-16.22,77.69-76.54,15.85-15.63c1.08,1.08,2.13,2.15,3.17,3.21l-15.76,15.68-76.74,76.44-16.45,16.39-6.37,6.33-7.54,7.52-1.83,1.82-13.04,12.99-5.94-.22-1.68-.06Z" style="fill: #d5d5d4; stroke-width: 0px;"/>
    <path d="m59.33,708.98l3.53-3.49,3.57-3.51,15.46-15.26,4.26-4.21,7.66-7.54,4.05-4.01,16.27-16.04,78.64-77.58,15.95-15.72c.87.88,1.74,1.77,2.64,2.67l-15.82,15.8-77.73,77.61-16.23,16.2-4.74,4.73-7.58,7.57-3.51,3.49-15.41,15.39-3.92,3.92-.13.32h-.2s-6.74-.34-6.74-.34Z" style="fill: #d5d5d4; stroke-width: 0px;"/>
    <path d="m45.66,708.94l2.76-2.75,8.18-8.09,2.18-2.17,15.31-15.16,5.77-5.7,7.68-7.61,2.6-2.58,16.06-15.89,79.46-78.68,15.99-15.81c.85.86,1.71,1.72,2.58,2.61l-15.86,15.87-78.62,78.66-16.04,16.06-3.27,3.25-7.62,7.63-5.02,5.03-15.28,15.29-2.84,2.84-7.28,7.28-1.86-.02-4.88-.05Z" style="fill: #d5d5d4; stroke-width: 0px;"/>
    <path d="m29.97,708.11l11.41-11.23,7.77-7.63.54-.54,15.24-15,7.56-7.44,7.75-7.61.92-.89,15.91-15.65,80.84-79.53,16.1-15.83c.98.99,2,2.02,3.08,3.12l-15.95,15.91-79.71,79.61-15.87,15.85-1.72,1.73-7.68,7.67-6.63,6.61-15.18,15.16-1.36,1.37-7.96,7.94-7.19,7.18-7.87-.81Z" style="fill: #d5d5d4; stroke-width: 0px;"/>
    <path d="m22.62,700.66l12.38-12.19,21.51-21.21,9.19-9.06,22.8-22.5,81.81-80.67,16.12-15.89c.89.88,1.97,1.98,3.21,3.21l-15.95,16.04-80.42,80.89-15.63,15.72-.22.24-7.69,7.72-8.12,8.19-22.54,22.66-12.12,12.2-.8.33-2.13-2.09-1.39-3.6Z" style="fill: #d5d5d4; stroke-width: 0px;"/>
    <polygon points="444.11 41.26 23 463.06 22.99 465.35 444.42 51.48 444.11 41.26" style="fill: #d5d5d4; stroke-width: 0px;"/>
    <polygon points="444.4 56.52 22.98 477.35 22.97 479.51 444.23 66.31 444.4 56.52" style="fill: #d5d5d4; stroke-width: 0px;"/>
    <polygon points="444.02 70.93 22.91 493.53 22.9 496.6 444.34 78.59 444.02 70.93" style="fill: #d5d5d4; stroke-width: 0px;"/>
    <polygon points="444.19 96.28 444.32 84.22 22.89 507.75 22.88 510.72 444.19 96.28" style="fill: #d5d5d4; stroke-width: 0px;"/>
    <polygon points="444.27 101.08 22.85 522.93 22.84 526.71 444.15 110.71 444.27 101.08" style="fill: #d5d5d4; stroke-width: 0px;"/>
    <polygon points="444.22 116.08 22.77 537.81 22.8 540.89 444.2 124.41 444.22 116.08" style="fill: #d5d5d4; stroke-width: 0px;"/>
    <polygon points="441.72 685.99 419.78 709.45 426.9 709.37 441.7 692.74 441.72 685.99" style="fill: #d5d5d4; stroke-width: 0px;"/>
    <polyline points="412.3 709.43 441.74 679.88 441.76 670.68 404.23 709.4" style="fill: #d5d5d4; stroke-width: 0px;"/>
    <polygon points="441.81 656.26 388.93 709.36 396.88 709.38 441.79 663.82 441.81 656.26" style="fill: #d5d5d4; stroke-width: 0px;"/>
    <polygon points="441.86 640.32 374.14 709.31 382.87 709.34 441.83 650.87 441.86 640.32" style="fill: #d5d5d4; stroke-width: 0px;"/>
    <polygon points="441.9 626.2 360.13 709.27 366.65 709.29 441.87 634.63 441.9 626.2" style="fill: #d5d5d4; stroke-width: 0px;"/>
    <polygon points="441.92 620.25 441.95 610.44 345.27 709.22 352.54 709.25 441.92 620.25" style="fill: #d5d5d4; stroke-width: 0px;"/>
    <polygon points="401.43 644.53 397.75 640.93 442 596.43 441.97 604.89 401.43 644.53" style="fill: #d5d5d4; stroke-width: 0px;"/>
    <g>
      <polygon points="368.55 655.87 316.28 709.13 321.21 709.82 371.96 659.32 368.55 655.87" style="fill: #d5d5d4; stroke-width: 0px;"/>
      <polygon points="394.09 637.3 442.01 589.6 442.04 580.97 390.37 633.63 394.09 637.3" style="fill: #d5d5d4; stroke-width: 0px;"/>
    </g>
    <g>
      <polygon points="360.92 648.16 301.2 709.09 306.28 709.1 364.5 651.77 360.92 648.16" style="fill: #d5d5d4; stroke-width: 0px;"/>
      <polygon points="386.65 629.96 442.06 575.4 442.09 565.34 382.63 626.01 386.65 629.96" style="fill: #d5d5d4; stroke-width: 0px;"/>
    </g>
    <polygon points="442.1 560.06 442.13 550.25 286.4 709.04 291.16 709.06 442.1 560.06" style="fill: #d5d5d4; stroke-width: 0px;"/>
    <polygon points="442.19 530.61 442.22 521.87 255.97 708.95 261.04 709.12 442.19 530.61" style="fill: #d5d5d4; stroke-width: 0px;"/>
    <polygon points="442.24 515.04 442.12 505.34 241.24 708.9 246.41 708.92 442.24 515.04" style="fill: #d5d5d4; stroke-width: 0px;"/>
    <polygon points="442.28 501.16 442.31 491.39 227.51 708.86 230.38 708.87 442.28 501.16" style="fill: #d5d5d4; stroke-width: 0px;"/>
    <polygon points="442.33 484.95 442.36 475.43 211.5 708.97 214.36 708.98 442.33 484.95" style="fill: #d5d5d4; stroke-width: 0px;"/>
    <polygon points="442.38 470.37 442.23 461.04 197.07 709.27 201.44 709.28 442.38 470.37" style="fill: #d5d5d4; stroke-width: 0px;"/>
    <polygon points="442.42 455.16 442.45 446.42 181.48 709.22 184.49 709.42 442.42 455.16" style="fill: #d5d5d4; stroke-width: 0px;"/>
    <polygon points="174.85 709.2 163.13 709.32 443.25 433.62 443.24 437.43 174.85 709.2" style="fill: #d5d5d4; stroke-width: 0px;"/>
    <polygon points="157.82 708.41 443.28 423.81 443.29 420.46 149.7 708.39 157.82 708.41" style="fill: #d5d5d4; stroke-width: 0px;"/>
    <path d="m132.72,709.23l1.19-.89,5-4.92,17.22-16.93,73.65-72.35,15.57-15.31c.24.22,2.6,2.3,4.22.87,1.72-1.5,5.97-5.46,5.97-5.46,0,0,1.59-.89-.86-3.35l-.61-.62,16.58-16.31,9.79-9.61,14.44-14.18c1.08.86,2.77,1.55,4.51-.14,2.93-2.82,6.05-6.72,6.05-6.72,0,0,.75-.65-.79-2.74l16.43-16.15,98.21-96.5,17.78-17.47,5.51-5.42v3.91s-21.1,21.05-21.1,21.05l-97.52,97.34-40.26,40.2-9.99,9.99-40.3,40.22-72.48,72.35-17.18,17.15-2.02,2-9.01-.03Z" style="fill: #d5d5d4; stroke-width: 0px;"/>
    <path d="m300.72,536.44c-.95-.92-2.04-1.98-3.25-3.12l16.43-16.15,98.13-96.29,16.69-16.39,8.59-8.45,5.3-5.2v3.3s-3.6,3.6-3.6,3.6l-8.57,8.59-16.43,16.48-97.11,97.37-16.19,16.24Z" style="fill: #d5d5d4; stroke-width: 0px;"/>
    <path d="m292.33,528.45c-.85-.82-1.71-1.64-2.54-2.43l16.56-16.31,97.97-96.5,16.84-16.59,8.44-8.3,13.07-12.88v2.68s-11.64,11.64-11.64,11.64l-8.4,8.39-16.68,16.69-97.21,97.21-16.42,16.41Z" style="fill: #d5d5d4; stroke-width: 0px;"/>
    <polygon points="234.63 570.7 231.88 567.94 248.17 551.79 280.85 519.38 298.37 502.03 396.19 405.06 413.09 388.28 421.36 380.1 439.01 362.61 443.49 358.16 443.48 362.59 441.25 364.82 423.64 382.36 415.37 390.6 398.53 407.4 301.02 504.53 284.48 521.01 274.43 531.04 260.59 544.83 250.9 554.48 234.63 570.7" style="fill: #d5d5d4; stroke-width: 0px;"/>
    <polygon points="227.65 563.68 224.53 560.54 240.78 544.5 255.94 529.56 289.73 496.3 389.34 398.14 406.28 381.45 414.57 373.28 432.18 355.93 441.96 346.3 443.53 344.74 443.5 347.83 443.5 348.7 434.24 357.93 416.68 375.41 408.47 383.58 391.58 400.41 293.61 497.99 268.74 522.77 243.86 547.55 227.65 563.68" style="fill: #d5d5d4; stroke-width: 0px;"/>
    <path d="m219.84,555.82l-2.6-2.61,16.17-15.96,9.62-9.5,22.65-22.33,116.77-115.21,42.2-41.65,9.82-9.69,9.09-8.96v2.57s-7.76,7.72-7.76,7.72l-9.75,9.74-42.47,42.39-108.99,108.83s-.02-.02-.02,0l-28.78,28.73-9.86,9.86-16.12,16.07Z" style="fill: #d5d5d4; stroke-width: 0px;"/>
    <polygon points="265.26 496.06 262.89 493.84 277.14 479.75 399.89 358.19 417.1 341.14 426.96 331.39 442.93 315.58 443.62 314.89 443.61 317.61 428.41 332.83 418.61 342.61 401.07 360.17 279.38 481.94 265.26 496.06" style="fill: #d5d5d4; stroke-width: 0px;"/>
    <polygon points="257.87 489.15 255.16 486.61 269.6 472.43 392.79 351.25 410.07 334.24 420 324.48 436.08 308.65 443.65 301.23 443.64 303.61 437.33 309.92 421.38 325.85 411.54 335.68 394.41 352.78 394.39 352.78 272.14 474.89 257.87 489.15" style="fill: #d5d5d4; stroke-width: 0px;"/>
    <polygon points="249.93 481.71 247.24 479.19 261.78 464.85 384.76 343.61 402.14 326.46 412.11 316.64 428.23 300.73 436.73 292.36 443.71 285.47 443.71 286.8 437.45 293.09 429.05 301.55 413.08 317.59 403.22 327.52 386.04 344.8 264.29 467.27 249.93 481.71" style="fill: #d5d5d4; stroke-width: 0px;"/>
    <polygon points="22.64 694.35 443.74 272.55 443.75 270.27 22.32 684.13 22.64 694.35" style="fill: #d5d5d4; stroke-width: 0px;"/>
    <polygon points="22.34 679.09 443.77 258.26 443.77 256.1 22.52 669.3 22.34 679.09" style="fill: #d5d5d4; stroke-width: 0px;"/>
    <polygon points="22.73 664.68 443.84 242.08 443.85 239.01 22.41 657.03 22.73 664.68" style="fill: #d5d5d4; stroke-width: 0px;"/>
    <polygon points="22.55 639.33 22.42 651.4 443.85 227.86 443.86 224.89 22.55 639.33" style="fill: #d5d5d4; stroke-width: 0px;"/>
    <polygon points="22.48 634.53 443.89 212.68 443.9 208.9 22.6 624.9 22.48 634.53" style="fill: #d5d5d4; stroke-width: 0px;"/>
    <polygon points="22.52 619.53 443.97 197.8 443.94 194.72 22.55 611.2 22.52 619.53" style="fill: #d5d5d4; stroke-width: 0px;"/>
    <path d="m269.23,356.15l26.01-26.9-4.8-4.57-15.62,17.24s-1.51-1.85-.05-4.82c1.46-2.96,5.92-16.58,5.92-16.58,0,0,1.17-3.63-2.05-6.49-3.22-2.86-6.71-6.36-6.71-6.36l-21.7,20.87s-2.93,2.35.62,5.93,5.03,2.25,5.03,2.25l4.76-4.83-1.04-4.79,8.93-8.68s5.22-1.63,4.01,3.9c-1.2,5.54-7.26,24.19-7.26,24.19,0,0-2.71,2.76-.74,4.88s4.69,4.76,4.69,4.76Z" style="fill: #f7f8f8; stroke-width: 0px;"/>
    <path d="m321.96,297.2l-17.43-17.54c-2.3-2.32-4.1-1.41-4.1-1.41,0,0-17.91,17.9-20.89,21.19-2.98,3.29-1.53,4.35-1.53,4.35,0,0,14.47,15.55,17.69,18.53,3.22,2.98,5.47.48,5.47.48,0,0,18.92-18.35,21.11-20.98,1.94-2.33-.32-4.62-.32-4.62Zm-11.32,5.2s-5.69,5.61-7.9,7.76c-2.21,2.15-3.78.43-3.78.43l-9.21-8.25c-2.22-1.99-.96-3.26-.96-3.26,0,0,8.07-8.38,9.27-9.82,1.19-1.45,2.68.45,2.68.45,0,0,7.24,6.84,9.34,8.82s.56,3.87.56,3.87Z" style="fill: #f7f8f8; stroke-width: 0px;"/>
    <path d="m328.2,296.57l26.01-26.9-4.8-4.57-15.62,17.24s-1.51-1.85-.05-4.82,5.92-16.58,5.92-16.58c0,0,1.17-3.63-2.05-6.49-3.22-2.86-6.71-6.36-6.71-6.36l-21.7,20.87s-2.93,2.35.62,5.93c3.55,3.57,5.03,2.25,5.03,2.25l4.76-4.83-1.04-4.79,8.93-8.68s5.22-1.63,4.01,3.9c-1.2,5.54-7.26,24.19-7.26,24.19,0,0-2.71,2.76-.74,4.88s4.69,4.76,4.69,4.76Z" style="fill: #f7f8f8; stroke-width: 0px;"/>
    <path d="m343.93,248.13l4.77-5.01s-2.28-2.29.01-4.84c2.29-2.54,6.18-6.49,6.18-6.49,0,0,1.85-1.84,4.22.01s2.1,3.17.6,5.19-4.67,3.95-2.4,6.64c2.28,2.69,4.94-.38,4.94-.38l3.78-3.65s.54-2.6,4.31.01.78,5.42-.02,6.12-9,9.56-9,9.56h-2.37s-2.81-.63-2.81-.63l-3.97,3.77s-2.56,1.49.08,4.13c2.63,2.65,3.51,3.09,3.51,3.09,0,0,1.84,1.76,4.84-1.13s22.23-22.09,22.23-22.09c0,0,.8-3.08-1.39-5.2-2.19-2.12-10.17-9.35-10.17-9.35l-4.31.51-6.31-6.35s-2.11-1.68-3.78-.01-18.09,17.99-18.09,17.99c0,0-1.68,2.18-.01,4.21,1.67,2.03,4.1,5.03,5.18,3.9Z" style="fill: #f7f8f8; stroke-width: 0px;"/>
    <path d="m384.3,213.72l-1.79,2.04s-1.72,1.51-.4,2.77,5.15-1.99,5.15-1.99l56.49-57v-4.09s-59.44,58.27-59.44,58.27Z" style="fill: #fbf6f8; stroke-width: 0px;"/>
    <polygon points="181.59 317.02 121.44 270.83 170.1 328.73 150.27 348.87 57.18 278.95 74.4 261.54 148.96 320.47 89 248.22 106.17 230.64 178.62 288.11 119.28 217.74 130.35 206.75 198.87 297.28 181.59 317.02" style="fill: #1c1e1e; stroke-width: 0px;"/>
    <path d="m252.51,248.14s-.02.02-.02.04c-.28.5-.62,1-1.01,1.47-4.13,4.85-33.62,33.67-33.62,33.67l-.3-.28-4.49-4.37-3.04-2.95-5.07-4.95-2.51-2.43-5.31-5.15-2.54-2.47-4.99-4.86-2.25-2.19-.11-.11,14.23-14.01,2.38,2.22,5.01,4.69,2.71,2.54,5.24,4.89,2.69,2.52,1.45,1.35s1.95,2.41,5.19,1.8h.02c1.3-.24,2.78-.96,4.46-2.52,1.57-1.48,2.24-2.95,2.38-4.33.38-3.5-2.68-6.28-3.05-6.6l-.04-.04-14.96-15.05s-.04-.06-.13-.13c-.32-.34-1.24-1.21-2.82-1.87-2.21-.92-5.73-1.36-10.54.99-.13.06-.26.13-.39.19l-.02.02c-3.24,1.59-6.3,3.03-8.89,4.24t-.02,0s0,.02-.02.02c-4.46,2.09-7.48,3.44-7.48,3.44,0,0-3.25,2.35-7.62,1.39-1.23-.25-2.53-.77-3.89-1.69-.35-.22-.69-.49-1.04-.77-.95-.77-2.21-1.89-3.71-3.27-.82-.77-1.71-1.61-2.65-2.5-1.65-1.57-3.47-3.32-5.33-5.17-.8-.77-1.6-1.55-2.39-2.33-1.74-1.74-3.49-3.47-5.16-5.14-1.04-1.05-2.04-2.05-3.01-3.03-1.56-1.57-2.99-3.03-4.18-4.22-1.26-1.29-2.26-2.3-2.88-2.91-.45-.47-.69-.71-.69-.71,0,0-.97-4.4-.38-8.4.29-1.97.94-3.83,2.29-5.06l32.57-32.39,1.67,1.64,4.81,4.71,3.25,3.19,3.82,3.75,3.47,3.42,4.81,4.73,2.71,2.65,5.05,4.97.56.54-14.06,13.55-.33-.3-5.27-4.91-2.65-2.48-5.09-4.73-3.42-3.16-2.82-2.63s-.46-.65-1.21-1.21c-1.08-.86-2.77-1.55-4.51.14-2.93,2.82-6.05,6.72-6.05,6.72,0,0-.75.65.79,2.74.37.5.87,1.1,1.56,1.79.52.52,1.35,1.34,2.38,2.33.95.92,2.04,1.98,3.25,3.12,1.62,1.53,3.4,3.23,5.14,4.88.85.82,1.71,1.64,2.54,2.43,2.1,1.98,4.01,3.77,5.31,5.01,1.15,1.08,1.84,1.74,1.84,1.74l1.79-.11,6.55-.43,5.56-2.96,12.79-6.79.02-.02.17-.09s5.22-2.65,9.94-.21c.8.39,1.56.95,2.3,1.68.15.15.3.3.48.47,1.08,1.08,2.73,2.75,4.71,4.72.74.77,1.56,1.59,2.41,2.45,1.5,1.49,3.1,3.1,4.73,4.74l7.57,7.62c1,1.01,1.97,1.98,2.86,2.89,1.87,1.89,3.51,3.51,4.68,4.71l2,2.02s.31.84.61,2.14v.02c.48,2.27.82,5.9-.79,8.95Z" style="fill: #1d1f1f; stroke-width: 0px;"/>
    <path d="m232.11,164.91l-4.84-4.87-2.86-2.88-11.75-11.82-16.58,16.31,3.71,3.68,3.58,3.51,4.71,4.65,2.77,2.73,4.99,4.91,2.73,2.69,16.28-16.15-2.75-2.76Zm2.75,2.76l-2.75-2.76-4.84-4.87-2.86-2.88-11.75-11.82-16.58,16.31,3.71,3.68,3.58,3.51,4.71,4.65,2.77,2.73,4.99,4.91,2.73,2.69,4.31,4.24,16.21-16.13-4.23-4.26Zm28.53-19.95l-4.2-4.16-15.74,15.61c1.35,1.4,2.75,2.8,4.18,4.24,1.04,1.06,2.1,2.13,3.17,3.21l15.85-15.63-3.27-3.27Zm-21.18,27.34l-3.12-3.14-4.23-4.26-2.75-2.76-4.84-4.87-2.86-2.88-11.75-11.82-16.58,16.31,3.71,3.68,3.58,3.51,4.71,4.65,2.77,2.73,4.99,4.91,2.73,2.69,4.31,4.24,3.08,3.04,4.83,4.76,2.54,2.5,16.17-15.96-7.29-7.34Zm38.87-9.77l-2.71-2.67-4.38-4.37-2.77-2.75-4.57-4.52-3.27-3.27-4.2-4.16-15.74,15.61c1.35,1.4,2.75,2.8,4.18,4.24,1.04,1.06,2.1,2.13,3.17,3.21,1.52,1.57,3.06,3.14,4.6,4.69.89.9,1.76,1.79,2.64,2.67,1.5,1.53,3.01,3.04,4.47,4.52.87.9,1.73,1.76,2.58,2.61,1.58,1.61,3.12,3.16,4.57,4.61l15.95-15.91-4.53-4.52Zm-38.87,9.77l-3.12-3.14-4.23-4.26-2.75-2.76-4.84-4.87-2.86-2.88-11.75-11.82-16.58,16.31,3.71,3.68,3.58,3.51,4.71,4.65,2.77,2.73,4.99,4.91,2.73,2.69,4.31,4.24,3.08,3.04,4.83,4.76,2.54,2.5,4.7,4.63,2.49,2.45,4.73,4.67,2.93,2.88,16.04-15.78-22.01-22.15Zm46.63-2.05l-3.23-3.19-4.53-4.52-2.71-2.67-4.38-4.37-2.77-2.75-4.57-4.52-3.27-3.27-4.2-4.16-15.74,15.61c1.35,1.4,2.75,2.8,4.18,4.24,1.04,1.06,2.1,2.13,3.17,3.21,1.52,1.57,3.06,3.14,4.6,4.69.89.9,1.76,1.79,2.64,2.67,1.5,1.53,3.01,3.04,4.47,4.52.87.9,1.73,1.76,2.58,2.61,1.58,1.61,3.12,3.16,4.57,4.61,1.08,1.1,2.1,2.13,3.08,3.12,1.6,1.62,3.06,3.1,4.36,4.41l15.95-16.04-4.21-4.2Zm-20.14,28.7l-26.49-26.65-3.12-3.14-4.23-4.26-2.75-2.76-4.84-4.87-2.86-2.88-11.75-11.82-16.58,16.31,3.71,3.68,3.58,3.51,4.71,4.65,2.77,2.73,4.99,4.91,2.73,2.69,4.31,4.24,3.08,3.04,4.83,4.76,2.54,2.5,4.7,4.63,2.49,2.45,4.73,4.67,2.93,2.88,4.7,4.63,2.99,2.95,15.95-15.72-3.12-3.14Zm6.35,6.39l-3.23-3.25-3.12-3.14-26.49-26.65-3.12-3.14-4.23-4.26-2.75-2.76-4.84-4.87-2.86-2.88-11.75-11.82-16.58,16.31,3.71,3.68,3.58,3.51,4.71,4.65,2.77,2.73,4.99,4.91,2.73,2.69,4.31,4.24,3.08,3.04,4.83,4.76,2.54,2.5,4.7,4.63,2.49,2.45,4.73,4.67,2.93,2.88,4.7,4.63,2.99,2.95,4.64,4.58,16.57-16.59c-1.17-.1-2.03-.45-2.03-.45Zm13.79-35.09l-3.23-3.19-4.53-4.52-2.71-2.67-4.38-4.37-2.77-2.75-4.57-4.52-3.27-3.27-4.2-4.16-15.74,15.61c1.35,1.4,2.75,2.8,4.18,4.24,1.04,1.06,2.1,2.13,3.17,3.21,1.52,1.57,3.06,3.14,4.6,4.69.89.9,1.76,1.79,2.64,2.67,1.5,1.53,3.01,3.04,4.47,4.52.87.9,1.73,1.76,2.58,2.61,1.58,1.61,3.12,3.16,4.57,4.61,1.08,1.1,2.1,2.13,3.08,3.12,1.6,1.62,3.06,3.1,4.36,4.41l15.95-16.04-4.21-4.2Zm-13.79,35.09l-3.23-3.25-3.12-3.14-26.49-26.65-3.12-3.14-4.23-4.26-2.75-2.76-4.84-4.87-2.86-2.88-11.75-11.82-16.58,16.31,3.71,3.68,3.58,3.51,4.71,4.65,2.77,2.73,4.99,4.91,2.73,2.69,4.31,4.24,3.08,3.04,4.83,4.76,2.54,2.5,4.7,4.63,2.49,2.45,4.73,4.67,2.93,2.88,4.7,4.63,2.99,2.95,4.64,4.58,16.57-16.59c-1.17-.1-2.03-.45-2.03-.45Zm13.79-35.09l-3.23-3.19-4.53-4.52-2.71-2.67-4.38-4.37-2.77-2.75-4.57-4.52-3.27-3.27-4.2-4.16-15.74,15.61c1.35,1.4,2.75,2.8,4.18,4.24,1.04,1.06,2.1,2.13,3.17,3.21,1.52,1.57,3.06,3.14,4.6,4.69.89.9,1.76,1.79,2.64,2.67,1.5,1.53,3.01,3.04,4.47,4.52.87.9,1.73,1.76,2.58,2.61,1.58,1.61,3.12,3.16,4.57,4.61,1.08,1.1,2.1,2.13,3.08,3.12,1.6,1.62,3.06,3.1,4.36,4.41l15.95-16.04-4.21-4.2Zm-17.02,31.84l-3.12-3.14-26.49-26.65-3.12-3.14-4.23-4.26-2.75-2.76-4.84-4.87-2.86-2.88-11.75-11.82-16.58,16.31,3.71,3.68,3.58,3.51,4.71,4.65,2.77,2.73,4.99,4.91,2.73,2.69,4.31,4.24,3.08,3.04,4.83,4.76,2.54,2.5,4.7,4.63,2.49,2.45,4.73,4.67,2.93,2.88,4.7,4.63,2.99,2.95,4.64,4.58,16.57-16.59c-1.17-.1-2.03-.45-2.03-.45l-3.23-3.25Zm-21.01-38.23c1.52,1.57,3.06,3.14,4.6,4.69.89.9,1.76,1.79,2.64,2.67,1.5,1.53,3.01,3.04,4.47,4.52.87.9,1.73,1.76,2.58,2.61,1.58,1.61,3.12,3.16,4.57,4.61,1.08,1.1,2.1,2.13,3.08,3.12,1.6,1.62,3.06,3.1,4.36,4.41l15.95-16.04-4.21-4.2-3.23-3.19-4.53-4.52-2.71-2.67-4.38-4.37-2.77-2.75-4.57-4.52-3.27-3.27-4.2-4.16-15.74,15.61c1.35,1.4,2.75,2.8,4.18,4.24,1.04,1.06,2.1,2.13,3.17,3.21Zm52.24,23.69v-.02c-.77-2.33-1.89-4.38-2.42-5.33-.2-.35-.33-.56-.33-.56l-3.86-3.83-3.38-3.36-4.21-4.2-3.23-3.19-4.53-4.52-2.71-2.67-4.38-4.37-2.77-2.75-4.57-4.52-3.27-3.27-4.2-4.16-2.82-2.8-4.75-4.71-3.06-3.04-4.31-4.3-3.99-3.96-3.3-3.29-3.62-3.6-1.11-1.1c-1.62-1.03-3.42-1.37-5.1-1.36-3.02,0-5.55,1.12-5.55,1.12,0,0-24.58,24.74-28.91,29.92-1.1,1.34-1.57,2.83-1.63,4.35v.02c-.12,2.83,1.12,5.63,2.01,7.27.5.91.89,1.46.89,1.46l2.15,2.11,3.71,3.68,3.58,3.51,4.71,4.65,2.77,2.73,4.99,4.91,2.73,2.69,4.31,4.24,3.08,3.04,4.83,4.76,2.54,2.5,4.7,4.63,2.49,2.45,4.73,4.67,2.93,2.88,4.7,4.63,2.99,2.95,4.64,4.58,2.15,2.11s.63.49,1.86.88h.02c1.51.45,3.91.78,7.09-.16.58-.17,1.27-.54,2.11-1.05h.02c7.74-4.95,25.66-24.13,28.95-28.32.32-.39.56-.84.73-1.3v-.02c.81-2.06.39-4.65-.39-6.96Zm-28,17.79l-3.23-3.25-3.12-3.14-26.49-26.65-3.12-3.14-4.23-4.26-2.75-2.76-4.84-4.87-2.86-2.88-12.36-12.44c-2.45-2.47-.86-3.35-.86-3.35,0,0,4.26-3.95,5.97-5.46,1.62-1.43,3.98.65,4.22.87l.02.02s1.24,1.27,3.4,3.45c1.06,1.06,2.34,2.37,3.79,3.83,1.34,1.36,2.82,2.88,4.42,4.5.93.93,1.89,1.92,2.9,2.95,1.54,1.55,3.14,3.17,4.79,4.86.91.92,1.82,1.85,2.77,2.78,1.35,1.4,2.75,2.8,4.18,4.24,1.04,1.06,2.1,2.13,3.17,3.21,1.52,1.57,3.06,3.14,4.6,4.69.89.9,1.76,1.79,2.64,2.67,1.5,1.53,3.01,3.04,4.47,4.52.87.9,1.73,1.76,2.58,2.61,1.58,1.61,3.12,3.16,4.57,4.61,1.08,1.1,2.1,2.13,3.08,3.12,1.6,1.62,3.06,3.1,4.36,4.41,1.24,1.23,2.32,2.33,3.21,3.21,1.58,1.59,2.58,2.58,2.86,2.82.69.62,1,1.36,1.04,2.13.11,1.9-1.43,4.07-3.13,5.8-1.23,1.24-2.78,1.44-4.01,1.35-1.17-.1-2.03-.45-2.03-.45Zm13.79-35.09l-3.23-3.19-4.53-4.52-2.71-2.67-4.38-4.37-2.77-2.75-4.57-4.52-3.27-3.27-4.2-4.16-15.74,15.61c1.35,1.4,2.75,2.8,4.18,4.24,1.04,1.06,2.1,2.13,3.17,3.21,1.52,1.57,3.06,3.14,4.6,4.69.89.9,1.76,1.79,2.64,2.67,1.5,1.53,3.01,3.04,4.47,4.52.87.9,1.73,1.76,2.58,2.61,1.58,1.61,3.12,3.16,4.57,4.61,1.08,1.1,2.1,2.13,3.08,3.12,1.6,1.62,3.06,3.1,4.36,4.41l15.95-16.04-4.21-4.2Zm-13.79,35.09l-3.23-3.25-3.12-3.14-26.49-26.65-3.12-3.14-4.23-4.26-2.75-2.76-4.84-4.87-2.86-2.88-11.75-11.82-16.58,16.31,3.71,3.68,3.58,3.51,4.71,4.65,2.77,2.73,4.99,4.91,2.73,2.69,4.31,4.24,3.08,3.04,4.83,4.76,2.54,2.5,4.7,4.63,2.49,2.45,4.73,4.67,2.93,2.88,4.7,4.63,2.99,2.95,4.64,4.58,16.57-16.59c-1.17-.1-2.03-.45-2.03-.45Zm13.79-35.09l-3.23-3.19-4.53-4.52-2.71-2.67-4.38-4.37-2.77-2.75-4.57-4.52-3.27-3.27-4.2-4.16-15.74,15.61c1.35,1.4,2.75,2.8,4.18,4.24,1.04,1.06,2.1,2.13,3.17,3.21,1.52,1.57,3.06,3.14,4.6,4.69.89.9,1.76,1.79,2.64,2.67,1.5,1.53,3.01,3.04,4.47,4.52.87.9,1.73,1.76,2.58,2.61,1.58,1.61,3.12,3.16,4.57,4.61,1.08,1.1,2.1,2.13,3.08,3.12,1.6,1.62,3.06,3.1,4.36,4.41l15.95-16.04-4.21-4.2Zm-13.79,35.09l-3.23-3.25-3.12-3.14-26.49-26.65-3.12-3.14-4.23-4.26-2.75-2.76-4.84-4.87-2.86-2.88-11.75-11.82-16.58,16.31,3.71,3.68,3.58,3.51,4.71,4.65,2.77,2.73,4.99,4.91,2.73,2.69,4.31,4.24,3.08,3.04,4.83,4.76,2.54,2.5,4.7,4.63,2.49,2.45,4.73,4.67,2.93,2.88,4.7,4.63,2.99,2.95,4.64,4.58,16.57-16.59c-1.17-.1-2.03-.45-2.03-.45Zm13.79-35.09l-3.23-3.19-4.53-4.52-2.71-2.67-4.38-4.37-2.77-2.75-4.57-4.52-3.27-3.27-4.2-4.16-15.74,15.61c1.35,1.4,2.75,2.8,4.18,4.24,1.04,1.06,2.1,2.13,3.17,3.21,1.52,1.57,3.06,3.14,4.6,4.69.89.9,1.76,1.79,2.64,2.67,1.5,1.53,3.01,3.04,4.47,4.52.87.9,1.73,1.76,2.58,2.61,1.58,1.61,3.12,3.16,4.57,4.61,1.08,1.1,2.1,2.13,3.08,3.12,1.6,1.62,3.06,3.1,4.36,4.41l15.95-16.04-4.21-4.2Zm-13.79,35.09l-3.23-3.25-3.12-3.14-26.49-26.65-3.12-3.14-4.23-4.26-2.75-2.76-4.84-4.87-2.86-2.88-11.75-11.82-16.58,16.31,3.71,3.68,3.58,3.51,4.71,4.65,2.77,2.73,4.99,4.91,2.73,2.69,4.31,4.24,3.08,3.04,4.83,4.76,2.54,2.5,4.7,4.63,2.49,2.45,4.73,4.67,2.93,2.88,4.7,4.63,2.99,2.95,4.64,4.58,16.57-16.59c-1.17-.1-2.03-.45-2.03-.45Zm-32.83-33.04l-3.12-3.14-4.23-4.26-2.75-2.76-4.84-4.87-2.86-2.88-11.75-11.82-16.58,16.31,3.71,3.68,3.58,3.51,4.71,4.65,2.77,2.73,4.99,4.91,2.73,2.69,4.31,4.24,3.08,3.04,4.83,4.76,2.54,2.5,4.7,4.63,2.49,2.45,4.73,4.67,2.93,2.88,4.7,4.63,15.82-15.91-26.49-26.65Zm43.4-5.25l-4.53-4.52-2.71-2.67-4.38-4.37-2.77-2.75-4.57-4.52-3.27-3.27-4.2-4.16-15.74,15.61c1.35,1.4,2.75,2.8,4.18,4.24,1.04,1.06,2.1,2.13,3.17,3.21,1.52,1.57,3.06,3.14,4.6,4.69.89.9,1.76,1.79,2.64,2.67,1.5,1.53,3.01,3.04,4.47,4.52.87.9,1.73,1.76,2.58,2.61,1.58,1.61,3.12,3.16,4.57,4.61,1.08,1.1,2.1,2.13,3.08,3.12l16.1-15.83-3.23-3.19Zm-43.4,5.25l-3.12-3.14-4.23-4.26-2.75-2.76-4.84-4.87-2.86-2.88-11.75-11.82-16.58,16.31,3.71,3.68,3.58,3.51,4.71,4.65,2.77,2.73,4.99,4.91,2.73,2.69,4.31,4.24,3.08,3.04,4.83,4.76,2.54,2.5,4.7,4.63,2.49,2.45,4.73,4.67,15.97-15.93-19.01-19.12Zm36.16-12.44l-4.38-4.37-2.77-2.75-4.57-4.52-3.27-3.27-4.2-4.16-15.74,15.61c1.35,1.4,2.75,2.8,4.18,4.24,1.04,1.06,2.1,2.13,3.17,3.21,1.52,1.57,3.06,3.14,4.6,4.69.89.9,1.76,1.79,2.64,2.67,1.5,1.53,3.01,3.04,4.47,4.52.87.9,1.73,1.76,2.58,2.61l15.99-15.81-2.71-2.67Zm-39.28,9.3l-4.23-4.26-2.75-2.76-4.84-4.87-2.86-2.88-11.75-11.82-16.58,16.31,3.71,3.68,3.58,3.51,4.71,4.65,2.77,2.73,4.99,4.91,2.73,2.69,4.31,4.24,3.08,3.04,16.25-16.04-3.12-3.14Zm-4.23-4.26l-2.75-2.76-4.84-4.87-2.86-2.88-11.75-11.82-16.58,16.31,3.71,3.68,3.58,3.51,4.71,4.65,2.77,2.73,4.99,4.91,2.73,2.69,4.31,4.24,16.21-16.13-4.23-4.26Z" style="fill: #1c1d1d; stroke-width: 0px;"/>
    <path d="m308.21,138.63c-3.58-3.66-.75-4.88-.75-4.88,0,0,15.46-15.42,18.15-18.86,2.67-3.44-1.36-10.69-1.36-10.69,0,0-34.13-34.7-39.37-39-5.24-4.28-10.57-.24-10.57-.24l-38.5,36.54,84.35,82.7,16.91-18.08s-25.27-23.83-28.85-27.49Zm-4.12-16.23l-5.77,5.87-34.02-34.03-1.71-1.85s3.1-3.21,5.98-5.73c2.89-2.54,6.51,1.12,6.51,1.12,0,0,21.92,23.08,26.37,27.15,4.44,4.05,2.64,7.47,2.64,7.47Z" style="fill: #1c1d1d; stroke-width: 0px;"/>
    <path d="m60.44,425.54c-.56-1.08-.98-1.77-.98-1.77l-4.83-4.8-.97-.95-6.92-6.89-16.08,15.83c2.73,2.76,5.14,5.17,7.03,7.1.28.28.56.56.82.82,2.13,2.13,3.51,3.49,3.82,3.77,1.41,1.27,1.26,2.96.38,4.64l17.72-17.74Zm0,0c-.56-1.08-.98-1.77-.98-1.77l-4.83-4.8-.97-.95-6.92-6.89-16.08,15.83c2.73,2.76,5.14,5.17,7.03,7.1.28.28.56.56.82.82,2.13,2.13,3.51,3.49,3.82,3.77,1.41,1.27,1.26,2.96.38,4.64l17.72-17.74Zm0,0c-.56-1.08-.98-1.77-.98-1.77l-4.83-4.8-.97-.95-6.92-6.89-16.08,15.83c2.73,2.76,5.14,5.17,7.03,7.1.28.28.56.56.82.82,2.13,2.13,3.51,3.49,3.82,3.77,1.41,1.27,1.26,2.96.38,4.64l17.72-17.74Zm0,0c-.56-1.08-.98-1.77-.98-1.77l-4.83-4.8-.97-.95-6.92-6.89-16.08,15.83c2.73,2.76,5.14,5.17,7.03,7.1.28.28.56.56.82.82,2.13,2.13,3.51,3.49,3.82,3.77,1.41,1.27,1.26,2.96.38,4.64l17.72-17.74Zm0,0c-.56-1.08-.98-1.77-.98-1.77l-4.83-4.8-.97-.95-6.92-6.89-16.08,15.83c2.73,2.76,5.14,5.17,7.03,7.1.28.28.56.56.82.82,2.13,2.13,3.51,3.49,3.82,3.77,1.41,1.27,1.26,2.96.38,4.64l17.72-17.74Zm0,0c-.56-1.08-.98-1.77-.98-1.77l-4.83-4.8-.97-.95-6.92-6.89-16.08,15.83c2.73,2.76,5.14,5.17,7.03,7.1.28.28.56.56.82.82,2.13,2.13,3.51,3.49,3.82,3.77,1.41,1.27,1.26,2.96.38,4.64l17.72-17.74Zm0,0c-.56-1.08-.98-1.77-.98-1.77l-4.83-4.8-.97-.95-6.92-6.89-16.08,15.83c2.73,2.76,5.14,5.17,7.03,7.1.28.28.56.56.82.82,2.13,2.13,3.51,3.49,3.82,3.77,1.41,1.27,1.26,2.96.38,4.64l17.72-17.74Zm0,0c-.56-1.08-.98-1.77-.98-1.77l-4.83-4.8-.97-.95-6.92-6.89-16.08,15.83c2.73,2.76,5.14,5.17,7.03,7.1.28.28.56.56.82.82,2.13,2.13,3.51,3.49,3.82,3.77,1.41,1.27,1.26,2.96.38,4.64l17.72-17.74Zm.98,2.05c-.33-.76-.67-1.47-.98-2.05-.56-1.08-.98-1.77-.98-1.77l-4.83-4.8-.97-.95-6.92-6.89-1.37-1.36-5.59-5.55-1.45-1.44-6.07-6.03-1.34-1.33-6.14-6.11-1.54-1.53-.1,31.58.67.67c1.95,1.98,3.84,3.88,5.61,5.66.43.43.84.86,1.24,1.27,2.73,2.76,5.14,5.17,7.03,7.1.28.28.56.56.82.82,2.13,2.13,3.51,3.49,3.82,3.77,1.41,1.27,1.26,2.96.38,4.64,0,.02-.02.02-.02.04-.56,1.13-1.5,2.29-2.45,3.25-.6.61-1.27.96-1.94,1.15h-.02c-2.03.61-4.08-.25-4.08-.25l-4.19-4.22-.72-.73-6.18-6.22c-.05,10.41-.08,20.74-.09,30.94,1.41.58,4.04,1.19,7.78.1,1.55-.44,4.18-2.37,7.3-5.08l.02-.02.02-.02.02-.02.02-.02.06-.06.02-.02.02-.02.02-.02.06-.06h.02c6.53-5.66,14.96-14.4,19.96-19.95v-.02c1.64-1.82,2.9-3.25,3.55-4.09,2.15-2.73.92-7.18-.45-10.37Zm-.98-2.05c-.56-1.08-.98-1.77-.98-1.77l-4.83-4.8-.97-.95-6.92-6.89-16.08,15.83c2.73,2.76,5.14,5.17,7.03,7.1.28.28.56.56.82.82,2.13,2.13,3.51,3.49,3.82,3.77,1.41,1.27,1.26,2.96.38,4.64l17.72-17.74Zm0,0c-.56-1.08-.98-1.77-.98-1.77l-4.83-4.8-.97-.95-6.92-6.89-16.08,15.83c2.73,2.76,5.14,5.17,7.03,7.1.28.28.56.56.82.82,2.13,2.13,3.51,3.49,3.82,3.77,1.41,1.27,1.26,2.96.38,4.64l17.72-17.74Zm0,0c-.56-1.08-.98-1.77-.98-1.77l-4.83-4.8-.97-.95-6.92-6.89-16.08,15.83c2.73,2.76,5.14,5.17,7.03,7.1.28.28.56.56.82.82,2.13,2.13,3.51,3.49,3.82,3.77,1.41,1.27,1.26,2.96.38,4.64l17.72-17.74Zm0,0c-.56-1.08-.98-1.77-.98-1.77l-4.83-4.8-.97-.95-6.92-6.89-16.08,15.83c2.73,2.76,5.14,5.17,7.03,7.1.28.28.56.56.82.82,2.13,2.13,3.51,3.49,3.82,3.77,1.41,1.27,1.26,2.96.38,4.64l17.72-17.74Zm0,0c-.56-1.08-.98-1.77-.98-1.77l-4.83-4.8-.97-.95-6.92-6.89-16.08,15.83c2.73,2.76,5.14,5.17,7.03,7.1.28.28.56.56.82.82,2.13,2.13,3.51,3.49,3.82,3.77,1.41,1.27,1.26,2.96.38,4.64l17.72-17.74Zm0,0c-.56-1.08-.98-1.77-.98-1.77l-4.83-4.8-.97-.95-6.92-6.89-16.08,15.83c2.73,2.76,5.14,5.17,7.03,7.1.28.28.56.56.82.82,2.13,2.13,3.51,3.49,3.82,3.77,1.41,1.27,1.26,2.96.38,4.64l17.72-17.74Zm0,0c-.56-1.08-.98-1.77-.98-1.77l-4.83-4.8-.97-.95-6.92-6.89-16.08,15.83c2.73,2.76,5.14,5.17,7.03,7.1.28.28.56.56.82.82,2.13,2.13,3.51,3.49,3.82,3.77,1.41,1.27,1.26,2.96.38,4.64l17.72-17.74Z" style="fill: #1c1d1d; stroke-width: 0px;"/>
    <path d="m69.95,335.18c-1.43-1.44-2.99-3.01-4.6-4.65-.76-.77-1.54-1.55-2.34-2.33-1.89-1.9-3.84-3.87-5.79-5.81-.56-.56-1.1-1.1-1.63-1.62-2.1-2.11-4.16-4.15-6.09-6.05l-16.69,16.39c1.71,1.77,3.82,3.98,6.11,6.35.48.5.98,1.01,1.47,1.53,1.93,2,3.92,4.07,5.79,6.01.78.78,1.54,1.57,2.28,2.32,1.74,1.81,3.34,3.44,4.62,4.71.91.9,1.65,1.62,2.19,2.13l16.94-16.69c-.71-.71-1.45-1.48-2.25-2.28Zm-4.6-4.65c-.76-.77-1.54-1.55-2.34-2.33-1.89-1.9-3.84-3.87-5.79-5.81-.56-.56-1.1-1.1-1.63-1.62-2.1-2.11-4.16-4.15-6.09-6.05l-16.69,16.39c1.71,1.77,3.82,3.98,6.11,6.35.48.5.98,1.01,1.47,1.53,1.93,2,3.92,4.07,5.79,6.01.78.78,1.54,1.57,2.28,2.32,1.74,1.81,3.34,3.44,4.62,4.71l16.88-16.84c-1.43-1.44-2.99-3.01-4.6-4.65Zm0,0c-.76-.77-1.54-1.55-2.34-2.33-1.89-1.9-3.84-3.87-5.79-5.81-.56-.56-1.1-1.1-1.63-1.62-2.1-2.11-4.16-4.15-6.09-6.05l-16.69,16.39c1.71,1.77,3.82,3.98,6.11,6.35.48.5.98,1.01,1.47,1.53,1.93,2,3.92,4.07,5.79,6.01.78.78,1.54,1.57,2.28,2.32,1.74,1.81,3.34,3.44,4.62,4.71l16.88-16.84c-1.43-1.44-2.99-3.01-4.6-4.65Zm0,0c-.76-.77-1.54-1.55-2.34-2.33-1.89-1.9-3.84-3.87-5.79-5.81-.56-.56-1.1-1.1-1.63-1.62-2.1-2.11-4.16-4.15-6.09-6.05l-16.69,16.39c1.71,1.77,3.82,3.98,6.11,6.35.48.5.98,1.01,1.47,1.53,1.93,2,3.92,4.07,5.79,6.01.78.78,1.54,1.57,2.28,2.32,1.74,1.81,3.34,3.44,4.62,4.71l16.88-16.84c-1.43-1.44-2.99-3.01-4.6-4.65Zm0,0c-.76-.77-1.54-1.55-2.34-2.33-1.89-1.9-3.84-3.87-5.79-5.81-.56-.56-1.1-1.1-1.63-1.62-2.1-2.11-4.16-4.15-6.09-6.05l-16.69,16.39c1.71,1.77,3.82,3.98,6.11,6.35.48.5.98,1.01,1.47,1.53,1.93,2,3.92,4.07,5.79,6.01.78.78,1.54,1.57,2.28,2.32,1.74,1.81,3.34,3.44,4.62,4.71l16.88-16.84c-1.43-1.44-2.99-3.01-4.6-4.65Zm0,0c-.76-.77-1.54-1.55-2.34-2.33-1.89-1.9-3.84-3.87-5.79-5.81-.56-.56-1.1-1.1-1.63-1.62-2.1-2.11-4.16-4.15-6.09-6.05l-16.69,16.39c1.71,1.77,3.82,3.98,6.11,6.35.48.5.98,1.01,1.47,1.53,1.93,2,3.92,4.07,5.79,6.01.78.78,1.54,1.57,2.28,2.32,1.74,1.81,3.34,3.44,4.62,4.71l16.88-16.84c-1.43-1.44-2.99-3.01-4.6-4.65Zm0,0c-.76-.77-1.54-1.55-2.34-2.33-1.89-1.9-3.84-3.87-5.79-5.81-.56-.56-1.1-1.1-1.63-1.62-2.1-2.11-4.16-4.15-6.09-6.05l-16.69,16.39c1.71,1.77,3.82,3.98,6.11,6.35.48.5.98,1.01,1.47,1.53,1.93,2,3.92,4.07,5.79,6.01.78.78,1.54,1.57,2.28,2.32,1.74,1.81,3.34,3.44,4.62,4.71l16.88-16.84c-1.43-1.44-2.99-3.01-4.6-4.65Zm0,0c-.76-.77-1.54-1.55-2.34-2.33-1.89-1.9-3.84-3.87-5.79-5.81-.56-.56-1.1-1.1-1.63-1.62-2.1-2.11-4.16-4.15-6.09-6.05l-16.69,16.39c1.71,1.77,3.82,3.98,6.11,6.35.48.5.98,1.01,1.47,1.53,1.93,2,3.92,4.07,5.79,6.01.78.78,1.54,1.57,2.28,2.32,1.74,1.81,3.34,3.44,4.62,4.71l16.88-16.84c-1.43-1.44-2.99-3.01-4.6-4.65Zm25.02,74.33c-.98-.93-3.04-2.88-5.63-5.3-.59-.56-1.21-1.14-1.84-1.74-1.91-1.81-4.01-3.81-6.13-5.83-.43-.39-.85-.8-1.28-1.2-2.38-2.26-4.7-4.48-6.76-6.44-.56-.54-1.1-1.05-1.6-1.53h-.02c-2.36-2.28-4.18-4.03-4.96-4.84-.2-.21-.37-.39-.52-.58-.69-.78-1.04-1.44-1.19-1.98-.5-1.7.96-2.32.96-2.32,0,0,15.46-15.42,18.15-18.86,1.83-2.34.52-6.46-.49-8.85-.46-1.12-.87-1.85-.87-1.85,0,0-.09-.09-.28-.28-.72-.75-2.84-2.89-5.74-5.81-.71-.71-1.45-1.48-2.25-2.28-1.43-1.44-2.99-3.01-4.6-4.65-.76-.77-1.54-1.55-2.34-2.33-1.89-1.9-3.84-3.87-5.79-5.81-.56-.56-1.1-1.1-1.63-1.62-2.1-2.11-4.16-4.15-6.09-6.05-.69-.67-1.36-1.33-1.99-1.94-2-1.98-3.81-3.72-5.27-5.1-.85-.82-1.58-1.51-2.19-2.07-.5-.43-.89-.8-1.21-1.05-3.18-2.6-6.38-2.12-8.41-1.37h-.02c-1.3.5-2.14,1.13-2.14,1.13l-4.78,4.55-.05,16.57c.34-.17.67-.26,1.02-.29,2.37-.25,4.57,1.99,4.57,1.99,0,0,.76.8,2.04,2.13.5.54,1.09,1.16,1.73,1.85,1.71,1.77,3.82,3.98,6.11,6.35.48.5.98,1.01,1.47,1.53,1.93,2,3.92,4.07,5.79,6.01.78.78,1.54,1.57,2.28,2.32,1.74,1.81,3.34,3.44,4.62,4.71.91.9,1.65,1.62,2.19,2.13.06.04.09.09.15.13,4.44,4.05,2.64,7.47,2.64,7.47l-5.77,5.87-5.31-5.3-2.12-2.13-4.68-4.69-2.28-2.26-5.96-5.96-1.43-1.44-6.29-6.29-.82-.82-.11,35,4.01,3.94,2.06,2,6.11,6,1.41,1.38,6.05,5.94,1.5,1.48,5.57,5.45,1.47,1.44,6.85,6.72,1.08,1.06,6.18,6.03,1.63,1.62,5.66,5.53,1.24,1.23,16.9-18.08s-.22-.22-.65-.62Zm-25.02-74.33c-.76-.77-1.54-1.55-2.34-2.33-1.89-1.9-3.84-3.87-5.79-5.81-.56-.56-1.1-1.1-1.63-1.62-2.1-2.11-4.16-4.15-6.09-6.05l-16.69,16.39c1.71,1.77,3.82,3.98,6.11,6.35.48.5.98,1.01,1.47,1.53,1.93,2,3.92,4.07,5.79,6.01.78.78,1.54,1.57,2.28,2.32,1.74,1.81,3.34,3.44,4.62,4.71l16.88-16.84c-1.43-1.44-2.99-3.01-4.6-4.65Zm0,0c-.76-.77-1.54-1.55-2.34-2.33-1.89-1.9-3.84-3.87-5.79-5.81-.56-.56-1.1-1.1-1.63-1.62-2.1-2.11-4.16-4.15-6.09-6.05l-16.69,16.39c1.71,1.77,3.82,3.98,6.11,6.35.48.5.98,1.01,1.47,1.53,1.93,2,3.92,4.07,5.79,6.01.78.78,1.54,1.57,2.28,2.32,1.74,1.81,3.34,3.44,4.62,4.71l16.88-16.84c-1.43-1.44-2.99-3.01-4.6-4.65Zm0,0c-.76-.77-1.54-1.55-2.34-2.33-1.89-1.9-3.84-3.87-5.79-5.81-.56-.56-1.1-1.1-1.63-1.62-2.1-2.11-4.16-4.15-6.09-6.05l-16.69,16.39c1.71,1.77,3.82,3.98,6.11,6.35.48.5.98,1.01,1.47,1.53,1.93,2,3.92,4.07,5.79,6.01.78.78,1.54,1.57,2.28,2.32,1.74,1.81,3.34,3.44,4.62,4.71l16.88-16.84c-1.43-1.44-2.99-3.01-4.6-4.65Zm0,0c-.76-.77-1.54-1.55-2.34-2.33-1.89-1.9-3.84-3.87-5.79-5.81-.56-.56-1.1-1.1-1.63-1.62-2.1-2.11-4.16-4.15-6.09-6.05l-16.69,16.39c1.71,1.77,3.82,3.98,6.11,6.35.48.5.98,1.01,1.47,1.53,1.93,2,3.92,4.07,5.79,6.01.78.78,1.54,1.57,2.28,2.32,1.74,1.81,3.34,3.44,4.62,4.71l16.88-16.84c-1.43-1.44-2.99-3.01-4.6-4.65Zm0,0c-.76-.77-1.54-1.55-2.34-2.33-1.89-1.9-3.84-3.87-5.79-5.81-.56-.56-1.1-1.1-1.63-1.62-2.1-2.11-4.16-4.15-6.09-6.05l-16.69,16.39c1.71,1.77,3.82,3.98,6.11,6.35.48.5.98,1.01,1.47,1.53,1.93,2,3.92,4.07,5.79,6.01.78.78,1.54,1.57,2.28,2.32,1.74,1.81,3.34,3.44,4.62,4.71l16.88-16.84c-1.43-1.44-2.99-3.01-4.6-4.65Zm0,0c-.76-.77-1.54-1.55-2.34-2.33-1.89-1.9-3.84-3.87-5.79-5.81-.56-.56-1.1-1.1-1.63-1.62-2.1-2.11-4.16-4.15-6.09-6.05l-16.69,16.39c1.71,1.77,3.82,3.98,6.11,6.35.48.5.98,1.01,1.47,1.53,1.93,2,3.92,4.07,5.79,6.01.78.78,1.54,1.57,2.28,2.32,1.74,1.81,3.34,3.44,4.62,4.71l16.88-16.84c-1.43-1.44-2.99-3.01-4.6-4.65Zm0,0c-.76-.77-1.54-1.55-2.34-2.33-1.89-1.9-3.84-3.87-5.79-5.81-.56-.56-1.1-1.1-1.63-1.62-2.1-2.11-4.16-4.15-6.09-6.05l-16.69,16.39c1.71,1.77,3.82,3.98,6.11,6.35.48.5.98,1.01,1.47,1.53,1.93,2,3.92,4.07,5.79,6.01.78.78,1.54,1.57,2.28,2.32,1.74,1.81,3.34,3.44,4.62,4.71l16.88-16.84c-1.43-1.44-2.99-3.01-4.6-4.65Z" style="fill: #1c1d1d; stroke-width: 0px;"/>
    <polygon points="422.99 78.16 362.85 31.97 411.51 89.87 391.67 110.01 298.59 40.09 312.2 26.32 320.45 26.34 390.36 81.61 344.56 26.42 391.44 26.58 420.03 49.25 400.94 26.61 416.24 26.66 440.28 58.42 422.99 78.16" style="fill: #1c1e1e; stroke-width: 0px;"/>
    <path d="m117.84,124.58c-3.79-4.07-1.62-5.91-1.62-5.91,0,0,2.37-2.3,6.14-6.35,3.75-4.05-.74-8.92-.74-8.92,0,0-32.54-32.81-36.47-36.7-3.92-3.88-6.85-1.04-6.85-1.04l-16.16,16.58c-2.04,2.1.45,6.29.45,6.29l57.19,56.1,8.99-9.78s-7.13-6.18-10.93-10.27Zm-11.63-14.87c-1.18,1.13-4.04-.94-4.04-.94l-21.81-22.13s-2.78-2.86-1.18-4.45,4.44,1.61,4.44,1.61l22.18,22.04s1.56,2.74.4,3.87Z" style="fill: #a2212a; stroke-width: 0px;"/>
    <path d="m156.19,104.06l11.21,11.17,9.07-8.54-50.14-53.72s-4.31-4.67-9.66-1.54c-5.35,3.15-17.93,11.53-17.93,11.53,0,0-1.82,6.19.66,8.72l54.79,55.26,9-8.95-11.47-11.89s-2.19-3.15-.88-4.45,5.34,2.42,5.34,2.42Zm-13.13-10.02c-1.85,1.69-3.94-1.2-3.94-1.2l-22.46-23.1s-2.91-2.73-1.01-4.47,4.93,1.71,4.93,1.71l21.94,22.95s2.41,2.41.55,4.12Z" style="fill: #a2212a; stroke-width: 0px;"/>
    <path d="m141.46,61.33l45.4,46.4s4.94,2.13,9.62-2.33c4.48-4.28,2.09-12.69,2.09-12.69l7.29,3.14,4.54-5.01-22.23-24.38s-2-2.32-4.83-.07-8.45,6.76-8.45,6.76l15.22,14.64s2.21,1.55.86,2.93-4.26-1.04-4.26-1.04l-28.74-30.72s-2.31-2.11-.97-3.34,4.26,1.81,4.26,1.81l9.17,8.87,9.43-6.29-13.78-15.1s-2.61-2.99-7.81-.79-18.48,10.43-18.48,10.43c0,0-1.09,3.18,1.68,6.79Z" style="fill: #a2212a; stroke-width: 0px;"/>
    <path d="m117.96,152.81s-45.12-45.31-50.38-50.01c-5.27-4.73-8.23-.03-8.23-.03l-11.71,17.3c-2.67,3.96.48,7.64.48,7.64,0,0,46,43.95,50.44,47.82,4.44,3.89,6.96,1.03,6.96,1.03,0,0,10.2-10.32,13.67-14.26,3.47-3.92-1.24-9.48-1.24-9.48Zm-13.93,7.18c-1.62,1.63-4.59-1.65-4.59-1.65l-35.94-35.56s-2.04-2.74-.68-4.14c1.38-1.41,4.11,1.41,4.11,1.41l35.64,35.48s3.06,2.82,1.46,4.45Z" style="fill: #a2212a; stroke-width: 0px;"/>
    <path d="m65.66,169.23l5.81-7.04s1.59-2.98-.43-4.59-15.14-13.92-15.14-13.92c0,0-3.11-3.26-6,.56s-9,16.83-9,16.83c0,0-2.14,5.68,2.91,11.25s39.19,38.46,39.19,38.46c0,0,4.24,2.38,7.34-.66,3.09-3.04,13.82-14.69,13.82-14.69,0,0,1.76-2.63-1.39-6s-23.37-22.58-23.37-22.58l-8.08,8.85,16.71,16.7s2.94,1.72,1.43,3.64-4.72-1.69-4.72-1.69l-31.06-30.25s-2.29-2.1-.91-3.79c1.38-1.69,4.45.62,4.45.62l8.44,8.32Z" style="fill: #a2212a; stroke-width: 0px;"/>
    <polyline points="309.16 214.04 313.88 217.76 375.47 155.79 371.24 151.59" style="fill: #1c1d1d; stroke-width: 0px;"/>
    <path id="Club" d="m294.58,227.15c-.21.22-.4.46-.57.71-.13-.92-.6-1.83-1.3-2.5-1.75-1.69-4.63-1.55-6.41.31s-1.81,4.73-.06,6.42c.7.68,1.63,1.1,2.55,1.2-.24.17-.47.37-.69.59-1.79,1.86-1.72,4.82.03,6.51s4.63,1.55,6.41-.31c1.24-1.29,1.82-2.89,1.36-4.42,3.42,3.8,2.02,5.02,1.85,5.85-.06.29.06.4.34.67h0s2.58-2.68,2.58-2.68l2.58-2.68h0c-.28-.27-.39-.38-.68-.31-.82.2-1.98,1.65-5.91-1.62,1.55.4,3.13-.24,4.37-1.53,1.79-1.86,1.81-4.73.06-6.42s-4.72-1.64-6.51.22Z" style="fill: #040000; stroke-width: 0px;"/>
    <path d="m278.24,261.82l-2.42-16.46s-4.41-4.13-7.13-.5-.43,5.86-.43,5.86c0,0-5.1-1.28-6.86,1.56-1.76,2.84,1.08,6.03,1.08,6.03l15.75,3.51Z" style="fill: #1c1d1d; stroke-width: 0px;"/>
    <g>
      <path d="m242.85,270.17l2.22,14.66s3.85,2.63,5.65.02l1.45-5.08,5.86-1.64s2.17-4.25-.65-5.6l-14.54-2.36Z" style="fill: #1c1d1d; stroke-width: 0px;"/>
      <path d="m252.46,280.23s2.53,4.55,1.55,5.8,4.51-4.13,4.51-4.13c0,0-4.91-.84-6.06-1.66Z" style="fill: #1c1d1d; stroke-width: 0px;"/>
    </g>
    <polygon points="220.48 290.46 223.02 302.86 234.57 306.33 232.45 295.17 220.48 290.46" style="fill: #1c1d1d; stroke-width: 0px;"/>
    <path id="Club-2" data-name="Club" d="m54.22,466.67c-.21.22-.4.46-.57.71-.13-.92-.6-1.83-1.3-2.5-1.75-1.69-4.63-1.55-6.41.31s-1.81,4.73-.06,6.42c.7.68,1.63,1.1,2.55,1.2-.24.17-.47.37-.69.59-1.79,1.86-1.72,4.82.03,6.51s4.63,1.55,6.41-.31c1.24-1.29,1.82-2.89,1.36-4.42,3.42,3.8,2.02,5.02,1.85,5.85-.06.29.06.4.34.67h0s2.58-2.68,2.58-2.68l2.58-2.68h0c-.28-.27-.39-.38-.68-.31-.82.2-1.98,1.65-5.91-1.62,1.55.4,3.13-.24,4.37-1.53,1.79-1.86,1.81-4.73.06-6.42-1.75-1.69-4.72-1.64-6.51.22Z" style="fill: #040000; stroke-width: 0px;"/>
    <path d="m37.9,501.33l-14.98-3.32.02-7.67c2.16-.79,4.97-.1,4.97-.1,0,0-2.28-2.24.43-5.86,2.73-3.62,7.13.51,7.13.51l2.43,16.45Z" style="fill: #1c1d1d; stroke-width: 0px;"/>
    <path d="m444.19,87.29l-49.06,48.67-4.36-3.72,53.43-54.82c0,3.15,0,6.42-.01,9.87Z" style="fill: #1c1d1d; stroke-width: 0px;"/>
    <polygon points="317.19 362.92 312.83 359.21 249.72 421.83 255.11 426.62 317.19 362.92" style="fill: #1c1d1d; stroke-width: 0px;"/>
    <polyline points="397.79 282.6 393.07 278.88 331.47 340.86 335.71 345.05" style="fill: #1c1d1d; stroke-width: 0px;"/>
    <path d="m197.52,379.46l-26.01,26.9,4.8,4.57,15.62-17.24s1.51,1.85.05,4.82c-1.46,2.96-5.92,16.58-5.92,16.58,0,0-1.17,3.63,2.05,6.49s6.71,6.36,6.71,6.36l21.7-20.87s2.93-2.35-.62-5.93c-3.55-3.57-5.03-2.25-5.03-2.25l-4.76,4.83,1.04,4.79-8.93,8.68s-5.22,1.63-4.01-3.9c1.2-5.54,7.26-24.19,7.26-24.19,0,0,2.71-2.76.74-4.88s-4.69-4.76-4.69-4.76Z" style="fill: #f7f8f8; stroke-width: 0px;"/>
    <path d="m144.78,438.41l17.43,17.54c2.3,2.32,4.1,1.41,4.1,1.41,0,0,17.91-17.9,20.89-21.19,2.98-3.29,1.53-4.35,1.53-4.35,0,0-14.47-15.55-17.69-18.53-3.22-2.98-5.47-.48-5.47-.48,0,0-18.92,18.35-21.11,20.98-1.94,2.33.32,4.62.32,4.62Zm11.32-5.2s5.69-5.61,7.9-7.76c2.21-2.15,3.78-.43,3.78-.43l9.21,8.25c2.22,1.99.96,3.26.96,3.26,0,0-8.07,8.38-9.27,9.82-1.19,1.45-2.68-.45-2.68-.45,0,0-7.24-6.84-9.34-8.82s-.56-3.87-.56-3.87Z" style="fill: #f7f8f8; stroke-width: 0px;"/>
    <path d="m138.54,439.04l-26.01,26.9,4.8,4.57,15.62-17.24s1.51,1.85.05,4.82-5.92,16.58-5.92,16.58c0,0-1.17,3.63,2.05,6.49,3.22,2.86,6.71,6.36,6.71,6.36l21.7-20.87s2.93-2.35-.62-5.93c-3.55-3.57-5.03-2.25-5.03-2.25l-4.76,4.83,1.04,4.79-8.93,8.68s-5.22,1.63-4.01-3.9,7.26-24.19,7.26-24.19c0,0,2.71-2.76.74-4.88s-4.69-4.76-4.69-4.76Z" style="fill: #f7f8f8; stroke-width: 0px;"/>
    <path d="m122.82,487.48l-4.77,5.01s2.28,2.29-.01,4.84-6.18,6.49-6.18,6.49c0,0-1.85,1.84-4.22-.01-2.37-1.85-2.1-3.17-.6-5.19,1.5-2.02,4.67-3.95,2.4-6.64-2.28-2.69-4.94.38-4.94.38l-3.78,3.65s-.54,2.6-4.31-.01-.78-5.42.02-6.12,9-9.56,9-9.56h2.37s2.81.63,2.81.63l3.97-3.77s2.56-1.49-.08-4.13c-2.63-2.65-3.51-3.09-3.51-3.09,0,0-1.84-1.76-4.84,1.13-3,2.89-22.23,22.09-22.23,22.09,0,0-.8,3.08,1.39,5.2s10.17,9.35,10.17,9.35l4.31-.51,6.31,6.35s2.11,1.68,3.78.01,18.09-17.99,18.09-17.99c0,0,1.68-2.18.01-4.21-1.67-2.03-4.1-5.03-5.18-3.9Z" style="fill: #f7f8f8; stroke-width: 0px;"/>
    <path d="m82.44,521.89l1.79-2.04s1.72-1.51.4-2.77-5.15,1.99-5.15,1.99l-56.49,57v4.09s59.44-58.27,59.44-58.27Z" style="fill: #fbf6f8; stroke-width: 0px;"/>
    <polygon points="285.16 418.59 345.3 464.78 296.64 406.88 316.48 386.74 409.56 456.66 392.34 474.07 317.79 415.14 377.74 487.39 360.58 504.97 288.12 447.5 347.47 517.87 336.39 528.86 267.87 438.33 285.16 418.59" style="fill: #1c1e1e; stroke-width: 0px;"/>
    <path d="m214.24,487.47s.02-.02.02-.04c.28-.5.62-1,1.01-1.47,4.13-4.85,33.62-33.67,33.62-33.67l.3.28,4.49,4.37,3.04,2.95,5.07,4.95,2.51,2.43,5.31,5.15,2.54,2.47,4.99,4.86,2.25,2.19.11.11-14.23,14.01-2.38-2.22-5.01-4.69-2.71-2.54-5.24-4.89-2.69-2.52-1.45-1.35s-1.95-2.41-5.19-1.8h-.02c-1.3.24-2.78.96-4.46,2.52-1.57,1.48-2.24,2.95-2.38,4.33-.38,3.5,2.68,6.28,3.05,6.6l.04.04,14.96,15.05s.04.06.13.13c.32.34,1.24,1.21,2.82,1.87,2.21.92,5.73,1.36,10.54-.99.13-.06.26-.13.39-.19l.02-.02c3.24-1.59,6.3-3.03,8.89-4.24t.02,0s0-.02.02-.02c4.46-2.09,7.48-3.44,7.48-3.44,0,0,3.25-2.35,7.62-1.39,1.23.25,2.53.77,3.89,1.69.35.22.69.49,1.04.77.95.77,2.21,1.89,3.71,3.27.82.77,1.71,1.61,2.65,2.5,1.65,1.57,3.47,3.32,5.33,5.17.8.77,1.6,1.55,2.39,2.33,1.74,1.74,3.49,3.47,5.16,5.14,1.04,1.05,2.04,2.05,3.01,3.03,1.56,1.57,2.99,3.03,4.18,4.22,1.26,1.29,2.26,2.3,2.88,2.91.45.47.69.71.69.71,0,0,.97,4.4.38,8.4-.29,1.97-.94,3.83-2.29,5.06l-32.57,32.39-1.67-1.64-4.81-4.71-3.25-3.19-3.82-3.75-3.47-3.42-4.81-4.73-2.71-2.65-5.05-4.97-.56-.54,14.06-13.55.33.3,5.27,4.91,2.65,2.48,5.09,4.73,3.42,3.16,2.82,2.63s.46.65,1.21,1.21c1.08.86,2.77,1.55,4.51-.14,2.93-2.82,6.05-6.72,6.05-6.72,0,0,.75-.65-.79-2.74-.37-.5-.87-1.1-1.56-1.79-.52-.52-1.35-1.34-2.38-2.33-.95-.92-2.04-1.98-3.25-3.12-1.62-1.53-3.4-3.23-5.14-4.88-.85-.82-1.71-1.64-2.54-2.43-2.1-1.98-4.01-3.77-5.31-5.01-1.15-1.08-1.84-1.74-1.84-1.74l-1.79.11-6.55.43-5.56,2.96-12.79,6.79-.02.02-.17.09s-5.22,2.65-9.94.21c-.8-.39-1.56-.95-2.3-1.68-.15-.15-.3-.3-.48-.47-1.08-1.08-2.73-2.75-4.71-4.72-.74-.77-1.56-1.59-2.41-2.45-1.5-1.49-3.1-3.1-4.73-4.74l-7.57-7.62c-1-1.01-1.97-1.98-2.86-2.89-1.87-1.89-3.51-3.51-4.68-4.71-1.26-1.27-2-2.02-2-2.02,0,0-.31-.84-.61-2.14v-.02c-.48-2.27-.82-5.9.79-8.95Z" style="fill: #1d1f1f; stroke-width: 0px;"/>
    <path d="m234.63,570.7l4.84,4.87,2.86,2.88,11.75,11.82,16.58-16.31-3.71-3.68-3.58-3.51-4.71-4.65-2.77-2.73-4.99-4.91-2.73-2.69-16.28,16.15,2.75,2.76Zm-2.75-2.76l2.75,2.76,4.84,4.87,2.86,2.88,11.75,11.82,16.58-16.31-3.71-3.68-3.58-3.51-4.71-4.65-2.77-2.73-4.99-4.91-2.73-2.69-4.31-4.24-16.21,16.13,4.23,4.26Zm-28.53,19.95l4.2,4.16,15.74-15.61c-1.35-1.4-2.75-2.8-4.18-4.24-1.04-1.06-2.1-2.13-3.17-3.21l-15.85,15.63,3.27,3.27Zm21.18-27.34l3.12,3.14,4.23,4.26,2.75,2.76,4.84,4.87,2.86,2.88,11.75,11.82,16.58-16.31-3.71-3.68-3.58-3.51-4.71-4.65-2.77-2.73-4.99-4.91-2.73-2.69-4.31-4.24-3.08-3.04-4.83-4.76-2.54-2.5-16.17,15.96,7.29,7.34Zm-38.87,9.77l2.71,2.67,4.38,4.37,2.77,2.75,4.57,4.52,3.27,3.27,4.2,4.16,15.74-15.61c-1.35-1.4-2.75-2.8-4.18-4.24-1.04-1.06-2.1-2.13-3.17-3.21-1.52-1.57-3.06-3.14-4.6-4.69-.89-.9-1.76-1.79-2.64-2.67-1.5-1.53-3.01-3.04-4.47-4.52-.87-.9-1.73-1.76-2.58-2.61-1.58-1.61-3.12-3.16-4.57-4.61l-15.95,15.91,4.53,4.52Zm38.87-9.77l3.12,3.14,4.23,4.26,2.75,2.76,4.84,4.87,2.86,2.88,11.75,11.82,16.58-16.31-3.71-3.68-3.58-3.51-4.71-4.65-2.77-2.73-4.99-4.91-2.73-2.69-4.31-4.24-3.08-3.04-4.83-4.76-2.54-2.5-4.7-4.63-2.49-2.45-4.73-4.67-2.93-2.88-16.04,15.78,22.01,22.15Zm-46.63,2.05l3.23,3.19,4.53,4.52,2.71,2.67,4.38,4.37,2.77,2.75,4.57,4.52,3.27,3.27,4.2,4.16,15.74-15.61c-1.35-1.4-2.75-2.8-4.18-4.24-1.04-1.06-2.1-2.13-3.17-3.21-1.52-1.57-3.06-3.14-4.6-4.69-.89-.9-1.76-1.79-2.64-2.67-1.5-1.53-3.01-3.04-4.47-4.52-.87-.9-1.73-1.76-2.58-2.61-1.58-1.61-3.12-3.16-4.57-4.61-1.08-1.1-2.1-2.13-3.08-3.12-1.6-1.62-3.06-3.1-4.36-4.41l-15.95,16.04,4.21,4.2Zm20.14-28.7l26.49,26.65,3.12,3.14,4.23,4.26,2.75,2.76,4.84,4.87,2.86,2.88,11.75,11.82,16.58-16.31-3.71-3.68-3.58-3.51-4.71-4.65-2.77-2.73-4.99-4.91-2.73-2.69-4.31-4.24-3.08-3.04-4.83-4.76-2.54-2.5-4.7-4.63-2.49-2.45-4.73-4.67-2.93-2.88-4.7-4.63-2.99-2.95-15.95,15.72,3.12,3.14Zm-6.35-6.39l3.23,3.25,3.12,3.14,26.49,26.65,3.12,3.14,4.23,4.26,2.75,2.76,4.84,4.87,2.86,2.88,11.75,11.82,16.58-16.31-3.71-3.68-3.58-3.51-4.71-4.65-2.77-2.73-4.99-4.91-2.73-2.69-4.31-4.24-3.08-3.04-4.83-4.76-2.54-2.5-4.7-4.63-2.49-2.45-4.73-4.67-2.93-2.88-4.7-4.63-2.99-2.95-4.64-4.58-16.57,16.59c1.17.1,2.03.45,2.03.45Zm-13.79,35.09l3.23,3.19,4.53,4.52,2.71,2.67,4.38,4.37,2.77,2.75,4.57,4.52,3.27,3.27,4.2,4.16,15.74-15.61c-1.35-1.4-2.75-2.8-4.18-4.24-1.04-1.06-2.1-2.13-3.17-3.21-1.52-1.57-3.06-3.14-4.6-4.69-.89-.9-1.76-1.79-2.64-2.67-1.5-1.53-3.01-3.04-4.47-4.52-.87-.9-1.73-1.76-2.58-2.61-1.58-1.61-3.12-3.16-4.57-4.61-1.08-1.1-2.1-2.13-3.08-3.12-1.6-1.62-3.06-3.1-4.36-4.41l-15.95,16.04,4.21,4.2Zm13.79-35.09l3.23,3.25,3.12,3.14,26.49,26.65,3.12,3.14,4.23,4.26,2.75,2.76,4.84,4.87,2.86,2.88,11.75,11.82,16.58-16.31-3.71-3.68-3.58-3.51-4.71-4.65-2.77-2.73-4.99-4.91-2.73-2.69-4.31-4.24-3.08-3.04-4.83-4.76-2.54-2.5-4.7-4.63-2.49-2.45-4.73-4.67-2.93-2.88-4.7-4.63-2.99-2.95-4.64-4.58-16.57,16.59c1.17.1,2.03.45,2.03.45Zm-13.79,35.09l3.23,3.19,4.53,4.52,2.71,2.67,4.38,4.37,2.77,2.75,4.57,4.52,3.27,3.27,4.2,4.16,15.74-15.61c-1.35-1.4-2.75-2.8-4.18-4.24-1.04-1.06-2.1-2.13-3.17-3.21-1.52-1.57-3.06-3.14-4.6-4.69-.89-.9-1.76-1.79-2.64-2.67-1.5-1.53-3.01-3.04-4.47-4.52-.87-.9-1.73-1.76-2.58-2.61-1.58-1.61-3.12-3.16-4.57-4.61-1.08-1.1-2.1-2.13-3.08-3.12-1.6-1.62-3.06-3.1-4.36-4.41l-15.95,16.04,4.21,4.2Zm17.02-31.84l3.12,3.14,26.49,26.65,3.12,3.14,4.23,4.26,2.75,2.76,4.84,4.87,2.86,2.88,11.75,11.82,16.58-16.31-3.71-3.68-3.58-3.51-4.71-4.65-2.77-2.73-4.99-4.91-2.73-2.69-4.31-4.24-3.08-3.04-4.83-4.76-2.54-2.5-4.7-4.63-2.49-2.45-4.73-4.67-2.93-2.88-4.7-4.63-2.99-2.95-4.64-4.58-16.57,16.59c1.17.1,2.03.45,2.03.45l3.23,3.25Zm21.01,38.23c-1.52-1.57-3.06-3.14-4.6-4.69-.89-.9-1.76-1.79-2.64-2.67-1.5-1.53-3.01-3.04-4.47-4.52-.87-.9-1.73-1.76-2.58-2.61-1.58-1.61-3.12-3.16-4.57-4.61-1.08-1.1-2.1-2.13-3.08-3.12-1.6-1.62-3.06-3.1-4.36-4.41l-15.95,16.04,4.21,4.2,3.23,3.19,4.53,4.52,2.71,2.67,4.38,4.37,2.77,2.75,4.57,4.52,3.27,3.27,4.2,4.16,15.74-15.61c-1.35-1.4-2.75-2.8-4.18-4.24-1.04-1.06-2.1-2.13-3.17-3.21Zm-52.24-23.69v.02c.77,2.33,1.89,4.38,2.42,5.33.2.35.33.56.33.56l3.86,3.83,3.38,3.36,4.21,4.2,3.23,3.19,4.53,4.52,2.71,2.67,4.38,4.37,2.77,2.75,4.57,4.52,3.27,3.27,4.2,4.16,2.82,2.8,4.75,4.71,3.06,3.04,4.31,4.3,3.99,3.96,3.3,3.29,3.62,3.6,1.11,1.1c1.62,1.03,3.42,1.37,5.1,1.36,3.02,0,5.55-1.12,5.55-1.12,0,0,24.58-24.74,28.91-29.92,1.1-1.34,1.57-2.83,1.63-4.35v-.02c.12-2.83-1.12-5.63-2.01-7.27-.5-.91-.89-1.46-.89-1.46l-2.15-2.11-3.71-3.68-3.58-3.51-4.71-4.65-2.77-2.73-4.99-4.91-2.73-2.69-4.31-4.24-3.08-3.04-4.83-4.76-2.54-2.5-4.7-4.63-2.49-2.45-4.73-4.67-2.93-2.88-4.7-4.63-2.99-2.95-4.64-4.58-2.15-2.11s-.63-.49-1.86-.88h-.02c-1.51-.45-3.91-.78-7.09.16-.58.17-1.27.54-2.11,1.05h-.02c-7.74,4.95-25.66,24.13-28.95,28.32-.32.39-.56.84-.73,1.3v.02c-.81,2.06-.39,4.65.39,6.96Zm28-17.79l3.23,3.25,3.12,3.14,26.49,26.65,3.12,3.14,4.23,4.26,2.75,2.76,4.84,4.87,2.86,2.88,12.36,12.44c2.45,2.47.86,3.35.86,3.35,0,0-4.26,3.95-5.97,5.46-1.62,1.43-3.98-.65-4.22-.87l-.02-.02s-1.24-1.27-3.4-3.45c-1.06-1.06-2.34-2.37-3.79-3.83-1.34-1.36-2.82-2.88-4.42-4.5-.93-.93-1.89-1.92-2.9-2.95-1.54-1.55-3.14-3.17-4.79-4.86-.91-.92-1.82-1.85-2.77-2.78-1.35-1.4-2.75-2.8-4.18-4.24-1.04-1.06-2.1-2.13-3.17-3.21-1.52-1.57-3.06-3.14-4.6-4.69-.89-.9-1.76-1.79-2.64-2.67-1.5-1.53-3.01-3.04-4.47-4.52-.87-.9-1.73-1.76-2.58-2.61-1.58-1.61-3.12-3.16-4.57-4.61-1.08-1.1-2.1-2.13-3.08-3.12-1.6-1.62-3.06-3.1-4.36-4.41-1.24-1.23-2.32-2.33-3.21-3.21-1.58-1.59-2.58-2.58-2.86-2.82-.69-.62-1-1.36-1.04-2.13-.11-1.9,1.43-4.07,3.13-5.8,1.23-1.24,2.78-1.44,4.01-1.35,1.17.1,2.03.45,2.03.45Zm-13.79,35.09l3.23,3.19,4.53,4.52,2.71,2.67,4.38,4.37,2.77,2.75,4.57,4.52,3.27,3.27,4.2,4.16,15.74-15.61c-1.35-1.4-2.75-2.8-4.18-4.24-1.04-1.06-2.1-2.13-3.17-3.21-1.52-1.57-3.06-3.14-4.6-4.69-.89-.9-1.76-1.79-2.64-2.67-1.5-1.53-3.01-3.04-4.47-4.52-.87-.9-1.73-1.76-2.58-2.61-1.58-1.61-3.12-3.16-4.57-4.61-1.08-1.1-2.1-2.13-3.08-3.12-1.6-1.62-3.06-3.1-4.36-4.41l-15.95,16.04,4.21,4.2Zm13.79-35.09l3.23,3.25,3.12,3.14,26.49,26.65,3.12,3.14,4.23,4.26,2.75,2.76,4.84,4.87,2.86,2.88,11.75,11.82,16.58-16.31-3.71-3.68-3.58-3.51-4.71-4.65-2.77-2.73-4.99-4.91-2.73-2.69-4.31-4.24-3.08-3.04-4.83-4.76-2.54-2.5-4.7-4.63-2.49-2.45-4.73-4.67-2.93-2.88-4.7-4.63-2.99-2.95-4.64-4.58-16.57,16.59c1.17.1,2.03.45,2.03.45Zm-13.79,35.09l3.23,3.19,4.53,4.52,2.71,2.67,4.38,4.37,2.77,2.75,4.57,4.52,3.27,3.27,4.2,4.16,15.74-15.61c-1.35-1.4-2.75-2.8-4.18-4.24-1.04-1.06-2.1-2.13-3.17-3.21-1.52-1.57-3.06-3.14-4.6-4.69-.89-.9-1.76-1.79-2.64-2.67-1.5-1.53-3.01-3.04-4.47-4.52-.87-.9-1.73-1.76-2.58-2.61-1.58-1.61-3.12-3.16-4.57-4.61-1.08-1.1-2.1-2.13-3.08-3.12-1.6-1.62-3.06-3.1-4.36-4.41l-15.95,16.04,4.21,4.2Zm13.79-35.09l3.23,3.25,3.12,3.14,26.49,26.65,3.12,3.14,4.23,4.26,2.75,2.76,4.84,4.87,2.86,2.88,11.75,11.82,16.58-16.31-3.71-3.68-3.58-3.51-4.71-4.65-2.77-2.73-4.99-4.91-2.73-2.69-4.31-4.24-3.08-3.04-4.83-4.76-2.54-2.5-4.7-4.63-2.49-2.45-4.73-4.67-2.93-2.88-4.7-4.63-2.99-2.95-4.64-4.58-16.57,16.59c1.17.1,2.03.45,2.03.45Zm-13.79,35.09l3.23,3.19,4.53,4.52,2.71,2.67,4.38,4.37,2.77,2.75,4.57,4.52,3.27,3.27,4.2,4.16,15.74-15.61c-1.35-1.4-2.75-2.8-4.18-4.24-1.04-1.06-2.1-2.13-3.17-3.21-1.52-1.57-3.06-3.14-4.6-4.69-.89-.9-1.76-1.79-2.64-2.67-1.5-1.53-3.01-3.04-4.47-4.52-.87-.9-1.73-1.76-2.58-2.61-1.58-1.61-3.12-3.16-4.57-4.61-1.08-1.1-2.1-2.13-3.08-3.12-1.6-1.62-3.06-3.1-4.36-4.41l-15.95,16.04,4.21,4.2Zm13.79-35.09l3.23,3.25,3.12,3.14,26.49,26.65,3.12,3.14,4.23,4.26,2.75,2.76,4.84,4.87,2.86,2.88,11.75,11.82,16.58-16.31-3.71-3.68-3.58-3.51-4.71-4.65-2.77-2.73-4.99-4.91-2.73-2.69-4.31-4.24-3.08-3.04-4.83-4.76-2.54-2.5-4.7-4.63-2.49-2.45-4.73-4.67-2.93-2.88-4.7-4.63-2.99-2.95-4.64-4.58-16.57,16.59c1.17.1,2.03.45,2.03.45Zm32.83,33.04l3.12,3.14,4.23,4.26,2.75,2.76,4.84,4.87,2.86,2.88,11.75,11.82,16.58-16.31-3.71-3.68-3.58-3.51-4.71-4.65-2.77-2.73-4.99-4.91-2.73-2.69-4.31-4.24-3.08-3.04-4.83-4.76-2.54-2.5-4.7-4.63-2.49-2.45-4.73-4.67-2.93-2.88-4.7-4.63-15.82,15.91,26.49,26.65Zm-43.4,5.25l4.53,4.52,2.71,2.67,4.38,4.37,2.77,2.75,4.57,4.52,3.27,3.27,4.2,4.16,15.74-15.61c-1.35-1.4-2.75-2.8-4.18-4.24-1.04-1.06-2.1-2.13-3.17-3.21-1.52-1.57-3.06-3.14-4.6-4.69-.89-.9-1.76-1.79-2.64-2.67-1.5-1.53-3.01-3.04-4.47-4.52-.87-.9-1.73-1.76-2.58-2.61-1.58-1.61-3.12-3.16-4.57-4.61-1.08-1.1-2.1-2.13-3.08-3.12l-16.1,15.83,3.23,3.19Zm43.4-5.25l3.12,3.14,4.23,4.26,2.75,2.76,4.84,4.87,2.86,2.88,11.75,11.82,16.58-16.31-3.71-3.68-3.58-3.51-4.71-4.65-2.77-2.73-4.99-4.91-2.73-2.69-4.31-4.24-3.08-3.04-4.83-4.76-2.54-2.5-4.7-4.63-2.49-2.45-4.73-4.67-15.97,15.93,19.01,19.12Zm-36.16,12.44l4.38,4.37,2.77,2.75,4.57,4.52,3.27,3.27,4.2,4.16,15.74-15.61c-1.35-1.4-2.75-2.8-4.18-4.24-1.04-1.06-2.1-2.13-3.17-3.21-1.52-1.57-3.06-3.14-4.6-4.69-.89-.9-1.76-1.79-2.64-2.67-1.5-1.53-3.01-3.04-4.47-4.52-.87-.9-1.73-1.76-2.58-2.61l-15.99,15.81,2.71,2.67Zm39.28-9.3l4.23,4.26,2.75,2.76,4.84,4.87,2.86,2.88,11.75,11.82,16.58-16.31-3.71-3.68-3.58-3.51-4.71-4.65-2.77-2.73-4.99-4.91-2.73-2.69-4.31-4.24-3.08-3.04-16.25,16.04,3.12,3.14Zm4.23,4.26l2.75,2.76,4.84,4.87,2.86,2.88,11.75,11.82,16.58-16.31-3.71-3.68-3.58-3.51-4.71-4.65-2.77-2.73-4.99-4.91-2.73-2.69-4.31-4.24-16.21,16.13,4.23,4.26Z" style="fill: #1c1d1d; stroke-width: 0px;"/>
    <path d="m158.53,596.98c3.58,3.66.75,4.88.75,4.88,0,0-15.46,15.42-18.15,18.86-2.67,3.44,1.36,10.69,1.36,10.69,0,0,34.13,34.7,39.37,39,5.24,4.28,10.57.24,10.57.24l38.5-36.54-84.35-82.7-16.91,18.08s25.27,23.83,28.85,27.49Zm4.12,16.23l5.77-5.87,34.02,34.03,1.71,1.85s-3.1,3.21-5.98,5.73c-2.89,2.54-6.51-1.12-6.51-1.12,0,0-21.92-23.08-26.37-27.15-4.44-4.05-2.64-7.47-2.64-7.47Z" style="fill: #1c1d1d; stroke-width: 0px;"/>
    <path d="m406.31,310.07c.56,1.08.98,1.77.98,1.77l4.83,4.8.97.95,6.92,6.89,16.08-15.83c-2.73-2.76-5.14-5.17-7.03-7.1-.28-.28-.56-.56-.82-.82-2.13-2.13-3.51-3.49-3.82-3.77-1.41-1.27-1.26-2.96-.38-4.64l-17.72,17.74Zm0,0c.56,1.08.98,1.77.98,1.77l4.83,4.8.97.95,6.92,6.89,16.08-15.83c-2.73-2.76-5.14-5.17-7.03-7.1-.28-.28-.56-.56-.82-.82-2.13-2.13-3.51-3.49-3.82-3.77-1.41-1.27-1.26-2.96-.38-4.64l-17.72,17.74Zm0,0c.56,1.08.98,1.77.98,1.77l4.83,4.8.97.95,6.92,6.89,16.08-15.83c-2.73-2.76-5.14-5.17-7.03-7.1-.28-.28-.56-.56-.82-.82-2.13-2.13-3.51-3.49-3.82-3.77-1.41-1.27-1.26-2.96-.38-4.64l-17.72,17.74Zm0,0c.56,1.08.98,1.77.98,1.77l4.83,4.8.97.95,6.92,6.89,16.08-15.83c-2.73-2.76-5.14-5.17-7.03-7.1-.28-.28-.56-.56-.82-.82-2.13-2.13-3.51-3.49-3.82-3.77-1.41-1.27-1.26-2.96-.38-4.64l-17.72,17.74Zm0,0c.56,1.08.98,1.77.98,1.77l4.83,4.8.97.95,6.92,6.89,16.08-15.83c-2.73-2.76-5.14-5.17-7.03-7.1-.28-.28-.56-.56-.82-.82-2.13-2.13-3.51-3.49-3.82-3.77-1.41-1.27-1.26-2.96-.38-4.64l-17.72,17.74Zm0,0c.56,1.08.98,1.77.98,1.77l4.83,4.8.97.95,6.92,6.89,16.08-15.83c-2.73-2.76-5.14-5.17-7.03-7.1-.28-.28-.56-.56-.82-.82-2.13-2.13-3.51-3.49-3.82-3.77-1.41-1.27-1.26-2.96-.38-4.64l-17.72,17.74Zm0,0c.56,1.08.98,1.77.98,1.77l4.83,4.8.97.95,6.92,6.89,16.08-15.83c-2.73-2.76-5.14-5.17-7.03-7.1-.28-.28-.56-.56-.82-.82-2.13-2.13-3.51-3.49-3.82-3.77-1.41-1.27-1.26-2.96-.38-4.64l-17.72,17.74Zm0,0c.56,1.08.98,1.77.98,1.77l4.83,4.8.97.95,6.92,6.89,16.08-15.83c-2.73-2.76-5.14-5.17-7.03-7.1-.28-.28-.56-.56-.82-.82-2.13-2.13-3.51-3.49-3.82-3.77-1.41-1.27-1.26-2.96-.38-4.64l-17.72,17.74Zm-.98-2.05c.33.76.67,1.47.98,2.05.56,1.08.98,1.77.98,1.77l4.83,4.8.97.95,6.92,6.89,1.37,1.36,5.59,5.55,1.45,1.44,6.07,6.03,1.34,1.33,6.14,6.11,1.54,1.53.1-31.58-.67-.67c-1.95-1.98-3.84-3.88-5.61-5.66-.43-.43-.84-.86-1.24-1.27-2.73-2.76-5.14-5.17-7.03-7.1-.28-.28-.56-.56-.82-.82-2.13-2.13-3.51-3.49-3.82-3.77-1.41-1.27-1.26-2.96-.38-4.64,0-.02.02-.02.02-.04.56-1.13,1.5-2.29,2.45-3.25.6-.61,1.27-.96,1.94-1.15h.02c2.03-.61,4.08.25,4.08.25l4.19,4.22.72.73,6.18,6.22c.05-10.41.08-20.74.09-30.94-1.41-.58-4.04-1.19-7.78-.1-1.55.44-4.18,2.37-7.3,5.08l-.02.02-.02.02-.02.02-.02.02-.06.06-.02.02-.02.02-.02.02-.06.06h-.02c-6.53,5.66-14.96,14.4-19.96,19.95v.02c-1.64,1.82-2.9,3.25-3.55,4.09-2.15,2.73-.92,7.18.45,10.37Zm.98,2.05c.56,1.08.98,1.77.98,1.77l4.83,4.8.97.95,6.92,6.89,16.08-15.83c-2.73-2.76-5.14-5.17-7.03-7.1-.28-.28-.56-.56-.82-.82-2.13-2.13-3.51-3.49-3.82-3.77-1.41-1.27-1.26-2.96-.38-4.64l-17.72,17.74Zm0,0c.56,1.08.98,1.77.98,1.77l4.83,4.8.97.95,6.92,6.89,16.08-15.83c-2.73-2.76-5.14-5.17-7.03-7.1-.28-.28-.56-.56-.82-.82-2.13-2.13-3.51-3.49-3.82-3.77-1.41-1.27-1.26-2.96-.38-4.64l-17.72,17.74Zm0,0c.56,1.08.98,1.77.98,1.77l4.83,4.8.97.95,6.92,6.89,16.08-15.83c-2.73-2.76-5.14-5.17-7.03-7.1-.28-.28-.56-.56-.82-.82-2.13-2.13-3.51-3.49-3.82-3.77-1.41-1.27-1.26-2.96-.38-4.64l-17.72,17.74Zm0,0c.56,1.08.98,1.77.98,1.77l4.83,4.8.97.95,6.92,6.89,16.08-15.83c-2.73-2.76-5.14-5.17-7.03-7.1-.28-.28-.56-.56-.82-.82-2.13-2.13-3.51-3.49-3.82-3.77-1.41-1.27-1.26-2.96-.38-4.64l-17.72,17.74Zm0,0c.56,1.08.98,1.77.98,1.77l4.83,4.8.97.95,6.92,6.89,16.08-15.83c-2.73-2.76-5.14-5.17-7.03-7.1-.28-.28-.56-.56-.82-.82-2.13-2.13-3.51-3.49-3.82-3.77-1.41-1.27-1.26-2.96-.38-4.64l-17.72,17.74Zm0,0c.56,1.08.98,1.77.98,1.77l4.83,4.8.97.95,6.92,6.89,16.08-15.83c-2.73-2.76-5.14-5.17-7.03-7.1-.28-.28-.56-.56-.82-.82-2.13-2.13-3.51-3.49-3.82-3.77-1.41-1.27-1.26-2.96-.38-4.64l-17.72,17.74Zm0,0c.56,1.08.98,1.77.98,1.77l4.83,4.8.97.95,6.92,6.89,16.08-15.83c-2.73-2.76-5.14-5.17-7.03-7.1-.28-.28-.56-.56-.82-.82-2.13-2.13-3.51-3.49-3.82-3.77-1.41-1.27-1.26-2.96-.38-4.64l-17.72,17.74Z" style="fill: #1c1d1d; stroke-width: 0px;"/>
    <path d="m391.58,400.41c1.43,1.44,2.99,3.01,4.6,4.65.76.77,1.54,1.55,2.34,2.33,1.89,1.9,3.84,3.87,5.79,5.81.56.56,1.1,1.1,1.63,1.62,2.1,2.11,4.16,4.15,6.09,6.05l16.69-16.39c-1.71-1.77-3.82-3.98-6.11-6.35-.48-.5-.98-1.01-1.47-1.53-1.93-2-3.92-4.07-5.79-6.01-.78-.78-1.54-1.57-2.28-2.32-1.74-1.81-3.34-3.44-4.62-4.71-.91-.9-1.65-1.62-2.19-2.13l-16.94,16.69c.71.71,1.45,1.48,2.25,2.28Zm4.6,4.65c.76.77,1.54,1.55,2.34,2.33,1.89,1.9,3.84,3.87,5.79,5.81.56.56,1.1,1.1,1.63,1.62,2.1,2.11,4.16,4.15,6.09,6.05l16.69-16.39c-1.71-1.77-3.82-3.98-6.11-6.35-.48-.5-.98-1.01-1.47-1.53-1.93-2-3.92-4.07-5.79-6.01-.78-.78-1.54-1.57-2.28-2.32-1.74-1.81-3.34-3.44-4.62-4.71l-16.88,16.84c1.43,1.44,2.99,3.01,4.6,4.65Zm0,0c.76.77,1.54,1.55,2.34,2.33,1.89,1.9,3.84,3.87,5.79,5.81.56.56,1.1,1.1,1.63,1.62,2.1,2.11,4.16,4.15,6.09,6.05l16.69-16.39c-1.71-1.77-3.82-3.98-6.11-6.35-.48-.5-.98-1.01-1.47-1.53-1.93-2-3.92-4.07-5.79-6.01-.78-.78-1.54-1.57-2.28-2.32-1.74-1.81-3.34-3.44-4.62-4.71l-16.88,16.84c1.43,1.44,2.99,3.01,4.6,4.65Zm0,0c.76.77,1.54,1.55,2.34,2.33,1.89,1.9,3.84,3.87,5.79,5.81.56.56,1.1,1.1,1.63,1.62,2.1,2.11,4.16,4.15,6.09,6.05l16.69-16.39c-1.71-1.77-3.82-3.98-6.11-6.35-.48-.5-.98-1.01-1.47-1.53-1.93-2-3.92-4.07-5.79-6.01-.78-.78-1.54-1.57-2.28-2.32-1.74-1.81-3.34-3.44-4.62-4.71l-16.88,16.84c1.43,1.44,2.99,3.01,4.6,4.65Zm0,0c.76.77,1.54,1.55,2.34,2.33,1.89,1.9,3.84,3.87,5.79,5.81.56.56,1.1,1.1,1.63,1.62,2.1,2.11,4.16,4.15,6.09,6.05l16.69-16.39c-1.71-1.77-3.82-3.98-6.11-6.35-.48-.5-.98-1.01-1.47-1.53-1.93-2-3.92-4.07-5.79-6.01-.78-.78-1.54-1.57-2.28-2.32-1.74-1.81-3.34-3.44-4.62-4.71l-16.88,16.84c1.43,1.44,2.99,3.01,4.6,4.65Zm0,0c.76.77,1.54,1.55,2.34,2.33,1.89,1.9,3.84,3.87,5.79,5.81.56.56,1.1,1.1,1.63,1.62,2.1,2.11,4.16,4.15,6.09,6.05l16.69-16.39c-1.71-1.77-3.82-3.98-6.11-6.35-.48-.5-.98-1.01-1.47-1.53-1.93-2-3.92-4.07-5.79-6.01-.78-.78-1.54-1.57-2.28-2.32-1.74-1.81-3.34-3.44-4.62-4.71l-16.88,16.84c1.43,1.44,2.99,3.01,4.6,4.65Zm0,0c.76.77,1.54,1.55,2.34,2.33,1.89,1.9,3.84,3.87,5.79,5.81.56.56,1.1,1.1,1.63,1.62,2.1,2.11,4.16,4.15,6.09,6.05l16.69-16.39c-1.71-1.77-3.82-3.98-6.11-6.35-.48-.5-.98-1.01-1.47-1.53-1.93-2-3.92-4.07-5.79-6.01-.78-.78-1.54-1.57-2.28-2.32-1.74-1.81-3.34-3.44-4.62-4.71l-16.88,16.84c1.43,1.44,2.99,3.01,4.6,4.65Zm0,0c.76.77,1.54,1.55,2.34,2.33,1.89,1.9,3.84,3.87,5.79,5.81.56.56,1.1,1.1,1.63,1.62,2.1,2.11,4.16,4.15,6.09,6.05l16.69-16.39c-1.71-1.77-3.82-3.98-6.11-6.35-.48-.5-.98-1.01-1.47-1.53-1.93-2-3.92-4.07-5.79-6.01-.78-.78-1.54-1.57-2.28-2.32-1.74-1.81-3.34-3.44-4.62-4.71l-16.88,16.84c1.43,1.44,2.99,3.01,4.6,4.65Zm-25.02-74.33c.98.93,3.04,2.88,5.63,5.3.59.56,1.21,1.14,1.84,1.74,1.91,1.81,4.01,3.81,6.13,5.83.43.39.85.8,1.28,1.2,2.38,2.26,4.7,4.48,6.76,6.44.56.54,1.1,1.05,1.6,1.53h.02c2.36,2.28,4.18,4.03,4.96,4.84.2.21.37.39.52.58.69.78,1.04,1.44,1.19,1.98.5,1.7-.96,2.32-.96,2.32,0,0-15.46,15.42-18.15,18.86-1.83,2.34-.52,6.46.49,8.85.46,1.12.87,1.85.87,1.85l.28.28c.72.75,2.84,2.89,5.74,5.81.71.71,1.45,1.48,2.25,2.28,1.43,1.44,2.99,3.01,4.6,4.65.76.77,1.54,1.55,2.34,2.33,1.89,1.9,3.84,3.87,5.79,5.81.56.56,1.1,1.1,1.63,1.62,2.1,2.11,4.16,4.15,6.09,6.05.69.67,1.36,1.33,1.99,1.94,2,1.98,3.81,3.72,5.27,5.1.85.82,1.58,1.51,2.19,2.07.5.43.89.8,1.21,1.05,3.18,2.6,6.38,2.12,8.41,1.37h.02c1.3-.5,2.14-1.13,2.14-1.13l10.01-9.5.05-16.25c-.22.22-.49.46-.75.72-1.06,1.06-2.33,2.26-3.57,3.34-.63.54-1.29.82-1.94.87-2.37.25-4.57-1.99-4.57-1.99,0,0-.76-.8-2.04-2.13-.5-.54-1.09-1.16-1.73-1.85-1.71-1.77-3.82-3.98-6.11-6.35-.48-.5-.98-1.01-1.47-1.53-1.93-2-3.92-4.07-5.79-6.01-.78-.78-1.54-1.57-2.28-2.32-1.74-1.81-3.34-3.44-4.62-4.71-.91-.9-1.65-1.62-2.19-2.13-.06-.04-.09-.09-.15-.13-4.44-4.05-2.64-7.47-2.64-7.47l5.77-5.87,5.31,5.3,2.12,2.13,4.68,4.69,2.28,2.26,5.96,5.96,1.43,1.44,6.29,6.29,1.71,1.7,4.25,4.26.06.06.11-35.1-2.19-2.15-2.25-2.2-4.77-4.69-2.06-2-6.11-6-1.41-1.38-6.05-5.94-1.5-1.48-5.57-5.45-1.47-1.44-6.85-6.72-1.08-1.06-6.18-6.03-1.63-1.62-5.66-5.53-1.24-1.23-16.9,18.08s.22.22.65.62Zm25.02,74.33c.76.77,1.54,1.55,2.34,2.33,1.89,1.9,3.84,3.87,5.79,5.81.56.56,1.1,1.1,1.63,1.62,2.1,2.11,4.16,4.15,6.09,6.05l16.69-16.39c-1.71-1.77-3.82-3.98-6.11-6.35-.48-.5-.98-1.01-1.47-1.53-1.93-2-3.92-4.07-5.79-6.01-.78-.78-1.54-1.57-2.28-2.32-1.74-1.81-3.34-3.44-4.62-4.71l-16.88,16.84c1.43,1.44,2.99,3.01,4.6,4.65Zm0,0c.76.77,1.54,1.55,2.34,2.33,1.89,1.9,3.84,3.87,5.79,5.81.56.56,1.1,1.1,1.63,1.62,2.1,2.11,4.16,4.15,6.09,6.05l16.69-16.39c-1.71-1.77-3.82-3.98-6.11-6.35-.48-.5-.98-1.01-1.47-1.53-1.93-2-3.92-4.07-5.79-6.01-.78-.78-1.54-1.57-2.28-2.32-1.74-1.81-3.34-3.44-4.62-4.71l-16.88,16.84c1.43,1.44,2.99,3.01,4.6,4.65Zm0,0c.76.77,1.54,1.55,2.34,2.33,1.89,1.9,3.84,3.87,5.79,5.81.56.56,1.1,1.1,1.63,1.62,2.1,2.11,4.16,4.15,6.09,6.05l16.69-16.39c-1.71-1.77-3.82-3.98-6.11-6.35-.48-.5-.98-1.01-1.47-1.53-1.93-2-3.92-4.07-5.79-6.01-.78-.78-1.54-1.57-2.28-2.32-1.74-1.81-3.34-3.44-4.62-4.71l-16.88,16.84c1.43,1.44,2.99,3.01,4.6,4.65Zm0,0c.76.77,1.54,1.55,2.34,2.33,1.89,1.9,3.84,3.87,5.79,5.81.56.56,1.1,1.1,1.63,1.62,2.1,2.11,4.16,4.15,6.09,6.05l16.69-16.39c-1.71-1.77-3.82-3.98-6.11-6.35-.48-.5-.98-1.01-1.47-1.53-1.93-2-3.92-4.07-5.79-6.01-.78-.78-1.54-1.57-2.28-2.32-1.74-1.81-3.34-3.44-4.62-4.71l-16.88,16.84c1.43,1.44,2.99,3.01,4.6,4.65Zm0,0c.76.77,1.54,1.55,2.34,2.33,1.89,1.9,3.84,3.87,5.79,5.81.56.56,1.1,1.1,1.63,1.62,2.1,2.11,4.16,4.15,6.09,6.05l16.69-16.39c-1.71-1.77-3.82-3.98-6.11-6.35-.48-.5-.98-1.01-1.47-1.53-1.93-2-3.92-4.07-5.79-6.01-.78-.78-1.54-1.57-2.28-2.32-1.74-1.81-3.34-3.44-4.62-4.71l-16.88,16.84c1.43,1.44,2.99,3.01,4.6,4.65Zm0,0c.76.77,1.54,1.55,2.34,2.33,1.89,1.9,3.84,3.87,5.79,5.81.56.56,1.1,1.1,1.63,1.62,2.1,2.11,4.16,4.15,6.09,6.05l16.69-16.39c-1.71-1.77-3.82-3.98-6.11-6.35-.48-.5-.98-1.01-1.47-1.53-1.93-2-3.92-4.07-5.79-6.01-.78-.78-1.54-1.57-2.28-2.32-1.74-1.81-3.34-3.44-4.62-4.71l-16.88,16.84c1.43,1.44,2.99,3.01,4.6,4.65Zm0,0c.76.77,1.54,1.55,2.34,2.33,1.89,1.9,3.84,3.87,5.79,5.81.56.56,1.1,1.1,1.63,1.62,2.1,2.11,4.16,4.15,6.09,6.05l16.69-16.39c-1.71-1.77-3.82-3.98-6.11-6.35-.48-.5-.98-1.01-1.47-1.53-1.93-2-3.92-4.07-5.79-6.01-.78-.78-1.54-1.57-2.28-2.32-1.74-1.81-3.34-3.44-4.62-4.71l-16.88,16.84c1.43,1.44,2.99,3.01,4.6,4.65Z" style="fill: #1c1d1d; stroke-width: 0px;"/>
    <polygon points="43.75 657.46 103.9 703.65 55.24 645.74 75.07 625.6 168.15 695.52 154.54 709.29 146.29 709.27 76.38 654 122.18 709.19 75.3 709.03 46.72 686.36 65.8 709 50.5 708.96 26.47 677.19 43.75 657.46" style="fill: #1c1e1e; stroke-width: 0px;"/>
    <path d="m348.9,611.03c3.79,4.07,1.62,5.91,1.62,5.91,0,0-2.37,2.3-6.14,6.35-3.75,4.05.74,8.92.74,8.92,0,0,32.54,32.81,36.47,36.7,3.92,3.88,6.85,1.04,6.85,1.04l16.16-16.58c2.04-2.1-.45-6.29-.45-6.29l-57.19-56.1-8.99,9.78s7.13,6.18,10.93,10.27Zm11.63,14.87c1.18-1.13,4.04.94,4.04.94l21.81,22.13s2.78,2.86,1.18,4.45c-1.62,1.61-4.44-1.61-4.44-1.61l-22.18-22.04s-1.56-2.74-.4-3.87Z" style="fill: #a2212a; stroke-width: 0px;"/>
    <path d="m310.56,631.55l-11.21-11.17-9.07,8.54,50.14,53.72s4.31,4.67,9.66,1.54c5.35-3.15,17.93-11.53,17.93-11.53,0,0,1.82-6.19-.66-8.72l-54.79-55.26-9,8.95,11.47,11.89s2.19,3.15.88,4.45-5.34-2.42-5.34-2.42Zm13.13,10.02c1.85-1.69,3.94,1.2,3.94,1.2l22.46,23.1s2.91,2.73,1.01,4.47-4.93-1.71-4.93-1.71l-21.94-22.95s-2.41-2.41-.55-4.12Z" style="fill: #a2212a; stroke-width: 0px;"/>
    <path d="m325.28,674.28l-45.4-46.4s-4.94-2.13-9.62,2.33c-4.48,4.28-2.09,12.69-2.09,12.69l-7.29-3.14-4.54,5.01,22.23,24.38s2,2.32,4.83.07,8.45-6.76,8.45-6.76l-15.22-14.64s-2.21-1.55-.86-2.93,4.26,1.04,4.26,1.04l28.74,30.72s2.31,2.11.97,3.34-4.26-1.81-4.26-1.81l-9.17-8.87-9.43,6.29,13.78,15.1s2.61,2.99,7.81.79,18.48-10.43,18.48-10.43c0,0,1.09-3.18-1.68-6.79Z" style="fill: #a2212a; stroke-width: 0px;"/>
    <path d="m348.78,582.8s45.12,45.31,50.38,50.01c5.27,4.73,8.23.03,8.23.03l11.71-17.3c2.67-3.96-.48-7.64-.48-7.64,0,0-46-43.95-50.44-47.82-4.44-3.89-6.96-1.03-6.96-1.03,0,0-10.2,10.32-13.67,14.26-3.47,3.92,1.24,9.48,1.24,9.48Zm13.93-7.18c1.62-1.63,4.59,1.65,4.59,1.65l35.94,35.56s2.04,2.74.68,4.14c-1.38,1.41-4.11-1.41-4.11-1.41l-35.64-35.48s-3.06-2.82-1.46-4.45Z" style="fill: #a2212a; stroke-width: 0px;"/>
    <path d="m401.08,566.38l-5.81,7.04s-1.59,2.98.43,4.59c2.02,1.62,15.14,13.92,15.14,13.92,0,0,3.11,3.26,6-.56s9-16.83,9-16.83c0,0,2.14-5.68-2.91-11.25-5.05-5.57-39.19-38.46-39.19-38.46,0,0-4.24-2.38-7.34.66-3.09,3.04-13.82,14.69-13.82,14.69,0,0-1.76,2.63,1.39,6s23.37,22.58,23.37,22.58l8.08-8.85-16.71-16.7s-2.94-1.72-1.43-3.64c1.51-1.91,4.72,1.69,4.72,1.69l31.06,30.25s2.29,2.1.91,3.79c-1.38,1.69-4.45-.62-4.45-.62l-8.44-8.32Z" style="fill: #a2212a; stroke-width: 0px;"/>
    <polyline points="157.58 521.57 152.87 517.85 91.27 579.83 95.51 584.02" style="fill: #1c1d1d; stroke-width: 0px;"/>
    <path id="Club-3" data-name="Club" d="m172.17,508.46c.21-.22.4-.46.57-.71.13.92.6,1.83,1.3,2.5,1.75,1.69,4.63,1.55,6.41-.31s1.81-4.73.06-6.42c-.7-.68-1.63-1.1-2.55-1.2.24-.17.47-.37.69-.59,1.79-1.86,1.72-4.82-.03-6.51s-4.63-1.55-6.41.31c-1.24,1.29-1.82,2.89-1.36,4.42-3.42-3.8-2.02-5.02-1.85-5.85.06-.29-.06-.4-.34-.67h0s-2.58,2.68-2.58,2.68l-2.58,2.68h0c.28.27.39.38.68.31.82-.2,1.98-1.65,5.91,1.62-1.55-.4-3.13.24-4.37,1.53-1.79,1.86-1.81,4.73-.06,6.42s4.72,1.64,6.51-.22Z" style="fill: #040000; stroke-width: 0px;"/>
    <path d="m188.5,473.79l2.42,16.46s4.41,4.13,7.13.5c2.72-3.62.43-5.86.43-5.86,0,0,5.1,1.28,6.86-1.56,1.76-2.84-1.08-6.03-1.08-6.03l-15.75-3.51Z" style="fill: #1c1d1d; stroke-width: 0px;"/>
    <g>
      <path d="m223.89,465.44l-2.22-14.66s-3.85-2.63-5.65-.02l-1.45,5.08-5.86,1.64s-2.17,4.25.65,5.6l14.54,2.36Z" style="fill: #1c1d1d; stroke-width: 0px;"/>
      <path d="m214.28,455.38s-2.53-4.55-1.55-5.8-4.51,4.13-4.51,4.13c0,0,4.91.84,6.06,1.66Z" style="fill: #1c1d1d; stroke-width: 0px;"/>
    </g>
    <polygon points="246.26 445.15 243.73 432.76 232.17 429.28 234.3 440.44 246.26 445.15" style="fill: #1c1d1d; stroke-width: 0px;"/>
    <path id="Club-4" data-name="Club" d="m412.52,268.94c.21-.22.4-.46.57-.71.13.92.6,1.83,1.3,2.5,1.75,1.69,4.63,1.55,6.41-.31s1.81-4.73.06-6.42c-.7-.68-1.63-1.1-2.55-1.2.24-.17.47-.37.69-.59,1.79-1.86,1.72-4.82-.03-6.51-1.75-1.69-4.63-1.55-6.41.31-1.24,1.29-1.82,2.89-1.36,4.42-3.42-3.8-2.02-5.02-1.85-5.85.06-.29-.06-.4-.34-.67h0s-2.58,2.68-2.58,2.68l-2.58,2.68h0c.28.27.39.38.68.31.82-.2,1.98-1.65,5.91,1.62-1.55-.4-3.13.24-4.37,1.53-1.79,1.86-1.81,4.73-.06,6.42,1.75,1.69,4.72,1.64,6.51-.22Z" style="fill: #040000; stroke-width: 0px;"/>
    <path d="m428.84,234.28l14.98,3.32-.02,7.67c-2.16.79-4.97.1-4.97.1,0,0,2.28,2.24-.43,5.86-2.73,3.62-7.13-.51-7.13-.51l-2.43-16.45Z" style="fill: #1c1d1d; stroke-width: 0px;"/>
    <path d="m22.55,648.32l49.06-48.67,4.36,3.72-53.43,54.82c0-3.15,0-6.42.01-9.87Z" style="fill: #1c1d1d; stroke-width: 0px;"/>
    <path d="m442.44,690.01s-1.25,19.56-15.96,20.15l-390.4-1.25s-13.18.46-13.53-9.2c-.12-3.54.07-91.43.38-201.71l.09-30.76c.01-10.2.04-20.54.09-30.94,0-5.62.02-11.28.03-16.94l.34-110.5c.41-139.71.82-263.26.82-263.26,0,0,1.25-19.58,15.96-20.15l271.94.87,32.36.1,46.88.16,39.21.12s13.2-.48,13.54,9.18c.05,1.43.06,16.64,0,41.54,0,3.15,0,6.42-.01,9.87-.27,154.38-1.75,602.73-1.75,602.73Z" style="fill: none; stroke: #231815; stroke-miterlimit: 10; stroke-width: 1.73px;"/>
  </g>
</svg>