<?xml version="1.0" encoding="UTF-8"?>
<svg id="_图层_2" data-name="图层 2" xmlns="http://www.w3.org/2000/svg" viewBox="0 0 210.38 79.98">
  <g id="_图层_7" data-name="图层 7">
    <g>
      <g>
        <ellipse cx="104.74" cy="27.97" rx="104.43" ry="27.66" style="fill: #e61e76; stroke: #b61562; stroke-miterlimit: 10; stroke-width: .61px;"/>
        <ellipse cx="62.65" cy="47.1" rx="1.88" ry=".71" style="fill: #fff; stroke-width: 0px;"/>
        <ellipse cx="60.23" cy="44.7" rx="1.88" ry=".71" style="fill: #fff; stroke-width: 0px;"/>
        <ellipse cx="71.33" cy="46.4" rx="1.88" ry=".71" style="fill: #fff; stroke-width: 0px;"/>
        <ellipse cx="64.96" cy="49.22" rx="1.88" ry=".71" style="fill: #fff; stroke-width: 0px;"/>
        <ellipse cx="53.83" cy="47.65" rx="1.88" ry=".71" style="fill: #fff; stroke-width: 0px;"/>
        <ellipse cx="138.12" cy="9.02" rx="1.88" ry=".71" style="fill: #fff; stroke-width: 0px;"/>
        <ellipse cx="155.53" cy="7.85" rx="1.88" ry=".71" style="fill: #fff; stroke-width: 0px;"/>
        <ellipse cx="147.72" cy="46.85" rx="1.88" ry=".71" style="fill: #fff; stroke-width: 0px;"/>
        <ellipse cx="183.6" cy="26.03" rx="1.88" ry=".71" style="fill: #fff; stroke-width: 0px;"/>
        <ellipse cx="189.86" cy="27.44" rx="1.88" ry=".71" style="fill: #fff; stroke-width: 0px;"/>
        <ellipse cx="196.22" cy="29.08" rx="1.88" ry=".71" style="fill: #fff; stroke-width: 0px;"/>
        <polygon points="127.32 9.31 152.44 12.86 165.27 6.49 141.02 3.09 127.32 9.31" style="fill: none; opacity: .99; stroke: #fff; stroke-miterlimit: 10; stroke-width: .31px;"/>
        <polygon points="31.51 31.02 31.51 24.09 4.61 24.09 4.32 31.02 31.51 31.02" style="fill: none; stroke: #fff; stroke-miterlimit: 10; stroke-width: .31px;"/>
        <polygon points="142.28 50.91 167.4 48.09 154.05 42.04 129.7 45.15 142.28 50.91" style="fill: none; stroke: #fff; stroke-miterlimit: 10; stroke-width: .31px;"/>
        <polygon points="43.1 48.35 56.51 42.19 80.82 45.15 67.36 51.69 43.1 48.35" style="fill: none; stroke: #fff; stroke-miterlimit: 10; stroke-width: .31px;"/>
        <polygon points="174.42 31.29 202.26 30.95 202.26 23.8 174.42 23.8 174.42 31.29" style="fill: none; stroke: #fff; stroke-miterlimit: 10; stroke-width: .31px;"/>
        <path d="m89.06,54.27c5.12.2,10.35.3,15.68.3,5.72,0,11.34-.12,16.81-.35l-3.79-5.11h-25.46l-3.25,5.16Z" style="fill: #fff; stroke: #b61562; stroke-miterlimit: 10; stroke-width: .61px;"/>
        <path d="m179.17,35.76c-.77,2.14-10.27,5.4-10.27,5.4l17.18,4.15c6.48-2.13,11.8-4.52,15.69-7.1l-22.6-2.45Z" style="fill: #fff; stroke: #b61562; stroke-miterlimit: 10; stroke-width: .61px;"/>
        <path d="m31.51,20.37c.53-2.04,9.59-5.25,9.59-5.25l-18.35-4.29c-6.79,2.27-12.25,4.84-16.09,7.61l24.84,1.93Z" style="fill: #fff; stroke: #b61562; stroke-miterlimit: 10; stroke-width: .61px;"/>
        <path d="m91.75,7.3h25.1l5.2-6.61c-5.63-.25-11.41-.38-17.31-.38s-12.16.14-18.01.41l5.03,6.58Z" style="fill: #fff; stroke: #b61562; stroke-miterlimit: 10; stroke-width: .61px;"/>
        <path d="m186.62,10.8l-18.71,4.3c5.5.97,10.9,5,10.9,5l23.32-2.13c-3.81-2.6-9.07-5.01-15.51-7.17Z" style="fill: #fff; stroke: #b61562; stroke-miterlimit: 10; stroke-width: .61px;"/>
        <polygon points="57.22 13.53 81.37 9.73 67.63 3.13 42.05 7 57.22 13.53" style="fill: none; stroke: #fff; stroke-miterlimit: 10; stroke-width: .31px;"/>
        <ellipse cx="63.69" cy="6.15" rx="1.7" ry=".57" style="fill: #fff; stroke-width: 0px;"/>
        <ellipse cx="66.96" cy="7.59" rx="1.7" ry=".57" style="fill: #fff; stroke-width: 0px;"/>
        <ellipse cx="70.36" cy="9.04" rx="1.7" ry=".57" style="fill: #fff; stroke-width: 0px;"/>
        <ellipse cx="59.15" cy="10.79" rx="1.7" ry=".57" style="fill: #fff; stroke-width: 0px;"/>
        <ellipse cx="56.12" cy="9.33" rx="1.7" ry=".57" style="fill: #fff; stroke-width: 0px;"/>
        <ellipse cx="52.97" cy="7.87" rx="1.7" ry=".57" style="fill: #fff; stroke-width: 0px;"/>
        <ellipse cx="25.68" cy="26.1" rx="1.88" ry=".71" style="fill: #fff; stroke-width: 0px;"/>
        <ellipse cx="25.68" cy="29.36" rx="1.88" ry=".71" style="fill: #fff; stroke-width: 0px;"/>
        <ellipse cx="13" cy="26.1" rx="1.88" ry=".71" style="fill: #fff; stroke-width: 0px;"/>
        <ellipse cx="13" cy="29.36" rx="1.88" ry=".71" style="fill: #fff; stroke-width: 0px;"/>
        <path d="m.31,28.77s2.16,26.48,107.85,26.31c105.7-.17,100.48-29.69,100.48-29.69,0,0,3.23,16.29-.01,30.2,0,0-5.56,21.02-99.54,24.08,0,0-88.75.38-108.02-23.56L.31,28.77Z" style="fill: #e61e76; stroke: #b61562; stroke-miterlimit: 10; stroke-width: .61px;"/>
        <path d="m185.5,69.64c7.67-2.41,12.82-4.92,16.26-7.13v-24.97c-3.42,2.78-8.51,5.7-16.08,8.33l-.18,23.77Z" style="fill: #fff; stroke: #b61562; stroke-miterlimit: 10; stroke-width: .61px;"/>
        <path d="m121.55,54.67c-4.26.12-8.71.19-13.39.2-6.79.01-13.14-.09-19.1-.29v24.51c11.89.62,20.03.59,20.03.59,4.34-.14,8.49-.32,12.46-.54v-24.47Z" style="fill: #fff; stroke: #b61562; stroke-miterlimit: 10; stroke-width: .62px;"/>
        <path d="m7.27,37.92c4.23,2.9,10.25,5.57,17.71,7.91l16.13-4.42c-3.33-.39-10.51-5.4-10.51-5.4l-23.32,1.91Z" style="fill: #fff; stroke: #b61562; stroke-miterlimit: 10; stroke-width: .61px;"/>
        <path d="m7.96,63.03c4.44,2.93,10.02,5.38,16.28,7.43l.24-24.04c-7.52-2.5-12.72-5.21-16.29-7.73l-.23,24.33Z" style="fill: #fff; stroke: #b61562; stroke-miterlimit: 10; stroke-width: .62px;"/>
        <path d="m104.74,9.73c-37.18,0-67.31,7.93-67.31,17.71s30.14,17.71,67.31,17.71,67.31-7.93,67.31-17.71-30.14-17.71-67.31-17.71Zm.31,33.88c-33.39,0-60.46-7.12-60.46-15.91s27.07-15.91,60.46-15.91,60.46,7.12,60.46,15.91-27.07,15.91-60.46,15.91Z" style="fill: #c20f68; stroke-width: 0px;"/>
        <path d="m159.75,17.24l-4.88,1.45c3.39,1.3,6.08,2.73,7.9,4.26l4.34-2.17c-1.94-1.26-4.42-2.44-7.36-3.54Z" style="fill: #fff; stroke-width: 0px;"/>
        <path d="m165.51,27.7c0,.85-.26,1.68-.75,2.49l5.68,1.09c1.04-1.24,1.61-2.53,1.61-3.85,0-.48-.09-.95-.23-1.41h-6.65c.22.55.34,1.11.34,1.67Z" style="fill: #fff; stroke-width: 0px;"/>
        <path d="m159.97,34.35c-1.72.99-3.81,1.92-6.23,2.78l.54,2.3c4.64-1.33,8.51-2.84,11.45-4.5l-5.76-.58Z" style="fill: #fff; stroke-width: 0px;"/>
        <path d="m142.62,40.16c-4.04.85-8.5,1.56-13.29,2.11v1.66c5.06-.52,9.81-1.2,14.18-2.01l-.89-1.76Z" style="fill: #fff; stroke-width: 0px;"/>
        <path d="m112.12,45.05v-1.55c-2.32.07-4.68.11-7.08.11s-4.77-.04-7.1-.11l-.05,1.57c2.25.06,4.54.09,6.85.09,2.5,0,4.96-.04,7.38-.11Z" style="fill: #fff; stroke-width: 0px;"/>
        <path d="m80.82,42.28c-4.38-.5-8.49-1.14-12.25-1.89l-.93,1.83c4.1.71,8.52,1.31,13.19,1.78v-1.72Z" style="fill: #fff; stroke-width: 0px;"/>
        <path d="m56.24,37.09c-2.27-.82-4.26-1.69-5.91-2.62l-5.58,1c3.03,1.56,6.91,2.99,11.5,4.25v-2.63Z" style="fill: #fff; stroke-width: 0px;"/>
        <path d="m130.1,13.23c5.17.62,9.94,1.42,14.2,2.38v-2.49c-4.28-.82-8.93-1.51-13.89-2.05l-.31,2.16Z" style="fill: #fff; stroke-width: 0px;"/>
        <path d="m42.05,20.99l5.09,2.13c1.57-1.37,3.82-2.67,6.65-3.86l-2.67-2.53c-3.73,1.29-6.79,2.72-9.08,4.26Z" style="fill: #fff; stroke-width: 0px;"/>
        <path d="m44.59,27.7c0-.36.06-.72.15-1.08l-7.15-.38c-.1.4-.17.79-.17,1.19,0,1.41.65,2.78,1.83,4.1l6.77-.39c-.94-1.11-1.45-2.27-1.45-3.46Z" style="fill: #fff; stroke-width: 0px;"/>
        <path d="m64.69,13.21v2.65c4.3-1.01,9.15-1.87,14.43-2.53l-1.26-2.13c-4.69.54-9.11,1.21-13.17,2Z" style="fill: #fff; stroke-width: 0px;"/>
        <path d="m96.38,9.87v2.09c2.83-.11,5.72-.17,8.67-.17,2.42,0,4.8.04,7.15.11v-2.07c-2.45-.07-4.94-.11-7.46-.11-2.83,0-5.62.05-8.36.14Z" style="fill: #fff; stroke-width: 0px;"/>
      </g>
      <g>
        <path d="m61.71,27.77h3.63c-.23.46-.24.82-.03,1.08s.62.39,1.24.39,1.15-.15,1.62-.44.82-.71,1.06-1.24c.27-.58.3-1.02.08-1.3s-.66-.43-1.34-.43c-.32,0-.66.04-1,.11s-.7.18-1.08.33h-2.97l2.67-4.88h8.78l-.58,1.35h-6.1l-1.17,2.3c.58-.18,1.11-.31,1.59-.4s.92-.13,1.33-.13c1.41,0,2.41.27,3.01.8s.71,1.29.32,2.24c-.43,1.03-1.22,1.81-2.38,2.35s-2.71.81-4.59.81-3.16-.25-3.83-.74-.74-1.22-.27-2.2Zm.96-1.03h3.35c.29-.15.57-.26.85-.33s.57-.11.88-.11c.5,0,.83.09.98.27s.14.46-.04.85l-.03.07c-.15-.05-.3-.1-.47-.12s-.35-.04-.55-.04c-.18,0-.36.02-.54.05s-.36.08-.54.15l-.24-.24h-3.26l-.39-.54Zm10.43-1.63l1,1.1c.21.22.33.47.35.77s-.04.65-.21,1.06c-.49,1.23-1.49,2.27-3.01,3.1s-3.3,1.27-5.22,1.27c-.91,0-1.68-.1-2.31-.29s-1.12-.48-1.46-.87l-.73-.78c.4.28.91.47,1.53.6s1.51.18,2.64.18c2.02,0,3.7-.33,5.01-.98,1.29-.64,2.18-1.56,2.66-2.75.2-.49.28-.93.23-1.33s-.21-.75-.49-1.08Zm-5.74-.71l.62-1.23h6.13l.76-1.79.71.87-.77,1.88h-5.19c-.44,0-.84.02-1.19.07s-.71.11-1.06.2Zm-1.47,3.37l.81.9h-.16c-.34,0-.57-.08-.69-.24s-.1-.38.04-.66Z" style="fill: #fff; stroke-width: 0px;"/>
        <path d="m87.02,25.64c-.44,1.79-1.18,3.1-2.21,3.87s-2.66,1.18-4.8,1.18-3.5-.4-4.07-1.18-.47-2.08.22-3.87,1.49-2.88,2.51-3.53,2.44-.96,4.33-.96,3.13.32,3.73.96.71,1.81.29,3.53Zm-.04-4.02l1.05.95c.44.4.71.87.81,1.42s.04,1.32-.18,2.31c-.43,1.95-1.33,3.47-2.71,4.52-1.42,1.08-3.29,1.63-5.61,1.63-.67,0-1.25-.07-1.74-.2s-.87-.33-1.14-.59l-1.11-1.07c.29.23.71.39,1.24.49s1.32.15,2.34.15c2.27,0,4.01-.45,5.2-1.33s1.97-2.28,2.42-4.18c.25-1.06.33-1.89.23-2.52s-.36-1.14-.8-1.58Zm-7.42,4.03c-.45,1.31-.6,2.24-.46,2.76s.6.79,1.37.79,1.4-.27,1.87-.8.9-1.45,1.27-2.75.46-2.12.3-2.58-.6-.68-1.3-.68-1.29.22-1.73.67-.89,1.31-1.32,2.58Zm.94,3.07c-.52-.07-.82-.31-.9-.73s.05-1.13.39-2.14c.42-1.27.8-2.08,1.15-2.47s.78-.57,1.34-.57c.39,0,.67.11.84.33s.23.53.15.92c-.16-.11-.31-.19-.44-.23s-.25-.07-.38-.07c-.32,0-.57.1-.75.29s-.39.67-.64,1.43l-.08.25c-.12.39-.24.83-.36,1.31s-.23,1.05-.34,1.68Z" style="fill: #fff; stroke-width: 0px;"/>
        <path d="m100.54,25.64c-.13,1.79-.64,3.1-1.55,3.87s-2.46,1.18-4.6,1.18-3.57-.4-4.27-1.18c-.68-.77-.82-2.08-.44-3.87s1-2.88,1.9-3.53,2.27-.96,4.17-.96,3.19.32,3.89.96,1.02,1.81.9,3.53Zm-.73-4.02l1.21.95c.51.4.86.87,1.06,1.42s.27,1.32.22,2.31c-.1,1.95-.74,3.47-1.94,4.52-1.23,1.08-3.01,1.63-5.33,1.63-.67,0-1.26-.07-1.78-.2s-.93-.33-1.24-.59l-1.29-1.07c.33.23.77.39,1.33.49s1.34.15,2.37.15c2.27,0,3.94-.45,4.97-1.33s1.57-2.28,1.7-4.18c.07-1.06,0-1.89-.2-2.52s-.56-1.14-1.07-1.58Zm-6.73,4.03c-.22,1.31-.22,2.24.02,2.76s.74.79,1.51.79,1.35-.27,1.74-.8.65-1.45.8-2.75.1-2.12-.15-2.58-.71-.68-1.42-.68-1.25.22-1.61.67-.66,1.31-.88,2.58Zm1.47,3.07c-.53-.07-.87-.31-1.02-.73s-.14-1.13.02-2.14c.2-1.27.44-2.08.72-2.47s.69-.57,1.24-.57c.39,0,.68.11.9.33s.32.53.31.92c-.18-.11-.34-.19-.48-.23s-.27-.07-.39-.07c-.32,0-.55.1-.7.29s-.28.67-.39,1.43l-.04.25c-.06.39-.1.83-.13,1.31s-.05,1.05-.05,1.68Z" style="fill: #fff; stroke-width: 0px;"/>
        <path d="m102.78,32.72h3.13l2.31-3.98.85.86-2.46,4.36h-2.17l-1.65-1.24Zm1.57-3.98h3.21l-2.03,3.43h-2.51l1.32-3.43Z" style="fill: #fff; stroke-width: 0px;"/>
        <path d="m120.82,25.64c.33,1.79.16,3.1-.55,3.87s-2.15,1.18-4.29,1.18-3.68-.4-4.57-1.18-1.36-2.08-1.44-3.87.25-2.88.99-3.53,2.03-.96,3.92-.96,3.27.32,4.14.96c.89.65,1.49,1.81,1.81,3.53Zm-1.77-4.02l1.45.95c.61.4,1.09.87,1.42,1.42s.61,1.32.82,2.31c.4,1.95.16,3.47-.77,4.52s-2.59,1.63-4.9,1.63c-.67,0-1.28-.07-1.83-.2s-1.01-.33-1.4-.59l-1.57-1.07c.39.23.88.39,1.45.49s1.38.15,2.41.15c2.27,0,3.82-.45,4.62-1.33s.99-2.28.62-4.18c-.2-1.06-.49-1.89-.85-2.52s-.85-1.14-1.48-1.58Zm-5.69,4.03c.12,1.31.36,2.24.73,2.76s.94.79,1.71.79,1.28-.27,1.53-.8.27-1.45.09-2.75-.45-2.12-.81-2.58-.89-.68-1.59-.68-1.19.22-1.44.67-.33,1.31-.21,2.58Zm2.27,3.07c-.55-.07-.95-.31-1.21-.73s-.43-1.13-.53-2.14c-.12-1.27-.09-2.08.08-2.47s.54-.57,1.09-.57c.39,0,.71.11.99.33s.46.53.55.92c-.21-.11-.39-.19-.54-.23s-.29-.07-.41-.07c-.32,0-.53.1-.63.29s-.11.67-.02,1.43l.03.25c.04.39.11.83.21,1.31s.23,1.05.39,1.68Z" style="fill: #fff; stroke-width: 0px;"/>
        <path d="m134.34,25.64c.64,1.79.69,3.1.12,3.87s-1.95,1.18-4.09,1.18-3.74-.4-4.78-1.18-1.72-2.08-2.11-3.87c-.38-1.72-.24-2.88.38-3.53s1.86-.96,3.76-.96,3.32.32,4.31.96c1,.65,1.8,1.81,2.42,3.53Zm-2.46-4.02l1.62.95c.68.4,1.24.87,1.67,1.42s.84,1.32,1.21,2.31c.74,1.95.76,3.47.01,4.52s-2.31,1.63-4.62,1.63c-.67,0-1.29-.07-1.87-.2s-1.07-.33-1.5-.59l-1.75-1.07c.43.23.94.39,1.54.49s1.41.15,2.43.15c2.27,0,3.74-.45,4.4-1.33s.59-2.28-.1-4.18c-.39-1.06-.81-1.89-1.29-2.52s-1.05-1.14-1.75-1.58Zm-4.99,4.03c.35,1.31.75,2.24,1.2,2.76.46.52,1.08.79,1.85.79s1.23-.27,1.39-.8.02-1.45-.39-2.75-.82-2.12-1.26-2.58-1.01-.68-1.71-.68-1.15.22-1.33.67-.1,1.31.23,2.58Zm2.8,3.07c-.56-.07-1-.31-1.34-.73s-.63-1.13-.9-2.14c-.34-1.27-.45-2.08-.34-2.47s.44-.57.99-.57c.39,0,.73.11,1.04.33s.55.53.7.92c-.23-.11-.42-.19-.58-.23s-.3-.07-.42-.07c-.32,0-.51.1-.58.29s0,.67.23,1.43l.07.25c.11.39.26.83.44,1.31s.41,1.05.68,1.68Z" style="fill: #fff; stroke-width: 0px;"/>
        <path d="m147.85,25.64c.95,1.79,1.22,3.1.78,3.87s-1.74,1.18-3.89,1.18-3.81-.4-4.98-1.18c-1.15-.77-2.07-2.08-2.78-3.87s-.74-2.88-.23-3.53,1.7-.96,3.59-.96,3.38.32,4.47.96c1.11.65,2.12,1.81,3.02,3.53Zm-3.16-4.02l1.78.95c.75.4,1.39.87,1.92,1.42s1.07,1.32,1.61,2.31c1.07,1.95,1.35,3.47.79,4.52s-2.03,1.63-4.34,1.63c-.67,0-1.3-.07-1.9-.2s-1.13-.33-1.6-.59l-1.94-1.07c.47.23,1.01.39,1.62.49s1.43.15,2.46.15c2.27,0,3.67-.45,4.17-1.33s.2-2.28-.82-4.18c-.57-1.06-1.14-1.89-1.72-2.52s-1.24-1.14-2.02-1.58Zm-4.3,4.03c.57,1.31,1.13,2.24,1.68,2.76.55.52,1.22.79,1.99.79s1.19-.27,1.25-.8-.23-1.45-.86-2.75-1.18-2.12-1.7-2.58-1.12-.68-1.83-.68-1.11.22-1.21.67.12,1.31.68,2.58Zm3.32,3.07c-.57-.07-1.06-.31-1.46-.73s-.82-1.13-1.27-2.14c-.56-1.27-.81-2.08-.77-2.47s.34-.57.89-.57c.39,0,.75.11,1.1.33s.64.53.86.92c-.25-.11-.45-.19-.62-.23s-.31-.07-.43-.07c-.32,0-.5.1-.53.29s.12.67.47,1.43l.12.25c.18.39.4.83.66,1.31s.59,1.05.97,1.68Z" style="fill: #fff; stroke-width: 0px;"/>
      </g>
    </g>
  </g>
</svg>