<?xml version="1.0" encoding="UTF-8"?>
<svg id="_图层_2" data-name="图层 2" xmlns="http://www.w3.org/2000/svg" viewBox="0 0 210.38 79.98">
  <g id="_图层_7" data-name="图层 7">
    <g>
      <g>
        <path d="m.83,28.84s2.15,26.45,107.59,26.28,100.23-29.65,100.23-29.65c0,0,3.22,16.26-.01,30.16,0,0-5.55,20.99-99.29,24.05,0,0-88.53.38-107.75-23.53l-.76-27.3Z" style="fill: #e61e76; stroke: #c20f68; stroke-miterlimit: 10; stroke-width: .61px;"/>
        <ellipse cx="105.45" cy="27.98" rx="103.7" ry="27.67" style="fill: #e61e76; stroke: #c20f68; stroke-miterlimit: 10; stroke-width: .61px;"/>
        <rect x="90.42" y="2.11" width="27.39" height="6.98" style="fill: none; stroke: #fff; stroke-miterlimit: 10; stroke-width: .31px;"/>
        <ellipse cx="99.23" cy="4.15" rx="1.84" ry=".47" style="fill: #fff; stroke-width: 0px;"/>
        <ellipse cx="99.23" cy="5.85" rx="1.84" ry=".47" style="fill: #fff; stroke-width: 0px;"/>
        <ellipse cx="99.34" cy="7.52" rx="1.84" ry=".47" style="fill: #fff; stroke-width: 0px;"/>
        <ellipse cx="112.16" cy="3.97" rx="1.84" ry=".47" style="fill: #fff; stroke-width: 0px;"/>
        <ellipse cx="112.16" cy="5.85" rx="1.84" ry=".47" style="fill: #fff; stroke-width: 0px;"/>
        <ellipse cx="112.16" cy="7.52" rx="1.84" ry=".47" style="fill: #fff; stroke-width: 0px;"/>
        <polygon points="11.9 37.54 36.99 33.99 51.41 40.37 27.96 43.42 11.9 37.54" style="fill: none; stroke: #fff; stroke-miterlimit: 10; stroke-width: .31px;"/>
        <ellipse cx="33.89" cy="36.6" rx="1.94" ry=".57" style="fill: #fff; stroke-width: 0px;"/>
        <ellipse cx="31.34" cy="38.86" rx="1.94" ry=".57" style="fill: #fff; stroke-width: 0px;"/>
        <ellipse cx="29.04" cy="41" rx="1.94" ry=".57" style="fill: #fff; stroke-width: 0px;"/>
        <ellipse cx="22.59" cy="38.29" rx="1.94" ry=".57" style="fill: #fff; stroke-width: 0px;"/>
        <ellipse cx="40.29" cy="39.66" rx="1.94" ry=".57" style="fill: #fff; stroke-width: 0px;"/>
        <path d="m67.71,2.11l7.87,5.82s-18.3,2.19-20.61,3.46l-16.39-4.74s19.53-4.36,29.14-4.54Z" style="fill: #fff; stroke: #c20f68; stroke-miterlimit: 10; stroke-width: .61px;"/>
        <path d="m143.64,2.41l-7.87,5.82s18.3,2.19,20.61,3.46l16.39-4.74s-19.53-4.36-29.14-4.54Z" style="fill: #fff; stroke: #c20f68; stroke-miterlimit: 10; stroke-width: .61px;"/>
        <path d="m207.22,32.97l-21.97-1.05s2.04-4.28,0-7.13l23.26-.07s1.36,4.3-1.29,8.25Z" style="fill: #fff; stroke: #c20f68; stroke-miterlimit: 10; stroke-width: .62px;"/>
        <path d="m156.2,44.9c-2.55,1.15-21.77,3.23-21.77,3.23l7.63,5.31v.28c16.32-.14,24.58-2.31,28.15-3.66l-14.01-5.15Z" style="fill: #fff; stroke: #c20f68; stroke-miterlimit: 10; stroke-width: .61px;"/>
        <path d="m142.05,53.71v23.92s17.71-.83,28.54-3.82v-23.62l-.39-.14c-3.57,1.35-11.83,3.52-28.15,3.66Z" style="fill: #fff; stroke: #c20f68; stroke-miterlimit: 10; stroke-width: .61px;"/>
        <path d="m68.18,53.09v24.54c-11.08-1.2-20.52-2.92-28.5-4.86v-23.31c7.8,1.49,17.2,2.75,28.5,3.62Z" style="fill: #fff; stroke: #c20f68; stroke-miterlimit: 10; stroke-width: .61px;"/>
        <path d="m39.68,49.47h0s15.04-4.57,15.04-4.57c0,0,19.91,3.92,22,3.23,2.09-.69-8.54,4.97-8.54,4.97,0,0-23.06-2.49-28.5-3.63" style="fill: #fff; stroke: #c20f68; stroke-miterlimit: 10; stroke-width: .61px;"/>
        <path d="m3.58,32.72l22.39-1.01s-2.08-4.15,0-6.92l-23.71-.07s-1.39,4.17,1.32,8Z" style="fill: #fff; stroke: #c20f68; stroke-miterlimit: 10; stroke-width: .61px;"/>
        <path d="m2.26,24.72s-4.16,8.88-.36,31.3c0,0,.18-23.24,1.67-23.3,0,0-1.7-5.84-1.32-8Z" style="fill: #fff; stroke: #c20f68; stroke-miterlimit: 10; stroke-width: .61px;"/>
        <path d="m105.24,10.8c-37.02,0-67.02,7.69-67.02,17.17s30.01,17.17,67.02,17.17,67.02-7.69,67.02-17.17-30.01-17.17-67.02-17.17Zm.37,33.17c-34.01,0-61.58-7.18-61.58-16.04s27.57-16.04,61.58-16.04,61.58,7.18,61.58,16.04-27.57,16.04-61.58,16.04Z" style="fill: #c20f68; stroke-width: 0px;"/>
        <path d="m160.6,35.16c-1.64.84-3.55,1.64-5.71,2.39l.13,1.92c4.34-1.23,7.98-2.62,10.79-4.14l-5.21-.18Z" style="fill: #fff; stroke-width: 0px;"/>
        <path d="m167.19,28.03c0,1.12-.44,2.21-1.28,3.26l4.92.32c.93-1.14,1.43-2.32,1.43-3.54,0-.4-.06-.79-.16-1.19h-5.07c.1.38.16.76.16,1.14Z" style="fill: #fff; stroke-width: 0px;"/>
        <path d="m131.27,13.43c5.23.62,10.06,1.42,14.38,2.37l.21-1.43c-4.4-.85-9.21-1.57-14.36-2.12l-.23,1.18Z" style="fill: #fff; stroke-width: 0px;"/>
        <path d="m97.5,10.96v1.12c2.65-.09,5.36-.14,8.11-.14s5.65.05,8.39.15v-1.09c-2.87-.1-5.79-.15-8.76-.15-2.62,0-5.2.04-7.74.11Z" style="fill: #fff; stroke-width: 0px;"/>
        <path d="m159.51,17.98l-3.45.84c3.68,1.38,6.56,2.91,8.45,4.56l3.62-1.23c-2.13-1.5-5.05-2.9-8.62-4.16Z" style="fill: #fff; stroke-width: 0px;"/>
        <path d="m44.04,27.93c0-.46.08-.92.23-1.37h-5.82c-.15.47-.23.94-.23,1.41,0,1.29.56,2.54,1.61,3.75l5.55-.46c-.87-1.08-1.33-2.19-1.33-3.33Z" style="fill: #fff; stroke-width: 0px;"/>
        <path d="m56.12,37.48c-2.47-.87-4.61-1.8-6.37-2.79l-5.17.6c2.96,1.61,6.87,3.08,11.54,4.37v-2.18Z" style="fill: #fff; stroke-width: 0px;"/>
        <path d="m81.35,42.68c-4.37-.49-8.47-1.1-12.25-1.83l-1.92,1.26c4.41.78,9.2,1.43,14.28,1.92l-.11-1.36Z" style="fill: #fff; stroke-width: 0px;"/>
        <path d="m112.92,45.04v-1.18c-2.4.07-4.84.11-7.31.11s-4.8-.04-7.14-.11l-.05,1.2c2.24.06,4.51.09,6.81.09,2.6,0,5.16-.04,7.68-.11Z" style="fill: #fff; stroke-width: 0px;"/>
        <path d="m65.88,14.08l-.05,1.62c4.22-.93,8.94-1.72,14.03-2.33l-.9-1.19c-4.65.51-9.03,1.15-13.07,1.9Z" style="fill: #fff; stroke-width: 0px;"/>
        <path d="m43.73,21.14l3.19,1.93c1.75-1.44,4.26-2.78,7.4-4.01l-3.26-1.19c-2.89,1.01-5.35,2.11-7.32,3.28Z" style="fill: #fff; stroke-width: 0px;"/>
        <path d="m142.22,40.83c-3.77.73-7.87,1.34-12.23,1.83v1.27c4.77-.49,9.26-1.11,13.42-1.85l-1.2-1.26Z" style="fill: #fff; stroke-width: 0px;"/>
        <polygon points="90.44 53.37 117.8 53.09 117.8 46.15 90.44 46.15 90.44 53.37" style="fill: none; stroke: #fff; stroke-miterlimit: 10; stroke-width: .31px;"/>
        <ellipse cx="105.61" cy="49.92" rx="2.15" ry=".53" style="fill: #fff; stroke-width: 0px;"/>
        <polygon points="11.9 17.87 25.45 12.02 50.35 15.21 37.09 21.18 11.9 17.87" style="fill: none; stroke: #fff; stroke-miterlimit: 10; stroke-width: .31px;"/>
        <ellipse cx="29.03" cy="14.5" rx="1.94" ry=".57" style="fill: #fff; stroke-width: 0px;"/>
        <ellipse cx="22.77" cy="17.51" rx="1.94" ry=".57" style="fill: #fff; stroke-width: 0px;"/>
        <ellipse cx="33.89" cy="19.04" rx="1.94" ry=".57" style="fill: #fff; stroke-width: 0px;"/>
        <ellipse cx="40.16" cy="16.23" rx="1.94" ry=".57" style="fill: #fff; stroke-width: 0px;"/>
        <polygon points="175.5 21.25 199.06 17.98 186.04 11.9 160.35 14.97 175.5 21.25" style="fill: none; stroke: #fff; stroke-miterlimit: 10; stroke-width: .31px;"/>
        <ellipse cx="171.2" cy="16.24" rx="2.11" ry=".67" style="fill: #fff; stroke-width: 0px;"/>
        <ellipse cx="188.55" cy="17.49" rx="2.11" ry=".67" style="fill: #fff; stroke-width: 0px;"/>
        <polygon points="174.05 33.68 198.37 37.32 185.25 43.36 160.85 39.84 174.05 33.68" style="fill: none; stroke: #fff; stroke-miterlimit: 10; stroke-width: .31px;"/>
        <ellipse cx="177.46" cy="36.56" rx="2.15" ry=".65" style="fill: #fff; stroke-width: 0px;"/>
        <ellipse cx="179.78" cy="38.95" rx="2.15" ry=".65" style="fill: #fff; stroke-width: 0px;"/>
        <ellipse cx="182.15" cy="41.18" rx="2.15" ry=".65" style="fill: #fff; stroke-width: 0px;"/>
        <path d="m207.65,33.84s2.98-4.18,1.31,22.48c0,0,2.51-23.67.01-30.27,0,0-.54,6.72-1.32,7.79Z" style="fill: #fff; stroke: #c20f68; stroke-miterlimit: 10; stroke-width: .6px;"/>
      </g>
      <g>
        <path d="m62.78,28.93h3.63c-.23.46-.24.82-.03,1.08s.62.39,1.24.39,1.15-.15,1.62-.44.82-.71,1.06-1.24c.27-.58.3-1.02.08-1.3s-.66-.43-1.34-.43c-.32,0-.66.04-1,.11s-.7.18-1.08.33h-2.97l2.67-4.88h8.78l-.58,1.35h-6.1l-1.17,2.3c.58-.18,1.11-.31,1.59-.4s.92-.13,1.33-.13c1.41,0,2.41.27,3.01.8s.71,1.29.32,2.24c-.43,1.03-1.22,1.81-2.38,2.35s-2.71.81-4.59.81-3.16-.25-3.83-.74-.74-1.22-.27-2.2Zm.96-1.03h3.35c.29-.15.57-.26.85-.33s.57-.11.88-.11c.5,0,.83.09.98.27s.14.46-.04.85l-.03.07c-.15-.05-.3-.1-.47-.12s-.35-.04-.55-.04c-.18,0-.36.02-.54.05s-.36.08-.54.15l-.24-.24h-3.26l-.39-.54Zm10.43-1.63l1,1.1c.21.22.33.47.35.77s-.04.65-.21,1.06c-.49,1.23-1.49,2.27-3.01,3.1s-3.3,1.27-5.22,1.27c-.91,0-1.68-.1-2.31-.29s-1.12-.48-1.46-.87l-.73-.78c.4.28.91.47,1.53.6s1.51.18,2.64.18c2.02,0,3.7-.33,5.01-.98,1.29-.64,2.18-1.56,2.66-2.75.2-.49.28-.93.23-1.33s-.21-.75-.49-1.08Zm-5.74-.71l.62-1.23h6.13l.76-1.79.71.87-.77,1.88h-5.19c-.44,0-.84.02-1.19.07s-.71.11-1.06.2Zm-1.47,3.37l.81.9h-.16c-.34,0-.57-.08-.69-.24s-.1-.38.04-.66Z" style="fill: #fff; stroke-width: 0px;"/>
        <path d="m88.09,26.8c-.44,1.79-1.18,3.1-2.21,3.87s-2.66,1.18-4.8,1.18-3.5-.4-4.07-1.18-.47-2.08.22-3.87,1.49-2.88,2.51-3.53,2.44-.96,4.33-.96,3.13.32,3.73.96.71,1.81.29,3.53Zm-.04-4.02l1.05.95c.44.4.71.87.81,1.42s.04,1.32-.18,2.31c-.43,1.95-1.33,3.47-2.71,4.52-1.42,1.08-3.29,1.63-5.61,1.63-.67,0-1.25-.07-1.74-.2s-.87-.33-1.14-.59l-1.11-1.07c.29.23.71.39,1.24.49s1.32.15,2.34.15c2.27,0,4.01-.45,5.2-1.33s1.97-2.28,2.42-4.18c.25-1.06.33-1.89.23-2.52s-.36-1.14-.8-1.58Zm-7.42,4.03c-.45,1.31-.6,2.24-.46,2.76s.6.79,1.37.79,1.4-.27,1.87-.8.9-1.45,1.27-2.75.46-2.12.3-2.58-.6-.68-1.3-.68-1.29.22-1.73.67-.89,1.31-1.32,2.58Zm.94,3.07c-.52-.07-.82-.31-.9-.73s.05-1.13.39-2.14c.42-1.27.8-2.08,1.15-2.47s.78-.57,1.34-.57c.39,0,.67.11.84.33s.23.53.15.92c-.16-.11-.31-.19-.44-.23s-.25-.07-.38-.07c-.32,0-.57.1-.75.29s-.39.67-.64,1.43l-.08.25c-.12.39-.24.83-.36,1.31s-.23,1.05-.34,1.68Z" style="fill: #fff; stroke-width: 0px;"/>
        <path d="m101.61,26.8c-.13,1.79-.64,3.1-1.55,3.87s-2.46,1.18-4.6,1.18-3.57-.4-4.27-1.18c-.68-.77-.82-2.08-.44-3.87s1-2.88,1.9-3.53,2.27-.96,4.17-.96,3.19.32,3.89.96,1.02,1.81.9,3.53Zm-.73-4.02l1.21.95c.51.4.86.87,1.06,1.42s.27,1.32.22,2.31c-.1,1.95-.74,3.47-1.94,4.52-1.23,1.08-3.01,1.63-5.33,1.63-.67,0-1.26-.07-1.78-.2s-.93-.33-1.24-.59l-1.29-1.07c.33.23.77.39,1.33.49s1.34.15,2.37.15c2.27,0,3.94-.45,4.97-1.33s1.57-2.28,1.7-4.18c.07-1.06,0-1.89-.2-2.52s-.56-1.14-1.07-1.58Zm-6.73,4.03c-.22,1.31-.22,2.24.02,2.76s.74.79,1.51.79,1.35-.27,1.74-.8.65-1.45.8-2.75.1-2.12-.15-2.58-.71-.68-1.42-.68-1.25.22-1.61.67-.66,1.31-.88,2.58Zm1.47,3.07c-.53-.07-.87-.31-1.02-.73s-.14-1.13.02-2.14c.2-1.27.44-2.08.72-2.47s.69-.57,1.24-.57c.39,0,.68.11.9.33s.32.53.31.92c-.18-.11-.34-.19-.48-.23s-.27-.07-.39-.07c-.32,0-.55.1-.7.29s-.28.67-.39,1.43l-.04.25c-.06.39-.1.83-.13,1.31s-.05,1.05-.05,1.68Z" style="fill: #fff; stroke-width: 0px;"/>
        <path d="m103.85,33.88h3.13l2.31-3.98.85.86-2.46,4.36h-2.17l-1.65-1.24Zm1.57-3.98h3.21l-2.03,3.43h-2.51l1.32-3.43Z" style="fill: #fff; stroke-width: 0px;"/>
        <path d="m121.88,26.8c.33,1.79.16,3.1-.55,3.87s-2.15,1.18-4.29,1.18-3.68-.4-4.57-1.18-1.36-2.08-1.44-3.87.25-2.88.99-3.53,2.03-.96,3.92-.96,3.27.32,4.14.96c.89.65,1.49,1.81,1.81,3.53Zm-1.77-4.02l1.45.95c.61.4,1.09.87,1.42,1.42s.61,1.32.82,2.31c.4,1.95.16,3.47-.77,4.52s-2.59,1.63-4.9,1.63c-.67,0-1.28-.07-1.83-.2s-1.01-.33-1.4-.59l-1.57-1.07c.39.23.88.39,1.45.49s1.38.15,2.41.15c2.27,0,3.82-.45,4.62-1.33s.99-2.28.62-4.18c-.2-1.06-.49-1.89-.85-2.52s-.85-1.14-1.48-1.58Zm-5.69,4.03c.12,1.31.36,2.24.73,2.76s.94.79,1.71.79,1.28-.27,1.53-.8.27-1.45.09-2.75-.45-2.12-.81-2.58-.89-.68-1.59-.68-1.19.22-1.44.67-.33,1.31-.21,2.58Zm2.27,3.07c-.55-.07-.95-.31-1.21-.73s-.43-1.13-.53-2.14c-.12-1.27-.09-2.08.08-2.47s.54-.57,1.09-.57c.39,0,.71.11.99.33s.46.53.55.92c-.21-.11-.39-.19-.54-.23s-.29-.07-.41-.07c-.32,0-.53.1-.63.29s-.11.67-.02,1.43l.03.25c.04.39.11.83.21,1.31s.23,1.05.39,1.68Z" style="fill: #fff; stroke-width: 0px;"/>
        <path d="m135.4,26.8c.64,1.79.69,3.1.12,3.87s-1.95,1.18-4.09,1.18-3.74-.4-4.78-1.18-1.72-2.08-2.11-3.87c-.38-1.72-.24-2.88.38-3.53s1.86-.96,3.76-.96,3.32.32,4.31.96c1,.65,1.8,1.81,2.42,3.53Zm-2.46-4.02l1.62.95c.68.4,1.24.87,1.67,1.42s.84,1.32,1.21,2.31c.74,1.95.76,3.47.01,4.52s-2.31,1.63-4.62,1.63c-.67,0-1.29-.07-1.87-.2s-1.07-.33-1.5-.59l-1.75-1.07c.43.23.94.39,1.54.49s1.41.15,2.43.15c2.27,0,3.74-.45,4.4-1.33s.59-2.28-.1-4.18c-.39-1.06-.81-1.89-1.29-2.52s-1.05-1.14-1.75-1.58Zm-4.99,4.03c.35,1.31.75,2.24,1.2,2.76.46.52,1.08.79,1.85.79s1.23-.27,1.39-.8.02-1.45-.39-2.75-.82-2.12-1.26-2.58-1.01-.68-1.71-.68-1.15.22-1.33.67-.1,1.31.23,2.58Zm2.8,3.07c-.56-.07-1-.31-1.34-.73s-.63-1.13-.9-2.14c-.34-1.27-.45-2.08-.34-2.47s.44-.57.99-.57c.39,0,.73.11,1.04.33s.55.53.7.92c-.23-.11-.42-.19-.58-.23s-.3-.07-.42-.07c-.32,0-.51.1-.58.29s0,.67.23,1.43l.07.25c.11.39.26.83.44,1.31s.41,1.05.68,1.68Z" style="fill: #fff; stroke-width: 0px;"/>
        <path d="m148.92,26.8c.95,1.79,1.22,3.1.78,3.87s-1.74,1.18-3.89,1.18-3.81-.4-4.98-1.18c-1.15-.77-2.07-2.08-2.78-3.87s-.74-2.88-.23-3.53,1.7-.96,3.59-.96,3.38.32,4.47.96c1.11.65,2.12,1.81,3.02,3.53Zm-3.16-4.02l1.78.95c.75.4,1.39.87,1.92,1.42s1.07,1.32,1.61,2.31c1.07,1.95,1.35,3.47.79,4.52s-2.03,1.63-4.34,1.63c-.67,0-1.3-.07-1.9-.2s-1.13-.33-1.6-.59l-1.94-1.07c.47.23,1.01.39,1.62.49s1.43.15,2.46.15c2.27,0,3.67-.45,4.17-1.33s.2-2.28-.82-4.18c-.57-1.06-1.14-1.89-1.72-2.52s-1.24-1.14-2.02-1.58Zm-4.3,4.03c.57,1.31,1.13,2.24,1.68,2.76.55.52,1.22.79,1.99.79s1.19-.27,1.25-.8-.23-1.45-.86-2.75-1.18-2.12-1.7-2.58-1.12-.68-1.83-.68-1.11.22-1.21.67.12,1.31.68,2.58Zm3.32,3.07c-.57-.07-1.06-.31-1.46-.73s-.82-1.13-1.27-2.14c-.56-1.27-.81-2.08-.77-2.47s.34-.57.89-.57c.39,0,.75.11,1.1.33s.64.53.86.92c-.25-.11-.45-.19-.62-.23s-.31-.07-.43-.07c-.32,0-.5.1-.53.29s.12.67.47,1.43l.12.25c.18.39.4.83.66,1.31s.59,1.05.97,1.68Z" style="fill: #fff; stroke-width: 0px;"/>
      </g>
    </g>
  </g>
</svg>