<?xml version="1.0" encoding="UTF-8"?>
<svg id="_图层_2" data-name="图层 2" xmlns="http://www.w3.org/2000/svg" viewBox="0 0 210.38 79.93">
  <g id="_图层_7" data-name="图层 7">
    <g>
      <g>
        <ellipse cx="104.67" cy="27.8" rx="104.37" ry="27.55" style="fill: #e61e76; stroke: #c20f68; stroke-miterlimit: 10; stroke-width: .51px;"/>
        <path d="m104.57,9.57c-36.85,0-66.72,8.05-66.72,17.98s29.87,17.98,66.72,17.98,66.72-8.05,66.72-17.98-29.87-17.98-66.72-17.98Zm.32,33.95c-33.7,0-61.02-7.04-61.02-15.73s27.32-15.73,61.02-15.73,61.02,7.04,61.02,15.73-27.32,15.73-61.02,15.73Z" style="fill: #c20f68; stroke-width: 0px;"/>
        <path d="m133.67,41.66c-3.74.52-7.72.94-11.88,1.25l-.3,2.04c5.15-.36,10.06-.89,14.64-1.55-.75-.53-1.66-1.17-2.46-1.74Z" style="fill: #fff; stroke-width: 0px;"/>
        <path d="m157.48,35.77c-2.44,1.07-5.36,2.05-8.67,2.94l.16,2.27c5.09-1.22,9.47-2.65,12.98-4.24l-4.46-.97Z" style="fill: #fff; stroke-width: 0px;"/>
        <path d="m43.87,27.79c0-1.24.55-2.44,1.6-3.59l-6.23-.31c-.91,1.18-1.39,2.41-1.39,3.67,0,.49.08.98.22,1.47h5.98c-.12-.41-.18-.81-.18-1.23Z" style="fill: #fff; stroke-width: 0px;"/>
        <path d="m165.88,28.28c-.21,1.79-1.58,3.5-3.92,5.08l5.48.22c2.2-1.67,3.52-3.45,3.8-5.3h-5.36Z" style="fill: #fff; stroke-width: 0px;"/>
        <path d="m163.66,19.19l-5.07,1.12c2.81,1.34,4.89,2.79,6.1,4.33l5.34-.59c-1.26-1.72-3.43-3.35-6.37-4.86Z" style="fill: #fff; stroke-width: 0px;"/>
        <path d="m136.96,14.4c5.3.85,10.06,1.89,14.12,3.11l-.17-2.9c-3.48-.91-7.32-1.71-11.46-2.4l-2.48,2.19Z" style="fill: #fff; stroke-width: 0px;"/>
        <path d="m104.67,12.06c.07,0,.14,0,.22,0,5.75,0,11.31.21,16.58.59l-.7-2.54c-4.67-.31-9.52-.5-14.52-.53l-1.57,2.49Z" style="fill: #fff; stroke-width: 0px;"/>
        <path d="m47.14,18.39l2.64,2.63c2.7-1.46,6.24-2.79,10.46-3.96l-3.82-1.96c-3.54.99-6.65,2.1-9.28,3.29Z" style="fill: #fff; stroke-width: 0px;"/>
        <path d="m72.24,11.82l-.31,2.73c4.79-.79,10.03-1.42,15.61-1.84l-1.53-2.43c-4.84.38-9.46.9-13.78,1.54Z" style="fill: #fff; stroke-width: 0px;"/>
        <path d="m103.77,43.52c-4.48-.02-8.85-.17-13.04-.42l-1.74,1.95c4.93.32,10.08.49,15.37.49l-.58-2.02Z" style="fill: #fff; stroke-width: 0px;"/>
        <path d="m72.99,41.2c-3.69-.59-7.13-1.27-10.25-2.04l-3.17,1.66c4.23,1.04,8.96,1.94,14.09,2.66l-.66-2.29Z" style="fill: #fff; stroke-width: 0px;"/>
        <path d="m49.4,37.66l2.94-1.88c-2.39-1.04-4.34-2.16-5.75-3.35l-5.5.65c1.97,1.64,4.78,3.18,8.31,4.57Z" style="fill: #fff; stroke-width: 0px;"/>
        <path d="m62.02,9.57l23.45-2.32-5.18-6.23c-10.95.69-21.23,1.84-30.53,3.36l12.26,5.2Z" style="fill: #fff; stroke: #c20f68; stroke-miterlimit: 10; stroke-width: .51px;"/>
        <path d="m154.57,3.6l-10.55,5.96s13,1.39,18.89,3.88l17.8-4.51c-7.56-2.12-16.37-3.93-26.14-5.33Z" style="fill: #fff; stroke: #c20f68; stroke-miterlimit: 10; stroke-width: .51px;"/>
        <path d="m182.63,33.59l22.04,2.12c2.84-2.5,4.37-5.16,4.37-7.91,0-.08,0-.15-.01-.22l-24.01.22s.29,3.31-2.39,5.78Z" style="fill: #fff; stroke: #c20f68; stroke-miterlimit: 10; stroke-width: .51px;"/>
        <path d="m146.99,46.27c-12.92,2.93-23.26,2.42-23.26,2.42l4.82,5.94c10.56-.65,20.5-1.73,29.56-3.16l-11.12-5.2Z" style="fill: #fff; stroke: #c20f68; stroke-miterlimit: 10; stroke-width: .51px;"/>
        <path d="m31.18,47.12c7.39,1.95,15.89,3.6,25.22,4.9l9.68-5.4c-9.26-.29-19.16-3.71-19.16-3.71l-15.74,4.21Z" style="fill: #fff; stroke: #c20f68; stroke-miterlimit: 10; stroke-width: .51px;"/>
        <path d="m.31,27.8c0,.2.01.39.03.59l24.31-.17s.24-3.86,3.3-5.91l-23.98-1.76c-2.38,2.31-3.66,4.74-3.66,7.25Z" style="fill: #fff; stroke: #c20f68; stroke-miterlimit: 10; stroke-width: .51px;"/>
        <path d="m.31,28.42s2.16,26.64,107.85,26.47c105.7-.17,100.48-29.87,100.48-29.87,0,0,3.23,16.38-.01,30.38,0,0-5.56,21.14-99.54,24.22,0,0-88.75.38-108.02-23.7L.31,28.42Z" style="fill: #fff; opacity: .5; stroke: #231815; stroke-miterlimit: 10; stroke-width: .61px;"/>
        <path d="m.31,28.42s2.16,26.64,107.85,26.47c105.7-.17,100.48-29.87,100.48-29.87,0,0,3.23,16.38-.01,30.38,0,0-5.56,21.14-99.54,24.22,0,0-88.75.38-108.02-23.7L.31,28.42Z" style="fill: #e61e76; stroke: #c20f68; stroke-miterlimit: 10; stroke-width: .61px;"/>
        <path d="m55.83,52.14c-10.08-1.33-18.23-3.05-24.82-4.96-.22,1.93-.07,17.04.01,23.64,7.77,2.24,16.33,3.91,24.81,5.16v-23.83Z" style="fill: #fff; stroke: #c20f68; stroke-miterlimit: 10; stroke-width: .6px;"/>
        <polygon points="81.24 46.27 109.82 47.18 107.3 53.96 77.22 53.23 81.24 46.27" style="fill: none; stroke: #fff; stroke-miterlimit: 10; stroke-width: .16px;"/>
        <ellipse cx="101.03" cy="48.43" rx="1.61" ry=".49" style="fill: #fff; stroke-width: 0px;"/>
        <ellipse cx="99.31" cy="51.8" rx="1.61" ry=".49" style="fill: #fff; stroke-width: 0px;"/>
        <ellipse cx="93.92" cy="49.89" rx="1.61" ry=".49" style="fill: #fff; stroke-width: 0px;"/>
        <ellipse cx="88.22" cy="47.94" rx="1.61" ry=".49" style="fill: #fff; stroke-width: 0px;"/>
        <ellipse cx="86.62" cy="51.32" rx="1.61" ry=".49" style="fill: #fff; stroke-width: 0px;"/>
        <ellipse cx="29.55" cy="34.07" rx="1.61" ry=".49" style="fill: #fff; stroke-width: 0px;"/>
        <ellipse cx="34.24" cy="37.04" rx="1.61" ry=".49" style="fill: #fff; stroke-width: 0px;"/>
        <ellipse cx="22.61" cy="38.35" rx="1.61" ry=".49" style="fill: #fff; stroke-width: 0px;"/>
        <ellipse cx="17.68" cy="35.07" rx="1.61" ry=".49" style="fill: #fff; stroke-width: 0px;"/>
        <polygon points="9.4 34.07 19.29 40.93 45.01 38.35 34.76 31.21 9.4 34.07" style="fill: none; stroke: #fff; stroke-miterlimit: 10; stroke-width: .16px;"/>
        <ellipse cx="38.27" cy="16.12" rx="1.61" ry=".49" style="fill: #fff; stroke-width: 0px;"/>
        <ellipse cx="33.1" cy="15.1" rx="1.61" ry=".49" style="fill: #fff; stroke-width: 0px;"/>
        <ellipse cx="28.14" cy="14.13" rx="1.61" ry=".49" style="fill: #fff; stroke-width: 0px;"/>
        <ellipse cx="35.85" cy="11.47" rx="1.61" ry=".49" style="fill: #fff; stroke-width: 0px;"/>
        <ellipse cx="40.89" cy="12.44" rx="1.61" ry=".49" style="fill: #fff; stroke-width: 0px;"/>
        <ellipse cx="45.98" cy="13.41" rx="1.61" ry=".49" style="fill: #fff; stroke-width: 0px;"/>
        <polygon points="18.1 13.89 39.88 18.39 55.62 12.68 33.6 8.72 18.1 13.89" style="fill: none; stroke: #fff; stroke-miterlimit: 10; stroke-width: .16px;"/>
        <path d="m102.96,1.01l-3.54,6.98,27.04,1.03s3.35-6.98,3.35-7.08-26.85-.92-26.85-.92Z" style="fill: none; stroke: #fff; stroke-miterlimit: 10; stroke-width: .16px;"/>
        <ellipse cx="108.65" cy="6.6" rx="1.61" ry=".49" style="fill: #fff; stroke-width: 0px;"/>
        <ellipse cx="123.07" cy="3.68" rx="1.61" ry=".49" style="fill: #fff; stroke-width: 0px;"/>
        <ellipse cx="175.28" cy="17.99" rx="1.61" ry=".49" style="fill: #fff; stroke-width: 0px;"/>
        <ellipse cx="183.6" cy="18.68" rx="1.61" ry=".49" style="fill: #fff; stroke-width: 0px;"/>
        <ellipse cx="191.94" cy="19.68" rx="1.61" ry=".49" style="fill: #fff; stroke-width: 0px;"/>
        <polygon points="166.59 16.49 191.36 13.85 202.49 20.16 176.88 23.38 166.59 16.49" style="fill: none; stroke: #fff; stroke-miterlimit: 10; stroke-width: .16px;"/>
        <polygon points="153.14 41.57 169.65 35.77 191.67 40.15 175.4 45.77 153.14 41.57" style="fill: none; stroke: #fff; stroke-miterlimit: 10; stroke-width: .16px;"/>
        <ellipse cx="172.4" cy="41.25" rx="1.61" ry=".49" style="fill: #fff; stroke-width: 0px;"/>
        <path d="m128.81,78.61c11.33-.8,21.02-1.92,29.3-3.22v-23.67c-8.28,1.23-17.97,2.17-29.3,2.69v24.19Z" style="fill: #fff; stroke: #c20f68; stroke-miterlimit: 10; stroke-width: .61px;"/>
        <path d="m208.45,27.63c-.41,1.84-1.5,4.49-4.32,7.43.6,3.23,1.68,11.59.3,25.37,3.64-2.94,4.18-5.02,4.18-5.02.06-.25.11-.5.16-.74.13-7,.28-20.29-.33-27.04Z" style="fill: #fff; stroke: #c20f68; stroke-miterlimit: 10; stroke-width: .61px;"/>
      </g>
      <g>
        <path d="m61.57,27.91h3.63c-.23.46-.24.82-.03,1.08s.62.39,1.24.39,1.15-.15,1.62-.44.82-.71,1.06-1.24c.27-.58.3-1.02.08-1.3s-.66-.43-1.34-.43c-.32,0-.66.04-1,.11s-.7.18-1.08.33h-2.97l2.67-4.88h8.78l-.58,1.35h-6.1l-1.17,2.3c.58-.18,1.11-.31,1.59-.4s.92-.13,1.33-.13c1.41,0,2.41.27,3.01.8s.71,1.29.32,2.24c-.43,1.03-1.22,1.81-2.38,2.35s-2.71.81-4.59.81-3.16-.25-3.83-.74-.74-1.22-.27-2.2Zm.96-1.03h3.35c.29-.15.57-.26.85-.33s.57-.11.88-.11c.5,0,.83.09.98.27s.14.46-.04.85l-.03.07c-.15-.05-.3-.1-.47-.12s-.35-.04-.55-.04c-.18,0-.36.02-.54.05s-.36.08-.54.15l-.24-.24h-3.26l-.39-.54Zm10.43-1.63l1,1.1c.21.22.33.47.35.77s-.04.65-.21,1.06c-.49,1.23-1.49,2.27-3.01,3.1s-3.3,1.27-5.22,1.27c-.91,0-1.68-.1-2.31-.29s-1.12-.48-1.46-.87l-.73-.78c.4.28.91.47,1.53.6s1.51.18,2.64.18c2.02,0,3.7-.33,5.01-.98,1.29-.64,2.18-1.56,2.66-2.75.2-.49.28-.93.23-1.33s-.21-.75-.49-1.08Zm-5.74-.71l.62-1.23h6.13l.76-1.79.71.87-.77,1.88h-5.19c-.44,0-.84.02-1.19.07s-.71.11-1.06.2Zm-1.47,3.37l.81.9h-.16c-.34,0-.57-.08-.69-.24s-.1-.38.04-.66Z" style="fill: #fff; stroke-width: 0px;"/>
        <path d="m86.89,25.79c-.44,1.79-1.18,3.1-2.21,3.87s-2.66,1.18-4.8,1.18-3.5-.4-4.07-1.18-.47-2.08.22-3.87,1.49-2.88,2.51-3.53,2.44-.96,4.33-.96,3.13.32,3.73.96.71,1.81.29,3.53Zm-.04-4.02l1.05.95c.44.4.71.87.81,1.42s.04,1.32-.18,2.31c-.43,1.95-1.33,3.47-2.71,4.52-1.42,1.08-3.29,1.63-5.61,1.63-.67,0-1.25-.07-1.74-.2s-.87-.33-1.14-.59l-1.11-1.07c.29.23.71.39,1.24.49s1.32.15,2.34.15c2.27,0,4.01-.45,5.2-1.33s1.97-2.28,2.42-4.18c.25-1.06.33-1.89.23-2.52s-.36-1.14-.8-1.58Zm-7.42,4.03c-.45,1.31-.6,2.24-.46,2.76s.6.79,1.37.79,1.4-.27,1.87-.8.9-1.45,1.27-2.75.46-2.12.3-2.58-.6-.68-1.3-.68-1.29.22-1.73.67-.89,1.31-1.32,2.58Zm.94,3.07c-.52-.07-.82-.31-.9-.73s.05-1.13.39-2.14c.42-1.27.8-2.08,1.15-2.47s.78-.57,1.34-.57c.39,0,.67.11.84.33s.23.53.15.92c-.16-.11-.31-.19-.44-.23s-.25-.07-.38-.07c-.32,0-.57.1-.75.29s-.39.67-.64,1.43l-.08.25c-.12.39-.24.83-.36,1.31s-.23,1.05-.34,1.68Z" style="fill: #fff; stroke-width: 0px;"/>
        <path d="m100.41,25.79c-.13,1.79-.64,3.1-1.55,3.87s-2.46,1.18-4.6,1.18-3.57-.4-4.27-1.18c-.68-.77-.82-2.08-.44-3.87s1-2.88,1.9-3.53,2.27-.96,4.17-.96,3.19.32,3.89.96,1.02,1.81.9,3.53Zm-.73-4.02l1.21.95c.51.4.86.87,1.06,1.42s.27,1.32.22,2.31c-.1,1.95-.74,3.47-1.94,4.52-1.23,1.08-3.01,1.63-5.33,1.63-.67,0-1.26-.07-1.78-.2s-.93-.33-1.24-.59l-1.29-1.07c.33.23.77.39,1.33.49s1.34.15,2.37.15c2.27,0,3.94-.45,4.97-1.33s1.57-2.28,1.7-4.18c.07-1.06,0-1.89-.2-2.52s-.56-1.14-1.07-1.58Zm-6.73,4.03c-.22,1.31-.22,2.24.02,2.76s.74.79,1.51.79,1.35-.27,1.74-.8.65-1.45.8-2.75.1-2.12-.15-2.58-.71-.68-1.42-.68-1.25.22-1.61.67-.66,1.31-.88,2.58Zm1.47,3.07c-.53-.07-.87-.31-1.02-.73s-.14-1.13.02-2.14c.2-1.27.44-2.08.72-2.47s.69-.57,1.24-.57c.39,0,.68.11.9.33s.32.53.31.92c-.18-.11-.34-.19-.48-.23s-.27-.07-.39-.07c-.32,0-.55.1-.7.29s-.28.67-.39,1.43l-.04.25c-.06.39-.1.83-.13,1.31s-.05,1.05-.05,1.68Z" style="fill: #fff; stroke-width: 0px;"/>
        <path d="m102.65,32.87h3.13l2.31-3.98.85.86-2.46,4.36h-2.17l-1.65-1.24Zm1.57-3.98h3.21l-2.03,3.43h-2.51l1.32-3.43Z" style="fill: #fff; stroke-width: 0px;"/>
        <path d="m120.68,25.79c.33,1.79.16,3.1-.55,3.87s-2.15,1.18-4.29,1.18-3.68-.4-4.57-1.18-1.36-2.08-1.44-3.87.25-2.88.99-3.53,2.03-.96,3.92-.96,3.27.32,4.14.96c.89.65,1.49,1.81,1.81,3.53Zm-1.77-4.02l1.45.95c.61.4,1.09.87,1.42,1.42s.61,1.32.82,2.31c.4,1.95.16,3.47-.77,4.52s-2.59,1.63-4.9,1.63c-.67,0-1.28-.07-1.83-.2s-1.01-.33-1.4-.59l-1.57-1.07c.39.23.88.39,1.45.49s1.38.15,2.41.15c2.27,0,3.82-.45,4.62-1.33s.99-2.28.62-4.18c-.2-1.06-.49-1.89-.85-2.52s-.85-1.14-1.48-1.58Zm-5.69,4.03c.12,1.31.36,2.24.73,2.76s.94.79,1.71.79,1.28-.27,1.53-.8.27-1.45.09-2.75-.45-2.12-.81-2.58-.89-.68-1.59-.68-1.19.22-1.44.67-.33,1.31-.21,2.58Zm2.27,3.07c-.55-.07-.95-.31-1.21-.73s-.43-1.13-.53-2.14c-.12-1.27-.09-2.08.08-2.47s.54-.57,1.09-.57c.39,0,.71.11.99.33s.46.53.55.92c-.21-.11-.39-.19-.54-.23s-.29-.07-.41-.07c-.32,0-.53.1-.63.29s-.11.67-.02,1.43l.03.25c.04.39.11.83.21,1.31s.23,1.05.39,1.68Z" style="fill: #fff; stroke-width: 0px;"/>
        <path d="m134.2,25.79c.64,1.79.69,3.1.12,3.87s-1.95,1.18-4.09,1.18-3.74-.4-4.78-1.18-1.72-2.08-2.11-3.87c-.38-1.72-.24-2.88.38-3.53s1.86-.96,3.76-.96,3.32.32,4.31.96c1,.65,1.8,1.81,2.42,3.53Zm-2.46-4.02l1.62.95c.68.4,1.24.87,1.67,1.42s.84,1.32,1.21,2.31c.74,1.95.76,3.47.01,4.52s-2.31,1.63-4.62,1.63c-.67,0-1.29-.07-1.87-.2s-1.07-.33-1.5-.59l-1.75-1.07c.43.23.94.39,1.54.49s1.41.15,2.43.15c2.27,0,3.74-.45,4.4-1.33s.59-2.28-.1-4.18c-.39-1.06-.81-1.89-1.29-2.52s-1.05-1.14-1.75-1.58Zm-4.99,4.03c.35,1.31.75,2.24,1.2,2.76.46.52,1.08.79,1.85.79s1.23-.27,1.39-.8.02-1.45-.39-2.75-.82-2.12-1.26-2.58-1.01-.68-1.71-.68-1.15.22-1.33.67-.1,1.31.23,2.58Zm2.8,3.07c-.56-.07-1-.31-1.34-.73s-.63-1.13-.9-2.14c-.34-1.27-.45-2.08-.34-2.47s.44-.57.99-.57c.39,0,.73.11,1.04.33s.55.53.7.92c-.23-.11-.42-.19-.58-.23s-.3-.07-.42-.07c-.32,0-.51.1-.58.29s0,.67.23,1.43l.07.25c.11.39.26.83.44,1.31s.41,1.05.68,1.68Z" style="fill: #fff; stroke-width: 0px;"/>
        <path d="m147.72,25.79c.95,1.79,1.22,3.1.78,3.87s-1.74,1.18-3.89,1.18-3.81-.4-4.98-1.18c-1.15-.77-2.07-2.08-2.78-3.87s-.74-2.88-.23-3.53,1.7-.96,3.59-.96,3.38.32,4.47.96c1.11.65,2.12,1.81,3.02,3.53Zm-3.16-4.02l1.78.95c.75.4,1.39.87,1.92,1.42s1.07,1.32,1.61,2.31c1.07,1.95,1.35,3.47.79,4.52s-2.03,1.63-4.34,1.63c-.67,0-1.3-.07-1.9-.2s-1.13-.33-1.6-.59l-1.94-1.07c.47.23,1.01.39,1.62.49s1.43.15,2.46.15c2.27,0,3.67-.45,4.17-1.33s.2-2.28-.82-4.18c-.57-1.06-1.14-1.89-1.72-2.52s-1.24-1.14-2.02-1.58Zm-4.3,4.03c.57,1.31,1.13,2.24,1.68,2.76.55.52,1.22.79,1.99.79s1.19-.27,1.25-.8-.23-1.45-.86-2.75-1.18-2.12-1.7-2.58-1.12-.68-1.83-.68-1.11.22-1.21.67.12,1.31.68,2.58Zm3.32,3.07c-.57-.07-1.06-.31-1.46-.73s-.82-1.13-1.27-2.14c-.56-1.27-.81-2.08-.77-2.47s.34-.57.89-.57c.39,0,.75.11,1.1.33s.64.53.86.92c-.25-.11-.45-.19-.62-.23s-.31-.07-.43-.07c-.32,0-.5.1-.53.29s.12.67.47,1.43l.12.25c.18.39.4.83.66,1.31s.59,1.05.97,1.68Z" style="fill: #fff; stroke-width: 0px;"/>
      </g>
    </g>
  </g>
</svg>