<?xml version="1.0" encoding="UTF-8"?>
<svg id="_图层_2" data-name="图层 2" xmlns="http://www.w3.org/2000/svg" viewBox="0 0 210.38 79.98">
  <g id="_图层_7" data-name="图层 7">
    <g>
      <g>
        <ellipse cx="104.67" cy="28.13" rx="104.37" ry="27.82" style="fill: #e61e76; stroke: #c20f68; stroke-miterlimit: 10; stroke-width: .62px;"/>
        <path d="m104.46,9.8c-36.85,0-66.72,7.99-66.72,17.85s29.87,17.85,66.72,17.85,66.72-7.99,66.72-17.85-29.87-17.85-66.72-17.85Zm.32,33.7c-33.7,0-61.02-6.99-61.02-15.62s27.32-15.62,61.02-15.62,61.02,6.99,61.02,15.62-27.32,15.62-61.02,15.62Z" style="fill: #c20f68; stroke-width: 0px;"/>
        <path d="m45.57,36.05l3.36-1.86c-1.86-1.08-3.26-2.22-4.13-3.42l-5.89.22c1.27,1.8,3.54,3.5,6.67,5.06Z" style="fill: #fff; stroke-width: 0px;"/>
        <path d="m66.71,40.09c-3.34-.68-6.39-1.45-9.11-2.3l-4.07,1.39c3.84,1.21,8.27,2.29,13.18,3.19v-2.28Z" style="fill: #fff; stroke-width: 0px;"/>
        <path d="m95.24,43.31c-4.33-.17-8.5-.46-12.48-.86l-1.8,1.91c4.86.49,10,.83,15.33,1.01l-1.05-2.06Z" style="fill: #fff; stroke-width: 0px;"/>
        <path d="m126.39,42.49c-3.96.38-8.11.67-12.4.83l-.92,2.03c5.27-.18,10.35-.53,15.17-1.02l-1.84-1.84Z" style="fill: #fff; stroke-width: 0px;"/>
        <path d="m151.47,37.94c-2.64.8-5.58,1.54-8.79,2.19v2.16c4.64-.87,8.84-1.89,12.51-3.04l-3.71-1.31Z" style="fill: #fff; stroke-width: 0px;"/>
        <path d="m164.67,30.87c.73-.97,1.12-1.97,1.12-2.99,0-8.62-27.32-15.62-61.02-15.62s-61.02,6.99-61.02,15.62,27.32,15.62,61.02,15.62c25.16,0,46.75-3.9,56.09-9.46,1.69-1.01,2.98-2.07,3.81-3.17Z" style="fill: none; stroke-width: 0px;"/>
        <path d="m160.86,34.04l2.32,2.09c3.27-1.62,5.63-3.39,6.91-5.26h-5.42c-.83,1.1-2.12,2.16-3.81,3.17Z" style="fill: #fff; stroke-width: 0px;"/>
        <path d="m167.94,22.15l-6.12.19c2.38,1.6,3.77,3.33,3.95,5.14l5.39-.25c-.15-1.77-1.27-3.48-3.22-5.09Z" style="fill: #fff; stroke-width: 0px;"/>
        <path d="m37.74,27.51l6.05-.17c.23-1.71,1.52-3.34,3.72-4.86l-6.3-.53c-2.2,1.75-3.42,3.62-3.48,5.56Z" style="fill: #fff; stroke-width: 0px;"/>
        <path d="m52.79,16.36l.31,3.22c3.5-1.42,7.87-2.69,12.93-3.76l-3.84-1.98c-3.43.75-6.58,1.6-9.4,2.52Z" style="fill: #fff; stroke-width: 0px;"/>
        <path d="m81.05,10.93l-.96,2.67c4.95-.56,10.24-.96,15.77-1.17l-1.35-2.44c-4.66.19-9.17.5-13.46.93Z" style="fill: #fff; stroke-width: 0px;"/>
        <path d="m113.96,12.45c5.57.22,10.9.62,15.87,1.2l-.46-2.56c-4.42-.48-9.07-.83-13.9-1.04-.42.67-.99,1.58-1.5,2.41Z" style="fill: #fff; stroke-width: 0px;"/>
        <path d="m143.92,15.91c5.01,1.07,9.33,2.35,12.78,3.77l.53-2.96c-2.89-1-6.16-1.91-9.76-2.72l-3.55,1.91Z" style="fill: #fff; stroke-width: 0px;"/>
        <path d="m116.14.31l-2.72,6.98s22.44.87,24.84,1.75l11.12-6.33c-10.28-1.26-21.47-2.09-33.23-2.4Z" style="fill: #fff; stroke: #c20f68; stroke-miterlimit: 10; stroke-width: .51px;"/>
        <path d="m40.54,15.82s12.3-4.31,16.18-4.31l-13.89-5.7c-8.57,1.69-16.11,3.72-22.36,6.01l20.07,4.01Z" style="fill: #fff; stroke: #c20f68; stroke-miterlimit: 10; stroke-width: .51px;"/>
        <path d="m208.53,25.48c-.87-2.68-3.19-5.26-6.76-7.66l-23.6,2.34s6.03,3.56,5.82,5.74l24.55-.42Z" style="fill: #fff; stroke: #c20f68; stroke-miterlimit: 10; stroke-width: .51px;"/>
        <path d="m170.34,41.16s-6.47,3.2-17.74,4.62l12.67,5.15c8.83-1.67,16.69-3.68,23.32-5.96l-18.25-3.8Z" style="fill: #fff; stroke: #c20f68; stroke-miterlimit: 10; stroke-width: .54px;"/>
        <path d="m72.11,48.05l-9.13,4.95c9.71,1.13,20.2,1.89,31.2,2.18l2.11-5.54c-11,.36-24.18-1.6-24.18-1.6Z" style="fill: #fff; stroke: #c20f68; stroke-miterlimit: 10; stroke-width: .51px;"/>
        <path d="m1.88,31.57c1.37,2.66,4.17,5.21,8.21,7.57l20.24-2.68-5.36-5.48-23.09.59Z" style="fill: #fff; stroke: #c20f68; stroke-miterlimit: 10; stroke-width: .51px;"/>
        <path d="m.31,28.63s2.16,26.56,107.85,26.39c105.7-.17,100.48-29.78,100.48-29.78,0,0,3.23,16.33-.01,30.29,0,0-5.56,21.08-99.54,24.15,0,0-88.75.38-108.02-23.63L.31,28.63Z" style="fill: #e61e76; stroke: #c20f68; stroke-miterlimit: 10; stroke-width: .61px;"/>
        <ellipse cx="191.57" cy="35.65" rx="1.61" ry=".48" style="fill: #fff; stroke-width: 0px;"/>
        <ellipse cx="187.09" cy="33.7" rx="1.61" ry=".48" style="fill: #fff; stroke-width: 0px;"/>
        <ellipse cx="182.66" cy="31.62" rx="1.61" ry=".48" style="fill: #fff; stroke-width: 0px;"/>
        <ellipse cx="126.42" cy="49.42" rx="1.61" ry=".48" style="fill: #fff; stroke-width: 0px;"/>
        <ellipse cx="44.15" cy="43.62" rx="1.61" ry=".48" style="fill: #fff; stroke-width: 0px;"/>
        <ellipse cx="44.25" cy="41.29" rx="1.61" ry=".48" style="fill: #fff; stroke-width: 0px;"/>
        <ellipse cx="53.19" cy="43.62" rx="1.61" ry=".48" style="fill: #fff; stroke-width: 0px;"/>
        <ellipse cx="44.15" cy="45.95" rx="1.61" ry=".48" style="fill: #fff; stroke-width: 0px;"/>
        <ellipse cx="35.21" cy="43.5" rx="1.61" ry=".48" style="fill: #fff; stroke-width: 0px;"/>
        <ellipse cx="26.82" cy="24" rx="1.61" ry=".48" style="fill: #fff; stroke-width: 0px;"/>
        <ellipse cx="30.03" cy="20.72" rx="1.61" ry=".48" style="fill: #fff; stroke-width: 0px;"/>
        <ellipse cx="17.8" cy="19.91" rx="1.61" ry=".48" style="fill: #fff; stroke-width: 0px;"/>
        <ellipse cx="14.58" cy="23.2" rx="1.61" ry=".48" style="fill: #fff; stroke-width: 0px;"/>
        <ellipse cx="75.04" cy="4.98" rx="1.61" ry=".48" style="fill: #fff; stroke-width: 0px;"/>
        <ellipse cx="76.9" cy="6.65" rx="1.61" ry=".48" style="fill: #fff; stroke-width: 0px;"/>
        <ellipse cx="78.39" cy="8.2" rx="1.61" ry=".48" style="fill: #fff; stroke-width: 0px;"/>
        <ellipse cx="87.31" cy="4.2" rx="1.61" ry=".48" style="fill: #fff; stroke-width: 0px;"/>
        <ellipse cx="89.15" cy="5.8" rx="1.61" ry=".48" style="fill: #fff; stroke-width: 0px;"/>
        <ellipse cx="90.75" cy="7.4" rx="1.61" ry=".48" style="fill: #fff; stroke-width: 0px;"/>
        <ellipse cx="174.28" cy="12.02" rx="1.61" ry=".48" style="fill: #fff; stroke-width: 0px;"/>
        <ellipse cx="156.2" cy="12.02" rx="1.61" ry=".48" style="fill: #fff; stroke-width: 0px;"/>
        <polygon points="74.32 10.3 100.84 8.68 93.66 1.62 66.02 3.51 74.32 10.3" style="fill: none; stroke: #fff; stroke-miterlimit: 10; stroke-width: .31px;"/>
        <polygon points="11.69 17.37 4.37 24.48 31.01 26.03 37.5 19.12 11.69 17.37" style="fill: none; stroke: #fff; stroke-miterlimit: 10; stroke-width: .31px;"/>
        <polygon points="23.98 43.5 44.15 38.46 62.98 43.02 44.25 48.35 23.98 43.5" style="fill: none; stroke: #fff; stroke-miterlimit: 10; stroke-width: .31px;"/>
        <polygon points="111.55 46.46 117.79 53.22 144.28 51.62 137.61 45.01 111.55 46.46" style="fill: none; stroke: #fff; stroke-miterlimit: 10; stroke-width: .31px;"/>
        <polygon points="169.78 35.65 196 37.94 202.46 30.87 176.62 29.23 169.78 35.65" style="fill: none; stroke: #fff; stroke-miterlimit: 10; stroke-width: .31px;"/>
        <polygon points="165.1 16.85 184.09 11.54 166.07 6.87 146.4 11.54 165.1 16.85" style="fill: none; stroke: #fff; stroke-miterlimit: 10; stroke-width: .31px;"/>
        <path d="m62.98,76.81c11.54,1.43,22.57,2.15,30.88,2.51v-24.45c-11.76-.28-21.99-.96-30.88-1.91v23.86Z" style="fill: #fff; stroke: #c20f68; stroke-miterlimit: 10; stroke-width: .6px;"/>
        <path d="m165.48,74.4c9.72-1.76,17.26-3.77,23.11-5.81l-.23-23.8c-5.82,2.26-13.29,4.36-22.89,6.06v23.56Z" style="fill: #fff; stroke: #c20f68; stroke-miterlimit: 10; stroke-width: .61px;"/>
        <path d="m10.07,39.44c-4.55-2.78-6.99-5.42-8.29-7.39-1.04,5.5-.02,24.68-.01,24.83,2.01,2.27,4.66,4.31,7.79,6.14-.52-10.81.35-21.71.5-23.58Z" style="fill: #fff; stroke: #c20f68; stroke-miterlimit: 10; stroke-width: .61px;"/>
      </g>
      <g>
        <path d="m61.21,28.04h3.63c-.23.46-.24.82-.03,1.08s.62.39,1.24.39,1.15-.15,1.62-.44.82-.71,1.06-1.24c.27-.58.3-1.02.08-1.3s-.66-.43-1.34-.43c-.32,0-.66.04-1,.11s-.7.18-1.08.33h-2.97l2.67-4.88h8.78l-.58,1.35h-6.1l-1.17,2.3c.58-.18,1.11-.31,1.59-.4s.92-.13,1.33-.13c1.41,0,2.41.27,3.01.8s.71,1.29.32,2.24c-.43,1.03-1.22,1.81-2.38,2.35s-2.71.81-4.59.81-3.16-.25-3.83-.74-.74-1.22-.27-2.2Zm.96-1.03h3.35c.29-.15.57-.26.85-.33s.57-.11.88-.11c.5,0,.83.09.98.27s.14.46-.04.85l-.03.07c-.15-.05-.3-.1-.47-.12s-.35-.04-.55-.04c-.18,0-.36.02-.54.05s-.36.08-.54.15l-.24-.24h-3.26l-.39-.54Zm10.43-1.63l1,1.1c.21.22.33.47.35.77s-.04.65-.21,1.06c-.49,1.23-1.49,2.27-3.01,3.1s-3.3,1.27-5.22,1.27c-.91,0-1.68-.1-2.31-.29s-1.12-.48-1.46-.87l-.73-.78c.4.28.91.47,1.53.6s1.51.18,2.64.18c2.02,0,3.7-.33,5.01-.98,1.29-.64,2.18-1.56,2.66-2.75.2-.49.28-.93.23-1.33s-.21-.75-.49-1.08Zm-5.74-.71l.62-1.23h6.13l.76-1.79.71.87-.77,1.88h-5.19c-.44,0-.84.02-1.19.07s-.71.11-1.06.2Zm-1.47,3.37l.81.9h-.16c-.34,0-.57-.08-.69-.24s-.1-.38.04-.66Z" style="fill: #fff; stroke-width: 0px;"/>
        <path d="m86.52,25.92c-.44,1.79-1.18,3.1-2.21,3.87s-2.66,1.18-4.8,1.18-3.5-.4-4.07-1.18-.47-2.08.22-3.87,1.49-2.88,2.51-3.53,2.44-.96,4.33-.96,3.13.32,3.73.96.71,1.81.29,3.53Zm-.04-4.02l1.05.95c.44.4.71.87.81,1.42s.04,1.32-.18,2.31c-.43,1.95-1.33,3.47-2.71,4.52-1.42,1.08-3.29,1.63-5.61,1.63-.67,0-1.25-.07-1.74-.2s-.87-.33-1.14-.59l-1.11-1.07c.29.23.71.39,1.24.49s1.32.15,2.34.15c2.27,0,4.01-.45,5.2-1.33s1.97-2.28,2.42-4.18c.25-1.06.33-1.89.23-2.52s-.36-1.14-.8-1.58Zm-7.42,4.03c-.45,1.31-.6,2.24-.46,2.76s.6.79,1.37.79,1.4-.27,1.87-.8.9-1.45,1.27-2.75.46-2.12.3-2.58-.6-.68-1.3-.68-1.29.22-1.73.67-.89,1.31-1.32,2.58Zm.94,3.07c-.52-.07-.82-.31-.9-.73s.05-1.13.39-2.14c.42-1.27.8-2.08,1.15-2.47s.78-.57,1.34-.57c.39,0,.67.11.84.33s.23.53.15.92c-.16-.11-.31-.19-.44-.23s-.25-.07-.38-.07c-.32,0-.57.1-.75.29s-.39.67-.64,1.43l-.08.25c-.12.39-.24.83-.36,1.31s-.23,1.05-.34,1.68Z" style="fill: #fff; stroke-width: 0px;"/>
        <path d="m100.04,25.92c-.13,1.79-.64,3.1-1.55,3.87s-2.46,1.18-4.6,1.18-3.57-.4-4.27-1.18c-.68-.77-.82-2.08-.44-3.87s1-2.88,1.9-3.53,2.27-.96,4.17-.96,3.19.32,3.89.96,1.02,1.81.9,3.53Zm-.73-4.02l1.21.95c.51.4.86.87,1.06,1.42s.27,1.32.22,2.31c-.1,1.95-.74,3.47-1.94,4.52-1.23,1.08-3.01,1.63-5.33,1.63-.67,0-1.26-.07-1.78-.2s-.93-.33-1.24-.59l-1.29-1.07c.33.23.77.39,1.33.49s1.34.15,2.37.15c2.27,0,3.94-.45,4.97-1.33s1.57-2.28,1.7-4.18c.07-1.06,0-1.89-.2-2.52s-.56-1.14-1.07-1.58Zm-6.73,4.03c-.22,1.31-.22,2.24.02,2.76s.74.79,1.51.79,1.35-.27,1.74-.8.65-1.45.8-2.75.1-2.12-.15-2.58-.71-.68-1.42-.68-1.25.22-1.61.67-.66,1.31-.88,2.58Zm1.47,3.07c-.53-.07-.87-.31-1.02-.73s-.14-1.13.02-2.14c.2-1.27.44-2.08.72-2.47s.69-.57,1.24-.57c.39,0,.68.11.9.33s.32.53.31.92c-.18-.11-.34-.19-.48-.23s-.27-.07-.39-.07c-.32,0-.55.1-.7.29s-.28.67-.39,1.43l-.04.25c-.06.39-.1.83-.13,1.31s-.05,1.05-.05,1.68Z" style="fill: #fff; stroke-width: 0px;"/>
        <path d="m102.28,33h3.13l2.31-3.98.85.86-2.46,4.36h-2.17l-1.65-1.24Zm1.57-3.98h3.21l-2.03,3.43h-2.51l1.32-3.43Z" style="fill: #fff; stroke-width: 0px;"/>
        <path d="m120.31,25.92c.33,1.79.16,3.1-.55,3.87s-2.15,1.18-4.29,1.18-3.68-.4-4.57-1.18-1.36-2.08-1.44-3.87.25-2.88.99-3.53,2.03-.96,3.92-.96,3.27.32,4.14.96c.89.65,1.49,1.81,1.81,3.53Zm-1.77-4.02l1.45.95c.61.4,1.09.87,1.42,1.42s.61,1.32.82,2.31c.4,1.95.16,3.47-.77,4.52s-2.59,1.63-4.9,1.63c-.67,0-1.28-.07-1.83-.2s-1.01-.33-1.4-.59l-1.57-1.07c.39.23.88.39,1.45.49s1.38.15,2.41.15c2.27,0,3.82-.45,4.62-1.33s.99-2.28.62-4.18c-.2-1.06-.49-1.89-.85-2.52s-.85-1.14-1.48-1.58Zm-5.69,4.03c.12,1.31.36,2.24.73,2.76s.94.79,1.71.79,1.28-.27,1.53-.8.27-1.45.09-2.75-.45-2.12-.81-2.58-.89-.68-1.59-.68-1.19.22-1.44.67-.33,1.31-.21,2.58Zm2.27,3.07c-.55-.07-.95-.31-1.21-.73s-.43-1.13-.53-2.14c-.12-1.27-.09-2.08.08-2.47s.54-.57,1.09-.57c.39,0,.71.11.99.33s.46.53.55.92c-.21-.11-.39-.19-.54-.23s-.29-.07-.41-.07c-.32,0-.53.1-.63.29s-.11.67-.02,1.43l.03.25c.04.39.11.83.21,1.31s.23,1.05.39,1.68Z" style="fill: #fff; stroke-width: 0px;"/>
        <path d="m133.83,25.92c.64,1.79.69,3.1.12,3.87s-1.95,1.18-4.09,1.18-3.74-.4-4.78-1.18-1.72-2.08-2.11-3.87c-.38-1.72-.24-2.88.38-3.53s1.86-.96,3.76-.96,3.32.32,4.31.96c1,.65,1.8,1.81,2.42,3.53Zm-2.46-4.02l1.62.95c.68.4,1.24.87,1.67,1.42s.84,1.32,1.21,2.31c.74,1.95.76,3.47.01,4.52s-2.31,1.63-4.62,1.63c-.67,0-1.29-.07-1.87-.2s-1.07-.33-1.5-.59l-1.75-1.07c.43.23.94.39,1.54.49s1.41.15,2.43.15c2.27,0,3.74-.45,4.4-1.33s.59-2.28-.1-4.18c-.39-1.06-.81-1.89-1.29-2.52s-1.05-1.14-1.75-1.58Zm-4.99,4.03c.35,1.31.75,2.24,1.2,2.76.46.52,1.08.79,1.85.79s1.23-.27,1.39-.8.02-1.45-.39-2.75-.82-2.12-1.26-2.58-1.01-.68-1.71-.68-1.15.22-1.33.67-.1,1.31.23,2.58Zm2.8,3.07c-.56-.07-1-.31-1.34-.73s-.63-1.13-.9-2.14c-.34-1.27-.45-2.08-.34-2.47s.44-.57.99-.57c.39,0,.73.11,1.04.33s.55.53.7.92c-.23-.11-.42-.19-.58-.23s-.3-.07-.42-.07c-.32,0-.51.1-.58.29s0,.67.23,1.43l.07.25c.11.39.26.83.44,1.31s.41,1.05.68,1.68Z" style="fill: #fff; stroke-width: 0px;"/>
        <path d="m147.35,25.92c.95,1.79,1.22,3.1.78,3.87s-1.74,1.18-3.89,1.18-3.81-.4-4.98-1.18c-1.15-.77-2.07-2.08-2.78-3.87s-.74-2.88-.23-3.53,1.7-.96,3.59-.96,3.38.32,4.47.96c1.11.65,2.12,1.81,3.02,3.53Zm-3.16-4.02l1.78.95c.75.4,1.39.87,1.92,1.42s1.07,1.32,1.61,2.31c1.07,1.95,1.35,3.47.79,4.52s-2.03,1.63-4.34,1.63c-.67,0-1.3-.07-1.9-.2s-1.13-.33-1.6-.59l-1.94-1.07c.47.23,1.01.39,1.62.49s1.43.15,2.46.15c2.27,0,3.67-.45,4.17-1.33s.2-2.28-.82-4.18c-.57-1.06-1.14-1.89-1.72-2.52s-1.24-1.14-2.02-1.58Zm-4.3,4.03c.57,1.31,1.13,2.24,1.68,2.76.55.52,1.22.79,1.99.79s1.19-.27,1.25-.8-.23-1.45-.86-2.75-1.18-2.12-1.7-2.58-1.12-.68-1.83-.68-1.11.22-1.21.67.12,1.31.68,2.58Zm3.32,3.07c-.57-.07-1.06-.31-1.46-.73s-.82-1.13-1.27-2.14c-.56-1.27-.81-2.08-.77-2.47s.34-.57.89-.57c.39,0,.75.11,1.1.33s.64.53.86.92c-.25-.11-.45-.19-.62-.23s-.31-.07-.43-.07c-.32,0-.5.1-.53.29s.12.67.47,1.43l.12.25c.18.39.4.83.66,1.31s.59,1.05.97,1.68Z" style="fill: #fff; stroke-width: 0px;"/>
      </g>
    </g>
  </g>
</svg>