<?xml version="1.0" encoding="UTF-8"?>
<svg id="_图层_2" data-name="图层 2" xmlns="http://www.w3.org/2000/svg" viewBox="0 0 210.38 79.93">
  <g id="_图层_7" data-name="图层 7">
    <g>
      <g>
        <ellipse cx="104.67" cy="27.8" rx="104.37" ry="27.55" style="fill: #e72914; stroke: #ca221d; stroke-miterlimit: 10; stroke-width: .51px;"/>
        <path d="m104.57,9.57c-36.85,0-66.72,8.05-66.72,17.98s29.87,17.98,66.72,17.98,66.72-8.05,66.72-17.98-29.87-17.98-66.72-17.98Zm.32,33.95c-33.7,0-61.02-7.04-61.02-15.73s27.32-15.73,61.02-15.73,61.02,7.04,61.02,15.73-27.32,15.73-61.02,15.73Z" style="fill: #ca221d; stroke-width: 0px;"/>
        <path d="m133.67,41.66c-3.74.52-7.72.94-11.88,1.25l-.3,2.04c5.15-.36,10.06-.89,14.64-1.55-.75-.53-1.66-1.17-2.46-1.74Z" style="fill: #fff; stroke-width: 0px;"/>
        <path d="m157.48,35.77c-2.44,1.07-5.36,2.05-8.67,2.94l.16,2.27c5.09-1.22,9.47-2.65,12.98-4.24l-4.46-.97Z" style="fill: #fff; stroke-width: 0px;"/>
        <path d="m43.87,27.79c0-1.24.55-2.44,1.6-3.59l-6.23-.31c-.91,1.18-1.39,2.41-1.39,3.67,0,.49.08.98.22,1.47h5.98c-.12-.41-.18-.81-.18-1.23Z" style="fill: #fff; stroke-width: 0px;"/>
        <path d="m165.88,28.28c-.21,1.79-1.58,3.5-3.92,5.08l5.48.22c2.2-1.67,3.52-3.45,3.8-5.3h-5.36Z" style="fill: #fff; stroke-width: 0px;"/>
        <path d="m163.66,19.19l-5.07,1.12c2.81,1.34,4.89,2.79,6.1,4.33l5.34-.59c-1.26-1.72-3.43-3.35-6.37-4.86Z" style="fill: #fff; stroke-width: 0px;"/>
        <path d="m136.96,14.4c5.3.85,10.06,1.89,14.12,3.11l-.17-2.9c-3.48-.91-7.32-1.71-11.46-2.4l-2.48,2.19Z" style="fill: #fff; stroke-width: 0px;"/>
        <path d="m104.67,12.06c.07,0,.14,0,.22,0,5.75,0,11.31.21,16.58.59l-.7-2.54c-4.67-.31-9.52-.5-14.52-.53l-1.57,2.49Z" style="fill: #fff; stroke-width: 0px;"/>
        <path d="m47.14,18.39l2.64,2.63c2.7-1.46,6.24-2.79,10.46-3.96l-3.82-1.96c-3.54.99-6.65,2.1-9.28,3.29Z" style="fill: #fff; stroke-width: 0px;"/>
        <path d="m72.24,11.82l-.31,2.73c4.79-.79,10.03-1.42,15.61-1.84l-1.53-2.43c-4.84.38-9.46.9-13.78,1.54Z" style="fill: #fff; stroke-width: 0px;"/>
        <path d="m103.77,43.52c-4.48-.02-8.85-.17-13.04-.42l-1.74,1.95c4.93.32,10.08.49,15.37.49l-.58-2.02Z" style="fill: #fff; stroke-width: 0px;"/>
        <path d="m72.99,41.2c-3.69-.59-7.13-1.27-10.25-2.04l-3.17,1.66c4.23,1.04,8.96,1.94,14.09,2.66l-.66-2.29Z" style="fill: #fff; stroke-width: 0px;"/>
        <path d="m49.4,37.66l2.94-1.88c-2.39-1.04-4.34-2.16-5.75-3.35l-5.5.65c1.97,1.64,4.78,3.18,8.31,4.57Z" style="fill: #fff; stroke-width: 0px;"/>
        <path d="m62.02,9.57l23.45-2.32-5.18-6.23c-10.95.69-21.23,1.84-30.53,3.36l12.26,5.2Z" style="fill: #fff; stroke: #ca221d; stroke-miterlimit: 10; stroke-width: .51px;"/>
        <path d="m154.57,3.6l-10.55,5.96s13,1.39,18.89,3.88l17.8-4.51c-7.56-2.12-16.37-3.93-26.14-5.33Z" style="fill: #fff; stroke: #ca221d; stroke-miterlimit: 10; stroke-width: .51px;"/>
        <path d="m182.63,33.59l22.04,2.12c2.84-2.5,4.37-5.16,4.37-7.91,0-.08,0-.15-.01-.22l-24.01.22s.29,3.31-2.39,5.78Z" style="fill: #fff; stroke: #ca221d; stroke-miterlimit: 10; stroke-width: .51px;"/>
        <path d="m146.99,46.27c-12.92,2.93-23.26,2.42-23.26,2.42l4.82,5.94c10.56-.65,20.5-1.73,29.56-3.16l-11.12-5.2Z" style="fill: #fff; stroke: #ca221d; stroke-miterlimit: 10; stroke-width: .51px;"/>
        <path d="m31.18,47.12c7.39,1.95,15.89,3.6,25.22,4.9l9.68-5.4c-9.26-.29-19.16-3.71-19.16-3.71l-15.74,4.21Z" style="fill: #fff; stroke: #ca221d; stroke-miterlimit: 10; stroke-width: .51px;"/>
        <path d="m.31,27.8c0,.2.01.39.03.59l24.31-.17s.24-3.86,3.3-5.91l-23.98-1.76c-2.38,2.31-3.66,4.74-3.66,7.25Z" style="fill: #fff; stroke: #ca221d; stroke-miterlimit: 10; stroke-width: .51px;"/>
        <path d="m.31,28.42s2.16,26.64,107.85,26.47c105.7-.17,100.48-29.87,100.48-29.87,0,0,3.23,16.38-.01,30.38,0,0-5.56,21.14-99.54,24.22,0,0-88.75.38-108.02-23.7L.31,28.42Z" style="fill: #fff; opacity: .5; stroke: #231815; stroke-miterlimit: 10; stroke-width: .61px;"/>
        <path d="m.31,28.42s2.16,26.64,107.85,26.47c105.7-.17,100.48-29.87,100.48-29.87,0,0,3.23,16.38-.01,30.38,0,0-5.56,21.14-99.54,24.22,0,0-88.75.38-108.02-23.7L.31,28.42Z" style="fill: #e72914; stroke: #ca221d; stroke-miterlimit: 10; stroke-width: .61px;"/>
        <path d="m55.83,52.14c-10.08-1.33-18.23-3.05-24.82-4.96-.22,1.93-.07,17.04.01,23.64,7.77,2.24,16.33,3.91,24.81,5.16v-23.83Z" style="fill: #fff; stroke: #ca221d; stroke-miterlimit: 10; stroke-width: .6px;"/>
        <polygon points="81.24 46.27 109.82 47.18 107.3 53.96 77.22 53.23 81.24 46.27" style="fill: none; stroke: #fff; stroke-miterlimit: 10; stroke-width: .16px;"/>
        <ellipse cx="101.03" cy="48.43" rx="1.61" ry=".49" style="fill: #fff; stroke-width: 0px;"/>
        <ellipse cx="99.31" cy="51.8" rx="1.61" ry=".49" style="fill: #fff; stroke-width: 0px;"/>
        <ellipse cx="93.92" cy="49.89" rx="1.61" ry=".49" style="fill: #fff; stroke-width: 0px;"/>
        <ellipse cx="88.22" cy="47.94" rx="1.61" ry=".49" style="fill: #fff; stroke-width: 0px;"/>
        <ellipse cx="86.62" cy="51.32" rx="1.61" ry=".49" style="fill: #fff; stroke-width: 0px;"/>
        <ellipse cx="29.55" cy="34.07" rx="1.61" ry=".49" style="fill: #fff; stroke-width: 0px;"/>
        <ellipse cx="34.24" cy="37.04" rx="1.61" ry=".49" style="fill: #fff; stroke-width: 0px;"/>
        <ellipse cx="22.61" cy="38.35" rx="1.61" ry=".49" style="fill: #fff; stroke-width: 0px;"/>
        <ellipse cx="17.68" cy="35.07" rx="1.61" ry=".49" style="fill: #fff; stroke-width: 0px;"/>
        <polygon points="9.4 34.07 19.29 40.93 45.01 38.35 34.76 31.21 9.4 34.07" style="fill: none; stroke: #fff; stroke-miterlimit: 10; stroke-width: .16px;"/>
        <ellipse cx="38.27" cy="16.12" rx="1.61" ry=".49" style="fill: #fff; stroke-width: 0px;"/>
        <ellipse cx="33.1" cy="15.1" rx="1.61" ry=".49" style="fill: #fff; stroke-width: 0px;"/>
        <ellipse cx="28.14" cy="14.13" rx="1.61" ry=".49" style="fill: #fff; stroke-width: 0px;"/>
        <ellipse cx="35.85" cy="11.47" rx="1.61" ry=".49" style="fill: #fff; stroke-width: 0px;"/>
        <ellipse cx="40.89" cy="12.44" rx="1.61" ry=".49" style="fill: #fff; stroke-width: 0px;"/>
        <ellipse cx="45.98" cy="13.41" rx="1.61" ry=".49" style="fill: #fff; stroke-width: 0px;"/>
        <polygon points="18.1 13.89 39.88 18.39 55.62 12.68 33.6 8.72 18.1 13.89" style="fill: none; stroke: #fff; stroke-miterlimit: 10; stroke-width: .16px;"/>
        <path d="m102.96,1.01l-3.54,6.98,27.04,1.03s3.35-6.98,3.35-7.08-26.85-.92-26.85-.92Z" style="fill: none; stroke: #fff; stroke-miterlimit: 10; stroke-width: .16px;"/>
        <ellipse cx="108.65" cy="6.6" rx="1.61" ry=".49" style="fill: #fff; stroke-width: 0px;"/>
        <ellipse cx="123.07" cy="3.68" rx="1.61" ry=".49" style="fill: #fff; stroke-width: 0px;"/>
        <ellipse cx="175.28" cy="17.99" rx="1.61" ry=".49" style="fill: #fff; stroke-width: 0px;"/>
        <ellipse cx="183.6" cy="18.68" rx="1.61" ry=".49" style="fill: #fff; stroke-width: 0px;"/>
        <ellipse cx="191.94" cy="19.68" rx="1.61" ry=".49" style="fill: #fff; stroke-width: 0px;"/>
        <polygon points="166.59 16.49 191.36 13.85 202.49 20.16 176.88 23.38 166.59 16.49" style="fill: none; stroke: #fff; stroke-miterlimit: 10; stroke-width: .16px;"/>
        <polygon points="153.14 41.57 169.65 35.77 191.67 40.15 175.4 45.77 153.14 41.57" style="fill: none; stroke: #fff; stroke-miterlimit: 10; stroke-width: .16px;"/>
        <ellipse cx="172.4" cy="41.25" rx="1.61" ry=".49" style="fill: #fff; stroke-width: 0px;"/>
        <path d="m128.81,78.61c11.33-.8,21.02-1.92,29.3-3.22v-23.67c-8.28,1.23-17.97,2.17-29.3,2.69v24.19Z" style="fill: #fff; stroke: #ca221d; stroke-miterlimit: 10; stroke-width: .61px;"/>
        <path d="m208.45,27.63c-.41,1.84-1.5,4.49-4.32,7.43.6,3.23,1.68,11.59.3,25.37,3.64-2.94,4.18-5.02,4.18-5.02.06-.25.11-.5.16-.74.13-7,.28-20.29-.33-27.04Z" style="fill: #fff; stroke: #ca221d; stroke-miterlimit: 10; stroke-width: .61px;"/>
      </g>
      <g>
        <path d="m71.54,35.62l.54-1.77c-1.79-.07-3.04-.54-3.73-1.39s-.76-1.99-.27-3.41h3.73c-.19.72-.21,1.24-.04,1.56s.52.49,1.08.51l.97-3.12c-1.7-.37-2.84-.86-3.43-1.49s-.69-1.42-.33-2.41c.38-1.07,1.14-1.92,2.27-2.56s2.43-.95,3.96-.98l.31-1.01h1.47l-.29.99c1.44.03,2.49.35,3.15.96s.9,1.49.67,2.64h-3.38c.1-.5.06-.87-.12-1.13s-.5-.39-.97-.4l-.74,2.56c1.77.4,2.97.92,3.61,1.56s.83,1.53.56,2.67c-.32,1.35-1.04,2.41-2.18,3.15s-2.71,1.19-4.68,1.3l-.51,1.75h-1.65Zm3.52-10.73l.7-2.29h-.08c-.55,0-.99.09-1.33.27s-.56.46-.68.83c-.09.29-.04.52.17.7s.61.34,1.22.48Zm-.66,6.23c.66,0,1.19-.11,1.6-.33s.66-.54.77-.97c.1-.37.04-.66-.19-.87s-.68-.42-1.37-.61l-.81,2.78Z" style="fill: #fff; stroke: #cb241c; stroke-miterlimit: 10;"/>
        <path d="m81.45,29.85l4.32-.39c.09.41.28.72.57.93s.69.32,1.17.32c.65,0,1.18-.17,1.59-.5s.66-.77.75-1.33-.02-1.02-.32-1.36-.73-.5-1.29-.5c-.34,0-.67.06-.97.18s-.58.3-.83.54l-3.86-.3,2.82-6.75h8.5l-.33,2.82h-5.96l-.71,1.75c.43-.2.88-.35,1.36-.44s1.01-.14,1.6-.14c1.41,0,2.5.36,3.27,1.09s1.12,1.74.98,3c-.17,1.59-.88,2.87-2.14,3.8s-2.97,1.44-5.06,1.44c-1.73,0-3.08-.38-4.04-1.13s-1.42-1.76-1.43-3.05Z" style="fill: #fff; stroke: #cb241c; stroke-miterlimit: 10;"/>
        <path d="m95.29,37.49l.18-2.06c.76-.11,1.32-.32,1.69-.64s.56-.76.6-1.34h-2.11l.37-4.19h4.41l-.19,4.25c-.05,1.11-.5,2.02-1.34,2.71s-2.06,1.12-3.6,1.26Z" style="fill: #fff; stroke: #cb241c; stroke-miterlimit: 10;"/>
        <path d="m102.16,26.74c.06-2.18.62-3.77,1.65-4.82s2.46-1.54,4.38-1.54,3.42.51,4.5,1.54,1.77,2.64,1.97,4.82-.17,4.08-1.17,5.34-2.66,1.95-4.86,1.95-3.85-.66-4.95-1.96-1.58-3.06-1.51-5.34Zm8.17,0c-.07-1.38-.27-2.33-.58-2.87s-.8-.8-1.48-.8-1.16.26-1.44.8-.41,1.49-.4,2.88.18,2.45.5,3.04.85.9,1.58.9,1.23-.31,1.51-.91.38-1.62.3-3.03Z" style="fill: #fff; stroke: #cb241c; stroke-miterlimit: 10;"/>
        <path d="m115.5,26.74c-.22-2.18.12-3.77,1.01-4.82s2.26-1.54,4.17-1.54,3.49.51,4.7,1.54,2.12,2.64,2.61,4.82.37,4.08-.47,5.34-2.4,1.95-4.6,1.95-3.93-.66-5.21-1.96-1.98-3.06-2.22-5.34Zm8.17,0c-.25-1.38-.57-2.33-.96-2.87s-.91-.8-1.59-.8-1.12.26-1.33.8-.22,1.49-.01,2.88.51,2.45.9,3.04.97.9,1.7.9,1.19-.31,1.39-.91.16-1.62-.1-3.03Z" style="fill: #fff; stroke: #cb241c; stroke-miterlimit: 10;"/>
        <path d="m128.83,26.74c-.51-2.18-.38-3.77.37-4.82s2.05-1.54,3.97-1.54,3.55.51,4.91,1.54,2.47,2.64,3.25,4.82.91,4.08.24,5.34-2.14,1.95-4.34,1.95-4.02-.66-5.47-1.96-2.39-3.06-2.92-5.34Zm8.17,0c-.44-1.38-.88-2.33-1.34-2.87s-1.02-.8-1.69-.8-1.09.26-1.23.8-.02,1.49.37,2.88.83,2.45,1.3,3.04,1.08.9,1.82.9,1.15-.31,1.27-.91-.05-1.62-.5-3.03Z" style="fill: #fff; stroke: #cb241c; stroke-miterlimit: 10;"/>
      </g>
    </g>
  </g>
</svg>