<?xml version="1.0" encoding="UTF-8"?>
<svg id="_图层_2" data-name="图层 2" xmlns="http://www.w3.org/2000/svg" viewBox="0 0 210.38 79.98">
  <g id="_图层_7" data-name="图层 7">
    <g>
      <g>
        <ellipse cx="104.67" cy="28.13" rx="104.37" ry="27.82" style="fill: #e72914; stroke: #ca221d; stroke-miterlimit: 10; stroke-width: .62px;"/>
        <path d="m104.46,9.8c-36.85,0-66.72,7.99-66.72,17.85s29.87,17.85,66.72,17.85,66.72-7.99,66.72-17.85-29.87-17.85-66.72-17.85Zm.32,33.7c-33.7,0-61.02-6.99-61.02-15.62s27.32-15.62,61.02-15.62,61.02,6.99,61.02,15.62-27.32,15.62-61.02,15.62Z" style="fill: #ca221d; stroke-width: 0px;"/>
        <path d="m45.57,36.05l3.36-1.86c-1.86-1.08-3.26-2.22-4.13-3.42l-5.89.22c1.27,1.8,3.54,3.5,6.67,5.06Z" style="fill: #fff; stroke-width: 0px;"/>
        <path d="m66.71,40.09c-3.34-.68-6.39-1.45-9.11-2.3l-4.07,1.39c3.84,1.21,8.27,2.29,13.18,3.19v-2.28Z" style="fill: #fff; stroke-width: 0px;"/>
        <path d="m95.24,43.31c-4.33-.17-8.5-.46-12.48-.86l-1.8,1.91c4.86.49,10,.83,15.33,1.01l-1.05-2.06Z" style="fill: #fff; stroke-width: 0px;"/>
        <path d="m126.39,42.49c-3.96.38-8.11.67-12.4.83l-.92,2.03c5.27-.18,10.35-.53,15.17-1.02l-1.84-1.84Z" style="fill: #fff; stroke-width: 0px;"/>
        <path d="m151.47,37.94c-2.64.8-5.58,1.54-8.79,2.19v2.16c4.64-.87,8.84-1.89,12.51-3.04l-3.71-1.31Z" style="fill: #fff; stroke-width: 0px;"/>
        <path d="m164.67,30.87c.73-.97,1.12-1.97,1.12-2.99,0-8.62-27.32-15.62-61.02-15.62s-61.02,6.99-61.02,15.62,27.32,15.62,61.02,15.62c25.16,0,46.75-3.9,56.09-9.46,1.69-1.01,2.98-2.07,3.81-3.17Z" style="fill: none; stroke-width: 0px;"/>
        <path d="m160.86,34.04l2.32,2.09c3.27-1.62,5.63-3.39,6.91-5.26h-5.42c-.83,1.1-2.12,2.16-3.81,3.17Z" style="fill: #fff; stroke-width: 0px;"/>
        <path d="m167.94,22.15l-6.12.19c2.38,1.6,3.77,3.33,3.95,5.14l5.39-.25c-.15-1.77-1.27-3.48-3.22-5.09Z" style="fill: #fff; stroke-width: 0px;"/>
        <path d="m37.74,27.51l6.05-.17c.23-1.71,1.52-3.34,3.72-4.86l-6.3-.53c-2.2,1.75-3.42,3.62-3.48,5.56Z" style="fill: #fff; stroke-width: 0px;"/>
        <path d="m52.79,16.36l.31,3.22c3.5-1.42,7.87-2.69,12.93-3.76l-3.84-1.98c-3.43.75-6.58,1.6-9.4,2.52Z" style="fill: #fff; stroke-width: 0px;"/>
        <path d="m81.05,10.93l-.96,2.67c4.95-.56,10.24-.96,15.77-1.17l-1.35-2.44c-4.66.19-9.17.5-13.46.93Z" style="fill: #fff; stroke-width: 0px;"/>
        <path d="m113.96,12.45c5.57.22,10.9.62,15.87,1.2l-.46-2.56c-4.42-.48-9.07-.83-13.9-1.04-.42.67-.99,1.58-1.5,2.41Z" style="fill: #fff; stroke-width: 0px;"/>
        <path d="m143.92,15.91c5.01,1.07,9.33,2.35,12.78,3.77l.53-2.96c-2.89-1-6.16-1.91-9.76-2.72l-3.55,1.91Z" style="fill: #fff; stroke-width: 0px;"/>
        <path d="m116.14.31l-2.72,6.98s22.44.87,24.84,1.75l11.12-6.33c-10.28-1.26-21.47-2.09-33.23-2.4Z" style="fill: #fff; stroke: #ca221d; stroke-miterlimit: 10; stroke-width: .51px;"/>
        <path d="m40.54,15.82s12.3-4.31,16.18-4.31l-13.89-5.7c-8.57,1.69-16.11,3.72-22.36,6.01l20.07,4.01Z" style="fill: #fff; stroke: #ca221d; stroke-miterlimit: 10; stroke-width: .51px;"/>
        <path d="m208.53,25.48c-.87-2.68-3.19-5.26-6.76-7.66l-23.6,2.34s6.03,3.56,5.82,5.74l24.55-.42Z" style="fill: #fff; stroke: #ca221d; stroke-miterlimit: 10; stroke-width: .51px;"/>
        <path d="m170.34,41.16s-6.47,3.2-17.74,4.62l12.67,5.15c8.83-1.67,16.69-3.68,23.32-5.96l-18.25-3.8Z" style="fill: #fff; stroke: #ca221d; stroke-miterlimit: 10; stroke-width: .54px;"/>
        <path d="m72.11,48.05l-9.13,4.95c9.71,1.13,20.2,1.89,31.2,2.18l2.11-5.54c-11,.36-24.18-1.6-24.18-1.6Z" style="fill: #fff; stroke: #ca221d; stroke-miterlimit: 10; stroke-width: .51px;"/>
        <path d="m1.88,31.57c1.37,2.66,4.17,5.21,8.21,7.57l20.24-2.68-5.36-5.48-23.09.59Z" style="fill: #fff; stroke: #ca221d; stroke-miterlimit: 10; stroke-width: .51px;"/>
        <path d="m.31,28.63s2.16,26.56,107.85,26.39c105.7-.17,100.48-29.78,100.48-29.78,0,0,3.23,16.33-.01,30.29,0,0-5.56,21.08-99.54,24.15,0,0-88.75.38-108.02-23.63L.31,28.63Z" style="fill: #e72914; stroke: #ca221d; stroke-miterlimit: 10; stroke-width: .61px;"/>
        <ellipse cx="191.57" cy="35.65" rx="1.61" ry=".48" style="fill: #fff; stroke-width: 0px;"/>
        <ellipse cx="187.09" cy="33.7" rx="1.61" ry=".48" style="fill: #fff; stroke-width: 0px;"/>
        <ellipse cx="182.66" cy="31.62" rx="1.61" ry=".48" style="fill: #fff; stroke-width: 0px;"/>
        <ellipse cx="126.42" cy="49.42" rx="1.61" ry=".48" style="fill: #fff; stroke-width: 0px;"/>
        <ellipse cx="44.15" cy="43.62" rx="1.61" ry=".48" style="fill: #fff; stroke-width: 0px;"/>
        <ellipse cx="44.25" cy="41.29" rx="1.61" ry=".48" style="fill: #fff; stroke-width: 0px;"/>
        <ellipse cx="53.19" cy="43.62" rx="1.61" ry=".48" style="fill: #fff; stroke-width: 0px;"/>
        <ellipse cx="44.15" cy="45.95" rx="1.61" ry=".48" style="fill: #fff; stroke-width: 0px;"/>
        <ellipse cx="35.21" cy="43.5" rx="1.61" ry=".48" style="fill: #fff; stroke-width: 0px;"/>
        <ellipse cx="26.82" cy="24" rx="1.61" ry=".48" style="fill: #fff; stroke-width: 0px;"/>
        <ellipse cx="30.03" cy="20.72" rx="1.61" ry=".48" style="fill: #fff; stroke-width: 0px;"/>
        <ellipse cx="17.8" cy="19.91" rx="1.61" ry=".48" style="fill: #fff; stroke-width: 0px;"/>
        <ellipse cx="14.58" cy="23.2" rx="1.61" ry=".48" style="fill: #fff; stroke-width: 0px;"/>
        <ellipse cx="75.04" cy="4.98" rx="1.61" ry=".48" style="fill: #fff; stroke-width: 0px;"/>
        <ellipse cx="76.9" cy="6.65" rx="1.61" ry=".48" style="fill: #fff; stroke-width: 0px;"/>
        <ellipse cx="78.39" cy="8.2" rx="1.61" ry=".48" style="fill: #fff; stroke-width: 0px;"/>
        <ellipse cx="87.31" cy="4.2" rx="1.61" ry=".48" style="fill: #fff; stroke-width: 0px;"/>
        <ellipse cx="89.15" cy="5.8" rx="1.61" ry=".48" style="fill: #fff; stroke-width: 0px;"/>
        <ellipse cx="90.75" cy="7.4" rx="1.61" ry=".48" style="fill: #fff; stroke-width: 0px;"/>
        <ellipse cx="174.28" cy="12.02" rx="1.61" ry=".48" style="fill: #fff; stroke-width: 0px;"/>
        <ellipse cx="156.2" cy="12.02" rx="1.61" ry=".48" style="fill: #fff; stroke-width: 0px;"/>
        <polygon points="74.32 10.3 100.84 8.68 93.66 1.62 66.02 3.51 74.32 10.3" style="fill: none; stroke: #fff; stroke-miterlimit: 10; stroke-width: .31px;"/>
        <polygon points="11.69 17.37 4.37 24.48 31.01 26.03 37.5 19.12 11.69 17.37" style="fill: none; stroke: #fff; stroke-miterlimit: 10; stroke-width: .31px;"/>
        <polygon points="23.98 43.5 44.15 38.46 62.98 43.02 44.25 48.35 23.98 43.5" style="fill: none; stroke: #fff; stroke-miterlimit: 10; stroke-width: .31px;"/>
        <polygon points="111.55 46.46 117.79 53.22 144.28 51.62 137.61 45.01 111.55 46.46" style="fill: none; stroke: #fff; stroke-miterlimit: 10; stroke-width: .31px;"/>
        <polygon points="169.78 35.65 196 37.94 202.46 30.87 176.62 29.23 169.78 35.65" style="fill: none; stroke: #fff; stroke-miterlimit: 10; stroke-width: .31px;"/>
        <polygon points="165.1 16.85 184.09 11.54 166.07 6.87 146.4 11.54 165.1 16.85" style="fill: none; stroke: #fff; stroke-miterlimit: 10; stroke-width: .31px;"/>
        <path d="m62.98,76.81c11.54,1.43,22.57,2.15,30.88,2.51v-24.45c-11.76-.28-21.99-.96-30.88-1.91v23.86Z" style="fill: #fff; stroke: #ca221d; stroke-miterlimit: 10; stroke-width: .6px;"/>
        <path d="m165.48,74.4c9.72-1.76,17.26-3.77,23.11-5.81l-.23-23.8c-5.82,2.26-13.29,4.36-22.89,6.06v23.56Z" style="fill: #fff; stroke: #ca221d; stroke-miterlimit: 10; stroke-width: .61px;"/>
        <path d="m10.07,39.44c-4.55-2.78-6.99-5.42-8.29-7.39-1.04,5.5-.02,24.68-.01,24.83,2.01,2.27,4.66,4.31,7.79,6.14-.52-10.81.35-21.71.5-23.58Z" style="fill: #fff; stroke: #ca221d; stroke-miterlimit: 10; stroke-width: .61px;"/>
      </g>
      <g>
        <path d="m71.11,35.92l.54-1.77c-1.79-.07-3.04-.54-3.73-1.39s-.76-1.99-.27-3.41h3.73c-.19.72-.21,1.24-.04,1.56s.52.49,1.08.51l.97-3.12c-1.7-.37-2.84-.86-3.43-1.49s-.69-1.42-.33-2.41c.38-1.07,1.14-1.92,2.27-2.56s2.43-.95,3.96-.98l.31-1.01h1.47l-.29.99c1.44.03,2.49.35,3.15.96s.9,1.49.67,2.64h-3.38c.1-.5.06-.87-.12-1.13s-.5-.39-.97-.4l-.74,2.56c1.77.4,2.97.92,3.61,1.56s.83,1.53.56,2.67c-.32,1.35-1.04,2.41-2.18,3.15s-2.71,1.19-4.68,1.3l-.51,1.75h-1.65Zm3.52-10.73l.7-2.29h-.08c-.55,0-.99.09-1.33.27s-.56.46-.68.83c-.09.29-.04.52.17.7s.61.34,1.22.48Zm-.66,6.23c.66,0,1.19-.11,1.6-.33s.66-.54.77-.97c.1-.37.04-.66-.19-.87s-.68-.42-1.37-.61l-.81,2.78Z" style="fill: #fff; stroke: #cb241c; stroke-miterlimit: 10;"/>
        <path d="m81.01,30.15l4.32-.39c.09.41.28.72.57.93s.69.32,1.17.32c.65,0,1.18-.17,1.59-.5s.66-.77.75-1.33-.02-1.02-.32-1.36-.73-.5-1.29-.5c-.34,0-.67.06-.97.18s-.58.3-.83.54l-3.86-.3,2.82-6.75h8.5l-.33,2.82h-5.96l-.71,1.75c.43-.2.88-.35,1.36-.44s1.01-.14,1.6-.14c1.41,0,2.5.36,3.27,1.09s1.12,1.74.98,3c-.17,1.59-.88,2.87-2.14,3.8s-2.97,1.44-5.06,1.44c-1.73,0-3.08-.38-4.04-1.13s-1.42-1.76-1.43-3.05Z" style="fill: #fff; stroke: #cb241c; stroke-miterlimit: 10;"/>
        <path d="m94.86,37.79l.18-2.06c.76-.11,1.32-.32,1.69-.64s.56-.76.6-1.34h-2.11l.37-4.19h4.41l-.19,4.25c-.05,1.11-.5,2.02-1.34,2.71s-2.06,1.12-3.6,1.26Z" style="fill: #fff; stroke: #cb241c; stroke-miterlimit: 10;"/>
        <path d="m101.73,27.04c.06-2.18.62-3.77,1.65-4.82s2.46-1.54,4.38-1.54,3.42.51,4.5,1.54,1.77,2.64,1.97,4.82-.17,4.08-1.17,5.34-2.66,1.95-4.86,1.95-3.85-.66-4.95-1.96-1.58-3.06-1.51-5.34Zm8.17,0c-.07-1.38-.27-2.33-.58-2.87s-.8-.8-1.48-.8-1.16.26-1.44.8-.41,1.49-.4,2.88.18,2.45.5,3.04.85.9,1.58.9,1.23-.31,1.51-.91.38-1.62.3-3.03Z" style="fill: #fff; stroke: #cb241c; stroke-miterlimit: 10;"/>
        <path d="m115.06,27.04c-.22-2.18.12-3.77,1.01-4.82s2.26-1.54,4.17-1.54,3.49.51,4.7,1.54,2.12,2.64,2.61,4.82.37,4.08-.47,5.34-2.4,1.95-4.6,1.95-3.93-.66-5.21-1.96-1.98-3.06-2.22-5.34Zm8.17,0c-.25-1.38-.57-2.33-.96-2.87s-.91-.8-1.59-.8-1.12.26-1.33.8-.22,1.49-.01,2.88.51,2.45.9,3.04.97.9,1.7.9,1.19-.31,1.39-.91.16-1.62-.1-3.03Z" style="fill: #fff; stroke: #cb241c; stroke-miterlimit: 10;"/>
        <path d="m128.39,27.04c-.51-2.18-.38-3.77.37-4.82s2.05-1.54,3.97-1.54,3.55.51,4.91,1.54,2.47,2.64,3.25,4.82.91,4.08.24,5.34-2.14,1.95-4.34,1.95-4.02-.66-5.47-1.96-2.39-3.06-2.92-5.34Zm8.17,0c-.44-1.38-.88-2.33-1.34-2.87s-1.02-.8-1.69-.8-1.09.26-1.23.8-.02,1.49.37,2.88.83,2.45,1.3,3.04,1.08.9,1.82.9,1.15-.31,1.27-.91-.05-1.62-.5-3.03Z" style="fill: #fff; stroke: #cb241c; stroke-miterlimit: 10;"/>
      </g>
    </g>
  </g>
</svg>