<?xml version="1.0" encoding="UTF-8"?>
<svg id="_图层_2" data-name="图层 2" xmlns="http://www.w3.org/2000/svg" viewBox="0 0 210.38 79.98">
  <g id="_图层_7" data-name="图层 7">
    <g>
      <g>
        <ellipse cx="104.74" cy="27.97" rx="104.43" ry="27.66" style="fill: #e72815; stroke: #cb241c; stroke-miterlimit: 10; stroke-width: .61px;"/>
        <ellipse cx="62.65" cy="47.1" rx="1.88" ry=".71" style="fill: #fff; stroke-width: 0px;"/>
        <ellipse cx="60.23" cy="44.7" rx="1.88" ry=".71" style="fill: #fff; stroke-width: 0px;"/>
        <ellipse cx="71.33" cy="46.4" rx="1.88" ry=".71" style="fill: #fff; stroke-width: 0px;"/>
        <ellipse cx="64.96" cy="49.22" rx="1.88" ry=".71" style="fill: #fff; stroke-width: 0px;"/>
        <ellipse cx="53.83" cy="47.65" rx="1.88" ry=".71" style="fill: #fff; stroke-width: 0px;"/>
        <ellipse cx="138.12" cy="9.02" rx="1.88" ry=".71" style="fill: #fff; stroke-width: 0px;"/>
        <ellipse cx="155.53" cy="7.85" rx="1.88" ry=".71" style="fill: #fff; stroke-width: 0px;"/>
        <ellipse cx="147.72" cy="46.85" rx="1.88" ry=".71" style="fill: #fff; stroke-width: 0px;"/>
        <ellipse cx="183.6" cy="26.03" rx="1.88" ry=".71" style="fill: #fff; stroke-width: 0px;"/>
        <ellipse cx="189.86" cy="27.44" rx="1.88" ry=".71" style="fill: #fff; stroke-width: 0px;"/>
        <ellipse cx="196.22" cy="29.08" rx="1.88" ry=".71" style="fill: #fff; stroke-width: 0px;"/>
        <polygon points="127.32 9.31 152.44 12.86 165.27 6.49 141.02 3.09 127.32 9.31" style="fill: none; opacity: .99; stroke: #fff; stroke-miterlimit: 10; stroke-width: .31px;"/>
        <polygon points="31.51 31.02 31.51 24.09 4.61 24.09 4.32 31.02 31.51 31.02" style="fill: none; stroke: #fff; stroke-miterlimit: 10; stroke-width: .31px;"/>
        <polygon points="142.28 50.91 167.4 48.09 154.05 42.04 129.7 45.15 142.28 50.91" style="fill: none; stroke: #fff; stroke-miterlimit: 10; stroke-width: .31px;"/>
        <polygon points="43.1 48.35 56.51 42.19 80.82 45.15 67.36 51.69 43.1 48.35" style="fill: none; stroke: #fff; stroke-miterlimit: 10; stroke-width: .31px;"/>
        <polygon points="174.42 31.29 202.26 30.95 202.26 23.8 174.42 23.8 174.42 31.29" style="fill: none; stroke: #fff; stroke-miterlimit: 10; stroke-width: .31px;"/>
        <path d="m89.06,54.27c5.12.2,10.35.3,15.68.3,5.72,0,11.34-.12,16.81-.35l-3.79-5.11h-25.46l-3.25,5.16Z" style="fill: #fff; stroke: #cb241c; stroke-miterlimit: 10; stroke-width: .61px;"/>
        <path d="m179.17,35.76c-.77,2.14-10.27,5.4-10.27,5.4l17.18,4.15c6.48-2.13,11.8-4.52,15.69-7.1l-22.6-2.45Z" style="fill: #fff; stroke: #cb241c; stroke-miterlimit: 10; stroke-width: .61px;"/>
        <path d="m31.51,20.37c.53-2.04,9.59-5.25,9.59-5.25l-18.35-4.29c-6.79,2.27-12.25,4.84-16.09,7.61l24.84,1.93Z" style="fill: #fff; stroke: #cb241c; stroke-miterlimit: 10; stroke-width: .61px;"/>
        <path d="m91.75,7.3h25.1l5.2-6.61c-5.63-.25-11.41-.38-17.31-.38s-12.16.14-18.01.41l5.03,6.58Z" style="fill: #fff; stroke: #cb241c; stroke-miterlimit: 10; stroke-width: .61px;"/>
        <path d="m186.62,10.8l-18.71,4.3c5.5.97,10.9,5,10.9,5l23.32-2.13c-3.81-2.6-9.07-5.01-15.51-7.17Z" style="fill: #fff; stroke: #cb241c; stroke-miterlimit: 10; stroke-width: .61px;"/>
        <polygon points="57.22 13.53 81.37 9.73 67.63 3.13 42.05 7 57.22 13.53" style="fill: none; stroke: #fff; stroke-miterlimit: 10; stroke-width: .31px;"/>
        <ellipse cx="63.69" cy="6.15" rx="1.7" ry=".57" style="fill: #fff; stroke-width: 0px;"/>
        <ellipse cx="66.96" cy="7.59" rx="1.7" ry=".57" style="fill: #fff; stroke-width: 0px;"/>
        <ellipse cx="70.36" cy="9.04" rx="1.7" ry=".57" style="fill: #fff; stroke-width: 0px;"/>
        <ellipse cx="59.15" cy="10.79" rx="1.7" ry=".57" style="fill: #fff; stroke-width: 0px;"/>
        <ellipse cx="56.12" cy="9.33" rx="1.7" ry=".57" style="fill: #fff; stroke-width: 0px;"/>
        <ellipse cx="52.97" cy="7.87" rx="1.7" ry=".57" style="fill: #fff; stroke-width: 0px;"/>
        <ellipse cx="25.68" cy="26.1" rx="1.88" ry=".71" style="fill: #fff; stroke-width: 0px;"/>
        <ellipse cx="25.68" cy="29.36" rx="1.88" ry=".71" style="fill: #fff; stroke-width: 0px;"/>
        <ellipse cx="13" cy="26.1" rx="1.88" ry=".71" style="fill: #fff; stroke-width: 0px;"/>
        <ellipse cx="13" cy="29.36" rx="1.88" ry=".71" style="fill: #fff; stroke-width: 0px;"/>
        <path d="m.31,28.77s2.16,26.48,107.85,26.31,100.48-29.69,100.48-29.69c0,0,3.23,16.29-.01,30.2,0,0-5.56,21.02-99.54,24.08,0,0-88.75.38-108.02-23.56L.31,28.77Z" style="fill: #e72815; stroke: #cb241c; stroke-miterlimit: 10; stroke-width: .61px;"/>
        <path d="m185.5,69.64c7.67-2.41,12.82-4.92,16.26-7.13v-24.97c-3.42,2.78-8.51,5.7-16.08,8.33l-.18,23.77Z" style="fill: #fff; stroke: #cb241c; stroke-miterlimit: 10; stroke-width: .61px;"/>
        <path d="m121.55,54.67c-4.26.12-8.71.19-13.39.2-6.79.01-13.14-.09-19.1-.29v24.51c11.89.62,20.03.59,20.03.59,4.34-.14,8.49-.32,12.46-.54v-24.47Z" style="fill: #fff; stroke: #cb241c; stroke-miterlimit: 10; stroke-width: .62px;"/>
        <path d="m7.27,37.92c4.23,2.9,10.25,5.57,17.71,7.91l16.13-4.42c-3.33-.39-10.51-5.4-10.51-5.4l-23.32,1.91Z" style="fill: #fff; stroke: #cb241c; stroke-miterlimit: 10; stroke-width: .61px;"/>
        <path d="m7.96,62.08c4.44,2.85,10.02,5.25,16.28,7.25l.24-23.45c-7.52-2.44-12.72-5.08-16.29-7.54l-.23,23.74Z" style="fill: #fff; stroke: #cb241c; stroke-miterlimit: 10; stroke-width: .61px;"/>
        <path d="m104.74,9.73c-37.18,0-67.31,7.93-67.31,17.71s30.14,17.71,67.31,17.71,67.31-7.93,67.31-17.71-30.14-17.71-67.31-17.71Zm.31,33.88c-33.39,0-60.46-7.12-60.46-15.91s27.07-15.91,60.46-15.91,60.46,7.12,60.46,15.91-27.07,15.91-60.46,15.91Z" style="fill: #cb241c; stroke-width: 0px;"/>
        <path d="m159.75,17.24l-4.88,1.45c3.39,1.3,6.08,2.73,7.9,4.26l4.34-2.17c-1.94-1.26-4.42-2.44-7.36-3.54Z" style="fill: #fff; stroke-width: 0px;"/>
        <path d="m165.51,27.7c0,.85-.26,1.68-.75,2.49l5.68,1.09c1.04-1.24,1.61-2.53,1.61-3.85,0-.48-.09-.95-.23-1.41h-6.65c.22.55.34,1.11.34,1.67Z" style="fill: #fff; stroke-width: 0px;"/>
        <path d="m159.97,34.35c-1.72.99-3.81,1.92-6.23,2.78l.54,2.3c4.64-1.33,8.51-2.84,11.45-4.5l-5.76-.58Z" style="fill: #fff; stroke-width: 0px;"/>
        <path d="m142.62,40.16c-4.04.85-8.5,1.56-13.29,2.11v1.66c5.06-.52,9.81-1.2,14.18-2.01l-.89-1.76Z" style="fill: #fff; stroke-width: 0px;"/>
        <path d="m112.12,45.05v-1.55c-2.32.07-4.68.11-7.08.11s-4.77-.04-7.1-.11l-.05,1.57c2.25.06,4.54.09,6.85.09,2.5,0,4.96-.04,7.38-.11Z" style="fill: #fff; stroke-width: 0px;"/>
        <path d="m80.82,42.28c-4.38-.5-8.49-1.14-12.25-1.89l-.93,1.83c4.1.71,8.52,1.31,13.19,1.78v-1.72Z" style="fill: #fff; stroke-width: 0px;"/>
        <path d="m56.24,37.09c-2.27-.82-4.26-1.69-5.91-2.62l-5.58,1c3.03,1.56,6.91,2.99,11.5,4.25v-2.63Z" style="fill: #fff; stroke-width: 0px;"/>
        <path d="m130.1,13.23c5.17.62,9.94,1.42,14.2,2.38v-2.49c-4.28-.82-8.93-1.51-13.89-2.05l-.31,2.16Z" style="fill: #fff; stroke-width: 0px;"/>
        <path d="m42.05,20.99l5.09,2.13c1.57-1.37,3.82-2.67,6.65-3.86l-2.67-2.53c-3.73,1.29-6.79,2.72-9.08,4.26Z" style="fill: #fff; stroke-width: 0px;"/>
        <path d="m44.59,27.7c0-.36.06-.72.15-1.08l-7.15-.38c-.1.4-.17.79-.17,1.19,0,1.41.65,2.78,1.83,4.1l6.77-.39c-.94-1.11-1.45-2.27-1.45-3.46Z" style="fill: #fff; stroke-width: 0px;"/>
        <path d="m64.69,13.21v2.65c4.3-1.01,9.15-1.87,14.43-2.53l-1.26-2.13c-4.69.54-9.11,1.21-13.17,2Z" style="fill: #fff; stroke-width: 0px;"/>
        <path d="m96.38,9.87v2.09c2.83-.11,5.72-.17,8.67-.17,2.42,0,4.8.04,7.15.11v-2.07c-2.45-.07-4.94-.11-7.46-.11-2.83,0-5.62.05-8.36.14Z" style="fill: #fff; stroke-width: 0px;"/>
      </g>
      <g>
        <path d="m69.65,27.88h4.36c-.2.55-.15.98.14,1.29s.81.46,1.55.46,1.36-.18,1.87-.53.86-.85,1.07-1.48c.22-.7.18-1.21-.12-1.55s-.86-.5-1.67-.5c-.39,0-.78.04-1.18.13s-.81.22-1.24.4h-3.56l2.42-5.75h10.45l-.46,1.58h-7.28l-1.03,2.71c.67-.21,1.28-.37,1.84-.47s1.08-.15,1.57-.15c1.69,0,2.93.31,3.74.95s1.08,1.52.77,2.66c-.33,1.22-1.15,2.16-2.45,2.8s-3.13.98-5.39.98-3.85-.3-4.73-.88-1.08-1.46-.67-2.63Zm.99-1.22h4.01c.32-.18.64-.31.97-.4s.67-.13,1.04-.13c.6,0,1.01.11,1.22.32s.25.55.1,1.01l-.03.08c-.19-.07-.38-.11-.58-.15s-.42-.05-.67-.05c-.21,0-.42.02-.64.06s-.42.1-.63.18l-.33-.28h-3.91l-.55-.64Zm12.23-1.93l1.39,1.3c.29.26.47.56.55.91s.06.77-.06,1.27c-.37,1.47-1.39,2.71-3.08,3.71s-3.77,1.53-6.09,1.53c-1.1,0-2.05-.12-2.84-.35s-1.43-.58-1.91-1.05l-1-.94c.52.33,1.17.57,1.94.72s1.85.22,3.22.22c2.44,0,4.41-.39,5.88-1.17s2.35-1.87,2.73-3.28c.15-.58.17-1.11.04-1.58s-.38-.89-.78-1.28Zm-6.99-.84l.54-1.45h7.31l.59-2.1,1,1.02-.59,2.21h-6.21c-.53,0-1,.03-1.42.08s-.83.13-1.23.24Zm-1.21,3.99l1.12,1.07h-.2c-.41,0-.7-.09-.87-.28s-.18-.45-.06-.79Z" style="fill: #fff; stroke-width: 0px;"/>
        <path d="m84.46,33.82h3.78l3.7-4.78.82,1.03-3.97,5.25h-2.63l-1.7-1.5Zm2.84-4.78h3.86l-3.23,4.12h-3.03l2.4-4.12Z" style="fill: #fff; stroke-width: 0px;"/>
        <path d="m107.73,25.36c.03,2.12-.45,3.68-1.46,4.6s-2.84,1.42-5.43,1.42-4.35-.48-5.25-1.41-1.17-2.48-.87-4.61.94-3.4,1.96-4.16,2.62-1.12,4.88-1.12,3.83.37,4.73,1.12,1.41,2.13,1.44,4.16Zm-1.29-4.74l1.54,1.11c.65.47,1.12,1.03,1.41,1.68s.46,1.56.51,2.73c.09,2.31-.51,4.14-1.84,5.4s-3.47,1.96-6.27,1.96c-.81,0-1.53-.08-2.17-.25s-1.15-.4-1.56-.71l-1.66-1.28c.42.27.97.47,1.64.59s1.63.18,2.87.18c2.74,0,4.7-.54,5.86-1.6s1.65-2.72,1.6-4.98c-.03-1.25-.2-2.24-.51-2.98s-.78-1.34-1.44-1.85Zm-7.64,4.75c-.14,1.56-.05,2.67.27,3.28s.96.94,1.89.94,1.6-.32,2.01-.95.63-1.73.69-3.27-.09-2.5-.43-3.04-.92-.8-1.76-.8-1.47.26-1.86.79-.67,1.54-.81,3.05Zm2.06,3.66c-.64-.08-1.08-.37-1.3-.87s-.28-1.35-.17-2.55c.13-1.5.34-2.46.63-2.92s.77-.67,1.42-.67c.46,0,.83.13,1.11.39s.43.62.46,1.08c-.23-.13-.42-.22-.59-.28s-.33-.08-.47-.08c-.38,0-.65.11-.81.34s-.27.79-.33,1.69l-.02.3c-.03.46-.04.98-.03,1.56s.05,1.25.11,2Z" style="fill: #fff; stroke-width: 0px;"/>
        <path d="m123.92,25.36c.44,2.12.26,3.68-.57,4.6s-2.57,1.42-5.15,1.42-4.44-.48-5.53-1.41-1.65-2.48-1.76-4.61.28-3.4,1.15-4.16,2.4-1.12,4.66-1.12,3.9.37,4.95,1.12,1.82,2.13,2.24,4.16Zm-2.21-4.74l1.75,1.11c.74.47,1.32,1.03,1.74,1.68s.77,1.56,1.04,2.73c.54,2.31.29,4.14-.8,5.4s-3.09,1.96-5.89,1.96c-.81,0-1.55-.08-2.22-.25s-1.23-.4-1.69-.71l-1.91-1.28c.47.27,1.06.47,1.76.59s1.67.18,2.91.18c2.74,0,4.6-.54,5.55-1.6s1.13-2.72.64-4.98c-.27-1.25-.63-2.24-1.08-2.98s-1.04-1.34-1.8-1.85Zm-6.73,4.75c.16,1.56.46,2.67.91,3.28s1.15.94,2.07.94,1.54-.32,1.83-.95.3-1.73.06-3.27-.58-2.5-1.02-3.04-1.07-.8-1.91-.8-1.42.26-1.71.79-.37,1.54-.22,3.05Zm2.76,3.66c-.66-.08-1.15-.37-1.47-.87s-.53-1.35-.66-2.55c-.16-1.5-.14-2.46.07-2.92s.64-.67,1.29-.67c.46,0,.85.13,1.18.39s.55.62.67,1.08c-.25-.13-.46-.22-.64-.28s-.34-.08-.49-.08c-.38,0-.63.11-.74.34s-.12.79,0,1.69l.04.3c.06.46.15.98.27,1.56s.29,1.25.49,2Z" style="fill: #fff; stroke-width: 0px;"/>
        <path d="m140.12,25.36c.85,2.12.97,3.68.32,4.6s-2.3,1.42-4.88,1.42-4.53-.48-5.8-1.41-2.13-2.48-2.65-4.61-.37-3.4.35-4.16,2.19-1.12,4.45-1.12,3.97.37,5.17,1.12,2.23,2.13,3.04,4.16Zm-3.12-4.74l1.97,1.11c.83.47,1.52,1.03,2.06,1.68s1.07,1.56,1.56,2.73c.98,2.31,1.08,4.14.24,5.4s-2.71,1.96-5.51,1.96c-.81,0-1.56-.08-2.26-.25s-1.31-.4-1.83-.71l-2.15-1.28c.53.27,1.15.47,1.87.59s1.7.18,2.94.18c2.74,0,4.5-.54,5.24-1.6s.61-2.72-.32-4.98c-.51-1.25-1.06-2.24-1.65-2.98s-1.3-1.34-2.15-1.85Zm-5.81,4.75c.46,1.56.97,2.67,1.54,3.28s1.33.94,2.25.94,1.47-.32,1.64-.95-.03-1.73-.57-3.27-1.06-2.5-1.6-3.04-1.22-.8-2.07-.8-1.37.26-1.56.79-.08,1.54.37,3.05Zm3.47,3.66c-.67-.08-1.22-.37-1.63-.87s-.79-1.35-1.16-2.55c-.45-1.5-.61-2.46-.49-2.92s.51-.67,1.16-.67c.46,0,.88.13,1.26.39s.67.62.88,1.08c-.27-.13-.51-.22-.7-.28s-.36-.08-.5-.08c-.38,0-.61.11-.68.34s.03.79.32,1.69l.1.3c.15.46.34.98.57,1.56s.53,1.25.88,2Z" style="fill: #fff; stroke-width: 0px;"/>
      </g>
    </g>
  </g>
</svg>