<?xml version="1.0" encoding="UTF-8"?>
<svg id="_图层_2" data-name="图层 2" xmlns="http://www.w3.org/2000/svg" viewBox="0 0 210.38 79.98">
  <g id="_图层_7" data-name="图层 7">
    <g>
      <g>
        <path d="m.83,28.84s2.15,26.45,107.59,26.28c105.43-.17,100.23-29.65,100.23-29.65,0,0,3.22,16.26-.01,30.16,0,0-5.55,20.99-99.29,24.05,0,0-88.53.38-107.75-23.53l-.76-27.3Z" style="fill: #e72914; stroke: #ca221d; stroke-miterlimit: 10; stroke-width: .61px;"/>
        <ellipse cx="105.45" cy="27.98" rx="103.7" ry="27.67" style="fill: #e72914; stroke: #ca221d; stroke-miterlimit: 10; stroke-width: .61px;"/>
        <rect x="90.42" y="2.11" width="27.39" height="6.98" style="fill: none; stroke: #fff; stroke-miterlimit: 10; stroke-width: .31px;"/>
        <ellipse cx="99.23" cy="4.15" rx="1.84" ry=".47" style="fill: #fff; stroke-width: 0px;"/>
        <ellipse cx="99.23" cy="5.85" rx="1.84" ry=".47" style="fill: #fff; stroke-width: 0px;"/>
        <ellipse cx="99.34" cy="7.52" rx="1.84" ry=".47" style="fill: #fff; stroke-width: 0px;"/>
        <ellipse cx="112.16" cy="3.97" rx="1.84" ry=".47" style="fill: #fff; stroke-width: 0px;"/>
        <ellipse cx="112.16" cy="5.85" rx="1.84" ry=".47" style="fill: #fff; stroke-width: 0px;"/>
        <ellipse cx="112.16" cy="7.52" rx="1.84" ry=".47" style="fill: #fff; stroke-width: 0px;"/>
        <polygon points="11.9 37.54 36.99 33.99 51.41 40.37 27.96 43.42 11.9 37.54" style="fill: none; stroke: #fff; stroke-miterlimit: 10; stroke-width: .31px;"/>
        <ellipse cx="33.89" cy="36.6" rx="1.94" ry=".57" style="fill: #fff; stroke-width: 0px;"/>
        <ellipse cx="31.34" cy="38.86" rx="1.94" ry=".57" style="fill: #fff; stroke-width: 0px;"/>
        <ellipse cx="29.04" cy="41" rx="1.94" ry=".57" style="fill: #fff; stroke-width: 0px;"/>
        <ellipse cx="22.59" cy="38.29" rx="1.94" ry=".57" style="fill: #fff; stroke-width: 0px;"/>
        <ellipse cx="40.29" cy="39.66" rx="1.94" ry=".57" style="fill: #fff; stroke-width: 0px;"/>
        <path d="m67.71,2.11l7.87,5.82s-18.3,2.19-20.61,3.46l-16.39-4.74s19.53-4.36,29.14-4.54Z" style="fill: #fff; stroke: #ca221d; stroke-miterlimit: 10; stroke-width: .61px;"/>
        <path d="m143.64,2.41l-7.87,5.82s18.3,2.19,20.61,3.46l16.39-4.74s-19.53-4.36-29.14-4.54Z" style="fill: #fff; stroke: #ca221d; stroke-miterlimit: 10; stroke-width: .61px;"/>
        <path d="m207.22,32.97l-21.97-1.05s2.04-4.28,0-7.13l23.26-.07s1.36,4.3-1.29,8.25Z" style="fill: #fff; stroke: #ca221d; stroke-miterlimit: 10; stroke-width: .62px;"/>
        <path d="m156.2,44.9c-2.55,1.15-21.77,3.23-21.77,3.23l7.63,5.31v.28c16.32-.14,24.58-2.31,28.15-3.66l-14.01-5.15Z" style="fill: #fff; stroke: #ca221d; stroke-miterlimit: 10; stroke-width: .61px;"/>
        <path d="m142.05,53.71v23.92s17.71-.83,28.54-3.82v-23.62l-.39-.14c-3.57,1.35-11.83,3.52-28.15,3.66Z" style="fill: #fff; stroke: #ca221d; stroke-miterlimit: 10; stroke-width: .61px;"/>
        <path d="m68.18,53.09v24.54c-11.08-1.2-20.52-2.92-28.5-4.86v-23.31c7.8,1.49,17.2,2.75,28.5,3.62Z" style="fill: #fff; stroke: #ca221d; stroke-miterlimit: 10; stroke-width: .61px;"/>
        <path d="m39.68,49.47h0s15.04-4.57,15.04-4.57c0,0,19.91,3.92,22,3.23,2.09-.69-8.54,4.97-8.54,4.97,0,0-23.06-2.49-28.5-3.63" style="fill: #fff; stroke: #ca221d; stroke-miterlimit: 10; stroke-width: .61px;"/>
        <path d="m3.58,32.72l22.39-1.01s-2.08-4.15,0-6.92l-23.71-.07s-1.39,4.17,1.32,8Z" style="fill: #fff; stroke: #ca221d; stroke-miterlimit: 10; stroke-width: .61px;"/>
        <path d="m2.26,24.72s-4.16,8.88-.36,31.3c0,0,.18-23.24,1.67-23.3,0,0-1.7-5.84-1.32-8Z" style="fill: #fff; stroke: #ca221d; stroke-miterlimit: 10; stroke-width: .61px;"/>
        <path d="m105.24,10.8c-37.02,0-67.02,7.69-67.02,17.17s30.01,17.17,67.02,17.17,67.02-7.69,67.02-17.17-30.01-17.17-67.02-17.17Zm.37,33.17c-34.01,0-61.58-7.18-61.58-16.04s27.57-16.04,61.58-16.04,61.58,7.18,61.58,16.04-27.57,16.04-61.58,16.04Z" style="fill: #ca221d; stroke-width: 0px;"/>
        <path d="m160.6,35.16c-1.64.84-3.55,1.64-5.71,2.39l.13,1.92c4.34-1.23,7.98-2.62,10.79-4.14l-5.21-.18Z" style="fill: #fff; stroke-width: 0px;"/>
        <path d="m167.19,28.03c0,1.12-.44,2.21-1.28,3.26l4.92.32c.93-1.14,1.43-2.32,1.43-3.54,0-.4-.06-.79-.16-1.19h-5.07c.1.38.16.76.16,1.14Z" style="fill: #fff; stroke-width: 0px;"/>
        <path d="m131.27,13.43c5.23.62,10.06,1.42,14.38,2.37l.21-1.43c-4.4-.85-9.21-1.57-14.36-2.12l-.23,1.18Z" style="fill: #fff; stroke-width: 0px;"/>
        <path d="m97.5,10.96v1.12c2.65-.09,5.36-.14,8.11-.14s5.65.05,8.39.15v-1.09c-2.87-.1-5.79-.15-8.76-.15-2.62,0-5.2.04-7.74.11Z" style="fill: #fff; stroke-width: 0px;"/>
        <path d="m159.51,17.98l-3.45.84c3.68,1.38,6.56,2.91,8.45,4.56l3.62-1.23c-2.13-1.5-5.05-2.9-8.62-4.16Z" style="fill: #fff; stroke-width: 0px;"/>
        <path d="m44.04,27.93c0-.46.08-.92.23-1.37h-5.82c-.15.47-.23.94-.23,1.41,0,1.29.56,2.54,1.61,3.75l5.55-.46c-.87-1.08-1.33-2.19-1.33-3.33Z" style="fill: #fff; stroke-width: 0px;"/>
        <path d="m56.12,37.48c-2.47-.87-4.61-1.8-6.37-2.79l-5.17.6c2.96,1.61,6.87,3.08,11.54,4.37v-2.18Z" style="fill: #fff; stroke-width: 0px;"/>
        <path d="m81.35,42.68c-4.37-.49-8.47-1.1-12.25-1.83l-1.92,1.26c4.41.78,9.2,1.43,14.28,1.92l-.11-1.36Z" style="fill: #fff; stroke-width: 0px;"/>
        <path d="m112.92,45.04v-1.18c-2.4.07-4.84.11-7.31.11s-4.8-.04-7.14-.11l-.05,1.2c2.24.06,4.51.09,6.81.09,2.6,0,5.16-.04,7.68-.11Z" style="fill: #fff; stroke-width: 0px;"/>
        <path d="m65.88,14.08l-.05,1.62c4.22-.93,8.94-1.72,14.03-2.33l-.9-1.19c-4.65.51-9.03,1.15-13.07,1.9Z" style="fill: #fff; stroke-width: 0px;"/>
        <path d="m43.73,21.14l3.19,1.93c1.75-1.44,4.26-2.78,7.4-4.01l-3.26-1.19c-2.89,1.01-5.35,2.11-7.32,3.28Z" style="fill: #fff; stroke-width: 0px;"/>
        <path d="m142.22,40.83c-3.77.73-7.87,1.34-12.23,1.83v1.27c4.77-.49,9.26-1.11,13.42-1.85l-1.2-1.26Z" style="fill: #fff; stroke-width: 0px;"/>
        <polygon points="90.44 53.37 117.8 53.09 117.8 46.15 90.44 46.15 90.44 53.37" style="fill: none; stroke: #fff; stroke-miterlimit: 10; stroke-width: .31px;"/>
        <ellipse cx="105.61" cy="49.92" rx="2.15" ry=".53" style="fill: #fff; stroke-width: 0px;"/>
        <polygon points="11.9 17.87 25.45 12.02 50.35 15.21 37.09 21.18 11.9 17.87" style="fill: none; stroke: #fff; stroke-miterlimit: 10; stroke-width: .31px;"/>
        <ellipse cx="29.03" cy="14.5" rx="1.94" ry=".57" style="fill: #fff; stroke-width: 0px;"/>
        <ellipse cx="22.77" cy="17.51" rx="1.94" ry=".57" style="fill: #fff; stroke-width: 0px;"/>
        <ellipse cx="33.89" cy="19.04" rx="1.94" ry=".57" style="fill: #fff; stroke-width: 0px;"/>
        <ellipse cx="40.16" cy="16.23" rx="1.94" ry=".57" style="fill: #fff; stroke-width: 0px;"/>
        <polygon points="175.5 21.25 199.06 17.98 186.04 11.9 160.35 14.97 175.5 21.25" style="fill: none; stroke: #fff; stroke-miterlimit: 10; stroke-width: .31px;"/>
        <ellipse cx="171.2" cy="16.24" rx="2.11" ry=".67" style="fill: #fff; stroke-width: 0px;"/>
        <ellipse cx="188.55" cy="17.49" rx="2.11" ry=".67" style="fill: #fff; stroke-width: 0px;"/>
        <polygon points="174.05 33.68 198.37 37.32 185.25 43.36 160.85 39.84 174.05 33.68" style="fill: none; stroke: #fff; stroke-miterlimit: 10; stroke-width: .31px;"/>
        <ellipse cx="177.46" cy="36.56" rx="2.15" ry=".65" style="fill: #fff; stroke-width: 0px;"/>
        <ellipse cx="179.78" cy="38.95" rx="2.15" ry=".65" style="fill: #fff; stroke-width: 0px;"/>
        <ellipse cx="182.15" cy="41.18" rx="2.15" ry=".65" style="fill: #fff; stroke-width: 0px;"/>
        <path d="m207.65,33.84s2.98-4.18,1.31,22.48c0,0,2.51-23.67.01-30.27,0,0-.54,6.72-1.32,7.79Z" style="fill: #fff; stroke: #ca221d; stroke-miterlimit: 10; stroke-width: .6px;"/>
      </g>
      <g>
        <path d="m67.35,28.11h4.36c-.2.55-.15.98.14,1.29s.81.46,1.55.46,1.36-.18,1.87-.53.86-.85,1.07-1.48c.22-.7.18-1.21-.12-1.55s-.86-.5-1.67-.5c-.39,0-.78.04-1.18.13s-.81.22-1.24.4h-3.56l2.42-5.75h10.45l-.46,1.58h-7.28l-1.03,2.71c.67-.21,1.28-.37,1.84-.47s1.08-.15,1.57-.15c1.69,0,2.93.31,3.74.95s1.08,1.52.77,2.66c-.33,1.22-1.15,2.16-2.45,2.8s-3.13.98-5.39.98-3.85-.3-4.73-.88-1.08-1.46-.67-2.63Zm.99-1.22h4.01c.32-.18.64-.31.97-.4s.67-.13,1.04-.13c.6,0,1.01.11,1.22.32s.25.55.1,1.01l-.03.08c-.19-.07-.38-.11-.58-.15s-.42-.05-.67-.05c-.21,0-.42.02-.64.06s-.42.1-.63.18l-.33-.28h-3.91l-.55-.64Zm12.23-1.93l1.39,1.3c.29.26.47.56.55.91s.06.77-.06,1.27c-.37,1.47-1.39,2.71-3.08,3.71s-3.77,1.53-6.09,1.53c-1.1,0-2.05-.12-2.84-.35s-1.43-.58-1.91-1.05l-1-.94c.52.33,1.17.57,1.94.72s1.85.22,3.22.22c2.44,0,4.41-.39,5.88-1.17s2.35-1.87,2.73-3.28c.15-.58.17-1.11.04-1.58s-.38-.89-.78-1.28Zm-6.99-.84l.54-1.45h7.31l.59-2.1,1,1.02-.59,2.21h-6.21c-.53,0-1,.03-1.42.08s-.83.13-1.23.24Zm-1.21,3.99l1.12,1.07h-.2c-.41,0-.7-.09-.87-.28s-.18-.45-.06-.79Z" style="fill: #fff; stroke-width: 0px;"/>
        <path d="m82.15,34.06h3.78l3.7-4.78.82,1.03-3.97,5.25h-2.63l-1.7-1.5Zm2.84-4.78h3.86l-3.23,4.12h-3.03l2.4-4.12Z" style="fill: #fff; stroke-width: 0px;"/>
        <path d="m105.43,25.59c.03,2.12-.45,3.68-1.46,4.6s-2.84,1.42-5.43,1.42-4.35-.48-5.25-1.41-1.17-2.48-.87-4.61.94-3.4,1.96-4.16,2.62-1.12,4.88-1.12,3.83.37,4.73,1.12,1.41,2.13,1.44,4.16Zm-1.29-4.74l1.54,1.11c.65.47,1.12,1.03,1.41,1.68s.46,1.56.51,2.73c.09,2.31-.51,4.14-1.84,5.4s-3.47,1.96-6.27,1.96c-.81,0-1.53-.08-2.17-.25s-1.15-.4-1.56-.71l-1.66-1.28c.42.27.97.47,1.64.59s1.63.18,2.87.18c2.74,0,4.7-.54,5.86-1.6s1.65-2.72,1.6-4.98c-.03-1.25-.2-2.24-.51-2.98s-.78-1.34-1.44-1.85Zm-7.64,4.75c-.14,1.56-.05,2.67.27,3.28s.96.94,1.89.94,1.6-.32,2.01-.95.63-1.73.69-3.27-.09-2.5-.43-3.04-.92-.8-1.76-.8-1.47.26-1.86.79-.67,1.54-.81,3.05Zm2.06,3.66c-.64-.08-1.08-.37-1.3-.87s-.28-1.35-.17-2.55c.13-1.5.34-2.46.63-2.92s.77-.67,1.42-.67c.46,0,.83.13,1.11.39s.43.62.46,1.08c-.23-.13-.42-.22-.59-.28s-.33-.08-.47-.08c-.38,0-.65.11-.81.34s-.27.79-.33,1.69l-.02.3c-.03.46-.04.98-.03,1.56s.05,1.25.11,2Z" style="fill: #fff; stroke-width: 0px;"/>
        <path d="m121.62,25.59c.44,2.12.26,3.68-.57,4.6s-2.57,1.42-5.15,1.42-4.44-.48-5.53-1.41-1.65-2.48-1.76-4.61.28-3.4,1.15-4.16,2.4-1.12,4.66-1.12,3.9.37,4.95,1.12,1.82,2.13,2.24,4.16Zm-2.21-4.74l1.75,1.11c.74.47,1.32,1.03,1.74,1.68s.77,1.56,1.04,2.73c.54,2.31.29,4.14-.8,5.4s-3.09,1.96-5.89,1.96c-.81,0-1.55-.08-2.22-.25s-1.23-.4-1.69-.71l-1.91-1.28c.47.27,1.06.47,1.76.59s1.67.18,2.91.18c2.74,0,4.6-.54,5.55-1.6s1.13-2.72.64-4.98c-.27-1.25-.63-2.24-1.08-2.98s-1.04-1.34-1.8-1.85Zm-6.73,4.75c.16,1.56.46,2.67.91,3.28s1.15.94,2.07.94,1.54-.32,1.83-.95.3-1.73.06-3.27-.58-2.5-1.02-3.04-1.07-.8-1.91-.8-1.42.26-1.71.79-.37,1.54-.22,3.05Zm2.76,3.66c-.66-.08-1.15-.37-1.47-.87s-.53-1.35-.66-2.55c-.16-1.5-.14-2.46.07-2.92s.64-.67,1.29-.67c.46,0,.85.13,1.18.39s.55.62.67,1.08c-.25-.13-.46-.22-.64-.28s-.34-.08-.49-.08c-.38,0-.63.11-.74.34s-.12.79,0,1.69l.04.3c.06.46.15.98.27,1.56s.29,1.25.49,2Z" style="fill: #fff; stroke-width: 0px;"/>
        <path d="m137.81,25.59c.85,2.12.97,3.68.32,4.6s-2.3,1.42-4.88,1.42-4.53-.48-5.8-1.41-2.13-2.48-2.65-4.61-.37-3.4.35-4.16,2.19-1.12,4.45-1.12,3.97.37,5.17,1.12,2.23,2.13,3.04,4.16Zm-3.12-4.74l1.97,1.11c.83.47,1.52,1.03,2.06,1.68s1.07,1.56,1.56,2.73c.98,2.31,1.08,4.14.24,5.4s-2.71,1.96-5.51,1.96c-.81,0-1.56-.08-2.26-.25s-1.31-.4-1.83-.71l-2.15-1.28c.53.27,1.15.47,1.87.59s1.7.18,2.94.18c2.74,0,4.5-.54,5.24-1.6s.61-2.72-.32-4.98c-.51-1.25-1.06-2.24-1.65-2.98s-1.3-1.34-2.15-1.85Zm-5.81,4.75c.46,1.56.97,2.67,1.54,3.28s1.33.94,2.25.94,1.47-.32,1.64-.95-.03-1.73-.57-3.27-1.06-2.5-1.6-3.04-1.22-.8-2.07-.8-1.37.26-1.56.79-.08,1.54.37,3.05Zm3.47,3.66c-.67-.08-1.22-.37-1.63-.87s-.79-1.35-1.16-2.55c-.45-1.5-.61-2.46-.49-2.92s.51-.67,1.16-.67c.46,0,.88.13,1.26.39s.67.62.88,1.08c-.27-.13-.51-.22-.7-.28s-.36-.08-.5-.08c-.38,0-.61.11-.68.34s.03.79.32,1.69l.1.3c.15.46.34.98.57,1.56s.53,1.25.88,2Z" style="fill: #fff; stroke-width: 0px;"/>
      </g>
    </g>
  </g>
</svg>