<?xml version="1.0" encoding="UTF-8"?>
<svg id="_图层_2" data-name="图层 2" xmlns="http://www.w3.org/2000/svg" viewBox="0 0 210.38 79.93">
  <g id="_图层_7" data-name="图层 7">
    <g>
      <g>
        <ellipse cx="104.67" cy="27.8" rx="104.37" ry="27.55" style="fill: #e72914; stroke: #ca221d; stroke-miterlimit: 10; stroke-width: .51px;"/>
        <path d="m104.57,9.57c-36.85,0-66.72,8.05-66.72,17.98s29.87,17.98,66.72,17.98,66.72-8.05,66.72-17.98-29.87-17.98-66.72-17.98Zm.32,33.95c-33.7,0-61.02-7.04-61.02-15.73s27.32-15.73,61.02-15.73,61.02,7.04,61.02,15.73-27.32,15.73-61.02,15.73Z" style="fill: #ca221d; stroke-width: 0px;"/>
        <path d="m133.67,41.66c-3.74.52-7.72.94-11.88,1.25l-.3,2.04c5.15-.36,10.06-.89,14.64-1.55-.75-.53-1.66-1.17-2.46-1.74Z" style="fill: #fff; stroke-width: 0px;"/>
        <path d="m157.48,35.77c-2.44,1.07-5.36,2.05-8.67,2.94l.16,2.27c5.09-1.22,9.47-2.65,12.98-4.24l-4.46-.97Z" style="fill: #fff; stroke-width: 0px;"/>
        <path d="m43.87,27.79c0-1.24.55-2.44,1.6-3.59l-6.23-.31c-.91,1.18-1.39,2.41-1.39,3.67,0,.49.08.98.22,1.47h5.98c-.12-.41-.18-.81-.18-1.23Z" style="fill: #fff; stroke-width: 0px;"/>
        <path d="m165.88,28.28c-.21,1.79-1.58,3.5-3.92,5.08l5.48.22c2.2-1.67,3.52-3.45,3.8-5.3h-5.36Z" style="fill: #fff; stroke-width: 0px;"/>
        <path d="m163.66,19.19l-5.07,1.12c2.81,1.34,4.89,2.79,6.1,4.33l5.34-.59c-1.26-1.72-3.43-3.35-6.37-4.86Z" style="fill: #fff; stroke-width: 0px;"/>
        <path d="m136.96,14.4c5.3.85,10.06,1.89,14.12,3.11l-.17-2.9c-3.48-.91-7.32-1.71-11.46-2.4l-2.48,2.19Z" style="fill: #fff; stroke-width: 0px;"/>
        <path d="m104.67,12.06c.07,0,.14,0,.22,0,5.75,0,11.31.21,16.58.59l-.7-2.54c-4.67-.31-9.52-.5-14.52-.53l-1.57,2.49Z" style="fill: #fff; stroke-width: 0px;"/>
        <path d="m47.14,18.39l2.64,2.63c2.7-1.46,6.24-2.79,10.46-3.96l-3.82-1.96c-3.54.99-6.65,2.1-9.28,3.29Z" style="fill: #fff; stroke-width: 0px;"/>
        <path d="m72.24,11.82l-.31,2.73c4.79-.79,10.03-1.42,15.61-1.84l-1.53-2.43c-4.84.38-9.46.9-13.78,1.54Z" style="fill: #fff; stroke-width: 0px;"/>
        <path d="m103.77,43.52c-4.48-.02-8.85-.17-13.04-.42l-1.74,1.95c4.93.32,10.08.49,15.37.49l-.58-2.02Z" style="fill: #fff; stroke-width: 0px;"/>
        <path d="m72.99,41.2c-3.69-.59-7.13-1.27-10.25-2.04l-3.17,1.66c4.23,1.04,8.96,1.94,14.09,2.66l-.66-2.29Z" style="fill: #fff; stroke-width: 0px;"/>
        <path d="m49.4,37.66l2.94-1.88c-2.39-1.04-4.34-2.16-5.75-3.35l-5.5.65c1.97,1.64,4.78,3.18,8.31,4.57Z" style="fill: #fff; stroke-width: 0px;"/>
        <path d="m62.02,9.57l23.45-2.32-5.18-6.23c-10.95.69-21.23,1.84-30.53,3.36l12.26,5.2Z" style="fill: #fff; stroke: #ca221d; stroke-miterlimit: 10; stroke-width: .51px;"/>
        <path d="m154.57,3.6l-10.55,5.96s13,1.39,18.89,3.88l17.8-4.51c-7.56-2.12-16.37-3.93-26.14-5.33Z" style="fill: #fff; stroke: #ca221d; stroke-miterlimit: 10; stroke-width: .51px;"/>
        <path d="m182.63,33.59l22.04,2.12c2.84-2.5,4.37-5.16,4.37-7.91,0-.08,0-.15-.01-.22l-24.01.22s.29,3.31-2.39,5.78Z" style="fill: #fff; stroke: #ca221d; stroke-miterlimit: 10; stroke-width: .51px;"/>
        <path d="m146.99,46.27c-12.92,2.93-23.26,2.42-23.26,2.42l4.82,5.94c10.56-.65,20.5-1.73,29.56-3.16l-11.12-5.2Z" style="fill: #fff; stroke: #ca221d; stroke-miterlimit: 10; stroke-width: .51px;"/>
        <path d="m31.18,47.12c7.39,1.95,15.89,3.6,25.22,4.9l9.68-5.4c-9.26-.29-19.16-3.71-19.16-3.71l-15.74,4.21Z" style="fill: #fff; stroke: #ca221d; stroke-miterlimit: 10; stroke-width: .51px;"/>
        <path d="m.31,27.8c0,.2.01.39.03.59l24.31-.17s.24-3.86,3.3-5.91l-23.98-1.76c-2.38,2.31-3.66,4.74-3.66,7.25Z" style="fill: #fff; stroke: #ca221d; stroke-miterlimit: 10; stroke-width: .51px;"/>
        <path d="m.31,28.42s2.16,26.64,107.85,26.47c105.7-.17,100.48-29.87,100.48-29.87,0,0,3.23,16.38-.01,30.38,0,0-5.56,21.14-99.54,24.22,0,0-88.75.38-108.02-23.7L.31,28.42Z" style="fill: #fff; opacity: .5; stroke: #231815; stroke-miterlimit: 10; stroke-width: .61px;"/>
        <path d="m.31,28.42s2.16,26.64,107.85,26.47c105.7-.17,100.48-29.87,100.48-29.87,0,0,3.23,16.38-.01,30.38,0,0-5.56,21.14-99.54,24.22,0,0-88.75.38-108.02-23.7L.31,28.42Z" style="fill: #e72914; stroke: #ca221d; stroke-miterlimit: 10; stroke-width: .61px;"/>
        <path d="m55.83,52.14c-10.08-1.33-18.23-3.05-24.82-4.96-.22,1.93-.07,17.04.01,23.64,7.77,2.24,16.33,3.91,24.81,5.16v-23.83Z" style="fill: #fff; stroke: #ca221d; stroke-miterlimit: 10; stroke-width: .6px;"/>
        <polygon points="81.24 46.27 109.82 47.18 107.3 53.96 77.22 53.23 81.24 46.27" style="fill: none; stroke: #fff; stroke-miterlimit: 10; stroke-width: .16px;"/>
        <ellipse cx="101.03" cy="48.43" rx="1.61" ry=".49" style="fill: #fff; stroke-width: 0px;"/>
        <ellipse cx="99.31" cy="51.8" rx="1.61" ry=".49" style="fill: #fff; stroke-width: 0px;"/>
        <ellipse cx="93.92" cy="49.89" rx="1.61" ry=".49" style="fill: #fff; stroke-width: 0px;"/>
        <ellipse cx="88.22" cy="47.94" rx="1.61" ry=".49" style="fill: #fff; stroke-width: 0px;"/>
        <ellipse cx="86.62" cy="51.32" rx="1.61" ry=".49" style="fill: #fff; stroke-width: 0px;"/>
        <ellipse cx="29.55" cy="34.07" rx="1.61" ry=".49" style="fill: #fff; stroke-width: 0px;"/>
        <ellipse cx="34.24" cy="37.04" rx="1.61" ry=".49" style="fill: #fff; stroke-width: 0px;"/>
        <ellipse cx="22.61" cy="38.35" rx="1.61" ry=".49" style="fill: #fff; stroke-width: 0px;"/>
        <ellipse cx="17.68" cy="35.07" rx="1.61" ry=".49" style="fill: #fff; stroke-width: 0px;"/>
        <polygon points="9.4 34.07 19.29 40.93 45.01 38.35 34.76 31.21 9.4 34.07" style="fill: none; stroke: #fff; stroke-miterlimit: 10; stroke-width: .16px;"/>
        <ellipse cx="38.27" cy="16.12" rx="1.61" ry=".49" style="fill: #fff; stroke-width: 0px;"/>
        <ellipse cx="33.1" cy="15.1" rx="1.61" ry=".49" style="fill: #fff; stroke-width: 0px;"/>
        <ellipse cx="28.14" cy="14.13" rx="1.61" ry=".49" style="fill: #fff; stroke-width: 0px;"/>
        <ellipse cx="35.85" cy="11.47" rx="1.61" ry=".49" style="fill: #fff; stroke-width: 0px;"/>
        <ellipse cx="40.89" cy="12.44" rx="1.61" ry=".49" style="fill: #fff; stroke-width: 0px;"/>
        <ellipse cx="45.98" cy="13.41" rx="1.61" ry=".49" style="fill: #fff; stroke-width: 0px;"/>
        <polygon points="18.1 13.89 39.88 18.39 55.62 12.68 33.6 8.72 18.1 13.89" style="fill: none; stroke: #fff; stroke-miterlimit: 10; stroke-width: .16px;"/>
        <path d="m102.96,1.01l-3.54,6.98,27.04,1.03s3.35-6.98,3.35-7.08-26.85-.92-26.85-.92Z" style="fill: none; stroke: #fff; stroke-miterlimit: 10; stroke-width: .16px;"/>
        <ellipse cx="108.65" cy="6.6" rx="1.61" ry=".49" style="fill: #fff; stroke-width: 0px;"/>
        <ellipse cx="123.07" cy="3.68" rx="1.61" ry=".49" style="fill: #fff; stroke-width: 0px;"/>
        <ellipse cx="175.28" cy="17.99" rx="1.61" ry=".49" style="fill: #fff; stroke-width: 0px;"/>
        <ellipse cx="183.6" cy="18.68" rx="1.61" ry=".49" style="fill: #fff; stroke-width: 0px;"/>
        <ellipse cx="191.94" cy="19.68" rx="1.61" ry=".49" style="fill: #fff; stroke-width: 0px;"/>
        <polygon points="166.59 16.49 191.36 13.85 202.49 20.16 176.88 23.38 166.59 16.49" style="fill: none; stroke: #fff; stroke-miterlimit: 10; stroke-width: .16px;"/>
        <polygon points="153.14 41.57 169.65 35.77 191.67 40.15 175.4 45.77 153.14 41.57" style="fill: none; stroke: #fff; stroke-miterlimit: 10; stroke-width: .16px;"/>
        <ellipse cx="172.4" cy="41.25" rx="1.61" ry=".49" style="fill: #fff; stroke-width: 0px;"/>
        <path d="m128.81,78.61c11.33-.8,21.02-1.92,29.3-3.22v-23.67c-8.28,1.23-17.97,2.17-29.3,2.69v24.19Z" style="fill: #fff; stroke: #ca221d; stroke-miterlimit: 10; stroke-width: .61px;"/>
        <path d="m208.45,27.63c-.41,1.84-1.5,4.49-4.32,7.43.6,3.23,1.68,11.59.3,25.37,3.64-2.94,4.18-5.02,4.18-5.02.06-.25.11-.5.16-.74.13-7,.28-20.29-.33-27.04Z" style="fill: #fff; stroke: #ca221d; stroke-miterlimit: 10; stroke-width: .61px;"/>
      </g>
      <g>
        <path d="m68.42,28.57h4.36c-.2.55-.15.98.14,1.29s.81.46,1.55.46,1.36-.18,1.87-.53.86-.85,1.07-1.48c.22-.7.18-1.21-.12-1.55s-.86-.5-1.67-.5c-.39,0-.78.04-1.18.13s-.81.22-1.24.4h-3.56l2.42-5.75h10.45l-.46,1.58h-7.28l-1.03,2.71c.67-.21,1.28-.37,1.84-.47s1.08-.15,1.57-.15c1.69,0,2.93.31,3.74.95s1.08,1.52.77,2.66c-.33,1.22-1.15,2.16-2.45,2.8s-3.13.98-5.39.98-3.85-.3-4.73-.88-1.08-1.46-.67-2.63Zm.99-1.22h4.01c.32-.18.64-.31.97-.4s.67-.13,1.04-.13c.6,0,1.01.11,1.22.32s.25.55.1,1.01l-.03.08c-.19-.07-.38-.11-.58-.15s-.42-.05-.67-.05c-.21,0-.42.02-.64.06s-.42.1-.63.18l-.33-.28h-3.91l-.55-.64Zm12.23-1.93l1.39,1.3c.29.26.47.56.55.91s.06.77-.06,1.27c-.37,1.47-1.39,2.71-3.08,3.71s-3.77,1.53-6.09,1.53c-1.1,0-2.05-.12-2.84-.35s-1.43-.58-1.91-1.05l-1-.94c.52.33,1.17.57,1.94.72s1.85.22,3.22.22c2.44,0,4.41-.39,5.88-1.17s2.35-1.87,2.73-3.28c.15-.58.17-1.11.04-1.58s-.38-.89-.78-1.28Zm-6.99-.84l.54-1.45h7.31l.59-2.1,1,1.02-.59,2.21h-6.21c-.53,0-1,.03-1.42.08s-.83.13-1.23.24Zm-1.21,3.99l1.12,1.07h-.2c-.41,0-.7-.09-.87-.28s-.18-.45-.06-.79Z" style="fill: #fff; stroke-width: 0px;"/>
        <path d="m83.23,34.52h3.78l3.7-4.78.82,1.03-3.97,5.25h-2.63l-1.7-1.5Zm2.84-4.78h3.86l-3.23,4.12h-3.03l2.4-4.12Z" style="fill: #fff; stroke-width: 0px;"/>
        <path d="m106.5,26.05c.03,2.12-.45,3.68-1.46,4.6s-2.84,1.42-5.43,1.42-4.35-.48-5.25-1.41-1.17-2.48-.87-4.61.94-3.4,1.96-4.16,2.62-1.12,4.88-1.12,3.83.37,4.73,1.12,1.41,2.13,1.44,4.16Zm-1.29-4.74l1.54,1.11c.65.47,1.12,1.03,1.41,1.68s.46,1.56.51,2.73c.09,2.31-.51,4.14-1.84,5.4s-3.47,1.96-6.27,1.96c-.81,0-1.53-.08-2.17-.25s-1.15-.4-1.56-.71l-1.66-1.28c.42.27.97.47,1.64.59s1.63.18,2.87.18c2.74,0,4.7-.54,5.86-1.6s1.65-2.72,1.6-4.98c-.03-1.25-.2-2.24-.51-2.98s-.78-1.34-1.44-1.85Zm-7.64,4.75c-.14,1.56-.05,2.67.27,3.28s.96.94,1.89.94,1.6-.32,2.01-.95.63-1.73.69-3.27-.09-2.5-.43-3.04-.92-.8-1.76-.8-1.47.26-1.86.79-.67,1.54-.81,3.05Zm2.06,3.66c-.64-.08-1.08-.37-1.3-.87s-.28-1.35-.17-2.55c.13-1.5.34-2.46.63-2.92s.77-.67,1.42-.67c.46,0,.83.13,1.11.39s.43.62.46,1.08c-.23-.13-.42-.22-.59-.28s-.33-.08-.47-.08c-.38,0-.65.11-.81.34s-.27.79-.33,1.69l-.02.3c-.03.46-.04.98-.03,1.56s.05,1.25.11,2Z" style="fill: #fff; stroke-width: 0px;"/>
        <path d="m122.69,26.05c.44,2.12.26,3.68-.57,4.6s-2.57,1.42-5.15,1.42-4.44-.48-5.53-1.41-1.65-2.48-1.76-4.61.28-3.4,1.15-4.16,2.4-1.12,4.66-1.12,3.9.37,4.95,1.12,1.82,2.13,2.24,4.16Zm-2.21-4.74l1.75,1.11c.74.47,1.32,1.03,1.74,1.68s.77,1.56,1.04,2.73c.54,2.31.29,4.14-.8,5.4s-3.09,1.96-5.89,1.96c-.81,0-1.55-.08-2.22-.25s-1.23-.4-1.69-.71l-1.91-1.28c.47.27,1.06.47,1.76.59s1.67.18,2.91.18c2.74,0,4.6-.54,5.55-1.6s1.13-2.72.64-4.98c-.27-1.25-.63-2.24-1.08-2.98s-1.04-1.34-1.8-1.85Zm-6.73,4.75c.16,1.56.46,2.67.91,3.28s1.15.94,2.07.94,1.54-.32,1.83-.95.3-1.73.06-3.27-.58-2.5-1.02-3.04-1.07-.8-1.91-.8-1.42.26-1.71.79-.37,1.54-.22,3.05Zm2.76,3.66c-.66-.08-1.15-.37-1.47-.87s-.53-1.35-.66-2.55c-.16-1.5-.14-2.46.07-2.92s.64-.67,1.29-.67c.46,0,.85.13,1.18.39s.55.62.67,1.08c-.25-.13-.46-.22-.64-.28s-.34-.08-.49-.08c-.38,0-.63.11-.74.34s-.12.79,0,1.69l.04.3c.06.46.15.98.27,1.56s.29,1.25.49,2Z" style="fill: #fff; stroke-width: 0px;"/>
        <path d="m138.88,26.05c.85,2.12.97,3.68.32,4.6s-2.3,1.42-4.88,1.42-4.53-.48-5.8-1.41-2.13-2.48-2.65-4.61-.37-3.4.35-4.16,2.19-1.12,4.45-1.12,3.97.37,5.17,1.12,2.23,2.13,3.04,4.16Zm-3.12-4.74l1.97,1.11c.83.47,1.52,1.03,2.06,1.68s1.07,1.56,1.56,2.73c.98,2.31,1.08,4.14.24,5.4s-2.71,1.96-5.51,1.96c-.81,0-1.56-.08-2.26-.25s-1.31-.4-1.83-.71l-2.15-1.28c.53.27,1.15.47,1.87.59s1.7.18,2.94.18c2.74,0,4.5-.54,5.24-1.6s.61-2.72-.32-4.98c-.51-1.25-1.06-2.24-1.65-2.98s-1.3-1.34-2.15-1.85Zm-5.81,4.75c.46,1.56.97,2.67,1.54,3.28s1.33.94,2.25.94,1.47-.32,1.64-.95-.03-1.73-.57-3.27-1.06-2.5-1.6-3.04-1.22-.8-2.07-.8-1.37.26-1.56.79-.08,1.54.37,3.05Zm3.47,3.66c-.67-.08-1.22-.37-1.63-.87s-.79-1.35-1.16-2.55c-.45-1.5-.61-2.46-.49-2.92s.51-.67,1.16-.67c.46,0,.88.13,1.26.39s.67.62.88,1.08c-.27-.13-.51-.22-.7-.28s-.36-.08-.5-.08c-.38,0-.61.11-.68.34s.03.79.32,1.69l.1.3c.15.46.34.98.57,1.56s.53,1.25.88,2Z" style="fill: #fff; stroke-width: 0px;"/>
      </g>
    </g>
  </g>
</svg>