<?xml version="1.0" encoding="UTF-8"?>
<svg id="_图层_2" data-name="图层 2" xmlns="http://www.w3.org/2000/svg" viewBox="0 0 210.38 79.98">
  <g id="_图层_7" data-name="图层 7">
    <g>
      <g>
        <ellipse cx="104.67" cy="28.13" rx="104.37" ry="27.82" style="fill: #e72914; stroke: #ca221d; stroke-miterlimit: 10; stroke-width: .62px;"/>
        <path d="m104.46,9.8c-36.85,0-66.72,7.99-66.72,17.85s29.87,17.85,66.72,17.85,66.72-7.99,66.72-17.85-29.87-17.85-66.72-17.85Zm.32,33.7c-33.7,0-61.02-6.99-61.02-15.62s27.32-15.62,61.02-15.62,61.02,6.99,61.02,15.62-27.32,15.62-61.02,15.62Z" style="fill: #ca221d; stroke-width: 0px;"/>
        <path d="m45.57,36.05l3.36-1.86c-1.86-1.08-3.26-2.22-4.13-3.42l-5.89.22c1.27,1.8,3.54,3.5,6.67,5.06Z" style="fill: #fff; stroke-width: 0px;"/>
        <path d="m66.71,40.09c-3.34-.68-6.39-1.45-9.11-2.3l-4.07,1.39c3.84,1.21,8.27,2.29,13.18,3.19v-2.28Z" style="fill: #fff; stroke-width: 0px;"/>
        <path d="m95.24,43.31c-4.33-.17-8.5-.46-12.48-.86l-1.8,1.91c4.86.49,10,.83,15.33,1.01l-1.05-2.06Z" style="fill: #fff; stroke-width: 0px;"/>
        <path d="m126.39,42.49c-3.96.38-8.11.67-12.4.83l-.92,2.03c5.27-.18,10.35-.53,15.17-1.02l-1.84-1.84Z" style="fill: #fff; stroke-width: 0px;"/>
        <path d="m151.47,37.94c-2.64.8-5.58,1.54-8.79,2.19v2.16c4.64-.87,8.84-1.89,12.51-3.04l-3.71-1.31Z" style="fill: #fff; stroke-width: 0px;"/>
        <path d="m164.67,30.87c.73-.97,1.12-1.97,1.12-2.99,0-8.62-27.32-15.62-61.02-15.62s-61.02,6.99-61.02,15.62,27.32,15.62,61.02,15.62c25.16,0,46.75-3.9,56.09-9.46,1.69-1.01,2.98-2.07,3.81-3.17Z" style="fill: none; stroke-width: 0px;"/>
        <path d="m160.86,34.04l2.32,2.09c3.27-1.62,5.63-3.39,6.91-5.26h-5.42c-.83,1.1-2.12,2.16-3.81,3.17Z" style="fill: #fff; stroke-width: 0px;"/>
        <path d="m167.94,22.15l-6.12.19c2.38,1.6,3.77,3.33,3.95,5.14l5.39-.25c-.15-1.77-1.27-3.48-3.22-5.09Z" style="fill: #fff; stroke-width: 0px;"/>
        <path d="m37.74,27.51l6.05-.17c.23-1.71,1.52-3.34,3.72-4.86l-6.3-.53c-2.2,1.75-3.42,3.62-3.48,5.56Z" style="fill: #fff; stroke-width: 0px;"/>
        <path d="m52.79,16.36l.31,3.22c3.5-1.42,7.87-2.69,12.93-3.76l-3.84-1.98c-3.43.75-6.58,1.6-9.4,2.52Z" style="fill: #fff; stroke-width: 0px;"/>
        <path d="m81.05,10.93l-.96,2.67c4.95-.56,10.24-.96,15.77-1.17l-1.35-2.44c-4.66.19-9.17.5-13.46.93Z" style="fill: #fff; stroke-width: 0px;"/>
        <path d="m113.96,12.45c5.57.22,10.9.62,15.87,1.2l-.46-2.56c-4.42-.48-9.07-.83-13.9-1.04-.42.67-.99,1.58-1.5,2.41Z" style="fill: #fff; stroke-width: 0px;"/>
        <path d="m143.92,15.91c5.01,1.07,9.33,2.35,12.78,3.77l.53-2.96c-2.89-1-6.16-1.91-9.76-2.72l-3.55,1.91Z" style="fill: #fff; stroke-width: 0px;"/>
        <path d="m116.14.31l-2.72,6.98s22.44.87,24.84,1.75l11.12-6.33c-10.28-1.26-21.47-2.09-33.23-2.4Z" style="fill: #fff; stroke: #ca221d; stroke-miterlimit: 10; stroke-width: .51px;"/>
        <path d="m40.54,15.82s12.3-4.31,16.18-4.31l-13.89-5.7c-8.57,1.69-16.11,3.72-22.36,6.01l20.07,4.01Z" style="fill: #fff; stroke: #ca221d; stroke-miterlimit: 10; stroke-width: .51px;"/>
        <path d="m208.53,25.48c-.87-2.68-3.19-5.26-6.76-7.66l-23.6,2.34s6.03,3.56,5.82,5.74l24.55-.42Z" style="fill: #fff; stroke: #ca221d; stroke-miterlimit: 10; stroke-width: .51px;"/>
        <path d="m170.34,41.16s-6.47,3.2-17.74,4.62l12.67,5.15c8.83-1.67,16.69-3.68,23.32-5.96l-18.25-3.8Z" style="fill: #fff; stroke: #ca221d; stroke-miterlimit: 10; stroke-width: .54px;"/>
        <path d="m72.11,48.05l-9.13,4.95c9.71,1.13,20.2,1.89,31.2,2.18l2.11-5.54c-11,.36-24.18-1.6-24.18-1.6Z" style="fill: #fff; stroke: #ca221d; stroke-miterlimit: 10; stroke-width: .51px;"/>
        <path d="m1.88,31.57c1.37,2.66,4.17,5.21,8.21,7.57l20.24-2.68-5.36-5.48-23.09.59Z" style="fill: #fff; stroke: #ca221d; stroke-miterlimit: 10; stroke-width: .51px;"/>
        <path d="m.31,28.63s2.16,26.56,107.85,26.39,100.48-29.78,100.48-29.78c0,0,3.23,16.33-.01,30.29,0,0-5.56,21.08-99.54,24.15,0,0-88.75.38-108.02-23.63L.31,28.63Z" style="fill: #e72914; stroke: #ca221d; stroke-miterlimit: 10; stroke-width: .61px;"/>
        <ellipse cx="191.57" cy="35.65" rx="1.61" ry=".48" style="fill: #fff; stroke-width: 0px;"/>
        <ellipse cx="187.09" cy="33.7" rx="1.61" ry=".48" style="fill: #fff; stroke-width: 0px;"/>
        <ellipse cx="182.66" cy="31.62" rx="1.61" ry=".48" style="fill: #fff; stroke-width: 0px;"/>
        <ellipse cx="126.42" cy="49.42" rx="1.61" ry=".48" style="fill: #fff; stroke-width: 0px;"/>
        <ellipse cx="44.15" cy="43.62" rx="1.61" ry=".48" style="fill: #fff; stroke-width: 0px;"/>
        <ellipse cx="44.25" cy="41.29" rx="1.61" ry=".48" style="fill: #fff; stroke-width: 0px;"/>
        <ellipse cx="53.19" cy="43.62" rx="1.61" ry=".48" style="fill: #fff; stroke-width: 0px;"/>
        <ellipse cx="44.15" cy="45.95" rx="1.61" ry=".48" style="fill: #fff; stroke-width: 0px;"/>
        <ellipse cx="35.21" cy="43.5" rx="1.61" ry=".48" style="fill: #fff; stroke-width: 0px;"/>
        <ellipse cx="26.82" cy="24" rx="1.61" ry=".48" style="fill: #fff; stroke-width: 0px;"/>
        <ellipse cx="30.03" cy="20.72" rx="1.61" ry=".48" style="fill: #fff; stroke-width: 0px;"/>
        <ellipse cx="17.8" cy="19.91" rx="1.61" ry=".48" style="fill: #fff; stroke-width: 0px;"/>
        <ellipse cx="14.58" cy="23.2" rx="1.61" ry=".48" style="fill: #fff; stroke-width: 0px;"/>
        <ellipse cx="75.04" cy="4.98" rx="1.61" ry=".48" style="fill: #fff; stroke-width: 0px;"/>
        <ellipse cx="76.9" cy="6.65" rx="1.61" ry=".48" style="fill: #fff; stroke-width: 0px;"/>
        <ellipse cx="78.39" cy="8.2" rx="1.61" ry=".48" style="fill: #fff; stroke-width: 0px;"/>
        <ellipse cx="87.31" cy="4.2" rx="1.61" ry=".48" style="fill: #fff; stroke-width: 0px;"/>
        <ellipse cx="89.15" cy="5.8" rx="1.61" ry=".48" style="fill: #fff; stroke-width: 0px;"/>
        <ellipse cx="90.75" cy="7.4" rx="1.61" ry=".48" style="fill: #fff; stroke-width: 0px;"/>
        <ellipse cx="174.28" cy="12.02" rx="1.61" ry=".48" style="fill: #fff; stroke-width: 0px;"/>
        <ellipse cx="156.2" cy="12.02" rx="1.61" ry=".48" style="fill: #fff; stroke-width: 0px;"/>
        <polygon points="74.32 10.3 100.84 8.68 93.66 1.62 66.02 3.51 74.32 10.3" style="fill: none; stroke: #fff; stroke-miterlimit: 10; stroke-width: .31px;"/>
        <polygon points="11.69 17.37 4.37 24.48 31.01 26.03 37.5 19.12 11.69 17.37" style="fill: none; stroke: #fff; stroke-miterlimit: 10; stroke-width: .31px;"/>
        <polygon points="23.98 43.5 44.15 38.46 62.98 43.02 44.25 48.35 23.98 43.5" style="fill: none; stroke: #fff; stroke-miterlimit: 10; stroke-width: .31px;"/>
        <polygon points="111.55 46.46 117.79 53.22 144.28 51.62 137.61 45.01 111.55 46.46" style="fill: none; stroke: #fff; stroke-miterlimit: 10; stroke-width: .31px;"/>
        <polygon points="169.78 35.65 196 37.94 202.46 30.87 176.62 29.23 169.78 35.65" style="fill: none; stroke: #fff; stroke-miterlimit: 10; stroke-width: .31px;"/>
        <polygon points="165.1 16.85 184.09 11.54 166.07 6.87 146.4 11.54 165.1 16.85" style="fill: none; stroke: #fff; stroke-miterlimit: 10; stroke-width: .31px;"/>
        <path d="m62.98,76.81c11.54,1.43,22.57,2.15,30.88,2.51v-24.45c-11.76-.28-21.99-.96-30.88-1.91v23.86Z" style="fill: #fff; stroke: #ca221d; stroke-miterlimit: 10; stroke-width: .6px;"/>
        <path d="m165.48,74.4c9.72-1.76,17.26-3.77,23.11-5.81l-.23-23.8c-5.82,2.26-13.29,4.36-22.89,6.06v23.56Z" style="fill: #fff; stroke: #ca221d; stroke-miterlimit: 10; stroke-width: .61px;"/>
        <path d="m10.07,39.44c-4.55-2.78-6.99-5.42-8.29-7.39-1.04,5.5-.02,24.68-.01,24.83,2.01,2.27,4.66,4.31,7.79,6.14-.52-10.81.35-21.71.5-23.58Z" style="fill: #fff; stroke: #ca221d; stroke-miterlimit: 10; stroke-width: .61px;"/>
      </g>
      <g>
        <path d="m70.28,28.21h4.36c-.2.55-.15.98.14,1.29s.81.46,1.55.46,1.36-.18,1.87-.53.86-.85,1.07-1.48c.22-.7.18-1.21-.12-1.55s-.86-.5-1.67-.5c-.39,0-.78.04-1.18.13s-.81.22-1.24.4h-3.56l2.42-5.75h10.45l-.46,1.58h-7.28l-1.03,2.71c.67-.21,1.28-.37,1.84-.47s1.08-.15,1.57-.15c1.69,0,2.93.31,3.74.95s1.08,1.52.77,2.66c-.33,1.22-1.15,2.16-2.45,2.8s-3.13.98-5.39.98-3.85-.3-4.73-.88-1.08-1.46-.67-2.63Zm.99-1.22h4.01c.32-.18.64-.31.97-.4s.67-.13,1.04-.13c.6,0,1.01.11,1.22.32s.25.55.1,1.01l-.03.08c-.19-.07-.38-.11-.58-.15s-.42-.05-.67-.05c-.21,0-.42.02-.64.06s-.42.1-.63.18l-.33-.28h-3.91l-.55-.64Zm12.23-1.93l1.39,1.3c.29.26.47.56.55.91s.06.77-.06,1.27c-.37,1.47-1.39,2.71-3.08,3.71s-3.77,1.53-6.09,1.53c-1.1,0-2.05-.12-2.84-.35s-1.43-.58-1.91-1.05l-1-.94c.52.33,1.17.57,1.94.72s1.85.22,3.22.22c2.44,0,4.41-.39,5.88-1.17s2.35-1.87,2.73-3.28c.15-.58.17-1.11.04-1.58s-.38-.89-.78-1.28Zm-6.99-.84l.54-1.45h7.31l.59-2.1,1,1.02-.59,2.21h-6.21c-.53,0-1,.03-1.42.08s-.83.13-1.23.24Zm-1.21,3.99l1.12,1.07h-.2c-.41,0-.7-.09-.87-.28s-.18-.45-.06-.79Z" style="fill: #fff; stroke-width: 0px;"/>
        <path d="m85.08,34.15h3.78l3.7-4.78.82,1.03-3.97,5.25h-2.63l-1.7-1.5Zm2.84-4.78h3.86l-3.23,4.12h-3.03l2.4-4.12Z" style="fill: #fff; stroke-width: 0px;"/>
        <path d="m108.36,25.69c.03,2.12-.45,3.68-1.46,4.6s-2.84,1.42-5.43,1.42-4.35-.48-5.25-1.41-1.17-2.48-.87-4.61.94-3.4,1.96-4.16,2.62-1.12,4.88-1.12,3.83.37,4.73,1.12,1.41,2.13,1.44,4.16Zm-1.29-4.74l1.54,1.11c.65.47,1.12,1.03,1.41,1.68s.46,1.56.51,2.73c.09,2.31-.51,4.14-1.84,5.4s-3.47,1.96-6.27,1.96c-.81,0-1.53-.08-2.17-.25s-1.15-.4-1.56-.71l-1.66-1.28c.42.27.97.47,1.64.59s1.63.18,2.87.18c2.74,0,4.7-.54,5.86-1.6s1.65-2.72,1.6-4.98c-.03-1.25-.2-2.24-.51-2.98s-.78-1.34-1.44-1.85Zm-7.64,4.75c-.14,1.56-.05,2.67.27,3.28s.96.94,1.89.94,1.6-.32,2.01-.95.63-1.73.69-3.27-.09-2.5-.43-3.04-.92-.8-1.76-.8-1.47.26-1.86.79-.67,1.54-.81,3.05Zm2.06,3.66c-.64-.08-1.08-.37-1.3-.87s-.28-1.35-.17-2.55c.13-1.5.34-2.46.63-2.92s.77-.67,1.42-.67c.46,0,.83.13,1.11.39s.43.62.46,1.08c-.23-.13-.42-.22-.59-.28s-.33-.08-.47-.08c-.38,0-.65.11-.81.34s-.27.79-.33,1.69l-.02.3c-.03.46-.04.98-.03,1.56s.05,1.25.11,2Z" style="fill: #fff; stroke-width: 0px;"/>
        <path d="m124.55,25.69c.44,2.12.26,3.68-.57,4.6s-2.57,1.42-5.15,1.42-4.44-.48-5.53-1.41-1.65-2.48-1.76-4.61.28-3.4,1.15-4.16,2.4-1.12,4.66-1.12,3.9.37,4.95,1.12,1.82,2.13,2.24,4.16Zm-2.21-4.74l1.75,1.11c.74.47,1.32,1.03,1.74,1.68s.77,1.56,1.04,2.73c.54,2.31.29,4.14-.8,5.4s-3.09,1.96-5.89,1.96c-.81,0-1.55-.08-2.22-.25s-1.23-.4-1.69-.71l-1.91-1.28c.47.27,1.06.47,1.76.59s1.67.18,2.91.18c2.74,0,4.6-.54,5.55-1.6s1.13-2.72.64-4.98c-.27-1.25-.63-2.24-1.08-2.98s-1.04-1.34-1.8-1.85Zm-6.73,4.75c.16,1.56.46,2.67.91,3.28s1.15.94,2.07.94,1.54-.32,1.83-.95.3-1.73.06-3.27-.58-2.5-1.02-3.04-1.07-.8-1.91-.8-1.42.26-1.71.79-.37,1.54-.22,3.05Zm2.76,3.66c-.66-.08-1.15-.37-1.47-.87s-.53-1.35-.66-2.55c-.16-1.5-.14-2.46.07-2.92s.64-.67,1.29-.67c.46,0,.85.13,1.18.39s.55.62.67,1.08c-.25-.13-.46-.22-.64-.28s-.34-.08-.49-.08c-.38,0-.63.11-.74.34s-.12.79,0,1.69l.04.3c.06.46.15.98.27,1.56s.29,1.25.49,2Z" style="fill: #fff; stroke-width: 0px;"/>
        <path d="m140.74,25.69c.85,2.12.97,3.68.32,4.6s-2.3,1.42-4.88,1.42-4.53-.48-5.8-1.41-2.13-2.48-2.65-4.61-.37-3.4.35-4.16,2.19-1.12,4.45-1.12,3.97.37,5.17,1.12,2.23,2.13,3.04,4.16Zm-3.12-4.74l1.97,1.11c.83.47,1.52,1.03,2.06,1.68s1.07,1.56,1.56,2.73c.98,2.31,1.08,4.14.24,5.4s-2.71,1.96-5.51,1.96c-.81,0-1.56-.08-2.26-.25s-1.31-.4-1.83-.71l-2.15-1.28c.53.27,1.15.47,1.87.59s1.7.18,2.94.18c2.74,0,4.5-.54,5.24-1.6s.61-2.72-.32-4.98c-.51-1.25-1.06-2.24-1.65-2.98s-1.3-1.34-2.15-1.85Zm-5.81,4.75c.46,1.56.97,2.67,1.54,3.28s1.33.94,2.25.94,1.47-.32,1.64-.95-.03-1.73-.57-3.27-1.06-2.5-1.6-3.04-1.22-.8-2.07-.8-1.37.26-1.56.79-.08,1.54.37,3.05Zm3.47,3.66c-.67-.08-1.22-.37-1.63-.87s-.79-1.35-1.16-2.55c-.45-1.5-.61-2.46-.49-2.92s.51-.67,1.16-.67c.46,0,.88.13,1.26.39s.67.62.88,1.08c-.27-.13-.51-.22-.7-.28s-.36-.08-.5-.08c-.38,0-.61.11-.68.34s.03.79.32,1.69l.1.3c.15.46.34.98.57,1.56s.53,1.25.88,2Z" style="fill: #fff; stroke-width: 0px;"/>
      </g>
    </g>
  </g>
</svg>