<?xml version="1.0" encoding="UTF-8"?>
<svg id="_图层_2" data-name="图层 2" xmlns="http://www.w3.org/2000/svg" viewBox="0 0 210.38 79.98">
  <g id="_图层_7" data-name="图层 7">
    <g>
      <ellipse cx="104.74" cy="27.97" rx="104.43" ry="27.66" style="fill: #20843b; stroke: #2b5532; stroke-miterlimit: 10; stroke-width: .61px;"/>
      <ellipse cx="62.65" cy="47.1" rx="1.88" ry=".71" style="fill: #fff; stroke-width: 0px;"/>
      <ellipse cx="60.23" cy="44.7" rx="1.88" ry=".71" style="fill: #fff; stroke-width: 0px;"/>
      <ellipse cx="71.33" cy="46.4" rx="1.88" ry=".71" style="fill: #fff; stroke-width: 0px;"/>
      <ellipse cx="64.96" cy="49.22" rx="1.88" ry=".71" style="fill: #fff; stroke-width: 0px;"/>
      <ellipse cx="53.83" cy="47.65" rx="1.88" ry=".71" style="fill: #fff; stroke-width: 0px;"/>
      <ellipse cx="138.12" cy="9.02" rx="1.88" ry=".71" style="fill: #fff; stroke-width: 0px;"/>
      <ellipse cx="155.53" cy="7.85" rx="1.88" ry=".71" style="fill: #fff; stroke-width: 0px;"/>
      <ellipse cx="147.72" cy="46.85" rx="1.88" ry=".71" style="fill: #fff; stroke-width: 0px;"/>
      <ellipse cx="183.6" cy="26.03" rx="1.88" ry=".71" style="fill: #fff; stroke-width: 0px;"/>
      <ellipse cx="189.86" cy="27.44" rx="1.88" ry=".71" style="fill: #fff; stroke-width: 0px;"/>
      <ellipse cx="196.22" cy="29.08" rx="1.88" ry=".71" style="fill: #fff; stroke-width: 0px;"/>
      <polygon points="127.32 9.31 152.44 12.86 165.27 6.49 141.02 3.09 127.32 9.31" style="fill: none; opacity: .99; stroke: #fff; stroke-miterlimit: 10; stroke-width: .31px;"/>
      <polygon points="31.51 31.02 31.51 24.09 4.61 24.09 4.32 31.02 31.51 31.02" style="fill: none; stroke: #fff; stroke-miterlimit: 10; stroke-width: .31px;"/>
      <polygon points="142.28 50.91 167.4 48.09 154.05 42.04 129.7 45.15 142.28 50.91" style="fill: none; stroke: #fff; stroke-miterlimit: 10; stroke-width: .31px;"/>
      <polygon points="43.1 48.35 56.51 42.19 80.82 45.15 67.36 51.69 43.1 48.35" style="fill: none; stroke: #fff; stroke-miterlimit: 10; stroke-width: .31px;"/>
      <polygon points="174.42 31.29 202.26 30.95 202.26 23.8 174.42 23.8 174.42 31.29" style="fill: none; stroke: #fff; stroke-miterlimit: 10; stroke-width: .31px;"/>
      <path d="m89.06,54.27c5.12.2,10.35.3,15.68.3,5.72,0,11.34-.12,16.81-.35l-3.79-5.11h-25.46l-3.25,5.16Z" style="fill: #fff; stroke: #2b5532; stroke-miterlimit: 10; stroke-width: .61px;"/>
      <path d="m179.17,35.76c-.77,2.14-10.27,5.4-10.27,5.4l17.18,4.15c6.48-2.13,11.8-4.52,15.69-7.1l-22.6-2.45Z" style="fill: #fff; stroke: #2b5532; stroke-miterlimit: 10; stroke-width: .61px;"/>
      <path d="m31.51,20.37c.53-2.04,9.59-5.25,9.59-5.25l-18.35-4.29c-6.79,2.27-12.25,4.84-16.09,7.61l24.84,1.93Z" style="fill: #fff; stroke: #2b5532; stroke-miterlimit: 10; stroke-width: .61px;"/>
      <path d="m91.75,7.3h25.1l5.2-6.61c-5.63-.25-11.41-.38-17.31-.38s-12.16.14-18.01.41l5.03,6.58Z" style="fill: #fff; stroke: #2b5532; stroke-miterlimit: 10; stroke-width: .61px;"/>
      <path d="m186.62,10.8l-18.71,4.3c5.5.97,10.9,5,10.9,5l23.32-2.13c-3.81-2.6-9.07-5.01-15.51-7.17Z" style="fill: #fff; stroke: #2b5532; stroke-miterlimit: 10; stroke-width: .61px;"/>
      <polygon points="57.22 13.53 81.37 9.73 67.63 3.13 42.05 7 57.22 13.53" style="fill: none; stroke: #fff; stroke-miterlimit: 10; stroke-width: .31px;"/>
      <ellipse cx="63.69" cy="6.15" rx="1.7" ry=".57" style="fill: #fff; stroke-width: 0px;"/>
      <ellipse cx="66.96" cy="7.59" rx="1.7" ry=".57" style="fill: #fff; stroke-width: 0px;"/>
      <ellipse cx="70.36" cy="9.04" rx="1.7" ry=".57" style="fill: #fff; stroke-width: 0px;"/>
      <ellipse cx="59.15" cy="10.79" rx="1.7" ry=".57" style="fill: #fff; stroke-width: 0px;"/>
      <ellipse cx="56.12" cy="9.33" rx="1.7" ry=".57" style="fill: #fff; stroke-width: 0px;"/>
      <ellipse cx="52.97" cy="7.87" rx="1.7" ry=".57" style="fill: #fff; stroke-width: 0px;"/>
      <ellipse cx="25.68" cy="26.1" rx="1.88" ry=".71" style="fill: #fff; stroke-width: 0px;"/>
      <ellipse cx="25.68" cy="29.36" rx="1.88" ry=".71" style="fill: #fff; stroke-width: 0px;"/>
      <ellipse cx="13" cy="26.1" rx="1.88" ry=".71" style="fill: #fff; stroke-width: 0px;"/>
      <ellipse cx="13" cy="29.36" rx="1.88" ry=".71" style="fill: #fff; stroke-width: 0px;"/>
      <path d="m.31,28.77s2.16,26.48,107.85,26.31c105.7-.17,100.48-29.69,100.48-29.69,0,0,3.23,16.29-.01,30.2,0,0-5.56,21.02-99.54,24.08,0,0-88.75.38-108.02-23.56L.31,28.77Z" style="fill: #20843b; stroke: #2b5532; stroke-miterlimit: 10; stroke-width: .61px;"/>
      <path d="m185.5,69.64c7.67-2.41,12.82-4.92,16.26-7.13v-24.97c-3.42,2.78-8.51,5.7-16.08,8.33l-.18,23.77Z" style="fill: #fff; stroke: #2b5532; stroke-miterlimit: 10; stroke-width: .61px;"/>
      <path d="m121.55,54.67c-4.26.12-8.71.19-13.39.2-6.79.01-13.14-.09-19.1-.29v24.51c11.89.62,20.03.59,20.03.59,4.34-.14,8.49-.32,12.46-.54v-24.47Z" style="fill: #fff; stroke: #2b5532; stroke-miterlimit: 10; stroke-width: .62px;"/>
      <path d="m7.27,37.92c4.23,2.9,10.25,5.57,17.71,7.91l16.13-4.42c-3.33-.39-10.51-5.4-10.51-5.4l-23.32,1.91Z" style="fill: #fff; stroke: #2b5532; stroke-miterlimit: 10; stroke-width: .61px;"/>
      <path d="m7.96,62.08c4.44,2.85,10.02,5.25,16.28,7.25l.24-23.45c-7.52-2.44-12.72-5.08-16.29-7.54l-.23,23.74Z" style="fill: #fff; stroke: #2b5532; stroke-miterlimit: 10; stroke-width: .61px;"/>
      <path d="m104.74,9.73c-37.18,0-67.31,7.93-67.31,17.71s30.14,17.71,67.31,17.71,67.31-7.93,67.31-17.71-30.14-17.71-67.31-17.71Zm.31,33.88c-33.39,0-60.46-7.12-60.46-15.91s27.07-15.91,60.46-15.91,60.46,7.12,60.46,15.91-27.07,15.91-60.46,15.91Z" style="fill: #2b5733; stroke-width: 0px;"/>
      <path d="m159.75,17.24l-4.88,1.45c3.39,1.3,6.08,2.73,7.9,4.26l4.34-2.17c-1.94-1.26-4.42-2.44-7.36-3.54Z" style="fill: #fff; stroke-width: 0px;"/>
      <path d="m165.51,27.7c0,.85-.26,1.68-.75,2.49l5.68,1.09c1.04-1.24,1.61-2.53,1.61-3.85,0-.48-.09-.95-.23-1.41h-6.65c.22.55.34,1.11.34,1.67Z" style="fill: #fff; stroke-width: 0px;"/>
      <path d="m159.97,34.35c-1.72.99-3.81,1.92-6.23,2.78l.54,2.3c4.64-1.33,8.51-2.84,11.45-4.5l-5.76-.58Z" style="fill: #fff; stroke-width: 0px;"/>
      <path d="m142.62,40.16c-4.04.85-8.5,1.56-13.29,2.11v1.66c5.06-.52,9.81-1.2,14.18-2.01l-.89-1.76Z" style="fill: #fff; stroke-width: 0px;"/>
      <path d="m112.12,45.05v-1.55c-2.32.07-4.68.11-7.08.11s-4.77-.04-7.1-.11l-.05,1.57c2.25.06,4.54.09,6.85.09,2.5,0,4.96-.04,7.38-.11Z" style="fill: #fff; stroke-width: 0px;"/>
      <path d="m80.82,42.28c-4.38-.5-8.49-1.14-12.25-1.89l-.93,1.83c4.1.71,8.52,1.31,13.19,1.78v-1.72Z" style="fill: #fff; stroke-width: 0px;"/>
      <path d="m56.24,37.09c-2.27-.82-4.26-1.69-5.91-2.62l-5.58,1c3.03,1.56,6.91,2.99,11.5,4.25v-2.63Z" style="fill: #fff; stroke-width: 0px;"/>
      <path d="m130.1,13.23c5.17.62,9.94,1.42,14.2,2.38v-2.49c-4.28-.82-8.93-1.51-13.89-2.05l-.31,2.16Z" style="fill: #fff; stroke-width: 0px;"/>
      <path d="m42.05,20.99l5.09,2.13c1.57-1.37,3.82-2.67,6.65-3.86l-2.67-2.53c-3.73,1.29-6.79,2.72-9.08,4.26Z" style="fill: #fff; stroke-width: 0px;"/>
      <path d="m44.59,27.7c0-.36.06-.72.15-1.08l-7.15-.38c-.1.4-.17.79-.17,1.19,0,1.41.65,2.78,1.83,4.1l6.77-.39c-.94-1.11-1.45-2.27-1.45-3.46Z" style="fill: #fff; stroke-width: 0px;"/>
      <path d="m64.69,13.21v2.65c4.3-1.01,9.15-1.87,14.43-2.53l-1.26-2.13c-4.69.54-9.11,1.21-13.17,2Z" style="fill: #fff; stroke-width: 0px;"/>
      <path d="m96.38,9.87v2.09c2.83-.11,5.72-.17,8.67-.17,2.42,0,4.8.04,7.15.11v-2.07c-2.45-.07-4.94-.11-7.46-.11-2.83,0-5.62.05-8.36.14Z" style="fill: #fff; stroke-width: 0px;"/>
      <g>
        <path d="m77.95,39.95l.64-3.07c-3.06-.12-5.25-.92-6.53-2.37s-1.54-3.33-.88-5.68h6.2c-.21,1.18-.15,2.04.17,2.57s.96.82,1.89.86l1.09-5.14c-2.87-.59-4.83-1.4-5.88-2.4s-1.32-2.27-.87-3.82c.48-1.67,1.59-2.99,3.31-3.96s3.75-1.45,6.19-1.49l.31-1.52h2.34l-.27,1.5c2.31.05,4.05.53,5.24,1.46s1.76,2.3,1.65,4.09h-5.49c.07-.78-.06-1.36-.41-1.75s-.88-.6-1.64-.61l-.74,4.01c2.97.64,5.05,1.46,6.22,2.48s1.7,2.47,1.51,4.34c-.24,2.24-1.22,4.01-2.97,5.26s-4.36,2.03-7.68,2.22l-.56,3.03h-2.83Zm4.1-17.81l.73-3.58h-.12c-.89,0-1.59.14-2.1.42s-.84.71-.97,1.3c-.1.45.02.81.38,1.1s1.05.54,2.07.76Zm-.01,10.12c1.11,0,1.98-.18,2.62-.55s1-.9,1.11-1.61c.1-.6-.06-1.08-.48-1.43s-1.21-.68-2.39-.99l-.86,4.59Z" style="fill: #fff; stroke: #2b5733; stroke-miterlimit: 10;"/>
        <path d="m93.21,36.49c0-.07,0-.17,0-.31s0-.23,0-.3c.16-1.74.84-3.34,2.05-4.81s2.97-2.89,5.36-4.35c.62-.39,1.47-.89,2.54-1.49,2.52-1.42,3.75-2.63,3.72-3.63-.02-.76-.28-1.35-.77-1.77s-1.15-.63-1.98-.63c-1.04,0-1.82.28-2.35.84s-.82,1.43-.85,2.62v.34h-6.1c0-.07,0-.17,0-.3s0-.21,0-.27c.2-2.37,1.18-4.16,2.9-5.42s3.91-1.83,6.71-1.83c2.56,0,4.63.51,6.24,1.54s2.55,2.48,2.71,4.32c.11,1.24-.12,2.3-.69,3.16s-1.85,1.86-3.83,2.96c-.24.14-.62.35-1.16.64-1.95,1.05-3.47,2-4.55,2.83h11l.51,5.86h-21.49Z" style="fill: #fff; stroke: #2b5733; stroke-miterlimit: 10;"/>
        <path d="m116.5,30.17l6.98-.64c.39.68.89,1.19,1.51,1.54s1.34.53,2.16.53c1.08,0,1.87-.28,2.36-.82s.63-1.27.42-2.19-.67-1.66-1.37-2.21-1.5-.81-2.43-.81c-.57,0-1.06.1-1.49.3s-.78.49-1.05.87l-6.54-.49.89-10.58h13.61l1.18,4.34h-9.67l-.16,2.75c.58-.32,1.23-.55,1.96-.7s1.57-.22,2.53-.22c2.3,0,4.29.57,6.02,1.73s2.94,2.79,3.53,4.84c.75,2.62.41,4.75-1.1,6.33s-4.11,2.45-7.67,2.45c-2.94,0-5.46-.65-7.53-1.92s-3.4-2.97-4.14-5.11Z" style="fill: #fff; stroke: #2b5733; stroke-miterlimit: 10;"/>
      </g>
    </g>
  </g>
</svg>