<?xml version="1.0" encoding="UTF-8"?>
<svg id="_图层_2" data-name="图层 2" xmlns="http://www.w3.org/2000/svg" viewBox="0 0 210.38 79.98">
  <defs>
    <style>
      .white1-cls-1 {
        opacity: .99;
      }

      .white1-cls-1, .white1-cls-2 {
        fill: none;
        stroke: #b5b6b8;
        stroke-width: .31px;
      }

      .white1-cls-1, .white1-cls-2, .white1-cls-3, .white1-cls-4, .white1-cls-5, .white1-cls-6, .white1-cls-7, .white1-cls-8, .white1-cls-9 {
        stroke-miterlimit: 10;
      }

      .white1-cls-10 {
        fill: #a7aeb5;
      }

      .white1-cls-10, .white1-cls-11, .white1-cls-12, .white1-cls-13, .white1-cls-14, .white1-cls-15, .white1-cls-16, .white1-cls-17, .white1-cls-18, .white1-cls-19 {
        stroke-width: 0px;
      }

      .white1-cls-11 {
        fill: #082b46;
      }

      .white1-cls-3 {
        stroke-width: .61px;
      }

      .white1-cls-3, .white1-cls-4, .white1-cls-5, .white1-cls-6, .white1-cls-7, .white1-cls-8, .white1-cls-9 {
        stroke: #231815;
      }

      .white1-cls-3, .white1-cls-6, .white1-cls-7, .white1-cls-9 {
        fill: #1c487b;
      }

      .white1-cls-12 {
        fill: #052a44;
      }

      .white1-cls-4, .white1-cls-5, .white1-cls-8 {
        fill: #fff;
      }

      .white1-cls-4, .white1-cls-6 {
        stroke-width: .61px;
      }

      .white1-cls-13 {
        fill: #122e4a;
      }

      .white1-cls-14 {
        fill: #0c3259;
      }

      .white1-cls-5, .white1-cls-7 {
        stroke-width: .61px;
      }

      .white1-cls-15 {
        fill: #1b3150;
      }

      .white1-cls-16 {
        fill: #0f2d48;
      }

      .white1-cls-17 {
        fill: #152f4c;
      }

      .white1-cls-18 {
        fill: #18304e;
      }

      .white1-cls-19 {
        fill: #0b2c47;
      }

      .white1-cls-9 {
        stroke-width: .62px;
      }
    </style>
  </defs>
  <g id="_图层_7" data-name="图层 7">
    <g>
      <ellipse class="white1-cls-4" cx="104.74" cy="27.97" rx="104.43" ry="27.66"/>
      <ellipse class="white1-cls-14" cx="62.65" cy="47.1" rx="1.88" ry=".71"/>
      <ellipse class="white1-cls-14" cx="60.23" cy="44.7" rx="1.88" ry=".71"/>
      <ellipse class="white1-cls-14" cx="71.33" cy="46.4" rx="1.88" ry=".71"/>
      <ellipse class="white1-cls-14" cx="64.96" cy="49.22" rx="1.88" ry=".71"/>
      <ellipse class="white1-cls-14" cx="53.83" cy="47.65" rx="1.88" ry=".71"/>
      <ellipse class="white1-cls-14" cx="138.12" cy="9.02" rx="1.88" ry=".71"/>
      <ellipse class="white1-cls-14" cx="155.53" cy="7.85" rx="1.88" ry=".71"/>
      <ellipse class="white1-cls-14" cx="147.72" cy="46.85" rx="1.88" ry=".71"/>
      <ellipse class="white1-cls-14" cx="183.6" cy="26.03" rx="1.88" ry=".71"/>
      <ellipse class="white1-cls-14" cx="189.86" cy="27.44" rx="1.88" ry=".71"/>
      <ellipse class="white1-cls-14" cx="196.22" cy="29.08" rx="1.88" ry=".71"/>
      <polygon class="white1-cls-1" points="127.32 9.31 152.44 12.86 165.27 6.49 141.02 3.09 127.32 9.31"/>
      <polygon class="white1-cls-2" points="31.51 31.02 31.51 24.09 4.61 24.09 4.32 31.02 31.51 31.02"/>
      <polygon class="white1-cls-2" points="142.28 50.91 167.4 48.09 154.05 42.04 129.7 45.15 142.28 50.91"/>
      <polygon class="white1-cls-2" points="43.1 48.35 56.51 42.19 80.82 45.15 67.36 51.69 43.1 48.35"/>
      <polygon class="white1-cls-2" points="174.42 31.29 202.26 30.95 202.26 23.8 174.42 23.8 174.42 31.29"/>
      <path class="white1-cls-3" d="m89.06,54.27c5.12.2,10.35.3,15.68.3,5.72,0,11.34-.12,16.81-.35l-3.79-5.11h-25.46l-3.25,5.16Z"/>
      <path class="white1-cls-6" d="m179.17,35.76c-.77,2.14-10.27,5.4-10.27,5.4l17.18,4.15c6.48-2.13,11.8-4.52,15.69-7.1l-22.6-2.45Z"/>
      <path class="white1-cls-6" d="m31.51,20.37c.53-2.04,9.59-5.25,9.59-5.25l-18.35-4.29c-6.79,2.27-12.25,4.84-16.09,7.61l24.84,1.93Z"/>
      <path class="white1-cls-6" d="m91.75,7.3h25.1l5.2-6.61c-5.63-.25-11.41-.38-17.31-.38s-12.16.14-18.01.41l5.03,6.58Z"/>
      <path class="white1-cls-6" d="m186.62,10.8l-18.71,4.3c5.5.97,10.9,5,10.9,5l23.32-2.13c-3.81-2.6-9.07-5.01-15.51-7.17Z"/>
      <polygon class="white1-cls-2" points="57.22 13.53 81.37 9.73 67.63 3.13 42.05 7 57.22 13.53"/>
      <ellipse class="white1-cls-14" cx="63.69" cy="6.15" rx="1.7" ry=".57"/>
      <ellipse class="white1-cls-14" cx="66.96" cy="7.59" rx="1.7" ry=".57"/>
      <ellipse class="white1-cls-14" cx="70.36" cy="9.04" rx="1.7" ry=".57"/>
      <ellipse class="white1-cls-14" cx="59.15" cy="10.79" rx="1.7" ry=".57"/>
      <ellipse class="white1-cls-14" cx="56.12" cy="9.33" rx="1.7" ry=".57"/>
      <ellipse class="white1-cls-14" cx="52.97" cy="7.87" rx="1.7" ry=".57"/>
      <ellipse class="white1-cls-14" cx="25.68" cy="26.1" rx="1.88" ry=".71"/>
      <ellipse class="white1-cls-14" cx="25.68" cy="29.36" rx="1.88" ry=".71"/>
      <ellipse class="white1-cls-14" cx="13" cy="26.1" rx="1.88" ry=".71"/>
      <ellipse class="white1-cls-14" cx="13" cy="29.36" rx="1.88" ry=".71"/>
      <path class="white1-cls-5" d="m.31,28.77s2.16,26.48,107.85,26.31c105.7-.17,100.48-29.69,100.48-29.69,0,0,3.23,16.29-.01,30.2,0,0-5.56,21.02-99.54,24.08,0,0-88.75.38-108.02-23.56L.31,28.77Z"/>
      <path class="white1-cls-7" d="m185.5,69.64c7.67-2.41,12.82-4.92,16.26-7.13v-24.97c-3.42,2.78-8.51,5.7-16.08,8.33l-.18,23.77Z"/>
      <path class="white1-cls-9" d="m121.55,54.67c-4.26.12-8.71.19-13.39.2-6.79.01-13.14-.09-19.1-.29v24.51c11.89.62,20.03.59,20.03.59,4.34-.14,8.49-.32,12.46-.54v-24.47Z"/>
      <path class="white1-cls-7" d="m7.27,37.92c4.23,2.9,10.25,5.57,17.71,7.91l16.13-4.42c-3.33-.39-10.51-5.4-10.51-5.4l-23.32,1.91Z"/>
      <path class="white1-cls-7" d="m7.96,62.08c4.44,2.85,10.02,5.25,16.28,7.25l.24-23.45c-7.52-2.44-12.72-5.08-16.29-7.54l-.23,23.74Z"/>
      <path class="white1-cls-10" d="m104.74,9.73c-37.18,0-67.31,7.93-67.31,17.71s30.14,17.71,67.31,17.71,67.31-7.93,67.31-17.71-30.14-17.71-67.31-17.71Zm.31,33.88c-33.39,0-60.46-7.12-60.46-15.91s27.07-15.91,60.46-15.91,60.46,7.12,60.46,15.91-27.07,15.91-60.46,15.91Z"/>
      <path class="white1-cls-17" d="m159.75,17.24l-4.88,1.45c3.39,1.3,6.08,2.73,7.9,4.26l4.34-2.17c-1.94-1.26-4.42-2.44-7.36-3.54Z"/>
      <path class="white1-cls-17" d="m165.51,27.7c0,.85-.26,1.68-.75,2.49l5.68,1.09c1.04-1.24,1.61-2.53,1.61-3.85,0-.48-.09-.95-.23-1.41h-6.65c.22.55.34,1.11.34,1.67Z"/>
      <path class="white1-cls-12" d="m159.97,34.35c-1.72.99-3.81,1.92-6.23,2.78l.54,2.3c4.64-1.33,8.51-2.84,11.45-4.5l-5.76-.58Z"/>
      <path class="white1-cls-11" d="m142.62,40.16c-4.04.85-8.5,1.56-13.29,2.11v1.66c5.06-.52,9.81-1.2,14.18-2.01l-.89-1.76Z"/>
      <path class="white1-cls-19" d="m112.12,45.05v-1.55c-2.32.07-4.68.11-7.08.11s-4.77-.04-7.1-.11l-.05,1.57c2.25.06,4.54.09,6.85.09,2.5,0,4.96-.04,7.38-.11Z"/>
      <path class="white1-cls-16" d="m80.82,42.28c-4.38-.5-8.49-1.14-12.25-1.89l-.93,1.83c4.1.71,8.52,1.31,13.19,1.78v-1.72Z"/>
      <path class="white1-cls-13" d="m56.24,37.09c-2.27-.82-4.26-1.69-5.91-2.62l-5.58,1c3.03,1.56,6.91,2.99,11.5,4.25v-2.63Z"/>
      <path class="white1-cls-18" d="m130.1,13.23c5.17.62,9.94,1.42,14.2,2.38v-2.49c-4.28-.82-8.93-1.51-13.89-2.05l-.31,2.16Z"/>
      <path class="white1-cls-17" d="m42.05,20.99l5.09,2.13c1.57-1.37,3.82-2.67,6.65-3.86l-2.67-2.53c-3.73,1.29-6.79,2.72-9.08,4.26Z"/>
      <path class="white1-cls-17" d="m44.59,27.7c0-.36.06-.72.15-1.08l-7.15-.38c-.1.4-.17.79-.17,1.19,0,1.41.65,2.78,1.83,4.1l6.77-.39c-.94-1.11-1.45-2.27-1.45-3.46Z"/>
      <path class="white1-cls-18" d="m64.69,13.21v2.65c4.3-1.01,9.15-1.87,14.43-2.53l-1.26-2.13c-4.69.54-9.11,1.21-13.17,2Z"/>
      <path class="white1-cls-15" d="m96.38,9.87v2.09c2.83-.11,5.72-.17,8.67-.17,2.42,0,4.8.04,7.15.11v-2.07c-2.45-.07-4.94-.11-7.46-.11-2.83,0-5.62.05-8.36.14Z"/>
    </g>
    <g>
      <path class="white1-cls-8" d="m91.39,40.12l.69-3.7c-3.7-.14-6.31-1.07-7.8-2.73s-1.65-3.64-.8-6.09h6.98c-.22,1.21-.14,2.12.25,2.68s1.13.88,2.21.92l1.02-5.32c-3.2-.58-5.36-1.37-6.51-2.33s-1.39-2.12-.89-3.53c.52-1.48,1.68-2.62,3.44-3.44s3.77-1.21,6.24-1.24l.22-1.24h2.34l-.16,1.22c2.34.04,4.16.44,5.47,1.22s2.12,1.97,2.25,3.56h-5.8c0-.69-.2-1.21-.59-1.55s-.97-.52-1.75-.53l-.47,3.57c3.24.59,5.57,1.36,6.97,2.33s2.23,2.42,2.31,4.31c.09,2.35-.77,4.27-2.65,5.68-1.96,1.47-4.96,2.34-8.96,2.56l-.5,3.66h-3.51Zm3.93-18.98l.57-3.18h-.13c-.92,0-1.64.12-2.15.37s-.84.62-.97,1.14c-.09.4.05.73.44.98s1.14.49,2.24.69Zm.6,10.07c1.29,0,2.28-.2,2.98-.59s1.06-.96,1.12-1.7c.05-.63-.18-1.12-.68-1.48s-1.41-.69-2.75-1l-.67,4.77Z"/>
      <path class="white1-cls-8" d="m119.93,35.95l-3.05-13.61h-5.58l-.44-3.62c2.16-.03,3.69-.3,4.61-.81s1.33-1.31,1.32-2.39h4.91l7.32,20.43h-9.08Z"/>
    </g>
  </g>
</svg>