<?xml version="1.0" encoding="UTF-8"?>
<svg id="_图层_2" data-name="图层 2" xmlns="http://www.w3.org/2000/svg" viewBox="0 0 210.38 79.93">
  <defs>
    <style>
      .white3-cls-1 {
        fill: #a7aeb5;
      }

      .white3-cls-1, .white3-cls-2, .white3-cls-3, .white3-cls-4, .white3-cls-5, .white3-cls-6, .white3-cls-7, .white3-cls-8, .white3-cls-9, .white3-cls-10 {
        stroke-width: 0px;
      }

      .white3-cls-2 {
        fill: #12406a;
      }

      .white3-cls-3 {
        fill: #093a61;
      }

      .white3-cls-11, .white3-cls-12, .white3-cls-13, .white3-cls-14, .white3-cls-15, .white3-cls-16, .white3-cls-17, .white3-cls-18, .white3-cls-19 {
        stroke-miterlimit: 10;
      }

      .white3-cls-11, .white3-cls-12, .white3-cls-13, .white3-cls-14, .white3-cls-15, .white3-cls-17, .white3-cls-18, .white3-cls-19 {
        stroke: #231815;
      }

      .white3-cls-11, .white3-cls-12, .white3-cls-14, .white3-cls-18 {
        fill: #fff;
      }

      .white3-cls-11, .white3-cls-15 {
        stroke-width: .51px;
      }

      .white3-cls-4 {
        fill: #0c3c64;
      }

      .white3-cls-5 {
        fill: #0f335c;
      }

      .white3-cls-12, .white3-cls-14, .white3-cls-17 {
        stroke-width: .61px;
      }

      .white3-cls-13 {
        stroke-width: .61px;
      }

      .white3-cls-13, .white3-cls-15, .white3-cls-17, .white3-cls-19 {
        fill: #1c487b;
      }

      .white3-cls-6 {
        fill: #194471;
      }

      .white3-cls-7 {
        fill: #16426d;
      }

      .white3-cls-14 {
        opacity: .5;
      }

      .white3-cls-8 {
        fill: #0f3e67;
      }

      .white3-cls-9 {
        fill: #04365b;
      }

      .white3-cls-16 {
        fill: none;
        stroke: #b5b6b8;
        stroke-width: .16px;
      }

      .white3-cls-10 {
        fill: #07385e;
      }

      .white3-cls-19 {
        stroke-width: .6px;
      }
    </style>
  </defs>
  <g id="_图层_4" data-name="图层 4">
    <g>
      <ellipse class="white3-cls-11" cx="104.67" cy="27.8" rx="104.37" ry="27.55"/>
      <path class="white3-cls-1" d="m104.57,9.57c-36.85,0-66.72,8.05-66.72,17.98s29.87,17.98,66.72,17.98,66.72-8.05,66.72-17.98-29.87-17.98-66.72-17.98Zm.32,33.95c-33.7,0-61.02-7.04-61.02-15.73s27.32-15.73,61.02-15.73,61.02,7.04,61.02,15.73-27.32,15.73-61.02,15.73Z"/>
      <path class="white3-cls-10" d="m133.67,41.66c-3.74.52-7.72.94-11.88,1.25l-.3,2.04c5.15-.36,10.06-.89,14.64-1.55-.75-.53-1.66-1.17-2.46-1.74Z"/>
      <path class="white3-cls-3" d="m157.48,35.77c-2.44,1.07-5.36,2.05-8.67,2.94l.16,2.27c5.09-1.22,9.47-2.65,12.98-4.24l-4.46-.97Z"/>
      <path class="white3-cls-2" d="m43.87,27.79c0-1.24.55-2.44,1.6-3.59l-6.23-.31c-.91,1.18-1.39,2.41-1.39,3.67,0,.49.08.98.22,1.47h5.98c-.12-.41-.18-.81-.18-1.23Z"/>
      <path class="white3-cls-4" d="m165.88,28.28c-.21,1.79-1.58,3.5-3.92,5.08l5.48.22c2.2-1.67,3.52-3.45,3.8-5.3h-5.36Z"/>
      <path class="white3-cls-8" d="m163.66,19.19l-5.07,1.12c2.81,1.34,4.89,2.79,6.1,4.33l5.34-.59c-1.26-1.72-3.43-3.35-6.37-4.86Z"/>
      <path class="white3-cls-2" d="m136.96,14.4c5.3.85,10.06,1.89,14.12,3.11l-.17-2.9c-3.48-.91-7.32-1.71-11.46-2.4l-2.48,2.19Z"/>
      <path class="white3-cls-7" d="m104.67,12.06c.07,0,.14,0,.22,0,5.75,0,11.31.21,16.58.59l-.7-2.54c-4.67-.31-9.52-.5-14.52-.53l-1.57,2.49Z"/>
      <path class="white3-cls-6" d="m47.14,18.39l2.64,2.63c2.7-1.46,6.24-2.79,10.46-3.96l-3.82-1.96c-3.54.99-6.65,2.1-9.28,3.29Z"/>
      <path class="white3-cls-6" d="m72.24,11.82l-.31,2.73c4.79-.79,10.03-1.42,15.61-1.84l-1.53-2.43c-4.84.38-9.46.9-13.78,1.54Z"/>
      <path class="white3-cls-9" d="m103.77,43.52c-4.48-.02-8.85-.17-13.04-.42l-1.74,1.95c4.93.32,10.08.49,15.37.49l-.58-2.02Z"/>
      <path class="white3-cls-9" d="m72.99,41.2c-3.69-.59-7.13-1.27-10.25-2.04l-3.17,1.66c4.23,1.04,8.96,1.94,14.09,2.66l-.66-2.29Z"/>
      <path class="white3-cls-9" d="m49.4,37.66l2.94-1.88c-2.39-1.04-4.34-2.16-5.75-3.35l-5.5.65c1.97,1.64,4.78,3.18,8.31,4.57Z"/>
      <path class="white3-cls-15" d="m62.01,9.57l23.45-2.32-5.18-6.23c-10.95.69-21.23,1.84-30.53,3.36l12.26,5.2Z"/>
      <path class="white3-cls-15" d="m154.57,3.6l-10.55,5.96s13,1.39,18.89,3.88l17.8-4.51c-7.56-2.12-16.37-3.93-26.14-5.33Z"/>
      <path class="white3-cls-15" d="m182.63,33.59l22.04,2.12c2.84-2.5,4.37-5.16,4.37-7.91,0-.08,0-.15-.01-.22l-24.01.22s.29,3.31-2.39,5.78Z"/>
      <path class="white3-cls-15" d="m146.99,46.27c-12.92,2.93-23.26,2.42-23.26,2.42l4.82,5.94c10.56-.65,20.5-1.73,29.56-3.16l-11.12-5.2Z"/>
      <path class="white3-cls-15" d="m30.97,47.31c7.39,1.95,15.89,3.6,25.22,4.9l9.68-5.4c-9.26-.29-19.16-3.71-19.16-3.71l-15.74,4.21Z"/>
      <path class="white3-cls-15" d="m.31,27.8c0,.2.01.39.03.59l24.31-.17s.24-3.86,3.3-5.91l-23.98-1.76c-2.38,2.31-3.66,4.74-3.66,7.25Z"/>
      <path class="white3-cls-14" d="m.31,28.42s2.16,26.64,107.85,26.47c105.7-.17,100.48-29.87,100.48-29.87,0,0,3.23,16.38-.01,30.38,0,0-5.56,21.14-99.54,24.22,0,0-88.75.38-108.02-23.7L.31,28.42Z"/>
      <path class="white3-cls-12" d="m.31,28.42s2.16,26.64,107.85,26.47c105.7-.17,100.48-29.87,100.48-29.87,0,0,3.23,16.38-.01,30.38,0,0-5.56,21.14-99.54,24.22,0,0-88.75.38-108.02-23.7L.31,28.42Z"/>
      <path class="white3-cls-19" d="m55.83,52.14c-10.08-1.33-18.23-3.05-24.82-4.96-.22,1.93-.07,17.04.01,23.64,7.77,2.24,16.33,3.91,24.81,5.16v-23.83Z"/>
      <polygon class="white3-cls-16" points="81.24 46.27 109.82 47.18 107.3 53.96 77.22 53.23 81.24 46.27"/>
      <ellipse class="white3-cls-5" cx="101.03" cy="48.43" rx="1.61" ry=".49"/>
      <ellipse class="white3-cls-5" cx="99.31" cy="51.8" rx="1.61" ry=".49"/>
      <ellipse class="white3-cls-5" cx="93.92" cy="49.89" rx="1.61" ry=".49"/>
      <ellipse class="white3-cls-5" cx="88.22" cy="47.94" rx="1.61" ry=".49"/>
      <ellipse class="white3-cls-5" cx="86.62" cy="51.32" rx="1.61" ry=".49"/>
      <ellipse class="white3-cls-5" cx="29.55" cy="34.07" rx="1.61" ry=".49"/>
      <ellipse class="white3-cls-5" cx="34.24" cy="37.04" rx="1.61" ry=".49"/>
      <ellipse class="white3-cls-5" cx="22.61" cy="38.35" rx="1.61" ry=".49"/>
      <ellipse class="white3-cls-5" cx="17.68" cy="35.07" rx="1.61" ry=".49"/>
      <polygon class="white3-cls-16" points="9.4 34.07 19.29 40.93 45.01 38.35 34.76 31.21 9.4 34.07"/>
      <ellipse class="white3-cls-5" cx="38.27" cy="16.12" rx="1.61" ry=".49"/>
      <ellipse class="white3-cls-5" cx="33.1" cy="15.1" rx="1.61" ry=".49"/>
      <ellipse class="white3-cls-5" cx="28.14" cy="14.13" rx="1.61" ry=".49"/>
      <ellipse class="white3-cls-5" cx="35.85" cy="11.47" rx="1.61" ry=".49"/>
      <ellipse class="white3-cls-5" cx="40.89" cy="12.44" rx="1.61" ry=".49"/>
      <ellipse class="white3-cls-5" cx="45.98" cy="13.41" rx="1.61" ry=".49"/>
      <polygon class="white3-cls-16" points="18.1 13.89 39.88 18.39 55.62 12.68 33.6 8.72 18.1 13.89"/>
      <path class="white3-cls-16" d="m102.96,1.01l-3.54,6.98,27.04,1.03s3.35-6.98,3.35-7.08-26.85-.92-26.85-.92Z"/>
      <ellipse class="white3-cls-5" cx="108.65" cy="6.6" rx="1.61" ry=".49"/>
      <ellipse class="white3-cls-5" cx="123.07" cy="3.68" rx="1.61" ry=".49"/>
      <ellipse class="white3-cls-5" cx="175.28" cy="17.99" rx="1.61" ry=".49"/>
      <ellipse class="white3-cls-5" cx="183.6" cy="18.68" rx="1.61" ry=".49"/>
      <ellipse class="white3-cls-5" cx="191.94" cy="19.68" rx="1.61" ry=".49"/>
      <polygon class="white3-cls-16" points="166.59 16.49 191.36 13.85 202.49 20.16 176.88 23.38 166.59 16.49"/>
      <polygon class="white3-cls-16" points="153.14 41.57 169.65 35.77 191.67 40.15 175.4 45.77 153.14 41.57"/>
      <ellipse class="white3-cls-5" cx="172.4" cy="41.25" rx="1.61" ry=".49"/>
      <path class="white3-cls-13" d="m128.81,78.61c11.33-.8,21.02-1.92,29.3-3.22v-23.67c-8.28,1.23-17.97,2.17-29.3,2.69v24.19Z"/>
      <path class="white3-cls-17" d="m208.45,27.63c-.41,1.84-1.5,4.49-4.32,7.43.6,3.23,1.68,11.59.3,25.37,3.64-2.94,4.18-5.02,4.18-5.02.06-.25.11-.5.16-.74.13-7,.28-20.29-.33-27.04Z"/>
    </g>
  </g>
  <g id="_图层_7" data-name="图层 7">
    <g>
      <path class="white3-cls-18" d="m89.75,41.29l.69-3.7c-3.7-.14-6.31-1.07-7.8-2.73s-1.65-3.64-.8-6.09h6.98c-.22,1.21-.14,2.12.25,2.68s1.13.88,2.21.92l1.02-5.32c-3.2-.58-5.36-1.37-6.51-2.33s-1.39-2.12-.89-3.53c.52-1.48,1.68-2.62,3.44-3.44s3.77-1.21,6.24-1.24l.22-1.24h2.34l-.16,1.22c2.34.04,4.16.44,5.47,1.22s2.12,1.97,2.25,3.56h-5.8c0-.69-.2-1.21-.59-1.55s-.97-.52-1.75-.53l-.47,3.57c3.24.59,5.57,1.36,6.97,2.33s2.23,2.42,2.31,4.31c.09,2.35-.77,4.27-2.65,5.68-1.96,1.47-4.96,2.34-8.96,2.56l-.5,3.66h-3.51Zm3.93-18.98l.57-3.18h-.13c-.92,0-1.64.12-2.15.37s-.84.62-.97,1.14c-.09.4.05.73.44.98s1.14.49,2.24.69Zm.6,10.07c1.29,0,2.28-.2,2.98-.59s1.06-.96,1.12-1.7c.05-.63-.18-1.12-.68-1.48s-1.41-.69-2.75-1l-.67,4.77Z"/>
      <path class="white3-cls-18" d="m118.29,37.12l-3.05-13.61h-5.58l-.44-3.62c2.16-.03,3.69-.3,4.61-.81s1.33-1.31,1.32-2.39h4.91l7.32,20.43h-9.08Z"/>
    </g>
  </g>
</svg>