<?xml version="1.0" encoding="UTF-8"?>
<svg id="_图层_2" data-name="图层 2" xmlns="http://www.w3.org/2000/svg" viewBox="0 0 210.38 79.98">
  <g id="_图层_7" data-name="图层 7">
    <g>
      <g>
        <ellipse cx="104.74" cy="27.97" rx="104.43" ry="27.66" style="fill: #f08953; stroke: #cf6b2a; stroke-miterlimit: 10; stroke-width: .61px;"/>
        <ellipse cx="62.65" cy="47.1" rx="1.88" ry=".71" style="fill: #fff; stroke-width: 0px;"/>
        <ellipse cx="60.23" cy="44.7" rx="1.88" ry=".71" style="fill: #fff; stroke-width: 0px;"/>
        <ellipse cx="71.33" cy="46.4" rx="1.88" ry=".71" style="fill: #fff; stroke-width: 0px;"/>
        <ellipse cx="64.96" cy="49.22" rx="1.88" ry=".71" style="fill: #fff; stroke-width: 0px;"/>
        <ellipse cx="53.83" cy="47.65" rx="1.88" ry=".71" style="fill: #fff; stroke-width: 0px;"/>
        <ellipse cx="138.12" cy="9.02" rx="1.88" ry=".71" style="fill: #fff; stroke-width: 0px;"/>
        <ellipse cx="155.53" cy="7.85" rx="1.88" ry=".71" style="fill: #fff; stroke-width: 0px;"/>
        <ellipse cx="147.72" cy="46.85" rx="1.88" ry=".71" style="fill: #fff; stroke-width: 0px;"/>
        <ellipse cx="183.6" cy="26.03" rx="1.88" ry=".71" style="fill: #fff; stroke-width: 0px;"/>
        <ellipse cx="189.86" cy="27.44" rx="1.88" ry=".71" style="fill: #fff; stroke-width: 0px;"/>
        <ellipse cx="196.22" cy="29.08" rx="1.88" ry=".71" style="fill: #fff; stroke-width: 0px;"/>
        <polygon points="127.32 9.31 152.44 12.86 165.27 6.49 141.02 3.09 127.32 9.31" style="fill: none; opacity: .99; stroke: #fff; stroke-miterlimit: 10; stroke-width: .31px;"/>
        <polygon points="31.51 31.02 31.51 24.09 4.61 24.09 4.32 31.02 31.51 31.02" style="fill: none; stroke: #fff; stroke-miterlimit: 10; stroke-width: .31px;"/>
        <polygon points="142.28 50.91 167.4 48.09 154.05 42.04 129.7 45.15 142.28 50.91" style="fill: none; stroke: #fff; stroke-miterlimit: 10; stroke-width: .31px;"/>
        <polygon points="43.1 48.35 56.51 42.19 80.82 45.15 67.36 51.69 43.1 48.35" style="fill: none; stroke: #fff; stroke-miterlimit: 10; stroke-width: .31px;"/>
        <polygon points="174.42 31.29 202.26 30.95 202.26 23.8 174.42 23.8 174.42 31.29" style="fill: none; stroke: #fff; stroke-miterlimit: 10; stroke-width: .31px;"/>
        <path d="m89.06,54.27c5.12.2,10.35.3,15.68.3,5.72,0,11.34-.12,16.81-.35l-3.79-5.11h-25.46l-3.25,5.16Z" style="fill: #fff; stroke: #cf6b2a; stroke-miterlimit: 10; stroke-width: .61px;"/>
        <path d="m179.17,35.76c-.77,2.14-10.27,5.4-10.27,5.4l17.18,4.15c6.48-2.13,11.8-4.52,15.69-7.1l-22.6-2.45Z" style="fill: #fff; stroke: #cf6b2a; stroke-miterlimit: 10; stroke-width: .61px;"/>
        <path d="m31.51,20.37c.53-2.04,9.59-5.25,9.59-5.25l-18.35-4.29c-6.79,2.27-12.25,4.84-16.09,7.61l24.84,1.93Z" style="fill: #fff; stroke: #cf6b2a; stroke-miterlimit: 10; stroke-width: .61px;"/>
        <path d="m91.75,7.3h25.1l5.2-6.61c-5.63-.25-11.41-.38-17.31-.38s-12.16.14-18.01.41l5.03,6.58Z" style="fill: #fff; stroke: #cf6b2a; stroke-miterlimit: 10; stroke-width: .61px;"/>
        <path d="m186.62,10.8l-18.71,4.3c5.5.97,10.9,5,10.9,5l23.32-2.13c-3.81-2.6-9.07-5.01-15.51-7.17Z" style="fill: #fff; stroke: #cf6b2a; stroke-miterlimit: 10; stroke-width: .61px;"/>
        <polygon points="57.22 13.53 81.37 9.73 67.63 3.13 42.05 7 57.22 13.53" style="fill: none; stroke: #fff; stroke-miterlimit: 10; stroke-width: .31px;"/>
        <ellipse cx="63.69" cy="6.15" rx="1.7" ry=".57" style="fill: #fff; stroke-width: 0px;"/>
        <ellipse cx="66.96" cy="7.59" rx="1.7" ry=".57" style="fill: #fff; stroke-width: 0px;"/>
        <ellipse cx="70.36" cy="9.04" rx="1.7" ry=".57" style="fill: #fff; stroke-width: 0px;"/>
        <ellipse cx="59.15" cy="10.79" rx="1.7" ry=".57" style="fill: #fff; stroke-width: 0px;"/>
        <ellipse cx="56.12" cy="9.33" rx="1.7" ry=".57" style="fill: #fff; stroke-width: 0px;"/>
        <ellipse cx="52.97" cy="7.87" rx="1.7" ry=".57" style="fill: #fff; stroke-width: 0px;"/>
        <ellipse cx="25.68" cy="26.1" rx="1.88" ry=".71" style="fill: #fff; stroke-width: 0px;"/>
        <ellipse cx="25.68" cy="29.36" rx="1.88" ry=".71" style="fill: #fff; stroke-width: 0px;"/>
        <ellipse cx="13" cy="26.1" rx="1.88" ry=".71" style="fill: #fff; stroke-width: 0px;"/>
        <ellipse cx="13" cy="29.36" rx="1.88" ry=".71" style="fill: #fff; stroke-width: 0px;"/>
        <path d="m.31,28.77s2.16,26.48,107.85,26.31c105.7-.17,100.48-29.69,100.48-29.69,0,0,3.23,16.29-.01,30.2,0,0-5.56,21.02-99.54,24.08,0,0-88.75.38-108.02-23.56L.31,28.77Z" style="fill: #f08953; stroke: #cf6b2a; stroke-miterlimit: 10; stroke-width: .61px;"/>
        <path d="m185.5,69.64c7.67-2.41,12.82-4.92,16.26-7.13v-24.97c-3.42,2.78-8.51,5.7-16.08,8.33l-.18,23.77Z" style="fill: #fff; stroke: #cf6b2a; stroke-miterlimit: 10; stroke-width: .61px;"/>
        <path d="m121.55,54.67c-4.26.12-8.71.19-13.39.2-6.79.01-13.14-.09-19.1-.29v24.51c11.89.62,20.03.59,20.03.59,4.34-.14,8.49-.32,12.46-.54v-24.47Z" style="fill: #fff; stroke: #cf6b2a; stroke-miterlimit: 10; stroke-width: .62px;"/>
        <path d="m7.27,37.92c4.23,2.9,10.25,5.57,17.71,7.91l16.13-4.42c-3.33-.39-10.51-5.4-10.51-5.4l-23.32,1.91Z" style="fill: #fff; stroke: #cf6b2a; stroke-miterlimit: 10; stroke-width: .61px;"/>
        <path d="m7.96,62.08c4.44,2.85,10.02,5.25,16.28,7.25l.24-23.45c-7.52-2.44-12.72-5.08-16.29-7.54l-.23,23.74Z" style="fill: #fff; stroke: #cf6b2a; stroke-miterlimit: 10; stroke-width: .61px;"/>
        <path d="m104.74,9.73c-37.18,0-67.31,7.93-67.31,17.71s30.14,17.71,67.31,17.71,67.31-7.93,67.31-17.71-30.14-17.71-67.31-17.71Zm.31,33.88c-33.39,0-60.46-7.12-60.46-15.91s27.07-15.91,60.46-15.91,60.46,7.12,60.46,15.91-27.07,15.91-60.46,15.91Z" style="fill: #cf6b2a; stroke-width: 0px;"/>
        <path d="m159.75,17.24l-4.88,1.45c3.39,1.3,6.08,2.73,7.9,4.26l4.34-2.17c-1.94-1.26-4.42-2.44-7.36-3.54Z" style="fill: #fff; stroke-width: 0px;"/>
        <path d="m165.51,27.7c0,.85-.26,1.68-.75,2.49l5.68,1.09c1.04-1.24,1.61-2.53,1.61-3.85,0-.48-.09-.95-.23-1.41h-6.65c.22.55.34,1.11.34,1.67Z" style="fill: #fff; stroke-width: 0px;"/>
        <path d="m159.97,34.35c-1.72.99-3.81,1.92-6.23,2.78l.54,2.3c4.64-1.33,8.51-2.84,11.45-4.5l-5.76-.58Z" style="fill: #fff; stroke-width: 0px;"/>
        <path d="m142.62,40.16c-4.04.85-8.5,1.56-13.29,2.11v1.66c5.06-.52,9.81-1.2,14.18-2.01l-.89-1.76Z" style="fill: #fff; stroke-width: 0px;"/>
        <path d="m112.12,45.05v-1.55c-2.32.07-4.68.11-7.08.11s-4.77-.04-7.1-.11l-.05,1.57c2.25.06,4.54.09,6.85.09,2.5,0,4.96-.04,7.38-.11Z" style="fill: #fff; stroke-width: 0px;"/>
        <path d="m80.82,42.28c-4.38-.5-8.49-1.14-12.25-1.89l-.93,1.83c4.1.71,8.52,1.31,13.19,1.78v-1.72Z" style="fill: #fff; stroke-width: 0px;"/>
        <path d="m56.24,37.09c-2.27-.82-4.26-1.69-5.91-2.62l-5.58,1c3.03,1.56,6.91,2.99,11.5,4.25v-2.63Z" style="fill: #fff; stroke-width: 0px;"/>
        <path d="m130.1,13.23c5.17.62,9.94,1.42,14.2,2.38v-2.49c-4.28-.82-8.93-1.51-13.89-2.05l-.31,2.16Z" style="fill: #fff; stroke-width: 0px;"/>
        <path d="m42.05,20.99l5.09,2.13c1.57-1.37,3.82-2.67,6.65-3.86l-2.67-2.53c-3.73,1.29-6.79,2.72-9.08,4.26Z" style="fill: #fff; stroke-width: 0px;"/>
        <path d="m44.59,27.7c0-.36.06-.72.15-1.08l-7.15-.38c-.1.4-.17.79-.17,1.19,0,1.41.65,2.78,1.83,4.1l6.77-.39c-.94-1.11-1.45-2.27-1.45-3.46Z" style="fill: #fff; stroke-width: 0px;"/>
        <path d="m64.69,13.21v2.65c4.3-1.01,9.15-1.87,14.43-2.53l-1.26-2.13c-4.69.54-9.11,1.21-13.17,2Z" style="fill: #fff; stroke-width: 0px;"/>
        <path d="m96.38,9.87v2.09c2.83-.11,5.72-.17,8.67-.17,2.42,0,4.8.04,7.15.11v-2.07c-2.45-.07-4.94-.11-7.46-.11-2.83,0-5.62.05-8.36.14Z" style="fill: #fff; stroke-width: 0px;"/>
      </g>
      <g>
        <path d="m55.53,30.47l.69-1.53h1.97l2.19-5.03-2.31.93.83-1.83,2.92-1.19h2.13l-2.93,7.12h1.97l-.6,1.53h-6.88Zm2.32-5.12l1.74-.69-.48,1.08-.69.24-.58-.64Zm-2.55,5.61h7.41l.79-2.02.78.79-.87,2.31h-6.96l-1.15-1.08Zm9.12-9.15l.66.91-2.27,5.74h-1.09l2.7-6.65Z" style="fill: #fff; stroke-width: 0px;"/>
        <path d="m65.38,32.63h2.84l3.35-3.69.51.81-3.6,4.01h-1.97l-1.13-1.13Zm2.63-3.69h2.97l-2.92,3.19h-2.29l2.24-3.19Z" style="fill: #fff; stroke-width: 0px;"/>
        <path d="m84.34,25.99c-.35,1.71-.99,2.95-1.92,3.67s-2.4,1.1-4.36,1.1-3.24-.37-3.81-1.1-.57-1.96-.06-3.68,1.21-2.81,2.12-3.45,2.26-.95,4.06-.95,2.99.32,3.57.95.73,1.78.38,3.45Zm-.17-3.93l1.02.94c.43.39.7.86.8,1.4s.07,1.29-.11,2.23c-.35,1.85-1.14,3.28-2.38,4.26s-2.94,1.5-5.05,1.5c-.61,0-1.14-.06-1.6-.19s-.81-.31-1.08-.54l-1.08-.99c.28.21.67.36,1.17.45s1.21.14,2.15.14c2.08,0,3.65-.41,4.7-1.24s1.74-2.14,2.1-3.96c.21-1.02.25-1.84.15-2.45s-.37-1.13-.8-1.56Zm-6.8,3.95c-.34,1.26-.43,2.14-.27,2.63s.6.74,1.31.74,1.27-.25,1.69-.75.77-1.38,1.06-2.62.34-2.06.17-2.51-.59-.67-1.26-.67-1.2.22-1.6.66-.76,1.28-1.1,2.51Zm1.04,2.93c-.48-.06-.77-.29-.87-.69s-.01-1.08.24-2.05c.33-1.23.64-2.02.94-2.4s.71-.56,1.23-.56c.36,0,.63.11.81.33s.24.52.18.9c-.16-.11-.3-.18-.42-.23s-.24-.07-.36-.07c-.3,0-.53.09-.69.28s-.34.65-.52,1.39l-.06.25c-.1.38-.18.79-.26,1.26s-.16,1-.22,1.59Z" style="fill: #fff; stroke-width: 0px;"/>
        <path d="m96.96,25.99c-.15,1.71-.65,2.95-1.49,3.67s-2.27,1.1-4.23,1.1-3.28-.37-3.93-1.1-.8-1.96-.49-3.68.88-2.81,1.72-3.45,2.14-.95,3.95-.95,3.02.32,3.69.95.94,1.78.79,3.45Zm-.63-3.93l1.13.94c.47.39.8.86.97,1.4s.22,1.29.15,2.23c-.14,1.85-.76,3.28-1.88,4.26s-2.77,1.5-4.87,1.5c-.61,0-1.15-.06-1.62-.19s-.85-.31-1.14-.54l-1.2-.99c.31.21.72.36,1.22.45s1.23.14,2.17.14c2.08,0,3.6-.41,4.56-1.24s1.49-2.14,1.64-3.96c.09-1.02.04-1.84-.14-2.45s-.51-1.13-.99-1.56Zm-6.34,3.95c-.19,1.26-.18,2.14.04,2.63s.69.74,1.4.74,1.24-.25,1.6-.75.6-1.38.75-2.62.1-2.06-.13-2.51-.67-.67-1.34-.67-1.18.22-1.52.66-.61,1.28-.8,2.51Zm1.39,2.93c-.49-.06-.81-.29-.95-.69s-.14-1.08,0-2.05c.18-1.23.4-2.02.66-2.4s.64-.56,1.17-.56c.36,0,.65.11.85.33s.3.52.29.9c-.17-.11-.32-.18-.45-.23s-.25-.07-.37-.07c-.3,0-.52.09-.66.28s-.26.65-.36,1.39l-.03.25c-.05.38-.09.79-.12,1.26s-.04,1-.04,1.59Z" style="fill: #fff; stroke-width: 0px;"/>
        <path d="m109.59,25.99c.05,1.71-.3,2.95-1.06,3.67s-2.14,1.1-4.1,1.1-3.32-.37-4.06-1.1-1.03-1.96-.92-3.68.55-2.81,1.32-3.45,2.03-.95,3.84-.95,3.06.32,3.8.95,1.14,1.78,1.19,3.45Zm-1.09-3.93l1.24.94c.52.39.9.86,1.13,1.4s.37,1.29.41,2.23c.08,1.85-.37,3.28-1.38,4.26s-2.59,1.5-4.7,1.5c-.61,0-1.16-.06-1.64-.19s-.88-.31-1.2-.54l-1.31-.99c.33.21.76.36,1.27.45s1.25.14,2.18.14c2.08,0,3.55-.41,4.42-1.24s1.24-2.14,1.18-3.96c-.03-1.02-.18-1.84-.43-2.45s-.64-1.13-1.17-1.56Zm-5.88,3.95c-.05,1.26.07,2.14.35,2.63s.78.74,1.49.74,1.21-.25,1.51-.75.44-1.38.44-2.62-.14-2.06-.42-2.51-.75-.67-1.42-.67-1.15.22-1.44.66-.46,1.28-.51,2.51Zm1.73,2.93c-.5-.06-.84-.29-1.03-.69s-.27-1.08-.23-2.05c.04-1.23.17-2.02.38-2.4s.58-.56,1.1-.56c.36,0,.66.11.89.33s.36.52.39.9c-.18-.11-.34-.18-.47-.23s-.26-.07-.37-.07c-.3,0-.51.09-.63.28s-.18.65-.2,1.39v.25c-.01.38,0,.79.03,1.26s.08,1,.15,1.59Z" style="fill: #fff; stroke-width: 0px;"/>
        <path d="m112.28,32.63h2.84l1.83-3.69.84.81-1.95,4.01h-1.97l-1.6-1.13Zm1.12-3.69h2.97l-1.61,3.19h-2.29l.93-3.19Z" style="fill: #fff; stroke-width: 0px;"/>
        <path d="m128.52,25.99c.35,1.71.22,2.95-.41,3.67s-1.94,1.1-3.91,1.1-3.39-.37-4.26-1.1-1.38-1.96-1.57-3.68.06-2.81.71-3.45,1.87-.95,3.67-.95,3.12.32,3.97.95,1.46,1.78,1.8,3.45Zm-1.78-3.93l1.4.94c.59.39,1.05.86,1.37,1.4s.6,1.29.81,2.23c.41,1.85.2,3.28-.63,4.26s-2.33,1.5-4.43,1.5c-.61,0-1.17-.06-1.67-.19s-.94-.31-1.3-.54l-1.49-.99c.37.21.82.36,1.35.45s1.27.14,2.21.14c2.08,0,3.48-.41,4.2-1.24s.86-2.14.48-3.96c-.21-1.02-.5-1.84-.86-2.45s-.84-1.13-1.44-1.56Zm-5.19,3.95c.18,1.26.45,2.14.81,2.63s.91.74,1.62.74,1.17-.25,1.38-.75.2-1.38-.02-2.62-.5-2.06-.86-2.51-.87-.67-1.53-.67-1.11.22-1.33.66-.24,1.28-.07,2.51Zm2.24,2.93c-.51-.06-.89-.29-1.15-.69s-.45-1.08-.59-2.05c-.18-1.23-.19-2.02-.04-2.4s.48-.56,1-.56c.36,0,.68.11.94.33s.45.52.55.9c-.2-.11-.37-.18-.51-.23s-.27-.07-.39-.07c-.3,0-.49.09-.58.28s-.07.65.04,1.39l.04.25c.06.38.14.79.25,1.26s.25,1,.43,1.59Z" style="fill: #fff; stroke-width: 0px;"/>
        <path d="m141.15,25.99c.55,1.71.56,2.95.02,3.67s-1.81,1.1-3.78,1.1-3.43-.37-4.38-1.1-1.61-1.96-2-3.68-.27-2.81.31-3.45,1.76-.95,3.56-.95,3.15.32,4.08.95,1.67,1.78,2.2,3.45Zm-2.24-3.93l1.51.94c.64.39,1.15.86,1.54,1.4s.75,1.29,1.07,2.23c.62,1.85.59,3.28-.13,4.26s-2.15,1.5-4.26,1.5c-.61,0-1.18-.06-1.7-.19s-.97-.31-1.36-.54l-1.6-.99c.39.21.86.36,1.41.45s1.29.14,2.22.14c2.08,0,3.43-.41,4.05-1.24s.61-2.14.02-3.96c-.33-1.02-.72-1.84-1.15-2.45s-.97-1.13-1.62-1.56Zm-4.72,3.95c.32,1.26.7,2.14,1.12,2.63s.99.74,1.7.74,1.14-.25,1.29-.75.04-1.38-.32-2.62-.74-2.06-1.15-2.51-.95-.67-1.61-.67-1.09.22-1.25.66-.09,1.28.23,2.51Zm2.59,2.93c-.52-.06-.93-.29-1.23-.69s-.58-1.08-.83-2.05c-.32-1.23-.43-2.02-.32-2.4s.41-.56.94-.56c.36,0,.69.11.98.33s.51.52.66.9c-.21-.11-.39-.18-.54-.23s-.28-.07-.39-.07c-.3,0-.48.09-.54.28s0,.65.21,1.39l.07.25c.1.38.23.79.4,1.26s.37,1,.62,1.59Z" style="fill: #fff; stroke-width: 0px;"/>
        <path d="m153.77,25.99c.75,1.71.91,2.95.45,3.67s-1.68,1.1-3.65,1.1-3.47-.37-4.51-1.1-1.84-1.96-2.43-3.68-.6-2.81-.1-3.45,1.64-.95,3.45-.95,3.19.32,4.19.95,1.88,1.78,2.61,3.45Zm-2.7-3.93l1.62.94c.68.39,1.25.86,1.7,1.4s.9,1.29,1.33,2.23c.84,1.85.97,3.28.37,4.26s-1.98,1.5-4.08,1.5c-.61,0-1.18-.06-1.72-.19s-1.01-.31-1.43-.54l-1.72-.99c.42.21.91.36,1.46.45s1.3.14,2.24.14c2.08,0,3.38-.41,3.91-1.24s.36-2.14-.45-3.96c-.45-1.02-.93-1.84-1.43-2.45s-1.1-1.13-1.81-1.56Zm-4.26,3.95c.47,1.26.95,2.14,1.43,2.63s1.08.74,1.79.74,1.11-.25,1.21-.75-.12-1.38-.63-2.62-.98-2.06-1.45-2.51-1.02-.67-1.69-.67-1.06.22-1.17.66.06,1.28.52,2.51Zm2.93,2.93c-.52-.06-.96-.29-1.31-.69s-.71-1.08-1.07-2.05c-.46-1.23-.66-2.02-.6-2.4s.35-.56.87-.56c.36,0,.7.11,1.02.33s.57.52.76.9c-.22-.11-.41-.18-.57-.23s-.29-.07-.4-.07c-.3,0-.47.09-.51.28s.08.65.37,1.39l.1.25c.15.38.33.79.55,1.26s.49,1,.8,1.59Z" style="fill: #fff; stroke-width: 0px;"/>
      </g>
    </g>
  </g>
</svg>