<?xml version="1.0" encoding="UTF-8"?>
<svg id="_图层_2" data-name="图层 2" xmlns="http://www.w3.org/2000/svg" viewBox="0 0 210.38 79.98">
  <g id="_图层_7" data-name="图层 7">
    <g>
      <g>
        <path d="m.83,28.84s2.15,26.45,107.59,26.28,100.23-29.65,100.23-29.65c0,0,3.22,16.26-.01,30.16,0,0-5.55,20.99-99.29,24.05,0,0-88.53.38-107.75-23.53l-.76-27.3Z" style="fill: #f08953; stroke: #cf6b2a; stroke-miterlimit: 10; stroke-width: .61px;"/>
        <ellipse cx="105.45" cy="27.98" rx="103.7" ry="27.67" style="fill: #f08953; stroke: #cf6b2a; stroke-miterlimit: 10; stroke-width: .61px;"/>
        <rect x="90.42" y="2.11" width="27.39" height="6.98" style="fill: none; stroke: #fff; stroke-miterlimit: 10; stroke-width: .31px;"/>
        <ellipse cx="99.23" cy="4.15" rx="1.84" ry=".47" style="fill: #fff; stroke-width: 0px;"/>
        <ellipse cx="99.23" cy="5.85" rx="1.84" ry=".47" style="fill: #fff; stroke-width: 0px;"/>
        <ellipse cx="99.34" cy="7.52" rx="1.84" ry=".47" style="fill: #fff; stroke-width: 0px;"/>
        <ellipse cx="112.16" cy="3.97" rx="1.84" ry=".47" style="fill: #fff; stroke-width: 0px;"/>
        <ellipse cx="112.16" cy="5.85" rx="1.84" ry=".47" style="fill: #fff; stroke-width: 0px;"/>
        <ellipse cx="112.16" cy="7.52" rx="1.84" ry=".47" style="fill: #fff; stroke-width: 0px;"/>
        <polygon points="11.9 37.54 36.99 33.99 51.41 40.37 27.96 43.42 11.9 37.54" style="fill: none; stroke: #fff; stroke-miterlimit: 10; stroke-width: .31px;"/>
        <ellipse cx="33.89" cy="36.6" rx="1.94" ry=".57" style="fill: #fff; stroke-width: 0px;"/>
        <ellipse cx="31.34" cy="38.86" rx="1.94" ry=".57" style="fill: #fff; stroke-width: 0px;"/>
        <ellipse cx="29.04" cy="41" rx="1.94" ry=".57" style="fill: #fff; stroke-width: 0px;"/>
        <ellipse cx="22.59" cy="38.29" rx="1.94" ry=".57" style="fill: #fff; stroke-width: 0px;"/>
        <ellipse cx="40.29" cy="39.66" rx="1.94" ry=".57" style="fill: #fff; stroke-width: 0px;"/>
        <path d="m67.71,2.11l7.87,5.82s-18.3,2.19-20.61,3.46l-16.39-4.74s19.53-4.36,29.14-4.54Z" style="fill: #fff; stroke: #cf6b2a; stroke-miterlimit: 10; stroke-width: .61px;"/>
        <path d="m143.64,2.41l-7.87,5.82s18.3,2.19,20.61,3.46l16.39-4.74s-19.53-4.36-29.14-4.54Z" style="fill: #fff; stroke: #cf6b2a; stroke-miterlimit: 10; stroke-width: .61px;"/>
        <path d="m207.22,32.97l-21.97-1.05s2.04-4.28,0-7.13l23.26-.07s1.36,4.3-1.29,8.25Z" style="fill: #fff; stroke: #cf6b2a; stroke-miterlimit: 10; stroke-width: .62px;"/>
        <path d="m156.2,44.9c-2.55,1.15-21.77,3.23-21.77,3.23l7.63,5.31v.28c16.32-.14,24.58-2.31,28.15-3.66l-14.01-5.15Z" style="fill: #fff; stroke: #cf6b2a; stroke-miterlimit: 10; stroke-width: .61px;"/>
        <path d="m142.05,53.71v23.92s17.71-.83,28.54-3.82v-23.62l-.39-.14c-3.57,1.35-11.83,3.52-28.15,3.66Z" style="fill: #fff; stroke: #cf6b2a; stroke-miterlimit: 10; stroke-width: .61px;"/>
        <path d="m68.57,53.09v24.54c-11.08-1.2-20.52-2.92-28.5-4.86v-23.31c7.8,1.49,17.2,2.75,28.5,3.62Z" style="fill: #fff; stroke: #cf6b2a; stroke-miterlimit: 10; stroke-width: .61px;"/>
        <path d="m39.68,49.47h0s15.04-4.57,15.04-4.57c0,0,19.91,3.92,22,3.23,2.09-.69-8.54,4.97-8.54,4.97,0,0-23.06-2.49-28.5-3.63" style="fill: #fff; stroke: #cf6b2a; stroke-miterlimit: 10; stroke-width: .61px;"/>
        <path d="m3.58,32.72l22.39-1.01s-2.08-4.15,0-6.92l-23.71-.07s-1.39,4.17,1.32,8Z" style="fill: #fff; stroke: #cf6b2a; stroke-miterlimit: 10; stroke-width: .61px;"/>
        <path d="m2.26,24.72s-4.16,8.88-.36,31.3c0,0,.18-23.24,1.67-23.3,0,0-1.7-5.84-1.32-8Z" style="fill: #fff; stroke: #cf6b2a; stroke-miterlimit: 10; stroke-width: .61px;"/>
        <path d="m105.24,10.8c-37.02,0-67.02,7.69-67.02,17.17s30.01,17.17,67.02,17.17,67.02-7.69,67.02-17.17-30.01-17.17-67.02-17.17Zm.37,33.17c-34.01,0-61.58-7.18-61.58-16.04s27.57-16.04,61.58-16.04,61.58,7.18,61.58,16.04-27.57,16.04-61.58,16.04Z" style="fill: #cf6b2a; stroke-width: 0px;"/>
        <path d="m160.6,35.16c-1.64.84-3.55,1.64-5.71,2.39l.13,1.92c4.34-1.23,7.98-2.62,10.79-4.14l-5.21-.18Z" style="fill: #fff; stroke-width: 0px;"/>
        <path d="m167.19,28.03c0,1.12-.44,2.21-1.28,3.26l4.92.32c.93-1.14,1.43-2.32,1.43-3.54,0-.4-.06-.79-.16-1.19h-5.07c.1.38.16.76.16,1.14Z" style="fill: #fff; stroke-width: 0px;"/>
        <path d="m131.27,13.43c5.23.62,10.06,1.42,14.38,2.37l.21-1.43c-4.4-.85-9.21-1.57-14.36-2.12l-.23,1.18Z" style="fill: #fff; stroke-width: 0px;"/>
        <path d="m97.5,10.96v1.12c2.65-.09,5.36-.14,8.11-.14s5.65.05,8.39.15v-1.09c-2.87-.1-5.79-.15-8.76-.15-2.62,0-5.2.04-7.74.11Z" style="fill: #fff; stroke-width: 0px;"/>
        <path d="m159.51,17.98l-3.45.84c3.68,1.38,6.56,2.91,8.45,4.56l3.62-1.23c-2.13-1.5-5.05-2.9-8.62-4.16Z" style="fill: #fff; stroke-width: 0px;"/>
        <path d="m44.04,27.93c0-.46.08-.92.23-1.37h-5.82c-.15.47-.23.94-.23,1.41,0,1.29.56,2.54,1.61,3.75l5.55-.46c-.87-1.08-1.33-2.19-1.33-3.33Z" style="fill: #fff; stroke-width: 0px;"/>
        <path d="m56.12,37.48c-2.47-.87-4.61-1.8-6.37-2.79l-5.17.6c2.96,1.61,6.87,3.08,11.54,4.37v-2.18Z" style="fill: #fff; stroke-width: 0px;"/>
        <path d="m81.35,42.68c-4.37-.49-8.47-1.1-12.25-1.83l-1.92,1.26c4.41.78,9.2,1.43,14.28,1.92l-.11-1.36Z" style="fill: #fff; stroke-width: 0px;"/>
        <path d="m112.92,45.04v-1.18c-2.4.07-4.84.11-7.31.11s-4.8-.04-7.14-.11l-.05,1.2c2.24.06,4.51.09,6.81.09,2.6,0,5.16-.04,7.68-.11Z" style="fill: #fff; stroke-width: 0px;"/>
        <path d="m65.88,14.08l-.05,1.62c4.22-.93,8.94-1.72,14.03-2.33l-.9-1.19c-4.65.51-9.03,1.15-13.07,1.9Z" style="fill: #fff; stroke-width: 0px;"/>
        <path d="m43.73,21.14l3.19,1.93c1.75-1.44,4.26-2.78,7.4-4.01l-3.26-1.19c-2.89,1.01-5.35,2.11-7.32,3.28Z" style="fill: #fff; stroke-width: 0px;"/>
        <path d="m142.22,40.83c-3.77.73-7.87,1.34-12.23,1.83v1.27c4.77-.49,9.26-1.11,13.42-1.85l-1.2-1.26Z" style="fill: #fff; stroke-width: 0px;"/>
        <polygon points="90.44 53.37 117.8 53.09 117.8 46.15 90.44 46.15 90.44 53.37" style="fill: none; stroke: #fff; stroke-miterlimit: 10; stroke-width: .31px;"/>
        <ellipse cx="105.61" cy="49.92" rx="2.15" ry=".53" style="fill: #fff; stroke-width: 0px;"/>
        <polygon points="11.9 17.87 25.45 12.02 50.35 15.21 37.09 21.18 11.9 17.87" style="fill: none; stroke: #fff; stroke-miterlimit: 10; stroke-width: .31px;"/>
        <ellipse cx="29.03" cy="14.5" rx="1.94" ry=".57" style="fill: #fff; stroke-width: 0px;"/>
        <ellipse cx="22.77" cy="17.51" rx="1.94" ry=".57" style="fill: #fff; stroke-width: 0px;"/>
        <ellipse cx="33.89" cy="19.04" rx="1.94" ry=".57" style="fill: #fff; stroke-width: 0px;"/>
        <ellipse cx="40.16" cy="16.23" rx="1.94" ry=".57" style="fill: #fff; stroke-width: 0px;"/>
        <polygon points="175.5 21.25 199.06 17.98 186.04 11.9 160.35 14.97 175.5 21.25" style="fill: none; stroke: #fff; stroke-miterlimit: 10; stroke-width: .31px;"/>
        <ellipse cx="171.2" cy="16.24" rx="2.11" ry=".67" style="fill: #fff; stroke-width: 0px;"/>
        <ellipse cx="188.55" cy="17.49" rx="2.11" ry=".67" style="fill: #fff; stroke-width: 0px;"/>
        <polygon points="174.05 33.68 198.37 37.32 185.25 43.36 160.85 39.84 174.05 33.68" style="fill: none; stroke: #fff; stroke-miterlimit: 10; stroke-width: .31px;"/>
        <ellipse cx="177.46" cy="36.56" rx="2.15" ry=".65" style="fill: #fff; stroke-width: 0px;"/>
        <ellipse cx="179.78" cy="38.95" rx="2.15" ry=".65" style="fill: #fff; stroke-width: 0px;"/>
        <ellipse cx="182.15" cy="41.18" rx="2.15" ry=".65" style="fill: #fff; stroke-width: 0px;"/>
        <path d="m207.65,33.84s2.98-4.18,1.31,22.48c0,0,2.51-23.67.01-30.27,0,0-.54,6.72-1.32,7.79Z" style="fill: #fff; stroke: #cf6b2a; stroke-miterlimit: 10; stroke-width: .6px;"/>
      </g>
      <g>
        <path d="m55.4,30.14l.69-1.53h1.97l2.19-5.03-2.31.93.83-1.83,2.92-1.19h2.13l-2.93,7.12h1.97l-.6,1.53h-6.88Zm2.32-5.12l1.74-.69-.48,1.08-.69.24-.58-.64Zm-2.55,5.61h7.41l.79-2.02.78.79-.87,2.31h-6.96l-1.15-1.08Zm9.12-9.15l.66.91-2.27,5.74h-1.09l2.7-6.65Z" style="fill: #fff; stroke-width: 0px;"/>
        <path d="m65.24,32.3h2.84l3.35-3.69.51.81-3.6,4.01h-1.97l-1.13-1.13Zm2.63-3.69h2.97l-2.92,3.19h-2.29l2.24-3.19Z" style="fill: #fff; stroke-width: 0px;"/>
        <path d="m84.2,25.66c-.35,1.71-.99,2.95-1.92,3.67s-2.4,1.1-4.36,1.1-3.24-.37-3.81-1.1-.57-1.96-.06-3.68,1.21-2.81,2.12-3.45,2.26-.95,4.06-.95,2.99.32,3.57.95.73,1.78.38,3.45Zm-.17-3.93l1.02.94c.43.39.7.86.8,1.4s.07,1.29-.11,2.23c-.35,1.85-1.14,3.28-2.38,4.26s-2.94,1.5-5.05,1.5c-.61,0-1.14-.06-1.6-.19s-.81-.31-1.08-.54l-1.08-.99c.28.21.67.36,1.17.45s1.21.14,2.15.14c2.08,0,3.65-.41,4.7-1.24s1.74-2.14,2.1-3.96c.21-1.02.25-1.84.15-2.45s-.37-1.13-.8-1.56Zm-6.8,3.95c-.34,1.26-.43,2.14-.27,2.63s.6.74,1.31.74,1.27-.25,1.69-.75.77-1.38,1.06-2.62.34-2.06.17-2.51-.59-.67-1.26-.67-1.2.22-1.6.66-.76,1.28-1.1,2.51Zm1.04,2.93c-.48-.06-.77-.29-.87-.69s-.01-1.08.24-2.05c.33-1.23.64-2.02.94-2.4s.71-.56,1.23-.56c.36,0,.63.11.81.33s.24.52.18.9c-.16-.11-.3-.18-.42-.23s-.24-.07-.36-.07c-.3,0-.53.09-.69.28s-.34.65-.52,1.39l-.06.25c-.1.38-.18.79-.26,1.26s-.16,1-.22,1.59Z" style="fill: #fff; stroke-width: 0px;"/>
        <path d="m96.83,25.66c-.15,1.71-.65,2.95-1.49,3.67s-2.27,1.1-4.23,1.1-3.28-.37-3.93-1.1-.8-1.96-.49-3.68.88-2.81,1.72-3.45,2.14-.95,3.95-.95,3.02.32,3.69.95.94,1.78.79,3.45Zm-.63-3.93l1.13.94c.47.39.8.86.97,1.4s.22,1.29.15,2.23c-.14,1.85-.76,3.28-1.88,4.26s-2.77,1.5-4.87,1.5c-.61,0-1.15-.06-1.62-.19s-.85-.31-1.14-.54l-1.2-.99c.31.21.72.36,1.22.45s1.23.14,2.17.14c2.08,0,3.6-.41,4.56-1.24s1.49-2.14,1.64-3.96c.09-1.02.04-1.84-.14-2.45s-.51-1.13-.99-1.56Zm-6.34,3.95c-.19,1.26-.18,2.14.04,2.63s.69.74,1.4.74,1.24-.25,1.6-.75.6-1.38.75-2.62.1-2.06-.13-2.51-.67-.67-1.34-.67-1.18.22-1.52.66-.61,1.28-.8,2.51Zm1.39,2.93c-.49-.06-.81-.29-.95-.69s-.14-1.08,0-2.05c.18-1.23.4-2.02.66-2.4s.64-.56,1.17-.56c.36,0,.65.11.85.33s.3.52.29.9c-.17-.11-.32-.18-.45-.23s-.25-.07-.37-.07c-.3,0-.52.09-.66.28s-.26.65-.36,1.39l-.03.25c-.05.38-.09.79-.12,1.26s-.04,1-.04,1.59Z" style="fill: #fff; stroke-width: 0px;"/>
        <path d="m109.45,25.66c.05,1.71-.3,2.95-1.06,3.67s-2.14,1.1-4.1,1.1-3.32-.37-4.06-1.1-1.03-1.96-.92-3.68.55-2.81,1.32-3.45,2.03-.95,3.84-.95,3.06.32,3.8.95,1.14,1.78,1.19,3.45Zm-1.09-3.93l1.24.94c.52.39.9.86,1.13,1.4s.37,1.29.41,2.23c.08,1.85-.37,3.28-1.38,4.26s-2.59,1.5-4.7,1.5c-.61,0-1.16-.06-1.64-.19s-.88-.31-1.2-.54l-1.31-.99c.33.21.76.36,1.27.45s1.25.14,2.18.14c2.08,0,3.55-.41,4.42-1.24s1.24-2.14,1.18-3.96c-.03-1.02-.18-1.84-.43-2.45s-.64-1.13-1.17-1.56Zm-5.88,3.95c-.05,1.26.07,2.14.35,2.63s.78.74,1.49.74,1.21-.25,1.51-.75.44-1.38.44-2.62-.14-2.06-.42-2.51-.75-.67-1.42-.67-1.15.22-1.44.66-.46,1.28-.51,2.51Zm1.73,2.93c-.5-.06-.84-.29-1.03-.69s-.27-1.08-.23-2.05c.04-1.23.17-2.02.38-2.4s.58-.56,1.1-.56c.36,0,.66.11.89.33s.36.52.39.9c-.18-.11-.34-.18-.47-.23s-.26-.07-.37-.07c-.3,0-.51.09-.63.28s-.18.65-.2,1.39v.25c-.01.38,0,.79.03,1.26s.08,1,.15,1.59Z" style="fill: #fff; stroke-width: 0px;"/>
        <path d="m112.15,32.3h2.84l1.83-3.69.84.81-1.95,4.01h-1.97l-1.6-1.13Zm1.12-3.69h2.97l-1.61,3.19h-2.29l.93-3.19Z" style="fill: #fff; stroke-width: 0px;"/>
        <path d="m128.39,25.66c.35,1.71.22,2.95-.41,3.67s-1.94,1.1-3.91,1.1-3.39-.37-4.26-1.1-1.38-1.96-1.57-3.68.06-2.81.71-3.45,1.87-.95,3.67-.95,3.12.32,3.97.95,1.46,1.78,1.8,3.45Zm-1.78-3.93l1.4.94c.59.39,1.05.86,1.37,1.4s.6,1.29.81,2.23c.41,1.85.2,3.28-.63,4.26s-2.33,1.5-4.43,1.5c-.61,0-1.17-.06-1.67-.19s-.94-.31-1.3-.54l-1.49-.99c.37.21.82.36,1.35.45s1.27.14,2.21.14c2.08,0,3.48-.41,4.2-1.24s.86-2.14.48-3.96c-.21-1.02-.5-1.84-.86-2.45s-.84-1.13-1.44-1.56Zm-5.19,3.95c.18,1.26.45,2.14.81,2.63s.91.74,1.62.74,1.17-.25,1.38-.75.2-1.38-.02-2.62-.5-2.06-.86-2.51-.87-.67-1.53-.67-1.11.22-1.33.66-.24,1.28-.07,2.51Zm2.24,2.93c-.51-.06-.89-.29-1.15-.69s-.45-1.08-.59-2.05c-.18-1.23-.19-2.02-.04-2.4s.48-.56,1-.56c.36,0,.68.11.94.33s.45.52.55.9c-.2-.11-.37-.18-.51-.23s-.27-.07-.39-.07c-.3,0-.49.09-.58.28s-.07.65.04,1.39l.04.25c.06.38.14.79.25,1.26s.25,1,.43,1.59Z" style="fill: #fff; stroke-width: 0px;"/>
        <path d="m141.01,25.66c.55,1.71.56,2.95.02,3.67s-1.81,1.1-3.78,1.1-3.43-.37-4.38-1.1-1.61-1.96-2-3.68-.27-2.81.31-3.45,1.76-.95,3.56-.95,3.15.32,4.08.95,1.67,1.78,2.2,3.45Zm-2.24-3.93l1.51.94c.64.39,1.15.86,1.54,1.4s.75,1.29,1.07,2.23c.62,1.85.59,3.28-.13,4.26s-2.15,1.5-4.26,1.5c-.61,0-1.18-.06-1.7-.19s-.97-.31-1.36-.54l-1.6-.99c.39.21.86.36,1.41.45s1.29.14,2.22.14c2.08,0,3.43-.41,4.05-1.24s.61-2.14.02-3.96c-.33-1.02-.72-1.84-1.15-2.45s-.97-1.13-1.62-1.56Zm-4.72,3.95c.32,1.26.7,2.14,1.12,2.63s.99.74,1.7.74,1.14-.25,1.29-.75.04-1.38-.32-2.62-.74-2.06-1.15-2.51-.95-.67-1.61-.67-1.09.22-1.25.66-.09,1.28.23,2.51Zm2.59,2.93c-.52-.06-.93-.29-1.23-.69s-.58-1.08-.83-2.05c-.32-1.23-.43-2.02-.32-2.4s.41-.56.94-.56c.36,0,.69.11.98.33s.51.52.66.9c-.21-.11-.39-.18-.54-.23s-.28-.07-.39-.07c-.3,0-.48.09-.54.28s0,.65.21,1.39l.07.25c.1.38.23.79.4,1.26s.37,1,.62,1.59Z" style="fill: #fff; stroke-width: 0px;"/>
        <path d="m153.63,25.66c.75,1.71.91,2.95.45,3.67s-1.68,1.1-3.65,1.1-3.47-.37-4.51-1.1-1.84-1.96-2.43-3.68-.6-2.81-.1-3.45,1.64-.95,3.45-.95,3.19.32,4.19.95,1.88,1.78,2.61,3.45Zm-2.7-3.93l1.62.94c.68.39,1.25.86,1.7,1.4s.9,1.29,1.33,2.23c.84,1.85.97,3.28.37,4.26s-1.98,1.5-4.08,1.5c-.61,0-1.18-.06-1.72-.19s-1.01-.31-1.43-.54l-1.72-.99c.42.21.91.36,1.46.45s1.3.14,2.24.14c2.08,0,3.38-.41,3.91-1.24s.36-2.14-.45-3.96c-.45-1.02-.93-1.84-1.43-2.45s-1.1-1.13-1.81-1.56Zm-4.26,3.95c.47,1.26.95,2.14,1.43,2.63s1.08.74,1.79.74,1.11-.25,1.21-.75-.12-1.38-.63-2.62-.98-2.06-1.45-2.51-1.02-.67-1.69-.67-1.06.22-1.17.66.06,1.28.52,2.51Zm2.93,2.93c-.52-.06-.96-.29-1.31-.69s-.71-1.08-1.07-2.05c-.46-1.23-.66-2.02-.6-2.4s.35-.56.87-.56c.36,0,.7.11,1.02.33s.57.52.76.9c-.22-.11-.41-.18-.57-.23s-.29-.07-.4-.07c-.3,0-.47.09-.51.28s.08.65.37,1.39l.1.25c.15.38.33.79.55,1.26s.49,1,.8,1.59Z" style="fill: #fff; stroke-width: 0px;"/>
      </g>
    </g>
  </g>
</svg>