<?xml version="1.0" encoding="UTF-8"?>
<svg id="_图层_2" data-name="图层 2" xmlns="http://www.w3.org/2000/svg" viewBox="0 0 210.38 79.93">
  <g id="_图层_7" data-name="图层 7">
    <g>
      <g>
        <ellipse cx="104.67" cy="27.8" rx="104.37" ry="27.55" style="fill: #f08953; stroke: #cf6b2a; stroke-miterlimit: 10; stroke-width: .51px;"/>
        <path d="m104.57,9.57c-36.85,0-66.72,8.05-66.72,17.98s29.87,17.98,66.72,17.98,66.72-8.05,66.72-17.98-29.87-17.98-66.72-17.98Zm.32,33.95c-33.7,0-61.02-7.04-61.02-15.73s27.32-15.73,61.02-15.73,61.02,7.04,61.02,15.73-27.32,15.73-61.02,15.73Z" style="fill: #cf6b2a; stroke-width: 0px;"/>
        <path d="m133.67,41.66c-3.74.52-7.72.94-11.88,1.25l-.3,2.04c5.15-.36,10.06-.89,14.64-1.55-.75-.53-1.66-1.17-2.46-1.74Z" style="fill: #fff; stroke-width: 0px;"/>
        <path d="m157.48,35.77c-2.44,1.07-5.36,2.05-8.67,2.94l.16,2.27c5.09-1.22,9.47-2.65,12.98-4.24l-4.46-.97Z" style="fill: #fff; stroke-width: 0px;"/>
        <path d="m43.87,27.79c0-1.24.55-2.44,1.6-3.59l-6.23-.31c-.91,1.18-1.39,2.41-1.39,3.67,0,.49.08.98.22,1.47h5.98c-.12-.41-.18-.81-.18-1.23Z" style="fill: #fff; stroke-width: 0px;"/>
        <path d="m165.88,28.28c-.21,1.79-1.58,3.5-3.92,5.08l5.48.22c2.2-1.67,3.52-3.45,3.8-5.3h-5.36Z" style="fill: #fff; stroke-width: 0px;"/>
        <path d="m163.66,19.19l-5.07,1.12c2.81,1.34,4.89,2.79,6.1,4.33l5.34-.59c-1.26-1.72-3.43-3.35-6.37-4.86Z" style="fill: #fff; stroke-width: 0px;"/>
        <path d="m136.96,14.4c5.3.85,10.06,1.89,14.12,3.11l-.17-2.9c-3.48-.91-7.32-1.71-11.46-2.4l-2.48,2.19Z" style="fill: #fff; stroke-width: 0px;"/>
        <path d="m104.67,12.06c.07,0,.14,0,.22,0,5.75,0,11.31.21,16.58.59l-.7-2.54c-4.67-.31-9.52-.5-14.52-.53l-1.57,2.49Z" style="fill: #fff; stroke-width: 0px;"/>
        <path d="m47.14,18.39l2.64,2.63c2.7-1.46,6.24-2.79,10.46-3.96l-3.82-1.96c-3.54.99-6.65,2.1-9.28,3.29Z" style="fill: #fff; stroke-width: 0px;"/>
        <path d="m72.24,11.82l-.31,2.73c4.79-.79,10.03-1.42,15.61-1.84l-1.53-2.43c-4.84.38-9.46.9-13.78,1.54Z" style="fill: #fff; stroke-width: 0px;"/>
        <path d="m103.77,43.52c-4.48-.02-8.85-.17-13.04-.42l-1.74,1.95c4.93.32,10.08.49,15.37.49l-.58-2.02Z" style="fill: #fff; stroke-width: 0px;"/>
        <path d="m72.99,41.2c-3.69-.59-7.13-1.27-10.25-2.04l-3.17,1.66c4.23,1.04,8.96,1.94,14.09,2.66l-.66-2.29Z" style="fill: #fff; stroke-width: 0px;"/>
        <path d="m49.4,37.66l2.94-1.88c-2.39-1.04-4.34-2.16-5.75-3.35l-5.5.65c1.97,1.64,4.78,3.18,8.31,4.57Z" style="fill: #fff; stroke-width: 0px;"/>
        <path d="m62.02,9.57l23.45-2.32-5.18-6.23c-10.95.69-21.23,1.84-30.53,3.36l12.26,5.2Z" style="fill: #fff; stroke: #cf6b2a; stroke-miterlimit: 10; stroke-width: .51px;"/>
        <path d="m154.57,3.6l-10.55,5.96s13,1.39,18.89,3.88l17.8-4.51c-7.56-2.12-16.37-3.93-26.14-5.33Z" style="fill: #fff; stroke: #cf6b2a; stroke-miterlimit: 10; stroke-width: .51px;"/>
        <path d="m182.63,33.59l22.04,2.12c2.84-2.5,4.37-5.16,4.37-7.91,0-.08,0-.15-.01-.22l-24.01.22s.29,3.31-2.39,5.78Z" style="fill: #fff; stroke: #cf6b2a; stroke-miterlimit: 10; stroke-width: .51px;"/>
        <path d="m146.99,46.27c-12.92,2.93-23.26,2.42-23.26,2.42l4.82,5.94c10.56-.65,20.5-1.73,29.56-3.16l-11.12-5.2Z" style="fill: #fff; stroke: #cf6b2a; stroke-miterlimit: 10; stroke-width: .51px;"/>
        <path d="m31.18,47.12c7.39,1.95,15.89,3.6,25.22,4.9l9.68-5.4c-9.26-.29-19.16-3.71-19.16-3.71l-15.74,4.21Z" style="fill: #fff; stroke: #cf6b2a; stroke-miterlimit: 10; stroke-width: .51px;"/>
        <path d="m.31,27.8c0,.2.01.39.03.59l24.31-.17s.24-3.86,3.3-5.91l-23.98-1.76c-2.38,2.31-3.66,4.74-3.66,7.25Z" style="fill: #fff; stroke: #cf6b2a; stroke-miterlimit: 10; stroke-width: .51px;"/>
        <path d="m.31,28.42s2.16,26.64,107.85,26.47c105.7-.17,100.48-29.87,100.48-29.87,0,0,3.23,16.38-.01,30.38,0,0-5.56,21.14-99.54,24.22,0,0-88.75.38-108.02-23.7L.31,28.42Z" style="fill: #fff; opacity: .5; stroke: #231815; stroke-miterlimit: 10; stroke-width: .61px;"/>
        <path d="m.31,28.42s2.16,26.64,107.85,26.47c105.7-.17,100.48-29.87,100.48-29.87,0,0,3.23,16.38-.01,30.38,0,0-5.56,21.14-99.54,24.22,0,0-88.75.38-108.02-23.7L.31,28.42Z" style="fill: #f08953; stroke: #cf6b2a; stroke-miterlimit: 10; stroke-width: .61px;"/>
        <path d="m55.83,52.14c-10.08-1.33-18.23-3.05-24.82-4.96-.22,1.93-.07,17.04.01,23.64,7.77,2.24,16.33,3.91,24.81,5.16v-23.83Z" style="fill: #fff; stroke: #cf6b2a; stroke-miterlimit: 10; stroke-width: .6px;"/>
        <polygon points="81.24 46.27 109.82 47.18 107.3 53.96 77.22 53.23 81.24 46.27" style="fill: none; stroke: #fff; stroke-miterlimit: 10; stroke-width: .16px;"/>
        <ellipse cx="101.03" cy="48.43" rx="1.61" ry=".49" style="fill: #fff; stroke-width: 0px;"/>
        <ellipse cx="99.31" cy="51.8" rx="1.61" ry=".49" style="fill: #fff; stroke-width: 0px;"/>
        <ellipse cx="93.92" cy="49.89" rx="1.61" ry=".49" style="fill: #fff; stroke-width: 0px;"/>
        <ellipse cx="88.22" cy="47.94" rx="1.61" ry=".49" style="fill: #fff; stroke-width: 0px;"/>
        <ellipse cx="86.62" cy="51.32" rx="1.61" ry=".49" style="fill: #fff; stroke-width: 0px;"/>
        <ellipse cx="29.55" cy="34.07" rx="1.61" ry=".49" style="fill: #fff; stroke-width: 0px;"/>
        <ellipse cx="34.24" cy="37.04" rx="1.61" ry=".49" style="fill: #fff; stroke-width: 0px;"/>
        <ellipse cx="22.61" cy="38.35" rx="1.61" ry=".49" style="fill: #fff; stroke-width: 0px;"/>
        <ellipse cx="17.68" cy="35.07" rx="1.61" ry=".49" style="fill: #fff; stroke-width: 0px;"/>
        <polygon points="9.4 34.07 19.29 40.93 45.01 38.35 34.76 31.21 9.4 34.07" style="fill: none; stroke: #fff; stroke-miterlimit: 10; stroke-width: .16px;"/>
        <ellipse cx="38.27" cy="16.12" rx="1.61" ry=".49" style="fill: #fff; stroke-width: 0px;"/>
        <ellipse cx="33.1" cy="15.1" rx="1.61" ry=".49" style="fill: #fff; stroke-width: 0px;"/>
        <ellipse cx="28.14" cy="14.13" rx="1.61" ry=".49" style="fill: #fff; stroke-width: 0px;"/>
        <ellipse cx="35.85" cy="11.47" rx="1.61" ry=".49" style="fill: #fff; stroke-width: 0px;"/>
        <ellipse cx="40.89" cy="12.44" rx="1.61" ry=".49" style="fill: #fff; stroke-width: 0px;"/>
        <ellipse cx="45.98" cy="13.41" rx="1.61" ry=".49" style="fill: #fff; stroke-width: 0px;"/>
        <polygon points="18.1 13.89 39.88 18.39 55.62 12.68 33.6 8.72 18.1 13.89" style="fill: none; stroke: #fff; stroke-miterlimit: 10; stroke-width: .16px;"/>
        <path d="m102.96,1.01l-3.54,6.98,27.04,1.03s3.35-6.98,3.35-7.08-26.85-.92-26.85-.92Z" style="fill: none; stroke: #fff; stroke-miterlimit: 10; stroke-width: .16px;"/>
        <ellipse cx="108.65" cy="6.6" rx="1.61" ry=".49" style="fill: #fff; stroke-width: 0px;"/>
        <ellipse cx="123.07" cy="3.68" rx="1.61" ry=".49" style="fill: #fff; stroke-width: 0px;"/>
        <ellipse cx="175.28" cy="17.99" rx="1.61" ry=".49" style="fill: #fff; stroke-width: 0px;"/>
        <ellipse cx="183.6" cy="18.68" rx="1.61" ry=".49" style="fill: #fff; stroke-width: 0px;"/>
        <ellipse cx="191.94" cy="19.68" rx="1.61" ry=".49" style="fill: #fff; stroke-width: 0px;"/>
        <polygon points="166.59 16.49 191.36 13.85 202.49 20.16 176.88 23.38 166.59 16.49" style="fill: none; stroke: #fff; stroke-miterlimit: 10; stroke-width: .16px;"/>
        <polygon points="153.14 41.57 169.65 35.77 191.67 40.15 175.4 45.77 153.14 41.57" style="fill: none; stroke: #fff; stroke-miterlimit: 10; stroke-width: .16px;"/>
        <ellipse cx="172.4" cy="41.25" rx="1.61" ry=".49" style="fill: #fff; stroke-width: 0px;"/>
        <path d="m128.81,78.61c11.33-.8,21.02-1.92,29.3-3.22v-23.67c-8.28,1.23-17.97,2.17-29.3,2.69v24.19Z" style="fill: #fff; stroke: #cf6b2a; stroke-miterlimit: 10; stroke-width: .61px;"/>
        <path d="m208.45,27.63c-.41,1.84-1.5,4.49-4.32,7.43.6,3.23,1.68,11.59.3,25.37,3.64-2.94,4.18-5.02,4.18-5.02.06-.25.11-.5.16-.74.13-7,.28-20.29-.33-27.04Z" style="fill: #fff; stroke: #cf6b2a; stroke-miterlimit: 10; stroke-width: .61px;"/>
      </g>
      <g>
        <path d="m54.42,29.24l.69-1.53h1.97l2.19-5.03-2.31.93.83-1.83,2.92-1.19h2.13l-2.93,7.12h1.97l-.6,1.53h-6.88Zm2.32-5.12l1.74-.69-.48,1.08-.69.24-.58-.64Zm-2.55,5.61h7.41l.79-2.02.78.79-.87,2.31h-6.96l-1.15-1.08Zm9.12-9.15l.66.91-2.27,5.74h-1.09l2.7-6.65Z" style="fill: #fff; stroke-width: 0px;"/>
        <path d="m64.27,31.41h2.84l3.35-3.69.51.81-3.6,4.01h-1.97l-1.13-1.13Zm2.63-3.69h2.97l-2.92,3.19h-2.29l2.24-3.19Z" style="fill: #fff; stroke-width: 0px;"/>
        <path d="m83.23,24.76c-.35,1.71-.99,2.95-1.92,3.67s-2.4,1.1-4.36,1.1-3.24-.37-3.81-1.1-.57-1.96-.06-3.68,1.21-2.81,2.12-3.45,2.26-.95,4.06-.95,2.99.32,3.57.95.73,1.78.38,3.45Zm-.17-3.93l1.02.94c.43.39.7.86.8,1.4s.07,1.29-.11,2.23c-.35,1.85-1.14,3.28-2.38,4.26s-2.94,1.5-5.05,1.5c-.61,0-1.14-.06-1.6-.19s-.81-.31-1.08-.54l-1.08-.99c.28.21.67.36,1.17.45s1.21.14,2.15.14c2.08,0,3.65-.41,4.7-1.24s1.74-2.14,2.1-3.96c.21-1.02.25-1.84.15-2.45s-.37-1.13-.8-1.56Zm-6.8,3.95c-.34,1.26-.43,2.14-.27,2.63s.6.74,1.31.74,1.27-.25,1.69-.75.77-1.38,1.06-2.62.34-2.06.17-2.51-.59-.67-1.26-.67-1.2.22-1.6.66-.76,1.28-1.1,2.51Zm1.04,2.93c-.48-.06-.77-.29-.87-.69s-.01-1.08.24-2.05c.33-1.23.64-2.02.94-2.4s.71-.56,1.23-.56c.36,0,.63.11.81.33s.24.52.18.9c-.16-.11-.3-.18-.42-.23s-.24-.07-.36-.07c-.3,0-.53.09-.69.28s-.34.65-.52,1.39l-.06.25c-.1.38-.18.79-.26,1.26s-.16,1-.22,1.59Z" style="fill: #fff; stroke-width: 0px;"/>
        <path d="m95.85,24.76c-.15,1.71-.65,2.95-1.49,3.67s-2.27,1.1-4.23,1.1-3.28-.37-3.93-1.1-.8-1.96-.49-3.68.88-2.81,1.72-3.45,2.14-.95,3.95-.95,3.02.32,3.69.95.94,1.78.79,3.45Zm-.63-3.93l1.13.94c.47.39.8.86.97,1.4s.22,1.29.15,2.23c-.14,1.85-.76,3.28-1.88,4.26s-2.77,1.5-4.87,1.5c-.61,0-1.15-.06-1.62-.19s-.85-.31-1.14-.54l-1.2-.99c.31.21.72.36,1.22.45s1.23.14,2.17.14c2.08,0,3.6-.41,4.56-1.24s1.49-2.14,1.64-3.96c.09-1.02.04-1.84-.14-2.45s-.51-1.13-.99-1.56Zm-6.34,3.95c-.19,1.26-.18,2.14.04,2.63s.69.74,1.4.74,1.24-.25,1.6-.75.6-1.38.75-2.62.1-2.06-.13-2.51-.67-.67-1.34-.67-1.18.22-1.52.66-.61,1.28-.8,2.51Zm1.39,2.93c-.49-.06-.81-.29-.95-.69s-.14-1.08,0-2.05c.18-1.23.4-2.02.66-2.4s.64-.56,1.17-.56c.36,0,.65.11.85.33s.3.52.29.9c-.17-.11-.32-.18-.45-.23s-.25-.07-.37-.07c-.3,0-.52.09-.66.28s-.26.65-.36,1.39l-.03.25c-.05.38-.09.79-.12,1.26s-.04,1-.04,1.59Z" style="fill: #fff; stroke-width: 0px;"/>
        <path d="m108.48,24.76c.05,1.71-.3,2.95-1.06,3.67s-2.14,1.1-4.1,1.1-3.32-.37-4.06-1.1-1.03-1.96-.92-3.68.55-2.81,1.32-3.45,2.03-.95,3.84-.95,3.06.32,3.8.95,1.14,1.78,1.19,3.45Zm-1.09-3.93l1.24.94c.52.39.9.86,1.13,1.4s.37,1.29.41,2.23c.08,1.85-.37,3.28-1.38,4.26s-2.59,1.5-4.7,1.5c-.61,0-1.16-.06-1.64-.19s-.88-.31-1.2-.54l-1.31-.99c.33.21.76.36,1.27.45s1.25.14,2.18.14c2.08,0,3.55-.41,4.42-1.24s1.24-2.14,1.18-3.96c-.03-1.02-.18-1.84-.43-2.45s-.64-1.13-1.17-1.56Zm-5.88,3.95c-.05,1.26.07,2.14.35,2.63s.78.74,1.49.74,1.21-.25,1.51-.75.44-1.38.44-2.62-.14-2.06-.42-2.51-.75-.67-1.42-.67-1.15.22-1.44.66-.46,1.28-.51,2.51Zm1.73,2.93c-.5-.06-.84-.29-1.03-.69s-.27-1.08-.23-2.05c.04-1.23.17-2.02.38-2.4s.58-.56,1.1-.56c.36,0,.66.11.89.33s.36.52.39.9c-.18-.11-.34-.18-.47-.23s-.26-.07-.37-.07c-.3,0-.51.09-.63.28s-.18.65-.2,1.39v.25c-.01.38,0,.79.03,1.26s.08,1,.15,1.59Z" style="fill: #fff; stroke-width: 0px;"/>
        <path d="m111.17,31.41h2.84l1.83-3.69.84.81-1.95,4.01h-1.97l-1.6-1.13Zm1.12-3.69h2.97l-1.61,3.19h-2.29l.93-3.19Z" style="fill: #fff; stroke-width: 0px;"/>
        <path d="m127.41,24.76c.35,1.71.22,2.95-.41,3.67s-1.94,1.1-3.91,1.1-3.39-.37-4.26-1.1-1.38-1.96-1.57-3.68.06-2.81.71-3.45,1.87-.95,3.67-.95,3.12.32,3.97.95,1.46,1.78,1.8,3.45Zm-1.78-3.93l1.4.94c.59.39,1.05.86,1.37,1.4s.6,1.29.81,2.23c.41,1.85.2,3.28-.63,4.26s-2.33,1.5-4.43,1.5c-.61,0-1.17-.06-1.67-.19s-.94-.31-1.3-.54l-1.49-.99c.37.21.82.36,1.35.45s1.27.14,2.21.14c2.08,0,3.48-.41,4.2-1.24s.86-2.14.48-3.96c-.21-1.02-.5-1.84-.86-2.45s-.84-1.13-1.44-1.56Zm-5.19,3.95c.18,1.26.45,2.14.81,2.63s.91.74,1.62.74,1.17-.25,1.38-.75.2-1.38-.02-2.62-.5-2.06-.86-2.51-.87-.67-1.53-.67-1.11.22-1.33.66-.24,1.28-.07,2.51Zm2.24,2.93c-.51-.06-.89-.29-1.15-.69s-.45-1.08-.59-2.05c-.18-1.23-.19-2.02-.04-2.4s.48-.56,1-.56c.36,0,.68.11.94.33s.45.52.55.9c-.2-.11-.37-.18-.51-.23s-.27-.07-.39-.07c-.3,0-.49.09-.58.28s-.07.65.04,1.39l.04.25c.06.38.14.79.25,1.26s.25,1,.43,1.59Z" style="fill: #fff; stroke-width: 0px;"/>
        <path d="m140.04,24.76c.55,1.71.56,2.95.02,3.67s-1.81,1.1-3.78,1.1-3.43-.37-4.38-1.1-1.61-1.96-2-3.68-.27-2.81.31-3.45,1.76-.95,3.56-.95,3.15.32,4.08.95,1.67,1.78,2.2,3.45Zm-2.24-3.93l1.51.94c.64.39,1.15.86,1.54,1.4s.75,1.29,1.07,2.23c.62,1.85.59,3.28-.13,4.26s-2.15,1.5-4.26,1.5c-.61,0-1.18-.06-1.7-.19s-.97-.31-1.36-.54l-1.6-.99c.39.21.86.36,1.41.45s1.29.14,2.22.14c2.08,0,3.43-.41,4.05-1.24s.61-2.14.02-3.96c-.33-1.02-.72-1.84-1.15-2.45s-.97-1.13-1.62-1.56Zm-4.72,3.95c.32,1.26.7,2.14,1.12,2.63s.99.74,1.7.74,1.14-.25,1.29-.75.04-1.38-.32-2.62-.74-2.06-1.15-2.51-.95-.67-1.61-.67-1.09.22-1.25.66-.09,1.28.23,2.51Zm2.59,2.93c-.52-.06-.93-.29-1.23-.69s-.58-1.08-.83-2.05c-.32-1.23-.43-2.02-.32-2.4s.41-.56.94-.56c.36,0,.69.11.98.33s.51.52.66.9c-.21-.11-.39-.18-.54-.23s-.28-.07-.39-.07c-.3,0-.48.09-.54.28s0,.65.21,1.39l.07.25c.1.38.23.79.4,1.26s.37,1,.62,1.59Z" style="fill: #fff; stroke-width: 0px;"/>
        <path d="m152.66,24.76c.75,1.71.91,2.95.45,3.67s-1.68,1.1-3.65,1.1-3.47-.37-4.51-1.1-1.84-1.96-2.43-3.68-.6-2.81-.1-3.45,1.64-.95,3.45-.95,3.19.32,4.19.95,1.88,1.78,2.61,3.45Zm-2.7-3.93l1.62.94c.68.39,1.25.86,1.7,1.4s.9,1.29,1.33,2.23c.84,1.85.97,3.28.37,4.26s-1.98,1.5-4.08,1.5c-.61,0-1.18-.06-1.72-.19s-1.01-.31-1.43-.54l-1.72-.99c.42.21.91.36,1.46.45s1.3.14,2.24.14c2.08,0,3.38-.41,3.91-1.24s.36-2.14-.45-3.96c-.45-1.02-.93-1.84-1.43-2.45s-1.1-1.13-1.81-1.56Zm-4.26,3.95c.47,1.26.95,2.14,1.43,2.63s1.08.74,1.79.74,1.11-.25,1.21-.75-.12-1.38-.63-2.62-.98-2.06-1.45-2.51-1.02-.67-1.69-.67-1.06.22-1.17.66.06,1.28.52,2.51Zm2.93,2.93c-.52-.06-.96-.29-1.31-.69s-.71-1.08-1.07-2.05c-.46-1.23-.66-2.02-.6-2.4s.35-.56.87-.56c.36,0,.7.11,1.02.33s.57.52.76.9c-.22-.11-.41-.18-.57-.23s-.29-.07-.4-.07c-.3,0-.47.09-.51.28s.08.65.37,1.39l.1.25c.15.38.33.79.55,1.26s.49,1,.8,1.59Z" style="fill: #fff; stroke-width: 0px;"/>
      </g>
    </g>
  </g>
</svg>