<?xml version="1.0" encoding="UTF-8"?>
<svg id="_图层_2" data-name="图层 2" xmlns="http://www.w3.org/2000/svg" viewBox="0 0 210.38 79.98">
  <g id="_图层_7" data-name="图层 7">
    <g>
      <g>
        <ellipse cx="104.67" cy="28.13" rx="104.37" ry="27.82" style="fill: #f08953; stroke: #cf6b2a; stroke-miterlimit: 10; stroke-width: .62px;"/>
        <path d="m104.46,9.8c-36.85,0-66.72,7.99-66.72,17.85s29.87,17.85,66.72,17.85,66.72-7.99,66.72-17.85-29.87-17.85-66.72-17.85Zm.32,33.7c-33.7,0-61.02-6.99-61.02-15.62s27.32-15.62,61.02-15.62,61.02,6.99,61.02,15.62-27.32,15.62-61.02,15.62Z" style="fill: #cf6b2a; stroke-width: 0px;"/>
        <path d="m45.57,36.05l3.36-1.86c-1.86-1.08-3.26-2.22-4.13-3.42l-5.89.22c1.27,1.8,3.54,3.5,6.67,5.06Z" style="fill: #fff; stroke-width: 0px;"/>
        <path d="m66.71,40.09c-3.34-.68-6.39-1.45-9.11-2.3l-4.07,1.39c3.84,1.21,8.27,2.29,13.18,3.19v-2.28Z" style="fill: #fff; stroke-width: 0px;"/>
        <path d="m95.24,43.31c-4.33-.17-8.5-.46-12.48-.86l-1.8,1.91c4.86.49,10,.83,15.33,1.01l-1.05-2.06Z" style="fill: #fff; stroke-width: 0px;"/>
        <path d="m126.39,42.49c-3.96.38-8.11.67-12.4.83l-.92,2.03c5.27-.18,10.35-.53,15.17-1.02l-1.84-1.84Z" style="fill: #fff; stroke-width: 0px;"/>
        <path d="m151.47,37.94c-2.64.8-5.58,1.54-8.79,2.19v2.16c4.64-.87,8.84-1.89,12.51-3.04l-3.71-1.31Z" style="fill: #fff; stroke-width: 0px;"/>
        <path d="m164.67,30.87c.73-.97,1.12-1.97,1.12-2.99,0-8.62-27.32-15.62-61.02-15.62s-61.02,6.99-61.02,15.62,27.32,15.62,61.02,15.62c25.16,0,46.75-3.9,56.09-9.46,1.69-1.01,2.98-2.07,3.81-3.17Z" style="fill: none; stroke-width: 0px;"/>
        <path d="m160.86,34.04l2.32,2.09c3.27-1.62,5.63-3.39,6.91-5.26h-5.42c-.83,1.1-2.12,2.16-3.81,3.17Z" style="fill: #fff; stroke-width: 0px;"/>
        <path d="m167.94,22.15l-6.12.19c2.38,1.6,3.77,3.33,3.95,5.14l5.39-.25c-.15-1.77-1.27-3.48-3.22-5.09Z" style="fill: #fff; stroke-width: 0px;"/>
        <path d="m37.74,27.51l6.05-.17c.23-1.71,1.52-3.34,3.72-4.86l-6.3-.53c-2.2,1.75-3.42,3.62-3.48,5.56Z" style="fill: #fff; stroke-width: 0px;"/>
        <path d="m52.79,16.36l.31,3.22c3.5-1.42,7.87-2.69,12.93-3.76l-3.84-1.98c-3.43.75-6.58,1.6-9.4,2.52Z" style="fill: #fff; stroke-width: 0px;"/>
        <path d="m81.05,10.93l-.96,2.67c4.95-.56,10.24-.96,15.77-1.17l-1.35-2.44c-4.66.19-9.17.5-13.46.93Z" style="fill: #fff; stroke-width: 0px;"/>
        <path d="m113.96,12.45c5.57.22,10.9.62,15.87,1.2l-.46-2.56c-4.42-.48-9.07-.83-13.9-1.04-.42.67-.99,1.58-1.5,2.41Z" style="fill: #fff; stroke-width: 0px;"/>
        <path d="m143.92,15.91c5.01,1.07,9.33,2.35,12.78,3.77l.53-2.96c-2.89-1-6.16-1.91-9.76-2.72l-3.55,1.91Z" style="fill: #fff; stroke-width: 0px;"/>
        <path d="m116.14.31l-2.72,6.98s22.44.87,24.84,1.75l11.12-6.33c-10.28-1.26-21.47-2.09-33.23-2.4Z" style="fill: #fff; stroke: #cf6b2a; stroke-miterlimit: 10; stroke-width: .51px;"/>
        <path d="m40.54,15.82s12.3-4.31,16.18-4.31l-13.89-5.7c-8.57,1.69-16.11,3.72-22.36,6.01l20.07,4.01Z" style="fill: #fff; stroke: #cf6b2a; stroke-miterlimit: 10; stroke-width: .51px;"/>
        <path d="m208.53,25.48c-.87-2.68-3.19-5.26-6.76-7.66l-23.6,2.34s6.03,3.56,5.82,5.74l24.55-.42Z" style="fill: #fff; stroke: #cf6b2a; stroke-miterlimit: 10; stroke-width: .51px;"/>
        <path d="m170.34,41.16s-6.47,3.2-17.74,4.62l12.67,5.15c8.83-1.67,16.69-3.68,23.32-5.96l-18.25-3.8Z" style="fill: #fff; stroke: #cf6b2a; stroke-miterlimit: 10; stroke-width: .54px;"/>
        <path d="m72.11,48.05l-9.13,4.95c9.71,1.13,20.2,1.89,31.2,2.18l2.11-5.54c-11,.36-24.18-1.6-24.18-1.6Z" style="fill: #fff; stroke: #cf6b2a; stroke-miterlimit: 10; stroke-width: .51px;"/>
        <path d="m1.88,31.57c1.37,2.66,4.17,5.21,8.21,7.57l20.24-2.68-5.36-5.48-23.09.59Z" style="fill: #fff; stroke: #cf6b2a; stroke-miterlimit: 10; stroke-width: .51px;"/>
        <path d="m.31,28.63s2.16,26.56,107.85,26.39c105.7-.17,100.48-29.78,100.48-29.78,0,0,3.23,16.33-.01,30.29,0,0-5.56,21.08-99.54,24.15,0,0-88.75.38-108.02-23.63L.31,28.63Z" style="fill: #f08953; stroke: #cf6b2a; stroke-miterlimit: 10; stroke-width: .61px;"/>
        <ellipse cx="191.57" cy="35.65" rx="1.61" ry=".48" style="fill: #fff; stroke-width: 0px;"/>
        <ellipse cx="187.09" cy="33.7" rx="1.61" ry=".48" style="fill: #fff; stroke-width: 0px;"/>
        <ellipse cx="182.66" cy="31.62" rx="1.61" ry=".48" style="fill: #fff; stroke-width: 0px;"/>
        <ellipse cx="126.42" cy="49.42" rx="1.61" ry=".48" style="fill: #fff; stroke-width: 0px;"/>
        <ellipse cx="44.15" cy="43.62" rx="1.61" ry=".48" style="fill: #fff; stroke-width: 0px;"/>
        <ellipse cx="44.25" cy="41.29" rx="1.61" ry=".48" style="fill: #fff; stroke-width: 0px;"/>
        <ellipse cx="53.19" cy="43.62" rx="1.61" ry=".48" style="fill: #fff; stroke-width: 0px;"/>
        <ellipse cx="44.15" cy="45.95" rx="1.61" ry=".48" style="fill: #fff; stroke-width: 0px;"/>
        <ellipse cx="35.21" cy="43.5" rx="1.61" ry=".48" style="fill: #fff; stroke-width: 0px;"/>
        <ellipse cx="26.82" cy="24" rx="1.61" ry=".48" style="fill: #fff; stroke-width: 0px;"/>
        <ellipse cx="30.03" cy="20.72" rx="1.61" ry=".48" style="fill: #fff; stroke-width: 0px;"/>
        <ellipse cx="17.8" cy="19.91" rx="1.61" ry=".48" style="fill: #fff; stroke-width: 0px;"/>
        <ellipse cx="14.58" cy="23.2" rx="1.61" ry=".48" style="fill: #fff; stroke-width: 0px;"/>
        <ellipse cx="75.04" cy="4.98" rx="1.61" ry=".48" style="fill: #fff; stroke-width: 0px;"/>
        <ellipse cx="76.9" cy="6.65" rx="1.61" ry=".48" style="fill: #fff; stroke-width: 0px;"/>
        <ellipse cx="78.39" cy="8.2" rx="1.61" ry=".48" style="fill: #fff; stroke-width: 0px;"/>
        <ellipse cx="87.31" cy="4.2" rx="1.61" ry=".48" style="fill: #fff; stroke-width: 0px;"/>
        <ellipse cx="89.15" cy="5.8" rx="1.61" ry=".48" style="fill: #fff; stroke-width: 0px;"/>
        <ellipse cx="90.75" cy="7.4" rx="1.61" ry=".48" style="fill: #fff; stroke-width: 0px;"/>
        <ellipse cx="174.28" cy="12.02" rx="1.61" ry=".48" style="fill: #fff; stroke-width: 0px;"/>
        <ellipse cx="156.2" cy="12.02" rx="1.61" ry=".48" style="fill: #fff; stroke-width: 0px;"/>
        <polygon points="74.32 10.3 100.84 8.68 93.66 1.62 66.02 3.51 74.32 10.3" style="fill: none; stroke: #fff; stroke-miterlimit: 10; stroke-width: .31px;"/>
        <polygon points="11.69 17.37 4.37 24.48 31.01 26.03 37.5 19.12 11.69 17.37" style="fill: none; stroke: #fff; stroke-miterlimit: 10; stroke-width: .31px;"/>
        <polygon points="23.98 43.5 44.15 38.46 62.98 43.02 44.25 48.35 23.98 43.5" style="fill: none; stroke: #fff; stroke-miterlimit: 10; stroke-width: .31px;"/>
        <polygon points="111.55 46.46 117.79 53.22 144.28 51.62 137.61 45.01 111.55 46.46" style="fill: none; stroke: #fff; stroke-miterlimit: 10; stroke-width: .31px;"/>
        <polygon points="169.78 35.65 196 37.94 202.46 30.87 176.62 29.23 169.78 35.65" style="fill: none; stroke: #fff; stroke-miterlimit: 10; stroke-width: .31px;"/>
        <polygon points="165.1 16.85 184.09 11.54 166.07 6.87 146.4 11.54 165.1 16.85" style="fill: none; stroke: #fff; stroke-miterlimit: 10; stroke-width: .31px;"/>
        <path d="m62.98,76.81c11.54,1.43,22.57,2.15,30.88,2.51v-24.45c-11.76-.28-21.99-.96-30.88-1.91v23.86Z" style="fill: #fff; stroke: #cf6b2a; stroke-miterlimit: 10; stroke-width: .6px;"/>
        <path d="m165.48,74.4c9.72-1.76,17.26-3.77,23.11-5.81l-.23-23.8c-5.82,2.26-13.29,4.36-22.89,6.06v23.56Z" style="fill: #fff; stroke: #cf6b2a; stroke-miterlimit: 10; stroke-width: .61px;"/>
        <path d="m10.07,39.44c-4.55-2.78-6.99-5.42-8.29-7.39-1.04,5.5-.02,24.68-.01,24.83,2.01,2.27,4.66,4.31,7.79,6.14-.52-10.81.35-21.71.5-23.58Z" style="fill: #fff; stroke: #cf6b2a; stroke-miterlimit: 10; stroke-width: .61px;"/>
      </g>
      <g>
        <path d="m56.21,30.62l.69-1.53h1.97l2.19-5.03-2.31.93.83-1.83,2.92-1.19h2.13l-2.93,7.12h1.97l-.6,1.53h-6.88Zm2.32-5.12l1.74-.69-.48,1.08-.69.24-.58-.64Zm-2.55,5.61h7.41l.79-2.02.78.79-.87,2.31h-6.96l-1.15-1.08Zm9.12-9.15l.66.91-2.27,5.74h-1.09l2.7-6.65Z" style="fill: #fff; stroke-width: 0px;"/>
        <path d="m66.05,32.78h2.84l3.35-3.69.51.81-3.6,4.01h-1.97l-1.13-1.13Zm2.63-3.69h2.97l-2.92,3.19h-2.29l2.24-3.19Z" style="fill: #fff; stroke-width: 0px;"/>
        <path d="m85.02,26.14c-.35,1.71-.99,2.95-1.92,3.67s-2.4,1.1-4.36,1.1-3.24-.37-3.81-1.1-.57-1.96-.06-3.68,1.21-2.81,2.12-3.45,2.26-.95,4.06-.95,2.99.32,3.57.95.73,1.78.38,3.45Zm-.17-3.93l1.02.94c.43.39.7.86.8,1.4s.07,1.29-.11,2.23c-.35,1.85-1.14,3.28-2.38,4.26s-2.94,1.5-5.05,1.5c-.61,0-1.14-.06-1.6-.19s-.81-.31-1.08-.54l-1.08-.99c.28.21.67.36,1.17.45s1.21.14,2.15.14c2.08,0,3.65-.41,4.7-1.24s1.74-2.14,2.1-3.96c.21-1.02.25-1.84.15-2.45s-.37-1.13-.8-1.56Zm-6.8,3.95c-.34,1.26-.43,2.14-.27,2.63s.6.74,1.31.74,1.27-.25,1.69-.75.77-1.38,1.06-2.62.34-2.06.17-2.51-.59-.67-1.26-.67-1.2.22-1.6.66-.76,1.28-1.1,2.51Zm1.04,2.93c-.48-.06-.77-.29-.87-.69s-.01-1.08.24-2.05c.33-1.23.64-2.02.94-2.4s.71-.56,1.23-.56c.36,0,.63.11.81.33s.24.52.18.9c-.16-.11-.3-.18-.42-.23s-.24-.07-.36-.07c-.3,0-.53.09-.69.28s-.34.65-.52,1.39l-.06.25c-.1.38-.18.79-.26,1.26s-.16,1-.22,1.59Z" style="fill: #fff; stroke-width: 0px;"/>
        <path d="m97.64,26.14c-.15,1.71-.65,2.95-1.49,3.67s-2.27,1.1-4.23,1.1-3.28-.37-3.93-1.1-.8-1.96-.49-3.68.88-2.81,1.72-3.45,2.14-.95,3.95-.95,3.02.32,3.69.95.94,1.78.79,3.45Zm-.63-3.93l1.13.94c.47.39.8.86.97,1.4s.22,1.29.15,2.23c-.14,1.85-.76,3.28-1.88,4.26s-2.77,1.5-4.87,1.5c-.61,0-1.15-.06-1.62-.19s-.85-.31-1.14-.54l-1.2-.99c.31.21.72.36,1.22.45s1.23.14,2.17.14c2.08,0,3.6-.41,4.56-1.24s1.49-2.14,1.64-3.96c.09-1.02.04-1.84-.14-2.45s-.51-1.13-.99-1.56Zm-6.34,3.95c-.19,1.26-.18,2.14.04,2.63s.69.74,1.4.74,1.24-.25,1.6-.75.6-1.38.75-2.62.1-2.06-.13-2.51-.67-.67-1.34-.67-1.18.22-1.52.66-.61,1.28-.8,2.51Zm1.39,2.93c-.49-.06-.81-.29-.95-.69s-.14-1.08,0-2.05c.18-1.23.4-2.02.66-2.4s.64-.56,1.17-.56c.36,0,.65.11.85.33s.3.52.29.9c-.17-.11-.32-.18-.45-.23s-.25-.07-.37-.07c-.3,0-.52.09-.66.28s-.26.65-.36,1.39l-.03.25c-.05.38-.09.79-.12,1.26s-.04,1-.04,1.59Z" style="fill: #fff; stroke-width: 0px;"/>
        <path d="m110.26,26.14c.05,1.71-.3,2.95-1.06,3.67s-2.14,1.1-4.1,1.1-3.32-.37-4.06-1.1-1.03-1.96-.92-3.68.55-2.81,1.32-3.45,2.03-.95,3.84-.95,3.06.32,3.8.95,1.14,1.78,1.19,3.45Zm-1.09-3.93l1.24.94c.52.39.9.86,1.13,1.4s.37,1.29.41,2.23c.08,1.85-.37,3.28-1.38,4.26s-2.59,1.5-4.7,1.5c-.61,0-1.16-.06-1.64-.19s-.88-.31-1.2-.54l-1.31-.99c.33.21.76.36,1.27.45s1.25.14,2.18.14c2.08,0,3.55-.41,4.42-1.24s1.24-2.14,1.18-3.96c-.03-1.02-.18-1.84-.43-2.45s-.64-1.13-1.17-1.56Zm-5.88,3.95c-.05,1.26.07,2.14.35,2.63s.78.74,1.49.74,1.21-.25,1.51-.75.44-1.38.44-2.62-.14-2.06-.42-2.51-.75-.67-1.42-.67-1.15.22-1.44.66-.46,1.28-.51,2.51Zm1.73,2.93c-.5-.06-.84-.29-1.03-.69s-.27-1.08-.23-2.05c.04-1.23.17-2.02.38-2.4s.58-.56,1.1-.56c.36,0,.66.11.89.33s.36.52.39.9c-.18-.11-.34-.18-.47-.23s-.26-.07-.37-.07c-.3,0-.51.09-.63.28s-.18.65-.2,1.39v.25c-.01.38,0,.79.03,1.26s.08,1,.15,1.59Z" style="fill: #fff; stroke-width: 0px;"/>
        <path d="m112.96,32.78h2.84l1.83-3.69.84.81-1.95,4.01h-1.97l-1.6-1.13Zm1.12-3.69h2.97l-1.61,3.19h-2.29l.93-3.19Z" style="fill: #fff; stroke-width: 0px;"/>
        <path d="m129.2,26.14c.35,1.71.22,2.95-.41,3.67s-1.94,1.1-3.91,1.1-3.39-.37-4.26-1.1-1.38-1.96-1.57-3.68.06-2.81.71-3.45,1.87-.95,3.67-.95,3.12.32,3.97.95,1.46,1.78,1.8,3.45Zm-1.78-3.93l1.4.94c.59.39,1.05.86,1.37,1.4s.6,1.29.81,2.23c.41,1.85.2,3.28-.63,4.26s-2.33,1.5-4.43,1.5c-.61,0-1.17-.06-1.67-.19s-.94-.31-1.3-.54l-1.49-.99c.37.21.82.36,1.35.45s1.27.14,2.21.14c2.08,0,3.48-.41,4.2-1.24s.86-2.14.48-3.96c-.21-1.02-.5-1.84-.86-2.45s-.84-1.13-1.44-1.56Zm-5.19,3.95c.18,1.26.45,2.14.81,2.63s.91.74,1.62.74,1.17-.25,1.38-.75.2-1.38-.02-2.62-.5-2.06-.86-2.51-.87-.67-1.53-.67-1.11.22-1.33.66-.24,1.28-.07,2.51Zm2.24,2.93c-.51-.06-.89-.29-1.15-.69s-.45-1.08-.59-2.05c-.18-1.23-.19-2.02-.04-2.4s.48-.56,1-.56c.36,0,.68.11.94.33s.45.52.55.9c-.2-.11-.37-.18-.51-.23s-.27-.07-.39-.07c-.3,0-.49.09-.58.28s-.07.65.04,1.39l.04.25c.06.38.14.79.25,1.26s.25,1,.43,1.59Z" style="fill: #fff; stroke-width: 0px;"/>
        <path d="m141.82,26.14c.55,1.71.56,2.95.02,3.67s-1.81,1.1-3.78,1.1-3.43-.37-4.38-1.1-1.61-1.96-2-3.68-.27-2.81.31-3.45,1.76-.95,3.56-.95,3.15.32,4.08.95,1.67,1.78,2.2,3.45Zm-2.24-3.93l1.51.94c.64.39,1.15.86,1.54,1.4s.75,1.29,1.07,2.23c.62,1.85.59,3.28-.13,4.26s-2.15,1.5-4.26,1.5c-.61,0-1.18-.06-1.7-.19s-.97-.31-1.36-.54l-1.6-.99c.39.21.86.36,1.41.45s1.29.14,2.22.14c2.08,0,3.43-.41,4.05-1.24s.61-2.14.02-3.96c-.33-1.02-.72-1.84-1.15-2.45s-.97-1.13-1.62-1.56Zm-4.72,3.95c.32,1.26.7,2.14,1.12,2.63s.99.74,1.7.74,1.14-.25,1.29-.75.04-1.38-.32-2.62-.74-2.06-1.15-2.51-.95-.67-1.61-.67-1.09.22-1.25.66-.09,1.28.23,2.51Zm2.59,2.93c-.52-.06-.93-.29-1.23-.69s-.58-1.08-.83-2.05c-.32-1.23-.43-2.02-.32-2.4s.41-.56.94-.56c.36,0,.69.11.98.33s.51.52.66.9c-.21-.11-.39-.18-.54-.23s-.28-.07-.39-.07c-.3,0-.48.09-.54.28s0,.65.21,1.39l.07.25c.1.38.23.79.4,1.26s.37,1,.62,1.59Z" style="fill: #fff; stroke-width: 0px;"/>
        <path d="m154.45,26.14c.75,1.71.91,2.95.45,3.67s-1.68,1.1-3.65,1.1-3.47-.37-4.51-1.1-1.84-1.96-2.43-3.68-.6-2.81-.1-3.45,1.64-.95,3.45-.95,3.19.32,4.19.95,1.88,1.78,2.61,3.45Zm-2.7-3.93l1.62.94c.68.39,1.25.86,1.7,1.4s.9,1.29,1.33,2.23c.84,1.85.97,3.28.37,4.26s-1.98,1.5-4.08,1.5c-.61,0-1.18-.06-1.72-.19s-1.01-.31-1.43-.54l-1.72-.99c.42.21.91.36,1.46.45s1.3.14,2.24.14c2.08,0,3.38-.41,3.91-1.24s.36-2.14-.45-3.96c-.45-1.02-.93-1.84-1.43-2.45s-1.1-1.13-1.81-1.56Zm-4.26,3.95c.47,1.26.95,2.14,1.43,2.63s1.08.74,1.79.74,1.11-.25,1.21-.75-.12-1.38-.63-2.62-.98-2.06-1.45-2.51-1.02-.67-1.69-.67-1.06.22-1.17.66.06,1.28.52,2.51Zm2.93,2.93c-.52-.06-.96-.29-1.31-.69s-.71-1.08-1.07-2.05c-.46-1.23-.66-2.02-.6-2.4s.35-.56.87-.56c.36,0,.7.11,1.02.33s.57.52.76.9c-.22-.11-.41-.18-.57-.23s-.29-.07-.4-.07c-.3,0-.47.09-.51.28s.08.65.37,1.39l.1.25c.15.38.33.79.55,1.26s.49,1,.8,1.59Z" style="fill: #fff; stroke-width: 0px;"/>
      </g>
    </g>
  </g>
</svg>