<?xml version="1.0" encoding="UTF-8"?>
<svg id="_图层_2" data-name="图层 2" xmlns="http://www.w3.org/2000/svg" viewBox="0 0 210.38 79.98">
  <g id="_图层_7" data-name="图层 7">
    <g>
      <g>
        <ellipse cx="104.74" cy="27.97" rx="104.43" ry="27.66" style="fill: #f2dc31; stroke: #d9bb19; stroke-miterlimit: 10; stroke-width: .61px;"/>
        <ellipse cx="62.65" cy="47.1" rx="1.88" ry=".71" style="fill: #fff; stroke-width: 0px;"/>
        <ellipse cx="60.23" cy="44.7" rx="1.88" ry=".71" style="fill: #fff; stroke-width: 0px;"/>
        <ellipse cx="71.33" cy="46.4" rx="1.88" ry=".71" style="fill: #fff; stroke-width: 0px;"/>
        <ellipse cx="64.96" cy="49.22" rx="1.88" ry=".71" style="fill: #fff; stroke-width: 0px;"/>
        <ellipse cx="53.83" cy="47.65" rx="1.88" ry=".71" style="fill: #fff; stroke-width: 0px;"/>
        <ellipse cx="138.12" cy="9.02" rx="1.88" ry=".71" style="fill: #fff; stroke-width: 0px;"/>
        <ellipse cx="155.53" cy="7.85" rx="1.88" ry=".71" style="fill: #fff; stroke-width: 0px;"/>
        <ellipse cx="147.72" cy="46.85" rx="1.88" ry=".71" style="fill: #fff; stroke-width: 0px;"/>
        <ellipse cx="183.6" cy="26.03" rx="1.88" ry=".71" style="fill: #fff; stroke-width: 0px;"/>
        <ellipse cx="189.86" cy="27.44" rx="1.88" ry=".71" style="fill: #fff; stroke-width: 0px;"/>
        <ellipse cx="196.22" cy="29.08" rx="1.88" ry=".71" style="fill: #fff; stroke-width: 0px;"/>
        <polygon points="127.32 9.31 152.44 12.86 165.27 6.49 141.02 3.09 127.32 9.31" style="fill: none; opacity: .99; stroke: #fff; stroke-miterlimit: 10; stroke-width: .31px;"/>
        <polygon points="31.51 31.02 31.51 24.09 4.61 24.09 4.32 31.02 31.51 31.02" style="fill: none; stroke: #fff; stroke-miterlimit: 10; stroke-width: .31px;"/>
        <polygon points="142.28 50.91 167.4 48.09 154.05 42.04 129.7 45.15 142.28 50.91" style="fill: none; stroke: #fff; stroke-miterlimit: 10; stroke-width: .31px;"/>
        <polygon points="43.1 48.35 56.51 42.19 80.82 45.15 67.36 51.69 43.1 48.35" style="fill: none; stroke: #fff; stroke-miterlimit: 10; stroke-width: .31px;"/>
        <polygon points="174.42 31.29 202.26 30.95 202.26 23.8 174.42 23.8 174.42 31.29" style="fill: none; stroke: #fff; stroke-miterlimit: 10; stroke-width: .31px;"/>
        <path d="m89.06,54.27c5.12.2,10.35.3,15.68.3,5.72,0,11.34-.12,16.81-.35l-3.79-5.11h-25.46l-3.25,5.16Z" style="fill: #fff; stroke: #d9bb19; stroke-miterlimit: 10; stroke-width: .61px;"/>
        <path d="m179.17,35.76c-.77,2.14-10.27,5.4-10.27,5.4l17.18,4.15c6.48-2.13,11.8-4.52,15.69-7.1l-22.6-2.45Z" style="fill: #fff; stroke: #d9bb19; stroke-miterlimit: 10; stroke-width: .61px;"/>
        <path d="m31.51,20.37c.53-2.04,9.59-5.25,9.59-5.25l-18.35-4.29c-6.79,2.27-12.25,4.84-16.09,7.61l24.84,1.93Z" style="fill: #fff; stroke: #d9bb19; stroke-miterlimit: 10; stroke-width: .61px;"/>
        <path d="m91.75,7.3h25.1l5.2-6.61c-5.63-.25-11.41-.38-17.31-.38s-12.16.14-18.01.41l5.03,6.58Z" style="fill: #fff; stroke: #d9bb19; stroke-miterlimit: 10; stroke-width: .61px;"/>
        <path d="m186.62,10.8l-18.71,4.3c5.5.97,10.9,5,10.9,5l23.32-2.13c-3.81-2.6-9.07-5.01-15.51-7.17Z" style="fill: #fff; stroke: #d9bb19; stroke-miterlimit: 10; stroke-width: .61px;"/>
        <polygon points="57.22 13.53 81.37 9.73 67.63 3.13 42.05 7 57.22 13.53" style="fill: none; stroke: #fff; stroke-miterlimit: 10; stroke-width: .31px;"/>
        <ellipse cx="63.69" cy="6.15" rx="1.7" ry=".57" style="fill: #fff; stroke-width: 0px;"/>
        <ellipse cx="66.96" cy="7.59" rx="1.7" ry=".57" style="fill: #fff; stroke-width: 0px;"/>
        <ellipse cx="70.36" cy="9.04" rx="1.7" ry=".57" style="fill: #fff; stroke-width: 0px;"/>
        <ellipse cx="59.15" cy="10.79" rx="1.7" ry=".57" style="fill: #fff; stroke-width: 0px;"/>
        <ellipse cx="56.12" cy="9.33" rx="1.7" ry=".57" style="fill: #fff; stroke-width: 0px;"/>
        <ellipse cx="52.97" cy="7.87" rx="1.7" ry=".57" style="fill: #fff; stroke-width: 0px;"/>
        <ellipse cx="25.68" cy="26.1" rx="1.88" ry=".71" style="fill: #fff; stroke-width: 0px;"/>
        <ellipse cx="25.68" cy="29.36" rx="1.88" ry=".71" style="fill: #fff; stroke-width: 0px;"/>
        <ellipse cx="13" cy="26.1" rx="1.88" ry=".71" style="fill: #fff; stroke-width: 0px;"/>
        <ellipse cx="13" cy="29.36" rx="1.88" ry=".71" style="fill: #fff; stroke-width: 0px;"/>
        <path d="m.31,28.77s2.16,26.48,107.85,26.31,100.48-29.69,100.48-29.69c0,0,3.23,16.29-.01,30.2,0,0-5.56,21.02-99.54,24.08,0,0-88.75.38-108.02-23.56L.31,28.77Z" style="fill: #f2dc31; stroke: #d9bb19; stroke-miterlimit: 10; stroke-width: .61px;"/>
        <path d="m185.5,69.64c7.67-2.41,12.82-4.92,16.26-7.13v-24.97c-3.42,2.78-8.51,5.7-16.08,8.33l-.18,23.77Z" style="fill: #fff; stroke: #d9bb19; stroke-miterlimit: 10; stroke-width: .61px;"/>
        <path d="m121.55,54.67c-4.26.12-8.71.19-13.39.2-6.79.01-13.14-.09-19.1-.29v24.51c11.89.62,20.03.59,20.03.59,4.34-.14,8.49-.32,12.46-.54v-24.47Z" style="fill: #fff; stroke: #d9bb19; stroke-miterlimit: 10; stroke-width: .62px;"/>
        <path d="m7.27,37.92c4.23,2.9,10.25,5.57,17.71,7.91l16.13-4.42c-3.33-.39-10.51-5.4-10.51-5.4l-23.32,1.91Z" style="fill: #fff; stroke: #d9bb19; stroke-miterlimit: 10; stroke-width: .61px;"/>
        <path d="m7.96,62.08c4.44,2.85,10.02,5.25,16.28,7.25l.24-23.45c-7.52-2.44-12.72-5.08-16.29-7.54l-.23,23.74Z" style="fill: #fff; stroke: #d9bb19; stroke-miterlimit: 10; stroke-width: .61px;"/>
        <path d="m104.74,9.73c-37.18,0-67.31,7.93-67.31,17.71s30.14,17.71,67.31,17.71,67.31-7.93,67.31-17.71-30.14-17.71-67.31-17.71Zm.31,33.88c-33.39,0-60.46-7.12-60.46-15.91s27.07-15.91,60.46-15.91,60.46,7.12,60.46,15.91-27.07,15.91-60.46,15.91Z" style="fill: #d9bb19; stroke-width: 0px;"/>
        <path d="m159.75,17.24l-4.88,1.45c3.39,1.3,6.08,2.73,7.9,4.26l4.34-2.17c-1.94-1.26-4.42-2.44-7.36-3.54Z" style="fill: #fff; stroke-width: 0px;"/>
        <path d="m165.51,27.7c0,.85-.26,1.68-.75,2.49l5.68,1.09c1.04-1.24,1.61-2.53,1.61-3.85,0-.48-.09-.95-.23-1.41h-6.65c.22.55.34,1.11.34,1.67Z" style="fill: #fff; stroke-width: 0px;"/>
        <path d="m159.97,34.35c-1.72.99-3.81,1.92-6.23,2.78l.54,2.3c4.64-1.33,8.51-2.84,11.45-4.5l-5.76-.58Z" style="fill: #fff; stroke-width: 0px;"/>
        <path d="m142.62,40.16c-4.04.85-8.5,1.56-13.29,2.11v1.66c5.06-.52,9.81-1.2,14.18-2.01l-.89-1.76Z" style="fill: #fff; stroke-width: 0px;"/>
        <path d="m112.12,45.05v-1.55c-2.32.07-4.68.11-7.08.11s-4.77-.04-7.1-.11l-.05,1.57c2.25.06,4.54.09,6.85.09,2.5,0,4.96-.04,7.38-.11Z" style="fill: #fff; stroke-width: 0px;"/>
        <path d="m80.82,42.28c-4.38-.5-8.49-1.14-12.25-1.89l-.93,1.83c4.1.71,8.52,1.31,13.19,1.78v-1.72Z" style="fill: #fff; stroke-width: 0px;"/>
        <path d="m56.24,37.09c-2.27-.82-4.26-1.69-5.91-2.62l-5.58,1c3.03,1.56,6.91,2.99,11.5,4.25v-2.63Z" style="fill: #fff; stroke-width: 0px;"/>
        <path d="m130.1,13.23c5.17.62,9.94,1.42,14.2,2.38v-2.49c-4.28-.82-8.93-1.51-13.89-2.05l-.31,2.16Z" style="fill: #fff; stroke-width: 0px;"/>
        <path d="m42.05,20.99l5.09,2.13c1.57-1.37,3.82-2.67,6.65-3.86l-2.67-2.53c-3.73,1.29-6.79,2.72-9.08,4.26Z" style="fill: #fff; stroke-width: 0px;"/>
        <path d="m44.59,27.7c0-.36.06-.72.15-1.08l-7.15-.38c-.1.4-.17.79-.17,1.19,0,1.41.65,2.78,1.83,4.1l6.77-.39c-.94-1.11-1.45-2.27-1.45-3.46Z" style="fill: #fff; stroke-width: 0px;"/>
        <path d="m64.69,13.21v2.65c4.3-1.01,9.15-1.87,14.43-2.53l-1.26-2.13c-4.69.54-9.11,1.21-13.17,2Z" style="fill: #fff; stroke-width: 0px;"/>
        <path d="m96.38,9.87v2.09c2.83-.11,5.72-.17,8.67-.17,2.42,0,4.8.04,7.15.11v-2.07c-2.45-.07-4.94-.11-7.46-.11-2.83,0-5.62.05-8.36.14Z" style="fill: #fff; stroke-width: 0px;"/>
      </g>
      <g>
        <path d="m67.34,30.78l.93-2.03h2.69l2.72-6.38-3,1.14,1.03-2.25,3.74-1.43h2.75l-3.38,8.91h2.68l-.7,2.03h-9.46Zm3.05-6.63l2.28-.85-.58,1.35-.91.31-.79-.8Zm-3.35,7.3h10.23l.91-2.69,1.14,1.04-1,3.12h-9.68l-1.6-1.47Zm11.77-11.61l.94,1.09-2.54,7.2h-1.48l3.08-8.29Z" style="fill: #fff; stroke-width: 0px;"/>
        <path d="m81.1,33.73h3.97l4.06-4.98.82,1.07-4.37,5.49h-2.77l-1.72-1.58Zm3.19-4.98h4.03l-3.56,4.29h-3.18l2.71-4.29Z" style="fill: #fff; stroke-width: 0px;"/>
        <path d="m105.69,24.95c0,2.18-.53,3.79-1.6,4.75-1.09.98-3,1.48-5.71,1.48s-4.53-.49-5.45-1.47c-.9-.95-1.14-2.56-.76-4.76.36-2.08,1.08-3.47,2.16-4.25,1.05-.76,2.74-1.13,5.07-1.13s3.94.37,4.87,1.14c.94.78,1.42,2.17,1.42,4.24Zm-1.26-4.83l1.57,1.13c.67.48,1.15,1.05,1.44,1.71.29.67.46,1.6.49,2.79.07,2.39-.59,4.27-2.01,5.59-1.46,1.36-3.68,2.05-6.61,2.05-.85,0-1.61-.09-2.27-.26-.66-.17-1.2-.42-1.61-.74l-1.7-1.34c.43.28,1,.49,1.7.61.7.13,1.71.19,3,.19,2.88,0,4.94-.56,6.17-1.66,1.2-1.07,1.77-2.81,1.75-5.14,0-1.28-.17-2.29-.48-3.04-.3-.74-.79-1.36-1.46-1.88Zm-8.03,4.84c-.19,1.6-.13,2.74.19,3.38.33.65.98.97,1.95.97s1.68-.33,2.12-.99c.44-.65.7-1.78.79-3.37s-.04-2.56-.38-3.11c-.33-.54-.93-.81-1.8-.81s-1.52.27-1.95.8c-.43.55-.74,1.57-.92,3.11Zm2.04,3.77c-.67-.08-1.11-.38-1.33-.9-.21-.51-.25-1.39-.11-2.62.17-1.54.42-2.52.73-2.98.31-.46.81-.68,1.49-.68.48,0,.85.13,1.14.4.28.27.43.63.45,1.1-.23-.13-.43-.22-.61-.28-.17-.06-.34-.09-.49-.09-.4,0-.68.11-.85.35-.17.23-.3.8-.39,1.73l-.03.31c-.04.47-.07,1.01-.07,1.6s.02,1.29.06,2.07Z" style="fill: #fff; stroke-width: 0px;"/>
        <path d="m122.51,24.95c.47,2.18.29,3.79-.57,4.75-.88.98-2.68,1.48-5.39,1.48s-4.64-.49-5.77-1.47c-1.1-.95-1.69-2.56-1.78-4.76-.09-2.08.33-3.47,1.24-4.25.89-.76,2.49-1.13,4.82-1.13s4.02.37,5.11,1.14c1.11.78,1.89,2.17,2.33,4.24Zm-2.3-4.83l1.81,1.13c.77.48,1.37,1.05,1.81,1.71.44.67.81,1.6,1.1,2.79.58,2.39.33,4.27-.8,5.59-1.17,1.36-3.23,2.05-6.17,2.05-.85,0-1.63-.09-2.32-.26-.7-.17-1.29-.42-1.77-.74l-1.99-1.34c.49.28,1.11.49,1.84.61.73.13,1.75.19,3.04.19,2.88,0,4.82-.56,5.81-1.66.96-1.07,1.16-2.81.64-5.14-.29-1.28-.66-2.29-1.13-3.04-.46-.74-1.08-1.36-1.86-1.88Zm-6.98,4.84c.15,1.6.46,2.74.92,3.38.47.65,1.19.97,2.16.97s1.61-.33,1.91-.99c.3-.65.31-1.78.06-3.37s-.6-2.56-1.05-3.11c-.45-.54-1.11-.81-1.98-.81s-1.47.27-1.77.8c-.31.55-.4,1.57-.25,3.11Zm2.86,3.77c-.69-.08-1.2-.38-1.52-.9-.32-.51-.55-1.39-.68-2.62-.16-1.54-.13-2.52.09-2.98.21-.46.66-.68,1.34-.68.48,0,.88.13,1.22.4.34.27.57.63.69,1.1-.26-.13-.48-.22-.67-.28-.19-.06-.35-.09-.51-.09-.4,0-.65.11-.77.35-.12.23-.13.8-.01,1.73l.04.31c.06.47.15,1.01.27,1.6s.29,1.29.5,2.07Z" style="fill: #fff; stroke-width: 0px;"/>
        <path d="m139.33,24.95c.94,2.18,1.11,3.79.45,4.75-.67.98-2.36,1.48-5.07,1.48s-4.75-.49-6.09-1.47c-1.31-.95-2.25-2.56-2.81-4.76-.54-2.08-.42-3.47.33-4.25.73-.76,2.25-1.13,4.58-1.13s4.1.37,5.36,1.14c1.28.78,2.36,2.17,3.25,4.24Zm-3.35-4.83l2.06,1.13c.87.48,1.6,1.05,2.17,1.71.59.67,1.15,1.6,1.7,2.79,1.1,2.39,1.26,4.27.41,5.59-.87,1.36-2.79,2.05-5.72,2.05-.85,0-1.64-.09-2.38-.26-.73-.17-1.38-.42-1.93-.74l-2.28-1.34c.55.28,1.21.49,1.97.61.76.13,1.79.19,3.09.19,2.88,0,4.7-.56,5.45-1.66.73-1.07.56-2.81-.47-5.14-.56-1.28-1.16-2.29-1.79-3.04-.62-.74-1.38-1.36-2.27-1.88Zm-5.93,4.84c.5,1.6,1.05,2.74,1.65,3.38.61.65,1.4.97,2.37.97s1.53-.33,1.69-.99c.16-.65-.07-1.78-.67-3.37s-1.15-2.56-1.72-3.11c-.57-.54-1.28-.81-2.15-.81s-1.41.27-1.6.8c-.19.55-.06,1.57.42,3.11Zm3.67,3.77c-.71-.08-1.28-.38-1.72-.9-.43-.51-.85-1.39-1.25-2.62-.49-1.54-.67-2.52-.56-2.98.12-.46.51-.68,1.2-.68.48,0,.91.13,1.31.4.4.27.71.63.93,1.1-.29-.13-.53-.22-.73-.28-.2-.06-.37-.09-.52-.09-.4,0-.63.11-.7.35-.07.23.05.8.36,1.73l.1.31c.16.47.37,1.01.62,1.6s.57,1.29.95,2.07Z" style="fill: #fff; stroke-width: 0px;"/>
      </g>
    </g>
  </g>
</svg>