<?xml version="1.0" encoding="UTF-8"?>
<svg id="_图层_2" data-name="图层 2" xmlns="http://www.w3.org/2000/svg" viewBox="0 0 210.38 79.98">
  <g id="_图层_7" data-name="图层 7">
    <g>
      <g>
        <path d="m.83,28.84s2.15,26.45,107.59,26.28c105.43-.17,100.23-29.65,100.23-29.65,0,0,3.22,16.26-.01,30.16,0,0-5.55,20.99-99.29,24.05,0,0-88.53.38-107.75-23.53l-.76-27.3Z" style="fill: #f3dc2f; stroke: #dabb17; stroke-miterlimit: 10; stroke-width: .61px;"/>
        <ellipse cx="105.45" cy="27.98" rx="103.7" ry="27.67" style="fill: #f1db30; stroke: #dabb17; stroke-miterlimit: 10; stroke-width: .61px;"/>
        <rect x="90.42" y="2.11" width="27.39" height="6.98" style="fill: none; stroke: #fff; stroke-miterlimit: 10; stroke-width: .31px;"/>
        <ellipse cx="99.23" cy="4.15" rx="1.84" ry=".47" style="fill: #fff; stroke-width: 0px;"/>
        <ellipse cx="99.23" cy="5.85" rx="1.84" ry=".47" style="fill: #fff; stroke-width: 0px;"/>
        <ellipse cx="99.34" cy="7.52" rx="1.84" ry=".47" style="fill: #fff; stroke-width: 0px;"/>
        <ellipse cx="112.16" cy="3.97" rx="1.84" ry=".47" style="fill: #fff; stroke-width: 0px;"/>
        <ellipse cx="112.16" cy="5.85" rx="1.84" ry=".47" style="fill: #fff; stroke-width: 0px;"/>
        <ellipse cx="112.16" cy="7.52" rx="1.84" ry=".47" style="fill: #fff; stroke-width: 0px;"/>
        <polygon points="11.9 37.54 36.99 33.99 51.41 40.37 27.96 43.42 11.9 37.54" style="fill: none; stroke: #fff; stroke-miterlimit: 10; stroke-width: .31px;"/>
        <ellipse cx="33.89" cy="36.6" rx="1.94" ry=".57" style="fill: #fff; stroke-width: 0px;"/>
        <ellipse cx="31.34" cy="38.86" rx="1.94" ry=".57" style="fill: #fff; stroke-width: 0px;"/>
        <ellipse cx="29.04" cy="41" rx="1.94" ry=".57" style="fill: #fff; stroke-width: 0px;"/>
        <ellipse cx="22.59" cy="38.29" rx="1.94" ry=".57" style="fill: #fff; stroke-width: 0px;"/>
        <ellipse cx="40.29" cy="39.66" rx="1.94" ry=".57" style="fill: #fff; stroke-width: 0px;"/>
        <path d="m67.71,2.11l7.87,5.82s-18.3,2.19-20.61,3.46l-16.39-4.74s19.53-4.36,29.14-4.54Z" style="fill: #fff; stroke: #dabb17; stroke-miterlimit: 10; stroke-width: .61px;"/>
        <path d="m143.64,2.41l-7.87,5.82s18.3,2.19,20.61,3.46l16.39-4.74s-19.53-4.36-29.14-4.54Z" style="fill: #fff; stroke: #dabb17; stroke-miterlimit: 10; stroke-width: .61px;"/>
        <path d="m207.22,32.97l-21.97-1.05s2.04-4.28,0-7.13l23.26-.07s1.36,4.3-1.29,8.25Z" style="fill: #fff; stroke: #dabb17; stroke-miterlimit: 10; stroke-width: .62px;"/>
        <path d="m156.2,44.9c-2.55,1.15-21.77,3.23-21.77,3.23l7.63,5.31v.28c16.32-.14,24.58-2.31,28.15-3.66l-14.01-5.15Z" style="fill: #fff; stroke: #dabb17; stroke-miterlimit: 10; stroke-width: .61px;"/>
        <path d="m142.05,53.71v23.92s17.71-.83,28.54-3.82v-23.62l-.39-.14c-3.57,1.35-11.83,3.52-28.15,3.66Z" style="fill: #fff; stroke: #dabb17; stroke-miterlimit: 10; stroke-width: .61px;"/>
        <path d="m68.18,53.09v24.54c-11.08-1.2-20.52-2.92-28.5-4.86v-23.31c7.8,1.49,17.2,2.75,28.5,3.62Z" style="fill: #fff; stroke: #dabb17; stroke-miterlimit: 10; stroke-width: .61px;"/>
        <path d="m39.68,49.47h0s15.04-4.57,15.04-4.57c0,0,19.91,3.92,22,3.23,2.09-.69-8.54,4.97-8.54,4.97,0,0-23.06-2.49-28.5-3.63" style="fill: #fff; stroke: #dabb17; stroke-miterlimit: 10; stroke-width: .61px;"/>
        <path d="m3.58,32.72l22.39-1.01s-2.08-4.15,0-6.92l-23.71-.07s-1.39,4.17,1.32,8Z" style="fill: #fff; stroke: #dabb17; stroke-miterlimit: 10; stroke-width: .61px;"/>
        <path d="m2.26,24.72s-4.16,8.88-.36,31.3c0,0,.18-23.24,1.67-23.3,0,0-1.7-5.84-1.32-8Z" style="fill: #fff; stroke: #dabb17; stroke-miterlimit: 10; stroke-width: .61px;"/>
        <path d="m105.24,10.8c-37.02,0-67.02,7.69-67.02,17.17s30.01,17.17,67.02,17.17,67.02-7.69,67.02-17.17-30.01-17.17-67.02-17.17Zm.37,33.17c-34.01,0-61.58-7.18-61.58-16.04s27.57-16.04,61.58-16.04,61.58,7.18,61.58,16.04-27.57,16.04-61.58,16.04Z" style="fill: #dabb17; stroke-width: 0px;"/>
        <path d="m160.6,35.16c-1.64.84-3.55,1.64-5.71,2.39l.13,1.92c4.34-1.23,7.98-2.62,10.79-4.14l-5.21-.18Z" style="fill: #fff; stroke-width: 0px;"/>
        <path d="m167.19,28.03c0,1.12-.44,2.21-1.28,3.26l4.92.32c.93-1.14,1.43-2.32,1.43-3.54,0-.4-.06-.79-.16-1.19h-5.07c.1.38.16.76.16,1.14Z" style="fill: #fff; stroke-width: 0px;"/>
        <path d="m131.27,13.43c5.23.62,10.06,1.42,14.38,2.37l.21-1.43c-4.4-.85-9.21-1.57-14.36-2.12l-.23,1.18Z" style="fill: #fff; stroke-width: 0px;"/>
        <path d="m97.5,10.96v1.12c2.65-.09,5.36-.14,8.11-.14s5.65.05,8.39.15v-1.09c-2.87-.1-5.79-.15-8.76-.15-2.62,0-5.2.04-7.74.11Z" style="fill: #fff; stroke-width: 0px;"/>
        <path d="m159.51,17.98l-3.45.84c3.68,1.38,6.56,2.91,8.45,4.56l3.62-1.23c-2.13-1.5-5.05-2.9-8.62-4.16Z" style="fill: #fff; stroke-width: 0px;"/>
        <path d="m44.04,27.93c0-.46.08-.92.23-1.37h-5.82c-.15.47-.23.94-.23,1.41,0,1.29.56,2.54,1.61,3.75l5.55-.46c-.87-1.08-1.33-2.19-1.33-3.33Z" style="fill: #fff; stroke-width: 0px;"/>
        <path d="m56.12,37.48c-2.47-.87-4.61-1.8-6.37-2.79l-5.17.6c2.96,1.61,6.87,3.08,11.54,4.37v-2.18Z" style="fill: #fff; stroke-width: 0px;"/>
        <path d="m81.35,42.68c-4.37-.49-8.47-1.1-12.25-1.83l-1.92,1.26c4.41.78,9.2,1.43,14.28,1.92l-.11-1.36Z" style="fill: #fff; stroke-width: 0px;"/>
        <path d="m112.92,45.04v-1.18c-2.4.07-4.84.11-7.31.11s-4.8-.04-7.14-.11l-.05,1.2c2.24.06,4.51.09,6.81.09,2.6,0,5.16-.04,7.68-.11Z" style="fill: #fff; stroke-width: 0px;"/>
        <path d="m65.88,14.08l-.05,1.62c4.22-.93,8.94-1.72,14.03-2.33l-.9-1.19c-4.65.51-9.03,1.15-13.07,1.9Z" style="fill: #fff; stroke-width: 0px;"/>
        <path d="m43.73,21.14l3.19,1.93c1.75-1.44,4.26-2.78,7.4-4.01l-3.26-1.19c-2.89,1.01-5.35,2.11-7.32,3.28Z" style="fill: #fff; stroke-width: 0px;"/>
        <path d="m142.22,40.83c-3.77.73-7.87,1.34-12.23,1.83v1.27c4.77-.49,9.26-1.11,13.42-1.85l-1.2-1.26Z" style="fill: #fff; stroke-width: 0px;"/>
        <polygon points="90.44 53.37 117.8 53.09 117.8 46.15 90.44 46.15 90.44 53.37" style="fill: none; stroke: #fff; stroke-miterlimit: 10; stroke-width: .31px;"/>
        <ellipse cx="105.61" cy="49.92" rx="2.15" ry=".53" style="fill: #fff; stroke-width: 0px;"/>
        <polygon points="11.9 17.87 25.45 12.02 50.35 15.21 37.09 21.18 11.9 17.87" style="fill: none; stroke: #fff; stroke-miterlimit: 10; stroke-width: .31px;"/>
        <ellipse cx="29.03" cy="14.5" rx="1.94" ry=".57" style="fill: #fff; stroke-width: 0px;"/>
        <ellipse cx="22.77" cy="17.51" rx="1.94" ry=".57" style="fill: #fff; stroke-width: 0px;"/>
        <ellipse cx="33.89" cy="19.04" rx="1.94" ry=".57" style="fill: #fff; stroke-width: 0px;"/>
        <ellipse cx="40.16" cy="16.23" rx="1.94" ry=".57" style="fill: #fff; stroke-width: 0px;"/>
        <polygon points="175.5 21.25 199.06 17.98 186.04 11.9 160.35 14.97 175.5 21.25" style="fill: none; stroke: #fff; stroke-miterlimit: 10; stroke-width: .31px;"/>
        <ellipse cx="171.2" cy="16.24" rx="2.11" ry=".67" style="fill: #fff; stroke-width: 0px;"/>
        <ellipse cx="188.55" cy="17.49" rx="2.11" ry=".67" style="fill: #fff; stroke-width: 0px;"/>
        <polygon points="174.05 33.68 198.37 37.32 185.25 43.36 160.85 39.84 174.05 33.68" style="fill: none; stroke: #fff; stroke-miterlimit: 10; stroke-width: .31px;"/>
        <ellipse cx="177.46" cy="36.56" rx="2.15" ry=".65" style="fill: #fff; stroke-width: 0px;"/>
        <ellipse cx="179.78" cy="38.95" rx="2.15" ry=".65" style="fill: #fff; stroke-width: 0px;"/>
        <ellipse cx="182.15" cy="41.18" rx="2.15" ry=".65" style="fill: #fff; stroke-width: 0px;"/>
        <path d="m207.65,33.84s2.98-4.18,1.31,22.48c0,0,2.51-23.67.01-30.27,0,0-.54,6.72-1.32,7.79Z" style="fill: #fff; stroke: #dabb17; stroke-miterlimit: 10; stroke-width: .6px;"/>
      </g>
      <g>
        <path d="m68.55,30.59l.93-2.03h2.69l2.72-6.38-3,1.14,1.03-2.25,3.74-1.43h2.75l-3.38,8.91h2.68l-.7,2.03h-9.46Zm3.05-6.63l2.28-.85-.58,1.35-.91.31-.79-.8Zm-3.35,7.3h10.23l.91-2.69,1.14,1.04-1,3.12h-9.68l-1.6-1.47Zm11.77-11.61l.94,1.09-2.54,7.2h-1.48l3.08-8.29Z" style="fill: #fff; stroke-width: 0px;"/>
        <path d="m82.31,33.54h3.97l4.06-4.98.82,1.07-4.37,5.49h-2.77l-1.72-1.58Zm3.19-4.98h4.03l-3.56,4.29h-3.18l2.71-4.29Z" style="fill: #fff; stroke-width: 0px;"/>
        <path d="m106.9,24.76c0,2.18-.53,3.79-1.6,4.75-1.09.98-3,1.48-5.71,1.48s-4.53-.49-5.45-1.47c-.9-.95-1.14-2.56-.76-4.76.36-2.08,1.08-3.47,2.16-4.25,1.05-.76,2.74-1.13,5.07-1.13s3.94.37,4.87,1.14c.94.78,1.42,2.17,1.42,4.24Zm-1.26-4.83l1.57,1.13c.67.48,1.15,1.05,1.44,1.71.29.67.46,1.6.49,2.79.07,2.39-.59,4.27-2.01,5.59-1.46,1.36-3.68,2.05-6.61,2.05-.85,0-1.61-.09-2.27-.26-.66-.17-1.2-.42-1.61-.74l-1.7-1.34c.43.28,1,.49,1.7.61.7.13,1.71.19,3,.19,2.88,0,4.94-.56,6.17-1.66,1.2-1.07,1.77-2.81,1.75-5.14,0-1.28-.17-2.29-.48-3.04-.3-.74-.79-1.36-1.46-1.88Zm-8.03,4.84c-.19,1.6-.13,2.74.19,3.38.33.65.98.97,1.95.97s1.68-.33,2.12-.99c.44-.65.7-1.78.79-3.37s-.04-2.56-.38-3.11c-.33-.54-.93-.81-1.8-.81s-1.52.27-1.95.8c-.43.55-.74,1.57-.92,3.11Zm2.04,3.77c-.67-.08-1.11-.38-1.33-.9-.21-.51-.25-1.39-.11-2.62.17-1.54.42-2.52.73-2.98.31-.46.81-.68,1.49-.68.48,0,.85.13,1.14.4.28.27.43.63.45,1.1-.23-.13-.43-.22-.61-.28-.17-.06-.34-.09-.49-.09-.4,0-.68.11-.85.35-.17.23-.3.8-.39,1.73l-.03.31c-.04.47-.07,1.01-.07,1.6s.02,1.29.06,2.07Z" style="fill: #fff; stroke-width: 0px;"/>
        <path d="m123.72,24.76c.47,2.18.29,3.79-.57,4.75-.88.98-2.68,1.48-5.39,1.48s-4.64-.49-5.77-1.47c-1.1-.95-1.69-2.56-1.78-4.76-.09-2.08.33-3.47,1.24-4.25.89-.76,2.49-1.13,4.82-1.13s4.02.37,5.11,1.14c1.11.78,1.89,2.17,2.33,4.24Zm-2.3-4.83l1.81,1.13c.77.48,1.37,1.05,1.81,1.71.44.67.81,1.6,1.1,2.79.58,2.39.33,4.27-.8,5.59-1.17,1.36-3.23,2.05-6.17,2.05-.85,0-1.63-.09-2.32-.26-.7-.17-1.29-.42-1.77-.74l-1.99-1.34c.49.28,1.11.49,1.84.61.73.13,1.75.19,3.04.19,2.88,0,4.82-.56,5.81-1.66.96-1.07,1.16-2.81.64-5.14-.29-1.28-.66-2.29-1.13-3.04-.46-.74-1.08-1.36-1.86-1.88Zm-6.98,4.84c.15,1.6.46,2.74.92,3.38.47.65,1.19.97,2.16.97s1.61-.33,1.91-.99c.3-.65.31-1.78.06-3.37s-.6-2.56-1.05-3.11c-.45-.54-1.11-.81-1.98-.81s-1.47.27-1.77.8c-.31.55-.4,1.57-.25,3.11Zm2.86,3.77c-.69-.08-1.2-.38-1.52-.9-.32-.51-.55-1.39-.68-2.62-.16-1.54-.13-2.52.09-2.98.21-.46.66-.68,1.34-.68.48,0,.88.13,1.22.4.34.27.57.63.69,1.1-.26-.13-.48-.22-.67-.28-.19-.06-.35-.09-.51-.09-.4,0-.65.11-.77.35-.12.23-.13.8-.01,1.73l.04.31c.06.47.15,1.01.27,1.6s.29,1.29.5,2.07Z" style="fill: #fff; stroke-width: 0px;"/>
        <path d="m140.54,24.76c.94,2.18,1.11,3.79.45,4.75-.67.98-2.36,1.48-5.07,1.48s-4.75-.49-6.09-1.47c-1.31-.95-2.25-2.56-2.81-4.76-.54-2.08-.42-3.47.33-4.25.73-.76,2.25-1.13,4.58-1.13s4.1.37,5.36,1.14c1.28.78,2.36,2.17,3.25,4.24Zm-3.35-4.83l2.06,1.13c.87.48,1.6,1.05,2.17,1.71.59.67,1.15,1.6,1.7,2.79,1.1,2.39,1.26,4.27.41,5.59-.87,1.36-2.79,2.05-5.72,2.05-.85,0-1.64-.09-2.38-.26-.73-.17-1.38-.42-1.93-.74l-2.28-1.34c.55.28,1.21.49,1.97.61.76.13,1.79.19,3.09.19,2.88,0,4.7-.56,5.45-1.66.73-1.07.56-2.81-.47-5.14-.56-1.28-1.16-2.29-1.79-3.04-.62-.74-1.38-1.36-2.27-1.88Zm-5.93,4.84c.5,1.6,1.05,2.74,1.65,3.38.61.65,1.4.97,2.37.97s1.53-.33,1.69-.99c.16-.65-.07-1.78-.67-3.37s-1.15-2.56-1.72-3.11c-.57-.54-1.28-.81-2.15-.81s-1.41.27-1.6.8c-.19.55-.06,1.57.42,3.11Zm3.67,3.77c-.71-.08-1.28-.38-1.72-.9-.43-.51-.85-1.39-1.25-2.62-.49-1.54-.67-2.52-.56-2.98.12-.46.51-.68,1.2-.68.48,0,.91.13,1.31.4.4.27.71.63.93,1.1-.29-.13-.53-.22-.73-.28-.2-.06-.37-.09-.52-.09-.4,0-.63.11-.7.35-.07.23.05.8.36,1.73l.1.31c.16.47.37,1.01.62,1.6s.57,1.29.95,2.07Z" style="fill: #fff; stroke-width: 0px;"/>
      </g>
    </g>
  </g>
</svg>