<?xml version="1.0" encoding="UTF-8"?>
<svg id="_图层_2" data-name="图层 2" xmlns="http://www.w3.org/2000/svg" viewBox="0 0 210.38 79.93">
  <g id="_图层_7" data-name="图层 7">
    <g>
      <g>
        <ellipse cx="104.67" cy="27.8" rx="104.37" ry="27.55" style="fill: #f1db30; stroke: #dabb17; stroke-miterlimit: 10; stroke-width: .51px;"/>
        <path d="m104.57,9.57c-36.85,0-66.72,8.05-66.72,17.98s29.87,17.98,66.72,17.98,66.72-8.05,66.72-17.98-29.87-17.98-66.72-17.98Zm.32,33.95c-33.7,0-61.02-7.04-61.02-15.73s27.32-15.73,61.02-15.73,61.02,7.04,61.02,15.73-27.32,15.73-61.02,15.73Z" style="fill: #dabb17; stroke-width: 0px;"/>
        <path d="m133.67,41.66c-3.74.52-7.72.94-11.88,1.25l-.3,2.04c5.15-.36,10.06-.89,14.64-1.55-.75-.53-1.66-1.17-2.46-1.74Z" style="fill: #fff; stroke-width: 0px;"/>
        <path d="m157.48,35.77c-2.44,1.07-5.36,2.05-8.67,2.94l.16,2.27c5.09-1.22,9.47-2.65,12.98-4.24l-4.46-.97Z" style="fill: #fff; stroke-width: 0px;"/>
        <path d="m43.87,27.79c0-1.24.55-2.44,1.6-3.59l-6.23-.31c-.91,1.18-1.39,2.41-1.39,3.67,0,.49.08.98.22,1.47h5.98c-.12-.41-.18-.81-.18-1.23Z" style="fill: #fff; stroke-width: 0px;"/>
        <path d="m165.88,28.28c-.21,1.79-1.58,3.5-3.92,5.08l5.48.22c2.2-1.67,3.52-3.45,3.8-5.3h-5.36Z" style="fill: #fff; stroke-width: 0px;"/>
        <path d="m163.66,19.19l-5.07,1.12c2.81,1.34,4.89,2.79,6.1,4.33l5.34-.59c-1.26-1.72-3.43-3.35-6.37-4.86Z" style="fill: #fff; stroke-width: 0px;"/>
        <path d="m136.96,14.4c5.3.85,10.06,1.89,14.12,3.11l-.17-2.9c-3.48-.91-7.32-1.71-11.46-2.4l-2.48,2.19Z" style="fill: #fff; stroke-width: 0px;"/>
        <path d="m104.67,12.06c.07,0,.14,0,.22,0,5.75,0,11.31.21,16.58.59l-.7-2.54c-4.67-.31-9.52-.5-14.52-.53l-1.57,2.49Z" style="fill: #fff; stroke-width: 0px;"/>
        <path d="m47.14,18.39l2.64,2.63c2.7-1.46,6.24-2.79,10.46-3.96l-3.82-1.96c-3.54.99-6.65,2.1-9.28,3.29Z" style="fill: #fff; stroke-width: 0px;"/>
        <path d="m72.24,11.82l-.31,2.73c4.79-.79,10.03-1.42,15.61-1.84l-1.53-2.43c-4.84.38-9.46.9-13.78,1.54Z" style="fill: #fff; stroke-width: 0px;"/>
        <path d="m103.77,43.52c-4.48-.02-8.85-.17-13.04-.42l-1.74,1.95c4.93.32,10.08.49,15.37.49l-.58-2.02Z" style="fill: #fff; stroke-width: 0px;"/>
        <path d="m72.99,41.2c-3.69-.59-7.13-1.27-10.25-2.04l-3.17,1.66c4.23,1.04,8.96,1.94,14.09,2.66l-.66-2.29Z" style="fill: #fff; stroke-width: 0px;"/>
        <path d="m49.4,37.66l2.94-1.88c-2.39-1.04-4.34-2.16-5.75-3.35l-5.5.65c1.97,1.64,4.78,3.18,8.31,4.57Z" style="fill: #fff; stroke-width: 0px;"/>
        <path d="m62.02,9.57l23.45-2.32-5.18-6.23c-10.95.69-21.23,1.84-30.53,3.36l12.26,5.2Z" style="fill: #fff; stroke: #dabb17; stroke-miterlimit: 10; stroke-width: .51px;"/>
        <path d="m154.57,3.6l-10.55,5.96s13,1.39,18.89,3.88l17.8-4.51c-7.56-2.12-16.37-3.93-26.14-5.33Z" style="fill: #fff; stroke: #dabb17; stroke-miterlimit: 10; stroke-width: .51px;"/>
        <path d="m182.63,33.59l22.04,2.12c2.84-2.5,4.37-5.16,4.37-7.91,0-.08,0-.15-.01-.22l-24.01.22s.29,3.31-2.39,5.78Z" style="fill: #fff; stroke: #dabb17; stroke-miterlimit: 10; stroke-width: .51px;"/>
        <path d="m146.99,46.27c-12.92,2.93-23.26,2.42-23.26,2.42l4.82,5.94c10.56-.65,20.5-1.73,29.56-3.16l-11.12-5.2Z" style="fill: #fff; stroke: #dabb17; stroke-miterlimit: 10; stroke-width: .51px;"/>
        <path d="m31.18,47.12c7.39,1.95,15.89,3.6,25.22,4.9l9.68-5.4c-9.26-.29-19.16-3.71-19.16-3.71l-15.74,4.21Z" style="fill: #fff; stroke: #dabb17; stroke-miterlimit: 10; stroke-width: .51px;"/>
        <path d="m.31,27.8c0,.2.01.39.03.59l24.31-.17s.24-3.86,3.3-5.91l-23.98-1.76c-2.38,2.31-3.66,4.74-3.66,7.25Z" style="fill: #fff; stroke: #dabb17; stroke-miterlimit: 10; stroke-width: .51px;"/>
        <path d="m.31,28.42s2.16,26.64,107.85,26.47c105.7-.17,100.48-29.87,100.48-29.87,0,0,3.23,16.38-.01,30.38,0,0-5.56,21.14-99.54,24.22,0,0-88.75.38-108.02-23.7L.31,28.42Z" style="fill: #fff; opacity: .5; stroke: #231815; stroke-miterlimit: 10; stroke-width: .61px;"/>
        <path d="m.31,28.42s2.16,26.64,107.85,26.47c105.7-.17,100.48-29.87,100.48-29.87,0,0,3.23,16.38-.01,30.38,0,0-5.56,21.14-99.54,24.22,0,0-88.75.38-108.02-23.7L.31,28.42Z" style="fill: #f1db30; stroke: #dabb17; stroke-miterlimit: 10; stroke-width: .61px;"/>
        <path d="m55.83,52.14c-10.08-1.33-18.23-3.05-24.82-4.96-.22,1.93-.07,17.04.01,23.64,7.77,2.24,16.33,3.91,24.81,5.16v-23.83Z" style="fill: #fff; stroke: #dabb17; stroke-miterlimit: 10; stroke-width: .6px;"/>
        <polygon points="81.24 46.27 109.82 47.18 107.3 53.96 77.22 53.23 81.24 46.27" style="fill: none; stroke: #fff; stroke-miterlimit: 10; stroke-width: .16px;"/>
        <ellipse cx="101.03" cy="48.43" rx="1.61" ry=".49" style="fill: #fff; stroke-width: 0px;"/>
        <ellipse cx="99.31" cy="51.8" rx="1.61" ry=".49" style="fill: #fff; stroke-width: 0px;"/>
        <ellipse cx="93.92" cy="49.89" rx="1.61" ry=".49" style="fill: #fff; stroke-width: 0px;"/>
        <ellipse cx="88.22" cy="47.94" rx="1.61" ry=".49" style="fill: #fff; stroke-width: 0px;"/>
        <ellipse cx="86.62" cy="51.32" rx="1.61" ry=".49" style="fill: #fff; stroke-width: 0px;"/>
        <ellipse cx="29.55" cy="34.07" rx="1.61" ry=".49" style="fill: #fff; stroke-width: 0px;"/>
        <ellipse cx="34.24" cy="37.04" rx="1.61" ry=".49" style="fill: #fff; stroke-width: 0px;"/>
        <ellipse cx="22.61" cy="38.35" rx="1.61" ry=".49" style="fill: #fff; stroke-width: 0px;"/>
        <ellipse cx="17.68" cy="35.07" rx="1.61" ry=".49" style="fill: #fff; stroke-width: 0px;"/>
        <polygon points="9.4 34.07 19.29 40.93 45.01 38.35 34.76 31.21 9.4 34.07" style="fill: none; stroke: #fff; stroke-miterlimit: 10; stroke-width: .16px;"/>
        <ellipse cx="38.27" cy="16.12" rx="1.61" ry=".49" style="fill: #fff; stroke-width: 0px;"/>
        <ellipse cx="33.1" cy="15.1" rx="1.61" ry=".49" style="fill: #fff; stroke-width: 0px;"/>
        <ellipse cx="28.14" cy="14.13" rx="1.61" ry=".49" style="fill: #fff; stroke-width: 0px;"/>
        <ellipse cx="35.85" cy="11.47" rx="1.61" ry=".49" style="fill: #fff; stroke-width: 0px;"/>
        <ellipse cx="40.89" cy="12.44" rx="1.61" ry=".49" style="fill: #fff; stroke-width: 0px;"/>
        <ellipse cx="45.98" cy="13.41" rx="1.61" ry=".49" style="fill: #fff; stroke-width: 0px;"/>
        <polygon points="18.1 13.89 39.88 18.39 55.62 12.68 33.6 8.72 18.1 13.89" style="fill: none; stroke: #fff; stroke-miterlimit: 10; stroke-width: .16px;"/>
        <path d="m102.96,1.01l-3.54,6.98,27.04,1.03s3.35-6.98,3.35-7.08-26.85-.92-26.85-.92Z" style="fill: none; stroke: #fff; stroke-miterlimit: 10; stroke-width: .16px;"/>
        <ellipse cx="108.65" cy="6.6" rx="1.61" ry=".49" style="fill: #fff; stroke-width: 0px;"/>
        <ellipse cx="123.07" cy="3.68" rx="1.61" ry=".49" style="fill: #fff; stroke-width: 0px;"/>
        <ellipse cx="175.28" cy="17.99" rx="1.61" ry=".49" style="fill: #fff; stroke-width: 0px;"/>
        <ellipse cx="183.6" cy="18.68" rx="1.61" ry=".49" style="fill: #fff; stroke-width: 0px;"/>
        <ellipse cx="191.94" cy="19.68" rx="1.61" ry=".49" style="fill: #fff; stroke-width: 0px;"/>
        <polygon points="166.59 16.49 191.36 13.85 202.49 20.16 176.88 23.38 166.59 16.49" style="fill: none; stroke: #fff; stroke-miterlimit: 10; stroke-width: .16px;"/>
        <polygon points="153.14 41.57 169.65 35.77 191.67 40.15 175.4 45.77 153.14 41.57" style="fill: none; stroke: #fff; stroke-miterlimit: 10; stroke-width: .16px;"/>
        <ellipse cx="172.4" cy="41.25" rx="1.61" ry=".49" style="fill: #fff; stroke-width: 0px;"/>
        <path d="m128.81,78.61c11.33-.8,21.02-1.92,29.3-3.22v-23.67c-8.28,1.23-17.97,2.17-29.3,2.69v24.19Z" style="fill: #fff; stroke: #dabb17; stroke-miterlimit: 10; stroke-width: .61px;"/>
        <path d="m208.45,27.63c-.41,1.84-1.5,4.49-4.32,7.43.6,3.23,1.68,11.59.3,25.37,3.64-2.94,4.18-5.02,4.18-5.02.06-.25.11-.5.16-.74.13-7,.28-20.29-.33-27.04Z" style="fill: #fff; stroke: #dabb17; stroke-miterlimit: 10; stroke-width: .61px;"/>
      </g>
      <g>
        <path d="m67.28,30.55l.93-2.03h2.69l2.72-6.38-3,1.14,1.03-2.25,3.74-1.43h2.75l-3.38,8.91h2.68l-.7,2.03h-9.46Zm3.05-6.63l2.28-.85-.58,1.35-.91.31-.79-.8Zm-3.35,7.3h10.23l.91-2.69,1.14,1.04-1,3.12h-9.68l-1.6-1.47Zm11.77-11.61l.94,1.09-2.54,7.2h-1.48l3.08-8.29Z" style="fill: #fff; stroke-width: 0px;"/>
        <path d="m81.04,33.5h3.97l4.06-4.98.82,1.07-4.37,5.49h-2.77l-1.72-1.58Zm3.19-4.98h4.03l-3.56,4.29h-3.18l2.71-4.29Z" style="fill: #fff; stroke-width: 0px;"/>
        <path d="m105.63,24.72c0,2.18-.53,3.79-1.6,4.75-1.09.98-3,1.48-5.71,1.48s-4.53-.49-5.45-1.47c-.9-.95-1.14-2.56-.76-4.76.36-2.08,1.08-3.47,2.16-4.25,1.05-.76,2.74-1.13,5.07-1.13s3.94.37,4.87,1.14c.94.78,1.42,2.17,1.42,4.24Zm-1.26-4.83l1.57,1.13c.67.48,1.15,1.05,1.44,1.71.29.67.46,1.6.49,2.79.07,2.39-.59,4.27-2.01,5.59-1.46,1.36-3.68,2.05-6.61,2.05-.85,0-1.61-.09-2.27-.26-.66-.17-1.2-.42-1.61-.74l-1.7-1.34c.43.28,1,.49,1.7.61.7.13,1.71.19,3,.19,2.88,0,4.94-.56,6.17-1.66,1.2-1.07,1.77-2.81,1.75-5.14,0-1.28-.17-2.29-.48-3.04-.3-.74-.79-1.36-1.46-1.88Zm-8.03,4.84c-.19,1.6-.13,2.74.19,3.38.33.65.98.97,1.95.97s1.68-.33,2.12-.99c.44-.65.7-1.78.79-3.37s-.04-2.56-.38-3.11c-.33-.54-.93-.81-1.8-.81s-1.52.27-1.95.8c-.43.55-.74,1.57-.92,3.11Zm2.04,3.77c-.67-.08-1.11-.38-1.33-.9-.21-.51-.25-1.39-.11-2.62.17-1.54.42-2.52.73-2.98.31-.46.81-.68,1.49-.68.48,0,.85.13,1.14.4.28.27.43.63.45,1.1-.23-.13-.43-.22-.61-.28-.17-.06-.34-.09-.49-.09-.4,0-.68.11-.85.35-.17.23-.3.8-.39,1.73l-.03.31c-.04.47-.07,1.01-.07,1.6s.02,1.29.06,2.07Z" style="fill: #fff; stroke-width: 0px;"/>
        <path d="m122.45,24.72c.47,2.18.29,3.79-.57,4.75-.88.98-2.68,1.48-5.39,1.48s-4.64-.49-5.77-1.47c-1.1-.95-1.69-2.56-1.78-4.76-.09-2.08.33-3.47,1.24-4.25.89-.76,2.49-1.13,4.82-1.13s4.02.37,5.11,1.14c1.11.78,1.89,2.17,2.33,4.24Zm-2.3-4.83l1.81,1.13c.77.48,1.37,1.05,1.81,1.71.44.67.81,1.6,1.1,2.79.58,2.39.33,4.27-.8,5.59-1.17,1.36-3.23,2.05-6.17,2.05-.85,0-1.63-.09-2.32-.26-.7-.17-1.29-.42-1.77-.74l-1.99-1.34c.49.28,1.11.49,1.84.61.73.13,1.75.19,3.04.19,2.88,0,4.82-.56,5.81-1.66.96-1.07,1.16-2.81.64-5.14-.29-1.28-.66-2.29-1.13-3.04-.46-.74-1.08-1.36-1.86-1.88Zm-6.98,4.84c.15,1.6.46,2.74.92,3.38.47.65,1.19.97,2.16.97s1.61-.33,1.91-.99c.3-.65.31-1.78.06-3.37s-.6-2.56-1.05-3.11c-.45-.54-1.11-.81-1.98-.81s-1.47.27-1.77.8c-.31.55-.4,1.57-.25,3.11Zm2.86,3.77c-.69-.08-1.2-.38-1.52-.9-.32-.51-.55-1.39-.68-2.62-.16-1.54-.13-2.52.09-2.98.21-.46.66-.68,1.34-.68.48,0,.88.13,1.22.4.34.27.57.63.69,1.1-.26-.13-.48-.22-.67-.28-.19-.06-.35-.09-.51-.09-.4,0-.65.11-.77.35-.12.23-.13.8-.01,1.73l.04.31c.06.47.15,1.01.27,1.6s.29,1.29.5,2.07Z" style="fill: #fff; stroke-width: 0px;"/>
        <path d="m139.27,24.72c.94,2.18,1.11,3.79.45,4.75-.67.98-2.36,1.48-5.07,1.48s-4.75-.49-6.09-1.47c-1.31-.95-2.25-2.56-2.81-4.76-.54-2.08-.42-3.47.33-4.25.73-.76,2.25-1.13,4.58-1.13s4.1.37,5.36,1.14c1.28.78,2.36,2.17,3.25,4.24Zm-3.35-4.83l2.06,1.13c.87.48,1.6,1.05,2.17,1.71.59.67,1.15,1.6,1.7,2.79,1.1,2.39,1.26,4.27.41,5.59-.87,1.36-2.79,2.05-5.72,2.05-.85,0-1.64-.09-2.38-.26-.73-.17-1.38-.42-1.93-.74l-2.28-1.34c.55.28,1.21.49,1.97.61.76.13,1.79.19,3.09.19,2.88,0,4.7-.56,5.45-1.66.73-1.07.56-2.81-.47-5.14-.56-1.28-1.16-2.29-1.79-3.04-.62-.74-1.38-1.36-2.27-1.88Zm-5.93,4.84c.5,1.6,1.05,2.74,1.65,3.38.61.65,1.4.97,2.37.97s1.53-.33,1.69-.99c.16-.65-.07-1.78-.67-3.37s-1.15-2.56-1.72-3.11c-.57-.54-1.28-.81-2.15-.81s-1.41.27-1.6.8c-.19.55-.06,1.57.42,3.11Zm3.67,3.77c-.71-.08-1.28-.38-1.72-.9-.43-.51-.85-1.39-1.25-2.62-.49-1.54-.67-2.52-.56-2.98.12-.46.51-.68,1.2-.68.48,0,.91.13,1.31.4.4.27.71.63.93,1.1-.29-.13-.53-.22-.73-.28-.2-.06-.37-.09-.52-.09-.4,0-.63.11-.7.35-.07.23.05.8.36,1.73l.1.31c.16.47.37,1.01.62,1.6s.57,1.29.95,2.07Z" style="fill: #fff; stroke-width: 0px;"/>
      </g>
    </g>
  </g>
</svg>