<?xml version="1.0" encoding="UTF-8"?>
<svg id="_图层_2" data-name="图层 2" xmlns="http://www.w3.org/2000/svg" viewBox="0 0 210.38 79.98">
  <g id="_图层_7" data-name="图层 7">
    <g>
      <g>
        <ellipse cx="104.67" cy="28.13" rx="104.37" ry="27.82" style="fill: #f1db30; stroke: #dabb17; stroke-miterlimit: 10; stroke-width: .62px;"/>
        <path d="m104.46,9.8c-36.85,0-66.72,7.99-66.72,17.85s29.87,17.85,66.72,17.85,66.72-7.99,66.72-17.85-29.87-17.85-66.72-17.85Zm.32,33.7c-33.7,0-61.02-6.99-61.02-15.62s27.32-15.62,61.02-15.62,61.02,6.99,61.02,15.62-27.32,15.62-61.02,15.62Z" style="fill: #dabb17; stroke-width: 0px;"/>
        <path d="m45.57,36.05l3.36-1.86c-1.86-1.08-3.26-2.22-4.13-3.42l-5.89.22c1.27,1.8,3.54,3.5,6.67,5.06Z" style="fill: #fff; stroke-width: 0px;"/>
        <path d="m66.71,40.09c-3.34-.68-6.39-1.45-9.11-2.3l-4.07,1.39c3.84,1.21,8.27,2.29,13.18,3.19v-2.28Z" style="fill: #fff; stroke-width: 0px;"/>
        <path d="m95.24,43.31c-4.33-.17-8.5-.46-12.48-.86l-1.8,1.91c4.86.49,10,.83,15.33,1.01l-1.05-2.06Z" style="fill: #fff; stroke-width: 0px;"/>
        <path d="m126.39,42.49c-3.96.38-8.11.67-12.4.83l-.92,2.03c5.27-.18,10.35-.53,15.17-1.02l-1.84-1.84Z" style="fill: #fff; stroke-width: 0px;"/>
        <path d="m151.47,37.94c-2.64.8-5.58,1.54-8.79,2.19v2.16c4.64-.87,8.84-1.89,12.51-3.04l-3.71-1.31Z" style="fill: #fff; stroke-width: 0px;"/>
        <path d="m164.67,30.87c.73-.97,1.12-1.97,1.12-2.99,0-8.62-27.32-15.62-61.02-15.62s-61.02,6.99-61.02,15.62,27.32,15.62,61.02,15.62c25.16,0,46.75-3.9,56.09-9.46,1.69-1.01,2.98-2.07,3.81-3.17Z" style="fill: none; stroke-width: 0px;"/>
        <path d="m160.86,34.04l2.32,2.09c3.27-1.62,5.63-3.39,6.91-5.26h-5.42c-.83,1.1-2.12,2.16-3.81,3.17Z" style="fill: #fff; stroke-width: 0px;"/>
        <path d="m167.94,22.15l-6.12.19c2.38,1.6,3.77,3.33,3.95,5.14l5.39-.25c-.15-1.77-1.27-3.48-3.22-5.09Z" style="fill: #fff; stroke-width: 0px;"/>
        <path d="m37.74,27.51l6.05-.17c.23-1.71,1.52-3.34,3.72-4.86l-6.3-.53c-2.2,1.75-3.42,3.62-3.48,5.56Z" style="fill: #fff; stroke-width: 0px;"/>
        <path d="m52.79,16.36l.31,3.22c3.5-1.42,7.87-2.69,12.93-3.76l-3.84-1.98c-3.43.75-6.58,1.6-9.4,2.52Z" style="fill: #fff; stroke-width: 0px;"/>
        <path d="m81.05,10.93l-.96,2.67c4.95-.56,10.24-.96,15.77-1.17l-1.35-2.44c-4.66.19-9.17.5-13.46.93Z" style="fill: #fff; stroke-width: 0px;"/>
        <path d="m113.96,12.45c5.57.22,10.9.62,15.87,1.2l-.46-2.56c-4.42-.48-9.07-.83-13.9-1.04-.42.67-.99,1.58-1.5,2.41Z" style="fill: #fff; stroke-width: 0px;"/>
        <path d="m143.92,15.91c5.01,1.07,9.33,2.35,12.78,3.77l.53-2.96c-2.89-1-6.16-1.91-9.76-2.72l-3.55,1.91Z" style="fill: #fff; stroke-width: 0px;"/>
        <path d="m116.14.31l-2.72,6.98s22.44.87,24.84,1.75l11.12-6.33c-10.28-1.26-21.47-2.09-33.23-2.4Z" style="fill: #fff; stroke: #dabb17; stroke-miterlimit: 10; stroke-width: .51px;"/>
        <path d="m40.54,15.82s12.3-4.31,16.18-4.31l-13.89-5.7c-8.57,1.69-16.11,3.72-22.36,6.01l20.07,4.01Z" style="fill: #fff; stroke: #dabb17; stroke-miterlimit: 10; stroke-width: .51px;"/>
        <path d="m208.53,25.48c-.87-2.68-3.19-5.26-6.76-7.66l-23.6,2.34s6.03,3.56,5.82,5.74l24.55-.42Z" style="fill: #fff; stroke: #dabb17; stroke-miterlimit: 10; stroke-width: .51px;"/>
        <path d="m170.34,41.16s-6.47,3.2-17.74,4.62l12.67,5.15c8.83-1.67,16.69-3.68,23.32-5.96l-18.25-3.8Z" style="fill: #fff; stroke: #dabb17; stroke-miterlimit: 10; stroke-width: .54px;"/>
        <path d="m72.11,48.05l-9.13,4.95c9.71,1.13,20.2,1.89,31.2,2.18l2.11-5.54c-11,.36-24.18-1.6-24.18-1.6Z" style="fill: #fff; stroke: #dabb17; stroke-miterlimit: 10; stroke-width: .51px;"/>
        <path d="m1.88,31.57c1.37,2.66,4.17,5.21,8.21,7.57l20.24-2.68-5.36-5.48-23.09.59Z" style="fill: #fff; stroke: #dabb17; stroke-miterlimit: 10; stroke-width: .51px;"/>
        <path d="m.31,28.63s2.16,26.56,107.85,26.39c105.7-.17,100.48-29.78,100.48-29.78,0,0,3.23,16.33-.01,30.29,0,0-5.56,21.08-99.54,24.15,0,0-88.75.38-108.02-23.63L.31,28.63Z" style="fill: #f1db30; stroke: #dabb17; stroke-miterlimit: 10; stroke-width: .61px;"/>
        <ellipse cx="191.57" cy="35.65" rx="1.61" ry=".48" style="fill: #fff; stroke-width: 0px;"/>
        <ellipse cx="187.09" cy="33.7" rx="1.61" ry=".48" style="fill: #fff; stroke-width: 0px;"/>
        <ellipse cx="182.66" cy="31.62" rx="1.61" ry=".48" style="fill: #fff; stroke-width: 0px;"/>
        <ellipse cx="126.42" cy="49.42" rx="1.61" ry=".48" style="fill: #fff; stroke-width: 0px;"/>
        <ellipse cx="44.15" cy="43.62" rx="1.61" ry=".48" style="fill: #fff; stroke-width: 0px;"/>
        <ellipse cx="44.25" cy="41.29" rx="1.61" ry=".48" style="fill: #fff; stroke-width: 0px;"/>
        <ellipse cx="53.19" cy="43.62" rx="1.61" ry=".48" style="fill: #fff; stroke-width: 0px;"/>
        <ellipse cx="44.15" cy="45.95" rx="1.61" ry=".48" style="fill: #fff; stroke-width: 0px;"/>
        <ellipse cx="35.21" cy="43.5" rx="1.61" ry=".48" style="fill: #fff; stroke-width: 0px;"/>
        <ellipse cx="26.82" cy="24" rx="1.61" ry=".48" style="fill: #fff; stroke-width: 0px;"/>
        <ellipse cx="30.03" cy="20.72" rx="1.61" ry=".48" style="fill: #fff; stroke-width: 0px;"/>
        <ellipse cx="17.8" cy="19.91" rx="1.61" ry=".48" style="fill: #fff; stroke-width: 0px;"/>
        <ellipse cx="14.58" cy="23.2" rx="1.61" ry=".48" style="fill: #fff; stroke-width: 0px;"/>
        <ellipse cx="75.04" cy="4.98" rx="1.61" ry=".48" style="fill: #fff; stroke-width: 0px;"/>
        <ellipse cx="76.9" cy="6.65" rx="1.61" ry=".48" style="fill: #fff; stroke-width: 0px;"/>
        <ellipse cx="78.39" cy="8.2" rx="1.61" ry=".48" style="fill: #fff; stroke-width: 0px;"/>
        <ellipse cx="87.31" cy="4.2" rx="1.61" ry=".48" style="fill: #fff; stroke-width: 0px;"/>
        <ellipse cx="89.15" cy="5.8" rx="1.61" ry=".48" style="fill: #fff; stroke-width: 0px;"/>
        <ellipse cx="90.75" cy="7.4" rx="1.61" ry=".48" style="fill: #fff; stroke-width: 0px;"/>
        <ellipse cx="174.28" cy="12.02" rx="1.61" ry=".48" style="fill: #fff; stroke-width: 0px;"/>
        <ellipse cx="156.2" cy="12.02" rx="1.61" ry=".48" style="fill: #fff; stroke-width: 0px;"/>
        <polygon points="74.32 10.3 100.84 8.68 93.66 1.62 66.02 3.51 74.32 10.3" style="fill: none; stroke: #fff; stroke-miterlimit: 10; stroke-width: .31px;"/>
        <polygon points="11.69 17.37 4.37 24.48 31.01 26.03 37.5 19.12 11.69 17.37" style="fill: none; stroke: #fff; stroke-miterlimit: 10; stroke-width: .31px;"/>
        <polygon points="23.98 43.5 44.15 38.46 62.98 43.02 44.25 48.35 23.98 43.5" style="fill: none; stroke: #fff; stroke-miterlimit: 10; stroke-width: .31px;"/>
        <polygon points="111.55 46.46 117.79 53.22 144.28 51.62 137.61 45.01 111.55 46.46" style="fill: none; stroke: #fff; stroke-miterlimit: 10; stroke-width: .31px;"/>
        <polygon points="169.78 35.65 196 37.94 202.46 30.87 176.62 29.23 169.78 35.65" style="fill: none; stroke: #fff; stroke-miterlimit: 10; stroke-width: .31px;"/>
        <polygon points="165.1 16.85 184.09 11.54 166.07 6.87 146.4 11.54 165.1 16.85" style="fill: none; stroke: #fff; stroke-miterlimit: 10; stroke-width: .31px;"/>
        <path d="m62.98,76.81c11.54,1.43,22.57,2.15,30.88,2.51v-24.45c-11.76-.28-21.99-.96-30.88-1.91v23.86Z" style="fill: #fff; stroke: #dabb17; stroke-miterlimit: 10; stroke-width: .6px;"/>
        <path d="m165.48,74.4c9.72-1.76,17.26-3.77,23.11-5.81l-.23-23.8c-5.82,2.26-13.29,4.36-22.89,6.06v23.56Z" style="fill: #fff; stroke: #dabb17; stroke-miterlimit: 10; stroke-width: .61px;"/>
        <path d="m10.07,39.44c-4.55-2.78-6.99-5.42-8.29-7.39-1.04,5.5-.02,24.68-.01,24.83,2.01,2.27,4.66,4.31,7.79,6.14-.52-10.81.35-21.71.5-23.58Z" style="fill: #fff; stroke: #dabb17; stroke-miterlimit: 10; stroke-width: .61px;"/>
      </g>
      <g>
        <path d="m67.58,30.93l.93-2.03h2.69l2.72-6.38-3,1.14,1.03-2.25,3.74-1.43h2.75l-3.38,8.91h2.68l-.7,2.03h-9.46Zm3.05-6.63l2.28-.85-.58,1.35-.91.31-.79-.8Zm-3.35,7.3h10.23l.91-2.69,1.14,1.04-1,3.12h-9.68l-1.6-1.47Zm11.77-11.61l.94,1.09-2.54,7.2h-1.48l3.08-8.29Z" style="fill: #fff; stroke-width: 0px;"/>
        <path d="m81.34,33.88h3.97l4.06-4.98.82,1.07-4.37,5.49h-2.77l-1.72-1.58Zm3.19-4.98h4.03l-3.56,4.29h-3.18l2.71-4.29Z" style="fill: #fff; stroke-width: 0px;"/>
        <path d="m105.93,25.1c0,2.18-.53,3.79-1.6,4.75-1.09.98-3,1.48-5.71,1.48s-4.53-.49-5.45-1.47c-.9-.95-1.14-2.56-.76-4.76.36-2.08,1.08-3.47,2.16-4.25,1.05-.76,2.74-1.13,5.07-1.13s3.94.37,4.87,1.14c.94.78,1.42,2.17,1.42,4.24Zm-1.26-4.83l1.57,1.13c.67.48,1.15,1.05,1.44,1.71.29.67.46,1.6.49,2.79.07,2.39-.59,4.27-2.01,5.59-1.46,1.36-3.68,2.05-6.61,2.05-.85,0-1.61-.09-2.27-.26-.66-.17-1.2-.42-1.61-.74l-1.7-1.34c.43.28,1,.49,1.7.61.7.13,1.71.19,3,.19,2.88,0,4.94-.56,6.17-1.66,1.2-1.07,1.77-2.81,1.75-5.14,0-1.28-.17-2.29-.48-3.04-.3-.74-.79-1.36-1.46-1.88Zm-8.03,4.84c-.19,1.6-.13,2.74.19,3.38.33.65.98.97,1.95.97s1.68-.33,2.12-.99c.44-.65.7-1.78.79-3.37s-.04-2.56-.38-3.11c-.33-.54-.93-.81-1.8-.81s-1.52.27-1.95.8c-.43.55-.74,1.57-.92,3.11Zm2.04,3.77c-.67-.08-1.11-.38-1.33-.9-.21-.51-.25-1.39-.11-2.62.17-1.54.42-2.52.73-2.98.31-.46.81-.68,1.49-.68.48,0,.85.13,1.14.4.28.27.43.63.45,1.1-.23-.13-.43-.22-.61-.28-.17-.06-.34-.09-.49-.09-.4,0-.68.11-.85.35-.17.23-.3.8-.39,1.73l-.03.31c-.04.47-.07,1.01-.07,1.6s.02,1.29.06,2.07Z" style="fill: #fff; stroke-width: 0px;"/>
        <path d="m122.75,25.1c.47,2.18.29,3.79-.57,4.75-.88.98-2.68,1.48-5.39,1.48s-4.64-.49-5.77-1.47c-1.1-.95-1.69-2.56-1.78-4.76-.09-2.08.33-3.47,1.24-4.25.89-.76,2.49-1.13,4.82-1.13s4.02.37,5.11,1.14c1.11.78,1.89,2.17,2.33,4.24Zm-2.3-4.83l1.81,1.13c.77.48,1.37,1.05,1.81,1.71.44.67.81,1.6,1.1,2.79.58,2.39.33,4.27-.8,5.59-1.17,1.36-3.23,2.05-6.17,2.05-.85,0-1.63-.09-2.32-.26-.7-.17-1.29-.42-1.77-.74l-1.99-1.34c.49.28,1.11.49,1.84.61.73.13,1.75.19,3.04.19,2.88,0,4.82-.56,5.81-1.66.96-1.07,1.16-2.81.64-5.14-.29-1.28-.66-2.29-1.13-3.04-.46-.74-1.08-1.36-1.86-1.88Zm-6.98,4.84c.15,1.6.46,2.74.92,3.38.47.65,1.19.97,2.16.97s1.61-.33,1.91-.99c.3-.65.31-1.78.06-3.37s-.6-2.56-1.05-3.11c-.45-.54-1.11-.81-1.98-.81s-1.47.27-1.77.8c-.31.55-.4,1.57-.25,3.11Zm2.86,3.77c-.69-.08-1.2-.38-1.52-.9-.32-.51-.55-1.39-.68-2.62-.16-1.54-.13-2.52.09-2.98.21-.46.66-.68,1.34-.68.48,0,.88.13,1.22.4.34.27.57.63.69,1.1-.26-.13-.48-.22-.67-.28-.19-.06-.35-.09-.51-.09-.4,0-.65.11-.77.35-.12.23-.13.8-.01,1.73l.04.31c.06.47.15,1.01.27,1.6s.29,1.29.5,2.07Z" style="fill: #fff; stroke-width: 0px;"/>
        <path d="m139.57,25.1c.94,2.18,1.11,3.79.45,4.75-.67.98-2.36,1.48-5.07,1.48s-4.75-.49-6.09-1.47c-1.31-.95-2.25-2.56-2.81-4.76-.54-2.08-.42-3.47.33-4.25.73-.76,2.25-1.13,4.58-1.13s4.1.37,5.36,1.14c1.28.78,2.36,2.17,3.25,4.24Zm-3.35-4.83l2.06,1.13c.87.48,1.6,1.05,2.17,1.71.59.67,1.15,1.6,1.7,2.79,1.1,2.39,1.26,4.27.41,5.59-.87,1.36-2.79,2.05-5.72,2.05-.85,0-1.64-.09-2.38-.26-.73-.17-1.38-.42-1.93-.74l-2.28-1.34c.55.28,1.21.49,1.97.61.76.13,1.79.19,3.09.19,2.88,0,4.7-.56,5.45-1.66.73-1.07.56-2.81-.47-5.14-.56-1.28-1.16-2.29-1.79-3.04-.62-.74-1.38-1.36-2.27-1.88Zm-5.93,4.84c.5,1.6,1.05,2.74,1.65,3.38.61.65,1.4.97,2.37.97s1.53-.33,1.69-.99c.16-.65-.07-1.78-.67-3.37s-1.15-2.56-1.72-3.11c-.57-.54-1.28-.81-2.15-.81s-1.41.27-1.6.8c-.19.55-.06,1.57.42,3.11Zm3.67,3.77c-.71-.08-1.28-.38-1.72-.9-.43-.51-.85-1.39-1.25-2.62-.49-1.54-.67-2.52-.56-2.98.12-.46.51-.68,1.2-.68.48,0,.91.13,1.31.4.4.27.71.63.93,1.1-.29-.13-.53-.22-.73-.28-.2-.06-.37-.09-.52-.09-.4,0-.63.11-.7.35-.07.23.05.8.36,1.73l.1.31c.16.47.37,1.01.62,1.6s.57,1.29.95,2.07Z" style="fill: #fff; stroke-width: 0px;"/>
      </g>
    </g>
  </g>
</svg>