<?xml version="1.0" encoding="UTF-8"?>
<svg id="_图层_2" data-name="图层 2" xmlns="http://www.w3.org/2000/svg" viewBox="0 0 210.38 79.98">
  <g id="_图层_7" data-name="图层 7">
    <g>
      <path d="m.83,28.84s2.15,26.45,107.59,26.28,100.23-29.65,100.23-29.65c0,0,3.22,16.26-.01,30.16,0,0-5.55,20.99-99.29,24.05,0,0-88.53.38-107.75-23.53l-.76-27.3Z" style="fill: #f3dc2f; stroke: #dabb17; stroke-miterlimit: 10; stroke-width: .61px;"/>
      <ellipse cx="105.45" cy="27.98" rx="103.7" ry="27.67" style="fill: #f1db30; stroke: #dabb17; stroke-miterlimit: 10; stroke-width: .61px;"/>
      <rect x="90.42" y="2.11" width="27.39" height="6.98" style="fill: none; stroke: #fff; stroke-miterlimit: 10; stroke-width: .31px;"/>
      <ellipse cx="99.23" cy="4.15" rx="1.84" ry=".47" style="fill: #fff; stroke-width: 0px;"/>
      <ellipse cx="99.23" cy="5.85" rx="1.84" ry=".47" style="fill: #fff; stroke-width: 0px;"/>
      <ellipse cx="99.34" cy="7.52" rx="1.84" ry=".47" style="fill: #fff; stroke-width: 0px;"/>
      <ellipse cx="112.16" cy="3.97" rx="1.84" ry=".47" style="fill: #fff; stroke-width: 0px;"/>
      <ellipse cx="112.16" cy="5.85" rx="1.84" ry=".47" style="fill: #fff; stroke-width: 0px;"/>
      <ellipse cx="112.16" cy="7.52" rx="1.84" ry=".47" style="fill: #fff; stroke-width: 0px;"/>
      <polygon points="11.9 37.54 36.99 33.99 51.41 40.37 27.96 43.42 11.9 37.54" style="fill: none; stroke: #fff; stroke-miterlimit: 10; stroke-width: .31px;"/>
      <ellipse cx="33.89" cy="36.6" rx="1.94" ry=".57" style="fill: #fff; stroke-width: 0px;"/>
      <ellipse cx="31.34" cy="38.86" rx="1.94" ry=".57" style="fill: #fff; stroke-width: 0px;"/>
      <ellipse cx="29.04" cy="41" rx="1.94" ry=".57" style="fill: #fff; stroke-width: 0px;"/>
      <ellipse cx="22.59" cy="38.29" rx="1.94" ry=".57" style="fill: #fff; stroke-width: 0px;"/>
      <ellipse cx="40.29" cy="39.66" rx="1.94" ry=".57" style="fill: #fff; stroke-width: 0px;"/>
      <path d="m67.71,2.11l7.87,5.82s-18.3,2.19-20.61,3.46l-16.39-4.74s19.53-4.36,29.14-4.54Z" style="fill: #fff; stroke: #dabb17; stroke-miterlimit: 10; stroke-width: .61px;"/>
      <path d="m143.64,2.41l-7.87,5.82s18.3,2.19,20.61,3.46l16.39-4.74s-19.53-4.36-29.14-4.54Z" style="fill: #fff; stroke: #dabb17; stroke-miterlimit: 10; stroke-width: .61px;"/>
      <path d="m207.22,32.97l-21.97-1.05s2.04-4.28,0-7.13l23.26-.07s1.36,4.3-1.29,8.25Z" style="fill: #fff; stroke: #dabb17; stroke-miterlimit: 10; stroke-width: .62px;"/>
      <path d="m156.2,44.9c-2.55,1.15-21.77,3.23-21.77,3.23l7.63,5.31v.28c16.32-.14,24.58-2.31,28.15-3.66l-14.01-5.15Z" style="fill: #fff; stroke: #dabb17; stroke-miterlimit: 10; stroke-width: .61px;"/>
      <path d="m142.05,53.71v23.92s17.71-.83,28.54-3.82v-23.62l-.39-.14c-3.57,1.35-11.83,3.52-28.15,3.66Z" style="fill: #fff; stroke: #dabb17; stroke-miterlimit: 10; stroke-width: .61px;"/>
      <path d="m68.18,53.09v24.54c-11.08-1.2-20.52-2.92-28.5-4.86v-23.31c7.8,1.49,17.2,2.75,28.5,3.62Z" style="fill: #fff; stroke: #dabb17; stroke-miterlimit: 10; stroke-width: .61px;"/>
      <path d="m39.68,49.47h0s15.04-4.57,15.04-4.57c0,0,19.91,3.92,22,3.23,2.09-.69-8.54,4.97-8.54,4.97,0,0-23.06-2.49-28.5-3.63" style="fill: #fff; stroke: #dabb17; stroke-miterlimit: 10; stroke-width: .61px;"/>
      <path d="m3.58,32.72l22.39-1.01s-2.08-4.15,0-6.92l-23.71-.07s-1.39,4.17,1.32,8Z" style="fill: #fff; stroke: #dabb17; stroke-miterlimit: 10; stroke-width: .61px;"/>
      <path d="m2.26,24.72s-4.16,8.88-.36,31.3c0,0,.18-23.24,1.67-23.3,0,0-1.7-5.84-1.32-8Z" style="fill: #fff; stroke: #dabb17; stroke-miterlimit: 10; stroke-width: .61px;"/>
      <path d="m105.24,10.8c-37.02,0-67.02,7.69-67.02,17.17s30.01,17.17,67.02,17.17,67.02-7.69,67.02-17.17-30.01-17.17-67.02-17.17Zm.37,33.17c-34.01,0-61.58-7.18-61.58-16.04s27.57-16.04,61.58-16.04,61.58,7.18,61.58,16.04-27.57,16.04-61.58,16.04Z" style="fill: #dabb17; stroke-width: 0px;"/>
      <path d="m160.6,35.16c-1.64.84-3.55,1.64-5.71,2.39l.13,1.92c4.34-1.23,7.98-2.62,10.79-4.14l-5.21-.18Z" style="fill: #fff; stroke-width: 0px;"/>
      <path d="m167.19,28.03c0,1.12-.44,2.21-1.28,3.26l4.92.32c.93-1.14,1.43-2.32,1.43-3.54,0-.4-.06-.79-.16-1.19h-5.07c.1.38.16.76.16,1.14Z" style="fill: #fff; stroke-width: 0px;"/>
      <path d="m131.27,13.43c5.23.62,10.06,1.42,14.38,2.37l.21-1.43c-4.4-.85-9.21-1.57-14.36-2.12l-.23,1.18Z" style="fill: #fff; stroke-width: 0px;"/>
      <path d="m97.5,10.96v1.12c2.65-.09,5.36-.14,8.11-.14s5.65.05,8.39.15v-1.09c-2.87-.1-5.79-.15-8.76-.15-2.62,0-5.2.04-7.74.11Z" style="fill: #fff; stroke-width: 0px;"/>
      <path d="m159.51,17.98l-3.45.84c3.68,1.38,6.56,2.91,8.45,4.56l3.62-1.23c-2.13-1.5-5.05-2.9-8.62-4.16Z" style="fill: #fff; stroke-width: 0px;"/>
      <path d="m44.04,27.93c0-.46.08-.92.23-1.37h-5.82c-.15.47-.23.94-.23,1.41,0,1.29.56,2.54,1.61,3.75l5.55-.46c-.87-1.08-1.33-2.19-1.33-3.33Z" style="fill: #fff; stroke-width: 0px;"/>
      <path d="m56.12,37.48c-2.47-.87-4.61-1.8-6.37-2.79l-5.17.6c2.96,1.61,6.87,3.08,11.54,4.37v-2.18Z" style="fill: #fff; stroke-width: 0px;"/>
      <path d="m81.35,42.68c-4.37-.49-8.47-1.1-12.25-1.83l-1.92,1.26c4.41.78,9.2,1.43,14.28,1.92l-.11-1.36Z" style="fill: #fff; stroke-width: 0px;"/>
      <path d="m112.92,45.04v-1.18c-2.4.07-4.84.11-7.31.11s-4.8-.04-7.14-.11l-.05,1.2c2.24.06,4.51.09,6.81.09,2.6,0,5.16-.04,7.68-.11Z" style="fill: #fff; stroke-width: 0px;"/>
      <path d="m65.88,14.08l-.05,1.62c4.22-.93,8.94-1.72,14.03-2.33l-.9-1.19c-4.65.51-9.03,1.15-13.07,1.9Z" style="fill: #fff; stroke-width: 0px;"/>
      <path d="m43.73,21.14l3.19,1.93c1.75-1.44,4.26-2.78,7.4-4.01l-3.26-1.19c-2.89,1.01-5.35,2.11-7.32,3.28Z" style="fill: #fff; stroke-width: 0px;"/>
      <path d="m142.22,40.83c-3.77.73-7.87,1.34-12.23,1.83v1.27c4.77-.49,9.26-1.11,13.42-1.85l-1.2-1.26Z" style="fill: #fff; stroke-width: 0px;"/>
      <polygon points="90.44 53.37 117.8 53.09 117.8 46.15 90.44 46.15 90.44 53.37" style="fill: none; stroke: #fff; stroke-miterlimit: 10; stroke-width: .31px;"/>
      <ellipse cx="105.61" cy="49.92" rx="2.15" ry=".53" style="fill: #fff; stroke-width: 0px;"/>
      <polygon points="11.9 17.87 25.45 12.02 50.35 15.21 37.09 21.18 11.9 17.87" style="fill: none; stroke: #fff; stroke-miterlimit: 10; stroke-width: .31px;"/>
      <ellipse cx="29.03" cy="14.5" rx="1.94" ry=".57" style="fill: #fff; stroke-width: 0px;"/>
      <ellipse cx="22.77" cy="17.51" rx="1.94" ry=".57" style="fill: #fff; stroke-width: 0px;"/>
      <ellipse cx="33.89" cy="19.04" rx="1.94" ry=".57" style="fill: #fff; stroke-width: 0px;"/>
      <ellipse cx="40.16" cy="16.23" rx="1.94" ry=".57" style="fill: #fff; stroke-width: 0px;"/>
      <polygon points="175.5 21.25 199.06 17.98 186.04 11.9 160.35 14.97 175.5 21.25" style="fill: none; stroke: #fff; stroke-miterlimit: 10; stroke-width: .31px;"/>
      <ellipse cx="171.2" cy="16.24" rx="2.11" ry=".67" style="fill: #fff; stroke-width: 0px;"/>
      <ellipse cx="188.55" cy="17.49" rx="2.11" ry=".67" style="fill: #fff; stroke-width: 0px;"/>
      <polygon points="174.05 33.68 198.37 37.32 185.25 43.36 160.85 39.84 174.05 33.68" style="fill: none; stroke: #fff; stroke-miterlimit: 10; stroke-width: .31px;"/>
      <ellipse cx="177.46" cy="36.56" rx="2.15" ry=".65" style="fill: #fff; stroke-width: 0px;"/>
      <ellipse cx="179.78" cy="38.95" rx="2.15" ry=".65" style="fill: #fff; stroke-width: 0px;"/>
      <ellipse cx="182.15" cy="41.18" rx="2.15" ry=".65" style="fill: #fff; stroke-width: 0px;"/>
      <path d="m207.65,33.84s2.98-4.18,1.31,22.48c0,0,2.51-23.67.01-30.27,0,0-.54,6.72-1.32,7.79Z" style="fill: #fff; stroke: #dabb17; stroke-miterlimit: 10; stroke-width: .6px;"/>
      <g>
        <path d="m68.1,35.94l.73-1.99c-2.02-.08-3.38-.6-4.1-1.55s-.71-2.2-.04-3.77h4.16c-.26.79-.31,1.36-.15,1.72s.55.55,1.17.57l1.28-3.44c-1.87-.4-3.11-.94-3.71-1.62s-.66-1.55-.2-2.62c.5-1.16,1.39-2.07,2.68-2.75s2.73-1.01,4.41-1.04l.39-1.07h1.61l-.37,1.05c1.58.03,2.72.37,3.42,1.02s.92,1.6.62,2.84h-3.74c.14-.53.12-.94-.07-1.21s-.53-.41-1.05-.43l-.96,2.76c1.94.43,3.25,1,3.92,1.69s.85,1.67.49,2.92c-.43,1.49-1.29,2.66-2.61,3.49s-3.12,1.33-5.34,1.45l-.69,1.97h-1.86Zm4.64-11.85l.91-2.47h-.08c-.61,0-1.1.1-1.48.29s-.65.49-.81.9c-.12.31-.07.56.14.75s.66.37,1.32.52Zm-1.12,6.82c.74,0,1.34-.12,1.81-.37s.77-.6.92-1.07c.13-.4.08-.72-.16-.96s-.73-.46-1.49-.67l-1.08,3.06Z" style="fill: #fff; stroke: #d9bb19; stroke-miterlimit: 10;"/>
        <path d="m84.22,33.69l1.89-8.71h-3.51l.7-2.75c1.42-.02,2.51-.24,3.27-.65s1.31-1.07,1.68-1.98h3.33l-2.36,14.09h-5Z" style="fill: #fff; stroke: #d9bb19; stroke-miterlimit: 10;"/>
        <path d="m94.89,38.06l.25-2.32c.86-.12,1.5-.36,1.92-.71s.64-.85.7-1.5h-2.38l.49-4.64h4.92l-.26,4.71c-.07,1.25-.58,2.26-1.55,3.04s-2.35,1.26-4.09,1.42Z" style="fill: #fff; stroke: #d9bb19; stroke-miterlimit: 10;"/>
        <path d="m102.74,26.1c.08-2.36.7-4.08,1.84-5.21s2.71-1.64,4.81-1.64,3.76.54,4.97,1.64,2,2.84,2.27,5.21c.29,2.5-.11,4.48-1.21,5.88s-2.96,2.18-5.44,2.18-4.33-.74-5.58-2.18-1.75-3.38-1.66-5.87Zm9.08,0c-.09-1.5-.32-2.52-.67-3.11s-.9-.87-1.64-.87-1.28.28-1.58.86-.45,1.61-.43,3.12.21,2.68.57,3.33.95.99,1.77.99,1.38-.34,1.68-1,.4-1.78.31-3.32Z" style="fill: #fff; stroke: #d9bb19; stroke-miterlimit: 10;"/>
        <path d="m117.56,26.1c-.29-2.36.05-4.08,1.01-5.21s2.45-1.64,4.55-1.64,3.85.54,5.23,1.64,2.45,2.84,3.1,5.21c.68,2.5.61,4.48-.27,5.88s-2.61,2.18-5.09,2.18-4.45-.74-5.92-2.18-2.29-3.38-2.6-5.87Zm9.08,0c-.33-1.5-.72-2.52-1.17-3.11s-1.03-.87-1.78-.87-1.23.28-1.45.86-.2,1.61.07,3.12.64,2.68,1.1,3.33,1.11.99,1.93.99,1.32-.34,1.52-1,.12-1.78-.22-3.32Z" style="fill: #fff; stroke: #d9bb19; stroke-miterlimit: 10;"/>
        <path d="m132.38,26.1c-.67-2.36-.6-4.08.18-5.21s2.18-1.64,4.29-1.64,3.94.54,5.49,1.64,2.91,2.84,3.93,5.21c1.08,2.5,1.32,4.48.66,5.88s-2.27,2.18-4.75,2.18-4.57-.74-6.27-2.18-2.83-3.38-3.54-5.87Zm9.08,0c-.57-1.5-1.12-2.52-1.67-3.11s-1.17-.87-1.92-.87-1.19.28-1.31.86.06,1.61.57,3.12,1.07,2.68,1.63,3.33,1.27.99,2.09.99,1.27-.34,1.36-1-.17-1.78-.76-3.32Z" style="fill: #fff; stroke: #d9bb19; stroke-miterlimit: 10;"/>
      </g>
    </g>
  </g>
</svg>