<?xml version="1.0" encoding="UTF-8"?>
<svg id="_图层_2" data-name="图层 2" xmlns="http://www.w3.org/2000/svg" viewBox="0 0 210.38 79.93">
  <g id="_图层_7" data-name="图层 7">
    <g>
      <ellipse cx="104.67" cy="27.8" rx="104.37" ry="27.55" style="fill: #f1db30; stroke: #dabb17; stroke-miterlimit: 10; stroke-width: .51px;"/>
      <path d="m104.57,9.57c-36.85,0-66.72,8.05-66.72,17.98s29.87,17.98,66.72,17.98,66.72-8.05,66.72-17.98-29.87-17.98-66.72-17.98Zm.32,33.95c-33.7,0-61.02-7.04-61.02-15.73s27.32-15.73,61.02-15.73,61.02,7.04,61.02,15.73-27.32,15.73-61.02,15.73Z" style="fill: #dabb17; stroke-width: 0px;"/>
      <path d="m133.67,41.66c-3.74.52-7.72.94-11.88,1.25l-.3,2.04c5.15-.36,10.06-.89,14.64-1.55-.75-.53-1.66-1.17-2.46-1.74Z" style="fill: #fff; stroke-width: 0px;"/>
      <path d="m157.48,35.77c-2.44,1.07-5.36,2.05-8.67,2.94l.16,2.27c5.09-1.22,9.47-2.65,12.98-4.24l-4.46-.97Z" style="fill: #fff; stroke-width: 0px;"/>
      <path d="m43.87,27.79c0-1.24.55-2.44,1.6-3.59l-6.23-.31c-.91,1.18-1.39,2.41-1.39,3.67,0,.49.08.98.22,1.47h5.98c-.12-.41-.18-.81-.18-1.23Z" style="fill: #fff; stroke-width: 0px;"/>
      <path d="m165.88,28.28c-.21,1.79-1.58,3.5-3.92,5.08l5.48.22c2.2-1.67,3.52-3.45,3.8-5.3h-5.36Z" style="fill: #fff; stroke-width: 0px;"/>
      <path d="m163.66,19.19l-5.07,1.12c2.81,1.34,4.89,2.79,6.1,4.33l5.34-.59c-1.26-1.72-3.43-3.35-6.37-4.86Z" style="fill: #fff; stroke-width: 0px;"/>
      <path d="m136.96,14.4c5.3.85,10.06,1.89,14.12,3.11l-.17-2.9c-3.48-.91-7.32-1.71-11.46-2.4l-2.48,2.19Z" style="fill: #fff; stroke-width: 0px;"/>
      <path d="m104.67,12.06c.07,0,.14,0,.22,0,5.75,0,11.31.21,16.58.59l-.7-2.54c-4.67-.31-9.52-.5-14.52-.53l-1.57,2.49Z" style="fill: #fff; stroke-width: 0px;"/>
      <path d="m47.14,18.39l2.64,2.63c2.7-1.46,6.24-2.79,10.46-3.96l-3.82-1.96c-3.54.99-6.65,2.1-9.28,3.29Z" style="fill: #fff; stroke-width: 0px;"/>
      <path d="m72.24,11.82l-.31,2.73c4.79-.79,10.03-1.42,15.61-1.84l-1.53-2.43c-4.84.38-9.46.9-13.78,1.54Z" style="fill: #fff; stroke-width: 0px;"/>
      <path d="m103.77,43.52c-4.48-.02-8.85-.17-13.04-.42l-1.74,1.95c4.93.32,10.08.49,15.37.49l-.58-2.02Z" style="fill: #fff; stroke-width: 0px;"/>
      <path d="m72.99,41.2c-3.69-.59-7.13-1.27-10.25-2.04l-3.17,1.66c4.23,1.04,8.96,1.94,14.09,2.66l-.66-2.29Z" style="fill: #fff; stroke-width: 0px;"/>
      <path d="m49.4,37.66l2.94-1.88c-2.39-1.04-4.34-2.16-5.75-3.35l-5.5.65c1.97,1.64,4.78,3.18,8.31,4.57Z" style="fill: #fff; stroke-width: 0px;"/>
      <path d="m62.02,9.57l23.45-2.32-5.18-6.23c-10.95.69-21.23,1.84-30.53,3.36l12.26,5.2Z" style="fill: #fff; stroke: #dabb17; stroke-miterlimit: 10; stroke-width: .51px;"/>
      <path d="m154.57,3.6l-10.55,5.96s13,1.39,18.89,3.88l17.8-4.51c-7.56-2.12-16.37-3.93-26.14-5.33Z" style="fill: #fff; stroke: #dabb17; stroke-miterlimit: 10; stroke-width: .51px;"/>
      <path d="m182.63,33.59l22.04,2.12c2.84-2.5,4.37-5.16,4.37-7.91,0-.08,0-.15-.01-.22l-24.01.22s.29,3.31-2.39,5.78Z" style="fill: #fff; stroke: #dabb17; stroke-miterlimit: 10; stroke-width: .51px;"/>
      <path d="m146.99,46.27c-12.92,2.93-23.26,2.42-23.26,2.42l4.82,5.94c10.56-.65,20.5-1.73,29.56-3.16l-11.12-5.2Z" style="fill: #fff; stroke: #dabb17; stroke-miterlimit: 10; stroke-width: .51px;"/>
      <path d="m31.18,47.12c7.39,1.95,15.89,3.6,25.22,4.9l9.68-5.4c-9.26-.29-19.16-3.71-19.16-3.71l-15.74,4.21Z" style="fill: #fff; stroke: #dabb17; stroke-miterlimit: 10; stroke-width: .51px;"/>
      <path d="m.31,27.8c0,.2.01.39.03.59l24.31-.17s.24-3.86,3.3-5.91l-23.98-1.76c-2.38,2.31-3.66,4.74-3.66,7.25Z" style="fill: #fff; stroke: #dabb17; stroke-miterlimit: 10; stroke-width: .51px;"/>
      <path d="m.31,28.42s2.16,26.64,107.85,26.47c105.7-.17,100.48-29.87,100.48-29.87,0,0,3.23,16.38-.01,30.38,0,0-5.56,21.14-99.54,24.22,0,0-88.75.38-108.02-23.7L.31,28.42Z" style="fill: #fff; opacity: .5; stroke: #231815; stroke-miterlimit: 10; stroke-width: .61px;"/>
      <path d="m.31,28.42s2.16,26.64,107.85,26.47c105.7-.17,100.48-29.87,100.48-29.87,0,0,3.23,16.38-.01,30.38,0,0-5.56,21.14-99.54,24.22,0,0-88.75.38-108.02-23.7L.31,28.42Z" style="fill: #f1db30; stroke: #dabb17; stroke-miterlimit: 10; stroke-width: .61px;"/>
      <path d="m55.83,52.14c-10.08-1.33-18.23-3.05-24.82-4.96-.22,1.93-.07,17.04.01,23.64,7.77,2.24,16.33,3.91,24.81,5.16v-23.83Z" style="fill: #fff; stroke: #dabb17; stroke-miterlimit: 10; stroke-width: .6px;"/>
      <polygon points="81.24 46.27 109.82 47.18 107.3 53.96 77.22 53.23 81.24 46.27" style="fill: none; stroke: #fff; stroke-miterlimit: 10; stroke-width: .16px;"/>
      <ellipse cx="101.03" cy="48.43" rx="1.61" ry=".49" style="fill: #fff; stroke-width: 0px;"/>
      <ellipse cx="99.31" cy="51.8" rx="1.61" ry=".49" style="fill: #fff; stroke-width: 0px;"/>
      <ellipse cx="93.92" cy="49.89" rx="1.61" ry=".49" style="fill: #fff; stroke-width: 0px;"/>
      <ellipse cx="88.22" cy="47.94" rx="1.61" ry=".49" style="fill: #fff; stroke-width: 0px;"/>
      <ellipse cx="86.62" cy="51.32" rx="1.61" ry=".49" style="fill: #fff; stroke-width: 0px;"/>
      <ellipse cx="29.55" cy="34.07" rx="1.61" ry=".49" style="fill: #fff; stroke-width: 0px;"/>
      <ellipse cx="34.24" cy="37.04" rx="1.61" ry=".49" style="fill: #fff; stroke-width: 0px;"/>
      <ellipse cx="22.61" cy="38.35" rx="1.61" ry=".49" style="fill: #fff; stroke-width: 0px;"/>
      <ellipse cx="17.68" cy="35.07" rx="1.61" ry=".49" style="fill: #fff; stroke-width: 0px;"/>
      <polygon points="9.4 34.07 19.29 40.93 45.01 38.35 34.76 31.21 9.4 34.07" style="fill: none; stroke: #fff; stroke-miterlimit: 10; stroke-width: .16px;"/>
      <ellipse cx="38.27" cy="16.12" rx="1.61" ry=".49" style="fill: #fff; stroke-width: 0px;"/>
      <ellipse cx="33.1" cy="15.1" rx="1.61" ry=".49" style="fill: #fff; stroke-width: 0px;"/>
      <ellipse cx="28.14" cy="14.13" rx="1.61" ry=".49" style="fill: #fff; stroke-width: 0px;"/>
      <ellipse cx="35.85" cy="11.47" rx="1.61" ry=".49" style="fill: #fff; stroke-width: 0px;"/>
      <ellipse cx="40.89" cy="12.44" rx="1.61" ry=".49" style="fill: #fff; stroke-width: 0px;"/>
      <ellipse cx="45.98" cy="13.41" rx="1.61" ry=".49" style="fill: #fff; stroke-width: 0px;"/>
      <polygon points="18.1 13.89 39.88 18.39 55.62 12.68 33.6 8.72 18.1 13.89" style="fill: none; stroke: #fff; stroke-miterlimit: 10; stroke-width: .16px;"/>
      <path d="m102.96,1.01l-3.54,6.98,27.04,1.03s3.35-6.98,3.35-7.08-26.85-.92-26.85-.92Z" style="fill: none; stroke: #fff; stroke-miterlimit: 10; stroke-width: .16px;"/>
      <ellipse cx="108.65" cy="6.6" rx="1.61" ry=".49" style="fill: #fff; stroke-width: 0px;"/>
      <ellipse cx="123.07" cy="3.68" rx="1.61" ry=".49" style="fill: #fff; stroke-width: 0px;"/>
      <ellipse cx="175.28" cy="17.99" rx="1.61" ry=".49" style="fill: #fff; stroke-width: 0px;"/>
      <ellipse cx="183.6" cy="18.68" rx="1.61" ry=".49" style="fill: #fff; stroke-width: 0px;"/>
      <ellipse cx="191.94" cy="19.68" rx="1.61" ry=".49" style="fill: #fff; stroke-width: 0px;"/>
      <polygon points="166.59 16.49 191.36 13.85 202.49 20.16 176.88 23.38 166.59 16.49" style="fill: none; stroke: #fff; stroke-miterlimit: 10; stroke-width: .16px;"/>
      <polygon points="153.14 41.57 169.65 35.77 191.67 40.15 175.4 45.77 153.14 41.57" style="fill: none; stroke: #fff; stroke-miterlimit: 10; stroke-width: .16px;"/>
      <ellipse cx="172.4" cy="41.25" rx="1.61" ry=".49" style="fill: #fff; stroke-width: 0px;"/>
      <path d="m128.81,78.61c11.33-.8,21.02-1.92,29.3-3.22v-23.67c-8.28,1.23-17.97,2.17-29.3,2.69v24.19Z" style="fill: #fff; stroke: #dabb17; stroke-miterlimit: 10; stroke-width: .61px;"/>
      <path d="m208.45,27.63c-.41,1.84-1.5,4.49-4.32,7.43.6,3.23,1.68,11.59.3,25.37,3.64-2.94,4.18-5.02,4.18-5.02.06-.25.11-.5.16-.74.13-7,.28-20.29-.33-27.04Z" style="fill: #fff; stroke: #dabb17; stroke-miterlimit: 10; stroke-width: .61px;"/>
      <g>
        <path d="m65.61,36.33l.73-1.99c-2.02-.08-3.38-.6-4.1-1.55s-.71-2.2-.04-3.77h4.16c-.26.79-.31,1.36-.15,1.72s.55.55,1.17.57l1.28-3.44c-1.87-.4-3.11-.94-3.71-1.62s-.66-1.55-.2-2.62c.5-1.16,1.39-2.07,2.68-2.75s2.73-1.01,4.41-1.04l.39-1.07h1.61l-.37,1.05c1.58.03,2.72.37,3.42,1.02s.92,1.6.62,2.84h-3.74c.14-.53.12-.94-.07-1.21s-.53-.41-1.05-.43l-.96,2.76c1.94.43,3.25,1,3.92,1.69s.85,1.67.49,2.92c-.43,1.49-1.29,2.66-2.61,3.49s-3.12,1.33-5.34,1.45l-.69,1.97h-1.86Zm4.64-11.85l.91-2.47h-.08c-.61,0-1.1.1-1.48.29s-.65.49-.81.9c-.12.31-.07.56.14.75s.66.37,1.32.52Zm-1.12,6.82c.74,0,1.34-.12,1.81-.37s.77-.6.92-1.07c.13-.4.08-.72-.16-.96s-.73-.46-1.49-.67l-1.08,3.06Z" style="fill: #fff; stroke: #d9bb19; stroke-miterlimit: 10;"/>
        <path d="m81.74,34.08l1.89-8.71h-3.51l.7-2.75c1.42-.02,2.51-.24,3.27-.65s1.31-1.07,1.68-1.98h3.33l-2.36,14.09h-5Z" style="fill: #fff; stroke: #d9bb19; stroke-miterlimit: 10;"/>
        <path d="m92.41,38.45l.25-2.32c.86-.12,1.5-.36,1.92-.71s.64-.85.7-1.5h-2.38l.49-4.64h4.92l-.26,4.71c-.07,1.25-.58,2.26-1.55,3.04s-2.35,1.26-4.09,1.42Z" style="fill: #fff; stroke: #d9bb19; stroke-miterlimit: 10;"/>
        <path d="m100.26,26.49c.08-2.36.7-4.08,1.84-5.21s2.71-1.64,4.81-1.64,3.76.54,4.97,1.64,2,2.84,2.27,5.21c.29,2.5-.11,4.48-1.21,5.88s-2.96,2.18-5.44,2.18-4.33-.74-5.58-2.18-1.75-3.38-1.66-5.87Zm9.08,0c-.09-1.5-.32-2.52-.67-3.11s-.9-.87-1.64-.87-1.28.28-1.58.86-.45,1.61-.43,3.12.21,2.68.57,3.33.95.99,1.77.99,1.38-.34,1.68-1,.4-1.78.31-3.32Z" style="fill: #fff; stroke: #d9bb19; stroke-miterlimit: 10;"/>
        <path d="m115.08,26.49c-.29-2.36.05-4.08,1.01-5.21s2.45-1.64,4.55-1.64,3.85.54,5.23,1.64,2.45,2.84,3.1,5.21c.68,2.5.61,4.48-.27,5.88s-2.61,2.18-5.09,2.18-4.45-.74-5.92-2.18-2.29-3.38-2.6-5.87Zm9.08,0c-.33-1.5-.72-2.52-1.17-3.11s-1.03-.87-1.78-.87-1.23.28-1.45.86-.2,1.61.07,3.12.64,2.68,1.1,3.33,1.11.99,1.93.99,1.32-.34,1.52-1,.12-1.78-.22-3.32Z" style="fill: #fff; stroke: #d9bb19; stroke-miterlimit: 10;"/>
        <path d="m129.9,26.49c-.67-2.36-.6-4.08.18-5.21s2.18-1.64,4.29-1.64,3.94.54,5.49,1.64,2.91,2.84,3.93,5.21c1.08,2.5,1.32,4.48.66,5.88s-2.27,2.18-4.75,2.18-4.57-.74-6.27-2.18-2.83-3.38-3.54-5.87Zm9.08,0c-.57-1.5-1.12-2.52-1.67-3.11s-1.17-.87-1.92-.87-1.19.28-1.31.86.06,1.61.57,3.12,1.07,2.68,1.63,3.33,1.27.99,2.09.99,1.27-.34,1.36-1-.17-1.78-.76-3.32Z" style="fill: #fff; stroke: #d9bb19; stroke-miterlimit: 10;"/>
      </g>
    </g>
  </g>
</svg>