<?xml version="1.0" encoding="UTF-8"?>
<svg id="_图层_2" data-name="图层 2" xmlns="http://www.w3.org/2000/svg" viewBox="0 0 70.24 70.4">
  <g id="_图层_1-2" data-name="图层 1">
    <polygon points="35.22 .54 69.61 17.95 69.75 52.68 35.05 69.86 .49 52.68 .86 18.01 35.22 .54" style="fill: #fff; stroke: #231815; stroke-miterlimit: 10; stroke-width: .97px;"/>
    <polygon points="5.58 19.34 34.82 4.41 42.41 8.79 20.78 19.68 35.28 27.1 50.1 19.65 46.31 17.43 35.24 23.62 28.13 19.45 46.31 10.18 64.11 19.78 35.12 34.68 5.58 19.34" style="fill: #231815; stroke: #231815; stroke-miterlimit: 10; stroke-width: .97px;"/>
    <polygon points="4.61 21.46 33.98 36.25 33.67 54.86 23.04 49.1 23.08 53.14 33.33 58.4 33.67 65.72 15.39 56.61 15.74 44.93 11.61 43.59 11.45 54.83 4 50.95 4.61 21.46" style="fill: #231815; stroke-width: 0px;"/>
    <polyline points="65.76 43.85 44.46 55.01 44.46 50.8 65.95 39.85 65.95 32.63 45.11 43.52 43.81 43.42 43.81 39.88 66.33 28.62 66.33 21.47 36.65 36.37 36.65 66.07 66.33 50.7 66.06 43.77" style="fill: #231815; stroke-width: 0px;"/>
    <polygon points="11.64 32.63 11.64 36.54 26.14 43.59 26.33 39.58 11.64 32.63" style="fill: #fff; stroke-width: 0px;"/>
  </g>
</svg>