<?xml version="1.0" encoding="UTF-8"?>
<svg id="_图层_2" data-name="图层 2" xmlns="http://www.w3.org/2000/svg" viewBox="0 0 210.38 79.98">
  <g id="_图层_7" data-name="图层 7">
    <g>
      <g>
        <ellipse cx="104.74" cy="27.97" rx="104.43" ry="27.66" style="fill: #c7beaf; stroke: #b0a18d; stroke-miterlimit: 10; stroke-width: .61px;"/>
        <ellipse cx="62.65" cy="47.1" rx="1.88" ry=".71" style="fill: #fff; stroke-width: 0px;"/>
        <ellipse cx="60.23" cy="44.7" rx="1.88" ry=".71" style="fill: #fff; stroke-width: 0px;"/>
        <ellipse cx="71.33" cy="46.4" rx="1.88" ry=".71" style="fill: #fff; stroke-width: 0px;"/>
        <ellipse cx="64.96" cy="49.22" rx="1.88" ry=".71" style="fill: #fff; stroke-width: 0px;"/>
        <ellipse cx="53.83" cy="47.65" rx="1.88" ry=".71" style="fill: #fff; stroke-width: 0px;"/>
        <ellipse cx="138.12" cy="9.02" rx="1.88" ry=".71" style="fill: #fff; stroke-width: 0px;"/>
        <ellipse cx="155.53" cy="7.85" rx="1.88" ry=".71" style="fill: #fff; stroke-width: 0px;"/>
        <ellipse cx="147.72" cy="46.85" rx="1.88" ry=".71" style="fill: #fff; stroke-width: 0px;"/>
        <ellipse cx="183.6" cy="26.03" rx="1.88" ry=".71" style="fill: #fff; stroke-width: 0px;"/>
        <ellipse cx="189.86" cy="27.44" rx="1.88" ry=".71" style="fill: #fff; stroke-width: 0px;"/>
        <ellipse cx="196.22" cy="29.08" rx="1.88" ry=".71" style="fill: #fff; stroke-width: 0px;"/>
        <polygon points="127.32 9.31 152.44 12.86 165.27 6.49 141.02 3.09 127.32 9.31" style="fill: none; opacity: .99; stroke: #fff; stroke-miterlimit: 10; stroke-width: .31px;"/>
        <polygon points="31.51 31.02 31.51 24.09 4.61 24.09 4.32 31.02 31.51 31.02" style="fill: none; stroke: #fff; stroke-miterlimit: 10; stroke-width: .31px;"/>
        <polygon points="142.28 50.91 167.4 48.09 154.05 42.04 129.7 45.15 142.28 50.91" style="fill: none; stroke: #fff; stroke-miterlimit: 10; stroke-width: .31px;"/>
        <polygon points="43.1 48.35 56.51 42.19 80.82 45.15 67.36 51.69 43.1 48.35" style="fill: none; stroke: #fff; stroke-miterlimit: 10; stroke-width: .31px;"/>
        <polygon points="174.42 31.29 202.26 30.95 202.26 23.8 174.42 23.8 174.42 31.29" style="fill: none; stroke: #fff; stroke-miterlimit: 10; stroke-width: .31px;"/>
        <path d="m89.06,54.27c5.12.2,10.35.3,15.68.3,5.72,0,11.34-.12,16.81-.35l-3.79-5.11h-25.46l-3.25,5.16Z" style="fill: #fff; stroke: #b0a18d; stroke-miterlimit: 10; stroke-width: .61px;"/>
        <path d="m179.17,35.76c-.77,2.14-10.27,5.4-10.27,5.4l17.18,4.15c6.48-2.13,11.8-4.52,15.69-7.1l-22.6-2.45Z" style="fill: #fff; stroke: #b0a18d; stroke-miterlimit: 10; stroke-width: .61px;"/>
        <path d="m31.51,20.37c.53-2.04,9.59-5.25,9.59-5.25l-18.35-4.29c-6.79,2.27-12.25,4.84-16.09,7.61l24.84,1.93Z" style="fill: #fff; stroke: #b0a18d; stroke-miterlimit: 10; stroke-width: .61px;"/>
        <path d="m91.75,7.3h25.1l5.2-6.61c-5.63-.25-11.41-.38-17.31-.38s-12.16.14-18.01.41l5.03,6.58Z" style="fill: #fff; stroke: #b0a18d; stroke-miterlimit: 10; stroke-width: .61px;"/>
        <path d="m186.62,10.8l-18.71,4.3c5.5.97,10.9,5,10.9,5l23.32-2.13c-3.81-2.6-9.07-5.01-15.51-7.17Z" style="fill: #fff; stroke: #b0a18d; stroke-miterlimit: 10; stroke-width: .61px;"/>
        <polygon points="57.22 13.53 81.37 9.73 67.63 3.13 42.05 7 57.22 13.53" style="fill: none; stroke: #fff; stroke-miterlimit: 10; stroke-width: .31px;"/>
        <ellipse cx="63.69" cy="6.15" rx="1.7" ry=".57" style="fill: #fff; stroke-width: 0px;"/>
        <ellipse cx="66.96" cy="7.59" rx="1.7" ry=".57" style="fill: #fff; stroke-width: 0px;"/>
        <ellipse cx="70.36" cy="9.04" rx="1.7" ry=".57" style="fill: #fff; stroke-width: 0px;"/>
        <ellipse cx="59.15" cy="10.79" rx="1.7" ry=".57" style="fill: #fff; stroke-width: 0px;"/>
        <ellipse cx="56.12" cy="9.33" rx="1.7" ry=".57" style="fill: #fff; stroke-width: 0px;"/>
        <ellipse cx="52.97" cy="7.87" rx="1.7" ry=".57" style="fill: #fff; stroke-width: 0px;"/>
        <ellipse cx="25.68" cy="26.1" rx="1.88" ry=".71" style="fill: #fff; stroke-width: 0px;"/>
        <ellipse cx="25.68" cy="29.36" rx="1.88" ry=".71" style="fill: #fff; stroke-width: 0px;"/>
        <ellipse cx="13" cy="26.1" rx="1.88" ry=".71" style="fill: #fff; stroke-width: 0px;"/>
        <ellipse cx="13" cy="29.36" rx="1.88" ry=".71" style="fill: #fff; stroke-width: 0px;"/>
        <path d="m.31,28.77s2.16,26.48,107.85,26.31,100.48-29.69,100.48-29.69c0,0,3.23,16.29-.01,30.2,0,0-5.56,21.02-99.54,24.08,0,0-88.75.38-108.02-23.56L.31,28.77Z" style="fill: #c7beaf; stroke: #b0a18d; stroke-miterlimit: 10; stroke-width: .61px;"/>
        <path d="m185.5,69.64c7.67-2.41,12.82-4.92,16.26-7.13v-24.97c-3.42,2.78-8.51,5.7-16.08,8.33l-.18,23.77Z" style="fill: #fff; stroke: #b0a18d; stroke-miterlimit: 10; stroke-width: .61px;"/>
        <path d="m121.55,54.67c-4.26.12-8.71.19-13.39.2-6.79.01-13.14-.09-19.1-.29v24.51c11.89.62,20.03.59,20.03.59,4.34-.14,8.49-.32,12.46-.54v-24.47Z" style="fill: #fff; stroke: #b0a18d; stroke-miterlimit: 10; stroke-width: .62px;"/>
        <path d="m7.27,37.92c4.23,2.9,10.25,5.57,17.71,7.91l16.13-4.42c-3.33-.39-10.51-5.4-10.51-5.4l-23.32,1.91Z" style="fill: #fff; stroke: #b0a18d; stroke-miterlimit: 10; stroke-width: .61px;"/>
        <path d="m7.96,62.08c4.44,2.85,10.02,5.25,16.28,7.25l.24-23.45c-7.52-2.44-12.72-5.08-16.29-7.54l-.23,23.74Z" style="fill: #fff; stroke: #b0a18d; stroke-miterlimit: 10; stroke-width: .61px;"/>
        <path d="m104.74,9.73c-37.18,0-67.31,7.93-67.31,17.71s30.14,17.71,67.31,17.71,67.31-7.93,67.31-17.71-30.14-17.71-67.31-17.71Zm.31,33.88c-33.39,0-60.46-7.12-60.46-15.91s27.07-15.91,60.46-15.91,60.46,7.12,60.46,15.91-27.07,15.91-60.46,15.91Z" style="fill: #b0a18d; stroke-width: 0px;"/>
        <path d="m159.75,17.24l-4.88,1.45c3.39,1.3,6.08,2.73,7.9,4.26l4.34-2.17c-1.94-1.26-4.42-2.44-7.36-3.54Z" style="fill: #fff; stroke-width: 0px;"/>
        <path d="m165.51,27.7c0,.85-.26,1.68-.75,2.49l5.68,1.09c1.04-1.24,1.61-2.53,1.61-3.85,0-.48-.09-.95-.23-1.41h-6.65c.22.55.34,1.11.34,1.67Z" style="fill: #fff; stroke-width: 0px;"/>
        <path d="m159.97,34.35c-1.72.99-3.81,1.92-6.23,2.78l.54,2.3c4.64-1.33,8.51-2.84,11.45-4.5l-5.76-.58Z" style="fill: #fff; stroke-width: 0px;"/>
        <path d="m142.62,40.16c-4.04.85-8.5,1.56-13.29,2.11v1.66c5.06-.52,9.81-1.2,14.18-2.01l-.89-1.76Z" style="fill: #fff; stroke-width: 0px;"/>
        <path d="m112.12,45.05v-1.55c-2.32.07-4.68.11-7.08.11s-4.77-.04-7.1-.11l-.05,1.57c2.25.06,4.54.09,6.85.09,2.5,0,4.96-.04,7.38-.11Z" style="fill: #fff; stroke-width: 0px;"/>
        <path d="m80.82,42.28c-4.38-.5-8.49-1.14-12.25-1.89l-.93,1.83c4.1.71,8.52,1.31,13.19,1.78v-1.72Z" style="fill: #fff; stroke-width: 0px;"/>
        <path d="m56.24,37.09c-2.27-.82-4.26-1.69-5.91-2.62l-5.58,1c3.03,1.56,6.91,2.99,11.5,4.25v-2.63Z" style="fill: #fff; stroke-width: 0px;"/>
        <path d="m130.1,13.23c5.17.62,9.94,1.42,14.2,2.38v-2.49c-4.28-.82-8.93-1.51-13.89-2.05l-.31,2.16Z" style="fill: #fff; stroke-width: 0px;"/>
        <path d="m42.05,20.99l5.09,2.13c1.57-1.37,3.82-2.67,6.65-3.86l-2.67-2.53c-3.73,1.29-6.79,2.72-9.08,4.26Z" style="fill: #fff; stroke-width: 0px;"/>
        <path d="m44.59,27.7c0-.36.06-.72.15-1.08l-7.15-.38c-.1.4-.17.79-.17,1.19,0,1.41.65,2.78,1.83,4.1l6.77-.39c-.94-1.11-1.45-2.27-1.45-3.46Z" style="fill: #fff; stroke-width: 0px;"/>
        <path d="m64.69,13.21v2.65c4.3-1.01,9.15-1.87,14.43-2.53l-1.26-2.13c-4.69.54-9.11,1.21-13.17,2Z" style="fill: #fff; stroke-width: 0px;"/>
        <path d="m96.38,9.87v2.09c2.83-.11,5.72-.17,8.67-.17,2.42,0,4.8.04,7.15.11v-2.07c-2.45-.07-4.94-.11-7.46-.11-2.83,0-5.62.05-8.36.14Z" style="fill: #fff; stroke-width: 0px;"/>
      </g>
      <g>
        <path d="m57.17,27.71h3.21c-.2.42-.22.74-.03.96s.55.35,1.09.35,1.01-.13,1.43-.4.73-.63.96-1.11c.25-.53.28-.92.1-1.17s-.57-.38-1.18-.38c-.29,0-.58.03-.89.1s-.63.17-.96.3h-2.63l2.42-4.46h7.87l-.56,1.24h-5.45l-1.08,2.1c.52-.16.99-.28,1.42-.36s.82-.12,1.19-.12c1.26,0,2.15.24,2.66.73s.6,1.16.23,2.02c-.4.92-1.12,1.62-2.15,2.1s-2.39.72-4.04.72-2.78-.22-3.36-.65-.65-1.09-.23-1.97Zm.85-.92h2.97c.26-.14.51-.24.76-.3s.51-.1.78-.1c.44,0,.73.08.86.24s.12.42-.05.76l-.03.06c-.13-.05-.27-.09-.41-.11s-.31-.04-.48-.04c-.16,0-.31.01-.47.04s-.32.07-.48.13l-.21-.21h-2.88l-.34-.49Zm9.29-1.47l.86.99c.18.2.28.43.29.69s-.06.58-.21.96c-.46,1.1-1.37,2.02-2.72,2.75-1.38.75-2.92,1.12-4.59,1.12-.8,0-1.47-.09-2.02-.26s-.98-.43-1.28-.77l-.64-.69c.35.24.8.42,1.34.53s1.32.16,2.32.16c1.77,0,3.25-.29,4.41-.86s1.95-1.39,2.41-2.45c.19-.44.27-.84.24-1.2s-.17-.68-.41-.98Zm-5.1-.64l.57-1.13h5.47l.73-1.65.61.8-.74,1.72h-4.63c-.4,0-.75.02-1.07.06s-.63.1-.95.19Zm-1.35,3.04l.71.8h-.15c-.3,0-.51-.07-.61-.21s-.08-.34.05-.59Z" style="fill: #fff; stroke-width: 0px;"/>
        <path d="m67.3,32.11h2.73l3.37-3.52.45.77-3.62,3.84h-1.89l-1.03-1.09Zm2.7-3.52h2.83l-2.94,3.04h-2.2l2.3-3.04Z" style="fill: #fff; stroke-width: 0px;"/>
        <path d="m85.67,25.8c-.37,1.61-1.01,2.78-1.92,3.47s-2.32,1.05-4.2,1.05-3.09-.35-3.61-1.04-.48-1.86.08-3.48,1.24-2.63,2.13-3.23,2.16-.88,3.87-.88,2.82.29,3.36.88.65,1.66.29,3.22Zm-.07-3.68l.94.87c.4.37.64.8.73,1.3s.04,1.2-.15,2.09c-.37,1.75-1.16,3.11-2.36,4.04s-2.86,1.44-4.89,1.44c-.59,0-1.1-.06-1.53-.18s-.77-.29-1.01-.52l-1-.94c.26.2.63.35,1.1.43s1.16.13,2.06.13c1.99,0,3.51-.4,4.54-1.18s1.71-2.03,2.1-3.75c.22-.96.28-1.72.19-2.3s-.33-1.05-.73-1.45Zm-6.56,3.69c-.36,1.19-.48,2.02-.34,2.49s.55.7,1.23.7,1.22-.24,1.64-.71.77-1.3,1.08-2.48.38-1.93.22-2.35-.54-.62-1.18-.62-1.15.2-1.53.62-.76,1.19-1.12,2.35Zm.91,2.76c-.46-.06-.73-.28-.81-.65s.02-1.02.3-1.93c.35-1.15.67-1.9.97-2.25s.69-.52,1.18-.52c.34,0,.6.1.76.3s.21.48.15.84c-.15-.1-.28-.17-.39-.21s-.23-.07-.34-.07c-.29,0-.51.09-.66.26s-.34.61-.54,1.3l-.07.23c-.1.35-.2.75-.29,1.19s-.18.94-.26,1.51Z" style="fill: #fff; stroke-width: 0px;"/>
        <path d="m97.68,25.8c-.15,1.61-.63,2.78-1.44,3.47s-2.18,1.05-4.06,1.05-3.14-.35-3.75-1.04-.73-1.86-.4-3.48.88-2.63,1.69-3.23,2.04-.88,3.74-.88,2.86.29,3.48.88.88,1.66.74,3.22Zm-.58-3.68l1.06.87c.45.37.75.8.91,1.3s.21,1.2.14,2.09c-.13,1.75-.73,3.11-1.8,4.04s-2.67,1.44-4.69,1.44c-.59,0-1.1-.06-1.55-.18s-.81-.29-1.09-.52l-1.13-.94c.29.2.68.35,1.16.43s1.18.13,2.08.13c1.99,0,3.46-.4,4.38-1.18s1.43-2.03,1.58-3.75c.08-.96.04-1.72-.13-2.3s-.48-1.05-.93-1.45Zm-6.05,3.69c-.2,1.19-.2,2.02,0,2.49s.65.7,1.33.7,1.19-.24,1.54-.71.59-1.3.74-2.48.11-1.93-.1-2.35-.63-.62-1.26-.62-1.12.2-1.45.62-.6,1.19-.79,2.35Zm1.29,2.76c-.47-.06-.77-.28-.9-.65s-.12-1.02.03-1.93c.19-1.15.41-1.9.66-2.25s.62-.52,1.11-.52c.34,0,.61.1.8.3s.28.48.27.84c-.16-.1-.3-.17-.42-.21s-.24-.07-.35-.07c-.29,0-.49.09-.63.26s-.25.61-.36,1.3l-.04.23c-.05.35-.1.75-.12,1.19s-.05.94-.05,1.51Z" style="fill: #fff; stroke-width: 0px;"/>
        <path d="m109.69,25.8c.07,1.61-.24,2.78-.96,3.47s-2.03,1.05-3.91,1.05-3.19-.35-3.9-1.04-.99-1.86-.88-3.48.52-2.63,1.24-3.23,1.92-.88,3.62-.88,2.9.29,3.6.88,1.11,1.66,1.18,3.22Zm-1.09-3.68l1.18.87c.5.37.86.8,1.09,1.3s.38,1.2.43,2.09c.11,1.75-.3,3.11-1.24,4.04s-2.47,1.44-4.49,1.44c-.59,0-1.11-.06-1.58-.18s-.85-.29-1.16-.52l-1.26-.94c.32.2.73.35,1.22.43s1.2.13,2.1.13c1.99,0,3.4-.4,4.22-1.18s1.15-2.03,1.06-3.75c-.05-.96-.2-1.72-.44-2.3s-.62-1.05-1.13-1.45Zm-5.54,3.69c-.04,1.19.08,2.02.35,2.49s.75.7,1.42.7,1.16-.24,1.44-.71.41-1.3.4-2.48c-.01-1.15-.15-1.93-.42-2.35s-.72-.62-1.35-.62-1.09.2-1.36.62-.43,1.19-.47,2.35Zm1.67,2.76c-.48-.06-.81-.28-.99-.65s-.26-1.02-.24-1.93c.03-1.15.15-1.9.35-2.25s.55-.52,1.04-.52c.34,0,.63.1.84.3s.35.48.38.84c-.17-.1-.32-.17-.45-.21s-.25-.07-.36-.07c-.29,0-.48.09-.59.26s-.17.61-.18,1.3v.23c0,.35,0,.75.04,1.19s.08.94.16,1.51Z" style="fill: #fff; stroke-width: 0px;"/>
        <path d="m112.38,32.11h2.73l1.67-3.52.82.77-1.77,3.84h-1.89l-1.56-1.09Zm1-3.52h2.83l-1.47,3.04h-2.2l.83-3.04Z" style="fill: #fff; stroke-width: 0px;"/>
        <path d="m127.7,25.8c.41,1.61.33,2.78-.24,3.47s-1.82,1.05-3.7,1.05-3.26-.35-4.11-1.04-1.37-1.86-1.6-3.48-.02-2.63.58-3.23,1.74-.88,3.44-.88,2.96.29,3.78.88,1.45,1.66,1.85,3.22Zm-1.85-3.68l1.36.87c.58.37,1.03.8,1.36,1.3s.63,1.2.87,2.09c.47,1.75.35,3.11-.41,4.04s-2.17,1.44-4.19,1.44c-.59,0-1.12-.06-1.62-.18s-.91-.29-1.27-.52l-1.46-.94c.36.2.8.35,1.31.43s1.22.13,2.12.13c1.99,0,3.32-.4,3.97-1.18s.73-2.03.29-3.75c-.25-.96-.55-1.72-.92-2.3s-.84-1.05-1.43-1.45Zm-4.78,3.69c.21,1.19.5,2.02.86,2.49s.89.7,1.57.7,1.11-.24,1.29-.71.14-1.3-.12-2.48c-.25-1.15-.55-1.93-.91-2.35s-.85-.62-1.48-.62-1.05.2-1.24.62-.19,1.19.02,2.35Zm2.24,2.76c-.49-.06-.86-.28-1.12-.65s-.47-1.02-.64-1.93c-.21-1.15-.25-1.9-.12-2.25s.44-.52.93-.52c.34,0,.65.1.91.3s.45.48.56.84c-.19-.1-.36-.17-.5-.21s-.26-.07-.37-.07c-.29,0-.46.09-.54.26s-.04.61.09,1.3l.04.23c.07.35.16.75.28,1.19s.28.94.47,1.51Z" style="fill: #fff; stroke-width: 0px;"/>
        <path d="m139.71,25.8c.63,1.61.72,2.78.24,3.47s-1.67,1.05-3.55,1.05-3.31-.35-4.26-1.04-1.63-1.86-2.08-3.48-.39-2.63.13-3.23,1.62-.88,3.32-.88,3,.29,3.91.88,1.68,1.66,2.29,3.22Zm-2.36-3.68l1.49.87c.63.37,1.14.8,1.54,1.3s.79,1.2,1.15,2.09c.71,1.75.77,3.11.15,4.04s-1.97,1.44-3.99,1.44c-.59,0-1.13-.06-1.64-.18s-.95-.29-1.34-.52l-1.59-.94c.39.2.85.35,1.37.43s1.24.13,2.14.13c1.99,0,3.27-.4,3.81-1.18s.45-2.03-.23-3.75c-.38-.96-.79-1.72-1.24-2.3s-.98-1.05-1.63-1.45Zm-4.27,3.69c.37,1.19.77,2.02,1.2,2.49s.99.7,1.67.7,1.08-.24,1.19-.71-.04-1.3-.46-2.48-.82-1.93-1.23-2.35-.93-.62-1.56-.62-1.02.2-1.15.62-.02,1.19.34,2.35Zm2.62,2.76c-.5-.06-.9-.28-1.21-.65s-.61-1.02-.9-1.93c-.37-1.15-.51-1.9-.43-2.25s.36-.52.86-.52c.34,0,.66.1.95.3s.51.48.67.84c-.21-.1-.38-.17-.52-.21s-.27-.07-.38-.07c-.29,0-.45.09-.5.26s.04.61.27,1.3l.08.23c.12.35.27.75.45,1.19s.41.94.68,1.51Z" style="fill: #fff; stroke-width: 0px;"/>
        <path d="m151.72,25.8c.85,1.61,1.1,2.78.72,3.47s-1.53,1.05-3.41,1.05-3.36-.35-4.4-1.04-1.88-1.86-2.56-3.48-.75-2.63-.31-3.23,1.49-.88,3.2-.88,3.04.29,4.03.88,1.91,1.66,2.74,3.22Zm-2.86-3.68l1.61.87c.68.37,1.25.8,1.72,1.3s.96,1.2,1.44,2.09c.96,1.75,1.2,3.11.71,4.04s-1.77,1.44-3.8,1.44c-.59,0-1.14-.06-1.66-.18s-.99-.29-1.41-.52l-1.72-.94c.42.2.89.35,1.43.43s1.26.13,2.16.13c1.99,0,3.21-.4,3.65-1.18s.17-2.03-.75-3.75c-.51-.96-1.03-1.72-1.55-2.3s-1.13-1.05-1.83-1.45Zm-3.76,3.69c.54,1.19,1.05,2.02,1.55,2.49s1.09.7,1.76.7,1.04-.24,1.1-.71-.22-1.3-.8-2.48-1.08-1.93-1.56-2.35-1.02-.62-1.65-.62-.99.2-1.07.62.14,1.19.67,2.35Zm3,2.76c-.5-.06-.94-.28-1.3-.65s-.75-1.02-1.17-1.93c-.53-1.15-.77-1.9-.74-2.25s.29-.52.79-.52c.34,0,.67.1.99.3s.58.48.79.84c-.22-.1-.41-.17-.55-.21s-.28-.07-.39-.07c-.29,0-.44.09-.46.26s.12.61.45,1.3l.11.23c.17.35.37.75.61,1.19s.54.94.88,1.51Z" style="fill: #fff; stroke-width: 0px;"/>
      </g>
    </g>
  </g>
</svg>