<?xml version="1.0" encoding="UTF-8"?>
<svg id="_图层_2" data-name="图层 2" xmlns="http://www.w3.org/2000/svg" viewBox="0 0 210.38 79.98">
  <g id="_图层_7" data-name="图层 7">
    <g>
      <g>
        <path d="m.83,28.84s2.15,26.45,107.59,26.28,100.23-29.65,100.23-29.65c0,0,3.22,16.26-.01,30.16,0,0-5.55,20.99-99.29,24.05,0,0-88.53.38-107.75-23.53l-.76-27.3Z" style="fill: #c7beaf; stroke: #b0a18d; stroke-miterlimit: 10; stroke-width: .61px;"/>
        <ellipse cx="105.45" cy="27.98" rx="103.7" ry="27.67" style="fill: #c7beaf; stroke: #b0a18d; stroke-miterlimit: 10; stroke-width: .61px;"/>
        <rect x="90.42" y="2.11" width="27.39" height="6.98" style="fill: none; stroke: #fff; stroke-miterlimit: 10; stroke-width: .31px;"/>
        <ellipse cx="99.23" cy="4.15" rx="1.84" ry=".47" style="fill: #fff; stroke-width: 0px;"/>
        <ellipse cx="99.23" cy="5.85" rx="1.84" ry=".47" style="fill: #fff; stroke-width: 0px;"/>
        <ellipse cx="99.34" cy="7.52" rx="1.84" ry=".47" style="fill: #fff; stroke-width: 0px;"/>
        <ellipse cx="112.16" cy="3.97" rx="1.84" ry=".47" style="fill: #fff; stroke-width: 0px;"/>
        <ellipse cx="112.16" cy="5.85" rx="1.84" ry=".47" style="fill: #fff; stroke-width: 0px;"/>
        <ellipse cx="112.16" cy="7.52" rx="1.84" ry=".47" style="fill: #fff; stroke-width: 0px;"/>
        <polygon points="11.9 37.54 36.99 33.99 51.41 40.37 27.96 43.42 11.9 37.54" style="fill: none; stroke: #fff; stroke-miterlimit: 10; stroke-width: .31px;"/>
        <ellipse cx="33.89" cy="36.6" rx="1.94" ry=".57" style="fill: #fff; stroke-width: 0px;"/>
        <ellipse cx="31.34" cy="38.86" rx="1.94" ry=".57" style="fill: #fff; stroke-width: 0px;"/>
        <ellipse cx="29.04" cy="41" rx="1.94" ry=".57" style="fill: #fff; stroke-width: 0px;"/>
        <ellipse cx="22.59" cy="38.29" rx="1.94" ry=".57" style="fill: #fff; stroke-width: 0px;"/>
        <ellipse cx="40.29" cy="39.66" rx="1.94" ry=".57" style="fill: #fff; stroke-width: 0px;"/>
        <path d="m67.71,2.11l7.87,5.82s-18.3,2.19-20.61,3.46l-16.39-4.74s19.53-4.36,29.14-4.54Z" style="fill: #fff; stroke: #b0a18d; stroke-miterlimit: 10; stroke-width: .61px;"/>
        <path d="m143.64,2.41l-7.87,5.82s18.3,2.19,20.61,3.46l16.39-4.74s-19.53-4.36-29.14-4.54Z" style="fill: #fff; stroke: #b0a18d; stroke-miterlimit: 10; stroke-width: .61px;"/>
        <path d="m207.22,32.97l-21.97-1.05s2.04-4.28,0-7.13l23.26-.07s1.36,4.3-1.29,8.25Z" style="fill: #fff; stroke: #b0a18d; stroke-miterlimit: 10; stroke-width: .62px;"/>
        <path d="m156.2,44.9c-2.55,1.15-21.77,3.23-21.77,3.23l7.63,5.31v.28c16.32-.14,24.58-2.31,28.15-3.66l-14.01-5.15Z" style="fill: #fff; stroke: #b0a18d; stroke-miterlimit: 10; stroke-width: .61px;"/>
        <path d="m142.05,53.71v23.92s17.71-.83,28.54-3.82v-23.62l-.39-.14c-3.57,1.35-11.83,3.52-28.15,3.66Z" style="fill: #fff; stroke: #b0a18d; stroke-miterlimit: 10; stroke-width: .61px;"/>
        <path d="m68.18,53.09v24.54c-11.08-1.2-20.52-2.92-28.5-4.86v-23.31c7.8,1.49,17.2,2.75,28.5,3.62Z" style="fill: #fff; stroke: #b0a18d; stroke-miterlimit: 10; stroke-width: .61px;"/>
        <path d="m39.68,49.47h0s15.04-4.57,15.04-4.57c0,0,19.91,3.92,22,3.23,2.09-.69-8.54,4.97-8.54,4.97,0,0-23.06-2.49-28.5-3.63" style="fill: #fff; stroke: #b0a18d; stroke-miterlimit: 10; stroke-width: .61px;"/>
        <path d="m3.58,32.72l22.39-1.01s-2.08-4.15,0-6.92l-23.71-.07s-1.39,4.17,1.32,8Z" style="fill: #fff; stroke: #b0a18d; stroke-miterlimit: 10; stroke-width: .61px;"/>
        <path d="m2.26,24.72s-4.16,8.88-.36,31.3c0,0,.18-23.24,1.67-23.3,0,0-1.7-5.84-1.32-8Z" style="fill: #fff; stroke: #b0a18d; stroke-miterlimit: 10; stroke-width: .61px;"/>
        <path d="m105.24,10.8c-37.02,0-67.02,7.69-67.02,17.17s30.01,17.17,67.02,17.17,67.02-7.69,67.02-17.17-30.01-17.17-67.02-17.17Zm.37,33.17c-34.01,0-61.58-7.18-61.58-16.04s27.57-16.04,61.58-16.04,61.58,7.18,61.58,16.04-27.57,16.04-61.58,16.04Z" style="fill: #b0a18d; stroke-width: 0px;"/>
        <path d="m160.6,35.16c-1.64.84-3.55,1.64-5.71,2.39l.13,1.92c4.34-1.23,7.98-2.62,10.79-4.14l-5.21-.18Z" style="fill: #fff; stroke-width: 0px;"/>
        <path d="m167.19,28.03c0,1.12-.44,2.21-1.28,3.26l4.92.32c.93-1.14,1.43-2.32,1.43-3.54,0-.4-.06-.79-.16-1.19h-5.07c.1.38.16.76.16,1.14Z" style="fill: #fff; stroke-width: 0px;"/>
        <path d="m131.27,13.43c5.23.62,10.06,1.42,14.38,2.37l.21-1.43c-4.4-.85-9.21-1.57-14.36-2.12l-.23,1.18Z" style="fill: #fff; stroke-width: 0px;"/>
        <path d="m97.5,10.96v1.12c2.65-.09,5.36-.14,8.11-.14s5.65.05,8.39.15v-1.09c-2.87-.1-5.79-.15-8.76-.15-2.62,0-5.2.04-7.74.11Z" style="fill: #fff; stroke-width: 0px;"/>
        <path d="m159.51,17.98l-3.45.84c3.68,1.38,6.56,2.91,8.45,4.56l3.62-1.23c-2.13-1.5-5.05-2.9-8.62-4.16Z" style="fill: #fff; stroke-width: 0px;"/>
        <path d="m44.04,27.93c0-.46.08-.92.23-1.37h-5.82c-.15.47-.23.94-.23,1.41,0,1.29.56,2.54,1.61,3.75l5.55-.46c-.87-1.08-1.33-2.19-1.33-3.33Z" style="fill: #fff; stroke-width: 0px;"/>
        <path d="m56.12,37.48c-2.47-.87-4.61-1.8-6.37-2.79l-5.17.6c2.96,1.61,6.87,3.08,11.54,4.37v-2.18Z" style="fill: #fff; stroke-width: 0px;"/>
        <path d="m81.35,42.68c-4.37-.49-8.47-1.1-12.25-1.83l-1.92,1.26c4.41.78,9.2,1.43,14.28,1.92l-.11-1.36Z" style="fill: #fff; stroke-width: 0px;"/>
        <path d="m112.92,45.04v-1.18c-2.4.07-4.84.11-7.31.11s-4.8-.04-7.14-.11l-.05,1.2c2.24.06,4.51.09,6.81.09,2.6,0,5.16-.04,7.68-.11Z" style="fill: #fff; stroke-width: 0px;"/>
        <path d="m65.88,14.08l-.05,1.62c4.22-.93,8.94-1.72,14.03-2.33l-.9-1.19c-4.65.51-9.03,1.15-13.07,1.9Z" style="fill: #fff; stroke-width: 0px;"/>
        <path d="m43.73,21.14l3.19,1.93c1.75-1.44,4.26-2.78,7.4-4.01l-3.26-1.19c-2.89,1.01-5.35,2.11-7.32,3.28Z" style="fill: #fff; stroke-width: 0px;"/>
        <path d="m142.22,40.83c-3.77.73-7.87,1.34-12.23,1.83v1.27c4.77-.49,9.26-1.11,13.42-1.85l-1.2-1.26Z" style="fill: #fff; stroke-width: 0px;"/>
        <polygon points="90.44 53.37 117.8 53.09 117.8 46.15 90.44 46.15 90.44 53.37" style="fill: none; stroke: #fff; stroke-miterlimit: 10; stroke-width: .31px;"/>
        <ellipse cx="105.61" cy="49.92" rx="2.15" ry=".53" style="fill: #fff; stroke-width: 0px;"/>
        <polygon points="11.9 17.87 25.45 12.02 50.35 15.21 37.09 21.18 11.9 17.87" style="fill: none; stroke: #fff; stroke-miterlimit: 10; stroke-width: .31px;"/>
        <ellipse cx="29.03" cy="14.5" rx="1.94" ry=".57" style="fill: #fff; stroke-width: 0px;"/>
        <ellipse cx="22.77" cy="17.51" rx="1.94" ry=".57" style="fill: #fff; stroke-width: 0px;"/>
        <ellipse cx="33.89" cy="19.04" rx="1.94" ry=".57" style="fill: #fff; stroke-width: 0px;"/>
        <ellipse cx="40.16" cy="16.23" rx="1.94" ry=".57" style="fill: #fff; stroke-width: 0px;"/>
        <polygon points="175.5 21.25 199.06 17.98 186.04 11.9 160.35 14.97 175.5 21.25" style="fill: none; stroke: #fff; stroke-miterlimit: 10; stroke-width: .31px;"/>
        <ellipse cx="171.2" cy="16.24" rx="2.11" ry=".67" style="fill: #fff; stroke-width: 0px;"/>
        <ellipse cx="188.55" cy="17.49" rx="2.11" ry=".67" style="fill: #fff; stroke-width: 0px;"/>
        <polygon points="174.05 33.68 198.37 37.32 185.25 43.36 160.85 39.84 174.05 33.68" style="fill: none; stroke: #fff; stroke-miterlimit: 10; stroke-width: .31px;"/>
        <ellipse cx="177.46" cy="36.56" rx="2.15" ry=".65" style="fill: #fff; stroke-width: 0px;"/>
        <ellipse cx="179.78" cy="38.95" rx="2.15" ry=".65" style="fill: #fff; stroke-width: 0px;"/>
        <ellipse cx="182.15" cy="41.18" rx="2.15" ry=".65" style="fill: #fff; stroke-width: 0px;"/>
        <path d="m207.65,33.84s2.98-4.18,1.31,22.48c0,0,2.51-23.67.01-30.27,0,0-.54,6.72-1.32,7.79Z" style="fill: #fff; stroke: #b0a18d; stroke-miterlimit: 10; stroke-width: .6px;"/>
      </g>
      <g>
        <path d="m59.19,28.21h3.21c-.2.42-.22.74-.03.96s.55.35,1.09.35,1.01-.13,1.43-.4.73-.63.96-1.11c.25-.53.28-.92.1-1.17s-.57-.38-1.18-.38c-.29,0-.58.03-.89.1s-.63.17-.96.3h-2.63l2.42-4.46h7.87l-.56,1.24h-5.45l-1.08,2.1c.52-.16.99-.28,1.42-.36s.82-.12,1.19-.12c1.26,0,2.15.24,2.66.73s.6,1.16.23,2.02c-.4.92-1.12,1.62-2.15,2.1s-2.39.72-4.04.72-2.78-.22-3.36-.65-.65-1.09-.23-1.97Zm.85-.92h2.97c.26-.14.51-.24.76-.3s.51-.1.78-.1c.44,0,.73.08.86.24s.12.42-.05.76l-.03.06c-.13-.05-.27-.09-.41-.11s-.31-.04-.48-.04c-.16,0-.31.01-.47.04s-.32.07-.48.13l-.21-.21h-2.88l-.34-.49Zm9.29-1.47l.86.99c.18.2.28.43.29.69s-.06.58-.21.96c-.46,1.1-1.37,2.02-2.72,2.75-1.38.75-2.92,1.12-4.59,1.12-.8,0-1.47-.09-2.02-.26s-.98-.43-1.28-.77l-.64-.69c.35.24.8.42,1.34.53s1.32.16,2.32.16c1.77,0,3.25-.29,4.41-.86s1.95-1.39,2.41-2.45c.19-.44.27-.84.24-1.2s-.17-.68-.41-.98Zm-5.1-.64l.57-1.13h5.47l.73-1.65.61.8-.74,1.72h-4.63c-.4,0-.75.02-1.07.06s-.63.1-.95.19Zm-1.35,3.04l.71.8h-.15c-.3,0-.51-.07-.61-.21s-.08-.34.05-.59Z" style="fill: #fff; stroke-width: 0px;"/>
        <path d="m69.32,32.6h2.73l3.37-3.52.45.77-3.62,3.84h-1.89l-1.03-1.09Zm2.7-3.52h2.83l-2.94,3.04h-2.2l2.3-3.04Z" style="fill: #fff; stroke-width: 0px;"/>
        <path d="m87.68,26.29c-.37,1.61-1.01,2.78-1.92,3.47s-2.32,1.05-4.2,1.05-3.09-.35-3.61-1.04-.48-1.86.08-3.48,1.24-2.63,2.13-3.23,2.16-.88,3.87-.88,2.82.29,3.36.88.65,1.66.29,3.22Zm-.07-3.68l.94.87c.4.37.64.8.73,1.3s.04,1.2-.15,2.09c-.37,1.75-1.16,3.11-2.36,4.04s-2.86,1.44-4.89,1.44c-.59,0-1.1-.06-1.53-.18s-.77-.29-1.01-.52l-1-.94c.26.2.63.35,1.1.43s1.16.13,2.06.13c1.99,0,3.51-.4,4.54-1.18s1.71-2.03,2.1-3.75c.22-.96.28-1.72.19-2.3s-.33-1.05-.73-1.45Zm-6.56,3.69c-.36,1.19-.48,2.02-.34,2.49s.55.7,1.23.7,1.22-.24,1.64-.71.77-1.3,1.08-2.48.38-1.93.22-2.35-.54-.62-1.18-.62-1.15.2-1.53.62-.76,1.19-1.12,2.35Zm.91,2.76c-.46-.06-.73-.28-.81-.65s.02-1.02.3-1.93c.35-1.15.67-1.9.97-2.25s.69-.52,1.18-.52c.34,0,.6.1.76.3s.21.48.15.84c-.15-.1-.28-.17-.39-.21s-.23-.07-.34-.07c-.29,0-.51.09-.66.26s-.34.61-.54,1.3l-.07.23c-.1.35-.2.75-.29,1.19s-.18.94-.26,1.51Z" style="fill: #fff; stroke-width: 0px;"/>
        <path d="m99.69,26.29c-.15,1.61-.63,2.78-1.44,3.47s-2.18,1.05-4.06,1.05-3.14-.35-3.75-1.04-.73-1.86-.4-3.48.88-2.63,1.69-3.23,2.04-.88,3.74-.88,2.86.29,3.48.88.88,1.66.74,3.22Zm-.58-3.68l1.06.87c.45.37.75.8.91,1.3s.21,1.2.14,2.09c-.13,1.75-.73,3.11-1.8,4.04s-2.67,1.44-4.69,1.44c-.59,0-1.1-.06-1.55-.18s-.81-.29-1.09-.52l-1.13-.94c.29.2.68.35,1.16.43s1.18.13,2.08.13c1.99,0,3.46-.4,4.38-1.18s1.43-2.03,1.58-3.75c.08-.96.04-1.72-.13-2.3s-.48-1.05-.93-1.45Zm-6.05,3.69c-.2,1.19-.2,2.02,0,2.49s.65.7,1.33.7,1.19-.24,1.54-.71.59-1.3.74-2.48.11-1.93-.1-2.35-.63-.62-1.26-.62-1.12.2-1.45.62-.6,1.19-.79,2.35Zm1.29,2.76c-.47-.06-.77-.28-.9-.65s-.12-1.02.03-1.93c.19-1.15.41-1.9.66-2.25s.62-.52,1.11-.52c.34,0,.61.1.8.3s.28.48.27.84c-.16-.1-.3-.17-.42-.21s-.24-.07-.35-.07c-.29,0-.49.09-.63.26s-.25.61-.36,1.3l-.04.23c-.05.35-.1.75-.12,1.19s-.05.94-.05,1.51Z" style="fill: #fff; stroke-width: 0px;"/>
        <path d="m111.7,26.29c.07,1.61-.24,2.78-.96,3.47s-2.03,1.05-3.91,1.05-3.19-.35-3.9-1.04-.99-1.86-.88-3.48.52-2.63,1.24-3.23,1.92-.88,3.62-.88,2.9.29,3.6.88,1.11,1.66,1.18,3.22Zm-1.09-3.68l1.18.87c.5.37.86.8,1.09,1.3s.38,1.2.43,2.09c.11,1.75-.3,3.11-1.24,4.04s-2.47,1.44-4.49,1.44c-.59,0-1.11-.06-1.58-.18s-.85-.29-1.16-.52l-1.26-.94c.32.2.73.35,1.22.43s1.2.13,2.1.13c1.99,0,3.4-.4,4.22-1.18s1.15-2.03,1.06-3.75c-.05-.96-.2-1.72-.44-2.3s-.62-1.05-1.13-1.45Zm-5.54,3.69c-.04,1.19.08,2.02.35,2.49s.75.7,1.42.7,1.16-.24,1.44-.71.41-1.3.4-2.48c-.01-1.15-.15-1.93-.42-2.35s-.72-.62-1.35-.62-1.09.2-1.36.62-.43,1.19-.47,2.35Zm1.67,2.76c-.48-.06-.81-.28-.99-.65s-.26-1.02-.24-1.93c.03-1.15.15-1.9.35-2.25s.55-.52,1.04-.52c.34,0,.63.1.84.3s.35.48.38.84c-.17-.1-.32-.17-.45-.21s-.25-.07-.36-.07c-.29,0-.48.09-.59.26s-.17.61-.18,1.3v.23c0,.35,0,.75.04,1.19s.08.94.16,1.51Z" style="fill: #fff; stroke-width: 0px;"/>
        <path d="m114.4,32.6h2.73l1.67-3.52.82.77-1.77,3.84h-1.89l-1.56-1.09Zm1-3.52h2.83l-1.47,3.04h-2.2l.83-3.04Z" style="fill: #fff; stroke-width: 0px;"/>
        <path d="m129.72,26.29c.41,1.61.33,2.78-.24,3.47s-1.82,1.05-3.7,1.05-3.26-.35-4.11-1.04-1.37-1.86-1.6-3.48-.02-2.63.58-3.23,1.74-.88,3.44-.88,2.96.29,3.78.88,1.45,1.66,1.85,3.22Zm-1.85-3.68l1.36.87c.58.37,1.03.8,1.36,1.3s.63,1.2.87,2.09c.47,1.75.35,3.11-.41,4.04s-2.17,1.44-4.19,1.44c-.59,0-1.12-.06-1.62-.18s-.91-.29-1.27-.52l-1.46-.94c.36.2.8.35,1.31.43s1.22.13,2.12.13c1.99,0,3.32-.4,3.97-1.18s.73-2.03.29-3.75c-.25-.96-.55-1.72-.92-2.3s-.84-1.05-1.43-1.45Zm-4.78,3.69c.21,1.19.5,2.02.86,2.49s.89.7,1.57.7,1.11-.24,1.29-.71.14-1.3-.12-2.48c-.25-1.15-.55-1.93-.91-2.35s-.85-.62-1.48-.62-1.05.2-1.24.62-.19,1.19.02,2.35Zm2.24,2.76c-.49-.06-.86-.28-1.12-.65s-.47-1.02-.64-1.93c-.21-1.15-.25-1.9-.12-2.25s.44-.52.93-.52c.34,0,.65.1.91.3s.45.48.56.84c-.19-.1-.36-.17-.5-.21s-.26-.07-.37-.07c-.29,0-.46.09-.54.26s-.04.61.09,1.3l.04.23c.07.35.16.75.28,1.19s.28.94.47,1.51Z" style="fill: #fff; stroke-width: 0px;"/>
        <path d="m141.73,26.29c.63,1.61.72,2.78.24,3.47s-1.67,1.05-3.55,1.05-3.31-.35-4.26-1.04-1.63-1.86-2.08-3.48-.39-2.63.13-3.23,1.62-.88,3.32-.88,3,.29,3.91.88,1.68,1.66,2.29,3.22Zm-2.36-3.68l1.49.87c.63.37,1.14.8,1.54,1.3s.79,1.2,1.15,2.09c.71,1.75.77,3.11.15,4.04s-1.97,1.44-3.99,1.44c-.59,0-1.13-.06-1.64-.18s-.95-.29-1.34-.52l-1.59-.94c.39.2.85.35,1.37.43s1.24.13,2.14.13c1.99,0,3.27-.4,3.81-1.18s.45-2.03-.23-3.75c-.38-.96-.79-1.72-1.24-2.3s-.98-1.05-1.63-1.45Zm-4.27,3.69c.37,1.19.77,2.02,1.2,2.49s.99.7,1.67.7,1.08-.24,1.19-.71-.04-1.3-.46-2.48-.82-1.93-1.23-2.35-.93-.62-1.56-.62-1.02.2-1.15.62-.02,1.19.34,2.35Zm2.62,2.76c-.5-.06-.9-.28-1.21-.65s-.61-1.02-.9-1.93c-.37-1.15-.51-1.9-.43-2.25s.36-.52.86-.52c.34,0,.66.1.95.3s.51.48.67.84c-.21-.1-.38-.17-.52-.21s-.27-.07-.38-.07c-.29,0-.45.09-.5.26s.04.61.27,1.3l.08.23c.12.35.27.75.45,1.19s.41.94.68,1.51Z" style="fill: #fff; stroke-width: 0px;"/>
        <path d="m153.74,26.29c.85,1.61,1.1,2.78.72,3.47s-1.53,1.05-3.41,1.05-3.36-.35-4.4-1.04-1.88-1.86-2.56-3.48-.75-2.63-.31-3.23,1.49-.88,3.2-.88,3.04.29,4.03.88,1.91,1.66,2.74,3.22Zm-2.86-3.68l1.61.87c.68.37,1.25.8,1.72,1.3s.96,1.2,1.44,2.09c.96,1.75,1.2,3.11.71,4.04s-1.77,1.44-3.8,1.44c-.59,0-1.14-.06-1.66-.18s-.99-.29-1.41-.52l-1.72-.94c.42.2.89.35,1.43.43s1.26.13,2.16.13c1.99,0,3.21-.4,3.65-1.18s.17-2.03-.75-3.75c-.51-.96-1.03-1.72-1.55-2.3s-1.13-1.05-1.83-1.45Zm-3.76,3.69c.54,1.19,1.05,2.02,1.55,2.49s1.09.7,1.76.7,1.04-.24,1.1-.71-.22-1.3-.8-2.48-1.08-1.93-1.56-2.35-1.02-.62-1.65-.62-.99.2-1.07.62.14,1.19.67,2.35Zm3,2.76c-.5-.06-.94-.28-1.3-.65s-.75-1.02-1.17-1.93c-.53-1.15-.77-1.9-.74-2.25s.29-.52.79-.52c.34,0,.67.1.99.3s.58.48.79.84c-.22-.1-.41-.17-.55-.21s-.28-.07-.39-.07c-.29,0-.44.09-.46.26s.12.61.45,1.3l.11.23c.17.35.37.75.61,1.19s.54.94.88,1.51Z" style="fill: #fff; stroke-width: 0px;"/>
      </g>
    </g>
  </g>
</svg>