<?xml version="1.0" encoding="UTF-8"?>
<svg id="_图层_2" data-name="图层 2" xmlns="http://www.w3.org/2000/svg" viewBox="0 0 210.38 79.93">
  <g id="_图层_7" data-name="图层 7">
    <g>
      <g>
        <ellipse cx="104.67" cy="27.8" rx="104.37" ry="27.55" style="fill: #c7beaf; stroke: #b0a18d; stroke-miterlimit: 10; stroke-width: .51px;"/>
        <path d="m104.57,9.57c-36.85,0-66.72,8.05-66.72,17.98s29.87,17.98,66.72,17.98,66.72-8.05,66.72-17.98-29.87-17.98-66.72-17.98Zm.32,33.95c-33.7,0-61.02-7.04-61.02-15.73s27.32-15.73,61.02-15.73,61.02,7.04,61.02,15.73-27.32,15.73-61.02,15.73Z" style="fill: #b0a18d; stroke-width: 0px;"/>
        <path d="m133.67,41.66c-3.74.52-7.72.94-11.88,1.25l-.3,2.04c5.15-.36,10.06-.89,14.64-1.55-.75-.53-1.66-1.17-2.46-1.74Z" style="fill: #fff; stroke-width: 0px;"/>
        <path d="m157.48,35.77c-2.44,1.07-5.36,2.05-8.67,2.94l.16,2.27c5.09-1.22,9.47-2.65,12.98-4.24l-4.46-.97Z" style="fill: #fff; stroke-width: 0px;"/>
        <path d="m43.87,27.79c0-1.24.55-2.44,1.6-3.59l-6.23-.31c-.91,1.18-1.39,2.41-1.39,3.67,0,.49.08.98.22,1.47h5.98c-.12-.41-.18-.81-.18-1.23Z" style="fill: #fff; stroke-width: 0px;"/>
        <path d="m165.88,28.28c-.21,1.79-1.58,3.5-3.92,5.08l5.48.22c2.2-1.67,3.52-3.45,3.8-5.3h-5.36Z" style="fill: #fff; stroke-width: 0px;"/>
        <path d="m163.66,19.19l-5.07,1.12c2.81,1.34,4.89,2.79,6.1,4.33l5.34-.59c-1.26-1.72-3.43-3.35-6.37-4.86Z" style="fill: #fff; stroke-width: 0px;"/>
        <path d="m136.96,14.4c5.3.85,10.06,1.89,14.12,3.11l-.17-2.9c-3.48-.91-7.32-1.71-11.46-2.4l-2.48,2.19Z" style="fill: #fff; stroke-width: 0px;"/>
        <path d="m104.67,12.06c.07,0,.14,0,.22,0,5.75,0,11.31.21,16.58.59l-.7-2.54c-4.67-.31-9.52-.5-14.52-.53l-1.57,2.49Z" style="fill: #fff; stroke-width: 0px;"/>
        <path d="m47.14,18.39l2.64,2.63c2.7-1.46,6.24-2.79,10.46-3.96l-3.82-1.96c-3.54.99-6.65,2.1-9.28,3.29Z" style="fill: #fff; stroke-width: 0px;"/>
        <path d="m72.24,11.82l-.31,2.73c4.79-.79,10.03-1.42,15.61-1.84l-1.53-2.43c-4.84.38-9.46.9-13.78,1.54Z" style="fill: #fff; stroke-width: 0px;"/>
        <path d="m103.77,43.52c-4.48-.02-8.85-.17-13.04-.42l-1.74,1.95c4.93.32,10.08.49,15.37.49l-.58-2.02Z" style="fill: #fff; stroke-width: 0px;"/>
        <path d="m72.99,41.2c-3.69-.59-7.13-1.27-10.25-2.04l-3.17,1.66c4.23,1.04,8.96,1.94,14.09,2.66l-.66-2.29Z" style="fill: #fff; stroke-width: 0px;"/>
        <path d="m49.4,37.66l2.94-1.88c-2.39-1.04-4.34-2.16-5.75-3.35l-5.5.65c1.97,1.64,4.78,3.18,8.31,4.57Z" style="fill: #fff; stroke-width: 0px;"/>
        <path d="m62.02,9.57l23.45-2.32-5.18-6.23c-10.95.69-21.23,1.84-30.53,3.36l12.26,5.2Z" style="fill: #fff; stroke: #b0a18d; stroke-miterlimit: 10; stroke-width: .51px;"/>
        <path d="m154.57,3.6l-10.55,5.96s13,1.39,18.89,3.88l17.8-4.51c-7.56-2.12-16.37-3.93-26.14-5.33Z" style="fill: #fff; stroke: #b0a18d; stroke-miterlimit: 10; stroke-width: .51px;"/>
        <path d="m182.63,33.59l22.04,2.12c2.84-2.5,4.37-5.16,4.37-7.91,0-.08,0-.15-.01-.22l-24.01.22s.29,3.31-2.39,5.78Z" style="fill: #fff; stroke: #b0a18d; stroke-miterlimit: 10; stroke-width: .51px;"/>
        <path d="m146.99,46.27c-12.92,2.93-23.26,2.42-23.26,2.42l4.82,5.94c10.56-.65,20.5-1.73,29.56-3.16l-11.12-5.2Z" style="fill: #fff; stroke: #b0a18d; stroke-miterlimit: 10; stroke-width: .51px;"/>
        <path d="m31.18,47.12c7.39,1.95,15.89,3.6,25.22,4.9l9.68-5.4c-9.26-.29-19.16-3.71-19.16-3.71l-15.74,4.21Z" style="fill: #fff; stroke: #b0a18d; stroke-miterlimit: 10; stroke-width: .51px;"/>
        <path d="m.31,27.8c0,.2.01.39.03.59l24.31-.17s.24-3.86,3.3-5.91l-23.98-1.76c-2.38,2.31-3.66,4.74-3.66,7.25Z" style="fill: #fff; stroke: #b0a18d; stroke-miterlimit: 10; stroke-width: .51px;"/>
        <path d="m.31,28.42s2.16,26.64,107.85,26.47c105.7-.17,100.48-29.87,100.48-29.87,0,0,3.23,16.38-.01,30.38,0,0-5.56,21.14-99.54,24.22,0,0-88.75.38-108.02-23.7L.31,28.42Z" style="fill: #fff; opacity: .5; stroke: #231815; stroke-miterlimit: 10; stroke-width: .61px;"/>
        <path d="m.31,28.42s2.16,26.64,107.85,26.47c105.7-.17,100.48-29.87,100.48-29.87,0,0,3.23,16.38-.01,30.38,0,0-5.56,21.14-99.54,24.22,0,0-88.75.38-108.02-23.7L.31,28.42Z" style="fill: #c7beaf; stroke: #b0a18d; stroke-miterlimit: 10; stroke-width: .61px;"/>
        <path d="m55.83,52.14c-10.08-1.33-18.23-3.05-24.82-4.96-.22,1.93-.07,17.04.01,23.64,7.77,2.24,16.33,3.91,24.81,5.16v-23.83Z" style="fill: #fff; stroke: #b0a18d; stroke-miterlimit: 10; stroke-width: .6px;"/>
        <polygon points="81.24 46.27 109.82 47.18 107.3 53.96 77.22 53.23 81.24 46.27" style="fill: none; stroke: #fff; stroke-miterlimit: 10; stroke-width: .16px;"/>
        <ellipse cx="101.03" cy="48.43" rx="1.61" ry=".49" style="fill: #fff; stroke-width: 0px;"/>
        <ellipse cx="99.31" cy="51.8" rx="1.61" ry=".49" style="fill: #fff; stroke-width: 0px;"/>
        <ellipse cx="93.92" cy="49.89" rx="1.61" ry=".49" style="fill: #fff; stroke-width: 0px;"/>
        <ellipse cx="88.22" cy="47.94" rx="1.61" ry=".49" style="fill: #fff; stroke-width: 0px;"/>
        <ellipse cx="86.62" cy="51.32" rx="1.61" ry=".49" style="fill: #fff; stroke-width: 0px;"/>
        <ellipse cx="29.55" cy="34.07" rx="1.61" ry=".49" style="fill: #fff; stroke-width: 0px;"/>
        <ellipse cx="34.24" cy="37.04" rx="1.61" ry=".49" style="fill: #fff; stroke-width: 0px;"/>
        <ellipse cx="22.61" cy="38.35" rx="1.61" ry=".49" style="fill: #fff; stroke-width: 0px;"/>
        <ellipse cx="17.68" cy="35.07" rx="1.61" ry=".49" style="fill: #fff; stroke-width: 0px;"/>
        <polygon points="9.4 34.07 19.29 40.93 45.01 38.35 34.76 31.21 9.4 34.07" style="fill: none; stroke: #fff; stroke-miterlimit: 10; stroke-width: .16px;"/>
        <ellipse cx="38.27" cy="16.12" rx="1.61" ry=".49" style="fill: #fff; stroke-width: 0px;"/>
        <ellipse cx="33.1" cy="15.1" rx="1.61" ry=".49" style="fill: #fff; stroke-width: 0px;"/>
        <ellipse cx="28.14" cy="14.13" rx="1.61" ry=".49" style="fill: #fff; stroke-width: 0px;"/>
        <ellipse cx="35.85" cy="11.47" rx="1.61" ry=".49" style="fill: #fff; stroke-width: 0px;"/>
        <ellipse cx="40.89" cy="12.44" rx="1.61" ry=".49" style="fill: #fff; stroke-width: 0px;"/>
        <ellipse cx="45.98" cy="13.41" rx="1.61" ry=".49" style="fill: #fff; stroke-width: 0px;"/>
        <polygon points="18.1 13.89 39.88 18.39 55.62 12.68 33.6 8.72 18.1 13.89" style="fill: none; stroke: #fff; stroke-miterlimit: 10; stroke-width: .16px;"/>
        <path d="m102.96,1.01l-3.54,6.98,27.04,1.03s3.35-6.98,3.35-7.08-26.85-.92-26.85-.92Z" style="fill: none; stroke: #fff; stroke-miterlimit: 10; stroke-width: .16px;"/>
        <ellipse cx="108.65" cy="6.6" rx="1.61" ry=".49" style="fill: #fff; stroke-width: 0px;"/>
        <ellipse cx="123.07" cy="3.68" rx="1.61" ry=".49" style="fill: #fff; stroke-width: 0px;"/>
        <ellipse cx="175.28" cy="17.99" rx="1.61" ry=".49" style="fill: #fff; stroke-width: 0px;"/>
        <ellipse cx="183.6" cy="18.68" rx="1.61" ry=".49" style="fill: #fff; stroke-width: 0px;"/>
        <ellipse cx="191.94" cy="19.68" rx="1.61" ry=".49" style="fill: #fff; stroke-width: 0px;"/>
        <polygon points="166.59 16.49 191.36 13.85 202.49 20.16 176.88 23.38 166.59 16.49" style="fill: none; stroke: #fff; stroke-miterlimit: 10; stroke-width: .16px;"/>
        <polygon points="153.14 41.57 169.65 35.77 191.67 40.15 175.4 45.77 153.14 41.57" style="fill: none; stroke: #fff; stroke-miterlimit: 10; stroke-width: .16px;"/>
        <ellipse cx="172.4" cy="41.25" rx="1.61" ry=".49" style="fill: #fff; stroke-width: 0px;"/>
        <path d="m128.81,78.61c11.33-.8,21.02-1.92,29.3-3.22v-23.67c-8.28,1.23-17.97,2.17-29.3,2.69v24.19Z" style="fill: #fff; stroke: #b0a18d; stroke-miterlimit: 10; stroke-width: .61px;"/>
        <path d="m208.45,27.63c-.41,1.84-1.5,4.49-4.32,7.43.6,3.23,1.68,11.59.3,25.37,3.64-2.94,4.18-5.02,4.18-5.02.06-.25.11-.5.16-.74.13-7,.28-20.29-.33-27.04Z" style="fill: #fff; stroke: #b0a18d; stroke-miterlimit: 10; stroke-width: .61px;"/>
      </g>
      <g>
        <path d="m57.77,28.06h3.21c-.2.42-.22.74-.03.96s.55.35,1.09.35,1.01-.13,1.43-.4.73-.63.96-1.11c.25-.53.28-.92.1-1.17s-.57-.38-1.18-.38c-.29,0-.58.03-.89.1s-.63.17-.96.3h-2.63l2.42-4.46h7.87l-.56,1.24h-5.45l-1.08,2.1c.52-.16.99-.28,1.42-.36s.82-.12,1.19-.12c1.26,0,2.15.24,2.66.73s.6,1.16.23,2.02c-.4.92-1.12,1.62-2.15,2.1s-2.39.72-4.04.72-2.78-.22-3.36-.65-.65-1.09-.23-1.97Zm.85-.92h2.97c.26-.14.51-.24.76-.3s.51-.1.78-.1c.44,0,.73.08.86.24s.12.42-.05.76l-.03.06c-.13-.05-.27-.09-.41-.11s-.31-.04-.48-.04c-.16,0-.31.01-.47.04s-.32.07-.48.13l-.21-.21h-2.88l-.34-.49Zm9.29-1.47l.86.99c.18.2.28.43.29.69s-.06.58-.21.96c-.46,1.1-1.37,2.02-2.72,2.75-1.38.75-2.92,1.12-4.59,1.12-.8,0-1.47-.09-2.02-.26s-.98-.43-1.28-.77l-.64-.69c.35.24.8.42,1.34.53s1.32.16,2.32.16c1.77,0,3.25-.29,4.41-.86s1.95-1.39,2.41-2.45c.19-.44.27-.84.24-1.2s-.17-.68-.41-.98Zm-5.1-.64l.57-1.13h5.47l.73-1.65.61.8-.74,1.72h-4.63c-.4,0-.75.02-1.07.06s-.63.1-.95.19Zm-1.35,3.04l.71.8h-.15c-.3,0-.51-.07-.61-.21s-.08-.34.05-.59Z" style="fill: #fff; stroke-width: 0px;"/>
        <path d="m67.9,32.45h2.73l3.37-3.52.45.77-3.62,3.84h-1.89l-1.03-1.09Zm2.7-3.52h2.83l-2.94,3.04h-2.2l2.3-3.04Z" style="fill: #fff; stroke-width: 0px;"/>
        <path d="m86.27,26.14c-.37,1.61-1.01,2.78-1.92,3.47s-2.32,1.05-4.2,1.05-3.09-.35-3.61-1.04-.48-1.86.08-3.48,1.24-2.63,2.13-3.23,2.16-.88,3.87-.88,2.82.29,3.36.88.65,1.66.29,3.22Zm-.07-3.68l.94.87c.4.37.64.8.73,1.3s.04,1.2-.15,2.09c-.37,1.75-1.16,3.11-2.36,4.04s-2.86,1.44-4.89,1.44c-.59,0-1.1-.06-1.53-.18s-.77-.29-1.01-.52l-1-.94c.26.2.63.35,1.1.43s1.16.13,2.06.13c1.99,0,3.51-.4,4.54-1.18s1.71-2.03,2.1-3.75c.22-.96.28-1.72.19-2.3s-.33-1.05-.73-1.45Zm-6.56,3.69c-.36,1.19-.48,2.02-.34,2.49s.55.7,1.23.7,1.22-.24,1.64-.71.77-1.3,1.08-2.48.38-1.93.22-2.35-.54-.62-1.18-.62-1.15.2-1.53.62-.76,1.19-1.12,2.35Zm.91,2.76c-.46-.06-.73-.28-.81-.65s.02-1.02.3-1.93c.35-1.15.67-1.9.97-2.25s.69-.52,1.18-.52c.34,0,.6.1.76.3s.21.48.15.84c-.15-.1-.28-.17-.39-.21s-.23-.07-.34-.07c-.29,0-.51.09-.66.26s-.34.61-.54,1.3l-.07.23c-.1.35-.2.75-.29,1.19s-.18.94-.26,1.51Z" style="fill: #fff; stroke-width: 0px;"/>
        <path d="m98.28,26.14c-.15,1.61-.63,2.78-1.44,3.47s-2.18,1.05-4.06,1.05-3.14-.35-3.75-1.04-.73-1.86-.4-3.48.88-2.63,1.69-3.23,2.04-.88,3.74-.88,2.86.29,3.48.88.88,1.66.74,3.22Zm-.58-3.68l1.06.87c.45.37.75.8.91,1.3s.21,1.2.14,2.09c-.13,1.75-.73,3.11-1.8,4.04s-2.67,1.44-4.69,1.44c-.59,0-1.1-.06-1.55-.18s-.81-.29-1.09-.52l-1.13-.94c.29.2.68.35,1.16.43s1.18.13,2.08.13c1.99,0,3.46-.4,4.38-1.18s1.43-2.03,1.58-3.75c.08-.96.04-1.72-.13-2.3s-.48-1.05-.93-1.45Zm-6.05,3.69c-.2,1.19-.2,2.02,0,2.49s.65.7,1.33.7,1.19-.24,1.54-.71.59-1.3.74-2.48.11-1.93-.1-2.35-.63-.62-1.26-.62-1.12.2-1.45.62-.6,1.19-.79,2.35Zm1.29,2.76c-.47-.06-.77-.28-.9-.65s-.12-1.02.03-1.93c.19-1.15.41-1.9.66-2.25s.62-.52,1.11-.52c.34,0,.61.1.8.3s.28.48.27.84c-.16-.1-.3-.17-.42-.21s-.24-.07-.35-.07c-.29,0-.49.09-.63.26s-.25.61-.36,1.3l-.04.23c-.05.35-.1.75-.12,1.19s-.05.94-.05,1.51Z" style="fill: #fff; stroke-width: 0px;"/>
        <path d="m110.29,26.14c.07,1.61-.24,2.78-.96,3.47s-2.03,1.05-3.91,1.05-3.19-.35-3.9-1.04-.99-1.86-.88-3.48.52-2.63,1.24-3.23,1.92-.88,3.62-.88,2.9.29,3.6.88,1.11,1.66,1.18,3.22Zm-1.09-3.68l1.18.87c.5.37.86.8,1.09,1.3s.38,1.2.43,2.09c.11,1.75-.3,3.11-1.24,4.04s-2.47,1.44-4.49,1.44c-.59,0-1.11-.06-1.58-.18s-.85-.29-1.16-.52l-1.26-.94c.32.2.73.35,1.22.43s1.2.13,2.1.13c1.99,0,3.4-.4,4.22-1.18s1.15-2.03,1.06-3.75c-.05-.96-.2-1.72-.44-2.3s-.62-1.05-1.13-1.45Zm-5.54,3.69c-.04,1.19.08,2.02.35,2.49s.75.7,1.42.7,1.16-.24,1.44-.71.41-1.3.4-2.48c-.01-1.15-.15-1.93-.42-2.35s-.72-.62-1.35-.62-1.09.2-1.36.62-.43,1.19-.47,2.35Zm1.67,2.76c-.48-.06-.81-.28-.99-.65s-.26-1.02-.24-1.93c.03-1.15.15-1.9.35-2.25s.55-.52,1.04-.52c.34,0,.63.1.84.3s.35.48.38.84c-.17-.1-.32-.17-.45-.21s-.25-.07-.36-.07c-.29,0-.48.09-.59.26s-.17.61-.18,1.3v.23c0,.35,0,.75.04,1.19s.08.94.16,1.51Z" style="fill: #fff; stroke-width: 0px;"/>
        <path d="m112.98,32.45h2.73l1.67-3.52.82.77-1.77,3.84h-1.89l-1.56-1.09Zm1-3.52h2.83l-1.47,3.04h-2.2l.83-3.04Z" style="fill: #fff; stroke-width: 0px;"/>
        <path d="m128.3,26.14c.41,1.61.33,2.78-.24,3.47s-1.82,1.05-3.7,1.05-3.26-.35-4.11-1.04-1.37-1.86-1.6-3.48-.02-2.63.58-3.23,1.74-.88,3.44-.88,2.96.29,3.78.88,1.45,1.66,1.85,3.22Zm-1.85-3.68l1.36.87c.58.37,1.03.8,1.36,1.3s.63,1.2.87,2.09c.47,1.75.35,3.11-.41,4.04s-2.17,1.44-4.19,1.44c-.59,0-1.12-.06-1.62-.18s-.91-.29-1.27-.52l-1.46-.94c.36.2.8.35,1.31.43s1.22.13,2.12.13c1.99,0,3.32-.4,3.97-1.18s.73-2.03.29-3.75c-.25-.96-.55-1.72-.92-2.3s-.84-1.05-1.43-1.45Zm-4.78,3.69c.21,1.19.5,2.02.86,2.49s.89.7,1.57.7,1.11-.24,1.29-.71.14-1.3-.12-2.48c-.25-1.15-.55-1.93-.91-2.35s-.85-.62-1.48-.62-1.05.2-1.24.62-.19,1.19.02,2.35Zm2.24,2.76c-.49-.06-.86-.28-1.12-.65s-.47-1.02-.64-1.93c-.21-1.15-.25-1.9-.12-2.25s.44-.52.93-.52c.34,0,.65.1.91.3s.45.48.56.84c-.19-.1-.36-.17-.5-.21s-.26-.07-.37-.07c-.29,0-.46.09-.54.26s-.04.61.09,1.3l.04.23c.07.35.16.75.28,1.19s.28.94.47,1.51Z" style="fill: #fff; stroke-width: 0px;"/>
        <path d="m140.31,26.14c.63,1.61.72,2.78.24,3.47s-1.67,1.05-3.55,1.05-3.31-.35-4.26-1.04-1.63-1.86-2.08-3.48-.39-2.63.13-3.23,1.62-.88,3.32-.88,3,.29,3.91.88,1.68,1.66,2.29,3.22Zm-2.36-3.68l1.49.87c.63.37,1.14.8,1.54,1.3s.79,1.2,1.15,2.09c.71,1.75.77,3.11.15,4.04s-1.97,1.44-3.99,1.44c-.59,0-1.13-.06-1.64-.18s-.95-.29-1.34-.52l-1.59-.94c.39.2.85.35,1.37.43s1.24.13,2.14.13c1.99,0,3.27-.4,3.81-1.18s.45-2.03-.23-3.75c-.38-.96-.79-1.72-1.24-2.3s-.98-1.05-1.63-1.45Zm-4.27,3.69c.37,1.19.77,2.02,1.2,2.49s.99.7,1.67.7,1.08-.24,1.19-.71-.04-1.3-.46-2.48-.82-1.93-1.23-2.35-.93-.62-1.56-.62-1.02.2-1.15.62-.02,1.19.34,2.35Zm2.62,2.76c-.5-.06-.9-.28-1.21-.65s-.61-1.02-.9-1.93c-.37-1.15-.51-1.9-.43-2.25s.36-.52.86-.52c.34,0,.66.1.95.3s.51.48.67.84c-.21-.1-.38-.17-.52-.21s-.27-.07-.38-.07c-.29,0-.45.09-.5.26s.04.61.27,1.3l.08.23c.12.35.27.75.45,1.19s.41.94.68,1.51Z" style="fill: #fff; stroke-width: 0px;"/>
        <path d="m152.32,26.14c.85,1.61,1.1,2.78.72,3.47s-1.53,1.05-3.41,1.05-3.36-.35-4.4-1.04-1.88-1.86-2.56-3.48-.75-2.63-.31-3.23,1.49-.88,3.2-.88,3.04.29,4.03.88,1.91,1.66,2.74,3.22Zm-2.86-3.68l1.61.87c.68.37,1.25.8,1.72,1.3s.96,1.2,1.44,2.09c.96,1.75,1.2,3.11.71,4.04s-1.77,1.44-3.8,1.44c-.59,0-1.14-.06-1.66-.18s-.99-.29-1.41-.52l-1.72-.94c.42.2.89.35,1.43.43s1.26.13,2.16.13c1.99,0,3.21-.4,3.65-1.18s.17-2.03-.75-3.75c-.51-.96-1.03-1.72-1.55-2.3s-1.13-1.05-1.83-1.45Zm-3.76,3.69c.54,1.19,1.05,2.02,1.55,2.49s1.09.7,1.76.7,1.04-.24,1.1-.71-.22-1.3-.8-2.48-1.08-1.93-1.56-2.35-1.02-.62-1.65-.62-.99.2-1.07.62.14,1.19.67,2.35Zm3,2.76c-.5-.06-.94-.28-1.3-.65s-.75-1.02-1.17-1.93c-.53-1.15-.77-1.9-.74-2.25s.29-.52.79-.52c.34,0,.67.1.99.3s.58.48.79.84c-.22-.1-.41-.17-.55-.21s-.28-.07-.39-.07c-.29,0-.44.09-.46.26s.12.61.45,1.3l.11.23c.17.35.37.75.61,1.19s.54.94.88,1.51Z" style="fill: #fff; stroke-width: 0px;"/>
      </g>
    </g>
  </g>
</svg>