<?xml version="1.0" encoding="UTF-8"?>
<svg id="_图层_2" data-name="图层 2" xmlns="http://www.w3.org/2000/svg" viewBox="0 0 210.38 79.98">
  <g id="_图层_7" data-name="图层 7">
    <g>
      <g>
        <ellipse cx="104.67" cy="28.13" rx="104.37" ry="27.82" style="fill: #c7beaf; stroke: #b0a18d; stroke-miterlimit: 10; stroke-width: .62px;"/>
        <path d="m104.46,9.8c-36.85,0-66.72,7.99-66.72,17.85s29.87,17.85,66.72,17.85,66.72-7.99,66.72-17.85-29.87-17.85-66.72-17.85Zm.32,33.7c-33.7,0-61.02-6.99-61.02-15.62s27.32-15.62,61.02-15.62,61.02,6.99,61.02,15.62-27.32,15.62-61.02,15.62Z" style="fill: #b0a18d; stroke-width: 0px;"/>
        <path d="m45.57,36.05l3.36-1.86c-1.86-1.08-3.26-2.22-4.13-3.42l-5.89.22c1.27,1.8,3.54,3.5,6.67,5.06Z" style="fill: #fff; stroke-width: 0px;"/>
        <path d="m66.71,40.09c-3.34-.68-6.39-1.45-9.11-2.3l-4.07,1.39c3.84,1.21,8.27,2.29,13.18,3.19v-2.28Z" style="fill: #fff; stroke-width: 0px;"/>
        <path d="m95.24,43.31c-4.33-.17-8.5-.46-12.48-.86l-1.8,1.91c4.86.49,10,.83,15.33,1.01l-1.05-2.06Z" style="fill: #fff; stroke-width: 0px;"/>
        <path d="m126.39,42.49c-3.96.38-8.11.67-12.4.83l-.92,2.03c5.27-.18,10.35-.53,15.17-1.02l-1.84-1.84Z" style="fill: #fff; stroke-width: 0px;"/>
        <path d="m151.47,37.94c-2.64.8-5.58,1.54-8.79,2.19v2.16c4.64-.87,8.84-1.89,12.51-3.04l-3.71-1.31Z" style="fill: #fff; stroke-width: 0px;"/>
        <path d="m164.67,30.87c.73-.97,1.12-1.97,1.12-2.99,0-8.62-27.32-15.62-61.02-15.62s-61.02,6.99-61.02,15.62,27.32,15.62,61.02,15.62c25.16,0,46.75-3.9,56.09-9.46,1.69-1.01,2.98-2.07,3.81-3.17Z" style="fill: none; stroke-width: 0px;"/>
        <path d="m160.86,34.04l2.32,2.09c3.27-1.62,5.63-3.39,6.91-5.26h-5.42c-.83,1.1-2.12,2.16-3.81,3.17Z" style="fill: #fff; stroke-width: 0px;"/>
        <path d="m167.94,22.15l-6.12.19c2.38,1.6,3.77,3.33,3.95,5.14l5.39-.25c-.15-1.77-1.27-3.48-3.22-5.09Z" style="fill: #fff; stroke-width: 0px;"/>
        <path d="m37.74,27.51l6.05-.17c.23-1.71,1.52-3.34,3.72-4.86l-6.3-.53c-2.2,1.75-3.42,3.62-3.48,5.56Z" style="fill: #fff; stroke-width: 0px;"/>
        <path d="m52.79,16.36l.31,3.22c3.5-1.42,7.87-2.69,12.93-3.76l-3.84-1.98c-3.43.75-6.58,1.6-9.4,2.52Z" style="fill: #fff; stroke-width: 0px;"/>
        <path d="m81.05,10.93l-.96,2.67c4.95-.56,10.24-.96,15.77-1.17l-1.35-2.44c-4.66.19-9.17.5-13.46.93Z" style="fill: #fff; stroke-width: 0px;"/>
        <path d="m113.96,12.45c5.57.22,10.9.62,15.87,1.2l-.46-2.56c-4.42-.48-9.07-.83-13.9-1.04-.42.67-.99,1.58-1.5,2.41Z" style="fill: #fff; stroke-width: 0px;"/>
        <path d="m143.92,15.91c5.01,1.07,9.33,2.35,12.78,3.77l.53-2.96c-2.89-1-6.16-1.91-9.76-2.72l-3.55,1.91Z" style="fill: #fff; stroke-width: 0px;"/>
        <path d="m116.14.31l-2.72,6.98s22.44.87,24.84,1.75l11.12-6.33c-10.28-1.26-21.47-2.09-33.23-2.4Z" style="fill: #fff; stroke: #b0a18d; stroke-miterlimit: 10; stroke-width: .51px;"/>
        <path d="m40.54,15.82s12.3-4.31,16.18-4.31l-13.89-5.7c-8.57,1.69-16.11,3.72-22.36,6.01l20.07,4.01Z" style="fill: #fff; stroke: #b0a18d; stroke-miterlimit: 10; stroke-width: .51px;"/>
        <path d="m208.53,25.48c-.87-2.68-3.19-5.26-6.76-7.66l-23.6,2.34s6.03,3.56,5.82,5.74l24.55-.42Z" style="fill: #fff; stroke: #b0a18d; stroke-miterlimit: 10; stroke-width: .51px;"/>
        <path d="m170.34,41.16s-6.47,3.2-17.74,4.62l12.67,5.15c8.83-1.67,16.69-3.68,23.32-5.96l-18.25-3.8Z" style="fill: #fff; stroke: #b0a18d; stroke-miterlimit: 10; stroke-width: .54px;"/>
        <path d="m72.11,48.05l-9.13,4.95c9.71,1.13,20.2,1.89,31.2,2.18l2.11-5.54c-11,.36-24.18-1.6-24.18-1.6Z" style="fill: #fff; stroke: #b0a18d; stroke-miterlimit: 10; stroke-width: .51px;"/>
        <path d="m1.88,31.57c1.37,2.66,4.17,5.21,8.21,7.57l20.24-2.68-5.36-5.48-23.09.59Z" style="fill: #fff; stroke: #b0a18d; stroke-miterlimit: 10; stroke-width: .51px;"/>
        <path d="m.31,28.63s2.16,26.56,107.85,26.39c105.7-.17,100.48-29.78,100.48-29.78,0,0,3.23,16.33-.01,30.29,0,0-5.56,21.08-99.54,24.15,0,0-88.75.38-108.02-23.63L.31,28.63Z" style="fill: #c7beaf; stroke: #b0a18d; stroke-miterlimit: 10; stroke-width: .61px;"/>
        <ellipse cx="191.57" cy="35.65" rx="1.61" ry=".48" style="fill: #fff; stroke-width: 0px;"/>
        <ellipse cx="187.09" cy="33.7" rx="1.61" ry=".48" style="fill: #fff; stroke-width: 0px;"/>
        <ellipse cx="182.66" cy="31.62" rx="1.61" ry=".48" style="fill: #fff; stroke-width: 0px;"/>
        <ellipse cx="126.42" cy="49.42" rx="1.61" ry=".48" style="fill: #fff; stroke-width: 0px;"/>
        <ellipse cx="44.15" cy="43.62" rx="1.61" ry=".48" style="fill: #fff; stroke-width: 0px;"/>
        <ellipse cx="44.25" cy="41.29" rx="1.61" ry=".48" style="fill: #fff; stroke-width: 0px;"/>
        <ellipse cx="53.19" cy="43.62" rx="1.61" ry=".48" style="fill: #fff; stroke-width: 0px;"/>
        <ellipse cx="44.15" cy="45.95" rx="1.61" ry=".48" style="fill: #fff; stroke-width: 0px;"/>
        <ellipse cx="35.21" cy="43.5" rx="1.61" ry=".48" style="fill: #fff; stroke-width: 0px;"/>
        <ellipse cx="26.82" cy="24" rx="1.61" ry=".48" style="fill: #fff; stroke-width: 0px;"/>
        <ellipse cx="30.03" cy="20.72" rx="1.61" ry=".48" style="fill: #fff; stroke-width: 0px;"/>
        <ellipse cx="17.8" cy="19.91" rx="1.61" ry=".48" style="fill: #fff; stroke-width: 0px;"/>
        <ellipse cx="14.58" cy="23.2" rx="1.61" ry=".48" style="fill: #fff; stroke-width: 0px;"/>
        <ellipse cx="75.04" cy="4.98" rx="1.61" ry=".48" style="fill: #fff; stroke-width: 0px;"/>
        <ellipse cx="76.9" cy="6.65" rx="1.61" ry=".48" style="fill: #fff; stroke-width: 0px;"/>
        <ellipse cx="78.39" cy="8.2" rx="1.61" ry=".48" style="fill: #fff; stroke-width: 0px;"/>
        <ellipse cx="87.31" cy="4.2" rx="1.61" ry=".48" style="fill: #fff; stroke-width: 0px;"/>
        <ellipse cx="89.15" cy="5.8" rx="1.61" ry=".48" style="fill: #fff; stroke-width: 0px;"/>
        <ellipse cx="90.75" cy="7.4" rx="1.61" ry=".48" style="fill: #fff; stroke-width: 0px;"/>
        <ellipse cx="174.28" cy="12.02" rx="1.61" ry=".48" style="fill: #fff; stroke-width: 0px;"/>
        <ellipse cx="156.2" cy="12.02" rx="1.61" ry=".48" style="fill: #fff; stroke-width: 0px;"/>
        <polygon points="74.32 10.3 100.84 8.68 93.66 1.62 66.02 3.51 74.32 10.3" style="fill: none; stroke: #fff; stroke-miterlimit: 10; stroke-width: .31px;"/>
        <polygon points="11.69 17.37 4.37 24.48 31.01 26.03 37.5 19.12 11.69 17.37" style="fill: none; stroke: #fff; stroke-miterlimit: 10; stroke-width: .31px;"/>
        <polygon points="23.98 43.5 44.15 38.46 62.98 43.02 44.25 48.35 23.98 43.5" style="fill: none; stroke: #fff; stroke-miterlimit: 10; stroke-width: .31px;"/>
        <polygon points="111.55 46.46 117.79 53.22 144.28 51.62 137.61 45.01 111.55 46.46" style="fill: none; stroke: #fff; stroke-miterlimit: 10; stroke-width: .31px;"/>
        <polygon points="169.78 35.65 196 37.94 202.46 30.87 176.62 29.23 169.78 35.65" style="fill: none; stroke: #fff; stroke-miterlimit: 10; stroke-width: .31px;"/>
        <polygon points="165.1 16.85 184.09 11.54 166.07 6.87 146.4 11.54 165.1 16.85" style="fill: none; stroke: #fff; stroke-miterlimit: 10; stroke-width: .31px;"/>
        <path d="m62.98,76.81c11.54,1.43,22.57,2.15,30.88,2.51v-24.45c-11.76-.28-21.99-.96-30.88-1.91v23.86Z" style="fill: #fff; stroke: #b0a18d; stroke-miterlimit: 10; stroke-width: .6px;"/>
        <path d="m165.48,74.4c9.72-1.76,17.26-3.77,23.11-5.81l-.23-23.8c-5.82,2.26-13.29,4.36-22.89,6.06v23.56Z" style="fill: #fff; stroke: #b0a18d; stroke-miterlimit: 10; stroke-width: .61px;"/>
        <path d="m10.07,39.44c-4.55-2.78-6.99-5.42-8.29-7.39-1.04,5.5-.02,24.68-.01,24.83,2.01,2.27,4.66,4.31,7.79,6.14-.52-10.81.35-21.71.5-23.58Z" style="fill: #fff; stroke: #b0a18d; stroke-miterlimit: 10; stroke-width: .61px;"/>
      </g>
      <g>
        <path d="m56.98,28.54h3.21c-.2.42-.22.74-.03.96s.55.35,1.09.35,1.01-.13,1.43-.4.73-.63.96-1.11c.25-.53.28-.92.1-1.17s-.57-.38-1.18-.38c-.29,0-.58.03-.89.1s-.63.17-.96.3h-2.63l2.42-4.46h7.87l-.56,1.24h-5.45l-1.08,2.1c.52-.16.99-.28,1.42-.36s.82-.12,1.19-.12c1.26,0,2.15.24,2.66.73s.6,1.16.23,2.02c-.4.92-1.12,1.62-2.15,2.1s-2.39.72-4.04.72-2.78-.22-3.36-.65-.65-1.09-.23-1.97Zm.85-.92h2.97c.26-.14.51-.24.76-.3s.51-.1.78-.1c.44,0,.73.08.86.24s.12.42-.05.76l-.03.06c-.13-.05-.27-.09-.41-.11s-.31-.04-.48-.04c-.16,0-.31.01-.47.04s-.32.07-.48.13l-.21-.21h-2.88l-.34-.49Zm9.29-1.47l.86.99c.18.2.28.43.29.69s-.06.58-.21.96c-.46,1.1-1.37,2.02-2.72,2.75-1.38.75-2.92,1.12-4.59,1.12-.8,0-1.47-.09-2.02-.26s-.98-.43-1.28-.77l-.64-.69c.35.24.8.42,1.34.53s1.32.16,2.32.16c1.77,0,3.25-.29,4.41-.86s1.95-1.39,2.41-2.45c.19-.44.27-.84.24-1.2s-.17-.68-.41-.98Zm-5.1-.64l.57-1.13h5.47l.73-1.65.61.8-.74,1.72h-4.63c-.4,0-.75.02-1.07.06s-.63.1-.95.19Zm-1.35,3.04l.71.8h-.15c-.3,0-.51-.07-.61-.21s-.08-.34.05-.59Z" style="fill: #fff; stroke-width: 0px;"/>
        <path d="m67.11,32.94h2.73l3.37-3.52.45.77-3.62,3.84h-1.89l-1.03-1.09Zm2.7-3.52h2.83l-2.94,3.04h-2.2l2.3-3.04Z" style="fill: #fff; stroke-width: 0px;"/>
        <path d="m85.48,26.63c-.37,1.61-1.01,2.78-1.92,3.47s-2.32,1.05-4.2,1.05-3.09-.35-3.61-1.04-.48-1.86.08-3.48,1.24-2.63,2.13-3.23,2.16-.88,3.87-.88,2.82.29,3.36.88.65,1.66.29,3.22Zm-.07-3.68l.94.87c.4.37.64.8.73,1.3s.04,1.2-.15,2.09c-.37,1.75-1.16,3.11-2.36,4.04s-2.86,1.44-4.89,1.44c-.59,0-1.1-.06-1.53-.18s-.77-.29-1.01-.52l-1-.94c.26.2.63.35,1.1.43s1.16.13,2.06.13c1.99,0,3.51-.4,4.54-1.18s1.71-2.03,2.1-3.75c.22-.96.28-1.72.19-2.3s-.33-1.05-.73-1.45Zm-6.56,3.69c-.36,1.19-.48,2.02-.34,2.49s.55.7,1.23.7,1.22-.24,1.64-.71.77-1.3,1.08-2.48.38-1.93.22-2.35-.54-.62-1.18-.62-1.15.2-1.53.62-.76,1.19-1.12,2.35Zm.91,2.76c-.46-.06-.73-.28-.81-.65s.02-1.02.3-1.93c.35-1.15.67-1.9.97-2.25s.69-.52,1.18-.52c.34,0,.6.1.76.3s.21.48.15.84c-.15-.1-.28-.17-.39-.21s-.23-.07-.34-.07c-.29,0-.51.09-.66.26s-.34.61-.54,1.3l-.07.23c-.1.35-.2.75-.29,1.19s-.18.94-.26,1.51Z" style="fill: #fff; stroke-width: 0px;"/>
        <path d="m97.49,26.63c-.15,1.61-.63,2.78-1.44,3.47s-2.18,1.05-4.06,1.05-3.14-.35-3.75-1.04-.73-1.86-.4-3.48.88-2.63,1.69-3.23,2.04-.88,3.74-.88,2.86.29,3.48.88.88,1.66.74,3.22Zm-.58-3.68l1.06.87c.45.37.75.8.91,1.3s.21,1.2.14,2.09c-.13,1.75-.73,3.11-1.8,4.04s-2.67,1.44-4.69,1.44c-.59,0-1.1-.06-1.55-.18s-.81-.29-1.09-.52l-1.13-.94c.29.2.68.35,1.16.43s1.18.13,2.08.13c1.99,0,3.46-.4,4.38-1.18s1.43-2.03,1.58-3.75c.08-.96.04-1.72-.13-2.3s-.48-1.05-.93-1.45Zm-6.05,3.69c-.2,1.19-.2,2.02,0,2.49s.65.7,1.33.7,1.19-.24,1.54-.71.59-1.3.74-2.48.11-1.93-.1-2.35-.63-.62-1.26-.62-1.12.2-1.45.62-.6,1.19-.79,2.35Zm1.29,2.76c-.47-.06-.77-.28-.9-.65s-.12-1.02.03-1.93c.19-1.15.41-1.9.66-2.25s.62-.52,1.11-.52c.34,0,.61.1.8.3s.28.48.27.84c-.16-.1-.3-.17-.42-.21s-.24-.07-.35-.07c-.29,0-.49.09-.63.26s-.25.61-.36,1.3l-.04.23c-.05.35-.1.75-.12,1.19s-.05.94-.05,1.51Z" style="fill: #fff; stroke-width: 0px;"/>
        <path d="m109.5,26.63c.07,1.61-.24,2.78-.96,3.47s-2.03,1.05-3.91,1.05-3.19-.35-3.9-1.04-.99-1.86-.88-3.48.52-2.63,1.24-3.23,1.92-.88,3.62-.88,2.9.29,3.6.88,1.11,1.66,1.18,3.22Zm-1.09-3.68l1.18.87c.5.37.86.8,1.09,1.3s.38,1.2.43,2.09c.11,1.75-.3,3.11-1.24,4.04s-2.47,1.44-4.49,1.44c-.59,0-1.11-.06-1.58-.18s-.85-.29-1.16-.52l-1.26-.94c.32.2.73.35,1.22.43s1.2.13,2.1.13c1.99,0,3.4-.4,4.22-1.18s1.15-2.03,1.06-3.75c-.05-.96-.2-1.72-.44-2.3s-.62-1.05-1.13-1.45Zm-5.54,3.69c-.04,1.19.08,2.02.35,2.49s.75.7,1.42.7,1.16-.24,1.44-.71.41-1.3.4-2.48c-.01-1.15-.15-1.93-.42-2.35s-.72-.62-1.35-.62-1.09.2-1.36.62-.43,1.19-.47,2.35Zm1.67,2.76c-.48-.06-.81-.28-.99-.65s-.26-1.02-.24-1.93c.03-1.15.15-1.9.35-2.25s.55-.52,1.04-.52c.34,0,.63.1.84.3s.35.48.38.84c-.17-.1-.32-.17-.45-.21s-.25-.07-.36-.07c-.29,0-.48.09-.59.26s-.17.61-.18,1.3v.23c0,.35,0,.75.04,1.19s.08.94.16,1.51Z" style="fill: #fff; stroke-width: 0px;"/>
        <path d="m112.19,32.94h2.73l1.67-3.52.82.77-1.77,3.84h-1.89l-1.56-1.09Zm1-3.52h2.83l-1.47,3.04h-2.2l.83-3.04Z" style="fill: #fff; stroke-width: 0px;"/>
        <path d="m127.51,26.63c.41,1.61.33,2.78-.24,3.47s-1.82,1.05-3.7,1.05-3.26-.35-4.11-1.04-1.37-1.86-1.6-3.48-.02-2.63.58-3.23,1.74-.88,3.44-.88,2.96.29,3.78.88,1.45,1.66,1.85,3.22Zm-1.85-3.68l1.36.87c.58.37,1.03.8,1.36,1.3s.63,1.2.87,2.09c.47,1.75.35,3.11-.41,4.04s-2.17,1.44-4.19,1.44c-.59,0-1.12-.06-1.62-.18s-.91-.29-1.27-.52l-1.46-.94c.36.2.8.35,1.31.43s1.22.13,2.12.13c1.99,0,3.32-.4,3.97-1.18s.73-2.03.29-3.75c-.25-.96-.55-1.72-.92-2.3s-.84-1.05-1.43-1.45Zm-4.78,3.69c.21,1.19.5,2.02.86,2.49s.89.7,1.57.7,1.11-.24,1.29-.71.14-1.3-.12-2.48c-.25-1.15-.55-1.93-.91-2.35s-.85-.62-1.48-.62-1.05.2-1.24.62-.19,1.19.02,2.35Zm2.24,2.76c-.49-.06-.86-.28-1.12-.65s-.47-1.02-.64-1.93c-.21-1.15-.25-1.9-.12-2.25s.44-.52.93-.52c.34,0,.65.1.91.3s.45.48.56.84c-.19-.1-.36-.17-.5-.21s-.26-.07-.37-.07c-.29,0-.46.09-.54.26s-.04.61.09,1.3l.04.23c.07.35.16.75.28,1.19s.28.94.47,1.51Z" style="fill: #fff; stroke-width: 0px;"/>
        <path d="m139.52,26.63c.63,1.61.72,2.78.24,3.47s-1.67,1.05-3.55,1.05-3.31-.35-4.26-1.04-1.63-1.86-2.08-3.48-.39-2.63.13-3.23,1.62-.88,3.32-.88,3,.29,3.91.88,1.68,1.66,2.29,3.22Zm-2.36-3.68l1.49.87c.63.37,1.14.8,1.54,1.3s.79,1.2,1.15,2.09c.71,1.75.77,3.11.15,4.04s-1.97,1.44-3.99,1.44c-.59,0-1.13-.06-1.64-.18s-.95-.29-1.34-.52l-1.59-.94c.39.2.85.35,1.37.43s1.24.13,2.14.13c1.99,0,3.27-.4,3.81-1.18s.45-2.03-.23-3.75c-.38-.96-.79-1.72-1.24-2.3s-.98-1.05-1.63-1.45Zm-4.27,3.69c.37,1.19.77,2.02,1.2,2.49s.99.7,1.67.7,1.08-.24,1.19-.71-.04-1.3-.46-2.48-.82-1.93-1.23-2.35-.93-.62-1.56-.62-1.02.2-1.15.62-.02,1.19.34,2.35Zm2.62,2.76c-.5-.06-.9-.28-1.21-.65s-.61-1.02-.9-1.93c-.37-1.15-.51-1.9-.43-2.25s.36-.52.86-.52c.34,0,.66.1.95.3s.51.48.67.84c-.21-.1-.38-.17-.52-.21s-.27-.07-.38-.07c-.29,0-.45.09-.5.26s.04.61.27,1.3l.08.23c.12.35.27.75.45,1.19s.41.94.68,1.51Z" style="fill: #fff; stroke-width: 0px;"/>
        <path d="m151.53,26.63c.85,1.61,1.1,2.78.72,3.47s-1.53,1.05-3.41,1.05-3.36-.35-4.4-1.04-1.88-1.86-2.56-3.48-.75-2.63-.31-3.23,1.49-.88,3.2-.88,3.04.29,4.03.88,1.91,1.66,2.74,3.22Zm-2.86-3.68l1.61.87c.68.37,1.25.8,1.72,1.3s.96,1.2,1.44,2.09c.96,1.75,1.2,3.11.71,4.04s-1.77,1.44-3.8,1.44c-.59,0-1.14-.06-1.66-.18s-.99-.29-1.41-.52l-1.72-.94c.42.2.89.35,1.43.43s1.26.13,2.16.13c1.99,0,3.21-.4,3.65-1.18s.17-2.03-.75-3.75c-.51-.96-1.03-1.72-1.55-2.3s-1.13-1.05-1.83-1.45Zm-3.76,3.69c.54,1.19,1.05,2.02,1.55,2.49s1.09.7,1.76.7,1.04-.24,1.1-.71-.22-1.3-.8-2.48-1.08-1.93-1.56-2.35-1.02-.62-1.65-.62-.99.2-1.07.62.14,1.19.67,2.35Zm3,2.76c-.5-.06-.94-.28-1.3-.65s-.75-1.02-1.17-1.93c-.53-1.15-.77-1.9-.74-2.25s.29-.52.79-.52c.34,0,.67.1.99.3s.58.48.79.84c-.22-.1-.41-.17-.55-.21s-.28-.07-.39-.07c-.29,0-.44.09-.46.26s.12.61.45,1.3l.11.23c.17.35.37.75.61,1.19s.54.94.88,1.51Z" style="fill: #fff; stroke-width: 0px;"/>
      </g>
    </g>
  </g>
</svg>