<?xml version="1.0" encoding="UTF-8"?>
<svg id="_图层_2" data-name="图层 2" xmlns="http://www.w3.org/2000/svg" viewBox="0 0 162.16 247.2">
  <g id="_图层_1-2" data-name="图层 1">
    <g>
      <path d="m161.16,240.63c0,3.06-2.49,5.57-5.52,5.57H6.52c-3.04,0-5.52-2.51-5.52-5.57V6.57C1,3.51,3.49,1,6.52,1h149.11c3.04,0,5.52,2.51,5.52,5.57v234.05Z" style="fill: #fff; fill-rule: evenodd; stroke: #231815; stroke-miterlimit: 22.93; stroke-width: 2px;"/>
      <g>
        <g>
          <path d="m11.76,13.01v28.16h-3.12V13.01h3.12Zm8.39-.25c1.51,0,2.88.62,3.88,1.61,1,.99,1.62,2.36,1.62,3.87v17.63c0,1.5-.62,2.87-1.62,3.87-1,.99-2.38,1.61-3.88,1.61s-2.89-.62-3.89-1.61c-1-.99-1.62-2.36-1.62-3.87v-17.63c0-1.5.62-2.87,1.62-3.87,1-.99,2.38-1.61,3.89-1.61h0Zm0,3.12c-.66,0-1.26.27-1.69.69-.43.43-.7,1.01-.7,1.66v17.63c0,.65.27,1.24.7,1.66.43.43,1.03.69,1.69.69s1.26-.27,1.69-.69c.43-.43.7-1.01.7-1.66v-17.63c0-.65-.27-1.23-.7-1.66-.43-.43-1.03-.69-1.69-.69Z" style="fill: #231815; stroke-width: 0px;"/>
          <path d="m17.04,46.49c2.29,0,4.16,1.73,4.16,3.85,0,1.49-.92,2.79-2.26,3.42.09.13.18.27.25.42.69-.62,1.59-1,2.57-1,2.16,0,3.92,1.83,3.92,4.07s-1.76,4.07-3.92,4.07c-1.85,0-3.4-1.34-3.81-3.13-.07.03-.15.06-.22.08,0,.98.09,4.89,2,6.65h-5.19c1.92-1.77,2.01-5.71,2-6.67-.08-.02-.15-.05-.22-.08-.43,1.76-1.97,3.07-3.8,3.07-2.16,0-3.92-1.83-3.92-4.06s1.76-4.07,3.92-4.07c1,0,1.92.39,2.61,1.04.05-.11.11-.21.18-.3-1.44-.61-2.44-1.95-2.44-3.5,0-2.12,1.87-3.85,4.16-3.85Z" style="fill: #231815; fill-rule: evenodd; stroke-width: 0px;"/>
        </g>
        <g>
          <path d="m150.4,234.18v-28.16h3.12v28.16h-3.12Zm-8.39.25c-1.51,0-2.88-.62-3.88-1.61-1-.99-1.62-2.36-1.62-3.87v-17.63c0-1.5.62-2.87,1.62-3.87,1-.99,2.38-1.61,3.88-1.61s2.89.62,3.89,1.61c1,.99,1.62,2.36,1.62,3.87v17.63c0,1.5-.62,2.87-1.62,3.87-1,.99-2.38,1.61-3.89,1.61h0Zm0-3.12c.66,0,1.26-.26,1.69-.69.43-.43.7-1.01.7-1.66v-17.63c0-.65-.27-1.24-.7-1.66-.43-.43-1.03-.69-1.69-.69s-1.26.27-1.69.69c-.43.43-.7,1.01-.7,1.66v17.63c0,.65.27,1.23.7,1.66.43.43,1.03.69,1.69.69Z" style="fill: #231815; stroke-width: 0px;"/>
          <path d="m145.12,200.71c-2.29,0-4.16-1.73-4.16-3.85,0-1.49.92-2.79,2.26-3.42-.09-.13-.18-.27-.25-.42-.69.62-1.59,1-2.57,1-2.16,0-3.92-1.83-3.92-4.07s1.76-4.07,3.92-4.07c1.85,0,3.4,1.34,3.81,3.13.07-.03.15-.06.22-.08,0-.98-.09-4.89-2-6.65h5.19c-1.92,1.77-2.01,5.71-2,6.67.08.02.15.05.22.08.43-1.76,1.97-3.07,3.8-3.07,2.16,0,3.92,1.83,3.92,4.07s-1.76,4.07-3.92,4.07c-1,0-1.92-.39-2.61-1.04-.05.11-.11.21-.18.3,1.44.61,2.44,1.95,2.44,3.5,0,2.12-1.87,3.85-4.16,3.85Z" style="fill: #231815; fill-rule: evenodd; stroke-width: 0px;"/>
        </g>
        <path d="m81.32,193.86c-5.29,0-9.6-3.99-9.6-8.88,0-3.44,2.13-6.42,5.22-7.9-.22-.3-.42-.62-.59-.97-1.59,1.44-3.66,2.31-5.92,2.31-4.97,0-9.03-4.21-9.03-9.38s4.06-9.38,9.03-9.38c4.26,0,7.85,3.09,8.79,7.22.17-.07.34-.13.51-.18.01-2.25-.22-11.27-4.62-15.35h11.97c-4.42,4.09-4.64,13.17-4.62,15.38.17.05.34.12.51.19.99-4.06,4.54-7.08,8.76-7.08,4.98,0,9.03,4.21,9.03,9.38s-4.06,9.38-9.03,9.38c-2.31,0-4.42-.91-6.02-2.4-.12.24-.26.48-.41.7,3.32,1.4,5.63,4.5,5.63,8.08,0,4.89-4.31,8.88-9.6,8.88h0Zm-32.55-24.5c5.29,0,9.6-3.99,9.6-8.88,0-3.58-2.31-6.68-5.63-8.08.15-.22.29-.45.41-.7,1.6,1.49,3.71,2.4,6.02,2.4,4.97,0,9.03-4.21,9.03-9.38s-4.06-9.38-9.03-9.38c-4.21,0-7.77,3.02-8.76,7.08-.17-.07-.34-.14-.51-.19-.02-2.21.2-11.28,4.62-15.38h-11.97c4.41,4.08,4.64,13.1,4.62,15.35-.17.05-.34.11-.51.18-.94-4.13-4.53-7.22-8.79-7.22-4.98,0-9.03,4.21-9.03,9.38s4.06,9.38,9.03,9.38c2.26,0,4.34-.87,5.92-2.31.17.34.37.67.58.97-3.1,1.48-5.22,4.47-5.22,7.9,0,4.89,4.31,8.88,9.6,8.88h0Zm0,49.01c5.29,0,9.6-3.99,9.6-8.88,0-3.58-2.31-6.68-5.63-8.08.15-.22.29-.45.41-.7,1.6,1.49,3.71,2.4,6.02,2.4,4.97,0,9.03-4.21,9.03-9.38s-4.06-9.38-9.03-9.38c-4.21,0-7.77,3.02-8.76,7.08-.17-.07-.33-.14-.51-.19-.02-2.21.2-11.28,4.62-15.38h-11.97c4.41,4.08,4.64,13.1,4.62,15.35-.17.05-.34.11-.51.18-.94-4.13-4.53-7.22-8.79-7.22-4.97,0-9.03,4.21-9.03,9.38s4.06,9.38,9.03,9.38c2.26,0,4.34-.87,5.92-2.31.17.34.37.67.58.97-3.1,1.48-5.22,4.47-5.22,7.9,0,4.89,4.31,8.88,9.6,8.88h0Zm65.11-49.01c5.29,0,9.6-3.99,9.6-8.88,0-3.58-2.31-6.68-5.63-8.08.15-.22.29-.45.41-.7,1.6,1.49,3.71,2.4,6.02,2.4,4.98,0,9.03-4.21,9.03-9.38s-4.06-9.38-9.03-9.38c-4.21,0-7.77,3.02-8.76,7.08-.17-.07-.33-.14-.51-.19-.02-2.21.2-11.28,4.62-15.38h-11.97c4.41,4.08,4.64,13.1,4.62,15.35-.17.05-.34.11-.51.18-.94-4.13-4.53-7.22-8.79-7.22-4.97,0-9.03,4.21-9.03,9.38s4.06,9.38,9.03,9.38c2.26,0,4.34-.87,5.93-2.31.17.34.37.67.58.97-3.1,1.48-5.22,4.47-5.22,7.9,0,4.89,4.31,8.88,9.6,8.88h0Zm0,49.01c5.29,0,9.6-3.99,9.6-8.88,0-3.58-2.31-6.68-5.63-8.08.15-.22.29-.45.41-.7,1.6,1.49,3.71,2.4,6.02,2.4,4.97,0,9.03-4.21,9.03-9.38s-4.06-9.38-9.03-9.38c-4.21,0-7.77,3.02-8.76,7.08-.17-.07-.33-.14-.51-.19-.02-2.21.2-11.28,4.62-15.38h-11.97c4.41,4.08,4.64,13.1,4.62,15.35-.17.05-.34.11-.51.18-.94-4.13-4.53-7.22-8.79-7.22-4.97,0-9.03,4.21-9.03,9.38s4.06,9.38,9.03,9.38c2.26,0,4.34-.87,5.93-2.31.17.34.37.67.58.97-3.1,1.48-5.22,4.47-5.22,7.9,0,4.89,4.31,8.88,9.6,8.88h0Zm-.48-140.53c5.29,0,9.6,3.99,9.6,8.88,0,3.44-2.13,6.42-5.22,7.9.22.3.42.62.58.97,1.59-1.44,3.66-2.31,5.93-2.31,4.97,0,9.03,4.21,9.03,9.38s-4.06,9.38-9.03,9.38c-4.26,0-7.85-3.09-8.79-7.22-.17.07-.34.13-.51.18-.01,2.25.22,11.27,4.62,15.35h-11.97c4.42-4.09,4.64-13.17,4.62-15.38-.17-.05-.34-.12-.51-.19-.99,4.06-4.55,7.08-8.76,7.08-4.97,0-9.03-4.21-9.03-9.38s4.06-9.38,9.03-9.38c2.31,0,4.42.91,6.02,2.4.12-.24.26-.48.41-.7-3.32-1.4-5.63-4.5-5.63-8.08,0-4.89,4.31-8.88,9.6-8.88h0Zm0-49.01c5.29,0,9.6,3.99,9.6,8.88,0,3.43-2.13,6.42-5.22,7.9.22.3.42.62.58.97,1.59-1.44,3.66-2.31,5.93-2.31,4.97,0,9.03,4.21,9.03,9.38s-4.06,9.38-9.03,9.38c-4.26,0-7.85-3.09-8.79-7.22-.17.07-.34.13-.51.18-.01,2.25.22,11.27,4.62,15.35h-11.97c4.42-4.09,4.64-13.17,4.62-15.38-.17-.05-.34-.12-.51-.19-.99,4.06-4.55,7.08-8.76,7.08-4.97,0-9.03-4.21-9.03-9.38s4.06-9.38,9.03-9.38c2.31,0,4.42.91,6.02,2.4.12-.24.26-.48.41-.7-3.32-1.4-5.63-4.5-5.63-8.08,0-4.89,4.31-8.88,9.6-8.88h0Zm-32.55,24.5c-5.29,0-9.6,3.99-9.6,8.88,0,3.58,2.31,6.68,5.63,8.08-.15.22-.29.45-.41.7-1.6-1.49-3.71-2.4-6.02-2.4-4.97,0-9.03,4.21-9.03,9.38s4.06,9.38,9.03,9.38c4.21,0,7.77-3.02,8.76-7.08.17.07.33.14.51.19.02,2.21-.2,11.28-4.62,15.38h11.97c-4.41-4.08-4.64-13.1-4.62-15.35.17-.05.34-.11.51-.18.94,4.13,4.53,7.22,8.79,7.22,4.97,0,9.03-4.21,9.03-9.38s-4.06-9.38-9.03-9.38c-2.26,0-4.34.87-5.93,2.31-.17-.34-.37-.67-.59-.97,3.1-1.48,5.22-4.47,5.22-7.9,0-4.89-4.31-8.88-9.6-8.88h0Zm-32.55-24.5c5.29,0,9.6,3.99,9.6,8.88,0,3.43-2.13,6.42-5.22,7.9.22.3.42.62.59.97,1.59-1.44,3.66-2.31,5.93-2.31,4.97,0,9.03,4.21,9.03,9.38s-4.06,9.38-9.03,9.38c-4.26,0-7.85-3.09-8.79-7.22-.17.07-.34.13-.51.18-.01,2.25.22,11.27,4.62,15.35h-11.97c4.42-4.09,4.64-13.17,4.62-15.38-.17-.05-.34-.12-.51-.19-.99,4.06-4.54,7.08-8.76,7.08-4.97,0-9.03-4.21-9.03-9.38s4.06-9.38,9.03-9.38c2.31,0,4.42.91,6.02,2.4.12-.24.26-.48.41-.7-3.32-1.4-5.63-4.5-5.63-8.08,0-4.89,4.31-8.88,9.6-8.88h0Zm0,49.01c5.29,0,9.6,3.99,9.6,8.88,0,3.44-2.13,6.42-5.22,7.9.22.3.42.62.59.97,1.59-1.44,3.66-2.31,5.93-2.31,4.97,0,9.03,4.21,9.03,9.38s-4.06,9.38-9.03,9.38c-4.26,0-7.85-3.09-8.79-7.22-.17.07-.34.13-.51.18-.01,2.25.22,11.27,4.62,15.35h-11.97c4.42-4.09,4.64-13.17,4.62-15.38-.17-.05-.34-.12-.51-.19-.99,4.06-4.54,7.08-8.76,7.08-4.97,0-9.03-4.21-9.03-9.38s4.06-9.38,9.03-9.38c2.31,0,4.42.91,6.02,2.4.12-.24.26-.48.41-.7-3.32-1.4-5.63-4.5-5.63-8.08,0-4.89,4.31-8.88,9.6-8.88Z" style="fill: #231815; fill-rule: evenodd; stroke-width: 0px;"/>
      </g>
    </g>
  </g>
</svg>