<?xml version="1.0" encoding="UTF-8"?>
<svg id="_图层_2" data-name="图层 2" xmlns="http://www.w3.org/2000/svg" viewBox="0 0 163.57 248.61">
  <g id="_图层_1-2" data-name="图层 1">
    <g>
      <path d="m162.57,242.01c0,3.08-2.51,5.6-5.57,5.6H6.57c-3.06,0-5.57-2.52-5.57-5.6V6.6C1,3.52,3.51,1,6.57,1h150.43c3.06,0,5.57,2.52,5.57,5.6v235.41Z" style="fill: #fff; fill-rule: evenodd; stroke: #231815; stroke-miterlimit: 22.93; stroke-width: 2px;"/>
      <g>
        <g>
          <path d="m48.05,32.8c4.05,0,7.35,3.05,7.35,6.8,0,2.63-1.63,4.92-4,6.05.17.23.32.48.45.74,1.22-1.1,2.8-1.77,4.54-1.77,3.81,0,6.92,3.23,6.92,7.18s-3.11,7.18-6.92,7.18c-3.26,0-6.01-2.37-6.73-5.53-.13.05-.26.1-.39.14-.01,1.72.17,8.63,3.54,11.75h-9.16c3.39-3.13,3.55-10.08,3.54-11.77-.13-.04-.26-.09-.39-.15-.76,3.11-3.48,5.42-6.7,5.42-3.81,0-6.92-3.23-6.92-7.18s3.11-7.18,6.92-7.18c1.77,0,3.39.69,4.61,1.84.1-.19.2-.36.32-.53-2.54-1.07-4.31-3.45-4.31-6.19,0-3.75,3.3-6.8,7.35-6.8Z" style="fill: #231815; fill-rule: evenodd; stroke-width: 0px;"/>
          <path d="m115.53,215.82c-4.05,0-7.35-3.06-7.35-6.8,0-2.63,1.63-4.92,4-6.05-.17-.23-.32-.48-.45-.74-1.22,1.1-2.8,1.77-4.54,1.77-3.81,0-6.92-3.23-6.92-7.18s3.11-7.18,6.92-7.18c3.26,0,6.01,2.37,6.73,5.53.13-.05.26-.1.39-.14,0-1.72-.17-8.63-3.54-11.75h9.16c-3.39,3.13-3.55,10.08-3.54,11.77.13.04.26.09.39.15.76-3.11,3.48-5.42,6.71-5.42,3.81,0,6.92,3.23,6.92,7.18s-3.11,7.18-6.92,7.18c-1.77,0-3.39-.69-4.61-1.84-.1.19-.2.36-.32.53,2.54,1.07,4.31,3.45,4.31,6.19,0,3.75-3.3,6.8-7.35,6.8Z" style="fill: #231815; fill-rule: evenodd; stroke-width: 0px;"/>
        </g>
        <path d="m41.91,168.38c-.59.42-3.54,2.33-3.54,2.33h-.9v28.25h5.77l-14.06,15.64V62.45l8.25,8.75v13.22s9-9.6,26.36-17.61c0,0-1.21-1.04-1-3.56.21-2.53,1.34-4.44,3.38-5,0,0,.86-.16,2.13-.02,0,0,1.1-2.6,1.47-5.87.37-3.27.73-8.69.73-8.69l-8.45-17.27h55.11l-7.93,16.7-.23,7.13s.48,1.15,1.45,4.19c.97,3.04,1.36,3.41,2.27,3.62.91.21,2.64.84,2.66,2.73.02,1.89-1.44,3.21-2.48,3.4-1.04.19-2.63-.35-3.5-1.61,0,0,1.1,3.32,1.53,4.59.27.79.68,1.05,1.07,1.02,1.22-.1,3.44.57,3.71,2.57.27,2.02-1.26,3.79-3.17,3.68,0,0,7.5,4.07,9.11,5.82h0c.59-.41,3.54-2.32,3.54-2.32h.9v-28.25h-5.77l14.06-15.64v152.15l-8.25-8.75v-13.21s-9,9.6-26.36,17.61c0,0,1.22,1.04,1,3.56-.22,2.53-1.34,4.44-3.39,5,0,0-.86.16-2.13.02,0,0-1.1,2.6-1.47,5.87-.37,3.27-.73,8.69-.73,8.69l8.45,17.27h-55.11l7.93-16.71.23-7.13s-.48-1.15-1.45-4.19c-.97-3.04-1.36-3.41-2.27-3.62-.91-.21-2.64-.84-2.66-2.73-.02-1.89,1.44-3.21,2.48-3.4,1.04-.19,2.63.35,3.5,1.6,0,0-1.1-3.32-1.53-4.59-.27-.79-.68-1.05-1.07-1.02-1.22.1-3.44-.57-3.71-2.57-.27-2.02,1.26-3.78,3.17-3.68,0,0-7.53-4.09-9.12-5.83Z" style="fill: #004ea2; fill-rule: evenodd; stroke-width: 0px;"/>
        <g>
          <path d="m66.76,99.54l.3.33v1.22c-.35-.09-.75.03-1.02.34l-1.13,1.29s-.04.04-.05.07c-.27-.08-.54-.17-.8-.25l2.7-3.01h0Zm.32,4.05v-1.36c-.39-.1-.8,0-1.1.3-.15.16-.25.34-.3.54.46.16.93.33,1.4.52h0Zm-.32-14.6l.25.27v1.28c-.34-.06-.71.06-.96.35l-1.13,1.3c-.38.44-.35,1.09.06,1.46l1.88,1.67c.06.05.12.1.19.13v1.48s-3.73-4.09-3.73-4.09l3.46-3.85h0Zm.27,4.9v-2.22c-.38-.08-.77.03-1.05.31-.44.44-.44,1.16,0,1.61.28.29.68.39,1.05.31h0Zm-.32-15.4l.24.26v1.28c-.34-.06-.71.06-.96.35l-1.13,1.29c-.38.44-.35,1.1.06,1.46l1.88,1.68c.06.05.12.09.18.13v1.48s-3.73-4.09-3.73-4.09l3.46-3.85h0Zm.26,4.9v-2.22c-.38-.07-.76.03-1.04.31-.44.44-.44,1.17,0,1.61.28.28.68.39,1.04.31h0Zm-.22-15.27l.14.15v1.38c-.3-.02-.63.1-.86.37l-1.13,1.29c-.38.44-.35,1.09.06,1.46l1.88,1.67s.05.05.08.07v1.43s-3.63-3.98-3.63-3.98l3.46-3.85h0Zm.16,4.92v-2.26c-.34-.04-.69.07-.94.32-.44.44-.44,1.17,0,1.61.26.26.61.37.94.32h0Zm-9.53,27.11l1.14,1.25c-.39-.05-.77-.09-1.14-.13v-1.12h0Zm0-10.41l3.01,3.29-3.01,3.35v-1.17c.1-.06.19-.13.27-.22l1.13-1.3c.38-.44.35-1.09-.06-1.46l-1.34-1.19v-1.29h0Zm0,2.32v2.07c.12-.06.23-.13.33-.23.44-.44.44-1.17,0-1.61-.1-.1-.21-.17-.33-.23h0Zm0-12.76l2.96,3.24-2.96,3.3v-1.14c.08-.05.15-.12.22-.2l1.13-1.29c.38-.44.35-1.09-.06-1.46l-1.29-1.15v-1.28h0Zm0,2.29v2.02c.1-.05.2-.12.28-.21.44-.44.44-1.17,0-1.61-.09-.08-.18-.15-.28-.2h0Zm0-7.45c.08-.05.15-.12.22-.19l1.13-1.3c.38-.44.35-1.1-.06-1.46l-.66-.59c.24-.12.48-.25.72-.37l1.61,1.76-2.96,3.3v-1.14h0Zm0-3.1v2.02c.1-.05.2-.12.28-.21.44-.44.44-1.16,0-1.61-.09-.08-.18-.15-.28-.21h0Zm3.05-1.59c-.07.03-.13.06-.2.08l-.71.57,1.6,2-3.74,4.74v1.04l3.76,4.58-3.76,4.57v1.54l3.72,4.64-3.72,4.68v1.09l2.29,2.59c.58.09,1.17.2,1.78.33l-3.06-3.48,3.43-4.32,3.46,4.31-3.04,3.66c.4.09.8.19,1.2.3l2.99-3.6.29-.35-.29-.36-3.9-4.86,4.08-5.13.28-.35-.29-.35-4.02-4.9,3.9-4.75.29-.35-.28-.36-3.93-4.91,1.56-1.97-.88-.7-1.4,1.77-1.41-1.75h0Zm1.43,13.89l-3.67,4.46,3.62,4.51,3.64-4.58-3.59-4.38h0Zm-.01-10.34l-3.44,4.36,3.46,4.22,3.47-4.23-3.49-4.35h0Zm-.09,2.99c.57,0,1.04.51,1.04,1.12s-.47,1.12-1.04,1.12-1.04-.51-1.04-1.12.47-1.12,1.04-1.12h0Zm0,10.62c.57,0,1.04.5,1.04,1.12s-.47,1.12-1.04,1.12-1.04-.5-1.04-1.12.47-1.12,1.04-1.12h0Zm0,10.62c.57,0,1.04.51,1.04,1.12s-.47,1.12-1.04,1.12-1.04-.51-1.04-1.12.47-1.12,1.04-1.12Z" style="fill: #fff; fill-rule: evenodd; stroke-width: 0px;"/>
          <polygon points="128.41 49.65 133.98 49.65 133.98 182.47 128.41 176.44 128.41 49.65" style="fill: #231815; fill-rule: evenodd; stroke-width: 0px;"/>
          <path d="m131.3,75.47c.48,0,.88.49.88,1.08s-.4,1.08-.88,1.08-.88-.48-.88-1.08.4-1.08.88-1.08h0Zm2.68-17.61v2.25l-4.71,4.54v-2.29l4.71-4.5h0Zm0,3.61l-4.71,4.54v2.35l4.71-4.58v-2.31h0Zm0,16.68v2.25l-4.71,4.54v-2.3l4.71-4.5h0Zm0,3.61l-4.71,4.54v2.35l4.71-4.59v-2.3h0Zm0,16.68v2.25l-4.71,4.54v-2.29l4.71-4.5h0Zm0,3.61l-4.71,4.54v2.35l4.71-4.58v-2.31h0Zm0,16.68v2.25l-4.71,4.54v-2.3l4.71-4.5h0Zm0,3.61l-4.71,4.54v2.35l4.71-4.59v-2.3h0Zm0,16.68v2.25l-4.71,4.54v-2.29l4.71-4.5h0Zm0,3.61l-4.71,4.54v2.35l4.71-4.58v-2.31h0Zm0,16.68v2.25l-4.71,4.54v-2.29l4.71-4.5h0Zm0,3.61l-4.71,4.54v2.35l4.71-4.58v-2.3h0Zm-2.68-92.68c.48,0,.88.48.88,1.08s-.4,1.08-.88,1.08-.88-.49-.88-1.08.4-1.08.88-1.08h0Zm-1.27,2.68c.48,0,.88.48.88,1.08s-.4,1.08-.88,1.08-.88-.48-.88-1.08.4-1.08.88-1.08h0Zm2.68,0c.49,0,.88.48.88,1.08s-.4,1.08-.88,1.08-.88-.48-.88-1.08.4-1.08.88-1.08h0Zm-1.4,22.83c.48,0,.88.48.88,1.08s-.4,1.08-.88,1.08-.88-.48-.88-1.08.4-1.08.88-1.08h0Zm0-5.22c.48,0,.88.48.88,1.08s-.4,1.08-.88,1.08-.88-.48-.88-1.08.4-1.08.88-1.08h0Zm-1.27,2.68c.48,0,.88.49.88,1.08s-.4,1.08-.88,1.08-.88-.48-.88-1.08.4-1.08.88-1.08h0Zm2.68,0c.49,0,.88.49.88,1.08s-.4,1.08-.88,1.08-.88-.48-.88-1.08.4-1.08.88-1.08h0Zm-1.4,43.12c.48,0,.88.48.88,1.08s-.4,1.08-.88,1.08-.88-.48-.88-1.08.4-1.08.88-1.08h0Zm0-5.22c.48,0,.88.48.88,1.08s-.4,1.08-.88,1.08-.88-.48-.88-1.08.4-1.08.88-1.08h0Zm-1.27,2.68c.48,0,.88.48.88,1.08s-.4,1.08-.88,1.08-.88-.48-.88-1.08.4-1.08.88-1.08h0Zm2.68,0c.49,0,.88.48.88,1.08s-.4,1.08-.88,1.08-.88-.48-.88-1.08.4-1.08.88-1.08h0Zm-1.4,43.12c.48,0,.88.48.88,1.08s-.4,1.08-.88,1.08-.88-.48-.88-1.08.4-1.08.88-1.08h0Zm0-5.22c.48,0,.88.48.88,1.08s-.4,1.08-.88,1.08-.88-.48-.88-1.08.4-1.08.88-1.08h0Zm-1.27,2.68c.48,0,.88.48.88,1.08s-.4,1.08-.88,1.08-.88-.49-.88-1.08.4-1.08.88-1.08h0Zm2.68,0c.49,0,.88.48.88,1.08s-.4,1.08-.88,1.08-.88-.49-.88-1.08.4-1.08.88-1.08h0Zm-1.4-17.75c.48,0,.88.48.88,1.08s-.4,1.08-.88,1.08-.88-.49-.88-1.08.4-1.08.88-1.08h0Zm0-5.22c.48,0,.88.48.88,1.08s-.4,1.08-.88,1.08-.88-.48-.88-1.08.4-1.08.88-1.08h0Zm-1.27,2.68c.48,0,.88.49.88,1.08s-.4,1.08-.88,1.08-.88-.48-.88-1.08.4-1.08.88-1.08h0Zm2.68,0c.49,0,.88.49.88,1.08s-.4,1.08-.88,1.08-.88-.48-.88-1.08.4-1.08.88-1.08h0Zm-1.4-98.91c.48,0,.88.48.88,1.08s-.4,1.08-.88,1.08-.88-.48-.88-1.08.4-1.08.88-1.08h0Zm0-5.22c.48,0,.88.48.88,1.08s-.4,1.08-.88,1.08-.88-.48-.88-1.08.4-1.08.88-1.08h0Zm-1.27,2.68c.48,0,.88.48.88,1.08s-.4,1.08-.88,1.08-.88-.49-.88-1.08.4-1.08.88-1.08h0Zm2.68,0c.49,0,.88.48.88,1.08s-.4,1.08-.88,1.08-.88-.49-.88-1.08.4-1.08.88-1.08h0Zm-1.4,63.42c.48,0,.88.48.88,1.08s-.4,1.08-.88,1.08-.88-.48-.88-1.08.4-1.08.88-1.08h0Zm0-5.22c.48,0,.88.49.88,1.08s-.4,1.08-.88,1.08-.88-.49-.88-1.08.4-1.08.88-1.08h0Zm-1.27,2.68c.48,0,.88.48.88,1.08s-.4,1.08-.88,1.08-.88-.48-.88-1.08.4-1.08.88-1.08h0Zm2.68,0c.49,0,.88.48.88,1.08s-.4,1.08-.88,1.08-.88-.48-.88-1.08.4-1.08.88-1.08Z" style="fill: #ffe100; fill-rule: evenodd; stroke-width: 0px;"/>
          <polygon points="127.01 49.65 128.41 49.65 128.41 176.44 133.98 182.47 133.98 184.55 127.01 176.99 127.01 49.65" style="fill: #ffe100; fill-rule: evenodd; stroke-width: 0px;"/>
          <path d="m126.62,83.49l-1.18-5.57s2.03,0,3.3-.02c1.27-.02,2.69.61,2.71,1.58.02.97-.8,1.97-1.79,2.6-.99.63-1.62.59-2.09.59s-.83.33-.96.82Z" style="fill: #004ea2; fill-rule: evenodd; stroke-width: 0px;"/>
          <path d="m110.63,39.22l4.61-9.87s1.5,1.65,2.34,3.03c.84,1.38,1.34,3.15,1.61,4.72.27,1.57,1.5,4.99,2.3,6.26.81,1.27,1.04,1.69,1.04,2.11s-1.88.46-3.11.35c-1.23-.12-2.96-.54-4.64-2.19-1.69-1.65-3.8-3.72-4.15-4.42Z" style="fill: #004ea2; fill-rule: evenodd; stroke-width: 0px;"/>
          <path d="m67.09,103.59l-.19-35.49s9.9,5.42,10.7,5.95c.79.53,14.02,12.31,14.02,12.31l9.28-7.16c-.33,2.91-.71,7.79-.54,14.11l-6.05,4.63.75,25.61-5.17,3.97c-3.11-3.76-5.25-8.43-9.71-14.03v-23.16l-9.08-7.98v23.16c-1.33-.76-2.67-1.39-4-1.91Z" style="fill: #231815; fill-rule: evenodd; stroke-width: 0px;"/>
          <path d="m63.87,26.78l7.5,15.17s16.01-3.66,36.81.07l7.45-15.24h-51.77Z" style="fill: #e60012; fill-rule: evenodd; stroke-width: 0px;"/>
          <path d="m67.68,26.78l5.4,10.44,6.92-.79-3.09-9.65h1.76l3.24,10.11.31.97-1.02.12-8.51.98-.57.07-.27-.52-6.06-11.73h1.89Zm13.51,0l2.26,9.87.15.66h.67s12.74-.15,12.74-.15h.77s.07-.77.07-.77l.84-9.61h-1.7l-.76,8.7-11.3.13-2.02-8.83h-1.72Zm20.3,0h1.69l-1.21,9.72,4.82.63,3.42-10.35h1.77l-3.81,11.53-.22.66-.69-.09-6.34-.83-.83-.11.1-.82,1.29-10.34Z" style="fill: #231815; stroke-width: 0px;"/>
          <path d="m95.56,70.05s1.5,1.1,2.54,1.18c1.05.07,1.9-.28,2.25-.58.35-.3.57.15.47.42-.1.28-.92.45-1.12.5-.2.05.92.88.77,1.13-.15.25-2.5.22-3.07.02-.58-.2.02-.5.3-.5s.2-.35-.42-.4c-.79-.06-1.93-.93-1.72-1.78h0Zm-4.85-17.8l.24.05s.47.03.61.47c.13.45.05.53-.16.58-.21.05-.66-.34-.84-.63-.19-.29-.16-.5.16-.47h0Zm4.77,1.1c-.04-.2.11-.66.43-.64.32.02.42.34.37.52-.08.33-.72.5-.8.12h0Zm-3.14-.89c.36.1.67.91,1.13.98.37.05.82-.66,1.19-.87.37-.21.42.16.21.5-.21.34-.84.84-1.29.87-.45.03-.76-.32-1.16-.82-.39-.5-.32-.66-.08-.66h0Zm2.34,13.78s-.99,2.29-1.45,2.82c-.46.53.14.68.63.43.5-.26,1.35-.63,2.04-.77.68-.14,1.49.67,2.15.8.67.14,1.55-.38,2.05-.73.5-.36,1.69-.41,2.7.94l.03-3.03s-.51.6-.92.6-.62-.22-1.08-.34c-.46-.12-.84.39-1.27.45-.43.05-.7.05-.97-.17-.27-.22-1.01-.44-1.83-.14-.82.31-1,.44-1.4.29-.42-.15-.55-.76-.69-1.15h0Zm2.41-7.25c-.39-.35-1.07.43-1.54,1.16-.47.73-.87,1.6-.45,2.79.42,1.19,2.13,1.43,3.12,1.06.99-.37,2.08-1.19,2.08-1.79s-.57-.62-1.05-.52c-.48.09-1.12.52-1.74.99-.62.46-1.31-.08-1.54-.6-.54-1.22,1.74-2.52,1.13-3.08h0Zm11.25-15.56c-6.47-1.15-12.82-1.51-18.43-1.48-.16.9-.49,2.83-.93,6.14.6-.3,2.43-1.18,4.26-1.72,2.23-.66,5.84.5,5.46,2.39,0,0-.38.19-1.29-.28-2.35-1.22-5.92-.24-8.65,1.29-.03.21-.05.43-.08.65.63-.42,2.17-1.35,3.98-1.65,2.37-.4,5.22.58,5.62,2.59,0,0,.12.55-.52.85,0,0,.24.64.15,1.19-.09.55-1.46,1.86-3.67,2.96-2.22,1.1-3.4.82-3.58.4-.18-.43.49-.79,1.31-.82.82-.03,1.94-.46,2.34-.86,0,0-.12-.12-.91-.09-.79.03-1.97-.27-2.43-.67-.46-.4-1-.85-1.4-1.01-.25-.1-.82-.12-1.22-.12-.08.67-.16,1.37-.24,2.11-.97,8.87-1.23,13.47-2.55,16.12,1.21.91,7.16,5.22,11.36,5.19,4.7-.04,7-3.24,8.01-6.34.71-2.16,2.08-8.23,2.84-16.21h0c-.43.25-1.25.65-2.03.72-1.15.1-2.86-.38-2.86-.38,0,0,2.29,2.1,2.29,2.49s-.21.6-.53.45c-.32-.16-1.8-1.46-2.26-1.81-.46-.34-.86-.45-.63.26.22.7,1.49,4.99,1.49,6.16,0,1.64-1.69,2.77-3.89,4.03,0,0,2.77-3.63,2.81-4.12.05-.49-.61-3.22-1.3-6.1-.7-2.88-.77-5.17,1.16-7.38,1.87-2.14,4.48-2.34,6.23-1.48h0c.04-1.13.07-2.29.08-3.46h0Zm-19.85,8.59c.03-.29.07-.57.1-.85,1.89-1.43,6.14-2.82,8.47-.11,0,0-.66-.24-2.05-.56-1.37-.32-4.17-.66-6.53,1.53h0Zm19.69-3.29c-.02.41-.04.81-.07,1.21h0c-2.36-1.93-5.82-.01-5.82-.01.92-1.6,2.14-2.38,3.51-2.26.98.08,1.93.72,2.38,1.07h0Zm-.36,4.95h-1.16s1-.79,1.28-1.44c-.04.49-.08.97-.12,1.44h0Zm.19-2.32c0,.08-.01.16-.02.23h-.5s-.26-.48-1.39-.71c-1.14-.23-2.2-.04-3.82.65l-.57.07s.59-1.53,2.53-1.73c1.82-.19,3.41.39,3.78,1.49h0Zm-6.43,1.51l1.07-.42.85,1.38-1.92-.96h0Zm2.05-.56h.66s.17,1.17.9,1.12c.73-.06,1.07-.64,1.07-.64l.56.06s-.39.93-1.3,1.13c-.91.21-1.79-.92-1.9-1.66h0Zm-20.93,22.24l8.35,8.05,6.95-5.25s-5.74.7-12.78-5.34c-.13.2-.27.4-.42.57-.73.88-1.42,1.51-2.1,1.96Z" style="fill: #fff; fill-rule: evenodd; stroke-width: 0px;"/>
          <path d="m86.15,42.03c-.12,1.06-.68,6-1.06,9.36-.42,3.65-.58,12.09-3.26,14.82.67.62,1.18,1.34,1.58,2.36.44-1.02,1.2-3.1,1.66-6.2.67-4.48,1.94-17.04,2.37-20.39-.43.01-.86.03-1.28.04h0Zm-8.02.55c-.19,1.71-.74,6.49-1.27,9.68-.6,3.61-.76,8.02-2.3,9.64.56.3,1.12.6,1.65.89.37-.52.84-1.6,1.13-3.79.49-3.69,1.69-13.49,2.31-16.55-.52.05-1.03.09-1.52.14h0Zm-4.46.54c.46-.07.96-.13,1.51-.2-.23,2.22-.85,7.94-1.48,12.2-.46,3.17-1,4.79-1.36,5.6-.47-.25-.92-.49-1.33-.71.99-1.63,1.01-4.31,1.56-8.11.48-3.35.93-7.26,1.11-8.79h0Zm6.49-.73c.41-.03.83-.07,1.25-.1-.11,1.07-.32,2.9-.67,5.61-.61,4.71-.69,6.25-1.25,10.72-.39,3.18-1.2,4.55-1.63,5.08-.37-.2-.77-.42-1.2-.65.58-.55.92-1.69,1.16-3.36.3-2,.46-4.35,1.03-8.35.44-3.11,1.04-7.25,1.29-8.94h0Zm-4.33.44c.56-.07,1.15-.14,1.78-.2-.29,2.23-1.1,8.47-1.77,13.06-.56,3.81-1.32,5.36-1.75,5.96-.46-.24-.91-.48-1.35-.72,1.18-1.56,1.77-6.12,2.18-10.34.33-3.4.73-6.44.91-7.76h0Zm3.91,25.56c.25.04.52.36.52,1.11s.19,1.04.54.93c.34-.11.52-.55.11-1.53-.41-.97-1.51-1.73-2.62-.63-1.11,1.1-.42,3.05-.42,3.05.83,1.93,2.34,2.72,4.31.76s2.99-7.23,3.58-11.05c.59-3.82.9-9.09,1.38-12.61.33-2.41.58-5.04.7-6.46.51-.01,1.02-.02,1.54-.02-.44,1.88-1.17,5.65-1.61,9.95-.56,5.5-.89,12.18-1.79,16.57-.9,4.39-4.23,6.44-6.24,6.37-2-.07-3.29-1.68-3.26-4.15s.74-3.06,1.71-3.99c.34-.33.63-.58.87-.77.44-.34.7-.46.84-.42.22.06,1.04.65,1.84,1.36.54.48.91,1.01,1.03,1.68.06.31.07.66.02,1.05-.15,1.22-1.8,3.09-2.71,3.09s-1.89-1.51-1.8-2.88c.05-.69.66-1.62,1.45-1.43h0Zm2.23-26.14c.5-.04,1.02-.07,1.54-.1-.29,2.58-1.23,10.75-1.96,15.51-.66,4.25-1.4,6.35-1.73,7.14-.19-.12-.39-.23-.6-.35-.26-.15-.6-.34-.99-.56,1.33-1.29,1.73-3.8,2.35-9.08.57-4.9,1.19-10.64,1.39-12.56h0Zm2.05-.13c.42-.02.85-.04,1.29-.06-.19,2.5-1.09,13.87-1.8,18.17-.57,3.46-1.5,5.07-1.99,5.71-.4-.33-.86-.63-1.37-.95,1.04-1.29,1.42-4.09,2.23-9.19.75-4.74,1.44-11.59,1.64-13.68h0Zm-15.32,16.67c.33.18,1.01.53,1.88.99.54-.83.63-2.09,1.2-6.12.62-4.37,1.19-8.8,1.4-10.48-.86.13-1.55.24-2.05.33-.09,2.36-.55,11.57-2.37,15.17-.02.04-.04.08-.06.12h0Zm10.76,6.45l-1.6-.89c-2.16,1.38-3.52,2.83-3.58,4.66-.04,1.21.37,2.45.67,3.19l1.28.69s-.45-1.86-.18-3.77c.27-1.92,2.35-3.31,3.4-3.87h0Zm-2.24-1.25l-1.06-.59c-2.77,1.71-3.5,2.62-3.5,4.18,0,1.18.35,2.85.54,3.67l.85.46c-.61-2.62-.51-4.11.7-5.45,1-1.11,2.05-1.95,2.46-2.27h0Zm-1.6-.89c-.49.31-1.84,1.22-2.86,2.36-1.18,1.33-.7,3.19-.17,5.45l-1.16-.62c-.25-.66-.61-1.82-.59-3.11.03-1.87,1.74-3.8,3.35-4.87l1.42.79h0Zm-2.11-1.17l-1.12-.63c-.3.37-.81.93-1.45,1.41-1.06.79-2.21,1.22-2.21,3.44,0,1.42.63,2.6,1.08,3.26l.91.49c-.69-2.4-.33-4.43.39-5.4.63-.85,1.96-2.15,2.4-2.57h0Zm-1.51-.84l-1.11-.61c-2.99.96-3.74,2.56-3.69,4.98.04,1.7.32,2.5.51,2.83l1.11.6c-1.36-3.94-.21-5.04.93-5.87.93-.67,1.88-1.56,2.25-1.92h0Zm-1.82-1.01c-.45.23-1.34.72-2.07,1.38-1.03.93-1.9,1.67-1.33,6.33l-.78-.42c-.21-.62-.77-2.35-.85-3.39-.1-1.23.8-2.69,3.53-4.74l1.51.84h0Zm-2.05-1.14c-.51.49-2.06,1.99-2.88,2.9-.94,1.05-.59,3.2.16,5.21l-.32-.17c-1.9-.89-1.62-3.63-1.62-3.63.22-3.21,1.82-4.34,2.91-4.43.55-.05,1.06,0,1.44.04.09.01.16.02.23.04l.07.04h0Zm40.71-5.7l.19-.84s.86,3.88,1.79,5.22c.93,1.34,1.61,1.06,2.84,1.65,1.24.59.83,1.74.65,2.52-.18.78-.83,1.4-1.51,1.52-.68.12-1.82-.19-2.72-1.18-.9-1-1.51-3.32-1.7-4.66-.19-1.34.22-2.73.46-4.22h0Zm-1.45,12.23s2.88,6.36,3.3,7.22c.42.86,1.19,1.04,1.19,1.04,2.02.15,3.03-1.31,2.97-2.85-.06-1.55-2.17-1.81-2.94-1.96-.77-.15-1.58-.98-2.2-3-.62-2.02-1.69-5.61-1.69-5.61l-.62,5.17h0Zm-.38.91l3.15,6.87s-2.35-.36-3.04-2.2c-.36-.97-1.21-3.84-.1-4.67h0Zm-1.1,3.6c-.52.56-.59,1.66.56,1.81.14-.66.03-1.67-.56-1.81Z" style="fill: #ffe100; fill-rule: evenodd; stroke-width: 0px;"/>
          <path d="m114.87,32.24l-.42-.52.93-1.53s1.47,1.68,2,2.94c.53,1.26,1.05,3.17,1.4,4.85.35,1.68,1.61,5.34,3,6.99,0,0-1.24.2-2.84.16-1.6-.04-2.97-1.22-4.15-2.41-1.18-1.18-3.58-3.7-3.58-3.7l1.28-2.64s.41,2.42.72,2.54c.32.12.41-.7.41-1.06s.26-.16.58.6c.32.76.37,1.39.37,1.39l.97.09.59,2.52,1.02-.16s.25,1.79.49,1.85c.24.06.57-.16.63-.37.06-.22.31-.12.72.16.41.28.59.47.83.38.23-.1.14-.28.33-.36.2-.08.1-.34-.24-.45-.33-.12-.57-.51-.29-.77.27-.26.55-.43.33-.61-.22-.18-.55-.37-1.12-.69-.57-.32-.33-.83-.16-.95.18-.12-.14-.49-.59-.79-.45-.3-.26-.55.04-.67.29-.12.37-.61-.14-.73-.51-.12-1.53-.58-1.64-1-.11-.43.72-.63.09-1.12-.63-.49-1.06-.65-1.39-.86-.33-.21.3-.47.58-.45.28.02.84-.45-.39-.79-1.23-.33-1.02-.8-.35-.92.67-.11.35-.49-.02-.93Z" style="fill: #ffe100; fill-rule: evenodd; stroke-width: 0px;"/>
          <path d="m57.39,70.92v30.35c-3.37-.33-5.61-.08-5.61-.08v-26.63s2.32-1.86,5.61-3.64Z" style="fill: #231815; fill-rule: evenodd; stroke-width: 0px;"/>
          <path d="m71.08,76.12l20.96,17.16,8.32-6.3c-.02.83-.04,1.69-.05,2.59l-8.09,6.23-21.15-17.9v-1.78h0Zm1.92-1.72c.18,1.1.38,2.07,1.31,2.18.93.11,2.17-.42,2.71-.02.55.4-.04,2.06.45,3,.49.93,1.11.99,2.54.95,1.43-.05,1.63.11,2.04.84.41.73-.02,2.24.91,2.88s2.1.18,3.17.61c1.07.43.71,1.65.89,2.83.18,1.18.85,1.18,3.53,1.32,2.67.14,4.06.39,4.98.17.92-.22,1.09-1.11,1.25-2.27.15-1.16.35-1.81.94-1.94.59-.13,1.18.04,1.64.22.22.08.66.12,1.06.13.03-.61.06-1.19.09-1.75-.58-.04-1.71-.09-3.01.02-1.88.16-1.73,2.54-1.78,2.93-.05.39-.25.92-1.37,1.01-1.12.09-3.99.25-5.22.14-1.23-.11-.82-1.9-1.39-3.17-.56-1.27-2.43-1.04-3.31-1.09-.88-.04-1.04-.77-1.28-2.29-.25-1.52-1.58-1.75-2.21-1.77-.63-.02-1.71.36-2.05-.16-.33-.51-.39-1.56-.51-2.93-.12-1.37-2.25-.89-3.33-.91-1.08-.02-1.22-1.06-1.4-1.97-.18-.92-.78-1.41-1.51-1.39-.74.02-1.11,1.15-.66,1.31.46.16.64-.12,1.08.12.44.24.38.73.38.73l.05.28Z" style="fill: #ffe100; fill-rule: evenodd; stroke-width: 0px;"/>
          <path d="m77.99,88.41v22.52c-2.17-2.3-4.52-4.07-6.91-5.43v-23.16l6.91,6.07Z" style="fill: #e60012; fill-rule: evenodd; stroke-width: 0px;"/>
          <path d="m91.82,100.56v25.46l-1.02.78v-27.13l1.02.89h0Zm-11.68,12.88c-.35-.43-.71-.88-1.09-1.32-.05-.07-.11-.13-.17-.2v-22.73l1.25,1.1v23.14Z" style="fill: #f6ab00; fill-rule: evenodd; stroke: #fff100; stroke-miterlimit: 22.93; stroke-width: 0px;"/>
          <path d="m80.8,92.58l1.74,1.97,2.07,2.35-2.07,2.35-1.74,1.98v-1.76l.96-1.09,1.29-1.47-1.29-1.47-.96-1.1v-1.76h0Zm9.49,34.61l-.41.32c-1.87-2.26-3.39-4.84-5.27-7.77l4.74,6.35.79-.83.15,1.93h0Zm-9.49-14.85v-1.76l.93-1.06,1.29-1.47-1.29-1.47-.93-1.06v-1.76l1.7,1.94,2.07,2.35-2.07,2.35-1.7,1.94h0Zm0-3.28l.26-.3.63-.71-.63-.71-.26-.3v2.02h0Zm0-11.12l.3-.34.63-.71-.63-.71-.3-.34v2.1h0Zm5.93-1.85l.98.86,1.2,1.37,1.29,1.47.13-.15v1.76l-.13.15-2.07-2.35-2.07-2.35.67-.76h0Zm3.61,7.29v1.76l-1.24,1.41-1.29,1.47,1.29,1.47,1.24,1.41v1.76l-2.01-2.29-2.07-2.35,2.07-2.35,2.01-2.29h0Zm0,3.28l-.57.65-.63.71.63.71.57.65v-2.72h0Zm0,7.16l-.04-.05-2.07,2.35-2.07,2.35,2.07,2.35,2.07,2.35.04-.05v-1.76l-.04.05-1.3-1.47-1.29-1.47,1.29-1.47,1.3-1.47.04.04v-1.76h0Zm0,3.28l-.04-.05-.63.71-.63.71.63.71.63.71.04-.05v-2.76h0Zm-4.98-19.46l-2.07,2.35-2.07,2.35,2.07,2.35,2.07,2.35,2.07-2.35,2.07-2.35-2.07-2.35-2.07-2.35h0Zm0,1.76l-1.29,1.47-1.29,1.47,1.29,1.47,1.29,1.47,1.29-1.47,1.29-1.47-1.29-1.47-1.29-1.47h0Zm0,1.51l-.63.71-.63.71.63.71.63.71.63-.71.63-.71-.63-.71-.63-.71h0Zm0,7.54l-2.07,2.35-2.07,2.35,2.07,2.35,2.07,2.35,2.07-2.35,2.07-2.35-2.07-2.35-2.07-2.35h0Zm0,1.77l-1.29,1.47-1.29,1.47,1.29,1.47,1.29,1.47,1.29-1.47,1.29-1.47-1.29-1.47-1.29-1.47h0Zm0,1.51l-.63.71-.63.71.63.71.63.71.63-.71.63-.71-.63-.71-.63-.71h0Zm3.79,12.77l.6-.53-3.05-3.29,2.45,3.83Z" style="fill: #ffe100; fill-rule: evenodd; stroke-width: 0px;"/>
          <path d="m100.36,93.3c.17,6.6.94,14.77,2.96,23.89l-8.27,6.34-.75-25.61,6.05-4.63Z" style="fill: #e60012; fill-rule: evenodd; stroke-width: 0px;"/>
          <path d="m79.43,75.59c.58-.05,1.53-.2,2.57-.64l9.08,8.71s7.75-6.45,10.24-7.5c0,0-.2,1.07-.43,3.05h0l-9.28,7.16s-8.36-7.45-12.19-10.76h0Zm21.45,3.83c-.05.49-.11,1.03-.16,1.62h0c.05-.59.11-1.13.16-1.62Z" style="fill: #ffe100; fill-rule: evenodd; stroke-width: 0px;"/>
          <g>
            <path d="m110.5,75.71l-2.24-2.8-2.29-1.24-3.53,3.87c-.12.7-.22,1.39-.32,2.09l3.5,4.54,4.59-4.92c.09-.52.19-1.04.29-1.54h0Zm-1.1.72l-3.59,3.93-2.96-4.15,3.88-3.57,2.67,3.79h0Zm-2.08-.92c.4.34.37,1.04-.07,1.56-.44.52-1.13.67-1.53.34-.4-.34-.37-1.04.07-1.56.44-.52,1.13-.67,1.53-.34Z" style="fill: #fff; fill-rule: evenodd; stroke-width: 0px;"/>
            <path d="m109.38,85.27l-3.79-3.7-4.23,5.35-.03,1.69,4.6,4.56,3.37-4.85c0-1.03.03-2.04.08-3.04h0Zm-.43,1.65l-3.08,4.51-3.62-3.94,3.44-4.19,3.26,3.62h0Zm-2.32-.66c.44.29.5.99.12,1.56-.37.57-1.04.81-1.48.52-.44-.29-.5-.99-.12-1.56.37-.57,1.04-.81,1.48-.52Z" style="fill: #fff; fill-rule: evenodd; stroke-width: 0px;"/>
            <path d="m104.27,81.41l-2.23-3.15c-.08.59-.15,1.18-.21,1.77l.9,1.35-1.13.98c-.02.18-.03.37-.05.55l-.06,1.04,2.78-2.56Z" style="fill: #fff; fill-rule: evenodd; stroke-width: 0px;"/>
            <path d="m110.05,78.25l-3.07,3.31,2.44,2.98c.04-.65.08-1.3.13-1.93l-.97-1.3,1.23-1.27c.07-.6.16-1.2.24-1.79Z" style="fill: #fff; fill-rule: evenodd; stroke-width: 0px;"/>
            <path d="m109.54,95.52l-3.7-3.54-4.26,5.53c.03.41.06.81.08,1.21l4.74,4.6,3.38-5c-.09-.94-.17-1.87-.23-2.8h0Zm-.3,1.69l-2.93,4.41-3.62-3.85,3.29-4.1,3.26,3.54h0Zm-2.28-.65c.43.28.5.97.15,1.52-.35.56-1,.79-1.43.51-.44-.28-.51-.96-.15-1.52.35-.56,1-.79,1.43-.51Z" style="fill: #fff; fill-rule: evenodd; stroke-width: 0px;"/>
            <path d="m109.3,89.38l-2.12,2.96,2.29,2.18c-.04-.66-.07-1.31-.1-1.96l-.63-.66.59-.79c-.01-.58-.02-1.15-.03-1.72Z" style="fill: #fff; fill-rule: evenodd; stroke-width: 0px;"/>
            <path d="m104.51,92.7l-3.19-3.57-.02,1.46c0,.09,0,.18,0,.27l1.67,1.99-1.57,1.7c.02.55.05,1.09.08,1.63l3.02-3.48Z" style="fill: #fff; fill-rule: evenodd; stroke-width: 0px;"/>
            <path d="m104.97,103.27l-3.19-2.92c.05.59.11,1.17.17,1.76l1.5,1.46-1.16,1.54c.07.55.14,1.09.21,1.64l2.46-3.49Z" style="fill: #fff; fill-rule: evenodd; stroke-width: 0px;"/>
            <path d="m109.85,99.1l-2.07,3.6,2.83,2.19c-.1-.64-.19-1.27-.28-1.91l-1.04-.88.76-1.26c-.07-.58-.13-1.16-.2-1.74Z" style="fill: #fff; fill-rule: evenodd; stroke-width: 0px;"/>
            <path d="m110.72,105.62l-4.7-3.51-3.36,5.69c.08.56.17,1.12.25,1.68l5.05,3.83,3.05-5.99c-.1-.57-.2-1.13-.29-1.7h0Zm-.69,1.27l-2.37,4.74-4.06-3.38,2.76-4.48,3.67,3.12h0Zm-2.35-.36c.47.23.62.9.34,1.5-.28.6-.89.9-1.36.68-.47-.22-.62-.9-.34-1.5.28-.6.89-.9,1.36-.68Z" style="fill: #fff; fill-rule: evenodd; stroke-width: 0px;"/>
            <path d="m112.78,115.53l-5.62-3.05-2.44,6.42c.01.07.03.15.05.22.12.45.23.91.35,1.36l5.42,3.04,2.54-6.82c-.1-.39-.2-.78-.3-1.17h0Zm-.84.93l-1.99,5.35-4.13-2.41,2.04-5.23,4.08,2.28h0Zm-2.5.14c.48.15.74.83.56,1.5-.17.67-.71,1.1-1.2.95-.48-.15-.74-.83-.57-1.5.18-.67.71-1.1,1.2-.95Z" style="fill: #fff; fill-rule: evenodd; stroke-width: 0px;"/>
            <path d="m106.49,113.37l-3.3-2.22c.09.54.19,1.08.29,1.62l1.56,1.12-.99,1.84c.12.59.24,1.18.37,1.77l2.08-4.14Z" style="fill: #fff; fill-rule: evenodd; stroke-width: 0px;"/>
            <path d="m111.16,108.13l-1.97,4.4,3.36,2.1c-.15-.6-.29-1.21-.43-1.82l-1.5-1.03.88-1.87c-.12-.59-.24-1.19-.35-1.79Z" style="fill: #fff; fill-rule: evenodd; stroke-width: 0px;"/>
            <path d="m115.87,125.68l-5.54-2.61-2.28,7.17c.08.23.16.46.24.69l6.04,2.94,2.09-6.72c-.18-.49-.36-.98-.54-1.47h0Zm-.54,1.09l-1.68,5.45-4.25-2.17,1.74-5.33,4.2,2.04h0Zm-2.49.28c.49.12.78.78.65,1.46-.14.68-.65,1.14-1.14,1.01-.49-.12-.79-.78-.65-1.46.14-.68.65-1.13,1.14-1.01Z" style="fill: #fff; fill-rule: evenodd; stroke-width: 0px;"/>
            <path d="m109.3,123.52l-3.87-1.88c.14.51.28,1.02.43,1.53l2.02,1.01-.89,2.77c.19.62.4,1.25.6,1.87l1.71-5.31Z" style="fill: #fff; fill-rule: evenodd; stroke-width: 0px;"/>
            <path d="m113.44,118.05l-1.52,4.41,3.43,1.75c-.2-.59-.4-1.19-.6-1.79l-1.47-.83.66-1.8c-.17-.58-.34-1.16-.5-1.74Z" style="fill: #fff; fill-rule: evenodd; stroke-width: 0px;"/>
            <path d="m116.75,128.03l-1.1,4.67,3.61,1.4c-.25-.56-.49-1.12-.74-1.7l-1.6-.7.5-1.95c-.22-.56-.45-1.13-.67-1.71Z" style="fill: #fff; fill-rule: evenodd; stroke-width: 0px;"/>
            <path d="m113.04,134.17l-4.27-1.85c.18.51.37,1.03.56,1.54l2.32,1.04-.79,2.9c.23.58.47,1.16.71,1.73l1.48-5.35Z" style="fill: #fff; fill-rule: evenodd; stroke-width: 0px;"/>
            <path d="m119.86,135.46l-5.78-2.15-1.78,7.85,6.67,2.58,1.52-6.91c-.21-.45-.42-.91-.63-1.38h0Zm-.49,1.12l-1.22,5.57-4.42-1.8,1.28-5.45,4.36,1.68h0Zm-2.46.49c.5.08.85.71.77,1.4-.08.69-.55,1.19-1.05,1.1-.5-.08-.85-.71-.77-1.4.08-.69.55-1.19,1.05-1.1Z" style="fill: #fff; fill-rule: evenodd; stroke-width: 0px;"/>
            <path d="m124.57,144.92l-5.92-1.71-1.53,7.28,7.06,2.13,1.25-6.16c-.25-.44-.53-.95-.86-1.54h0Zm-.27,1.1l-1.04,5.17-4.68-1.49,1.11-5.06,4.61,1.39h0Zm-2.54.54c.53.06.91.62.86,1.26-.05.64-.53,1.11-1.05,1.05-.52-.06-.91-.62-.86-1.26.05-.64.53-1.11,1.05-1.05Z" style="fill: #fff; fill-rule: evenodd; stroke-width: 0px;"/>
            <path d="m117.63,143.97l-4.84-1.62c.22.49.45.98.67,1.47l2.84.99-.64,3.48c.28.55.57,1.09.86,1.64l1.11-5.96Z" style="fill: #fff; fill-rule: evenodd; stroke-width: 0px;"/>
            <path d="m120.87,137.63l-.76,4.91,3.81,1.15c-.27-.51-.55-1.05-.85-1.63l-1.77-.62.38-2.15c-.26-.54-.53-1.09-.8-1.66Z" style="fill: #fff; fill-rule: evenodd; stroke-width: 0px;"/>
            <path d="m125.94,147.35l-.5,3.93.95.26v-3.42s-.16-.27-.45-.77Z" style="fill: #fff; fill-rule: evenodd; stroke-width: 0px;"/>
            <polygon points="126.39 152.39 124.21 152.12 123.82 159.55 126.39 159.91 126.39 158.73 125.14 158.53 125.46 153.36 126.39 153.49 126.39 152.39" style="fill: #fff; fill-rule: evenodd; stroke-width: 0px;"/>
            <path d="m123.63,152.94l-6.43-1.78c.27.48.54.96.81,1.43l4.34,1.26-.51,3.93c.33.37.67.72,1.02,1.06l.77-5.9Z" style="fill: #fff; fill-rule: evenodd; stroke-width: 0px;"/>
          </g>
          <path d="m112.53,75.44c2.44,1.31,6.63,3.61,9.09,5.27,0,0-2.41,6.01.83,11.23l-9.72,4.51,2.47-4.14.14-.23-.19-.19-2.12-2.17,2.11-3.06.16-.23-2.87-3.22,2.22-2.55.15-.17-.09-.2-2.18-4.84h0Zm-.92,21.53l2.86-4.79-2.13-2.18-.2-.21.16-.24,2.11-3.07-2.71-3.04-.21-.23.2-.23,2.28-2.62-2.36-5.23v.02s-.26,1.23-.26,1.23l-.38,2.26,1.28,1.05-1.57,1.27-.07.61-.21,2.73c-.01.23-.02.47-.03.7l1.47,1.06-1.54,1.23c0,.41-.02.82-.02,1.24,0,1.11.02,2.21.05,3.31l1.17.52-1.09,1.4c.07,1.18.15,2.36.24,3.54,0,.03,0,.06,0,.09l.94-.44Z" style="fill: #ffe100; fill-rule: evenodd; stroke-width: 0px;"/>
          <path d="m115.26,76.93c1.52.84,3.19,1.79,4.63,2.68-2.25,5.51-.28,11.44.47,13.31l-5.01,2.32,1.67-4-1.75-2.04,1.89-2.84-2.07-3.72,1.49-2.01-1.32-3.7Z" style="fill: #231815; fill-rule: evenodd; stroke-width: 0px;"/>
          <path d="m125.8,145.1v-31.28c-5.03-5.56-8.63-18.48-8.63-18.48l-6.41,2.97c.12,1.16.25,2.32.39,3.48.2,1.49.43,2.98.67,4.47.26,1.48.54,2.96.84,4.43.32,1.45.65,2.9,1,4.35.37,1.42.75,2.82,1.15,4.23.41,1.37.84,2.72,1.29,4.08.6,1.75,1.24,3.47,1.9,5.2.8,2,1.63,3.98,2.5,5.95,1.41,3.1,2.9,6.14,4.5,9.15.26.49.53.97.8,1.46Z" style="fill: #e60012; fill-rule: evenodd; stroke-width: 0px;"/>
          <path d="m112.26,101.35l4.71-1.68s2.61,12.01,7.42,18.63v19.28s-10.95-19.16-12.14-36.23Z" style="fill: #231815; fill-rule: evenodd; stroke-width: 0px;"/>
          <path d="m119.49,94c1.96,6.53,4.41,12.32,6.95,16.49v-18.11h-4.09c-.96.54-1.91,1.08-2.86,1.63h0Zm6.58-7.91l.37.33v5.53h-3.19s-1.84-2.42-1.84-5.77.7-5.28.7-5.28c0,0,2.21-1.64,3.68-2.33h3.31s-.53,1.64,1.02,2.33c0,0-1.39,1.15-2.5,1.15s-1.39.82-1.76,1.55c-.37.74-.29,2.09.21,2.5h0Zm3.48-7.24c0,.34.49,1.5,1.02,1.47.24-.01.22-.73.09-.95-.27-.46-1.11-.52-1.11-.52Z" style="fill: #fff; fill-rule: evenodd; stroke-width: 0px;"/>
          <polygon points="133.98 46.38 127.1 46.38 133.98 38.91 133.98 35.63 122.22 48.72 133.98 48.72 133.98 46.38" style="fill: #ffe100; fill-rule: evenodd; stroke-width: 0px;"/>
          <polygon points="133.98 39.74 128.38 45.81 133.98 45.81 133.98 39.74" style="fill: #e60012; fill-rule: evenodd; stroke-width: 0px;"/>
          <g>
            <path d="m78.66,126.33c.83,1.32,2.76,4.4,4.36,6.71,5.63,8.16,16.26,12.98,21.99,13.32,5.73.33,8.65-.33,8.65-.33l-4.18-8.57c-12.94-.4-20.34-8.55-24.55-15.17-.83-1.32-2.76-4.4-4.36-6.71-5.63-8.16-16.26-12.98-21.99-13.32-5.73-.33-8.65.33-8.65.33l4.18,8.57c12.94.4,20.34,8.55,24.56,15.17Z" style="fill: #ffe100; fill-rule: evenodd; stroke-width: 0px;"/>
            <path d="m50.29,103.34l4.47-.03.25,5.93-1.86-.03-.72-1.48c.09.02.19.06.31.12.34.18.4.45.59.19.19-.26-.08-.87.18-1.03.26-.16.61-.13.85-.27.24-.15.08-.34-.29-.66-.37-.32-.32-.52-.19-.87.13-.35.19-.48.03-.53-.16-.05-.38,0-.75-.16s-.11-.47-.45-.47-.35.13-.79.11c-.43-.02-.24-.16-.56-.39-.32-.23-.31.1-.31.26,0,.09-.12.27-.23.41l-.54-1.1h0Zm59.75,35.22l.32.68s-.04.03-.06.04c-.41.19-.27.71-.27.71,0,0-.46.05-.9.05s-.35.27-.3.73c.05.46-.03.35-.24.52-.22.16-.08.38.19.6.27.22.05,1.2.24,1.25.19.05.46.05.82.05s.11.65.35.65.54-.71.54-.71l1.54.04.77,1.59-5.14-.73.05-5.66,1.77.08c.1,0,.21.04.31.1h0Zm-53.65-29.17l.42-5.87s5.37.56,6.27,1.5l-1.28,5.66-5.41-1.29h0Zm2.38-4.69c-.08,0-.18.06-.22.55-.05.48-.29.64-.4.77-.11.13-.34.18-.34.4s.1.29.24.55c.15.26-.03.32.03.64.06.32.14.32.59.65.45.32.24.77.53.76.29-.02.4-.23.77-.23s.48.26.62.26.19-.18.19-.48.16-.48.37-.48.61-.11.66-.26c.05-.14-.02-.42-.23-.64-.21-.23-.35-.76-.11-.95.24-.19.26-.35.06-.35s-.4,0-.61-.24c-.21-.24-.32-.69-.56-.69s-.3.19-.62.19-.85-.45-.85-.45l-.13.02h0Zm4.64,6.38l2.09-5.43s4.66,2.02,5.58,3.03l-2.8,5.04s-4.34-2.31-4.87-2.64h0Zm3.21-3.58c-.28.22-.12.44-.31.73-.19.3-.67.23-.82.41-.15.17.08.31.22.47.14.16.05.62-.05.81-.09.19-.03.28.2.42.23.14.23.37.23.65s.17.52.39.52.2-.24.57-.24.48.61.68.64c.2.03.27-.88.45-.91.18-.03.71,0,.83-.24.12-.24-.26-.71-.26-1.07s.47-.36.47-.62-.47-.36-.68-.42c-.21-.06-.32-.77-.32-.77,0,0-.29.12-.59.12s-.91-.56-.91-.56l-.09.06h0Zm6.77,2.91l-3.33,4.17,3.73,3.48,3.76-3.79-4.17-3.86h0Zm-.4,1.74l.12-.28s.37.93,1.59.65c0,0-.06,1.09.81.96,0,0,.22.34-.06.5-.28.16-.19.62-.19.84s.22.59-.03.75c-.25.15-.47.09-.71.22-.25.12-.22.75-.43.78-.22.03-.28-.19-.28-.43s-.47-.28-.78-.22c-.31.06-.53.34-.56.06-.03-.28.19-.9-.25-1.06-.43-.16-.37-.28-.22-.5.16-.22.31-.84-.03-.9-.34-.06-.28-.12.16-.41.43-.28.71-.47.87-.96h0Zm5.29,12.12l-3.19-4.24,4.21-3.87s3.35,3.42,3.71,4.85l-4.74,3.27h0Zm-.97-4.58l-.26-.29s.39-.05.71-.26c.32-.21.21-.84.47-1.05.26-.21.4-.05.48.18.08.24.39.5.82.34.42-.16.47.08.47.24s.16.71.37.71.61.08.53.21c-.08.13-.32.29-.32.84s.26.87.26.87c0,0-.61.18-.87.21-.26.03-.42.55-.5.79-.08.24-.11.34-.21,0-.1-.34-.34-.34-.92-.29-.58.05-.58-.16-.58-.45s-.03-.63-.45-.74c-.42-.11,0-.16.03-.53.03-.37.18-.58-.03-.79h0Zm7.75,14.25l3.49-4.51s4.16,3.45,4.55,4.04l-4.12,4.08s-3.02-2.79-3.92-3.61h0Zm-5.77-7.68c1.15.99,4.59,5.56,4.59,5.56l3.19-3.79c-.12-1.32-3.48-5.48-3.48-5.48l-4.3,3.7h0Zm3.2-1.22c-.17.19-.17.67-.17.87s-.57.3-.71.54c-.14.24.13.4.27.63.14.23.01.4-.07.58-.08.19-.21.31-.01.42.2.1.36.29.6.46.24.17.17.61.36.61s.43-.13.73-.13.42.43.62.4c.2-.03.11-.6.16-.83.04-.23.27-.17.55-.19.28-.01.47-.13.54-.27.07-.14-.34-.6-.41-.98-.07-.39.13-.66.13-.66,0,0-.09-.29-.33-.29s-.33-.21-.44-.47c-.11-.26-.24-.47-.24-.47,0,0,0,.21-.44.27-.44.06-1-.6-1-.6l-.12.1h0Zm5.46,6.34c-.1.04-.12.03-.16.34-.04.32-.14.91-.41.94s-.61.26-.58.4c.04.13.48.51.51.67.04.16-.28.35-.31.55-.04.2.52.38.81.53.29.16.17.75.33.8.17.06.51-.26.79-.26s.32.37.55.41c.24.04.25-.3.29-.47.04-.17.2-.54.4-.6.2-.06.51-.05.56-.21.05-.16-.14-.15-.23-.42-.09-.27-.22-.8-.1-1.08.11-.28.34-.39-.06-.39s-.58-.03-.6-.28c-.02-.25-.2-.54-.28-.54s-.33.18-.7.16c-.37-.02-.69-.54-.69-.54h-.13Zm5.59,3.46c-.35.74-1.82,4.7-1.82,4.7l4.66,2.62,2.75-4.98c-.48-1.02-5.46-2.84-5.46-2.84l-.13.51h0Zm.8,1.3l.07-.28s.8.54,1.18.42c.38-.13.7-.13.73.19.03.32.36.56.7.56s.23.2.11.36c-.12.16-.29.05-.23.32.06.28.64,1.17.49,1.32-.16.16-.34.17-.66.26-.32.1-.47.02-.47.38s-.11.67-.24.67-.17-.28-.4-.36c-.23-.09-.61-.06-.81.03-.2.1-.18-.01-.37-.37-.19-.36-.25-.44-.53-.56-.27-.12-.37-.23-.26-.59.11-.36.13-.5-.02-.7-.16-.19-.39-.31-.08-.48.31-.17.59-.32.59-.58s.18-.37.2-.61h0Zm5.78,7.25v-5.69s4.86-.03,6.15.99l-.88,5.55-5.27-.85h0Zm1.22-3.58c-.02.4-.05.68-.17.81-.12.13-.25.24-.11.29.14.05.24.62.24,1.03s.4.44.56.46c.16.02.68.09.68.34s.1.4.3.31c.21-.09.15-.56.43-.56s.78-.01.91-.07c.14-.05.13-.32.13-.57s-.02-.83.13-.84c.15-.01.34-.14.38-.33.03-.2-.44-.27-.49-.52-.04-.25.01-.82-.27-.82s-.71-.1-.86-.32c-.15-.22-.17-.58-.41-.58s-.3.53-.46.7c-.15.16-.92.16-.92.16l-.07.5Z" style="fill: #231815; fill-rule: evenodd; stroke-width: 0px;"/>
          </g>
          <path d="m91.3,129.08c1.37,1.38,2.97,2.62,5,3.72l9.36-6.62c-.65-2.15-1.21-4.27-1.72-6.34l-12.63,9.24Z" style="fill: #231815; fill-rule: evenodd; stroke-width: 0px;"/>
          <path d="m103.56,118.27l-13.16,9.85c.29.33.59.65.9.96l12.63-9.24c-.13-.53-.25-1.05-.37-1.57h0Zm-7.26,14.53l9.36-6.62c.15.52.31,1.04.48,1.56l-8.37,5.79c-.51-.24-1-.48-1.46-.73Z" style="fill: #ffe100; fill-rule: evenodd; stroke-width: 0px;"/>
        </g>
        <g>
          <path d="m96.81,149.08l-.3-.33v-1.22c.35.08.75-.03,1.02-.34l1.13-1.29s.04-.04.05-.07c.27.09.54.17.8.25l-2.7,3.01h0Zm-.32-4.05v1.36c.39.1.81,0,1.1-.3.15-.15.25-.34.3-.54-.46-.16-.93-.33-1.4-.52h0Zm.32,14.6l-.24-.27v-1.28c.33.06.71-.06.96-.35l1.13-1.3c.38-.44.35-1.09-.06-1.46l-1.88-1.68c-.06-.05-.12-.1-.19-.13v-1.48s3.73,4.09,3.73,4.09l-3.46,3.85h0Zm-.27-4.9v2.22c.38.08.77-.03,1.05-.31.44-.44.44-1.17,0-1.61-.28-.29-.68-.39-1.05-.31h0Zm.32,15.4l-.24-.26v-1.28c.34.06.71-.06.96-.35l1.13-1.29c.38-.44.35-1.1-.06-1.46l-1.88-1.68c-.06-.05-.12-.09-.18-.13v-1.48s3.73,4.09,3.73,4.09l-3.46,3.85h0Zm-.26-4.9v2.23c.37.07.76-.03,1.04-.31.44-.44.44-1.17,0-1.61-.28-.28-.68-.38-1.04-.31h0Zm.22,15.27l-.14-.15v-1.38c.31.02.63-.1.86-.37l1.13-1.3c.38-.44.35-1.09-.06-1.46l-1.88-1.67s-.05-.04-.08-.07v-1.43s3.63,3.98,3.63,3.98l-3.46,3.85h0Zm-.16-4.92v2.26c.34.04.69-.07.94-.32.44-.44.44-1.17,0-1.61-.26-.26-.61-.37-.94-.32h0Zm9.53-27.11l-1.14-1.25c.39.05.77.09,1.14.13v1.12h0Zm0,10.42l-3.01-3.29,3.01-3.35v1.17c-.1.06-.19.13-.27.22l-1.13,1.3c-.38.44-.35,1.1.06,1.46l1.34,1.19v1.29h0Zm0-2.32v-2.07c-.12.05-.23.13-.33.23-.44.44-.44,1.16,0,1.61.1.1.21.17.33.23h0Zm0,12.76l-2.96-3.24,2.96-3.3v1.14c-.08.05-.15.12-.22.19l-1.13,1.3c-.38.44-.35,1.09.06,1.46l1.29,1.15v1.28h0Zm0-2.29v-2.02c-.1.05-.2.12-.28.21-.44.44-.44,1.17,0,1.61.08.09.18.15.28.21h0Zm0,7.45c-.08.05-.15.12-.22.19l-1.13,1.3c-.38.44-.35,1.1.06,1.46l.66.59c-.24.12-.48.24-.72.36l-1.61-1.76,2.96-3.3v1.14h0Zm0,3.1v-2.02c-.1.05-.2.12-.28.21-.44.44-.44,1.17,0,1.61.08.08.18.15.28.21h0Zm-3.05,1.58c.07-.03.13-.05.2-.08l.71-.57-1.6-2,3.74-4.74v-1.04l-3.76-4.58,3.76-4.57v-1.54l-3.72-4.64,3.72-4.68v-1.09l-2.29-2.59c-.57-.09-1.17-.2-1.78-.33l3.06,3.48-3.43,4.32-3.45-4.31,3.04-3.66c-.39-.09-.8-.19-1.2-.3l-2.99,3.6-.29.35.29.36,3.9,4.86-4.08,5.13-.28.35.29.35,4.02,4.9-3.9,4.75-.29.35.28.35,3.93,4.91-1.56,1.97.88.7,1.4-1.77,1.41,1.75h0Zm-1.43-13.89l3.66-4.46-3.62-4.51-3.64,4.58,3.59,4.38h0Zm.01,10.34l3.44-4.36-3.46-4.22-3.47,4.22,3.49,4.35h0Zm.09-2.99c-.57,0-1.04-.51-1.04-1.12s.47-1.12,1.04-1.12,1.04.5,1.04,1.12-.47,1.12-1.04,1.12h0Zm0-10.62c-.57,0-1.04-.5-1.04-1.12s.47-1.12,1.04-1.12,1.04.5,1.04,1.12-.47,1.12-1.04,1.12h0Zm0-10.62c-.57,0-1.04-.51-1.04-1.12s.47-1.12,1.04-1.12,1.04.51,1.04,1.12-.47,1.12-1.04,1.12Z" style="fill: #fff; fill-rule: evenodd; stroke-width: 0px;"/>
          <polygon points="35.16 198.96 29.59 198.96 29.59 66.14 35.16 72.17 35.16 198.96" style="fill: #231815; fill-rule: evenodd; stroke-width: 0px;"/>
          <path d="m32.27,173.14c-.49,0-.88-.48-.88-1.08s.4-1.08.88-1.08.88.48.88,1.08-.4,1.08-.88,1.08h0Zm-2.68,17.61v-2.25l4.71-4.54v2.29l-4.71,4.5h0Zm0-3.61l4.71-4.54v-2.35l-4.71,4.58v2.31h0Zm0-16.68v-2.25l4.71-4.54v2.29l-4.71,4.5h0Zm0-3.61l4.71-4.54v-2.35l-4.71,4.58v2.3h0Zm0-16.68v-2.25l4.71-4.54v2.29l-4.71,4.5h0Zm0-3.61l4.71-4.54v-2.35l-4.71,4.58v2.31h0Zm0-16.68v-2.25l4.71-4.54v2.29l-4.71,4.5h0Zm0-3.61l4.71-4.54v-2.35l-4.71,4.59v2.3h0Zm0-16.68v-2.26l4.71-4.54v2.29l-4.71,4.5h0Zm0-3.61l4.71-4.54v-2.35l-4.71,4.58v2.31h0Zm0-16.68v-2.25l4.71-4.54v2.3l-4.71,4.5h0Zm0-3.61l4.71-4.54v-2.35l-4.71,4.59v2.3h0Zm2.68,92.68c-.49,0-.88-.48-.88-1.08s.4-1.08.88-1.08.88.49.88,1.08-.4,1.08-.88,1.08h0Zm1.27-2.68c-.49,0-.88-.48-.88-1.08s.39-1.08.88-1.08.88.48.88,1.08-.4,1.08-.88,1.08h0Zm-2.68,0c-.49,0-.88-.48-.88-1.08s.4-1.08.88-1.08.88.48.88,1.08-.4,1.08-.88,1.08h0Zm1.4-22.83c-.49,0-.88-.48-.88-1.08s.4-1.08.88-1.08.88.48.88,1.08-.4,1.08-.88,1.08h0Zm0,5.22c-.49,0-.88-.48-.88-1.08s.4-1.08.88-1.08.88.48.88,1.08-.4,1.08-.88,1.08h0Zm1.27-2.68c-.49,0-.88-.48-.88-1.08s.39-1.08.88-1.08.88.48.88,1.08-.4,1.08-.88,1.08h0Zm-2.68,0c-.49,0-.88-.48-.88-1.08s.4-1.08.88-1.08.88.48.88,1.08-.4,1.08-.88,1.08h0Zm1.4-43.13c-.49,0-.88-.48-.88-1.08s.4-1.08.88-1.08.88.48.88,1.08-.4,1.08-.88,1.08h0Zm0,5.22c-.49,0-.88-.48-.88-1.08s.4-1.08.88-1.08.88.48.88,1.08-.4,1.08-.88,1.08h0Zm1.27-2.68c-.49,0-.88-.48-.88-1.08s.39-1.08.88-1.08.88.48.88,1.08-.4,1.08-.88,1.08h0Zm-2.68,0c-.49,0-.88-.48-.88-1.08s.4-1.08.88-1.08.88.48.88,1.08-.4,1.08-.88,1.08h0Zm1.4-43.12c-.49,0-.88-.49-.88-1.08s.4-1.08.88-1.08.88.48.88,1.08-.4,1.08-.88,1.08h0Zm0,5.22c-.49,0-.88-.49-.88-1.08s.4-1.08.88-1.08.88.49.88,1.08-.4,1.08-.88,1.08h0Zm1.27-2.68c-.49,0-.88-.48-.88-1.08s.39-1.08.88-1.08.88.49.88,1.08-.4,1.08-.88,1.08h0Zm-2.68,0c-.49,0-.88-.48-.88-1.08s.4-1.08.88-1.08.88.49.88,1.08-.4,1.08-.88,1.08h0Zm1.4,17.75c-.49,0-.88-.48-.88-1.08s.4-1.08.88-1.08.88.48.88,1.08-.4,1.08-.88,1.08h0Zm0,5.22c-.49,0-.88-.49-.88-1.08s.4-1.08.88-1.08.88.48.88,1.08-.4,1.08-.88,1.08h0Zm1.27-2.68c-.49,0-.88-.48-.88-1.08s.39-1.08.88-1.08.88.48.88,1.08-.4,1.08-.88,1.08h0Zm-2.68,0c-.49,0-.88-.48-.88-1.08s.4-1.08.88-1.08.88.48.88,1.08-.4,1.08-.88,1.08h0Zm1.4,98.92c-.49,0-.88-.48-.88-1.08s.4-1.08.88-1.08.88.48.88,1.08-.4,1.08-.88,1.08h0Zm0,5.22c-.49,0-.88-.49-.88-1.08s.4-1.08.88-1.08.88.48.88,1.08-.4,1.08-.88,1.08h0Zm1.27-2.68c-.49,0-.88-.48-.88-1.08s.39-1.08.88-1.08.88.49.88,1.08-.4,1.08-.88,1.08h0Zm-2.68,0c-.49,0-.88-.48-.88-1.08s.4-1.08.88-1.08.88.49.88,1.08-.4,1.08-.88,1.08h0Zm1.4-63.42c-.49,0-.88-.48-.88-1.08s.4-1.08.88-1.08.88.48.88,1.08-.4,1.08-.88,1.08h0Zm0,5.22c-.49,0-.88-.48-.88-1.08s.4-1.08.88-1.08.88.48.88,1.08-.4,1.08-.88,1.08h0Zm1.27-2.68c-.49,0-.88-.48-.88-1.08s.39-1.08.88-1.08.88.48.88,1.08-.4,1.08-.88,1.08h0Zm-2.68,0c-.49,0-.88-.48-.88-1.08s.4-1.08.88-1.08.88.48.88,1.08-.4,1.08-.88,1.08Z" style="fill: #ffe100; fill-rule: evenodd; stroke-width: 0px;"/>
          <polygon points="36.56 198.96 35.16 198.96 35.16 72.17 29.59 66.14 29.59 64.06 36.56 71.62 36.56 198.96" style="fill: #ffe100; fill-rule: evenodd; stroke-width: 0px;"/>
          <path d="m36.95,165.13l1.17,5.57s-2.03,0-3.3.02c-1.27.02-2.69-.61-2.71-1.58-.02-.97.8-1.97,1.79-2.6.99-.63,1.62-.59,2.08-.59s.83-.33.96-.82Z" style="fill: #004ea2; fill-rule: evenodd; stroke-width: 0px;"/>
          <path d="m52.94,209.4l-4.61,9.87s-1.5-1.65-2.34-3.03c-.84-1.38-1.34-3.15-1.61-4.72-.27-1.58-1.5-4.99-2.3-6.26-.81-1.27-1.04-1.69-1.04-2.11s1.88-.46,3.11-.34c1.23.12,2.96.54,4.65,2.19,1.69,1.65,3.8,3.72,4.15,4.41Z" style="fill: #004ea2; fill-rule: evenodd; stroke-width: 0px;"/>
          <path d="m96.49,145.03l.19,35.49s-9.91-5.42-10.7-5.95c-.79-.53-14.02-12.31-14.02-12.31l-9.28,7.16c.33-2.91.71-7.79.54-14.11l6.06-4.63-.74-25.61,5.17-3.97c3.11,3.76,5.25,8.43,9.71,14.03v23.16l9.09,7.98v-23.16c1.33.76,2.67,1.39,3.99,1.91Z" style="fill: #231815; fill-rule: evenodd; stroke-width: 0px;"/>
          <path d="m99.7,221.84l-7.51-15.17s-16.01,3.66-36.81-.07l-7.45,15.25h51.77Z" style="fill: #e60012; fill-rule: evenodd; stroke-width: 0px;"/>
          <path d="m95.9,221.84l-5.4-10.44-6.92.79,3.09,9.65h-1.77l-3.23-10.11-.31-.97,1.02-.12,8.51-.98.58-.07.27.52,6.06,11.73h-1.89Zm-13.51,0l-2.26-9.87-.15-.66h-.67s-12.74.15-12.74.15h-.77s-.07.77-.07.77l-.84,9.61h1.69l.76-8.7,11.3-.13,2.02,8.83h1.72Zm-20.3,0h-1.69l1.22-9.72-4.82-.63-3.42,10.35h-1.77l3.82-11.53.22-.66.69.09,6.34.83.83.11-.1.82-1.29,10.34Z" style="fill: #231815; stroke-width: 0px;"/>
          <path d="m68.02,178.56s-1.5-1.1-2.55-1.18c-1.05-.08-1.9.27-2.25.58-.35.3-.57-.15-.47-.43.1-.28.92-.45,1.12-.5.2-.05-.92-.88-.77-1.13.15-.25,2.5-.23,3.07-.03.58.2-.02.5-.3.5s-.2.35.42.4c.79.06,1.93.93,1.72,1.78h0Zm4.85,17.8l-.24-.05s-.47-.03-.61-.47c-.13-.45-.05-.53.16-.58.21-.05.66.34.84.63.18.29.16.5-.16.47h0Zm-4.77-1.1c.05.2-.11.66-.43.64-.32-.02-.42-.34-.37-.52.08-.33.72-.5.8-.12h0Zm3.14.89c-.36-.1-.67-.91-1.13-.97-.37-.05-.82.66-1.18.87-.37.21-.42-.16-.21-.5.21-.34.84-.84,1.29-.87.45-.03.76.32,1.16.82.39.5.32.66.08.66h0Zm-2.34-13.78s.99-2.29,1.45-2.82c.46-.53-.14-.68-.63-.43-.5.26-1.35.63-2.03.77-.68.14-1.49-.67-2.15-.8-.67-.14-1.56.38-2.05.73-.5.36-1.69.41-2.7-.94l-.04,3.03s.51-.6.92-.6.62.22,1.08.34c.46.12.84-.39,1.27-.44.43-.05.7-.05.97.17.27.22,1.01.44,1.83.14.82-.31,1.01-.44,1.4-.29.42.15.55.76.69,1.15h0Zm-2.41,7.25c.39.36,1.07-.43,1.54-1.16.47-.73.87-1.6.45-2.79-.42-1.19-2.13-1.43-3.12-1.06-.99.37-2.08,1.19-2.08,1.79s.57.62,1.05.52c.48-.09,1.12-.52,1.74-.99.62-.46,1.31.08,1.54.6.54,1.22-1.74,2.52-1.13,3.08h0Zm-11.25,15.56c6.47,1.15,12.82,1.51,18.43,1.48.17-.9.49-2.83.93-6.14-.6.3-2.43,1.18-4.26,1.72-2.23.66-5.84-.5-5.46-2.39,0,0,.38-.19,1.29.28,2.35,1.22,5.92.24,8.65-1.29.03-.21.05-.43.08-.65-.63.42-2.17,1.35-3.98,1.65-2.37.4-5.22-.58-5.62-2.59,0,0-.12-.55.52-.85,0,0-.24-.64-.15-1.19.09-.55,1.46-1.86,3.67-2.96,2.22-1.1,3.4-.82,3.58-.4.18.43-.49.79-1.31.82-.82.03-1.94.46-2.34.85,0,0,.12.12.91.09.79-.03,1.97.27,2.43.67.46.4,1,.85,1.4,1.01.25.09.82.12,1.22.12.08-.67.16-1.37.24-2.11.97-8.87,1.23-13.47,2.55-16.12-1.21-.91-7.16-5.22-11.37-5.19-4.7.04-6.99,3.24-8.01,6.34-.71,2.16-2.08,8.23-2.84,16.21h0c.43-.25,1.25-.65,2.03-.72,1.15-.1,2.86.38,2.86.38,0,0-2.29-2.1-2.29-2.49s.21-.6.53-.45c.32.16,1.8,1.46,2.26,1.81.46.34.86.45.63-.26-.22-.71-1.49-5-1.49-6.16,0-1.64,1.69-2.77,3.89-4.03,0,0-2.77,3.63-2.81,4.12-.04.49.61,3.22,1.3,6.1.7,2.88.77,5.17-1.16,7.38-1.87,2.14-4.48,2.34-6.23,1.48h0c-.04,1.13-.07,2.29-.07,3.46h0Zm19.85-8.59c-.03.29-.07.58-.1.85-1.89,1.43-6.14,2.82-8.48.11,0,0,.66.24,2.05.57,1.37.32,4.17.66,6.53-1.53h0Zm-19.69,3.29c.02-.4.04-.81.07-1.21h0c2.36,1.93,5.82.01,5.82.01-.92,1.6-2.14,2.38-3.51,2.26-.98-.09-1.93-.72-2.38-1.07h0Zm.36-4.95h1.16s-1,.79-1.28,1.44c.04-.49.08-.97.12-1.44h0Zm-.19,2.32c0-.08.01-.15.02-.23h.5s.26.48,1.39.71c1.14.23,2.2.04,3.82-.65l.57-.07s-.59,1.53-2.53,1.73c-1.82.19-3.41-.39-3.78-1.49h0Zm6.43-1.51l-1.07.42-.85-1.38,1.92.96h0Zm-2.05.56h-.66s-.17-1.17-.9-1.12c-.73.06-1.07.64-1.07.64l-.57-.06s.39-.93,1.3-1.13c.91-.21,1.79.92,1.9,1.66h0Zm20.93-22.24l-8.35-8.05-6.95,5.25s5.74-.7,12.79,5.34c.13-.2.27-.4.42-.57.73-.88,1.42-1.51,2.1-1.96Z" style="fill: #fff; fill-rule: evenodd; stroke-width: 0px;"/>
          <path d="m77.42,206.59c.12-1.06.68-6,1.06-9.36.42-3.65.58-12.09,3.26-14.82-.67-.62-1.18-1.34-1.58-2.36-.44,1.02-1.2,3.1-1.66,6.2-.67,4.48-1.94,17.04-2.37,20.39.43-.01.86-.03,1.29-.04h0Zm8.02-.55c.19-1.71.74-6.49,1.27-9.68.6-3.61.76-8.02,2.3-9.64-.56-.3-1.12-.6-1.65-.89-.37.52-.84,1.6-1.13,3.79-.49,3.7-1.69,13.49-2.31,16.55.53-.05,1.03-.09,1.52-.14h0Zm4.46-.54c-.46.06-.96.13-1.51.2.23-2.22.86-7.94,1.48-12.2.46-3.17,1-4.8,1.36-5.6.47.25.91.49,1.33.71-.99,1.63-1.01,4.31-1.56,8.1-.48,3.35-.93,7.26-1.11,8.79h0Zm-6.5.73c-.41.03-.83.07-1.25.1.11-1.07.31-2.9.67-5.61.61-4.71.69-6.25,1.25-10.72.39-3.18,1.2-4.55,1.63-5.08.37.2.77.42,1.2.65-.58.55-.92,1.69-1.16,3.36-.3,2-.46,4.35-1.03,8.35-.44,3.11-1.04,7.25-1.29,8.94h0Zm4.33-.45c-.56.07-1.15.14-1.78.2.29-2.23,1.1-8.48,1.77-13.06.56-3.81,1.32-5.36,1.75-5.96.46.24.91.48,1.35.72-1.18,1.56-1.78,6.12-2.18,10.34-.33,3.39-.73,6.45-.91,7.76h0Zm-3.91-25.56c-.25-.04-.52-.36-.52-1.11s-.19-1.04-.54-.93c-.34.11-.52.55-.11,1.53.41.97,1.51,1.73,2.62.63,1.11-1.1.42-3.05.42-3.05-.83-1.93-2.34-2.72-4.31-.76-1.96,1.96-2.99,7.23-3.58,11.05-.59,3.82-.9,9.09-1.38,12.61-.33,2.41-.58,5.04-.7,6.46-.51.01-1.02.02-1.54.03.44-1.88,1.17-5.65,1.61-9.95.56-5.5.89-12.18,1.79-16.57.9-4.39,4.23-6.44,6.24-6.37,2,.07,3.3,1.68,3.26,4.14-.03,2.46-.74,3.06-1.71,3.99-.34.33-.63.58-.87.77-.43.34-.7.46-.84.42-.22-.06-1.04-.65-1.84-1.36-.54-.48-.91-1.01-1.04-1.68-.06-.31-.07-.66-.02-1.05.15-1.22,1.8-3.09,2.71-3.09s1.89,1.51,1.8,2.88c-.05.69-.66,1.63-1.45,1.43h0Zm-2.23,26.14c-.5.04-1.02.07-1.55.1.29-2.58,1.23-10.75,1.96-15.51.66-4.25,1.4-6.35,1.73-7.14.19.11.39.23.6.35.26.15.6.34.99.56-1.33,1.29-1.73,3.8-2.34,9.08-.57,4.9-1.19,10.64-1.39,12.56h0Zm-2.05.13c-.42.02-.85.04-1.29.06.19-2.5,1.09-13.86,1.8-18.17.57-3.46,1.5-5.07,1.99-5.71.4.33.85.63,1.37.95-1.04,1.29-1.42,4.09-2.23,9.19-.75,4.73-1.44,11.58-1.64,13.68h0Zm15.32-16.67c-.33-.17-1.01-.53-1.88-.99-.54.83-.63,2.09-1.2,6.12-.62,4.37-1.19,8.8-1.4,10.48.86-.13,1.55-.24,2.05-.33.09-2.36.55-11.57,2.37-15.17.02-.04.04-.08.06-.11h0Zm-10.76-6.46l1.6.89c2.16-1.38,3.52-2.83,3.58-4.66.04-1.21-.37-2.45-.67-3.18l-1.28-.69s.45,1.86.18,3.78c-.27,1.92-2.35,3.3-3.4,3.87h0Zm2.24,1.25l1.06.58c2.77-1.7,3.5-2.62,3.5-4.17,0-1.18-.35-2.85-.54-3.67l-.85-.46c.61,2.62.51,4.11-.7,5.45-1,1.11-2.05,1.95-2.46,2.27h0Zm1.61.89c.49-.31,1.84-1.22,2.85-2.36,1.18-1.33.7-3.18.17-5.45l1.16.62c.25.66.61,1.82.59,3.11-.03,1.87-1.74,3.8-3.35,4.87l-1.42-.79h0Zm2.1,1.17l1.12.62c.3-.37.81-.93,1.45-1.41,1.06-.79,2.22-1.22,2.22-3.44,0-1.42-.63-2.6-1.08-3.26l-.91-.49c.69,2.4.33,4.43-.39,5.4-.63.85-1.97,2.15-2.4,2.58h0Zm1.51.84l1.1.61c3-.96,3.74-2.56,3.69-4.98-.04-1.7-.32-2.49-.51-2.83l-1.11-.59c1.36,3.94.21,5.04-.93,5.87-.93.67-1.88,1.57-2.25,1.92h0Zm1.82,1.01c.45-.23,1.34-.72,2.07-1.38,1.03-.93,1.9-1.67,1.33-6.33l.78.42c.21.62.77,2.35.85,3.39.1,1.23-.8,2.69-3.53,4.74l-1.51-.84h0Zm2.05,1.14c.51-.49,2.06-1.99,2.88-2.9.94-1.05.6-3.2-.16-5.22l.32.17c1.9.89,1.62,3.63,1.62,3.63-.22,3.21-1.83,4.34-2.91,4.43-.55.04-1.06,0-1.44-.04-.09-.01-.17-.02-.23-.04l-.07-.04h0Zm-40.71,5.7l-.19.84s-.86-3.88-1.79-5.22c-.93-1.34-1.61-1.06-2.84-1.65-1.24-.59-.83-1.74-.65-2.51.19-.78.84-1.4,1.51-1.52.68-.12,1.82.19,2.72,1.18.9.99,1.52,3.32,1.7,4.66.19,1.34-.22,2.73-.46,4.22h0Zm1.45-12.23s-2.88-6.36-3.3-7.22c-.42-.86-1.19-1.04-1.19-1.04-2.02-.15-3.03,1.31-2.97,2.85.06,1.54,2.17,1.81,2.94,1.96.77.15,1.57.98,2.2,3,.62,2.02,1.69,5.62,1.69,5.62l.62-5.17h0Zm.38-.91l-3.15-6.87s2.36.36,3.04,2.2c.36.97,1.21,3.84.11,4.67h0Zm1.1-3.6c.52-.56.59-1.65-.56-1.81-.14.65-.03,1.67.56,1.81Z" style="fill: #ffe100; fill-rule: evenodd; stroke-width: 0px;"/>
          <path d="m48.7,216.38l.42.52-.93,1.53s-1.47-1.68-2-2.94c-.53-1.26-1.05-3.17-1.4-4.85-.35-1.68-1.61-5.34-3-6.99,0,0,1.24-.2,2.84-.16,1.6.04,2.97,1.23,4.15,2.41,1.18,1.18,3.58,3.7,3.58,3.7l-1.28,2.64s-.41-2.42-.72-2.54c-.32-.12-.41.71-.41,1.06s-.26.16-.58-.6c-.32-.76-.37-1.4-.37-1.4l-.97-.09-.59-2.52-1.02.16s-.26-1.79-.49-1.85c-.24-.06-.57.16-.63.37-.06.22-.31.12-.73-.16-.41-.28-.59-.47-.82-.38-.24.1-.14.28-.33.35-.2.08-.1.34.24.45.33.12.57.51.29.77-.27.26-.55.43-.33.61.21.18.55.37,1.12.69.57.31.33.83.16.95-.18.12.14.49.59.79.45.3.25.55-.04.67-.29.12-.37.61.14.73.51.12,1.53.58,1.64,1.01s-.73.63-.09,1.12c.63.49,1.06.65,1.4.86.33.21-.3.47-.58.45-.28-.02-.84.45.39.78,1.23.34,1.02.8.35.92-.67.11-.35.49.02.94Z" style="fill: #ffe100; fill-rule: evenodd; stroke-width: 0px;"/>
          <path d="m106.19,177.69v-30.35c3.37.33,5.61.08,5.61.08v26.63s-2.32,1.86-5.61,3.64Z" style="fill: #231815; fill-rule: evenodd; stroke-width: 0px;"/>
          <path d="m92.49,172.49l-20.96-17.16-8.33,6.3c.02-.83.04-1.69.05-2.59l8.09-6.23,21.14,17.9v1.78h0Zm-1.93,1.72c-.18-1.1-.38-2.07-1.3-2.18-.93-.11-2.17.42-2.72.02-.55-.4.04-2.06-.45-3-.49-.93-1.11-1-2.54-.95-1.43.05-1.63-.11-2.04-.84-.41-.73.02-2.23-.91-2.88-.93-.64-2.1-.18-3.17-.61-1.07-.43-.71-1.65-.89-2.83-.18-1.18-.86-1.18-3.53-1.33-2.67-.14-4.06-.38-4.98-.17-.92.22-1.09,1.11-1.25,2.27-.15,1.16-.35,1.81-.94,1.94-.59.13-1.18-.04-1.64-.22-.22-.08-.67-.12-1.06-.13-.03.61-.06,1.19-.09,1.75.57.04,1.71.09,3.01-.02,1.88-.16,1.73-2.54,1.78-2.93.05-.39.25-.92,1.37-1.01,1.12-.09,3.99-.25,5.22-.14,1.23.12.82,1.9,1.38,3.17.56,1.27,2.43,1.04,3.31,1.09s1.04.77,1.28,2.29c.25,1.52,1.57,1.75,2.2,1.77.63.02,1.71-.36,2.05.16.34.51.39,1.56.51,2.93.12,1.37,2.25.89,3.33.91,1.08.02,1.22,1.06,1.4,1.97.18.92.77,1.41,1.51,1.39.73-.02,1.11-1.15.66-1.31-.46-.16-.64.12-1.07-.12-.44-.24-.38-.74-.38-.74l-.05-.28Z" style="fill: #ffe100; fill-rule: evenodd; stroke-width: 0px;"/>
          <path d="m85.59,160.2v-22.52c2.17,2.3,4.52,4.07,6.91,5.43v23.16l-6.91-6.07Z" style="fill: #e60012; fill-rule: evenodd; stroke-width: 0px;"/>
          <path d="m71.76,148.05v-25.46l1.02-.78v27.13l-1.02-.9h0Zm11.68-12.88c.35.44.71.88,1.09,1.32.06.07.11.13.17.2v22.73l-1.25-1.1v-23.14Z" style="fill: #f6ab00; fill-rule: evenodd; stroke: #fff100; stroke-miterlimit: 22.93; stroke-width: 0px;"/>
          <path d="m82.77,156.04l-1.74-1.98-2.07-2.35,2.07-2.35,1.74-1.98v1.76l-.96,1.09-1.29,1.47,1.29,1.47.96,1.1v1.76h0Zm-9.49-34.61l.41-.32c1.87,2.26,3.39,4.84,5.27,7.77l-4.73-6.35-.79.83-.15-1.93h0Zm9.49,14.85v1.76l-.93,1.06-1.29,1.47,1.29,1.47.93,1.06v1.76l-1.7-1.94-2.07-2.35,2.07-2.35,1.7-1.94h0Zm0,3.28l-.26.3-.63.71.63.71.26.3v-2.02h0Zm0,11.11l-.3.34-.63.71.63.71.3.34v-2.1h0Zm-5.93,1.86l-.98-.86-1.2-1.37-1.29-1.47-.13.15v-1.77l.13-.15,2.07,2.35,2.07,2.35-.67.76h0Zm-3.61-7.29v-1.76l1.24-1.41,1.29-1.47-1.29-1.47-1.24-1.41v-1.76l2.01,2.29,2.07,2.35-2.07,2.35-2.01,2.29h0Zm0-3.28l.57-.65.63-.71-.63-.71-.57-.65v2.72h0Zm0-7.16l.04.04,2.07-2.35,2.07-2.35-2.07-2.35-2.07-2.35-.04.04v1.77l.04-.05,1.29,1.47,1.29,1.47-1.29,1.47-1.29,1.47-.04-.05v1.76h0Zm0-3.28l.04.04.63-.71.63-.71-.63-.71-.63-.71-.04.04v2.76h0Zm4.99,19.46l2.07-2.35,2.07-2.35-2.07-2.35-2.07-2.35-2.07,2.35-2.07,2.35,2.07,2.35,2.07,2.35h0Zm0-1.76l1.29-1.47,1.29-1.47-1.29-1.47-1.29-1.47-1.29,1.47-1.29,1.47,1.29,1.47,1.29,1.47h0Zm0-1.51l.63-.71.63-.71-.63-.71-.63-.71-.63.71-.63.71.63.71.63.71h0Zm0-7.54l2.07-2.35,2.07-2.35-2.07-2.35-2.07-2.35-2.07,2.35-2.07,2.35,2.07,2.35,2.07,2.35h0Zm0-1.77l1.29-1.47,1.29-1.47-1.29-1.47-1.29-1.47-1.29,1.47-1.29,1.47,1.29,1.47,1.29,1.47h0Zm0-1.51l.63-.71.63-.71-.63-.71-.63-.71-.63.71-.63.71.63.71.63.71h0Zm-3.79-12.77l-.6.53,3.05,3.29-2.45-3.83Z" style="fill: #ffe100; fill-rule: evenodd; stroke-width: 0px;"/>
          <path d="m63.22,155.31c-.17-6.6-.94-14.77-2.96-23.89l8.27-6.34.74,25.61-6.06,4.63Z" style="fill: #e60012; fill-rule: evenodd; stroke-width: 0px;"/>
          <path d="m84.15,173.02c-.58.05-1.53.2-2.57.64l-9.08-8.71s-7.75,6.45-10.24,7.5c0,0,.2-1.07.43-3.05h0l9.28-7.16s8.36,7.45,12.19,10.76h0Zm-21.44-3.84c.05-.49.11-1.03.16-1.62h0c-.05.59-.11,1.13-.16,1.62Z" style="fill: #ffe100; fill-rule: evenodd; stroke-width: 0px;"/>
          <g>
            <path d="m53.08,172.9l2.24,2.79,2.29,1.24,3.53-3.87c.12-.7.22-1.39.32-2.09l-3.5-4.54-4.59,4.92c-.09.52-.19,1.04-.29,1.55h0Zm1.1-.72l3.59-3.93,2.96,4.15-3.88,3.57-2.67-3.79h0Zm2.08.92c-.4-.34-.37-1.04.07-1.56.44-.52,1.13-.67,1.53-.33.4.34.37,1.04-.07,1.56-.44.52-1.13.67-1.53.34Z" style="fill: #fff; fill-rule: evenodd; stroke-width: 0px;"/>
            <path d="m54.2,163.35l3.79,3.7,4.23-5.35.03-1.69-4.6-4.56-3.37,4.86c0,1.03-.03,2.04-.08,3.04h0Zm.43-1.65l3.08-4.51,3.62,3.94-3.44,4.19-3.26-3.62h0Zm2.32.66c-.44-.29-.5-.99-.12-1.56.37-.57,1.04-.8,1.48-.52.44.29.5.99.12,1.56-.37.57-1.04.81-1.48.52Z" style="fill: #fff; fill-rule: evenodd; stroke-width: 0px;"/>
            <path d="m59.3,167.21l2.23,3.14c.08-.59.15-1.18.21-1.77l-.9-1.35,1.13-.98c.02-.18.03-.37.05-.55l.05-1.04-2.78,2.56Z" style="fill: #fff; fill-rule: evenodd; stroke-width: 0px;"/>
            <path d="m53.52,170.37l3.07-3.31-2.44-2.98c-.04.65-.08,1.3-.13,1.93l.97,1.3-1.22,1.27c-.07.6-.16,1.2-.25,1.79Z" style="fill: #fff; fill-rule: evenodd; stroke-width: 0px;"/>
            <path d="m54.04,153.1l3.7,3.55,4.26-5.53c-.03-.4-.05-.81-.08-1.21l-4.74-4.6-3.38,5c.09.94.17,1.87.23,2.8h0Zm.3-1.69l2.93-4.41,3.62,3.85-3.29,4.1-3.26-3.54h0Zm2.28.64c-.44-.28-.51-.96-.15-1.52.35-.56,1-.79,1.43-.51.43.28.5.97.15,1.53-.35.56-1,.79-1.43.51Z" style="fill: #fff; fill-rule: evenodd; stroke-width: 0px;"/>
            <path d="m54.27,159.23l2.12-2.96-2.29-2.18c.04.66.07,1.31.1,1.97l.64.66-.59.79c.01.58.02,1.15.03,1.72Z" style="fill: #fff; fill-rule: evenodd; stroke-width: 0px;"/>
            <path d="m59.06,155.92l3.19,3.57.02-1.46c0-.09,0-.18,0-.27l-1.67-1.99,1.57-1.7c-.02-.54-.05-1.09-.08-1.63l-3.02,3.48Z" style="fill: #fff; fill-rule: evenodd; stroke-width: 0px;"/>
            <path d="m58.6,145.34l3.19,2.92c-.05-.59-.11-1.17-.17-1.76l-1.5-1.46,1.16-1.55c-.07-.55-.14-1.09-.21-1.64l-2.46,3.49Z" style="fill: #fff; fill-rule: evenodd; stroke-width: 0px;"/>
            <path d="m53.73,149.52l2.07-3.6-2.83-2.19c.1.64.19,1.27.28,1.91l1.04.88-.76,1.26c.07.58.13,1.16.19,1.74Z" style="fill: #fff; fill-rule: evenodd; stroke-width: 0px;"/>
            <path d="m52.86,143l4.7,3.51,3.36-5.69c-.08-.56-.17-1.12-.25-1.68l-5.05-3.83-3.05,5.99c.1.57.2,1.13.29,1.7h0Zm.69-1.27l2.37-4.74,4.06,3.38-2.76,4.48-3.67-3.11h0Zm2.35.36c-.47-.22-.62-.9-.34-1.49.28-.6.89-.9,1.36-.68.47.22.62.9.34,1.49-.28.6-.89.91-1.36.68Z" style="fill: #fff; fill-rule: evenodd; stroke-width: 0px;"/>
            <path d="m50.8,133.09l5.62,3.05,2.44-6.42c-.02-.07-.03-.14-.05-.22-.12-.45-.23-.91-.35-1.36l-5.42-3.04-2.54,6.82c.1.39.2.78.3,1.17h0Zm.84-.93l1.99-5.35,4.13,2.41-2.03,5.23-4.08-2.28h0Zm2.5-.14c-.49-.15-.74-.82-.57-1.5.17-.67.71-1.1,1.2-.95.48.15.74.83.57,1.5-.17.67-.71,1.1-1.2.95Z" style="fill: #fff; fill-rule: evenodd; stroke-width: 0px;"/>
            <path d="m57.09,135.25l3.3,2.22c-.09-.54-.19-1.08-.29-1.62l-1.56-1.12.99-1.84c-.12-.59-.24-1.18-.37-1.77l-2.08,4.14Z" style="fill: #fff; fill-rule: evenodd; stroke-width: 0px;"/>
            <path d="m52.42,140.48l1.97-4.4-3.36-2.1c.15.6.29,1.21.43,1.82l1.5,1.03-.88,1.87c.12.59.23,1.19.35,1.79Z" style="fill: #fff; fill-rule: evenodd; stroke-width: 0px;"/>
            <path d="m47.7,122.93l5.54,2.61,2.28-7.17c-.08-.23-.16-.46-.24-.69l-6.04-2.94-2.09,6.72c.18.49.36.98.54,1.47h0Zm.54-1.09l1.68-5.45,4.25,2.17-1.74,5.33-4.2-2.04h0Zm2.49-.28c-.49-.12-.78-.78-.65-1.46.14-.68.65-1.13,1.14-1.01.49.12.79.78.65,1.46-.14.68-.65,1.13-1.14,1.01Z" style="fill: #fff; fill-rule: evenodd; stroke-width: 0px;"/>
            <path d="m54.28,125.09l3.87,1.88c-.14-.51-.28-1.02-.43-1.53l-2.02-1.01.89-2.77c-.19-.63-.39-1.25-.6-1.88l-1.71,5.31Z" style="fill: #fff; fill-rule: evenodd; stroke-width: 0px;"/>
            <path d="m50.13,130.57l1.52-4.41-3.43-1.75c.2.59.4,1.19.6,1.79l1.47.83-.66,1.79c.17.58.34,1.16.5,1.74Z" style="fill: #fff; fill-rule: evenodd; stroke-width: 0px;"/>
            <path d="m46.83,120.58l1.1-4.67-3.61-1.4c.25.56.49,1.12.74,1.7l1.6.7-.5,1.95c.23.56.45,1.13.67,1.71Z" style="fill: #fff; fill-rule: evenodd; stroke-width: 0px;"/>
            <path d="m50.53,114.44l4.27,1.85c-.18-.51-.37-1.03-.56-1.54l-2.32-1.04.79-2.9c-.23-.58-.47-1.16-.71-1.73l-1.48,5.35Z" style="fill: #fff; fill-rule: evenodd; stroke-width: 0px;"/>
            <path d="m43.71,113.15l5.78,2.15,1.78-7.85-6.67-2.58-1.52,6.91c.21.45.42.91.63,1.38h0Zm.49-1.12l1.22-5.57,4.42,1.8-1.28,5.45-4.36-1.68h0Zm2.46-.49c-.5-.08-.85-.71-.77-1.4.08-.69.55-1.19,1.05-1.1.5.08.85.71.77,1.4-.08.69-.55,1.19-1.05,1.1Z" style="fill: #fff; fill-rule: evenodd; stroke-width: 0px;"/>
            <path d="m39,103.7l5.92,1.71,1.53-7.28-7.06-2.13-1.25,6.16c.25.44.53.95.86,1.54h0Zm.27-1.1l1.04-5.17,4.68,1.49-1.11,5.06-4.61-1.39h0Zm2.54-.54c-.53-.06-.91-.62-.86-1.26.05-.64.53-1.11,1.05-1.05.53.06.91.62.86,1.26-.05.64-.53,1.11-1.05,1.05Z" style="fill: #fff; fill-rule: evenodd; stroke-width: 0px;"/>
            <path d="m45.95,104.65l4.84,1.62c-.22-.49-.45-.98-.67-1.47l-2.84-.99.64-3.48c-.28-.55-.57-1.09-.86-1.64l-1.11,5.96Z" style="fill: #fff; fill-rule: evenodd; stroke-width: 0px;"/>
            <path d="m42.71,110.98l.76-4.92-3.81-1.15c.27.51.56,1.05.85,1.63l1.77.62-.38,2.15c.26.54.53,1.09.8,1.66Z" style="fill: #fff; fill-rule: evenodd; stroke-width: 0px;"/>
            <path d="m37.64,101.27l.5-3.93-.95-.26v3.42s.16.27.45.77Z" style="fill: #fff; fill-rule: evenodd; stroke-width: 0px;"/>
            <polygon points="37.19 96.22 39.36 96.5 39.76 89.07 37.19 88.71 37.19 89.89 38.44 90.08 38.12 95.25 37.19 95.12 37.19 96.22" style="fill: #fff; fill-rule: evenodd; stroke-width: 0px;"/>
            <path d="m39.95,95.67l6.43,1.78c-.26-.48-.54-.96-.81-1.43l-4.34-1.27.51-3.93c-.33-.37-.67-.72-1.02-1.06l-.78,5.9Z" style="fill: #fff; fill-rule: evenodd; stroke-width: 0px;"/>
          </g>
          <path d="m51.05,173.17c-2.44-1.31-6.63-3.61-9.09-5.27,0,0,2.41-6.01-.83-11.23l9.72-4.51-2.47,4.14-.14.23.19.19,2.12,2.17-2.11,3.06-.16.23,2.87,3.22-2.22,2.55-.15.17.09.21,2.18,4.84h0Zm.92-21.53l-2.86,4.79,2.13,2.18.2.2-.16.24-2.11,3.07,2.71,3.04.21.23-.2.23-2.28,2.62,2.36,5.23v-.02s.26-1.23.26-1.23l.38-2.26-1.28-1.05,1.57-1.27.07-.61.21-2.73c.01-.24.02-.47.03-.7l-1.47-1.06,1.54-1.23c.01-.41.02-.83.02-1.24,0-1.11-.02-2.21-.05-3.31l-1.17-.53,1.09-1.4c-.07-1.18-.15-2.36-.24-3.54,0-.03,0-.06,0-.09l-.94.43Z" style="fill: #ffe100; fill-rule: evenodd; stroke-width: 0px;"/>
          <path d="m48.32,171.68c-1.52-.84-3.19-1.79-4.63-2.68,2.25-5.51.28-11.44-.47-13.31l5.01-2.32-1.67,4,1.75,2.04-1.89,2.84,2.07,3.72-1.49,2.01,1.32,3.7Z" style="fill: #231815; fill-rule: evenodd; stroke-width: 0px;"/>
          <path d="m37.78,103.51v31.29c5.03,5.55,8.63,18.48,8.63,18.48l6.41-2.97c-.12-1.16-.25-2.32-.39-3.48-.2-1.49-.43-2.98-.67-4.47-.26-1.48-.54-2.96-.84-4.43-.32-1.45-.65-2.9-1-4.35-.36-1.41-.75-2.82-1.15-4.23-.41-1.37-.84-2.72-1.29-4.08-.6-1.74-1.23-3.47-1.9-5.2-.8-2-1.63-3.98-2.5-5.94-1.41-3.1-2.9-6.14-4.5-9.15-.26-.49-.53-.97-.8-1.46Z" style="fill: #e60012; fill-rule: evenodd; stroke-width: 0px;"/>
          <path d="m51.32,147.26l-4.71,1.68s-2.62-12.01-7.43-18.63v-19.28s10.95,19.16,12.14,36.23Z" style="fill: #231815; fill-rule: evenodd; stroke-width: 0px;"/>
          <path d="m44.09,154.62c-1.96-6.53-4.41-12.32-6.95-16.49v18.11h4.09c.95-.54,1.91-1.08,2.86-1.63h0Zm-6.58,7.91l-.37-.33v-5.52h3.19s1.84,2.41,1.84,5.77-.7,5.28-.7,5.28c0,0-2.21,1.64-3.68,2.33h-3.31s.53-1.64-1.02-2.33c0,0,1.39-1.14,2.5-1.14s1.39-.82,1.76-1.56c.37-.74.29-2.09-.21-2.5h0Zm-3.48,7.24c0-.34-.49-1.5-1.02-1.47-.24.01-.22.73-.09.94.27.46,1.11.52,1.11.52Z" style="fill: #fff; fill-rule: evenodd; stroke-width: 0px;"/>
          <polygon points="29.59 202.24 36.47 202.24 29.59 209.7 29.59 212.98 41.36 199.89 29.59 199.89 29.59 202.24" style="fill: #ffe100; fill-rule: evenodd; stroke-width: 0px;"/>
          <polygon points="29.59 208.88 35.19 202.8 29.59 202.8 29.59 208.88" style="fill: #e60012; fill-rule: evenodd; stroke-width: 0px;"/>
          <path d="m72.28,119.53c-1.37-1.38-2.97-2.62-5-3.72l-9.35,6.62c.64,2.15,1.21,4.27,1.72,6.34l12.63-9.24Z" style="fill: #231815; fill-rule: evenodd; stroke-width: 0px;"/>
          <path d="m60.01,130.34l13.16-9.85c-.29-.33-.59-.65-.9-.96l-12.63,9.24c.13.53.25,1.05.37,1.57h0Zm7.27-14.53l-9.35,6.62c-.16-.52-.31-1.04-.48-1.56l8.37-5.79c.51.24,1,.48,1.46.73Z" style="fill: #ffe100; fill-rule: evenodd; stroke-width: 0px;"/>
        </g>
        <path d="m29.59,26.78h104.39v195.06H29.59V26.78h0Zm-1.68-1.68v198.43h107.75V25.09H27.91Z" style="fill: #004ea2; fill-rule: evenodd; stroke-width: 0px;"/>
      </g>
      <g>
        <path d="m17.18,47.2c2.29,0,4.16,1.73,4.16,3.85,0,1.49-.92,2.79-2.26,3.42.09.13.18.27.25.42.69-.62,1.59-1,2.57-1,2.16,0,3.92,1.83,3.92,4.07s-1.76,4.07-3.92,4.07c-1.85,0-3.4-1.34-3.81-3.13-.07.03-.15.06-.22.08,0,.98.09,4.89,2,6.65h-5.19c1.92-1.77,2.01-5.71,2-6.67-.08-.02-.15-.05-.22-.08-.43,1.76-1.97,3.07-3.8,3.07-2.16,0-3.92-1.83-3.92-4.06s1.76-4.07,3.92-4.07c1,0,1.92.39,2.61,1.04.05-.11.11-.21.18-.3-1.44-.61-2.44-1.95-2.44-3.5,0-2.12,1.87-3.85,4.16-3.85Z" style="fill: #231815; fill-rule: evenodd; stroke-width: 0px;"/>
        <path d="m14.64,13.47h10.89v3.12h-3.16v18.13c0,1.93-.73,3.69-1.91,4.98-1.21,1.32-2.89,2.14-4.75,2.14-.26,0-.47,0-.64-.02-4.27-.38-6.32-4.28-5.98-8.11l3.12.27c-.2,2.25.87,4.53,3.13,4.73.16.01.29.02.37.02.95,0,1.82-.43,2.46-1.13.67-.73,1.09-1.75,1.09-2.87v-18.13h-4.61v-3.12Z" style="fill: #231815; stroke-width: 0px;"/>
      </g>
      <g>
        <path d="m148.88,202.41c-2.29,0-4.16-1.73-4.16-3.85,0-1.49.92-2.79,2.26-3.43-.09-.13-.18-.27-.25-.42-.69.62-1.59,1-2.57,1-2.16,0-3.92-1.83-3.92-4.07s1.76-4.07,3.92-4.07c1.85,0,3.4,1.34,3.81,3.13.07-.03.15-.06.22-.08,0-.98-.09-4.89-2-6.65h5.19c-1.92,1.77-2.01,5.71-2,6.67.08.02.15.05.22.08.43-1.76,1.97-3.07,3.8-3.07,2.16,0,3.91,1.83,3.91,4.07s-1.76,4.07-3.91,4.07c-1,0-1.92-.39-2.61-1.04-.05.11-.11.21-.18.3,1.44.61,2.44,1.95,2.44,3.5,0,2.12-1.87,3.85-4.16,3.85Z" style="fill: #231815; fill-rule: evenodd; stroke-width: 0px;"/>
        <path d="m151.42,236.14h-10.89v-3.12h3.16v-18.13c0-1.93.73-3.69,1.91-4.98,1.21-1.32,2.89-2.14,4.75-2.14.26,0,.47,0,.64.02,4.27.38,6.32,4.28,5.98,8.11l-3.12-.27c.2-2.25-.87-4.53-3.13-4.73-.16-.01-.29-.02-.37-.02-.95,0-1.82.43-2.46,1.13-.67.73-1.08,1.75-1.08,2.87v18.13h4.61v3.12Z" style="fill: #231815; stroke-width: 0px;"/>
      </g>
    </g>
  </g>
</svg>