<?xml version="1.0" encoding="UTF-8"?>
<svg id="_图层_2" data-name="图层 2" xmlns="http://www.w3.org/2000/svg" viewBox="0 0 163.58 248.61">
  <g id="_图层_1-2" data-name="图层 1">
    <g>
      <path d="m162.58,242.01c0,3.08-2.51,5.6-5.57,5.6H6.57c-3.06,0-5.57-2.52-5.57-5.6V6.6C1,3.52,3.51,1,6.57,1h150.43c3.06,0,5.57,2.52,5.57,5.6v235.41Z" style="fill: #fff; fill-rule: evenodd; stroke: #231815; stroke-miterlimit: 22.93; stroke-width: 2px;"/>
      <g>
        <g>
          <path d="m48.05,32.8c4.05,0,7.35,3.05,7.35,6.8,0,2.63-1.63,4.92-4,6.05.17.23.32.48.45.74,1.22-1.1,2.8-1.77,4.54-1.77,3.81,0,6.92,3.23,6.92,7.18s-3.11,7.18-6.92,7.18c-3.26,0-6.01-2.37-6.73-5.53-.13.05-.26.1-.39.14-.01,1.72.17,8.63,3.54,11.75h-9.16c3.39-3.13,3.55-10.08,3.54-11.77-.13-.04-.26-.09-.39-.15-.76,3.11-3.48,5.42-6.71,5.42-3.81,0-6.92-3.23-6.92-7.18s3.11-7.18,6.92-7.18c1.77,0,3.39.69,4.61,1.83.1-.19.2-.36.32-.53-2.54-1.07-4.31-3.45-4.31-6.19,0-3.75,3.3-6.8,7.35-6.8Z" style="fill: #231815; fill-rule: evenodd; stroke-width: 0px;"/>
          <path d="m115.53,215.82c-4.05,0-7.35-3.06-7.35-6.8,0-2.63,1.63-4.92,4-6.05-.17-.23-.32-.48-.45-.74-1.22,1.1-2.8,1.77-4.54,1.77-3.81,0-6.92-3.22-6.92-7.18s3.11-7.18,6.92-7.18c3.26,0,6.01,2.37,6.73,5.53.13-.05.26-.1.39-.14.01-1.72-.17-8.63-3.54-11.75h9.16c-3.39,3.13-3.55,10.08-3.54,11.77.13.04.26.09.39.15.76-3.11,3.48-5.42,6.71-5.42,3.81,0,6.92,3.23,6.92,7.18s-3.11,7.18-6.92,7.18c-1.77,0-3.39-.69-4.61-1.84-.1.19-.2.36-.32.53,2.54,1.07,4.31,3.45,4.31,6.19,0,3.75-3.3,6.8-7.35,6.8Z" style="fill: #231815; fill-rule: evenodd; stroke-width: 0px;"/>
        </g>
        <g>
          <path d="m29.59,118.36c16.06-13.68,29.23-29.16,29.23-29.16-1.39-4.21-1.46-9.76.35-15.72,1.81-5.96,2.73-7.79,7.83-16.83,5.11-9.04,7.16-15.55,7.56-19.48.35-3.41.59-8.99.65-10.39h21.98c1.12,2.57,9.85,22.59,14.8,33.78,5.3,11.97,8.73,19.44,10.49,22.57,1.71,3.04,5.79,6.62,11.5,6.45v40.68c-16.06,13.68-29.23,29.16-29.23,29.16,1.39,4.21,1.46,9.76-.35,15.72-1.81,5.96-2.73,7.79-7.83,16.83-5.1,9.04-7.16,15.55-7.56,19.48-.35,3.41-.59,8.99-.65,10.39h-21.98c-1.12-2.57-9.85-22.59-14.8-33.78-5.3-11.97-8.73-19.44-10.49-22.57-1.71-3.04-5.79-6.62-11.5-6.45v-40.68Z" style="fill: #004ea2; fill-rule: evenodd; stroke-width: 0px;"/>
          <g>
            <path d="m125.59,136.87l-10.26,10.06s1.91,3.04,4,5.04c0,0-1.95-.09-3.78.52-1.82.61-5.21,3.65-5.3,4.08-.09.43.69.48,3.48.48s2.95.04,3.69-.09c.74-.13,3.04-1.62,3.04-1.62,0,0-.93,3.73-1.19,4.25,0,0-1.29.08-1.83,1.22h-2.89v2.95c-.9.41-1.53,1.34-1.53,2.43h0c0,1.08.63,2.02,1.53,2.43v3.32h2.7c.3.6.93,1.02,1.66,1.02h0c.73,0,1.36-.42,1.66-1.02h2.88v-3.34c.87-.42,1.48-1.34,1.48-2.4h0c0-1.06-.61-1.98-1.48-2.4v-2.98h-2.5s1.44-2.19,1.89-4.05c0,0,.51,2.34,2.67,3.76,2.16,1.42,4.19,2.5,5.01,3.62l.65-.26s.08-2.76,0-4.4c-.09-1.64-1.81-3.54-4.62-4.45,0,0,1.46-1.45,1.46-2.44,0,0,1.8-1.29,1.87-2.11.07-.82.07-2.35.07-2.35,0,0,.58-.58.58-1.36s-.06-4.24-.06-4.24c0,0-.18-.54-.47-1.04-.29-.5,0-.9.07-1.72.07-.82.58-2.08.79-3.33.22-1.26.04-2.01-.54-2.12-.57-.11-1.29.11-1.29.11,0,0-1.96,1.02-1.84,3.92l-1.6-1.48Z" style="fill: #004ea2; fill-rule: evenodd; stroke-width: 0px;"/>
            <path d="m96.39,139.18l5.35-4.9c-3.17-8.54-2.17-14.99,2.48-20.71,4.8-5.92,10.87-5.98,14.51-5.18,2.7.59,5.34,2.37,6.52,3.25l5.32-5.1c-2.74-4.34-7.43-6.53-13.78-6.97-6.65-.46-12,1.48-17.3,7.14-5.3,5.66-6.68,13.73-6.32,20.63.29,5.47,2.36,10.14,3.21,11.84Z" style="fill: #231815; fill-rule: evenodd; stroke-width: 0px;"/>
            <g>
              <path d="m69.74,85.81c5.07,11.45-.77,21.75-.77,21.75,0,0,2.55,5.59,3.48,11.99h3.53c0-.17.01-.33.02-.5v-.02c0-.24.02-.49.03-.73,0-.09,0-.18.01-.26,0-.2.02-.4.03-.6,0-.09,0-.17.01-.26,0-.02,0-.04,0-.06.01-.21.02-.43.04-.64,0-.11.01-.23.02-.34,0-.16.02-.31.03-.47,0-.08,0-.15.01-.23.01-.18.02-.36.04-.55,0-.14.02-.29.03-.44.02-.22.03-.44.05-.66,0-.01,0-.02,0-.03.02-.26.04-.51.06-.77,0-.05,0-.11.01-.16.04-.56.09-1.13.14-1.69,0,0,0-.02,0-.02.05-.54.1-1.09.16-1.63,0-.04,0-.08.01-.12h0s0-.07,0-.1c.05-.53.11-1.06.17-1.59,0-.02,0-.05,0-.07.03-.26.06-.52.09-.79,0-.02,0-.04,0-.06.09-.83.19-1.64.29-2.45,0-.04,0-.08.01-.11,0-.03,0-.06.01-.09.13-1.06.27-2.11.41-3.13,0-.05.02-.11.02-.16.03-.24.07-.48.1-.72,0,0,0,0,0,0,.03-.19.05-.38.08-.57.02-.13.04-.25.06-.38.13-.94.27-1.86.41-2.74,0-.05.01-.09.02-.14,0-.03,0-.06.01-.09.06-.36.11-.71.17-1.05.02-.1.03-.2.05-.29.19-1.17.38-2.27.55-3.29.01-.09.03-.18.05-.27.02-.11.04-.22.06-.33.28-1.58.53-2.93.74-4,0-.03.01-.06.02-.09.04-.23.09-.45.13-.66,0-.05.02-.1.03-.15.01-.07.03-.13.04-.19,0-.02,0-.03,0-.05h-10.49Zm6.4,30.33l-.02.34c0-.11.01-.23.02-.34h0Zm1.81-16.99l-.06.38c.02-.13.04-.25.06-.38h0Zm11.25,10.59l.23-.73s.02-.07.03-.1c.04-.11.08-.23.11-.34.01-.04.03-.08.04-.11.03-.09.06-.19.09-.28.03-.08.05-.15.08-.22,0,0,0,0,0,0,.05-.15.1-.3.15-.44,0,0,0-.02,0-.03.02-.06.04-.12.06-.17.18-.5.37-1.02.58-1.55.1-.25.2-.51.3-.77.04-.09.07-.17.1-.26.04-.09.07-.18.11-.27.06-.13.11-.27.17-.41,0-.02.01-.03.02-.05.05-.11.09-.23.14-.34.04-.09.08-.19.12-.28.03-.08.07-.16.11-.24.03-.07.06-.14.09-.21.05-.12.11-.24.16-.37.03-.06.06-.13.09-.19.06-.12.11-.25.17-.37.02-.04.04-.09.06-.13.05-.11.1-.22.15-.32.06-.12.12-.24.17-.37.02-.03.03-.07.05-.1.06-.12.12-.25.18-.37.04-.09.09-.19.14-.28.04-.08.08-.15.11-.23.06-.12.12-.23.17-.35.03-.05.05-.11.08-.16.06-.12.12-.23.18-.35.05-.1.1-.19.15-.29.05-.09.09-.17.14-.26.05-.09.09-.17.14-.26.05-.09.1-.19.16-.29.05-.1.11-.2.17-.3.05-.09.1-.18.15-.26.04-.07.08-.13.11-.2.06-.11.13-.23.2-.34.18-.31.36-.63.55-.94.03-.04.05-.09.08-.13,0-.01.01-.02.02-.03.03-.04.05-.08.08-.12.26-.42.52-.84.79-1.25.05-.08.1-.16.16-.24.08-.13.17-.26.25-.38.03-.04.06-.08.09-.13.21-.31.43-.62.64-.93.03-.04.07-.09.1-.14.07-.1.15-.2.22-.3.06-.09.13-.18.19-.27.04-.05.08-.11.12-.16.09-.12.18-.24.27-.37.05-.07.11-.14.16-.21.07-.09.15-.19.22-.29.06-.08.12-.15.18-.23.08-.1.16-.19.23-.29.06-.08.12-.15.19-.23.07-.09.15-.18.22-.27.06-.07.12-.15.19-.22.07-.09.15-.17.22-.26.08-.09.17-.19.25-.28.05-.06.1-.12.16-.18.08-.09.17-.19.25-.28.07-.08.15-.16.22-.24.07-.08.14-.15.21-.23.09-.1.18-.19.28-.29.05-.05.1-.1.15-.15.09-.09.18-.19.27-.28.08-.08.16-.16.23-.23.06-.06.12-.12.18-.18.09-.08.17-.17.26-.25.09-.08.17-.16.25-.24.07-.07.15-.14.22-.21.08-.08.17-.15.25-.23.08-.07.15-.14.23-.21.07-.06.13-.11.2-.17.11-.09.21-.18.32-.27h11.38c2.93,3.06,5.89,4.85,7.46,5.64l-2.46,4.15c-15.11-.96-21.69,4.19-26.72,12.27-2.57,4.13-3.6,8.42-3.97,11.69h-2.06c.1-1.17.23-2.43.38-3.68h0s0-.05,0-.07c0-.02,0-.05,0-.07,0-.02,0-.05,0-.07,0,0,0-.02,0-.03,0-.02,0-.03,0-.05.02-.14.04-.29.06-.43.01-.08.02-.15.03-.24,0,0,0,0,0-.01.01-.08.02-.16.04-.24,0,0,0-.02,0-.03,0,0,0-.02,0-.03.01-.08.03-.16.04-.25,0-.01,0-.02,0-.04.03-.18.07-.37.11-.57,0-.02,0-.05.02-.07.02-.08.03-.16.05-.24,0-.02.01-.04.02-.07.02-.09.04-.18.06-.27,0-.04.02-.08.03-.12.02-.08.04-.16.06-.25,0,0,0-.02,0-.03.03-.11.06-.23.09-.35,0-.01,0-.03.01-.04.02-.1.05-.2.08-.3,0-.04.02-.08.03-.12.02-.08.04-.17.07-.25.02-.07.04-.14.06-.22,0-.02,0-.04.02-.06.02-.07.04-.15.06-.22,0,0,0-.02,0-.02.03-.1.06-.21.09-.32.02-.05.03-.11.05-.16.02-.08.05-.16.07-.24.02-.05.03-.1.05-.16.02-.08.05-.15.07-.23.03-.1.06-.19.09-.29Z" style="fill: #e60012; fill-rule: evenodd; stroke-width: 0px;"/>
              <path d="m87.42,119.55c.12-1.4.28-2.91.48-4.4.66-4.84,5.55-20.67,15.9-29.34h-23.57c-.97,4.92-3.81,20.26-4.25,33.74h11.43Z" style="fill: #231815; fill-rule: evenodd; stroke-width: 0px;"/>
              <path d="m79.29,119.55v-.39l-.6-1.03,1.42-2-1.42-2.23,1.53-1.54-1.19-1.88,1.53-1.66-.99-1.98,1.93-1.71-1.21-2.36,1.92-2.35-.75-3.01,1.79-2.19-1.2-2.3,2.89-2.52-1.52-2.78,2.51-1.82h-2.78l-1.34,1.12,1.14,3.54-2.37,1.91,1.25,3.02-2.22,2.21.87,2.61-1.7,2.03,1.04,2.17-1.82,1.96,1.07,2.16-1.34,1.29.7,2.42-1.11,1.18.79,2.44-.82,1.46.74,1.46v.76h1.25Zm3.48,0h-1.81c.09-2.59.46-10.43,1.93-17.51,1.57-7.56,3.88-14.6,4.43-16.24h5.78c-5.58,8.44-9.11,22.95-9.61,26.92-.39,3.15-.63,5.71-.72,6.82h0Zm3.07,0h-1.18v-1.37l.49-.41-.66-2.16,1.38-.95-.93-2.87,1.52-1.36-1.21-2.23,2.08-1.83-.79-2.17,2.41-1.59-1.22-2.47,2.89-2.32-1.42-2.95,3.53-2.26-.46-2.68,3.51-2.63-.58-1.5h2.78l1.08,1.31-4.77,3.57.63,2.8-3.24,1.69.99,2.88-2.69,2.15.84,2.56-2.19,1.64.38,3.11-2.1,1.68,1.21,2.11-1.27,1.36.26,2.19-1.47,1.21.81,1.93-.58.63v.91Z" style="fill: #ffe100; fill-rule: evenodd; stroke-width: 0px;"/>
              <path d="m90,119.55c.35-2.34,1.75-9.35,6.49-14.92,5.67-6.66,12.87-9.27,23.23-8.26l-.71,1.2c-8.49-1.26-14.46,2.18-14.46,2.18-8.01,4.23-11.99,12.35-13.28,19.8h-1.26Z" style="fill: #fff; fill-rule: evenodd; stroke-width: 0px;"/>
            </g>
            <path d="m114.69,84.94c.16.29.32.58.48.87h-53.75c.13-.26.28-.55.44-.87h52.83Zm-5.83-10.94c1.35,2.66,2.8,5.41,4.79,9.05h-50.84c1.03-2.08,2.47-4.98,4.48-9.05h41.56Zm-1.32-2.64c.21.41.41.83.62,1.24h-40.17c.08-.16.15-.31.23-.47.13-.26.25-.51.37-.76h38.94Z" style="fill: #231815; fill-rule: evenodd; stroke-width: 0px;"/>
            <path d="m75.88,26.78c0,2.1-.08,8.44-1.05,13.74-1.18,6.46-6.31,14.4-9.67,21.11-3.35,6.71-8.22,15.19-5.76,26.37,0,0,7.42-12.92,11.14-22.82,3.72-9.89,5.37-16.55,5.57-19.25.16-2.29.32-15.29.36-19.15h-.59Z" style="fill: #e60012; fill-rule: evenodd; stroke-width: 0px;"/>
            <path d="m94.8,45.92l-.11.1s-.45.32-.8.34c-.35.02-.34-.3-.25-.81.09-.51.58-1.09.99-1.08.41.01.76.59.7.88-.05.29-.53.56-.53.56h0Zm-4.72-.89l-.46-.41s0,.87.44,1.54c.44.67,1.06.92,1.79.82.73-.1,1.74-1.36,1.48-2.29,0,0-.07-.16-.39-.15s-.37.33-.62.8c-.24.47-.46.59-.8.69-.34.1-1.11-.61-1.45-1h0Zm-1.22,1.21l-.15-.08s-.08-.57.23-.7c.31-.13.52.07.5.38-.02.31-.31.36-.58.41h0Zm6.11-3.13l-6.5.46s1.51-1.66,3.02-1.91c1.51-.25,3.51,1.27,3.48,1.45h0Zm-6.71-2.89l-.32.21s-.32-.25-.32-.74,1.09-1.31,2.74-1.59c1.65-.28,4.18.32,6.25,2.83,0,0-.32,0-1.23-.35-.91-.35-2.28-1.34-3.83-1.24-1.54.11-2,.07-3.3.88h0Zm-1.28,14.44l-.29-.2s-.94-.27-1.84-.51c-.9-.25-.67-.66-.41-.96.27-.31.86-.94,1.33-.45.47.49,1.55,1.41,2.09,1.45.53.04.84-.51.8-1.27-.04-.76-.78-1.08-1.06-1.37-.29-.29-.1-.55.33-.53.43.02,1.37.66,1.51,1.74.14,1.08-.29,2.11-.86,2.41-.57.31-1.39.06-1.6-.31h0Zm-4.33,9.62l.06-.18s.91-1.13,2.48-1.48c1.56-.35,2.65.24,3.45.68.8.45.89.71.8.92-.09.21-.68.27-1.06-.06-.38-.33-1.06-.74-2.01-.71-.94.03-1.89.12-2.57.5-.68.39-.91.56-1.15.33h0Zm1.03-2.79l-.12-.21s-.09-.5.35-.56c.44-.06.92.27,1.03.44.12.18,1.24.18,1.65-.12.41-.3.65-.59,1.06-.56.41.03.62.33.56.65-.06.33-1.77.95-2.6.98-.83.03-1.24-.12-1.95-.62h0Zm2.45-3.59l-.06.18s-.74.06-1.12-.06c-.38-.12-.44-.39-.8-.39s-.71.44-1.03.68c-.33.24-.77-.18-1.3-.24-.53-.06-.5.18-.5.71s.03,2.19.59,2.13c.56-.06,1.03-1.04,1.59-1.07.56-.03,1.15.18,1.89.45.74.27.86.12,1.39-.15.53-.27,1.18-.65,1.83-.53.65.12,1.3.74,1.74.77.44.03.41-.21.27-.74-.15-.53-.24-.65-.41-.95-.18-.3.06-1.25-.35-1.27-.41-.03-.74.45-1.21.45s-.8-.12-1.27-.3c-.47-.18-1-.24-1.24.33h0Zm-3.26-12.67c-.41.03-.42.28-.6.68-.21.46.11.76.39.76s.76-.41.79-.68c.03-.27-.19-.75-.59-.76h0Zm-4.44,0c.25,0,.25.05.47.35.22.3.54.79.96.91.43.11.58-.1.98-.73.39-.63.38-.97.82-.95.44.02.5.29.43.86-.08.57-.74,1.21-1.26,1.57-.52.37-1.2.32-1.88-.4-.68-.72-.68-1.57-.68-1.57l.16-.03h0Zm-.9,1.06c.01.19.02.38.03.56.22.13.93.15.91-.2-.02-.38-.49-.75-.49-.75l-.17.03c-.13.09-.22.21-.28.35h0Zm-.14-2.66c.01.33.03.66.05.99.68-.98,2.27-.91,3.41-.99,1.21-.09,2.64.15,2.64.15-.87-1.15-2.44-1.83-3.13-1.83s-1.67.35-2.4.91c-.26.2-.44.48-.56.76h0Zm16.36-16.86h.88c.03.23.05.5.09.78-.34-.25-.67-.52-.96-.78h0Zm-2.4,0c.79,1.24,2.09,2.91,3.74,3.75-.1-.75-.18-1.43-.26-2.03-.79-.55-1.53-1.18-2.12-1.72h-1.36Zm-1.89,0c1.08,1.9,3.16,4.91,5.94,5.98-.07-.49-.14-.95-.2-1.4-2.17-.92-3.8-3.15-4.67-4.58h-1.07Zm-1.94,0c1.23,2.44,3.95,6.81,8.23,8.28-.08-.52-.16-1.04-.23-1.53-3.34-1.08-5.75-4.74-6.85-6.75h-1.14Zm-1.92,0c.9,2.96,3.54,8.91,10.59,10.93-.11-.64-.21-1.27-.31-1.87-4.9-1.5-7.9-6.54-9.13-9.06h-1.15Zm-1.09,0c-1.01,3.69-3.09,8.46-7.31,11.77,0,.21.01.41.02.62,0,.06,0,.13,0,.19.5-.34,1.78-1.15,3.06-1.31,1.64-.21,3.7,1.18,4.12,3.11.42,1.93-.48,8.69-1.96,11.4,0,0,2.36,2.21,2.36,4.44,0,0-2.02-2.81-3.17-3.37,0,0-.26-.53.07-1.26.33-.73.89-1.52,1.06-2.24.17-.71-.01-1.47-.01-1.47,0,0-1.13.3-2.18,1.73,0,0-.16.09-.34-.12-.18-.21-.03-.47.19-.67.23-.2,2.03-1.35,2.36-1.74.33-.39-.03-.7-.03-.7,0,0-.67.5-1.58.78-.83.25-2.6.19-3.57-.28.29,4.25.79,8.78,1.83,13.23,1.76,7.6,6.26,9.29,8.33,9.24,1.96-.04,8.43-2.94,14.53-9.25-1.95-4.74-3.48-10.27-4.63-15.53-.18-.11-.4-.2-.69-.19-.81.04-.91.28-1.09.57-.18.28-1.55,1.31-2.74,1.69-1.2.39-3.02.04-4.21-.67,0,0-.35,0-.14.42.21.42,3.69,3.11,3.55,3.99,0,0-1.12-.39-2.39-1.52-1.26-1.13-1.86-1.9-1.97-2.93-.11-1.02.04-1.73.04-1.73,0,0,.25-.28.25-.63s-.25-.46-.25-.46l.07-1.16s.7-.11,1.37-.88c.67-.78,2.07-1.06,3.27-.92,1.19.14,3.48,1.66,4.36,3.39l.35-.05c-.42-2-.8-3.95-1.12-5.79-7.77-2.06-10.56-8.63-11.45-11.69h-.36Zm-2.07,0h1.34c-.97,3.43-2.87,7.77-6.61,10.89-.01-.6-.02-1.2-.03-1.8,3.41-2.83,4.77-6.72,5.3-9.09h0Zm-1.84,0h1.12c-.5,2.17-1.72,5.57-4.59,8.18,0-.78,0-1.55,0-2.29,2.22-1.82,3.12-4.34,3.47-5.89h0Zm-1.66,0h.95c-.32,1.34-1.06,3.36-2.74,4.95,0-.74.02-1.44.03-2.09l.02.03c1.09-.74,1.55-1.95,1.75-2.9h0Zm-1.7,0h.98c-.15.66-.45,1.43-1.04,2,.02-.8.04-1.49.05-2h0Zm6.23,16.18c-1.02-1-2.27-1.76-4.28-1.35-.94.19-1.51.44-1.85.65-.02-.54-.04-1.08-.06-1.6.68-1.35,2.41-1.57,3.84-1.35,1.56.24,2.66,1.8,2.66,1.8v2.09l-.3-.24h0Zm21.69,23.67l-8.55-.09c2.38-1.71,4.53-3.64,5.9-5.15.81,1.91,1.69,3.68,2.65,5.24Z" style="fill: #fff; fill-rule: evenodd; stroke-width: 0px;"/>
            <path d="m69.5,69.44h14.38c-6.82-4.92-7.05-21.84-7.06-23.33-.32,2.43-1.79,11.3-7.33,23.33Z" style="fill: #231815; fill-rule: evenodd; stroke-width: 0px;"/>
            <path d="m85.03,70.12c.4.19.81.34,1.25.45,1.48.31,3.35-.15,5.31-1.04h15.04c.31.63.6,1.23.9,1.83h-38.94c.2-.42.4-.83.59-1.23h15.85Zm23.12,2.47c.23.47.47.93.71,1.4h-41.56c.22-.45.45-.92.69-1.4h40.17Zm5.5,10.45c.33.61.68,1.24,1.04,1.89h-52.83c.27-.54.58-1.16.95-1.89h50.84Z" style="fill: #ffe100; fill-rule: evenodd; stroke-width: 0px;"/>
            <path d="m72.07,75.21h4.43l-1.43,3.08h-4.43l1.43-3.08h0Zm9.76,0h4.43l-1.43,3.08h-4.43l1.43-3.08h0Zm9.53,0h4.68l-1.51,3.08h-4.68l1.51-3.08h0Zm9.54,0h5.04l-1.62,3.08h-5.04l1.62-3.08h0Zm10.18,3.08h-2.26l1.06-2.29c.38.74.78,1.5,1.2,2.29h0Zm-45.79.85h4.44l-1.43,3.08h-4.44l1.43-3.08h0Zm10.12,0h4.08l-1.43,3.08h-4.08l1.43-3.08h0Zm9.65,0h4.21l-1.51,3.08h-4.21l1.51-3.08h0Zm9.54,0h4.56l-1.62,3.08h-4.56l1.62-3.08h0Zm9.33,0h4.47l-1.43,3.08h-4.47l1.43-3.08h0Zm9.27,3.07h-1.26l.58-1.25c.22.41.45.82.68,1.25Z" style="fill: #ffe100; fill-rule: evenodd; stroke-width: 0px;"/>
            <path d="m125.41,70.71l8.58,16.67v1.59c-9.54-.3-13.02-11.32-15.1-16.03-2-4.52-18.12-39.83-21.01-46.16h4.14c2.54,4.73,19.47,36.34,23.39,43.93Z" style="fill: #231815; fill-rule: evenodd; stroke-width: 0px;"/>
            <path d="m96.55,26.78c.39.89,1.22,2.8,2.33,5.31l-3.45-3.84c-.08-.48-.15-.97-.23-1.47h1.35Zm3.22,7.36l-4.15-4.62c.15.95.29,1.87.44,2.75l5.65,6.29c-.69-1.57-1.34-3.05-1.94-4.42h0Zm2.84,6.47c.55,1.26,1.12,2.54,1.69,3.84l-7.59-8.15c-.15-.88-.3-1.8-.46-2.76l6.35,7.06h0Zm2.55,5.79c.63,1.44,1.27,2.89,1.9,4.3l-9.64-10.36c-.16-.89-.32-1.81-.49-2.79l8.23,8.84h0Zm2.76,6.26l-10.27-11.03c.15.82.3,1.61.45,2.36l10.99,11.3c-.38-.85-.77-1.73-1.17-2.63h0Zm1.99,4.48l-11.56-11.89c.27,1.34.54,2.56.81,3.69,1.55,1.69,3.67,3.98,5.35,5.69.37.38.75.77,1.12,1.16,1.92,2,3.76,3.91,5.82,4.8-.29-.65-.58-1.3-.87-1.96-.21-.48-.44-.98-.66-1.48h0Zm1.94,4.34c-2.47-.79-4.55-2.95-6.72-5.21-.36-.38-.73-.76-1.11-1.15-1.39-1.42-3.09-3.23-4.5-4.77.18.7.36,1.37.54,2.01,3.04,3.59,10.12,11.66,13.73,13.46-.63-1.41-1.27-2.86-1.93-4.33h0Zm2.32,5.22c.44.98.86,1.94,1.28,2.87-3.79-1.77-10.37-8.52-13.73-12.13-.42-1.11-.81-2.24-1.19-3.45,3.61,4.18,10.27,11.48,13.64,12.71h0Zm1.67,3.74c.52,1.17,1.03,2.29,1.51,3.35-3.75-2.12-10.28-8.05-13.31-10.89-.01-.03-.02-.05-.04-.08-.58-1.28-1.1-2.47-1.58-3.64,3.78,3.96,9.89,9.95,13.43,11.26h0Zm1.96,4.34c.49,1.07.95,2.07,1.38,3-3.29-1.7-8.59-5.77-12.05-8.53-.83-1.62-1.62-3.21-2.32-4.68,3.58,3.29,9.63,8.6,12.99,10.21h0Zm1.83,3.97c-3.01-1.36-8.04-5.1-11.73-8,.61,1.17,1.22,2.34,1.84,3.49,3.03,2.34,7.56,5.63,11.37,7.54-.43-.84-.92-1.86-1.48-3.03h0Zm2.02,4.07c-3.56-1.64-7.9-4.67-11.12-7.09.62,1.15,1.22,2.26,1.79,3.3,3.24,2.43,7.71,5.44,11.51,6.77-.65-.68-1.16-1.33-1.53-1.87-.18-.26-.4-.64-.66-1.11h0Zm3.3,4.04c1.15,1.01,2.59,2,4.27,2.68-4.17.51-10.64-3.09-13.88-5.09-.56-.99-1.33-2.37-2.22-3.97,3.54,2.55,8.11,5.44,11.82,6.38h0Zm5.51,3.12c1.09.32,2.26.51,3.52.52v.04c-.52.24-3.09,1.33-5.92,1.09-3.04-.25-6.37-1.38-11.16-5.02-.29-.22-.53-.35-.71-.67-.04-.07-.09-.16-.15-.26,3.86,2.28,10.45,5.58,14.42,4.29Z" style="fill: #fff; fill-rule: evenodd; stroke-width: 0px;"/>
            <path d="m126.43,26.78c-.02,1.12-.02,3.16.17,5.44.26,3.25,1.44,18.88,7.39,28.24v.66c-1.77-.14-8.24-.43-12.42,2.3-6.44-12.17-17.54-32.87-19.55-36.63h24.41Z" style="fill: #004ea2; fill-rule: evenodd; stroke-width: 0px;"/>
            <path d="m106.28,26.78h19.4c-.67,20.7,7.06,33.38,7.06,33.38-2.78-.02-5.27.33-7.35.8-6.75-11.86-16.94-30.27-19.11-34.18Z" style="fill: #ffe100; fill-rule: evenodd; stroke-width: 0px;"/>
            <path d="m124.72,61.11l-18.93-34.34h-3.77c1.95,3.65,12.45,23.24,18.96,35.52.96-.37,2.23-.8,3.74-1.18Z" style="fill: #e60012; fill-rule: evenodd; stroke-width: 0px;"/>
            <path d="m108.25,26.78h.78c.18,1.18.58,2.59,1.46,3.83,1.92,2.71,3.79,2.59,3.79,2.59,0,0-1.3-1.18-1.15-2.29.15-1.11,1.05-1.84,1.8-1.81.75.03,1.65,1.89,1.65,1.89.17-.65,1-1.51,1.85-1.46.85.05,2.03.9,2,2.41-.03,1.51-2.23,2.04-2.23,2.04,2.06,2.19.44,4.08-.44,4.2-.87.12-2-1.82-2-1.82-.56,3.35.47,5.71,1.89,7.2,1.42,1.49,3.17,1.61,3.17,1.61,0,0-1.82-1.66-1.27-3.21.56-1.54,2.15-1.08,2.15-1.08,1.2.29,1.47,1.83,1.47,1.83,0,0,.82-1.05,1.49-1.05s2.25.53,2.25,2.21-1.97,2.49-1.97,2.49c1.63,2.68.24,3.98-1.05,3.93-1.29-.05-1.82-2.3-1.82-2.3-.58,3.83.36,5.58,1.9,7.18,1.54,1.6,3.25,1.52,3.25,1.52-1.17-.69-1.78-1.94-1.81-2.79-.03-.85.72-1.73,1.89-1.71,1.17.03,1.91,1.97,1.91,1.97l.6-.41c.05.13.09.25.14.38.05.27.14.64.25.96.21.61.61,1.62.61,1.62.11.79.73,2.51,1.08,3.45-1.03.02-2.02.09-2.95.19-.23-.82-.42-1.96-.42-1.96-.5.29-.65,1.3-.68,2.11-.33.05-.66.1-.97.16.1-1.6.65-3.02.65-3.02-4.16.03-5.94-3.71-6.27-5.91-.33-2.2.4-5.52.4-5.52-6.66-1.13-7.02-6.45-7-8.72.02-2.27,1.18-3.15,1.18-3.15,0,0,.43.11,1.04,0,.61-.11.57-.86.25-1.36-.32-.5-1.03-.75-1.25-.21-.21.54-.86,1.4-1.35,1.54-.5.14-1.39-.22-1.39-.22-1.1-.57-2.28-1.79-3.53-3.73-.83-1.28-1.2-2.73-1.36-3.57h0Zm14.71,17.73c-.42,0-.77.32-.77.72s.34.72.77.72.77-.33.77-.72-.34-.72-.77-.72h0Zm6.22,11.23c-.44,0-.8.38-.8.85s.36.85.8.85.8-.38.8-.85-.36-.85-.8-.85Z" style="fill: #231815; fill-rule: evenodd; stroke-width: 0px;"/>
            <path d="m65.65,85.81c.89,1.41,2.13,3.86,2.71,7.16.87,4.91-.94,11.27-3.95,14.35l-1.58-1.87c4.29-4.34,4.48-9.35,3.65-13.17-.55-2.53-1.99-5.01-2.97-6.48h2.13Z" style="fill: #fff; fill-rule: evenodd; stroke-width: 0px;"/>
            <path d="m62.84,105.46l-.61-.72-1.44-1.7c.57-.71,1.1-1.56,1.56-2.48,1.57-3.15,2.24-7.2.29-10.12-.57-.86-1.37-1.62-2.44-2.23,0,0,.09-.12,1.23-2.41h2.08c.98,1.48,2.42,3.95,2.97,6.48.83,3.82.65,8.82-3.65,13.17Z" style="fill: #231815; fill-rule: evenodd; stroke-width: 0px;"/>
            <path d="m65.02,108.05c.54-.73,2.45-3.45,3.45-6.3,1.16-3.3,1.89-10.58-1.99-15.93h2.08c.41.93,1.75,4.11,2.02,6.64.32,2.99.47,9.36-2.22,14.26l-2.5,2.33-.84-.99Z" style="fill: #ffe100; fill-rule: evenodd; stroke-width: 0px;"/>
            <path d="m71.08,106.07c.31,0,.6.12.83.31,0-.04.02-.08.03-.11-.39-.23-.65-.65-.65-1.12,0-.72.61-1.31,1.37-1.31s1.37.59,1.37,1.31c0,.5-.29.93-.71,1.15l.03.19c.25-.26.57-.44.91-.44.72,0,1.25.63,1.25,1.41s-.58,1.41-1.3,1.41c-.67,0-1.24-.64-1.3-1.25-.08.18-.07.49.04.97.15.67.59,1.27.59,1.27h-1.79c.62-.67.64-1.9.63-2.06,0-.01,0-.04-.02-.07-.13.6-.65,1.05-1.27,1.05-.72,0-1.31-.61-1.31-1.36s.59-1.36,1.31-1.36h0Zm1.86-15.5c.31,0,.6.12.83.31,0-.04.02-.08.03-.11-.39-.23-.65-.64-.65-1.12,0-.72.61-1.31,1.37-1.31s1.37.59,1.37,1.31c0,.5-.29.93-.71,1.15l.03.19c.25-.26.57-.44.91-.44.72,0,1.25.63,1.25,1.41s-.58,1.41-1.3,1.41c-.67,0-1.24-.64-1.31-1.24-.08.18-.07.49.04.97.15.67.59,1.27.59,1.27h-1.79c.62-.67.64-1.9.63-2.05,0-.02,0-.04-.02-.07-.13.6-.65,1.05-1.27,1.05-.72,0-1.31-.61-1.31-1.36s.59-1.36,1.31-1.36h0Zm21.78,8.11c.31,0,.6.12.83.31,0-.04.02-.08.03-.1-.39-.23-.65-.65-.65-1.12,0-.72.62-1.31,1.37-1.31s1.37.59,1.37,1.31c0,.5-.29.93-.71,1.15l.02.19c.25-.26.57-.44.91-.44.72,0,1.25.63,1.25,1.41s-.58,1.41-1.3,1.41c-.67,0-1.24-.64-1.31-1.24-.08.18-.07.49.04.97.15.67.59,1.27.59,1.27h-1.79c.62-.67.64-1.9.63-2.06,0-.01,0-.04-.02-.07-.14.6-.66,1.05-1.27,1.05-.72,0-1.31-.61-1.31-1.36s.59-1.36,1.31-1.36h0Zm6.47-7.93c.31,0,.6.12.83.31,0-.04.02-.08.03-.1-.39-.23-.65-.65-.65-1.12,0-.72.61-1.31,1.37-1.31s1.37.59,1.37,1.31c0,.5-.29.93-.71,1.15l.03.19c.25-.26.57-.44.91-.44.72,0,1.25.63,1.25,1.41s-.58,1.41-1.3,1.41c-.67,0-1.24-.64-1.3-1.24-.08.18-.07.49.04.97.15.67.59,1.27.59,1.27h-1.79c.62-.67.64-1.9.63-2.06,0-.02,0-.04-.02-.07-.13.6-.65,1.05-1.27,1.05-.72,0-1.31-.61-1.31-1.36s.59-1.36,1.31-1.36h0Zm12.52-.39c.32,0,.6.12.83.31,0-.04.02-.08.03-.11-.39-.23-.65-.65-.65-1.12,0-.72.61-1.31,1.37-1.31s1.37.59,1.37,1.31c0,.5-.29.93-.71,1.15l.03.19c.25-.26.57-.44.91-.44.71,0,1.24.63,1.24,1.41s-.58,1.41-1.3,1.41c-.67,0-1.24-.64-1.31-1.24-.08.18-.07.49.04.97.15.67.59,1.27.59,1.27h-1.79c.62-.67.64-1.9.63-2.06,0-.02,0-.04-.02-.07-.14.6-.65,1.05-1.27,1.05-.72,0-1.31-.61-1.31-1.36s.59-1.36,1.31-1.36Z" style="fill: #fff; fill-rule: evenodd; stroke-width: 0px;"/>
            <path d="m95.19,139.95l.13.21,1.07-.98c-.85-1.7-2.92-6.37-3.21-11.84-.36-6.9,1.02-14.96,6.32-20.63,5.3-5.66,10.64-7.6,17.3-7.14,6.34.43,11.04,2.63,13.78,6.97l1.29-1.23s-6.84-6.78-14.04-7.02c-7.2-.24-16.67.67-22.58,12.11-5.9,11.44-3.17,23.51-.05,29.56h0Zm6.55-5.67c-3.17-8.54-2.17-14.99,2.48-20.71,4.8-5.92,10.87-5.98,14.51-5.18,2.7.59,5.34,2.37,6.52,3.25l-1.01.97c-2.45-1.88-7.14-3.87-11.38-2.87-4.24,1.01-9.81,5.27-11.02,11.32-1.21,6.04,1.21,12.02,1.21,12.02l-1.32,1.21Z" style="fill: #ffe100; fill-rule: evenodd; stroke-width: 0px;"/>
            <path d="m118.87,118.08l-10.12,9.77s-1.12-4.67,1.12-7.75c2.23-3.07,6.42-4.12,9-2.02Z" style="fill: #e60012; fill-rule: evenodd; stroke-width: 0px;"/>
            <path d="m133.38,116.18c.6,0,1.1.49,1.1,1.1s-.49,1.1-1.1,1.1-1.1-.49-1.1-1.1.49-1.1,1.1-1.1h0Zm-5.45,8.44c.61,0,1.1.49,1.1,1.1s-.49,1.1-1.1,1.1-1.1-.49-1.1-1.1.49-1.1,1.1-1.1h0Zm-9.36,7.97c.61,0,1.1.49,1.1,1.1s-.49,1.1-1.1,1.1-1.1-.49-1.1-1.1.49-1.1,1.1-1.1h0Zm-4.67,4.83l.77-2.12-1.82.29s-.31-1.16-.61-1.18c-.29-.02-.85.83-1.73,2.36-.88,1.53-1.05,2.33-1.05,2.57s1.1.18,2.39.02c1.29-.17,3.07-.89,3.07-.89l-1.03-1.05h0Zm-6.35.89c.61,0,1.1.49,1.1,1.1s-.49,1.1-1.1,1.1-1.1-.49-1.1-1.1.49-1.1,1.1-1.1h0Zm18.16-16.54c.61,0,1.1.49,1.1,1.1s-.49,1.1-1.1,1.1-1.1-.49-1.1-1.1.49-1.1,1.1-1.1h0Zm-2.32,4.82l-1.9.49s-.21-1.19-.54-1.17c-.33.02-2.59,3.42-2.77,4.96,0,0,2.67.33,5.4-.99l-.93-1.05.73-2.24h0Zm-7.62,6.37c.6,0,1.1.49,1.1,1.1s-.49,1.1-1.1,1.1-1.1-.49-1.1-1.1.49-1.1,1.1-1.1h0Zm-8.81,8.68c.6,0,1.1.49,1.1,1.1s-.5,1.1-1.1,1.1-1.1-.49-1.1-1.1.49-1.1,1.1-1.1h0Zm25.81-22.77l-1.71.14s-.5-1.17-.82-1.17-2.31,3.2-2.63,4.98c0,0,1.35.36,5.37-.92l-.93-1,.71-2.03h0Zm-7.66,6.14c.61,0,1.1.49,1.1,1.1s-.49,1.1-1.1,1.1-1.1-.49-1.1-1.1.49-1.1,1.1-1.1h0Zm-8.75,4.66c.6,0,1.1.49,1.1,1.1s-.49,1.1-1.1,1.1-1.1-.5-1.1-1.1.49-1.1,1.1-1.1h0Zm-6.61,11.5c.61,0,1.1.49,1.1,1.1s-.49,1.1-1.1,1.1-1.1-.49-1.1-1.1.49-1.1,1.1-1.1h0Zm24.23-18.33l-26.25,24.56,1.17,1.22,25.07-23.44v-2.34h0Zm0-14.48l-32.1,30.4,1.01,1.3,31.09-29.22v-2.48Z" style="fill: #fff; fill-rule: evenodd; stroke-width: 0px;"/>
            <polygon points="108.41 152.66 98.41 138.92 99.84 137.66 109.84 151.45 108.41 152.66" style="fill: #fff; fill-rule: evenodd; stroke-width: 0px;"/>
            <polygon points="133.98 104.59 133.98 107.08 101.62 138.12 100.61 136.84 133.98 104.59" style="fill: #ffe100; fill-rule: evenodd; stroke-width: 0px;"/>
            <polygon points="133.98 126.63 109.8 149.76 110.62 150.86 133.98 128.77 133.98 126.63" style="fill: #e60012; fill-rule: evenodd; stroke-width: 0px;"/>
            <path d="m97.37,115.65l1.07-.97s-.97,3.57-3.68,5.23c0,0,0-5.88,3.39-7.08,0,0-1.62,3.31-1.68,3.61-.07.29.16-.1.9-.78h0Zm31.74-7.71l.43-.42c-.1-.5-.45-1.17-1.62-2.25-1.61-1.47-3.22-2.3-3.52-2.14-.3.17.03,1.25,1.17,3.05,1.14,1.8,2.14,2.28,2.14,2.28l.19-.78c-.92-1.05-.55-1.8-.55-1.8.37.69,1.23,1.64,1.77,2.05h0Zm-18.55-2.44l.61-1.26s-1.53.75-2.79,2.32c-1.26,1.57-.34,2.22.61,2.08.95-.14,4.73-4.07,4.73-4.07l-3.16.92h0Zm-9.36,3.66l1.82-.47s-2.09,2.89-5.41,3.33c0,0,.97-3.19,2.59-4.47,1.61-1.28,2.83-.77,2.83-.77,0,0-.77,1.45-2.12,2.09,0,0-.27.5.3.3h0Zm-5.1,18.87s-.28,4.22.4,4.47l.22-1.63s.37,1.14.37,2.28-.31,3.48-.31,3.48c0,0-2.04-2.28-2.13-4.22-.03-.68.49-4.04,1.45-4.38h0Zm1.8,1.95l-1.12-1.73s-.46,3.8,3.41,4.93l-.63-1.38s-.03-1.93-.83-3.6c-.8-1.67-2.01-2.56-2.01-2.56,0,0,1.49,3.49,1.17,4.35h0Zm-.45,8.23l.45-.41c-.05-.17-.11-.37-.14-.6l-.12-.37s-.28.31-.28.86c0,.16.04.34.09.52h0Zm.85-.77l.29-.26-.33-.72s.01.48.04.98h0Zm.68-.62l.29-.27-.58-.74s.13.52.29,1.01h0Zm.7-.65l-.93-2.09,1.89,1.21-.96.88h0Zm-3.61-15.74l.06-.57s-1.52.49-2.23,2.66c-.71,2.17.11,6.69.11,6.69,0,0,3.03-1.8,2.46-7.32,0,0-1,1.83-1.29,1.91,0,0,.32-1.46.89-3.37h0Zm1.37-.6l-.43-.31s-.17,1.23-.14,2.94c.03,1.71,1.03,4.06,2.29,4.46l-.23-7.49s-.89.11-.97,1.09c-.08.97-.11,3.11-.11,3.11,0,0,.06-3.17-.4-3.8h0Zm27.64-12.33c-.72-.28-2.11-.72-2.11-.11s3,1.28,3,1.28c-.03.56-1.8.58-2.89.44-1.08-.14-2.8-1.03-2.66-1.66.14-.64,1.5-1,3.05-.86,1.55.14,2.08,1.03,2.08,1.03l-.47-.11h0Zm-3.84-2.92l.47.09s-1.04-1.77-.79-1.99c.25-.22,1.73,2.12,2.17,1.99.44-.13.66-.57-.69-1.87-1.35-1.3-2.8-2.18-4.72-2.03,0,0-.6,2.47,3.56,3.8h0Zm-20.85,10.46l.39-3.12s-.97.88-1.55,3.02c-.58,2.14.49,4.39.49,4.39,0,0,1.94-3.54,2.39-4.64.45-1.1-.06-3.31-.06-3.31,0,0-1.42,3.41-1.65,3.67h0Zm4.62-6.11c.54-.03,2.32-2.08,2.32-2.08-1.58,5.14-4.1,5.18-4.1,5.18-.44-1.04.2-2.69.2-2.69,1.11-2.05,2.32-2.52,2.32-2.52l-.74,2.12h0Zm13.96-4.66l.44.19s-1.04.41-1.01.76c.03.35,1.32.19,1.73.19s.28.57-.72,1.04c-1.01.47-5.48-.22-5.82-.41-.35-.19,1.79-2.75,5.38-1.77h0Zm-6.18-.92l2.96-.24s-1.97-.79-1.9-1.26c.07-.48,1.83.1,3.09.55,0,0-.78-1.2-2.45-1.61-1.67-.41-4.45.38-4.79.92,0,0,1.22,1.61,3.09,1.64h0Zm-5.06,1.62l.27.18s-1.92.6-3.39.75c-1.47.15-2.64-.51-2.64-.51,0,0,2.79-3.93,7.83-2.37,0,0,.03.3-1.53.72-1.56.42-2.52.57-2.52.57,0,0,1.02.36,1.98.66Z" style="fill: #ffe100; fill-rule: evenodd; stroke-width: 0px;"/>
            <path d="m124.73,144.34l.18-.03s1.2.52,1.28.78c.08.26-.26.91-.88,1.2-.62.29-1.02-.26-1.02-.76s.08-.99.44-1.2h0Zm-.01,4.96l-.35.11s-.92.03-1.07-.46c-.14-.49-.09-1.76.63-1.9.72-.14,1.53.84,1.56,1.41.03.58-.43.6-.78.84h0Zm.64-11.89l-9.59,8.93s1.93,3.24,4.27,5.49c2.33,2.25,3.2,2.81,3.67,2.81s1.03-.83.87-2.17c-.16-1.34-1.38-2.57-3.75-4.7,0,0,0-2.17.2-3,.2-.83.2-1.42.12-1.62-.08-.2-.12-.28.32-.28s.2.16.2.16c0,0-.2.99-.2,1.82v2.53l1.11,1.26s-.04-1.94,1.66-2.13c0,0-.47-.55-.43-1.26.04-.71.4-1.26.91-1.26s.64-.03.64-.03c0,0-.47-.44-.37-1.21.1-.76,1.33-1.41,1.33-1.41,0,0-.64-.47-.47-1.16.17-.69,1.21-1.13,1.21-1.13l-1.68-1.63h0Zm-2.97,14.31s.74.67,1.64.96c.17.05.33.11.23.44-.1.33-.27.28-.44.23-1.05-.34-1.89-1.1-1.89-1.1-.13-.12-.26-.23-.04-.49.23-.26.36-.15.49-.03h0Zm3.4-2.36c-.89.66-1.76.72-1.76.72,1.67,2.14,1.24,4.27,1.24,4.27,1.38-.06,2.37-1.07,2.14-2.25-.23-1.18-1.47-2.94-1.47-2.94l-.14.2h0Zm2.2-8.68l-.1.21s-.31.21-.86.21-.65-.47-.57-.86c.08-.39.47-.62,1.02-.6.55.03.55.55.52,1.04h0Zm-.21.96l-.34.23s1.49,1.25,2.06,2.37c0,0,.26-1.64.11-2.35-.16-.7-.89-1.04-.89-1.04,0,0-.05.24-.94.78h0Zm-1.43.34h.21s.89.52.91.81c.03.29-.39.89-1.09,1.04-.7.16-.75-.42-.75-.78s.34-.97.73-1.07h0Zm-.73,5.36c.98,1.42,2.31,4.53,2.31,4.53,1.33-.98,1.73-2.37,1.18-3.67-.55-1.3-2.25-2.63-2.25-2.63-.23.66-1.5,1.47-1.5,1.47l.26.29h0Zm1.37-2.5l-.4-.32s1.04-.4,1.46-1.35c0,0,1.44,1.51,1.64,2.67.2,1.17-.3,1.81-.3,1.81,0,0-1.34-1.91-2.4-2.81h0Zm-1.47-7.98l2.98-2.63s-1.24,1.84-1.22,4.24l-1.76-1.6Z" style="fill: #fff; fill-rule: evenodd; stroke-width: 0px;"/>
            <path d="m112.29,156.4l-1.03-.16s2.31-1.75,3.74-2.63c1.21-.74,3.03-1.2,5.05-1.15.09.17.21.37.37.6-2.14,1.05-4.55,1.67-5.34,1.71-.96.04-.92.56-.64.52.28-.04,1.91-.08,3.5-.72.88-.35,1.98-.77,2.79-1.09.15.2.33.4.51.58-.58.43-1.39,1.01-2.18,1.58-1.51,1.07-4.46.56-6.76.76h0Zm9.32-2c-.47,1.54-1.78,5.8-2.07,5.86-.36.08-2.03.36-2.15,1.91-.12,1.55.24,2.36.24,2.36l1.39-1.45,2.67,3.06-2.93,3.14-1.17-1.39s-.29,1.59-.25,2.48c.04.89.46,1.81,1.65,1.78,1.19-.04,1.77-1.27,1.77-2.01s-.27-2.24-.27-2.24c0,0,.12-.27,1.04-.04.92.23,2.23.58,2.57-1.08.34-1.66-1.04-2.35-1.58-2.35h-1.54s-.31.04-.19-.39c.12-.42.58-1.5-.35-3.28,0,0,1.78-3.82,2.42-5.71-.07-.02-.14-.04-.21-.06-.38-.12-.73-.34-1.04-.59h0Zm-5.53,11.77l1.33,1.46c-.4.38-.99.57-2,.53-1.01-.04-1.71-.7-1.64-1.99.06-1.29.8-2.14,1.6-2.14s1.94.95,1.94.95l-1.22,1.18h0Zm2.74,2.27l-2.04-2.31,2.21-2.22,1.98,2.22-2.15,2.31h0Zm4.75-13.32c.52-.02,1.03-.17,1.46-.35.91.44,2.4,1.19,2.9,1.61.74.62,2.49,1.53,2.49,3.58v3.23s-.25-.15-1.41-1.11c-1.16-.96-2.34-1.46-4.14-3.13-1.8-1.68-1.43-3.08-1.43-3.08v-.18c2.46,1.54,5.1,4.52,5.1,4.52l.39-.47c-.15-.54-2.98-2.76-4-3.58-.65-.52-1.12-.86-1.38-1.04h0Zm6.36-19.97l-.07-.24s-.59-.14-1.19.38c-.6.53-.67,1.29-.55,1.56.12.26,1.72-.24,1.81-1.7h0Zm.12,1.1s-.5,3.45-.74,3.71c-.24.26-1.43-1.13-1.55-1.61-.12-.48.21-.84.6-.91.67-.13,1.16-.78,1.69-1.2Z" style="fill: #ffe100; fill-rule: evenodd; stroke-width: 0px;"/>
            <g>
              <path d="m72.45,119.55h18.81c-.23,1.33-.38,2.64-.44,3.9-.1,1.86.04,3.77.3,5.6h-18.81c.23-1.33.38-2.64.44-3.9.1-1.86-.04-3.76-.31-5.6Z" style="fill: #231815; fill-rule: evenodd; stroke-width: 0px;"/>
              <polygon points="80.74 122.19 78.5 122.24 79.62 124.08 78.63 126.35 80.43 126.35 81.72 128.06 82.62 126.35 85.07 126.35 83.99 124.08 85.01 122.02 83.12 122.02 82.15 120.56 80.74 122.19" style="fill: #ffe100; fill-rule: evenodd; stroke-width: 0px;"/>
            </g>
          </g>
          <g>
            <path d="m37.98,111.75l10.26-10.05s-1.91-3.04-4-5.04c0,0,1.95.09,3.78-.52,1.82-.61,5.21-3.65,5.3-4.08.09-.43-.69-.48-3.47-.48s-2.95-.04-3.69.09c-.74.13-3.04,1.62-3.04,1.62,0,0,.93-3.73,1.19-4.25,0,0,1.29-.08,1.83-1.22h2.89v-2.95c.9-.41,1.53-1.34,1.53-2.43h0c0-1.08-.63-2.02-1.53-2.43v-3.32h-2.7c-.3-.6-.93-1.01-1.66-1.01h0c-.73,0-1.36.42-1.66,1.01h-2.88v3.34c-.87.42-1.48,1.34-1.48,2.4h0c0,1.06.61,1.98,1.48,2.4v2.98h2.5s-1.44,2.19-1.89,4.05c0,0-.51-2.34-2.67-3.76-2.16-1.42-4.19-2.5-5.01-3.62l-.65.26s-.09,2.76,0,4.4c.09,1.64,1.81,3.54,4.62,4.45,0,0-1.46,1.45-1.46,2.44,0,0-1.8,1.29-1.87,2.11-.07.82-.07,2.35-.07,2.35,0,0-.58.58-.58,1.36s.06,4.24.06,4.24c0,0,.18.54.47,1.04.29.5,0,.9-.07,1.72-.07.83-.57,2.08-.79,3.34-.22,1.25-.04,2.01.54,2.12.58.11,1.29-.11,1.29-.11,0,0,1.96-1.01,1.84-3.92l1.6,1.48Z" style="fill: #004ea2; fill-rule: evenodd; stroke-width: 0px;"/>
            <path d="m67.18,109.44l-5.35,4.9c3.17,8.54,2.17,14.99-2.48,20.71-4.8,5.92-10.87,5.98-14.51,5.18-2.7-.59-5.34-2.37-6.52-3.25l-5.32,5.1c2.74,4.34,7.43,6.53,13.77,6.97,6.66.46,12-1.48,17.3-7.14,5.3-5.66,6.69-13.73,6.32-20.63-.29-5.47-2.36-10.14-3.21-11.84Z" style="fill: #231815; fill-rule: evenodd; stroke-width: 0px;"/>
            <g>
              <path d="m93.84,162.8c-5.07-11.45.77-21.75.77-21.75,0,0-2.55-5.59-3.48-11.99h-3.53c0,.16-.01.33-.02.5v.02c0,.24-.02.49-.03.73,0,.09,0,.18-.01.26,0,.2-.02.4-.03.6,0,.08,0,.17-.01.26,0,.02,0,.04,0,.06-.01.21-.02.43-.04.64,0,.11-.01.23-.02.34,0,.16-.02.31-.03.47,0,.08,0,.16-.01.23-.01.18-.02.36-.04.54,0,.14-.02.29-.03.44-.02.22-.03.44-.05.66,0,0,0,.02,0,.03-.02.26-.04.51-.06.77,0,.05,0,.11-.01.16-.04.56-.09,1.13-.14,1.69,0,0,0,.02,0,.02-.05.54-.1,1.09-.16,1.63,0,.04,0,.08-.01.11h0s0,.07,0,.1c-.05.53-.11,1.06-.17,1.59,0,.02,0,.05,0,.07-.03.26-.06.52-.09.79,0,.02,0,.04,0,.05-.09.83-.19,1.64-.29,2.45,0,.04,0,.08-.01.11,0,.03,0,.06-.01.09-.13,1.06-.27,2.11-.41,3.13,0,.05-.02.11-.02.16-.03.24-.07.48-.1.72h0c-.03.2-.05.39-.08.58-.02.13-.04.25-.06.38-.14.94-.27,1.86-.41,2.74,0,.05-.01.09-.02.14,0,.03,0,.06-.01.09-.06.36-.11.71-.17,1.05-.01.1-.03.2-.05.29-.19,1.17-.38,2.27-.55,3.29-.02.09-.03.18-.05.27-.02.11-.04.22-.06.33-.28,1.58-.53,2.93-.74,4,0,.03-.01.06-.02.09-.05.23-.09.45-.13.66,0,.05-.02.1-.03.15-.01.07-.03.13-.04.19,0,.02,0,.03,0,.05h10.49Zm-6.4-30.33l.02-.34c0,.11-.01.23-.02.34h0Zm-1.81,16.99l.06-.38c-.02.13-.04.25-.06.38h0Zm-11.25-10.59l-.23.73s-.02.07-.03.1c-.04.11-.08.23-.11.34-.01.04-.02.08-.04.11-.03.09-.06.19-.09.28-.03.08-.05.15-.08.22h0c-.05.16-.1.3-.15.45,0,0,0,.02,0,.03-.02.06-.04.12-.06.17-.18.5-.37,1.02-.58,1.55-.1.25-.2.51-.3.77-.04.08-.07.17-.1.26-.04.09-.07.18-.11.27-.06.14-.11.27-.17.41,0,.02-.01.04-.02.05-.05.11-.09.22-.14.34-.04.09-.08.19-.12.28-.04.08-.07.16-.11.25-.03.07-.06.14-.09.21-.05.12-.11.24-.16.37-.03.06-.06.13-.09.19-.06.12-.11.25-.17.38-.02.04-.04.09-.06.13-.05.11-.1.22-.15.32-.06.12-.12.25-.17.37-.02.03-.03.07-.05.1-.06.12-.12.25-.18.37-.04.09-.09.19-.13.28-.04.08-.08.15-.11.23-.06.12-.12.23-.17.35-.03.05-.05.11-.08.16-.06.12-.12.23-.18.35-.05.1-.1.2-.15.29-.04.09-.09.17-.13.26-.05.09-.09.17-.14.26-.05.09-.1.19-.15.29-.05.1-.11.2-.17.3-.05.09-.1.18-.15.26-.04.07-.08.13-.11.2-.06.11-.13.23-.2.35-.18.31-.36.62-.55.94-.03.04-.05.09-.08.13,0,.01-.01.02-.02.03-.03.04-.05.08-.08.12-.25.42-.52.84-.79,1.25-.05.08-.1.16-.16.24-.08.13-.17.26-.25.38-.03.04-.06.08-.08.13-.21.31-.43.62-.64.93-.03.05-.06.09-.1.14-.07.1-.15.2-.22.3-.06.09-.13.18-.19.27-.04.05-.08.11-.12.16-.09.12-.18.24-.27.37-.05.07-.11.14-.16.21-.07.09-.15.19-.22.29-.06.08-.12.15-.18.23-.08.1-.15.19-.23.29-.06.08-.12.15-.19.23-.07.09-.15.18-.22.27-.06.07-.12.15-.19.22-.07.09-.15.17-.22.26-.08.09-.16.19-.25.28-.05.06-.1.12-.16.18-.08.09-.17.19-.25.28-.07.08-.15.16-.22.24-.07.08-.14.15-.21.23-.09.1-.18.19-.28.29-.05.05-.1.1-.15.16-.09.09-.18.18-.27.28-.08.08-.16.16-.23.23-.06.06-.12.12-.19.18-.09.08-.17.17-.26.25-.09.08-.17.16-.25.24-.07.07-.15.14-.22.21-.08.08-.17.15-.25.23-.08.07-.15.14-.23.21-.07.06-.13.11-.2.17-.11.09-.21.18-.32.27h-11.38c-2.93-3.06-5.89-4.85-7.46-5.64l2.46-4.15c15.11.96,21.69-4.19,26.72-12.27,2.57-4.13,3.6-8.42,3.97-11.69h2.06c-.1,1.17-.22,2.43-.38,3.68,0,0,0,0,0,0,0,.02,0,.05,0,.07,0,.02,0,.05,0,.07,0,.02,0,.05,0,.07,0,0,0,.02,0,.03,0,.02,0,.03,0,.05-.02.14-.04.29-.06.43-.01.08-.02.15-.03.24h0c-.01.09-.02.17-.04.25,0,0,0,.02,0,.02,0,.02,0,.03,0,.04-.01.08-.03.16-.04.25,0,.01,0,.02,0,.04-.03.18-.07.37-.11.57,0,.02,0,.05-.02.07-.02.08-.03.16-.05.24,0,.02-.01.05-.02.07-.02.09-.04.18-.06.27,0,.04-.02.08-.03.12-.02.08-.04.16-.06.25,0,0,0,.02,0,.03-.03.11-.06.23-.09.35,0,.01,0,.03,0,.04-.03.1-.05.2-.08.3,0,.04-.02.08-.03.12-.02.08-.04.17-.07.25-.02.07-.04.14-.06.22,0,.02-.01.04-.02.06-.02.07-.04.15-.06.22,0,0,0,.02,0,.02-.03.11-.06.22-.09.33-.02.05-.03.11-.05.16-.02.08-.05.16-.07.24-.02.05-.03.1-.05.15-.02.08-.05.15-.07.23-.03.1-.06.19-.09.29Z" style="fill: #e60012; fill-rule: evenodd; stroke-width: 0px;"/>
              <path d="m76.16,129.06c-.12,1.4-.28,2.91-.48,4.4-.66,4.84-5.55,20.67-15.9,29.34h23.57c.97-4.92,3.81-20.26,4.25-33.74h-11.43Z" style="fill: #231815; fill-rule: evenodd; stroke-width: 0px;"/>
              <path d="m84.28,129.06v.39l.6,1.03-1.42,2,1.42,2.23-1.53,1.54,1.19,1.88-1.53,1.66.99,1.98-1.93,1.71,1.2,2.36-1.92,2.35.75,3.01-1.79,2.19,1.2,2.3-2.89,2.52,1.52,2.78-2.51,1.82h2.78l1.34-1.12-1.14-3.54,2.37-1.91-1.25-3.02,2.22-2.21-.87-2.61,1.7-2.03-1.04-2.17,1.82-1.96-1.07-2.16,1.34-1.3-.71-2.42,1.11-1.18-.79-2.44.82-1.45-.74-1.46v-.76h-1.25Zm-3.48,0h1.81c-.09,2.59-.46,10.43-1.93,17.51-1.58,7.56-3.88,14.6-4.43,16.24h-5.78c5.58-8.44,9.11-22.95,9.61-26.92.39-3.15.63-5.71.72-6.82h0Zm-3.07,0h1.18v1.37l-.49.41.66,2.16-1.39.95.93,2.87-1.52,1.36,1.21,2.23-2.08,1.83.79,2.17-2.41,1.59,1.22,2.47-2.89,2.32,1.42,2.95-3.53,2.26.46,2.68-3.51,2.63.58,1.5h-2.78l-1.08-1.31,4.77-3.57-.63-2.8,3.24-1.69-.99-2.88,2.69-2.15-.84-2.56,2.19-1.64-.38-3.11,2.1-1.68-1.21-2.11,1.27-1.36-.26-2.19,1.47-1.21-.81-1.93.58-.63v-.91Z" style="fill: #ffe100; fill-rule: evenodd; stroke-width: 0px;"/>
              <path d="m73.58,129.06c-.35,2.34-1.75,9.35-6.49,14.92-5.67,6.66-12.87,9.27-23.22,8.26l.71-1.2c8.49,1.26,14.46-2.18,14.46-2.18,8.01-4.24,11.99-12.35,13.28-19.8h1.26Z" style="fill: #fff; fill-rule: evenodd; stroke-width: 0px;"/>
            </g>
            <path d="m48.88,163.67c-.16-.29-.32-.58-.48-.87h53.75c-.13.26-.28.55-.44.87h-52.83Zm5.83,10.94c-1.35-2.66-2.8-5.41-4.79-9.05h50.84c-1.03,2.08-2.47,4.98-4.48,9.05h-41.57Zm1.32,2.64c-.21-.42-.41-.83-.62-1.24h40.17c-.08.16-.15.31-.23.47-.13.26-.25.51-.37.76h-38.94Z" style="fill: #231815; fill-rule: evenodd; stroke-width: 0px;"/>
            <path d="m87.7,221.84c0-2.1.08-8.43,1.05-13.74,1.18-6.46,6.31-14.4,9.67-21.11s8.22-15.19,5.76-26.37c0,0-7.42,12.92-11.14,22.82-3.72,9.9-5.37,16.56-5.57,19.25-.16,2.29-.32,15.29-.36,19.15h.59Z" style="fill: #e60012; fill-rule: evenodd; stroke-width: 0px;"/>
            <path d="m68.77,202.69l.11-.1s.45-.32.8-.34c.35-.02.34.3.25.8-.09.51-.58,1.09-.99,1.08-.41-.01-.76-.59-.7-.88.05-.29.53-.56.53-.56h0Zm4.72.89l.46.41s0-.87-.44-1.54c-.44-.67-1.06-.92-1.79-.82-.73.1-1.74,1.36-1.48,2.29,0,0,.07.16.39.15.33-.02.37-.33.62-.8.25-.47.46-.59.8-.69.34-.1,1.11.61,1.45,1h0Zm1.22-1.21l.15.08s.08.57-.23.7c-.31.13-.52-.07-.5-.38.02-.31.31-.36.59-.41h0Zm-6.11,3.13l6.5-.46s-1.51,1.66-3.02,1.91c-1.51.25-3.51-1.27-3.48-1.45h0Zm6.71,2.89l.32-.21s.32.25.32.74-1.09,1.31-2.74,1.59c-1.65.28-4.18-.32-6.25-2.82,0,0,.32,0,1.23.35.91.35,2.28,1.34,3.83,1.24,1.54-.11,2-.07,3.3-.88h0Zm1.29-14.44l.29.2s.94.27,1.84.51c.9.25.67.66.41.96-.27.31-.86.94-1.33.45-.47-.49-1.55-1.41-2.09-1.45-.53-.04-.84.51-.8,1.27.04.76.78,1.08,1.06,1.37.29.29.1.55-.33.53-.43-.02-1.37-.65-1.51-1.74-.14-1.08.29-2.11.86-2.41.57-.31,1.39-.06,1.6.31h0Zm4.33-9.62l-.06.18s-.92,1.13-2.48,1.48c-1.56.35-2.65-.24-3.45-.68-.79-.45-.88-.71-.79-.92.09-.21.68-.27,1.06.06.38.33,1.06.74,2,.71.94-.03,1.89-.12,2.57-.5.68-.38.91-.56,1.15-.32h0Zm-1.03,2.79l.12.21s.09.5-.35.56c-.44.06-.92-.27-1.03-.45-.12-.18-1.24-.18-1.65.12-.41.3-.65.59-1.06.56-.41-.03-.62-.33-.56-.65.06-.33,1.77-.95,2.6-.98.83-.03,1.24.12,1.95.62h0Zm-2.45,3.59l.06-.18s.74-.06,1.12.06c.38.12.44.39.8.39s.71-.44,1.03-.68c.33-.24.77.18,1.3.24.53.06.5-.18.5-.71s-.03-2.19-.59-2.13c-.56.06-1.03,1.04-1.59,1.07-.56.03-1.15-.18-1.89-.44-.74-.27-.86-.12-1.39.15-.53.27-1.18.65-1.83.53-.65-.12-1.3-.74-1.74-.77s-.41.21-.27.74c.15.53.24.65.41.95.18.3-.06,1.25.35,1.27.41.03.74-.44,1.21-.44s.8.12,1.27.3c.47.18,1,.24,1.24-.33h0Zm3.26,12.68c.41-.03.42-.28.6-.68.21-.46-.11-.76-.39-.76s-.76.41-.79.68c-.03.27.19.75.59.76h0Zm4.44,0c-.25,0-.25-.05-.47-.35-.22-.3-.54-.79-.96-.91-.43-.11-.58.1-.98.73-.39.64-.38.97-.82.95-.44-.02-.5-.29-.43-.86.08-.57.74-1.21,1.26-1.57.52-.37,1.2-.32,1.88.4.68.71.68,1.57.68,1.57l-.16.03h0Zm.9-1.06c-.01-.19-.02-.37-.03-.56-.22-.13-.93-.15-.91.2.02.38.49.75.49.75l.17-.03c.13-.09.22-.21.28-.35h0Zm.14,2.66c-.01-.33-.03-.66-.05-.99-.68.98-2.27.91-3.42.99-1.21.09-2.64-.15-2.64-.15.86,1.15,2.44,1.82,3.13,1.82s1.66-.35,2.4-.91c.26-.2.44-.48.56-.76h0Zm-16.36,16.86h-.88c-.03-.23-.05-.49-.09-.78.34.26.66.52.96.78h0Zm2.4,0c-.79-1.24-2.09-2.91-3.74-3.75.1.75.18,1.43.26,2.03.79.55,1.53,1.18,2.12,1.72h1.36Zm1.89,0c-1.08-1.9-3.16-4.91-5.94-5.98.07.49.14.95.2,1.4,2.17.92,3.8,3.15,4.67,4.58h1.07Zm1.94,0c-1.23-2.44-3.95-6.81-8.23-8.28.08.52.16,1.04.23,1.53,3.34,1.08,5.75,4.74,6.85,6.75h1.14Zm1.92,0c-.9-2.96-3.54-8.91-10.59-10.93.11.64.21,1.26.31,1.87,4.9,1.5,7.9,6.54,9.13,9.06h1.15Zm1.09,0c1.01-3.69,3.09-8.46,7.31-11.77,0-.21-.01-.41-.02-.62,0-.06,0-.13,0-.19-.5.34-1.78,1.15-3.06,1.31-1.64.21-3.7-1.18-4.12-3.11s.48-8.69,1.96-11.4c0,0-2.36-2.21-2.36-4.44,0,0,2.01,2.81,3.17,3.36,0,0,.26.53-.07,1.26-.33.73-.89,1.52-1.06,2.24-.16.71.01,1.47.01,1.47,0,0,1.13-.3,2.17-1.74,0,0,.16-.09.34.12.18.21.03.47-.2.67-.23.2-2.03,1.35-2.36,1.74-.32.39.03.7.03.7,0,0,.67-.5,1.58-.78.83-.25,2.6-.19,3.57.28-.29-4.25-.79-8.78-1.83-13.23-1.76-7.6-6.26-9.29-8.33-9.24-1.96.04-8.43,2.94-14.53,9.25,1.96,4.74,3.48,10.27,4.63,15.53.18.11.4.2.69.19.81-.04.91-.28,1.09-.57.18-.28,1.55-1.31,2.74-1.69,1.19-.39,3.02-.04,4.22.67,0,0,.35,0,.14-.42-.21-.42-3.69-3.11-3.55-3.99,0,0,1.12.39,2.39,1.52,1.26,1.13,1.86,1.9,1.97,2.93.11,1.02-.04,1.73-.04,1.73,0,0-.25.28-.25.64s.25.46.25.46l-.07,1.16s-.7.11-1.37.88c-.67.78-2.07,1.06-3.27.92-1.2-.14-3.48-1.66-4.36-3.39l-.35.05c.42,2,.8,3.95,1.12,5.79,7.77,2.06,10.55,8.63,11.45,11.69h.36Zm2.07,0h-1.34c.97-3.43,2.87-7.77,6.61-10.89.02.6.03,1.2.03,1.8-3.41,2.82-4.77,6.72-5.3,9.09h0Zm1.84,0h-1.12c.5-2.18,1.72-5.57,4.59-8.18,0,.78,0,1.55,0,2.29-2.22,1.82-3.12,4.34-3.47,5.89h0Zm1.66,0h-.95c.32-1.34,1.06-3.36,2.74-4.95,0,.74-.02,1.44-.03,2.09l-.02-.03c-1.09.74-1.55,1.95-1.75,2.9h0Zm1.7,0h-.98c.15-.66.45-1.43,1.04-2-.02.81-.04,1.49-.05,2h0Zm-6.23-16.18c1.02,1,2.27,1.76,4.28,1.35.94-.19,1.51-.44,1.86-.65.02.54.04,1.08.06,1.6-.68,1.35-2.41,1.57-3.84,1.35-1.56-.24-2.66-1.8-2.66-1.8v-2.09l.3.24h0Zm-21.69-23.67l8.55.09c-2.38,1.71-4.53,3.64-5.9,5.15-.81-1.91-1.69-3.68-2.65-5.24Z" style="fill: #fff; fill-rule: evenodd; stroke-width: 0px;"/>
            <path d="m94.08,179.17h-14.38c6.82,4.92,7.05,21.84,7.06,23.33.32-2.43,1.79-11.3,7.33-23.33Z" style="fill: #231815; fill-rule: evenodd; stroke-width: 0px;"/>
            <path d="m78.54,178.49c-.4-.19-.81-.34-1.25-.45-1.48-.31-3.35.15-5.31,1.04h-15.04c-.31-.63-.6-1.23-.9-1.83h38.94c-.2.42-.4.83-.59,1.23h-15.85Zm-23.12-2.47c-.23-.47-.47-.93-.71-1.4h41.57c-.22.45-.46.92-.69,1.4h-40.17Zm-5.5-10.45c-.33-.61-.68-1.24-1.04-1.89h52.83c-.27.54-.58,1.16-.95,1.89h-50.84Z" style="fill: #ffe100; fill-rule: evenodd; stroke-width: 0px;"/>
            <path d="m91.5,173.41h-4.43l1.43-3.08h4.43l-1.43,3.08h0Zm-9.76,0h-4.44l1.43-3.08h4.44l-1.43,3.08h0Zm-9.53,0h-4.68l1.51-3.08h4.68l-1.51,3.08h0Zm-9.54,0h-5.04l1.62-3.08h5.04l-1.62,3.08h0Zm-10.18-3.08h2.26l-1.06,2.29c-.38-.74-.78-1.5-1.2-2.29h0Zm45.79-.85h-4.44l1.43-3.08h4.43l-1.43,3.08h0Zm-10.12,0h-4.08l1.43-3.08h4.08l-1.43,3.08h0Zm-9.65,0h-4.21l1.51-3.08h4.21l-1.51,3.08h0Zm-9.54,0h-4.56l1.62-3.08h4.56l-1.63,3.08h0Zm-9.33,0h-4.47l1.43-3.08h4.47l-1.43,3.08h0Zm-9.27-3.07h1.26l-.58,1.25c-.22-.41-.45-.82-.68-1.25Z" style="fill: #ffe100; fill-rule: evenodd; stroke-width: 0px;"/>
            <path d="m38.17,177.91l-8.58-16.67v-1.59c9.54.3,13.02,11.32,15.1,16.03,2,4.52,18.12,39.83,21.01,46.16h-4.14c-2.54-4.73-19.47-36.34-23.39-43.93Z" style="fill: #231815; fill-rule: evenodd; stroke-width: 0px;"/>
            <path d="m67.02,221.84c-.39-.89-1.22-2.8-2.33-5.32l3.45,3.84c.08.48.15.97.23,1.47h-1.35Zm-3.22-7.36l4.15,4.62c-.15-.95-.3-1.87-.44-2.75l-5.66-6.29c.69,1.57,1.34,3.05,1.94,4.42h0Zm-2.84-6.47c-.55-1.26-1.12-2.54-1.69-3.84l7.59,8.15c.15.88.3,1.8.45,2.76l-6.35-7.06h0Zm-2.55-5.79c-.64-1.44-1.27-2.88-1.9-4.3l9.64,10.36c.16.89.32,1.81.49,2.79l-8.23-8.84h0Zm-2.76-6.26l10.27,11.04c-.15-.82-.3-1.61-.45-2.36l-10.99-11.3c.38.85.77,1.73,1.17,2.63h0Zm-1.99-4.47l11.55,11.89c-.27-1.34-.54-2.56-.81-3.69-1.55-1.69-3.67-3.98-5.35-5.69-.37-.38-.75-.77-1.12-1.16-1.92-2-3.76-3.91-5.82-4.8.29.65.58,1.3.87,1.96.21.48.43.98.66,1.48h0Zm-1.94-4.34c2.47.79,4.54,2.95,6.72,5.21.36.38.73.76,1.11,1.15,1.4,1.42,3.09,3.23,4.5,4.77-.18-.7-.36-1.37-.54-2.01-3.04-3.59-10.12-11.66-13.73-13.46.63,1.41,1.27,2.86,1.93,4.33h0Zm-2.32-5.22c-.44-.98-.86-1.94-1.28-2.87,3.79,1.77,10.37,8.52,13.73,12.13.42,1.11.81,2.24,1.19,3.45-3.61-4.18-10.27-11.48-13.64-12.71h0Zm-1.67-3.74c-.52-1.17-1.03-2.29-1.51-3.35,3.75,2.12,10.28,8.05,13.31,10.89.01.03.02.05.04.08.58,1.28,1.1,2.47,1.58,3.64-3.78-3.96-9.89-9.95-13.43-11.26h0Zm-1.96-4.34c-.49-1.07-.95-2.07-1.38-3,3.29,1.7,8.59,5.77,12.05,8.53.83,1.62,1.62,3.21,2.32,4.68-3.58-3.29-9.63-8.6-12.99-10.21h0Zm-1.83-3.97c3.01,1.36,8.04,5.1,11.73,8-.61-1.17-1.22-2.34-1.84-3.49-3.03-2.34-7.56-5.63-11.37-7.54.43.84.92,1.86,1.48,3.04h0Zm-2.02-4.07c3.57,1.64,7.9,4.67,11.12,7.09-.62-1.15-1.22-2.26-1.79-3.3-3.24-2.43-7.71-5.44-11.51-6.77.65.68,1.16,1.33,1.53,1.87.18.26.4.63.66,1.1h0Zm-3.3-4.04c-1.15-1.01-2.59-2-4.27-2.68,4.17-.51,10.64,3.09,13.88,5.09.56.99,1.33,2.37,2.22,3.97-3.54-2.56-8.11-5.44-11.82-6.38h0Zm-5.51-3.12c-1.09-.32-2.26-.51-3.52-.52v-.04c.52-.24,3.09-1.33,5.92-1.09,3.04.25,6.37,1.38,11.16,5.02.29.22.53.35.71.67.04.07.09.16.15.26-3.86-2.28-10.45-5.58-14.42-4.29Z" style="fill: #fff; fill-rule: evenodd; stroke-width: 0px;"/>
            <path d="m37.15,221.84c.02-1.12.02-3.16-.16-5.44-.26-3.25-1.44-18.88-7.39-28.24v-.66c1.76.14,8.24.44,12.42-2.3,6.44,12.17,17.54,32.87,19.55,36.63h-24.41Z" style="fill: #004ea2; fill-rule: evenodd; stroke-width: 0px;"/>
            <path d="m57.3,221.84h-19.4c.68-20.7-7.06-33.38-7.06-33.38,2.78.02,5.27-.33,7.35-.8,6.75,11.86,16.95,30.27,19.11,34.18Z" style="fill: #ffe100; fill-rule: evenodd; stroke-width: 0px;"/>
            <path d="m38.86,187.5l18.93,34.34h3.77c-1.95-3.65-12.45-23.24-18.96-35.52-.96.37-2.23.8-3.74,1.18Z" style="fill: #e60012; fill-rule: evenodd; stroke-width: 0px;"/>
            <path d="m55.33,221.84h-.78c-.18-1.18-.58-2.59-1.46-3.83-1.92-2.71-3.79-2.59-3.79-2.59,0,0,1.3,1.18,1.15,2.29-.15,1.11-1.05,1.83-1.8,1.81-.75-.02-1.65-1.89-1.65-1.89-.18.65-1,1.51-1.85,1.46-.85-.05-2.03-.91-2-2.41.03-1.51,2.23-2.04,2.23-2.04-2.06-2.19-.44-4.07.44-4.2.88-.13,2,1.82,2,1.82.56-3.35-.47-5.71-1.89-7.2-1.42-1.49-3.17-1.61-3.17-1.61,0,0,1.82,1.66,1.27,3.21-.56,1.54-2.15,1.08-2.15,1.08-1.2-.29-1.47-1.83-1.47-1.83,0,0-.81,1.05-1.48,1.05s-2.25-.53-2.25-2.2,1.96-2.49,1.96-2.49c-1.63-2.68-.24-3.98,1.05-3.93,1.29.05,1.82,2.3,1.82,2.3.57-3.83-.36-5.58-1.9-7.18-1.54-1.6-3.25-1.52-3.25-1.52,1.17.69,1.78,1.94,1.81,2.79.03.85-.72,1.73-1.89,1.71-1.17-.03-1.92-1.97-1.92-1.97l-.6.41c-.05-.13-.09-.25-.14-.38-.05-.27-.14-.64-.25-.96-.21-.61-.61-1.62-.61-1.62-.11-.79-.73-2.51-1.08-3.45,1.03-.02,2.02-.09,2.95-.19.23.82.42,1.97.42,1.97.5-.29.65-1.3.68-2.11.33-.05.66-.1.97-.16-.1,1.6-.65,3.02-.65,3.02,4.16-.03,5.94,3.71,6.27,5.91.33,2.2-.4,5.52-.4,5.52,6.66,1.13,7.02,6.45,7,8.72-.02,2.27-1.18,3.16-1.18,3.16,0,0-.43-.11-1.03,0-.61.11-.57.86-.25,1.36.32.5,1.03.75,1.25.21.21-.54.85-1.4,1.35-1.54.5-.14,1.39.21,1.39.21,1.11.57,2.28,1.79,3.53,3.73.83,1.28,1.2,2.73,1.36,3.57h0Zm-14.72-17.73c.42,0,.77-.33.77-.72s-.34-.72-.77-.72-.77.33-.77.72.34.72.77.72h0Zm-6.22-11.23c.44,0,.8-.38.8-.85s-.36-.85-.8-.85-.8.38-.8.85.36.85.8.85Z" style="fill: #231815; fill-rule: evenodd; stroke-width: 0px;"/>
            <path d="m97.92,162.8c-.89-1.41-2.13-3.86-2.72-7.16-.87-4.91.94-11.27,3.96-14.35l1.58,1.87c-4.29,4.35-4.48,9.35-3.65,13.17.55,2.53,1.99,5.01,2.97,6.48h-2.13Z" style="fill: #fff; fill-rule: evenodd; stroke-width: 0px;"/>
            <path d="m100.74,143.15l.61.72,1.44,1.7c-.57.71-1.1,1.56-1.56,2.48-1.57,3.15-2.24,7.2-.29,10.12.57.86,1.37,1.62,2.44,2.23,0,0-.08.12-1.23,2.41h-2.08c-.98-1.48-2.42-3.95-2.97-6.48-.83-3.82-.65-8.82,3.65-13.17Z" style="fill: #231815; fill-rule: evenodd; stroke-width: 0px;"/>
            <path d="m98.55,140.56c-.54.73-2.45,3.45-3.45,6.3-1.16,3.3-1.89,10.58,1.99,15.93h-2.08c-.41-.93-1.75-4.11-2.02-6.64-.32-2.99-.47-9.36,2.22-14.26l2.5-2.33.84.99Z" style="fill: #ffe100; fill-rule: evenodd; stroke-width: 0px;"/>
            <path d="m92.5,142.55c-.31,0-.6-.12-.83-.31,0,.04-.02.07-.03.1.39.23.65.65.65,1.12,0,.72-.61,1.31-1.37,1.31s-1.37-.59-1.37-1.31c0-.5.29-.93.71-1.15l-.03-.19c-.25.26-.57.44-.91.44-.72,0-1.25-.63-1.25-1.41s.58-1.41,1.3-1.41c.67,0,1.24.64,1.3,1.25.08-.18.07-.49-.04-.97-.15-.67-.59-1.27-.59-1.27h1.79c-.62.67-.64,1.9-.63,2.06,0,.01,0,.04.02.07.13-.6.66-1.05,1.27-1.05.72,0,1.31.61,1.31,1.36s-.59,1.36-1.31,1.36h0Zm-1.86,15.5c-.31,0-.6-.12-.83-.31,0,.04-.02.08-.03.1.39.23.65.65.65,1.12,0,.72-.61,1.31-1.37,1.31s-1.37-.59-1.37-1.31c0-.5.29-.93.71-1.15l-.03-.19c-.25.26-.57.44-.91.44-.72,0-1.25-.63-1.25-1.41s.58-1.41,1.3-1.41c.67,0,1.24.64,1.3,1.24.08-.18.07-.49-.04-.97-.14-.67-.59-1.27-.59-1.27h1.78c-.62.67-.64,1.9-.63,2.05,0,.02,0,.04.02.07.13-.6.66-1.05,1.27-1.05.72,0,1.31.61,1.31,1.36s-.59,1.36-1.31,1.36h0Zm-21.78-8.11c-.32,0-.6-.12-.83-.31,0,.04-.02.07-.03.1.39.23.65.65.65,1.12,0,.72-.61,1.31-1.37,1.31s-1.37-.59-1.37-1.31c0-.5.29-.93.71-1.15l-.03-.19c-.25.26-.57.44-.91.44-.72,0-1.25-.63-1.25-1.41s.59-1.41,1.3-1.41c.67,0,1.24.64,1.31,1.25.08-.18.07-.49-.04-.97-.15-.67-.59-1.27-.59-1.27h1.79c-.62.67-.64,1.9-.63,2.06,0,.01,0,.04.02.07.13-.6.66-1.05,1.27-1.05.72,0,1.31.61,1.31,1.36s-.59,1.36-1.31,1.36h0Zm-6.47,7.93c-.31,0-.6-.12-.83-.31,0,.04-.02.08-.03.1.39.23.65.65.65,1.12,0,.72-.61,1.31-1.37,1.31s-1.37-.59-1.37-1.31c0-.5.29-.93.71-1.15l-.03-.19c-.25.26-.57.44-.91.44-.72,0-1.25-.63-1.25-1.41s.58-1.41,1.3-1.41c.67,0,1.24.64,1.3,1.25.08-.18.07-.49-.04-.97-.15-.67-.59-1.27-.59-1.27h1.79c-.62.67-.64,1.9-.63,2.05,0,.02,0,.04.01.07.14-.6.66-1.05,1.27-1.05.72,0,1.31.61,1.31,1.36s-.59,1.36-1.31,1.36h0Zm-12.52.39c-.32,0-.6-.12-.83-.31,0,.04-.02.08-.03.11.39.23.65.65.65,1.12,0,.72-.61,1.31-1.37,1.31s-1.37-.59-1.37-1.31c0-.5.29-.93.71-1.15l-.03-.19c-.25.26-.57.44-.91.44-.72,0-1.25-.63-1.25-1.41s.59-1.41,1.3-1.41c.67,0,1.24.64,1.3,1.24.08-.18.07-.49-.04-.97-.15-.67-.59-1.27-.59-1.27h1.79c-.62.67-.64,1.9-.63,2.06,0,.02,0,.04.02.07.13-.6.65-1.05,1.27-1.05.72,0,1.31.61,1.31,1.36s-.59,1.36-1.31,1.36Z" style="fill: #fff; fill-rule: evenodd; stroke-width: 0px;"/>
            <path d="m68.38,108.66l-.13-.21-1.07.98c.85,1.7,2.92,6.37,3.21,11.84.36,6.9-1.02,14.96-6.32,20.63-5.3,5.66-10.64,7.6-17.3,7.14-6.34-.43-11.03-2.63-13.77-6.97l-1.29,1.23s6.84,6.78,14.04,7.02c7.2.24,16.68-.67,22.58-12.11,5.9-11.44,3.17-23.51.05-29.56h0Zm-6.55,5.67c3.17,8.54,2.17,14.99-2.48,20.71-4.8,5.92-10.87,5.98-14.51,5.18-2.7-.59-5.34-2.37-6.52-3.25l1.01-.97c2.45,1.88,7.14,3.87,11.38,2.87,4.24-1.01,9.81-5.27,11.02-11.32,1.21-6.04-1.21-12.02-1.21-12.02l1.32-1.21Z" style="fill: #ffe100; fill-rule: evenodd; stroke-width: 0px;"/>
            <path d="m44.7,130.54l10.12-9.77s1.12,4.67-1.12,7.74c-2.23,3.07-6.42,4.12-9,2.02Z" style="fill: #e60012; fill-rule: evenodd; stroke-width: 0px;"/>
            <path d="m30.2,132.44c-.6,0-1.1-.49-1.1-1.1s.49-1.1,1.1-1.1,1.1.5,1.1,1.1-.49,1.1-1.1,1.1h0Zm5.45-8.43c-.6,0-1.1-.49-1.1-1.1s.49-1.1,1.1-1.1,1.1.49,1.1,1.1-.5,1.1-1.1,1.1h0Zm9.36-7.97c-.61,0-1.1-.49-1.1-1.1s.49-1.1,1.1-1.1,1.1.49,1.1,1.1-.49,1.1-1.1,1.1h0Zm4.66-4.83l-.77,2.12,1.82-.29s.31,1.16.61,1.18c.29.02.84-.83,1.73-2.36.88-1.53,1.05-2.33,1.05-2.57s-1.1-.19-2.39-.02c-1.29.17-3.07.89-3.07.89l1.03,1.05h0Zm6.35-.89c-.61,0-1.1-.49-1.1-1.1s.49-1.1,1.1-1.1,1.1.49,1.1,1.1-.49,1.1-1.1,1.1h0Zm-18.17,16.54c-.6,0-1.1-.49-1.1-1.1s.49-1.1,1.1-1.1,1.1.49,1.1,1.1-.49,1.1-1.1,1.1h0Zm2.32-4.82l1.9-.49s.21,1.19.54,1.17c.33-.02,2.6-3.43,2.77-4.96,0,0-2.67-.33-5.4.99l.93,1.05-.74,2.24h0Zm7.62-6.37c-.6,0-1.1-.49-1.1-1.1s.49-1.1,1.1-1.1,1.1.49,1.1,1.1-.49,1.1-1.1,1.1h0Zm8.82-8.68c-.61,0-1.1-.49-1.1-1.1s.49-1.1,1.1-1.1,1.1.49,1.1,1.1-.49,1.1-1.1,1.1h0Zm-25.81,22.77l1.71-.14s.5,1.17.82,1.17,2.31-3.2,2.63-4.98c0,0-1.35-.36-5.37.92l.92,1-.71,2.03h0Zm7.66-6.14c-.61,0-1.1-.49-1.1-1.1s.49-1.1,1.1-1.1,1.1.49,1.1,1.1-.5,1.1-1.1,1.1h0Zm8.75-4.66c-.6,0-1.1-.49-1.1-1.1s.49-1.1,1.1-1.1,1.1.49,1.1,1.1-.49,1.1-1.1,1.1h0Zm6.61-11.5c-.61,0-1.1-.49-1.1-1.1s.49-1.1,1.1-1.1,1.1.49,1.1,1.1-.49,1.1-1.1,1.1h0Zm-24.23,18.33l26.24-24.56-1.17-1.22-25.07,23.44v2.34h0Zm0,14.48l32.1-30.4-1.01-1.3-31.09,29.22v2.48Z" style="fill: #fff; fill-rule: evenodd; stroke-width: 0px;"/>
            <polygon points="55.17 95.96 65.17 109.69 63.74 110.95 53.74 97.17 55.17 95.96" style="fill: #fff; fill-rule: evenodd; stroke-width: 0px;"/>
            <polygon points="29.59 144.02 29.59 141.53 61.96 110.5 62.97 111.78 29.59 144.02" style="fill: #ffe100; fill-rule: evenodd; stroke-width: 0px;"/>
            <polygon points="29.59 121.98 53.78 98.85 52.96 97.76 29.59 119.85 29.59 121.98" style="fill: #e60012; fill-rule: evenodd; stroke-width: 0px;"/>
            <path d="m66.2,132.96l-1.07.97s.97-3.57,3.68-5.23c0,0,0,5.88-3.39,7.08,0,0,1.61-3.31,1.68-3.61.07-.29-.16.1-.9.78h0Zm-31.74,7.72l-.43.42c.1.5.45,1.17,1.62,2.25,1.61,1.47,3.22,2.3,3.52,2.14.3-.17-.03-1.25-1.17-3.05-1.14-1.8-2.14-2.27-2.14-2.27l-.19.78c.91,1.05.55,1.8.55,1.8-.37-.7-1.23-1.65-1.77-2.05h0Zm18.55,2.44l-.61,1.26s1.53-.75,2.79-2.32c1.26-1.57.34-2.22-.61-2.08-.95.14-4.73,4.07-4.73,4.07l3.16-.92h0Zm9.36-3.66l-1.82.47s2.09-2.89,5.41-3.33c0,0-.97,3.19-2.59,4.47-1.61,1.28-2.83.77-2.83.77,0,0,.77-1.45,2.12-2.08,0,0,.27-.5-.3-.3h0Zm5.1-18.87s.28-4.22-.4-4.47l-.22,1.63s-.37-1.14-.37-2.28.31-3.48.31-3.48c0,0,2.04,2.28,2.13,4.22.03.68-.49,4.04-1.45,4.38h0Zm-1.8-1.95l1.12,1.73s.46-3.8-3.41-4.93l.63,1.38s.03,1.93.83,3.6c.8,1.67,2.01,2.56,2.01,2.56,0,0-1.49-3.49-1.18-4.35h0Zm.45-8.22l-.45.41c.06.17.11.37.14.6l.12.37s.28-.31.28-.86c0-.16-.04-.34-.09-.52h0Zm-.85.77l-.29.26.33.72s-.01-.48-.04-.98h0Zm-.67.62l-.29.27.58.74s-.13-.52-.29-1.01h0Zm-.7.65l.93,2.09-1.89-1.21.96-.88h0Zm3.61,15.74l-.06.57s1.52-.49,2.23-2.66c.71-2.17-.11-6.69-.11-6.69,0,0-3.03,1.8-2.46,7.32,0,0,1-1.83,1.29-1.91,0,0-.31,1.46-.88,3.37h0Zm-1.37.6l.43.31s.17-1.23.14-2.94c-.03-1.71-1.03-4.06-2.29-4.46l.23,7.49s.89-.12.97-1.09c.09-.97.11-3.12.11-3.12,0,0-.06,3.17.4,3.8h0Zm-27.64,12.33c.72.28,2.11.72,2.11.11s-3-1.28-3-1.28c.03-.55,1.8-.58,2.89-.44,1.08.14,2.8,1.03,2.66,1.66-.14.64-1.5,1-3.05.86-1.55-.14-2.08-1.03-2.08-1.03l.47.11h0Zm3.84,2.92l-.47-.09s1.04,1.77.79,1.99c-.25.22-1.73-2.12-2.17-1.99-.44.13-.66.57.69,1.87,1.35,1.3,2.8,2.18,4.72,2.02,0,0,.6-2.47-3.56-3.8h0Zm20.85-10.46l-.39,3.12s.97-.88,1.55-3.02c.58-2.14-.49-4.38-.49-4.38,0,0-1.94,3.54-2.39,4.65-.45,1.1.06,3.31.06,3.31,0,0,1.42-3.41,1.65-3.67h0Zm-4.62,6.11c-.54.03-2.32,2.08-2.32,2.08,1.58-5.14,4.1-5.18,4.1-5.18.44,1.04-.2,2.69-.2,2.69-1.11,2.05-2.32,2.52-2.32,2.52l.74-2.12h0Zm-13.96,4.66l-.44-.19s1.04-.41,1.01-.76c-.03-.35-1.32-.19-1.73-.19s-.28-.57.72-1.04c1.01-.47,5.48.22,5.82.41.35.19-1.79,2.75-5.38,1.77h0Zm6.18.92l-2.96.24s1.97.79,1.9,1.26c-.07.48-1.84-.1-3.09-.55,0,0,.78,1.2,2.45,1.61,1.66.41,4.45-.38,4.79-.92,0,0-1.22-1.61-3.09-1.64h0Zm5.06-1.62l-.27-.18s1.92-.6,3.39-.75c1.47-.15,2.64.51,2.64.51,0,0-2.79,3.93-7.83,2.37,0,0-.03-.3,1.53-.72,1.56-.42,2.52-.57,2.52-.57,0,0-1.02-.36-1.98-.66Z" style="fill: #ffe100; fill-rule: evenodd; stroke-width: 0px;"/>
            <path d="m38.85,104.27l-.18.03s-1.2-.52-1.28-.78c-.08-.26.26-.91.88-1.2.62-.29,1.02.26,1.02.76s-.08.99-.44,1.2h0Zm0-4.95l.35-.12s.92-.03,1.07.46c.14.49.09,1.76-.63,1.91-.72.14-1.53-.84-1.56-1.42-.03-.58.43-.6.78-.84h0Zm-.64,11.89l9.59-8.93s-1.94-3.24-4.27-5.49c-2.33-2.25-3.2-2.8-3.67-2.8s-1.03.83-.87,2.17c.16,1.34,1.38,2.57,3.75,4.7,0,0,0,2.17-.2,3-.2.83-.2,1.42-.12,1.62.08.2.12.28-.32.28s-.2-.16-.2-.16c0,0,.2-.99.2-1.82v-2.53l-1.11-1.26s.04,1.94-1.66,2.13c0,0,.48.55.43,1.27-.04.71-.39,1.26-.91,1.26s-.64.03-.64.03c0,0,.47.44.37,1.21-.1.76-1.33,1.41-1.33,1.41,0,0,.64.47.47,1.16-.17.69-1.21,1.13-1.21,1.13l1.68,1.63h0Zm2.97-14.31s-.73-.67-1.64-.96c-.17-.05-.33-.11-.23-.44.1-.34.27-.28.44-.23,1.05.33,1.89,1.1,1.89,1.1.13.12.26.23.03.49-.23.26-.36.15-.49.03h0Zm-3.4,2.36c.89-.66,1.76-.72,1.76-.72-1.67-2.14-1.24-4.27-1.24-4.27-1.38.06-2.37,1.07-2.13,2.25.23,1.18,1.47,2.94,1.47,2.94l.14-.2h0Zm-2.2,8.69l.1-.21s.31-.21.86-.21.65.47.57.86c-.08.39-.47.62-1.02.6-.55-.03-.55-.55-.52-1.04h0Zm.21-.96l.34-.24s-1.49-1.25-2.06-2.37c0,0-.26,1.64-.1,2.34.16.7.89,1.04.89,1.04,0,0,.05-.23.94-.78h0Zm1.43-.34h-.21s-.89-.52-.91-.81c-.03-.29.39-.88,1.09-1.04.7-.16.75.42.75.78s-.34.97-.73,1.07h0Zm.73-5.36c-.98-1.42-2.31-4.53-2.31-4.53-1.33.98-1.73,2.37-1.18,3.67.55,1.3,2.25,2.63,2.25,2.63.23-.66,1.5-1.47,1.5-1.47l-.26-.29h0Zm-1.36,2.5l.4.32s-1.04.4-1.46,1.35c0,0-1.44-1.51-1.64-2.67-.2-1.17.3-1.81.3-1.81,0,0,1.34,1.91,2.4,2.81h0Zm1.47,7.98l-2.98,2.63s1.24-1.84,1.21-4.24l1.76,1.6Z" style="fill: #fff; fill-rule: evenodd; stroke-width: 0px;"/>
            <path d="m51.29,92.21l1.04.16s-2.31,1.75-3.74,2.63c-1.21.74-3.03,1.2-5.05,1.15-.09-.17-.21-.37-.37-.6,2.14-1.05,4.55-1.67,5.34-1.71.95-.04.91-.56.64-.52-.28.04-1.91.08-3.5.72-.88.35-1.98.78-2.79,1.09-.15-.2-.32-.39-.51-.58.59-.43,1.39-1.01,2.18-1.58,1.51-1.08,4.46-.56,6.76-.76h0Zm-9.32,2c.47-1.54,1.78-5.8,2.07-5.86.36-.08,2.03-.36,2.15-1.91.12-1.55-.24-2.36-.24-2.36l-1.39,1.45-2.67-3.06,2.93-3.14,1.17,1.39s.29-1.59.25-2.48c-.04-.89-.46-1.81-1.65-1.78-1.19.04-1.77,1.27-1.77,2.01s.27,2.24.27,2.24c0,0-.12.27-1.04.04-.92-.23-2.23-.58-2.57,1.08-.34,1.66,1.04,2.35,1.58,2.35h1.54s.31-.04.19.39c-.12.42-.58,1.51.34,3.28,0,0-1.78,3.82-2.42,5.71.07.02.14.04.21.06.38.12.73.34,1.04.59h0Zm5.53-11.77l-1.33-1.46c.4-.38.99-.57,2-.53,1.01.04,1.71.7,1.64,1.99-.06,1.29-.8,2.14-1.6,2.14s-1.94-.95-1.94-.95l1.22-1.18h0Zm-2.74-2.27l2.04,2.31-2.21,2.22-1.98-2.22,2.15-2.31h0Zm-4.75,13.32c-.53.02-1.03.17-1.46.35-.91-.44-2.4-1.19-2.9-1.61-.74-.62-2.49-1.53-2.49-3.58v-3.23s.25.15,1.4,1.11c1.16.96,2.34,1.46,4.14,3.13,1.8,1.68,1.43,3.08,1.43,3.08v.18c-2.46-1.54-5.1-4.52-5.1-4.52l-.39.47c.15.54,2.98,2.76,3.99,3.58.65.52,1.12.86,1.38,1.04h0Zm-6.36,19.97l.07.24s.59.14,1.19-.38c.6-.53.67-1.29.55-1.56-.12-.26-1.72.24-1.81,1.7h0Zm-.12-1.1s.5-3.45.74-3.71c.24-.26,1.43,1.13,1.55,1.61.12.48-.21.84-.6.91-.67.12-1.16.78-1.69,1.2Z" style="fill: #ffe100; fill-rule: evenodd; stroke-width: 0px;"/>
          </g>
        </g>
        <path d="m29.59,26.78h104.39v195.06H29.59V26.78h0Zm-1.68-1.68v198.43h107.75V25.09H27.91Z" style="fill: #004ea2; fill-rule: evenodd; stroke-width: 0px;"/>
      </g>
      <g>
        <path d="m17.19,47.2c2.29,0,4.16,1.73,4.16,3.85,0,1.49-.92,2.79-2.26,3.42.09.13.18.27.25.42.69-.62,1.59-1,2.57-1,2.16,0,3.92,1.83,3.92,4.07s-1.76,4.07-3.92,4.07c-1.85,0-3.4-1.34-3.81-3.13-.07.03-.15.06-.22.08,0,.98.09,4.89,2,6.65h-5.19c1.92-1.77,2.01-5.71,2-6.67-.07-.02-.15-.05-.22-.08-.43,1.76-1.97,3.07-3.8,3.07-2.16,0-3.91-1.83-3.91-4.06s1.76-4.07,3.91-4.07c1,0,1.92.39,2.61,1.04.05-.11.11-.21.18-.3-1.44-.61-2.44-1.95-2.44-3.5,0-2.12,1.87-3.85,4.16-3.85Z" style="fill: #231815; fill-rule: evenodd; stroke-width: 0px;"/>
        <path d="m17.7,13.47c3.86,0,7.01,3.16,7.01,7.01v14.23c0,.85-.15,1.67-.44,2.42.47.34.96.48,1.59.45l.15,3.12c-1.56.08-2.59-.21-3.52-.89-1.26,1.18-2.94,1.91-4.79,1.91-3.86,0-7.01-3.16-7.01-7.01v-4.18c-1.12-.1-1.89-.03-1.9-.03l-.22-3.12s.85-.08,2.12.02v-6.92c0-3.86,3.16-7.01,7.01-7.01h0Zm0,3.12c-2.14,0-3.9,1.75-3.9,3.9v7.45c2.16.58,4.56,1.74,6.3,3.99.64.83,1.1,1.45,1.49,1.98v-13.42c0-2.14-1.75-3.9-3.89-3.9h0Zm-3.9,14.59v3.53c0,2.14,1.75,3.89,3.9,3.89,1.04,0,1.98-.41,2.68-1.08-.29-.39-.6-.81-.94-1.28-.57-.78-1.22-1.67-1.8-2.42-1.05-1.35-2.46-2.16-3.84-2.65Z" style="fill: #231815; stroke-width: 0px;"/>
      </g>
      <g>
        <path d="m149.32,205.91c-2.29,0-4.16-1.73-4.16-3.85,0-1.49.92-2.79,2.26-3.42-.09-.13-.18-.27-.25-.42-.69.62-1.59,1-2.57,1-2.16,0-3.91-1.83-3.91-4.07s1.76-4.07,3.91-4.07c1.85,0,3.4,1.34,3.81,3.13.07-.03.15-.06.22-.08,0-.98-.09-4.89-2-6.65h5.19c-1.92,1.77-2.01,5.71-2,6.67.08.02.15.05.22.08.43-1.76,1.97-3.07,3.8-3.07,2.16,0,3.92,1.83,3.92,4.07s-1.76,4.07-3.92,4.07c-1,0-1.92-.39-2.61-1.04-.05.11-.11.21-.18.3,1.44.61,2.44,1.95,2.44,3.5,0,2.12-1.87,3.85-4.16,3.85Z" style="fill: #231815; fill-rule: evenodd; stroke-width: 0px;"/>
        <path d="m148.8,239.63c-3.86,0-7.01-3.16-7.01-7.01v-14.23c0-.85.15-1.67.44-2.42-.47-.34-.96-.48-1.59-.45l-.15-3.12c1.56-.08,2.59.21,3.52.89,1.26-1.18,2.94-1.91,4.8-1.91,3.86,0,7.01,3.16,7.01,7.01v4.18c1.12.1,1.9.03,1.9.03l.22,3.12s-.85.08-2.12-.02v6.92c0,3.86-3.16,7.01-7.01,7.01h0Zm0-3.12c2.14,0,3.89-1.75,3.89-3.89v-7.45c-2.16-.58-4.55-1.74-6.3-3.99-.64-.83-1.1-1.45-1.49-1.98v13.42c0,2.14,1.75,3.89,3.9,3.89h0Zm3.89-14.59v-3.53c0-2.14-1.75-3.89-3.89-3.89-1.04,0-1.98.41-2.68,1.08.29.39.6.81.94,1.28.57.78,1.22,1.67,1.8,2.42,1.05,1.35,2.45,2.16,3.84,2.65Z" style="fill: #231815; stroke-width: 0px;"/>
      </g>
    </g>
  </g>
</svg>