<?xml version="1.0" encoding="UTF-8"?>
<svg id="_图层_2" data-name="图层 2" xmlns="http://www.w3.org/2000/svg" viewBox="0 0 163.57 248.61">
  <g id="_图层_1-2" data-name="图层 1">
    <g>
      <path d="m162.57,242.01c0,3.08-2.51,5.6-5.57,5.6H6.57c-3.06,0-5.57-2.52-5.57-5.6V6.6C1,3.52,3.51,1,6.57,1h150.43c3.06,0,5.57,2.52,5.57,5.6v235.41Z" style="fill: #fff; fill-rule: evenodd; stroke: #231815; stroke-miterlimit: 22.93; stroke-width: 2px;"/>
      <g>
        <g>
          <path d="m48.05,32.8c4.05,0,7.35,3.05,7.35,6.8,0,2.63-1.63,4.92-4,6.05.17.23.32.48.45.74,1.22-1.1,2.8-1.77,4.54-1.77,3.81,0,6.92,3.23,6.92,7.18s-3.11,7.18-6.92,7.18c-3.26,0-6.01-2.37-6.73-5.53-.13.05-.26.1-.39.14,0,1.72.17,8.63,3.54,11.75h-9.16c3.39-3.13,3.55-10.08,3.54-11.77-.13-.04-.26-.09-.39-.15-.76,3.11-3.48,5.42-6.71,5.42-3.81,0-6.92-3.23-6.92-7.18s3.11-7.18,6.92-7.18c1.77,0,3.39.69,4.61,1.84.1-.19.2-.36.32-.53-2.54-1.07-4.31-3.45-4.31-6.19,0-3.75,3.3-6.8,7.35-6.8Z" style="fill: #231815; fill-rule: evenodd; stroke: #231815; stroke-miterlimit: 10; stroke-width: 0px;"/>
          <path d="m115.53,215.82c-4.05,0-7.35-3.06-7.35-6.8,0-2.63,1.63-4.92,4-6.05-.17-.23-.32-.48-.45-.74-1.22,1.1-2.8,1.77-4.54,1.77-3.81,0-6.92-3.23-6.92-7.18s3.11-7.18,6.92-7.18c3.26,0,6.01,2.37,6.73,5.53.13-.05.26-.1.39-.14.01-1.72-.17-8.63-3.54-11.75h9.16c-3.39,3.13-3.55,10.08-3.54,11.77.13.04.26.09.39.15.76-3.11,3.48-5.42,6.71-5.42,3.81,0,6.92,3.23,6.92,7.18s-3.11,7.18-6.92,7.18c-1.77,0-3.39-.69-4.61-1.84-.09.19-.2.36-.31.53,2.54,1.07,4.31,3.45,4.31,6.19,0,3.75-3.3,6.8-7.35,6.8Z" style="fill: #231815; fill-rule: evenodd; stroke: #231815; stroke-miterlimit: 10; stroke-width: 0px;"/>
        </g>
        <path d="m100.71,173.2c11.69-6.33,22.56-12.53,33.27-20.56v-47.33l-1.83-1.51-.48-59.27-4.14-3.53-5.13,4.04v33.51l-7.26-4.63-.72.41c.88-.69,1.44-2.73.61-4.49-.83-1.76-2.34-2.92-3.49-2.97-1.16-.05-3.3,1.2-3.3,1.2-2.47-5.26-2.39-20.12-2.39-20.12l.59.07,11.08-21.25h-57.43l10.36,21.32-1.51,4.84s-1.15-.57-2.1.18c-.94.75-1.19,2.19-.33,3.16.86.97,2.14,1.17,4.05.14,0,0-.68,4.05-2.2,5.7,0,0-.85-1.02-1.87-1.02s-1.98,1.58-1.98,2.72.91,2.49,2.43,2.49,3.06-.68,4.36-3.06c0,0,.52,2,.65,4.07l-5.01,2.38s-1.76-.35-3.08,1.06c-1.32,1.41-1.54,2.86-.92,4.88,0,0-6.1,2.67-18,9.82-10.2,6.68-13.97,9.51-15.33,10.53v47.33l1.83,1.52.48,59.27,4.14,3.53,5.13-4.04v-33.51l7.26,4.63.72-.41c-.88.69-1.44,2.73-.61,4.49.83,1.76,2.34,2.92,3.5,2.97,1.16.05,3.3-1.2,3.3-1.2,2.47,5.26,2.39,20.12,2.39,20.12l-.59-.07-11.07,21.25h57.43l-10.36-21.32,1.5-4.83s1.15.56,2.1-.18c.94-.75,1.19-2.19.33-3.16-.86-.97-2.14-1.16-4.05-.14,0,0,.67-4.05,2.2-5.7,0,0,.85,1.02,1.87,1.02s1.98-1.59,1.98-2.72-.91-2.49-2.43-2.49-3.06.68-4.36,3.06c0,0-.52-2-.65-4.07l5.02-2.38s1.76.35,3.08-1.06c1.27-1.36,1.53-2.55.98-4.68Z" style="fill: #004ea2; fill-rule: evenodd; stroke: #231815; stroke-miterlimit: 10; stroke-width: 0px;"/>
        <path d="m29.59,26.78h104.39v195.06H29.59V26.78h0Zm-1.68-1.68v198.43h107.75V25.09H27.91Z" style="fill: #004ea2; fill-rule: evenodd; stroke: #231815; stroke-miterlimit: 10; stroke-width: 0px;"/>
        <g>
          <path d="m110.3,167.18h0c4.81-2.73,10.58-6.14,15.78-9.59v-27.09c-1.88-.6-2.82-1.77-2.85-3.17-.02-.82.02-1.51.07-1.95l-1.61-.68v-.04c-.27-.12-.53-.22-.8-.3l-.97-.41v.22c-2.21-.21-3.95.96-3.95.96l-17.06,4.56-.27-.19-.17-.69c-.03-1.04-.07-2.66.04-5.24-1.38,1.51-2.71,1.51-2.71,1.51.42,4.3-3.34,4.66-3.34,4.66v18.73c.08.14.17.29.25.44,5.09,8.72,15.92,17.02,17.58,18.27h0Zm-13.12-32l-.95-3.16-.95-3.16h1.73v-2.12l.89,2.12h1.18l-.95,3.16-.95,3.16h0Zm21.03,11.8l-.95-3.16-.95-3.16h1.73v-2.12l.89,2.12h1.18l-.95,3.16-.95,3.16h0Zm-.08,13.46l-.95-3.16-.95-3.16h1.73v-2.12l.89,2.12h1.18l-.95,3.16-.95,3.16h0Zm-6.93,5.64l-.95-3.16-.95-3.16h1.73v-2.12l.89,2.12h1.18l-.95,3.16-.95,3.16h0Zm-6.79-5.54l-1-3.32-1-3.32h1.81v-2.23l.94,2.23h1.24l-1,3.32-1,3.32h0Zm-7.41-9.02l-1-3.32-1-3.32h1.81v-2.23l.94,2.23h1.24l-1,3.32-1,3.32Z" style="fill: #fff; fill-rule: evenodd; stroke: #231815; stroke-miterlimit: 10; stroke-width: 0px;"/>
          <path d="m122.65,84.58v-4.34s-2.06,3.05-4.26,7.75c-2.21,4.71-8,17.48-7.91,33.93v6.2s1.05-.69,2.53-1.48c-.35-2.68-1.04-10.74,1.46-21.75,2.56-11.27,6.8-18.25,8.18-20.32Z" style="fill: #ffe100; fill-rule: evenodd; stroke: #231815; stroke-miterlimit: 10; stroke-width: 0px;"/>
          <path d="m122.65,104.55v-19.97c-1.38,2.07-5.62,9.06-8.18,20.32-2.5,11.01-1.82,19.07-1.46,21.75.14-.07.28-.15.43-.22,2.6-1.33,6.27-2.8,8.23-1.65v35.66c1.06-.67,2.12-1.34,3.16-2.02v-28.48c-1.04-.65-1.57-1.56-1.59-2.6-.02-1.04.05-1.85.1-2.25-.83-.24-1.81-.64-2.48-1.3-1.33-1.32-1.55-3.02-1.21-4.39.34-1.38.21-2.48.17-3.96-.03-1.48.24-3.21,2.16-4.82s5.69-2.4,9.12-1.19l.65-.85s-.85-1.16-1.33-1.43c-.47-.28-1.8-.05-3,.25-1.2.3-3.37.8-4.86.8s-3.09-1.05-3.3-2.35c-.21-1.3.6-2.65,1.33-2.65s1.56.7,2.07,1.37Z" style="fill: #231815; fill-rule: evenodd; stroke: #231815; stroke-miterlimit: 10; stroke-width: 0px;"/>
          <path d="m133.98,108.55c-.42.32-.98.55-1.74.5,0,0-.53.12-.53.42s.3.92.76,1.19c.46.27,1.6,1.42,1.11,2.91,0,0,.31.43.41,1.12v-6.14h0Zm0,6.98c-.1,1.05-.14,1.79-.18,2.49-.04.73-.27.77-.27,1.26s.16,1.49.04,2.06c-.12.58-1.61,2-3.64,2.05,0,0,.88,1.18,1.1,2.43.22,1.25-.38,4.61-4.22,4.98v26.29c2.63-1.76,5.08-3.53,7.17-5.21v-36.36Z" style="fill: #e60012; fill-rule: evenodd; stroke: #231815; stroke-miterlimit: 10; stroke-width: 0px;"/>
          <path d="m110.72,76.99l4.25-2.32,7.73,4.71s-12.24,15.42-13.12,41.09v.15c-.53-.07-1.07-.12-1.64-.13-4.29-.11-7.26,2.53-8.79,5.86.05-1.73.13-3.98.24-6.27.7-14.03,4.39-30.94,11.32-43.08Z" style="fill: #e60012; fill-rule: evenodd; stroke: #231815; stroke-miterlimit: 10; stroke-width: 0px;"/>
          <path d="m70.1,43.69l.08.17.92,1.93s12.23-4.02,34.78-.24l.93-1.83.16-.32c-20.07-3.7-33.88-.53-36.88.28Z" style="fill: #e60012; fill-rule: evenodd; stroke: #231815; stroke-miterlimit: 10; stroke-width: 0px;"/>
          <path d="m115.42,26.78h-53.4l8.08,16.91c3-.81,16.8-3.98,36.88-.28l8.44-16.63Z" style="fill: #ffe100; fill-rule: evenodd; stroke: #231815; stroke-miterlimit: 10; stroke-width: 0px;"/>
          <path d="m68.12,39.54l1.98,4.15c3-.81,16.8-3.98,36.88-.28l1.38-2.73c-.97.42-2.27.74-3.76.5-3.31-.54-4.17-4.76-4.17-4.76-.77,1.66-2.84,4.13-6.63,4.13s-5.46-4.54-5.46-4.54c-.96,2.06-2.89,4.53-6.43,4.71-3.54.18-5.55-3.53-5.55-3.53-1.39,2.77-3.41,4.35-5.08,4.13-1.23-.16-2.56-1.24-3.18-1.79h0Zm-3.78-7.91c.66.04,1.97.3,2.42,1.72,0,0,2.26-.37,2.78,1.04.52,1.42-.73,2.92-1.41,3.2,0,0,1.8.71,3.18-.74,0,0,2.14,1.17,3.7-.31,0,0-2.42-.43-2.69-2.18-.28-1.75,1.28-2.37,1.65-2.37,0,0,.02-2.28,1.86-2.41,1.84-.13,1.84,1.72,1.84,2.07,0,0,2.31.35,2.31,1.94s-1.94,2.64-1.94,2.64c0,0,.78.75,1.86.75s2.27-.57,2.81-1.37c0,0,1.47,1.25,2.44,1.31.97.06,1.59-.5,1.65-1.03,0,0-2.44-.38-2.47-2.35-.03-1.97,1.65-2.09,1.65-2.09,0,0,.42-2.75,2.2-2.67,1.78.09,2.07,2.32,2.07,2.32,0,0,2.15.45,2.15,2.4s-1.26,2.14-2.06,2.14c0,0,.83.91,1.86.94,1.03.03,1.86-.34,2.29-.83,0,0,1.2,1.17,2.4,1.2,1.2.03,1.94-.57,1.94-.57,0,0-2.46-.2-2.57-2.23-.11-2.03,1.89-2.09,2.26-2.09,0,0,.47-2.37,2.23-2.37s2.31,1.68,1.85,2.96c0,0,1.76.15,2.04,1.59.27,1.43-.64,2.81-2.49,2.29,0,0,.39.86,1.43.86s2.37-.09,2.37-.09c0,0,.87,1.55,2.82,1.2,0,0-1.28-.89-1.35-2.2-.07-1.31,1.4-2.22,2.81-1.94,0,0-.35-2.28,2.71-2.68l-1.99,3.92c-.39.09-.87.28-1.19.7-.38.5-.09,1,.18,1.29l-.95,1.87c-.25.2-.54.38-.87.54-1.54.7-4.9-.28-6.22-2.05,0,0-.99-1.22-.88-2.16,0,0,.22-.74.25-1.15.03-.41-.17-.74-.57-.74s-1.09.14-1.09.82.35.85.3,1.31c-.05.47-2.92,3.18-4.71,3.18s-4.07-.4-5.56-2.5c0,0-.73-.92-.73-1.77s.15-1.74-.37-1.8c0,0-.58-.11-.91.26-.33.37.12.74.12,1.42s-.14,1.86-1.64,3.1c-1.5,1.25-2.28,1.39-3.87,1.39s-3.5-.73-4.68-2.24c-1.18-1.51-.9-2.03-.67-2.21.23-.17.09-.87-.43-.9-.52-.03-.84.09-.84.58s.35.93.64,1.33c.29.41-.26,1.22-.61,1.68-.35.46-2.06,2.38-4.64,2.38-1.36,0-2.37-.39-3.03-.76l-3.62-7.57Z" style="fill: #231815; fill-rule: evenodd; stroke: #231815; stroke-miterlimit: 10; stroke-width: 0px;"/>
          <path d="m72.25,51.08l-.42.21v-.84s1.16-.88,2.6-.96c1.44-.08,3.85.21,4.62,2.32-.53-.53-2.66-1.58-3.91-1.55-1.27.03-2.12.42-2.89.82h0Zm-.16,1.66c1.79-.96,3.02-.94,4.22-.72,1.2.22,2.71,1.29,2.71,1.29-.26-.94-2.73-2.03-4.63-1.9-1.9.13-2.36,1.14-2.36,1.14l.07.2h0Zm.27,1.75l-.32-.02s-.14.21-.12.66c.02.44.69.62.94.53.25-.09-.16-1.1-.49-1.17h0Zm1.25-.36c.41.92.99,1.39,1.5,1.37.51-.02,1.34-1,1.34-1-.14,1.48-1.43,1.9-2.26,1.42-.83-.48-1.18-1.83-1.18-1.83l.6.04h0Zm4.08.53l-.12.07s-.35.66-.48.8c-.12.14.58.11.85-.14.26-.25.26-.75-.25-.73h0Zm-6.93-6.58c.06.19.15.49.26.96.52-.34,1.71-1.02,3.1-1.15,1.87-.18,5.25.17,6.06,4.08,0,0,.17.72-.29,2.71-.46,1.99-1.36,7.13-1.41,8.05l1.07.76s0-1.79,1.2-2.05c1.2-.26,1.62.66,2.43.97.81.32,1.73.18,2.01-.53.29-.71-.44-1.65-1.38-1.97,0,0,.13-.39.78-.39s1.41.81,1.41,1.34-.05,2.02-1.15,2.65c-1.1.63-3.92.03-3.92.03,0,0,1.46,2.11.79,3.22,0,0-.51-1.12-1.41-1.84-.9-.72-2.12-.54-2.5-1.62-.39-1.07.75-5.82.75-5.82,0,0-1.34,1.44-1.61,1.44s-.22-.42.16-.84c.38-.42.6-1.06.04-1.06s-2.26.61-5.76-.99c0,.19-.02.39-.03.6,0,0-.09,3.18-.09,4.07s1.3,3.88,1.3,7.95.26,9.09-6.37,9.68c0,0,.73.91,2.36.63,1.63-.27,4.31-1.59,5.54-7.04,0,0,.21-1.05.42-1.05s.37.12.33.48-.32,1.29-.68,2.46c-.36,1.17-1.68,4.56-5.06,5.73,0,0,2.42.25,4.1-1.25,1.68-1.5,3.11-5.43,3.11-5.43,0,0,.08-.28.38-.28s.31.59.13.91c-.19.32-1.78,4.54-4.08,5.88,0,0,1.87-.28,3.41-2.5,1.54-2.22,1.81-3.88,1.99-4.39.18-.5.66-.3.66.18s-1.18,4.36-4.36,6.68c0,0,2.12-.33,3.66-2.29,0,0,1.06-1.41,1.51-3.1,0,0,.28-.98.38-1.26.1-.28.48-.13.48.43s-.71,3.15-2.75,5.07c0,0,1.3-.42,2.42-1.95,1.11-1.53,1.58-4.09,1.58-4.09,0,0-1.22-.05-1.82-.39-.6-.33-.57-.77-.22-.91.35-.14.85.14,1.5.24.65.1,1.57-.07,2.08-.24.51-.17.87-.07.87.21s-.54.84-1.81,1.05c0,0,1.3,3.64,3.8,6.69,0,0,1.95,2.58,4.99,2.54,3.05-.04,5.67-1.82,6.14-4.19.47-2.37-.89-4.23-2.5-4.23s-2.5,1.52-2.54,2.5c-.04.97.59,2.12,1.52,2.12,0,0,.55.04.51.38-.04.34-.59.25-1.48.25s-2.92-.46-3.98-1.23c-1.06-.76-2.33-2.03-2.79-3.26l.46-.33s2.03,4.24,6.04,4.11l-1.12-1.66s-1.37-.28-2.91-1.73c-1.54-1.46-1.59-1.64-1.58-1.9.02-.26.33-.46.68.02.35.48,1.92,2.87,4.23,3.06l.02-1.2s-1.08-.31-2.18-1.36c-1.1-1.05-1.15-1.14-1.15-1.29s.18-.39.42-.33c.24.06,1.63,2.41,3.42,2.45l.62-.64s-2.54-1.65-3.13-2.86l.54-.38s2.16,2.63,3.04,2.84,1.29-.32,1.29-.32l-3.32-3.62.6-.53,4.33,4.89s-1.34-4.72-1.95-12.92c-.1-1.34-.19-2.62-.28-3.84-.73-.81-1.51-.37-1.86-.08-.38.32-1.22.67-1.98.73-.76.06-3.58.09-3.58.09l1.49,1.66s-3.26-.99-3.61-2.07c-.35-1.08.14-1.78-.67-2.22s-.41-1.49.26-1.49.9,0,.96-.26c.06-.26.41-.9,1.6-1.52,1.17-.6,2.82-1.34,7.14,1.32-.03-.48-.06-.94-.09-1.38-.61-.38-2.65-1.56-4.77-1.72-.85-.11-1.63-.1-2.5,0-.93.11-1.46.83-2.02,1.04-.56.21-1.12.03-1.12-.37s.16-1.2,1.97-2c1.81-.8,3.89-.27,5.43.27,1.22.42,2.47,1.3,2.94,1.66-.1-1.59-.16-2.81-.2-3.52-1.4-.09-2.87-.15-4.38-.17-8.23-.12-16.1,1.46-18.35,1.96h0Zm23.22,6.28c-.73-.59-2.8-2.13-4.59-2.16-.77-.06-1.44-.09-2.22.06-.79.14-1.16.73-1.46.76-.29.03-.32-.26-.03-.64s1.28-1.02,3.09-1.02c1.65,0,3.79.7,5.14,2.12.02.29.04.59.06.89h0Zm-7.58,1.46s-.45-.32-.73-.52c-.28-.2-.12-.59.32-.58.43.02.63,1.19.63,1.19l-.22-.1h0Zm.79-.77l-.14-.24s-.12-.36.2-.36.47.28.87.56c.39.28.77.2,1.03.06.26-.14.63-.54.85-.54s.18.44-.14.77c-.32.34-.73.48-1.24.48s-1.09-.3-1.42-.73h0Zm3.69.52l-.24-.04s.34-.75.63-.75.57.14.55.46c-.02.32-.42.24-.95.34h0Zm-14.85,8.84c-.39-.22-.42-.43-1.01-.4-.68.04-1.01.5-.92,1.54.09,1.03,1.09,1.49,1.99,1.23.9-.26,2.08-1.52,2.67-1.52s1.12.35,1.09,1.01c-.02.66-.81,1.36-1.66,1.74-.85.38-2.38.86-3.52-.17-1.14-1.03-1.57-2.68-1.53-3.32.04-.64.44-1.36,1.29-1.41.85-.04,1.42,0,1.99.35.57.35.83,1.19.24,1.21-.59.02-.63-.26-.63-.26h0Zm2.33,6.26c-.49.22-.98-.08-.98-.7,0-.59.08-.84.67-1.01.59-.17.79,0,1.04-.17.25-.17.73-.7,1.21-.81.48-.11.76.17,1.18.34s.48.37.84.37.5-.48,1.09-.48,1.15.28,1.37.39c.22.11.84,0,1.21,0s.62.62.7,1.18c.08.56.11.9-.17.92-.28.03-.59-.17-.98-.39-.39-.22-1.29.03-1.68.03s-.95.2-1.71.2-1.01-.17-1.63-.17-1.04-.25-1.46-.25-.45.5-.7.56h0Zm8.38-2.94l-.48-.11s-1.85-.48-2.86-1.15c-1.01-.67-.03-1.6.92-1.6s2.24,1.12,3.56,1.26c1.32.14,2.33-.64,2.49-1.79.17-1.15-.64-1.35-1.01-1.35s-1.04.34-1.37.81c-.34.48-.7.22-.7-.56s1.12-1.35,1.76-1.23c.64.11,1.96,1.01,2.27,2.27.31,1.26-.78,3.42-2.44,3.7,0,0-.84.06-2.16-.25h0Zm-16.12-18.15c.13.91.23,1.91.23,2.74,0,.78-.04,1.76-.08,2.79-.53,1.13-1.71,1.33-2.4,1.33-.78,0-1.79-.53-1.79-1.37s.64-1.74,1.39-1.74.67.47,1.06.45c.39-.03.47-.87.72-1.62.19-.58.65-1.97.85-2.57h0Zm.07,8.98c0,.56.02,1.07.07,1.5.06.56.17,1.16.31,1.75-.35,2.22-2.51,3.83-3.83,3.81-1.42-.02-1.99-.87-2.02-1.66-.03-.79.15-1.62.68-1.91.53-.29,1.3-.19,1.69.29.39.48.38.67.8.64.43-.03,1.03-.84,1.45-1.89.34-.84.7-2.06.84-2.53h0Zm1.38,9.3c.03.77.04,1.63.03,2.48l-.19.21c-.24-1.02-.71-1.67-1.15-2.08l1.31-.61h0Zm-2,.93c.45.34,1.07,1.05,1.25,2.43l-.67.76c-.24-1.5-.94-2.34-1.46-2.78l.89-.41h0Zm-1.61.75c.43.26,1.44,1.08,1.56,3.16l-.73.83c.29-2.46-1.76-3.55-1.76-3.55l.94-.44h0Zm-.79,3.98l-.02-.15s-.43-.79-1.2-.79-1.5.56-1.5,1.66,1.2,1.96,2.27,1.85c1.07-.11,1.88-1.27,2.97-2.64,1.09-1.38,1.86-2.26,1.86-2.26,0,0-.04,1.85-.36,3.01-.32,1.16-2.25,3.49-4.82,3.54-2.57.05-3.56-2.21-3.68-3.77-.12-1.56.96-3.33,2.66-3.63,1.7-.3,2.94,1.17,2.96,2.53.02,1.36-.78,2.55-1.61,2.6-.83.05-1.58-.41-1.58-1.45s1.19-.78,1.24-.41c.05.37.64.21.8-.07h0Zm36.01-26.04c.12,1.64.35,5.02.44,7,0,.21.02.51.04.85.13,3.29.45,11.34,2.29,13.44.77-.36,1.3-.61,1.3-.61,0,0-1.7-4.01-1.93-7.73-.2-3.33-.67-11.08-.77-12.7-.4-.07-.85-.16-1.36-.24h0Zm-1.66-.27c.38.06.75.12,1.09.17.11,1.59.35,5.11.45,7.12.01.24.02.51.04.84.13,3.27.44,11.12,2.35,13.65-.41.19-.87.4-1.34.6-.63-1.07-1.11-3.15-1.47-5.5-.63-4.21-.85-9.25-.85-10.94,0-2-.17-4.63-.26-5.95h0Zm-2.38-.33c.64.08,1.24.17,1.81.25.09,1.26.27,4,.27,6.03,0,1.7.22,6.77.86,11.02.36,2.36.85,4.47,1.51,5.64-.46.2-.92.39-1.35.56-1.16-2.16-1.57-8.94-1.74-11.62-.02-.37-.04-.67-.05-.84-.16-2.09-.32-4.16-.57-6.25-.19-1.59-.42-3.18-.73-4.78h0Zm-1.97-.23c.48.05.94.1,1.39.16.32,1.64.57,3.28.76,4.92.24,2.03.41,4.11.56,6.22.01.21.03.49.05.84.16,2.68.57,9.39,1.78,11.79-.36.13-.7.25-.98.32-.13.04-.25.07-.36.12-1.48-3.26-1.64-8.25-1.73-11.01-.02-.54-.03-.99-.05-1.32-.13-2.1-.34-4.35-.62-6.59-.23-1.84-.5-3.69-.8-5.43h0Zm-1.73-.17c.39.03.77.07,1.15.11.31,1.78.59,3.66.83,5.56.28,2.22.49,4.46.61,6.55.02.35.04.79.05,1.31.09,2.8.25,7.86,1.77,11.22-1.16.61-1.32,1.49-1.32,1.49,0,0-1.53-5.59-1.53-8.22s-.41-7.37-.66-11.05c-.2-2.88-.7-5.83-.91-6.98h0Zm-1.87-.15c.41.03.8.06,1.19.09.66,2.24.96,7.29,1.51,15.59.59,8.83,2.19,13.25,2.96,14.28.78,1.03,1.82,1.21,2.5.99.67-.22,1.51-.99,1.56-1.8.04-.81-.03-1.43-.5-1.99-.47-.56-1.26-.5-1.69-.22-.43.28-1.1.66-1.2.7-.1.03-.19.19.07.38.26.19.48.05.48.05.37-.33.88-.77,1.38-.66.51.11.84.4.84,1.35s-.66,1.71-1.6,1.71-2.22-1.71-2.22-3.24,1.53-2.44,3.42-2c1.89.44,2.4,2.62,2.44,4.37.04,1.75-.44,3.46-3.24,3.46s-5.09-5.37-5.75-9.1c-.65-3.72-.89-6.03-1.35-11.88-.4-5.12-.73-10.76-.8-12.09h0Zm9.07,24.76c.97.16,2.19,1.16,2.47,3.06.29,1.9-.08,4-.08,4,0,0,.46-.24,1.17-.6.36-1.4.47-2.32.44-3.02-.03-.7-.2-1.18-.41-1.68-.34-.84-2.13-2.12-2.6-2.45-.83.36-1.39.61-1.39.61l.39.08h0Zm1.75-1.01c.75.55,2.16,1.66,2.5,2.51.23.56.43,1.1.46,1.92.03.65-.06,1.47-.32,2.62.37-.19.77-.39,1.18-.6.3-1.25.4-2.1.38-2.75-.03-.7-.21-1.18-.41-1.68-.36-.9-2.39-2.3-2.68-2.5-.38.17-.76.33-1.11.48h0Zm1.86-.81c.37-.16.75-.32,1.11-.48.67.48,2.07,1.55,2.36,2.28.21.5.38.98.41,1.68.03.7-.09,1.62-.45,3.03-.22.11-.44.22-.66.33.22-1.02.29-1.76.26-2.36-.03-.82-.23-1.35-.46-1.92-.36-.88-1.85-2.04-2.58-2.57h0Zm1.85-.8c.45-.2.87-.38,1.22-.52,1.27.84,1.97,1.67,2.26,2.67.32,1.13.13,2.52-.35,4.39-.23.12-.48.24-.73.36.27-1.16.35-1.99.33-2.64-.03-.82-.23-1.35-.46-1.92-.31-.77-1.49-1.75-2.27-2.34h0Zm1.99-.85c1.19.86,1.86,1.74,2.16,2.8.33,1.15.2,2.47-.2,4.17.06-.03.12-.06.18-.09,2.21-1.08,2.4-2.9,1.53-4.87-.87-1.97-2.71-2.37-3.42-2.11-.05.02-.13.05-.24.1Z" style="fill: #fff; fill-rule: evenodd; stroke: #231815; stroke-miterlimit: 10; stroke-width: 0px;"/>
          <path d="m99.6,78.91c-.2-.19-.39-.39-.56-.59-.63-.73-1.03-1.43-1.03-1.43-.1.46-.23.87-.39,1.26-1.38,3.3-4.84,3.95-7.25,3.79-2.9-.19-5.2-3.17-6.58-5.49-.02-.03-.04-.06-.05-.09-.51-.87-1.35-2.54-1.68-3.18-.17,1.14-.54,2.11-1.04,2.93-.05.09-.11.17-.16.26l10.81,8.32,7.95-5.78Z" style="fill: #e60012; fill-rule: evenodd; stroke: #231815; stroke-miterlimit: 10; stroke-width: 0px;"/>
          <path d="m77.04,79.31l14.98,11.33,16.37-13.08-1.01.59s-3.91,1.92-5.77,1.82c-.72-.04-1.42-.5-2.01-1.07l-7.95,5.78-10.81-8.32c-.94,1.39-2.29,2.34-3.8,2.95Z" style="fill: #231815; fill-rule: evenodd; stroke: #231815; stroke-miterlimit: 10; stroke-width: 0px;"/>
          <path d="m75.85,79.71h0s.02.05.04.08c.83,1.68,1.7,3.55,2.53,5.44l.55.41v-4.86l-1.93-1.46-1.19.4h0Zm4.15,6.68l3.65,2.69v-4.77l-3.65-2.76v4.84h0Zm4.68,3.44l2.79,2.06v-4.69l-2.79-2.11v4.75h0Zm3.83,2.82l3.18,2.34v-4.61l-3.18-2.41v4.67h0Zm4.21,2.43l2.62-2.13v-4.95l-2.62,2.1v4.99h0Zm3.65-2.97l3.33-2.71v-4.9l-3.33,2.66v4.94h0Zm4.36-3.54l2.43-1.97v-4.85l-2.43,1.94v4.88h0Zm3.46-2.81l2.56-2.08c.13-.29.25-.56.38-.84v-4.27l-2.94,2.35v4.83h0Zm3.97-5.07c1.33-2.67,2.39-4.39,2.39-4.39l-2.16,1.26-.23.19v2.94Z" style="fill: #ffe100; fill-rule: evenodd; stroke: #231815; stroke-miterlimit: 10; stroke-width: 0px;"/>
          <path d="m106.05,85.3l-13.94,11.14-12.97-9.56c.85,1.96,1.65,3.89,2.35,5.63l10.61,7.4,11.88-8.83c.33-1.05.67-2.06,1.01-3.04.33-.94.68-1.85,1.04-2.74h0Zm-23.98,8.62l10.11,6.85,11.45-8.54c-.46,1.5-.89,3.07-1.31,4.73l-10.14,7.57-8.38-6.2c-.35-.9-.96-2.48-1.74-4.41h0Zm2.21,5.83l7.93,5.74,9.83-7.38c-.32,1.34-.63,2.72-.92,4.16l-8.74,6.63-7.3-5.54c-.23-1.19-.49-2.38-.8-3.61h0Zm1.02,4.89c.25,1.48.44,2.97.6,4.54l6.25,4.36,8.07-6.34c.21-1.3.43-2.56.67-3.79l-8.45,6.34-7.14-5.11h0Zm.7,5.54l5.65,3.98s-1.51.76-2,2l-3.35-2.34c-.02-.23-.03-.46-.05-.69h0c-.07-1.03-.15-2-.24-2.95h0Zm14.06-1.9l-7.16,5.66s2.14,1.03,2.36,2.01l4.21-3.31c.01-.11.02-.21.04-.32.17-1.38.35-2.73.55-4.03h0Zm-13.68,6.7c.13,1.72.24,3.45.35,5.17,1.17-1.48,2.74-1.54,2.74-1.54v-1.47l-3.09-2.16h0Zm9.28,3.77v-2.14l3.68-2.86c-.31,2.68-.51,4.93-.64,6.82-.52-.75-1.53-1.85-3.04-1.82Z" style="fill: #ffe100; fill-rule: evenodd; stroke: #231815; stroke-miterlimit: 10; stroke-width: 0px;"/>
          <path d="m86.97,124.04c.61.46,1.56,1.06,2.35,1.09,0,0-.51,3.88,2.49,4.45v17.68c-2.35-4.53-3.46-8.86-4.01-12.43-.35-3.59-.6-7.19-.83-10.79Z" style="fill: #e60012; fill-rule: evenodd; stroke: #231815; stroke-miterlimit: 10; stroke-width: 0px;"/>
          <path d="m92.72,119.51c.95,0,1.72.81,1.72,1.81s-.77,1.81-1.72,1.81-1.72-.81-1.72-1.81.77-1.81,1.72-1.81h0Zm-1.41,4.38l-2.46-2.48,1.42-1.68h-.88c-1.07,0-1.94.87-1.94,1.94v.29c0,1.07.87,1.94,1.94,1.94h1.93Zm3.31,0h1.11c1.07,0,1.94-.87,1.94-1.94v-.29c0-1.07-.87-1.94-1.94-1.94h-.72l1.36,1.38-2.37,2.79h.61Zm-2.06-8.68h0c1.13,0,2.06.93,2.06,2.06v1.33h-.72l-1.45-1.46-1.23,1.46h-.72v-1.33c0-1.13.93-2.06,2.06-2.06h0Zm-2.06,9.72h1.84l.45.4.37-.4h1.47v1.31c0,1.13-.93,2.06-2.06,2.06h0c-1.13,0-2.06-.93-2.06-2.06v-1.31Z" style="fill: #fff; fill-rule: evenodd; stroke: #231815; stroke-miterlimit: 10; stroke-width: 0px;"/>
          <path d="m102.7,109.82c.48,0,.92.18,1.28.49.01-.06.03-.12.05-.16-.61-.37-1.02-1.02-1.04-1.77-.03-1.14.89-2.07,2.04-2.07s2.11.93,2.14,2.07c.02.78-.4,1.47-1.04,1.82l.05.3c.37-.41.85-.7,1.37-.7,1.09,0,1.92,1,1.95,2.22.03,1.22-.84,2.22-1.93,2.22-1.03,0-1.91-1.01-2.04-1.96-.11.28-.08.78.1,1.54.25,1.05.95,2,.95,2h-2.73c.92-1.06.9-3.01.88-3.25,0-.02-.01-.06-.03-.11-.18.95-.96,1.66-1.9,1.66-1.1,0-2.02-.97-2.05-2.15-.03-1.18.84-2.15,1.94-2.15Z" style="fill: #fff; fill-rule: evenodd; stroke: #231815; stroke-miterlimit: 10; stroke-width: 0px;"/>
          <path d="m111.85,81.6c.42.24.71.62.87,1.06.04-.05.08-.09.12-.12-.35-.62-.38-1.39-.03-2.05.54-1.01,1.8-1.36,2.8-.8,1,.57,1.38,1.86.83,2.86-.37.69-1.08,1.07-1.81,1.06l-.11.28c.52-.17,1.09-.18,1.54.07.95.54,1.18,1.82.6,2.9-.58,1.08-1.83,1.52-2.78.98-.89-.51-1.17-1.82-.8-2.72-.23.19-.46.64-.68,1.38-.3,1.04-.16,2.21-.16,2.21l-2.37-1.35c1.32-.46,2.27-2.17,2.37-2.38,0-.02.02-.06.03-.11-.63.73-1.65.97-2.47.5-.95-.54-1.28-1.84-.72-2.88.56-1.04,1.8-1.45,2.75-.91Z" style="fill: #fff; fill-rule: evenodd; stroke: #231815; stroke-miterlimit: 10; stroke-width: 0px;"/>
          <path d="m104.6,145.73l-.12-.08s-3.74-2.46-5.41-5.35c-1.66-2.88-1.7-5.89-.94-10.59.77-4.7,4.14-9.38,9.81-9.24,5.67.15,8.98,3.31,10.25,6.63,1.26,3.32,3.53,10.86-4.78,18.07,0,0,.42,1.97.91,2.94.49.98,1.35,1.19,1.35,1.19,0,0-.02,1.17-.93,1.76-.91.59-3.35,1.04-3.35,1.04,0,0-.83,2.88-2.87,3.21,0,0-1.96.24-2.81-3.58,0,0-1.33.23-2.71-.21-1.39-.43-2.01-1.47-2.01-1.82s.46-.6.92-.63c.46-.03,1.2-.5,2.68-3.35Z" style="fill: #231815; fill-rule: evenodd; stroke: #231815; stroke-miterlimit: 10; stroke-width: 0px;"/>
          <path d="m116.71,131.39c.51,0,.93.42.93.93s-.42.93-.93.93-.93-.42-.93-.93.42-.93.93-.93h0Zm-16.35,0c.51,0,.93.42.93.93s-.42.92-.93.92-.93-.42-.93-.92.42-.93.93-.93h0Zm4.82-9.23s-.47.99-.93,1.79c-.46.8-.61,1.24-.92,1.74-.31.5-.69.92-1.13,1-.44.08-1.1.03-1.15-.25-.05-.28-.22-.88.94-2.07.29-.3,2.56-2.18,3.19-2.21h0Zm1.73-.03c-.49.19-1.71,1.43-2.34,2.73-.63,1.3.13,2.18.74,2.06.61-.13,1.18-.93,1.41-1.98.24-1.05.31-2.83.31-2.83l-.12.02h0Zm2.04,0l-.16-.24s-.69.99-1.11,2.67c-.42,1.68.38,3,1.07,3s1.04-.93,1.04-1.9-.83-3.53-.83-3.53h0Zm1.44-.11l-.35-.19s.37,2.59.64,3.79c.27,1.2.79,1.54,1.35,1.52.57-.02,1.08-.71,1.08-1.54s-1.35-2.74-2.72-3.58h0Zm3.78,3.56l-1.9-3.5s1.52.46,2.67,1.35,1.49,1.79,1.4,2.72c-.08.92-1.3.87-2.17-.56h0Zm-14.94,3.75l.35-1s4.08,1.17,8.6,1.39c4.52.22,9.73-1.17,9.73-1.17l.3.87s-4.21,1.65-9.12,1.65c-3.52,0-6.57-.77-9.86-1.74h0Zm5.33,2.93c.51,0,.93.42.93.93s-.42.93-.93.93-.92-.42-.92-.93.41-.93.92-.93h0Zm3.92.19c.51,0,.93.42.93.93s-.42.93-.93.93-.92-.42-.92-.93.42-.93.92-.93h0Zm4.08-.47c.51,0,.93.41.93.93s-.42.93-.93.93-.93-.42-.93-.93.41-.93.93-.93h0Zm-14.13,3.16v-1s4.51,1.75,8.27,1.45v9.32h-1.01l-.15-8.32s-3.21,0-7.12-1.45h0Zm.19,1.68l5.59,1.15.11,6.56h.75v-7.38c-1.23,0-6.45-1.12-6.45-1.12v.78h0Zm19.9-1.68v-1s-4.51,1.75-8.27,1.45v9.32h1.01l.15-8.32s3.21,0,7.12-1.45h0Zm-.19,1.68l-5.59,1.15-.11,6.56h-.75v-7.38c1.23,0,6.45-1.12,6.45-1.12v.78h0Zm-9.84.22c.41,0,.75.33.75.74s-.33.75-.75.75-.75-.34-.75-.75.33-.74.75-.74h0Zm0,4.7c.41,0,.75.33.75.75s-.33.75-.75.75-.75-.33-.75-.75.33-.75.75-.75h0Zm-2.76,4.29h-.38s-.71,1.71-2.16,2.93c0,0-.46.42-.52.69-.07.28.34.99,1.19.99s1.91.02,1.91.02c0,0,2.15,3.33,2.77,3.33s1.96-2.37,2.4-3.05c0,0,2.72.24,3.34-.92,0,0,.1-.13-.36-.66-.46-.52-1.29-1.55-1.49-2.25-.2-.7-.15-1.26-.33-1.32-.19-.06-.61.09-.62.84-.01.75.45,1.41.84,1.87.39.46.77,1.1.77,1.23s-.32.39-.95.39h-1.74l-1.88,2.71s-1.1-1.31-2.03-2.95c0,0-2.62.13-2.74-.26-.12-.39,1.65-1.95,2-3.61Z" style="fill: #ffe100; fill-rule: evenodd; stroke: #231815; stroke-miterlimit: 10; stroke-width: 0px;"/>
          <path d="m127.07,122.73c1.89,0,3.43,1.65,3.43,3.68s-1.54,3.67-3.43,3.67c-1.52,0-2.81-1.07-3.26-2.54-.15-.52.03-2.08.46-2.43.58-.48,1.66-.87,1.23-1.97.47-.26,1-.41,1.57-.41Z" style="fill: #ffe100; fill-rule: evenodd; stroke: #231815; stroke-miterlimit: 10; stroke-width: 0px;"/>
          <path d="m126.9,124.12l.27-.3s-1.82.02-2.69,1.63c-.87,1.6.8,3.76,2.53,3.76,0,0,1.3.07,1.94-.83,0,0-2.03.44-2.83-1.12-.8-1.56.02-2.59.78-3.14Z" style="fill: #094; fill-rule: evenodd; stroke: #231815; stroke-miterlimit: 10; stroke-width: 0px;"/>
          <path d="m125.85,120.84l-.19.26s-.19-.38-.35-.38-.54.19-.54.79.28.82.7.86c.41.03,2.18,0,2.18,0v-1.68c0-.25-.14-.21-.25-.49-.1-.27,0-.48-.07-.68-.07-.21-.21-.27-.08-.42.14-.15.16-.28.25-.41.09-.12.2-.6-.04-.8-.24-.2-.91-.48-.91-.99s.34-.97.58-1.21c.25-.24-.17-.74-.53-.74s-1.03.65-1.24,1.45c-.2.79-.05,2.84.48,4.44Z" style="fill: #ffe100; fill-rule: evenodd; stroke: #231815; stroke-miterlimit: 10; stroke-width: 0px;"/>
          <path d="m122.84,118.38l.07.09s.87.19.87.84.22,1.48.25,2.64c.03,1.16.07,2-.48,2.06-.54.07-1.6-.39-2.5-1.25-.9-.87-.77-1.42-.77-2.32s.35-2,.39-2.8c.03-.8-.19-1.39-.19-2.75s.61-2.44,1.46-3.33c.77-.8,2.22-2.09,5.93-2.06.07,1.73.95,2.22,2.84,2.25-.25.26-.51.48-.7.56-.59.24-1.68.11-2.37.11s-.51.53-1.89.77c0,0-.35.18-.57,1.08-.23.91-.98,2.71-2.33,4.1h0Zm5.75-8.86c-.09.39-.08.88.37,1,.62.17,2.1.2,2.62.21.09-.12.14-.19.14-.19-1.21-.89-2.47-.97-2.47-.97-.23-.02-.45-.03-.66-.04h0Zm3.8,1.62c-.03.2-.15.53-.55.9-.66.6-3.37,1.33-3.37,1.33,0,0,.11,1.77.97,2.17,0,0,2.55-.86,3.26-1.26.49-.27.58-.98.6-1.56-.19-.64-.44-.98-.44-.98-.15-.22-.3-.41-.47-.59h0Zm1.15,3.37c-.54.26-2.01.94-3.01,1.17-1.25.29-1.33.48-1.33.94s.31,1.28,1.09,1.28c.64,0,2.46-1.16,3.14-1.72.03-.35.06-.77.1-1.26.01-.14.02-.28.02-.4h0Zm-.2,2.56c-.32.19-1.38.8-2.31,1.15-1.11.41-1.49.8-1.45,1.28.05.48.67.68,1.61.19.77-.39,1.61-1.16,1.99-1.68.06-.26.11-.55.15-.94h0Zm-.41,2.08c-.26.21-.87.68-1.66,1.04-1.05.48-1.08,1.03-1.08,1.48,0,.4.28.84.96.91.5-.16,1.39-.65,1.66-.92.3-.3.2-.86.2-.86-.08-.66-.12-1.17-.08-1.64h0Zm-5.27-5.22c-.19.13-.21.43-.05.68.16.24.45.34.64.21.19-.13.21-.43.05-.68-.17-.24-.45-.34-.64-.21h0Zm-.09,2.61c0,.26.24.51.54.57.31.05.56-.11.57-.37,0-.26-.24-.51-.54-.57-.31-.05-.56.11-.57.37h0Zm1.02,2.3c-.27,0-.5.21-.5.47s.22.47.5.47.49-.21.49-.47-.22-.47-.49-.47h0Zm.62,2.5c-.27,0-.5.21-.5.47s.22.47.5.47.5-.21.5-.47-.22-.47-.5-.47Z" style="fill: #fff; fill-rule: evenodd; stroke: #231815; stroke-miterlimit: 10; stroke-width: 0px;"/>
          <path d="m120.49,103.81h.22s.58,0,1.08.65c.51.65,1.27.65,2.64.62,1.38-.04,3.51-.76,5.06-.98,1.55-.22,2.86-.03,4.16,1.63,0,0,.33.62.33,1.52s-.47,1.23-.94,1.23-1.3-.58-1.73-1.19c-.43-.61-.8-.9-1.37-.94-.58-.04-1.7.22-3.8.72-2.1.51-3.29.54-4.41.33-1.12-.22-1.84-1.16-1.84-1.73s.18-1.45.61-1.84Z" style="fill: #ffe100; fill-rule: evenodd; stroke: #231815; stroke-miterlimit: 10; stroke-width: 0px;"/>
          <path d="m127,42.24l-4.03,3.16.41,59.05s1.73-.12,3.11-.27c1.36-2.89.77-7.88.41-10.13-.4-2.5-.57-5.92-.34-7.85.23-1.93.41-4.03.41-6.23s-.44-5.46-.5-8.22c-.06-2.76-.06-6.22-.06-9.02s-.32-4.38-.29-5.12c.03-.74.58-3.23.58-4.89s-.33-3.46-.33-4.75.3-2.03.54-3.28c.19-.99.14-2.05.11-2.45h0Zm3.89,2.41v1.87s-3.39-2.57-3.39-2.57c.09-.67.17-1.34.21-1.85l3.18,2.55h0Zm-3.5.09l3.53,2.66.02,2.53-3.87-2.92c.02-.24.06-.47.1-.78.05-.38.14-.91.22-1.49h0Zm-.35,3.12l3.91,2.95.02,2.57-3.78-2.85c-.1-1.35-.14-2.13-.15-2.67h0Zm.22,3.59l3.72,2.8.02,2.72-3.77-2.84c.06-.77.09-1.63.03-2.68h0Zm-.11,3.5l3.87,2.91.02,2.57-4.18-3.15c.07-.77.19-1.5.29-2.33h0Zm-.34,3.17l4.23,3.19.02,2.47-4.18-3.15c-.02-.59-.05-1.18-.07-1.77,0-.26-.01-.51,0-.75h0Zm.11,3.42l4.15,3.13.02,2.44-4.09-3.08c-.02-.84-.05-1.66-.08-2.49h0Zm.09,3.38l4.08,3.08.03,2.92-4.1-3.09c0-.41,0-.8,0-1.19,0-.58,0-1.15-.01-1.71h0Zm0,3.78l4.12,3.1.02,2.25-4.14-3.12c0-.79,0-1.53,0-2.23h0Zm0,3.12l4.13,3.12.02,2.65-4.04-2.75c-.07-1.1-.1-2.09-.12-3.01h0Zm.17,3.89l3.99,2.72.02,2.62-3.81-2.6c-.03-.51-.07-1.05-.11-1.62-.03-.39-.06-.76-.08-1.13h0Zm.24,3.62l3.78,2.58.02,2.63-3.78-2.58c.01-.8.01-1.67-.03-2.64h0Zm0,3.47l3.81,2.6.02,2.02-3.93-2.68c.04-.6.08-1.24.1-1.94h0Zm-.16,2.75l3.99,2.72.02,2.65-4.14-2.82c0-.46.02-.94.05-1.45.02-.36.05-.73.08-1.1h0Zm-.12,3.4l4.14,2.82.03,2.82-3.96-2.7c-.11-.99-.19-1.94-.21-2.94h0Zm.31,3.86l3.86,2.63.02,2.89-3.57-2.44c-.07-.9-.16-1.79-.27-2.71-.01-.13-.03-.26-.04-.38h0Zm.37,3.98l3.52,2.4.03,2.9-3.46-2.36c0-1.03-.03-1.99-.09-2.94h0Zm.07,3.78l3.48,2.37v.78c-1.62,0-2.5.12-3.75.33-.08.01-.17.03-.26.04.19-.84.46-2.19.53-3.52Z" style="fill: #fff; fill-rule: evenodd; stroke: #231815; stroke-miterlimit: 10; stroke-width: 0px;"/>
          <path d="m132.16,148.41c-.34,0-.65-.12-.9-.32-.01.04-.02.08-.04.11.42.24.71.67.71,1.16,0,.75-.67,1.36-1.48,1.36s-1.48-.61-1.48-1.36c0-.51.31-.96.77-1.19l-.03-.19c-.27.27-.62.46-.98.46-.77,0-1.34-.66-1.34-1.46s.63-1.46,1.4-1.46c.73,0,1.34.66,1.41,1.29.08-.18.07-.51-.04-1.01-.16-.69-.64-1.31-.64-1.31h1.93c-.67.69-.69,1.97-.68,2.13,0,.02,0,.04.02.07.14-.62.71-1.09,1.37-1.09.78,0,1.41.63,1.41,1.41s-.63,1.41-1.41,1.41h0Zm0-11.8c-.34,0-.65-.12-.9-.33-.01.04-.02.08-.04.11.42.24.71.67.71,1.16,0,.75-.67,1.36-1.48,1.36s-1.48-.61-1.48-1.36c0-.51.31-.96.77-1.19l-.03-.19c-.27.27-.62.46-.98.46-.77,0-1.34-.65-1.34-1.46s.63-1.46,1.4-1.46c.73,0,1.34.66,1.41,1.29.08-.19.07-.51-.04-1.01-.16-.69-.64-1.31-.64-1.31h1.93c-.67.69-.69,1.97-.68,2.13,0,.01,0,.04.02.07.14-.62.71-1.09,1.37-1.09.78,0,1.41.63,1.41,1.41s-.63,1.41-1.41,1.41Z" style="fill: #fff; fill-rule: evenodd; stroke: #231815; stroke-miterlimit: 10; stroke-width: 0px;"/>
          <g>
            <path d="m53.26,81.42s12.07,8.83,17.59,18.29c2.99,5.12,4.31,10.08,4.92,14.09.71,7.22,1,14.46,1.57,21.7.37,5.27.89,9.29,2.12,13.96,0,0,4.4,11.65,8.24,19.38.01.02.02.04.04.06,2.26-.64,4.68-.64,6.44-.31,3.4.63,5.32,3.18,5.86,4.01.03.04.06.1.08.16,1.2-.63,5.17-2.73,10.19-5.58-1.67-1.25-12.5-9.55-17.58-18.27-2.98-5.12-4.31-10.08-4.92-14.08-.71-7.22-1-14.47-1.57-21.7h0c-.36-5.27-.89-9.29-2.11-13.96,0,0-4.4-11.65-8.24-19.38-.01-.02-.02-.04-.04-.06-2.26.64-4.68.64-6.44.31-3.4-.63-5.32-3.18-5.86-4.01-3.33,1.41-7.06,3.41-10.28,5.39Z" style="fill: #231815; fill-rule: evenodd; stroke: #231815; stroke-miterlimit: 10; stroke-width: 0px;"/>
            <path d="m66.1,81.47l.2-.17s.46,1.46.9,2.37c.43.91,1.65,1.55,3.23,1.23,0,0-.63,1.42-2.5,1.42s-3.06-1.42-3.1-2.47c-.04-1.06.95-2.03,1.27-2.37h0Zm6.28,7.96l-.22-.07s.39,2.71-.63,2.77c-1.03.05-1.71-1.74-1.4-3.03.32-1.29,1.42-2.27,3.16-2.11,1.74.16,3.46,1.16,4.6,4.17,1.14,3,1.25,7.32-1.24,8.23,0,0-.81,0-.81-1.38s-.03-2.29-.87-2.29-1.96,1.5-1.96,2.44.75,2.91,1.99,3.29c1.25.38,2.77-.28,2.96-.59,0,0-.79,5.4-.91,8.55-.12,3.15.53,7.46,3.56,7.72,0,0,2.25.22,2.79-1.55.54-1.77-.94-3.26-1.85-3.26s-1.41.58-1.43,1.01.34,1.01.62,1.25c.28.24.18.38-.04.38s-.64-.06-1.29-1.25c-.66-1.19-.59-2.45-.66-3.76-.07-1.31,0-4.29,0-4.29,0,0,1.26,1.48,2.55,1.5,1.29.02,1.52-1.6,1.19-2.52-.33-.93-1.12-1.31-1.12-1.31,0,0-.38,1.91-.76,1.93-.38.02-1.03-.06-.84-2.25.2-2.19.5-7.18.21-10.05-.28-2.87-2.4-8-6.54-7.96-4.13.04-5.11,3.05-5.11,5.39s1.02,4.03,3.68,3.82c2.66-.21,2.8-2.24,2.31-3.22-.49-.98-1.93-1.54-1.93-1.54h0Zm3.17,13.28c.88,0,1.59.7,1.59,1.56s-.71,1.56-1.59,1.56-1.59-.7-1.59-1.56.72-1.56,1.59-1.56h0Zm5.75,15.72c1.14,0,2.07.91,2.07,2.03s-.93,2.03-2.07,2.03-2.07-.91-2.07-2.03.93-2.03,2.07-2.03h0Zm16.17,48.71l-.2.17s-.46-1.46-.9-2.37c-.43-.91-1.66-1.55-3.23-1.23,0,0,.63-1.42,2.5-1.42s3.06,1.42,3.1,2.47c.04,1.06-.95,2.03-1.27,2.37h0Zm-6.28-7.96l.22.07s-.4-2.71.63-2.77c1.03-.05,1.71,1.74,1.4,3.03-.32,1.29-1.42,2.27-3.16,2.11-1.74-.16-3.46-1.16-4.6-4.16-1.14-3-1.25-7.32,1.24-8.23,0,0,.81,0,.81,1.38s.03,2.28.87,2.28,1.96-1.5,1.96-2.44-.75-2.91-1.99-3.29c-1.25-.38-2.77.28-2.96.59,0,0,.79-5.4.91-8.55.12-3.15-.53-7.46-3.56-7.72,0,0-2.25-.22-2.79,1.55-.54,1.77.94,3.26,1.85,3.26s1.41-.58,1.43-1.01c.02-.44-.34-1.01-.62-1.25-.28-.24-.18-.38.04-.38s.64.06,1.29,1.25c.66,1.19.59,2.45.66,3.76.07,1.31,0,4.29,0,4.29,0,0-1.26-1.48-2.55-1.5-1.29-.02-1.53,1.6-1.19,2.53.33.93,1.12,1.31,1.12,1.31,0,0,.38-1.91.76-1.93.38-.02,1.03.06.84,2.25-.2,2.19-.5,7.18-.21,10.05.29,2.87,2.4,8,6.54,7.96,4.13-.03,5.12-3.05,5.12-5.39s-1.02-4.03-3.68-3.82c-2.66.21-2.8,2.24-2.31,3.22.49.98,1.93,1.54,1.93,1.54h0Zm-3.17-13.28c-.88,0-1.59-.7-1.59-1.56s.72-1.56,1.59-1.56,1.59.7,1.59,1.56-.72,1.56-1.59,1.56h0Zm-5.75-15.72c-1.14,0-2.07-.91-2.07-2.03s.93-2.03,2.07-2.03,2.07.91,2.07,2.03-.93,2.03-2.07,2.03Z" style="fill: #fff; fill-rule: evenodd; stroke: #231815; stroke-miterlimit: 10; stroke-width: 0px;"/>
          </g>
          <path d="m106.06,95.56c.47.11.86.39,1.13.78.03-.06.05-.11.08-.15-.5-.5-.75-1.23-.6-1.96.24-1.12,1.34-1.81,2.46-1.55,1.12.27,1.84,1.4,1.6,2.51-.16.77-.73,1.33-1.44,1.53l-.02.3c.45-.31.99-.48,1.5-.36,1.06.25,1.64,1.42,1.39,2.62-.25,1.2-1.33,1.97-2.39,1.72-1-.24-1.63-1.42-1.53-2.38-.17.25-.26.74-.26,1.52,0,1.08.46,2.16.46,2.16l-2.65-.63c1.14-.81,1.58-2.71,1.61-2.95,0-.02,0-.06,0-.11-.4.88-1.32,1.39-2.23,1.17-1.07-.25-1.74-1.41-1.49-2.57.25-1.16,1.32-1.9,2.39-1.64Z" style="fill: #fff; fill-rule: evenodd; stroke: #231815; stroke-miterlimit: 10; stroke-width: 0px;"/>
        </g>
        <g>
          <path d="m53.27,81.44h0c-4.81,2.73-10.58,6.14-15.78,9.59v27.09c1.88.6,2.82,1.77,2.85,3.17.02.83-.02,1.51-.06,1.95l1.61.68v.04c.27.12.53.22.8.3l.97.41v-.23c2.21.21,3.95-.96,3.95-.96l17.06-4.56.27.19.17.69c.02,1.04.07,2.66-.04,5.24,1.38-1.51,2.71-1.51,2.71-1.51-.42-4.3,3.34-4.66,3.34-4.66v-18.73c-.08-.15-.17-.29-.25-.44-5.09-8.72-15.92-17.02-17.58-18.27h0Zm13.12,32l.95,3.16.95,3.16h-1.73v2.12l-.89-2.12h-1.18l.95-3.16.95-3.16h0Zm-21.03-11.8l.95,3.16.95,3.16h-1.73v2.12l-.89-2.12h-1.18l.95-3.16.95-3.16h0Zm.08-13.46l.95,3.16.95,3.16h-1.73v2.12l-.89-2.12h-1.18l.95-3.16.95-3.16h0Zm6.93-5.64l.95,3.16.95,3.16h-1.73v2.12l-.89-2.12h-1.18l.95-3.16.95-3.16h0Zm6.79,5.54l1,3.32,1,3.32h-1.82v2.23l-.94-2.23h-1.24l1-3.32,1-3.32h0Zm7.41,9.02l1,3.32,1,3.32h-1.82v2.23l-.94-2.23h-1.24l1-3.32,1-3.32Z" style="fill: #fff; fill-rule: evenodd; stroke: #231815; stroke-miterlimit: 10; stroke-width: 0px;"/>
          <path d="m40.93,164.03v4.34s2.05-3.05,4.26-7.75c2.21-4.71,8-17.48,7.91-33.93v-6.21s-1.05.69-2.53,1.48c.36,2.68,1.04,10.74-1.46,21.75-2.56,11.27-6.8,18.25-8.18,20.32Z" style="fill: #ffe100; fill-rule: evenodd; stroke: #231815; stroke-miterlimit: 10; stroke-width: 0px;"/>
          <path d="m40.93,144.06v19.97c1.38-2.07,5.62-9.06,8.18-20.32,2.5-11.01,1.82-19.07,1.46-21.75-.14.07-.28.15-.43.22-2.6,1.34-6.27,2.8-8.23,1.65v-35.66c-1.06.67-2.12,1.34-3.16,2.01v28.49c1.04.65,1.57,1.56,1.59,2.6.02,1.04-.05,1.85-.09,2.25.83.24,1.81.64,2.48,1.3,1.33,1.32,1.55,3.02,1.21,4.39-.34,1.38-.21,2.48-.17,3.96.03,1.48-.24,3.2-2.16,4.82-1.92,1.62-5.69,2.4-9.12,1.19l-.65.85s.85,1.16,1.33,1.43c.48.28,1.8.05,3-.25,1.2-.3,3.37-.8,4.86-.8s3.09,1.05,3.3,2.35c.21,1.3-.61,2.65-1.33,2.65s-1.56-.7-2.07-1.37Z" style="fill: #231815; fill-rule: evenodd; stroke: #231815; stroke-miterlimit: 10; stroke-width: 0px;"/>
          <path d="m29.59,140.06c.41-.32.98-.55,1.74-.5,0,0,.53-.12.53-.42s-.3-.92-.76-1.19c-.46-.27-1.6-1.42-1.1-2.91,0,0-.31-.43-.41-1.12v6.14h0Zm0-6.98c.1-1.05.14-1.79.18-2.49.04-.73.27-.77.27-1.26s-.16-1.49-.04-2.06c.12-.58,1.6-2,3.64-2.05,0,0-.89-1.18-1.1-2.43-.22-1.25.38-4.61,4.22-4.98v-26.29c-2.63,1.76-5.08,3.53-7.17,5.21v36.36Z" style="fill: #e60012; fill-rule: evenodd; stroke: #231815; stroke-miterlimit: 10; stroke-width: 0px;"/>
          <path d="m52.85,171.63l-4.25,2.32-7.73-4.71s12.24-15.42,13.12-41.09v-.15c.53.07,1.08.12,1.64.13,4.29.11,7.26-2.53,8.79-5.86-.05,1.73-.13,3.98-.24,6.27-.7,14.03-4.39,30.94-11.32,43.08Z" style="fill: #e60012; fill-rule: evenodd; stroke: #231815; stroke-miterlimit: 10; stroke-width: 0px;"/>
          <path d="m93.48,204.93l-.08-.17-.92-1.93s-12.23,4.02-34.78.24l-.93,1.83-.16.32c20.07,3.7,33.88.53,36.88-.28Z" style="fill: #e60012; fill-rule: evenodd; stroke: #231815; stroke-miterlimit: 10; stroke-width: 0px;"/>
          <path d="m48.16,221.84h53.4l-8.08-16.91c-3,.81-16.8,3.98-36.88.28l-8.44,16.63Z" style="fill: #ffe100; fill-rule: evenodd; stroke: #231815; stroke-miterlimit: 10; stroke-width: 0px;"/>
          <path d="m95.46,209.08l-1.98-4.15c-3,.81-16.8,3.98-36.88.28l-1.38,2.73c.97-.42,2.27-.74,3.76-.5,3.31.54,4.17,4.76,4.17,4.76.77-1.66,2.84-4.13,6.63-4.13s5.46,4.54,5.46,4.54c.96-2.06,2.89-4.53,6.43-4.71,3.54-.18,5.55,3.53,5.55,3.53,1.39-2.77,3.41-4.36,5.08-4.13,1.23.17,2.56,1.24,3.18,1.79h0Zm3.78,7.91c-.66-.04-1.97-.3-2.42-1.72,0,0-2.26.37-2.78-1.04-.52-1.41.73-2.92,1.41-3.2,0,0-1.8-.71-3.18.74,0,0-2.14-1.17-3.7.31,0,0,2.41.43,2.69,2.18.28,1.75-1.28,2.37-1.65,2.37,0,0-.02,2.28-1.86,2.41-1.84.13-1.84-1.72-1.84-2.07,0,0-2.31-.35-2.31-1.94s1.95-2.64,1.95-2.64c0,0-.78-.75-1.87-.75s-2.26.56-2.81,1.37c0,0-1.47-1.25-2.44-1.31-.97-.06-1.59.5-1.65,1.03,0,0,2.44.38,2.47,2.35.03,1.97-1.65,2.09-1.65,2.09,0,0-.42,2.75-2.2,2.66-1.78-.09-2.07-2.31-2.07-2.31,0,0-2.15-.45-2.15-2.4s1.26-2.14,2.06-2.14c0,0-.83-.92-1.86-.94-1.03-.03-1.86.34-2.29.83,0,0-1.2-1.17-2.4-1.2-1.2-.03-1.95.57-1.95.57,0,0,2.46.2,2.57,2.23.12,2.03-1.89,2.09-2.26,2.09,0,0-.47,2.37-2.23,2.37s-2.31-1.68-1.85-2.96c0,0-1.76-.15-2.04-1.59-.27-1.43.64-2.81,2.49-2.29,0,0-.39-.85-1.43-.85s-2.37.09-2.37.09c0,0-.87-1.55-2.82-1.2,0,0,1.28.89,1.35,2.2.07,1.31-1.4,2.22-2.81,1.94,0,0,.35,2.28-2.71,2.68l1.99-3.92c.38-.09.87-.28,1.19-.7.38-.5.09-1-.18-1.29l.95-1.87c.25-.2.54-.38.87-.54,1.54-.7,4.9.28,6.22,2.05,0,0,.99,1.22.88,2.15,0,0-.22.74-.24,1.15-.03.41.16.74.57.74s1.09-.14,1.09-.82-.35-.85-.3-1.31c.05-.47,2.92-3.18,4.71-3.18s4.07.4,5.56,2.5c0,0,.73.92.73,1.77s-.15,1.74.36,1.8c0,0,.58.11.91-.26.33-.37-.12-.74-.12-1.42s.14-1.86,1.64-3.1c1.5-1.25,2.28-1.39,3.87-1.39s3.5.73,4.68,2.24c1.19,1.51.9,2.03.67,2.21-.23.17-.09.87.43.9.52.03.84-.09.84-.58s-.35-.93-.63-1.34c-.29-.41.26-1.22.61-1.68.35-.46,2.06-2.38,4.64-2.38,1.35,0,2.37.39,3.03.76l3.62,7.57Z" style="fill: #231815; fill-rule: evenodd; stroke: #231815; stroke-miterlimit: 10; stroke-width: 0px;"/>
          <path d="m91.33,197.54l.42-.21v.84s-1.16.88-2.6.96c-1.44.08-3.85-.21-4.62-2.32.53.53,2.66,1.58,3.91,1.55,1.27-.03,2.12-.42,2.89-.81h0Zm.16-1.66c-1.79.96-3.02.94-4.22.72-1.2-.22-2.71-1.29-2.71-1.29.26.94,2.73,2.03,4.63,1.9,1.9-.13,2.36-1.14,2.36-1.14l-.07-.2h0Zm-.27-1.75l.32.02s.14-.21.12-.66c-.02-.44-.69-.62-.94-.53-.25.09.16,1.1.49,1.17h0Zm-1.26.36c-.41-.92-.99-1.39-1.5-1.37-.51.02-1.34.99-1.34.99.14-1.47,1.43-1.9,2.26-1.42.83.48,1.18,1.83,1.18,1.83l-.6-.04h0Zm-4.08-.53l.12-.07s.35-.66.48-.8c.13-.14-.58-.11-.85.14-.26.25-.26.75.25.73h0Zm6.93,6.58c-.06-.19-.15-.49-.26-.96-.52.34-1.71,1.02-3.1,1.15-1.87.17-5.25-.17-6.06-4.08,0,0-.17-.72.29-2.71.46-1.99,1.36-7.13,1.41-8.05l-1.07-.76s0,1.79-1.2,2.05c-1.2.26-1.62-.66-2.43-.97-.81-.32-1.72-.18-2.01.52-.29.71.44,1.66,1.39,1.97,0,0-.13.39-.78.39s-1.41-.81-1.41-1.34.05-2.02,1.15-2.65c1.1-.63,3.92-.03,3.92-.03,0,0-1.46-2.11-.79-3.22,0,0,.51,1.12,1.41,1.84.9.71,2.12.54,2.51,1.62.39,1.07-.75,5.82-.75,5.82,0,0,1.34-1.44,1.61-1.44s.22.42-.16.84c-.38.42-.6,1.06-.04,1.06s2.27-.61,5.76.99c0-.2.01-.39.02-.6,0,0,.09-3.18.09-4.07s-1.3-3.88-1.3-7.95-.26-9.09,6.36-9.68c0,0-.72-.91-2.36-.64-1.63.27-4.31,1.59-5.54,7.04,0,0-.21,1.05-.42,1.05s-.37-.12-.33-.48c.05-.36.32-1.29.68-2.46.36-1.17,1.68-4.56,5.06-5.73,0,0-2.42-.25-4.1,1.25-1.68,1.5-3.11,5.43-3.11,5.43,0,0-.08.27-.38.27s-.32-.59-.13-.91c.19-.32,1.78-4.54,4.07-5.88,0,0-1.87.28-3.4,2.5-1.54,2.22-1.82,3.88-1.99,4.39-.18.5-.66.3-.66-.18s1.19-4.36,4.36-6.68c0,0-2.12.33-3.66,2.29,0,0-1.06,1.41-1.51,3.1,0,0-.28.98-.38,1.26-.1.28-.48.12-.48-.43s.71-3.15,2.75-5.07c0,0-1.3.42-2.42,1.95-1.11,1.53-1.58,4.09-1.58,4.09,0,0,1.22.05,1.82.39.6.34.57.77.22.91-.35.14-.85-.14-1.5-.24-.65-.1-1.57.07-2.08.24-.51.17-.87.07-.87-.21s.54-.84,1.8-1.05c0,0-1.3-3.64-3.8-6.69,0,0-1.95-2.58-4.99-2.54-3.05.04-5.67,1.82-6.14,4.19-.46,2.37.89,4.23,2.5,4.23s2.5-1.52,2.54-2.5c.04-.97-.59-2.12-1.52-2.12,0,0-.55-.04-.51-.38.04-.34.59-.25,1.48-.25s2.92.47,3.98,1.23c1.06.76,2.33,2.03,2.79,3.26l-.46.33s-2.03-4.24-6.04-4.11l1.12,1.66s1.37.28,2.91,1.73,1.59,1.64,1.58,1.9c-.02.26-.33.46-.68-.02-.35-.48-1.92-2.87-4.23-3.06l-.02,1.2s1.08.31,2.18,1.36c1.1,1.05,1.15,1.14,1.15,1.29s-.18.39-.42.33c-.24-.05-1.63-2.41-3.43-2.45l-.62.64s2.54,1.65,3.13,2.86l-.54.38s-2.16-2.63-3.04-2.84c-.88-.21-1.29.32-1.29.32l3.31,3.62-.59.53-4.33-4.89s1.34,4.72,1.95,12.92c.1,1.34.19,2.62.28,3.83.73.81,1.51.37,1.86.08.38-.32,1.22-.67,1.98-.73.76-.06,3.58-.09,3.58-.09l-1.49-1.66s3.26.99,3.61,2.07c.35,1.08-.15,1.78.67,2.21.82.44.41,1.49-.26,1.49s-.9,0-.96.26c-.06.26-.41.9-1.6,1.52-1.17.6-2.82,1.34-7.14-1.32.03.48.06.94.09,1.38.61.38,2.65,1.56,4.77,1.72.85.11,1.64.1,2.5,0,.93-.11,1.46-.83,2.02-1.04.56-.21,1.12-.03,1.12.37s-.16,1.2-1.97,2c-1.81.8-3.89.27-5.43-.27-1.22-.42-2.47-1.3-2.94-1.66.1,1.59.16,2.81.2,3.52,1.4.09,2.87.15,4.38.17,8.23.12,16.1-1.46,18.35-1.96h0Zm-23.22-6.28c.73.59,2.8,2.13,4.59,2.16.77.06,1.43.09,2.21-.06.79-.15,1.16-.73,1.46-.76.29-.03.32.26.03.64-.29.38-1.28,1.02-3.09,1.02-1.65,0-3.79-.71-5.14-2.12-.02-.29-.04-.59-.06-.89h0Zm7.58-1.46s.46.32.73.52c.28.2.12.59-.32.58s-.63-1.19-.63-1.19l.22.1h0Zm-.79.77l.14.24s.12.36-.2.36-.47-.28-.87-.55c-.39-.28-.77-.2-1.03-.06-.26.14-.63.54-.85.54s-.18-.44.14-.77c.31-.34.73-.48,1.24-.48s1.09.3,1.42.73h0Zm-3.69-.52l.24.04s-.33.75-.63.75-.57-.14-.55-.46c.02-.32.42-.24.95-.34h0Zm14.85-8.84c.39.21.42.43,1.01.4.68-.04,1.01-.51.92-1.54-.09-1.03-1.09-1.5-1.99-1.23-.9.27-2.08,1.52-2.67,1.52s-1.12-.35-1.09-1.01c.02-.66.81-1.36,1.66-1.74.85-.37,2.38-.86,3.52.18,1.14,1.03,1.58,2.68,1.53,3.32-.04.64-.44,1.36-1.29,1.41-.85.04-1.42,0-1.99-.35-.57-.35-.83-1.19-.24-1.21.59-.02.63.26.63.26h0Zm-2.33-6.27c.48-.22.98.08.98.7,0,.59-.08.84-.67,1.01-.59.17-.78,0-1.04.17-.25.17-.73.7-1.21.81-.48.11-.76-.17-1.18-.34-.42-.17-.48-.36-.84-.36s-.5.48-1.09.48-1.15-.28-1.37-.39-.84,0-1.2,0-.62-.62-.7-1.18c-.08-.56-.11-.9.17-.92.28-.03.59.17.98.39.39.22,1.29-.03,1.68-.03s.95-.2,1.71-.2,1.01.17,1.62.17,1.04.25,1.46.25.45-.5.7-.56h0Zm-8.38,2.94l.48.11s1.85.48,2.86,1.15c1.01.67.03,1.6-.92,1.6s-2.24-1.12-3.56-1.26c-1.32-.14-2.33.64-2.5,1.79-.17,1.15.64,1.34,1.01,1.34s1.04-.34,1.37-.81c.34-.48.7-.23.7.56s-1.12,1.34-1.77,1.23c-.64-.11-1.96-1.01-2.27-2.27-.31-1.26.79-3.42,2.44-3.7,0,0,.84-.06,2.16.25h0Zm16.12,18.15c-.13-.91-.24-1.91-.24-2.74,0-.78.04-1.76.08-2.78.53-1.13,1.71-1.33,2.4-1.33.78,0,1.78.53,1.78,1.37s-.64,1.74-1.39,1.74-.67-.48-1.06-.45c-.39.03-.47.87-.73,1.62-.19.58-.65,1.97-.85,2.57h0Zm-.07-8.98c0-.56-.02-1.08-.07-1.5-.06-.56-.17-1.15-.31-1.75.35-2.22,2.51-3.83,3.83-3.82,1.42.02,1.99.88,2.02,1.66s-.15,1.62-.68,1.91c-.53.29-1.3.19-1.69-.29-.39-.48-.38-.67-.8-.63s-1.03.84-1.46,1.89c-.34.84-.7,2.06-.84,2.53h0Zm-1.38-9.3c-.03-.77-.04-1.63-.03-2.48l.19-.21c.24,1.02.71,1.67,1.15,2.08l-1.31.61h0Zm2-.93c-.45-.34-1.07-1.05-1.25-2.43l.67-.76c.24,1.5.94,2.34,1.46,2.78l-.89.41h0Zm1.61-.75c-.42-.25-1.44-1.08-1.56-3.16l.73-.83c-.29,2.46,1.76,3.55,1.76,3.55l-.94.43h0Zm.79-3.98l.02.15s.43.8,1.2.8,1.5-.56,1.5-1.66-1.2-1.96-2.27-1.85-1.88,1.27-2.97,2.64c-1.09,1.38-1.86,2.26-1.86,2.26,0,0,.04-1.85.36-3.01.32-1.16,2.25-3.5,4.82-3.54,2.57-.05,3.56,2.21,3.68,3.77.11,1.56-.97,3.33-2.67,3.63-1.7.3-2.94-1.17-2.96-2.53-.02-1.36.78-2.55,1.61-2.6.83-.05,1.59.41,1.59,1.45s-1.19.78-1.24.41c-.04-.37-.64-.2-.8.07h0Zm-36.01,26.04c-.12-1.64-.35-5.02-.44-7,0-.21-.02-.51-.04-.84-.13-3.29-.45-11.34-2.29-13.44-.77.36-1.29.61-1.29.61,0,0,1.7,4.01,1.93,7.73.21,3.33.68,11.08.77,12.7.39.07.85.16,1.36.24h0Zm1.66.27c-.38-.06-.75-.12-1.09-.17-.11-1.59-.35-5.11-.45-7.12-.01-.24-.02-.52-.04-.84-.13-3.27-.44-11.12-2.34-13.65.41-.19.87-.4,1.34-.6.63,1.07,1.12,3.16,1.47,5.5.64,4.21.86,9.24.86,10.94,0,1.99.17,4.63.26,5.95h0Zm2.38.33c-.64-.08-1.24-.16-1.81-.25-.09-1.26-.27-4.01-.27-6.03,0-1.7-.22-6.77-.86-11.02-.35-2.36-.85-4.47-1.51-5.64.46-.2.92-.39,1.35-.56,1.16,2.16,1.58,8.94,1.74,11.62.02.37.04.67.05.84.16,2.09.32,4.16.57,6.25.19,1.59.42,3.18.73,4.78h0Zm1.97.23c-.48-.05-.94-.1-1.38-.16-.33-1.64-.57-3.28-.76-4.92-.24-2.03-.41-4.11-.56-6.22-.02-.21-.03-.49-.05-.84-.16-2.68-.57-9.39-1.78-11.79.36-.13.7-.25.97-.32.13-.04.25-.07.36-.12,1.48,3.26,1.64,8.25,1.73,11.01.02.54.03.99.05,1.32.12,2.1.34,4.35.62,6.59.23,1.84.5,3.68.8,5.43h0Zm1.73.17c-.39-.03-.78-.07-1.15-.11-.31-1.78-.59-3.66-.83-5.56-.28-2.22-.49-4.46-.62-6.55-.02-.35-.03-.79-.05-1.31-.09-2.8-.25-7.86-1.77-11.22,1.16-.61,1.32-1.49,1.32-1.49,0,0,1.53,5.59,1.53,8.22s.41,7.37.66,11.04c.2,2.88.7,5.83.91,6.98h0Zm1.87.15c-.41-.03-.8-.06-1.19-.09-.66-2.24-.96-7.29-1.51-15.59-.59-8.83-2.19-13.25-2.97-14.28s-1.82-1.21-2.5-.99-1.51.99-1.56,1.8c-.04.81.03,1.43.5,1.99.47.56,1.26.5,1.69.22.43-.28,1.1-.66,1.2-.69.1-.03.19-.19-.07-.38-.26-.19-.48-.06-.48-.06-.36.33-.88.77-1.38.66-.51-.11-.84-.4-.84-1.35s.66-1.71,1.6-1.71,2.22,1.71,2.22,3.24-1.53,2.44-3.42,2c-1.89-.44-2.4-2.62-2.44-4.37-.04-1.75.44-3.46,3.24-3.46s5.09,5.37,5.75,9.1c.66,3.72.88,6.03,1.35,11.88.41,5.12.73,10.76.8,12.08h0Zm-9.07-24.76c-.97-.16-2.19-1.16-2.48-3.06-.29-1.9.08-4,.08-4,0,0-.46.24-1.17.6-.36,1.4-.47,2.32-.44,3.02.03.7.2,1.18.41,1.68.34.84,2.13,2.12,2.6,2.45.83-.36,1.39-.61,1.39-.61l-.4-.08h0Zm-1.75,1.01c-.75-.55-2.16-1.66-2.5-2.51-.23-.56-.43-1.1-.46-1.92-.02-.65.06-1.47.32-2.62-.37.19-.77.39-1.18.6-.3,1.25-.4,2.1-.38,2.75.03.7.2,1.18.41,1.68.37.9,2.39,2.3,2.68,2.5.38-.17.76-.33,1.11-.48h0Zm-1.86.81c-.37.16-.75.32-1.11.48-.67-.48-2.07-1.55-2.37-2.28-.21-.5-.38-.97-.41-1.68-.03-.7.09-1.62.45-3.03.22-.11.44-.22.66-.33-.22,1.02-.29,1.76-.26,2.36.03.82.23,1.35.46,1.92.36.88,1.85,2.04,2.58,2.57h0Zm-1.85.8c-.46.2-.87.38-1.22.52-1.27-.84-1.97-1.67-2.26-2.67-.32-1.13-.13-2.52.35-4.39.23-.12.48-.24.73-.36-.27,1.17-.35,1.99-.33,2.64.03.82.23,1.35.46,1.92.31.77,1.49,1.75,2.27,2.34h0Zm-1.99.85c-1.18-.86-1.86-1.74-2.16-2.8-.33-1.15-.2-2.47.21-4.17-.06.03-.12.06-.18.09-2.21,1.08-2.4,2.9-1.53,4.87.87,1.97,2.71,2.37,3.42,2.11.05-.02.13-.05.24-.1Z" style="fill: #fff; fill-rule: evenodd; stroke: #231815; stroke-miterlimit: 10; stroke-width: 0px;"/>
          <path d="m63.98,169.71c.2.19.39.39.56.59.63.73,1.04,1.43,1.04,1.43.1-.46.23-.87.39-1.26,1.38-3.3,4.84-3.95,7.25-3.8,2.9.19,5.2,3.17,6.58,5.49.02.03.04.06.05.09.51.87,1.35,2.54,1.68,3.18.17-1.14.54-2.11,1.04-2.93.05-.09.11-.17.16-.25l-10.81-8.32-7.95,5.78Z" style="fill: #e60012; fill-rule: evenodd; stroke: #231815; stroke-miterlimit: 10; stroke-width: 0px;"/>
          <path d="m86.54,169.3l-14.98-11.33-16.36,13.08,1.01-.59s3.91-1.92,5.77-1.82c.72.04,1.42.5,2.01,1.07l7.95-5.78,10.81,8.32c.94-1.39,2.29-2.34,3.8-2.95Z" style="fill: #231815; fill-rule: evenodd; stroke: #231815; stroke-miterlimit: 10; stroke-width: 0px;"/>
          <path d="m87.73,168.91h0s-.02-.05-.04-.08c-.83-1.68-1.69-3.55-2.53-5.44l-.55-.41v4.86l1.93,1.46,1.2-.4h0Zm-4.15-6.68l-3.65-2.69v4.77l3.65,2.76v-4.84h0Zm-4.68-3.45l-2.8-2.06v4.69l2.8,2.11v-4.75h0Zm-3.83-2.82l-3.18-2.34v4.61l3.18,2.41v-4.67h0Zm-4.21-2.43l-2.62,2.13v4.95l2.62-2.09v-4.99h0Zm-3.65,2.97l-3.33,2.71v4.9l3.33-2.66v-4.94h0Zm-4.36,3.54l-2.43,1.97v4.85l2.43-1.94v-4.88h0Zm-3.46,2.81l-2.56,2.08c-.13.29-.25.56-.38.84v4.27l2.94-2.35v-4.83h0Zm-3.97,5.07c-1.33,2.67-2.4,4.39-2.4,4.39l2.16-1.26.23-.19v-2.94Z" style="fill: #ffe100; fill-rule: evenodd; stroke: #231815; stroke-miterlimit: 10; stroke-width: 0px;"/>
          <path d="m57.52,163.31l13.94-11.14,12.97,9.56c-.85-1.96-1.65-3.89-2.36-5.63l-10.61-7.4-11.88,8.84c-.33,1.05-.67,2.06-1.01,3.04-.33.94-.68,1.86-1.04,2.74h0Zm23.98-8.62l-10.11-6.85-11.45,8.54c.46-1.5.89-3.08,1.31-4.73l10.14-7.57,8.38,6.2c.35.9.96,2.48,1.74,4.42h0Zm-2.21-5.83l-7.93-5.74-9.84,7.38c.32-1.34.63-2.72.92-4.16l8.74-6.63,7.3,5.54c.23,1.19.49,2.38.8,3.61h0Zm-1.02-4.88c-.25-1.48-.44-2.97-.6-4.54l-6.25-4.36-8.07,6.34c-.21,1.3-.43,2.56-.67,3.79l8.45-6.34,7.14,5.11h0Zm-.7-5.54l-5.65-3.98s1.51-.76,2-2l3.35,2.34c.02.23.04.46.05.69h0c.07,1.03.15,2,.24,2.95h0Zm-14.06,1.9l7.16-5.66s-2.14-1.02-2.36-2l-4.21,3.31c-.01.11-.03.21-.04.32-.17,1.38-.35,2.73-.55,4.03h0Zm13.68-6.7c-.13-1.72-.24-3.45-.35-5.17-1.17,1.48-2.74,1.54-2.74,1.54v1.47l3.09,2.17h0Zm-9.28-3.77v2.14l-3.68,2.86c.31-2.68.51-4.93.65-6.82.52.75,1.53,1.85,3.04,1.82Z" style="fill: #ffe100; fill-rule: evenodd; stroke: #231815; stroke-miterlimit: 10; stroke-width: 0px;"/>
          <path d="m76.6,124.58c-.61-.46-1.56-1.06-2.34-1.09,0,0,.51-3.88-2.5-4.45v-17.68c2.35,4.53,3.46,8.86,4.01,12.43.35,3.59.6,7.19.83,10.79Z" style="fill: #e60012; fill-rule: evenodd; stroke: #231815; stroke-miterlimit: 10; stroke-width: 0px;"/>
          <path d="m70.85,129.1c-.95,0-1.72-.81-1.72-1.81s.77-1.81,1.72-1.81,1.72.81,1.72,1.81-.77,1.81-1.72,1.81h0Zm1.41-4.38l2.46,2.48-1.42,1.68h.88c1.07,0,1.94-.87,1.94-1.94v-.29c0-1.07-.87-1.94-1.94-1.94h-1.93Zm-3.31,0h-1.11c-1.07,0-1.94.87-1.94,1.94v.29c0,1.07.87,1.94,1.94,1.94h.72l-1.36-1.38,2.37-2.79h-.61Zm2.06,8.68h0c-1.14,0-2.06-.93-2.06-2.06v-1.33h.72l1.44,1.46,1.23-1.46h.72v1.33c0,1.13-.93,2.06-2.06,2.06h0Zm2.06-9.72h-1.84l-.45-.4-.37.4h-1.47v-1.31c0-1.13.93-2.06,2.06-2.06h0c1.13,0,2.06.93,2.06,2.06v1.31Z" style="fill: #fff; fill-rule: evenodd; stroke: #231815; stroke-miterlimit: 10; stroke-width: 0px;"/>
          <path d="m60.88,138.8c-.48,0-.93-.18-1.28-.49-.01.06-.03.12-.04.16.6.37,1.02,1.02,1.04,1.77.03,1.14-.89,2.07-2.04,2.07s-2.11-.93-2.14-2.07c-.02-.78.41-1.47,1.04-1.82l-.05-.3c-.37.41-.85.7-1.37.7-1.09,0-1.92-1-1.95-2.22-.03-1.23.84-2.23,1.93-2.23,1.03,0,1.92,1.01,2.04,1.97.11-.28.08-.78-.1-1.54-.25-1.05-.95-2-.95-2h2.73c-.92,1.05-.9,3.01-.88,3.25,0,.02.01.06.03.11.18-.95.96-1.66,1.9-1.66,1.1,0,2.02.97,2.05,2.15.03,1.18-.84,2.15-1.94,2.15Z" style="fill: #fff; fill-rule: evenodd; stroke: #231815; stroke-miterlimit: 10; stroke-width: 0px;"/>
          <path d="m51.72,167.01c-.42-.24-.71-.62-.87-1.06-.04.05-.08.09-.12.12.34.62.38,1.39.03,2.05-.54,1.01-1.8,1.36-2.8.79-1-.57-1.38-1.85-.83-2.86.37-.69,1.08-1.07,1.81-1.06l.11-.28c-.52.17-1.09.18-1.54-.07-.95-.54-1.18-1.82-.6-2.9.58-1.08,1.83-1.52,2.78-.98.89.51,1.17,1.82.8,2.72.23-.19.46-.64.68-1.39.31-1.04.16-2.21.16-2.21l2.37,1.35c-1.32.46-2.27,2.17-2.37,2.38,0,.02-.02.06-.03.11.63-.73,1.65-.97,2.47-.5.96.54,1.28,1.84.72,2.88-.56,1.04-1.8,1.45-2.75.91Z" style="fill: #fff; fill-rule: evenodd; stroke: #231815; stroke-miterlimit: 10; stroke-width: 0px;"/>
          <path d="m58.98,102.88l.12.08s3.74,2.46,5.41,5.35c1.66,2.88,1.71,5.89.94,10.59-.76,4.7-4.14,9.38-9.81,9.24-5.68-.15-8.98-3.31-10.24-6.63-1.26-3.32-3.53-10.85,4.78-18.07,0,0-.42-1.97-.91-2.94-.48-.98-1.35-1.19-1.35-1.19,0,0,.02-1.16.93-1.76.91-.59,3.35-1.04,3.35-1.04,0,0,.83-2.89,2.87-3.21,0,0,1.96-.24,2.81,3.58,0,0,1.33-.23,2.71.21,1.39.43,2.01,1.47,2.01,1.82s-.46.6-.92.62c-.46.03-1.2.5-2.68,3.35Z" style="fill: #231815; fill-rule: evenodd; stroke: #231815; stroke-miterlimit: 10; stroke-width: 0px;"/>
          <path d="m46.86,117.22c-.51,0-.93-.42-.93-.93s.42-.93.93-.93.93.42.93.93-.42.93-.93.93h0Zm16.35,0c-.51,0-.93-.42-.93-.92s.42-.93.93-.93.93.42.93.93-.42.92-.93.92h0Zm-4.82,9.23s.47-.99.93-1.79c.46-.8.61-1.24.93-1.74.31-.5.69-.93,1.13-1.01.44-.08,1.1-.03,1.15.25.04.28.22.88-.94,2.07-.29.29-2.56,2.18-3.19,2.21h0Zm-1.73.03c.49-.19,1.71-1.43,2.34-2.73.63-1.3-.12-2.18-.74-2.05-.61.12-1.18.93-1.41,1.98-.24,1.05-.31,2.82-.31,2.82l.12-.02h0Zm-2.04,0l.16.23s.69-.99,1.12-2.67c.42-1.68-.38-3-1.07-3s-1.04.93-1.04,1.9.83,3.53.83,3.53h0Zm-1.44.11l.35.19s-.37-2.59-.64-3.79c-.27-1.2-.79-1.54-1.35-1.52-.56.02-1.08.71-1.08,1.54s1.35,2.74,2.72,3.58h0Zm-3.78-3.56l1.9,3.5s-1.52-.46-2.67-1.35c-1.15-.89-1.49-1.79-1.4-2.72.09-.92,1.3-.87,2.17.56h0Zm14.94-3.75l-.35,1s-4.08-1.17-8.6-1.39c-4.52-.22-9.73,1.17-9.73,1.17l-.3-.87s4.21-1.65,9.12-1.65c3.51,0,6.57.77,9.86,1.74h0Zm-5.33-2.93c-.51,0-.92-.42-.92-.93s.42-.93.92-.93.93.42.93.93-.41.93-.93.93h0Zm-3.92-.19c-.51,0-.93-.42-.93-.93s.42-.93.93-.93.93.41.93.93-.42.93-.93.93h0Zm-4.08.47c-.51,0-.93-.42-.93-.93s.42-.93.93-.93.93.42.93.93-.42.93-.93.93h0Zm14.13-3.16v1.01s-4.51-1.75-8.27-1.45v-9.32h1.01l.15,8.31s3.2,0,7.12,1.45h0Zm-.19-1.68l-5.59-1.16-.11-6.56h-.75v7.38c1.23,0,6.45,1.12,6.45,1.12v-.78h0Zm-19.9,1.68v1.01s4.51-1.75,8.27-1.45v-9.32h-1.01l-.15,8.31s-3.21,0-7.12,1.45h0Zm.19-1.68l5.59-1.16.11-6.56h.75v7.38c-1.23,0-6.45,1.12-6.45,1.12v-.78h0Zm9.84-.22c-.41,0-.75-.33-.75-.74s.33-.75.75-.75.75.34.75.75-.33.74-.75.74h0Zm0-4.7c-.41,0-.75-.33-.75-.75s.33-.74.75-.74.75.34.75.74-.33.75-.75.75h0Zm2.76-4.29h.38s.71-1.71,2.16-2.93c0,0,.46-.42.52-.7.07-.28-.34-.98-1.19-.98s-1.91-.02-1.91-.02c0,0-2.15-3.33-2.77-3.33s-1.96,2.37-2.4,3.05c0,0-2.72-.24-3.35.92,0,0-.1.13.37.66.47.52,1.29,1.55,1.49,2.25.2.7.15,1.26.33,1.32.19.06.61-.09.62-.84.01-.75-.45-1.41-.84-1.87-.39-.47-.76-1.1-.76-1.23s.32-.39.95-.39h1.74l1.88-2.71s1.1,1.31,2.03,2.95c0,0,2.62-.13,2.74.26.12.39-1.65,1.95-2,3.61Z" style="fill: #ffe100; fill-rule: evenodd; stroke: #231815; stroke-miterlimit: 10; stroke-width: 0px;"/>
          <path d="m36.51,125.88c-1.89,0-3.43-1.65-3.43-3.68s1.54-3.68,3.43-3.68c1.52,0,2.81,1.07,3.26,2.54.15.51-.03,2.08-.47,2.43-.58.48-1.66.87-1.23,1.97-.47.26-1,.41-1.57.41Z" style="fill: #ffe100; fill-rule: evenodd; stroke: #231815; stroke-miterlimit: 10; stroke-width: 0px;"/>
          <path d="m36.68,124.49l-.27.3s1.82-.02,2.69-1.63c.87-1.6-.8-3.76-2.53-3.76,0,0-1.3-.07-1.94.83,0,0,2.03-.44,2.83,1.12.8,1.56-.02,2.59-.77,3.14Z" style="fill: #094; fill-rule: evenodd; stroke: #231815; stroke-miterlimit: 10; stroke-width: 0px;"/>
          <path d="m37.73,127.78l.19-.26s.19.38.35.38.54-.19.54-.79-.29-.82-.7-.85c-.41-.03-2.19,0-2.19,0v1.68c0,.25.14.21.25.49.1.27,0,.48.07.68.07.2.21.27.08.42-.14.15-.16.28-.25.41-.09.12-.2.6.03.81.24.21.91.48.91.99s-.34.97-.58,1.21c-.25.24.17.74.53.74s1.04-.66,1.24-1.45c.2-.79.05-2.84-.48-4.44Z" style="fill: #ffe100; fill-rule: evenodd; stroke: #231815; stroke-miterlimit: 10; stroke-width: 0px;"/>
          <path d="m40.74,130.24l-.07-.09s-.86-.19-.86-.84-.23-1.48-.26-2.64c-.03-1.16-.06-1.99.48-2.06.54-.06,1.6.39,2.5,1.25.9.87.77,1.41.77,2.32s-.35,2-.38,2.8c-.03.8.19,1.39.19,2.75s-.61,2.44-1.46,3.33c-.76.8-2.22,2.09-5.93,2.06-.07-1.73-.95-2.22-2.84-2.25.25-.26.5-.48.7-.56.59-.24,1.68-.11,2.37-.11s.51-.53,1.89-.77c0,0,.35-.18.57-1.09.22-.91.98-2.7,2.33-4.1h0Zm-5.75,8.86c.09-.39.09-.88-.37-1-.63-.17-2.1-.2-2.62-.21-.09.12-.14.19-.14.19,1.21.89,2.47.97,2.47.97.23.02.45.03.66.04h0Zm-3.8-1.62c.03-.2.15-.53.55-.89.66-.6,3.37-1.33,3.37-1.33,0,0-.11-1.77-.97-2.17,0,0-2.55.86-3.26,1.26-.49.28-.58.98-.6,1.56.2.64.44.98.44.98.15.22.3.41.47.59h0Zm-1.15-3.36c.55-.26,2.01-.94,3.01-1.17,1.25-.29,1.33-.48,1.33-.94s-.31-1.28-1.09-1.28c-.64,0-2.46,1.17-3.14,1.72-.03.36-.06.77-.09,1.26-.01.14-.02.28-.02.41h0Zm.2-2.56c.32-.19,1.38-.8,2.31-1.15,1.11-.41,1.49-.8,1.45-1.28-.05-.48-.67-.67-1.61-.19-.77.39-1.6,1.16-1.99,1.68-.06.26-.11.55-.16.94h0Zm.41-2.08c.26-.21.87-.68,1.66-1.04,1.05-.48,1.08-1.02,1.08-1.47,0-.4-.28-.84-.96-.91-.5.16-1.39.65-1.66.92-.3.31-.2.86-.2.86.08.66.12,1.17.08,1.64h0Zm5.27,5.21c.19-.13.21-.43.05-.68-.16-.24-.45-.34-.64-.21-.19.13-.21.43-.05.68s.45.34.64.21h0Zm.09-2.61c0-.26-.23-.51-.54-.57-.31-.05-.56.11-.57.37,0,.26.24.52.54.57.31.06.56-.11.57-.37h0Zm-1.02-2.3c.27,0,.5-.21.5-.47s-.22-.47-.5-.47-.5.21-.5.47.22.47.5.47h0Zm-.63-2.5c.27,0,.5-.21.5-.47s-.22-.47-.5-.47-.5.21-.5.47.22.47.5.47Z" style="fill: #fff; fill-rule: evenodd; stroke: #231815; stroke-miterlimit: 10; stroke-width: 0px;"/>
          <path d="m43.09,144.8h-.22s-.58,0-1.08-.65c-.51-.65-1.26-.65-2.64-.62-1.37.04-3.51.76-5.06.98-1.55.22-2.86.04-4.16-1.63,0,0-.33-.61-.33-1.52s.47-1.23.94-1.23,1.3.58,1.73,1.19c.43.62.8.9,1.37.94.58.04,1.7-.22,3.79-.72,2.1-.51,3.29-.54,4.41-.33,1.12.22,1.84,1.16,1.84,1.73s-.18,1.45-.61,1.84Z" style="fill: #ffe100; fill-rule: evenodd; stroke: #231815; stroke-miterlimit: 10; stroke-width: 0px;"/>
          <path d="m36.57,206.37l4.03-3.16-.4-59.05s-1.73.12-3.11.27c-1.36,2.89-.77,7.88-.41,10.13.4,2.5.57,5.92.34,7.85-.23,1.93-.41,4.03-.41,6.23s.44,5.46.5,8.22c.06,2.76.06,6.22.06,9.02s.33,4.38.29,5.12c-.03.73-.58,3.23-.58,4.89s.33,3.46.33,4.75-.3,2.03-.54,3.28c-.19.99-.14,2.05-.11,2.45h0Zm-3.89-2.41l-.02-1.87,3.41,2.57c-.09.67-.17,1.34-.21,1.85l-3.19-2.55h0Zm3.5-.09l-3.53-2.66-.02-2.53,3.87,2.92c-.02.24-.06.47-.1.78-.06.38-.14.91-.22,1.49h0Zm.35-3.12l-3.91-2.95-.02-2.57,3.78,2.85c.1,1.35.14,2.13.15,2.67h0Zm-.21-3.59l-3.72-2.8-.02-2.72,3.77,2.85c-.06.77-.09,1.63-.03,2.68h0Zm.11-3.5l-3.86-2.91-.02-2.57,4.18,3.15c-.07.77-.19,1.5-.29,2.33h0Zm.34-3.17l-4.23-3.19-.02-2.47,4.18,3.15c.02.59.05,1.18.07,1.77.01.26.01.51,0,.75h0Zm-.11-3.42l-4.15-3.13-.02-2.44,4.09,3.08c.02.84.05,1.66.08,2.49h0Zm-.09-3.38l-4.08-3.08-.02-2.92,4.1,3.09c0,.41,0,.8,0,1.19,0,.58,0,1.15.01,1.71h0Zm0-3.77l-4.12-3.11-.02-2.25,4.14,3.12c0,.79,0,1.53,0,2.23h0Zm-.01-3.12l-4.14-3.12-.02-2.65,4.04,2.75c.06,1.1.1,2.09.12,3.01h0Zm-.17-3.89l-3.99-2.72-.02-2.62,3.82,2.6c.03.51.06,1.05.11,1.62.03.39.06.76.09,1.13h0Zm-.24-3.62l-3.78-2.58-.02-2.63,3.78,2.58c-.01.8-.01,1.67.03,2.64h0Zm0-3.47l-3.81-2.6-.02-2.02,3.93,2.68c-.04.6-.08,1.24-.1,1.94h0Zm.16-2.75l-3.99-2.72-.02-2.65,4.14,2.82c0,.46-.02.94-.05,1.45-.02.36-.05.72-.08,1.1h0Zm.12-3.4l-4.14-2.82-.02-2.82,3.95,2.7c.1.99.18,1.94.21,2.94h0Zm-.31-3.86l-3.86-2.63-.02-2.89,3.57,2.44c.07.9.16,1.79.27,2.7.02.13.03.26.04.39h0Zm-.37-3.98l-3.52-2.4-.02-2.9,3.46,2.36c0,1.03.03,1.99.09,2.94h0Zm-.07-3.78l-3.48-2.37v-.78c1.62,0,2.5-.13,3.75-.33.08-.01.17-.03.26-.04-.19.84-.46,2.19-.53,3.52Z" style="fill: #fff; fill-rule: evenodd; stroke: #231815; stroke-miterlimit: 10; stroke-width: 0px;"/>
          <path d="m31.41,100.21c.34,0,.65.12.9.32.01-.04.02-.08.04-.11-.42-.24-.71-.67-.71-1.16,0-.75.67-1.36,1.48-1.36s1.48.61,1.48,1.36c0,.51-.31.96-.77,1.19l.03.19c.27-.27.62-.46.98-.46.77,0,1.34.66,1.34,1.46s-.63,1.46-1.4,1.46c-.73,0-1.34-.66-1.41-1.29-.08.19-.07.51.04,1.01.16.69.64,1.31.64,1.31h-1.93c.67-.69.69-1.97.68-2.13,0-.02,0-.04-.02-.07-.15.62-.71,1.09-1.37,1.09-.78,0-1.41-.63-1.41-1.41s.63-1.41,1.41-1.41h0Zm0,11.8c.34,0,.65.12.9.33.01-.04.02-.08.04-.11-.42-.24-.71-.67-.71-1.16,0-.75.67-1.36,1.48-1.36s1.48.61,1.48,1.36c0,.51-.31.96-.77,1.19l.03.19c.27-.27.62-.46.98-.46.77,0,1.34.65,1.34,1.46s-.63,1.46-1.4,1.46c-.73,0-1.34-.66-1.41-1.29-.08.19-.07.51.04,1.01.16.69.64,1.31.64,1.31h-1.93c.67-.69.69-1.97.68-2.13,0-.01,0-.04-.02-.07-.15.62-.71,1.09-1.37,1.09-.78,0-1.41-.63-1.41-1.41s.63-1.41,1.41-1.41Z" style="fill: #fff; fill-rule: evenodd; stroke: #231815; stroke-miterlimit: 10; stroke-width: 0px;"/>
          <path d="m57.52,153.05c-.47-.11-.86-.39-1.13-.77-.03.06-.06.11-.08.15.5.5.76,1.23.6,1.96-.24,1.12-1.34,1.81-2.46,1.54-1.12-.27-1.84-1.4-1.6-2.51.16-.77.73-1.33,1.44-1.53l.02-.3c-.45.31-.99.48-1.5.36-1.06-.25-1.64-1.42-1.39-2.62.25-1.2,1.33-1.97,2.39-1.71,1,.24,1.63,1.42,1.53,2.38.17-.25.26-.74.26-1.52,0-1.08-.46-2.16-.46-2.16l2.65.63c-1.14.81-1.58,2.71-1.61,2.95,0,.02,0,.06,0,.12.4-.88,1.32-1.39,2.23-1.17,1.07.25,1.74,1.41,1.49,2.57-.25,1.16-1.32,1.9-2.39,1.64Z" style="fill: #fff; fill-rule: evenodd; stroke: #231815; stroke-miterlimit: 10; stroke-width: 0px;"/>
        </g>
      </g>
      <g>
        <path d="m17.18,47.2c2.29,0,4.16,1.73,4.16,3.85,0,1.49-.92,2.79-2.26,3.42.1.13.18.27.25.42.69-.62,1.59-1,2.57-1,2.16,0,3.92,1.83,3.92,4.07s-1.76,4.07-3.92,4.07c-1.85,0-3.4-1.34-3.81-3.13-.07.03-.15.06-.22.08,0,.98.09,4.89,2,6.65h-5.19c1.92-1.77,2.01-5.71,2-6.67-.08-.02-.15-.05-.22-.08-.43,1.76-1.97,3.07-3.8,3.07-2.16,0-3.92-1.83-3.92-4.06s1.76-4.07,3.92-4.07c1,0,1.92.39,2.61,1.04.05-.11.11-.21.18-.3-1.44-.61-2.44-1.95-2.44-3.5,0-2.12,1.87-3.85,4.16-3.85Z" style="fill: #231815; fill-rule: evenodd; stroke: #231815; stroke-miterlimit: 10; stroke-width: 0px;"/>
        <polygon points="8.5 13.47 16.2 13.47 16.2 16.59 13.89 16.59 13.89 26.94 20.33 16.59 18.38 16.59 18.38 13.47 26.08 13.47 26.08 16.59 24 16.59 18.49 25.44 24.69 38.7 25.92 38.7 25.92 41.82 18.45 41.82 18.45 38.7 21.26 38.7 16.53 28.59 13.89 32.83 13.89 38.7 16.48 38.7 16.48 41.82 9 41.82 9 38.7 10.77 38.7 10.77 16.59 8.5 16.59 8.5 13.47" style="fill: #231815; stroke: #231815; stroke-miterlimit: 10; stroke-width: 0px;"/>
      </g>
      <g>
        <path d="m146.39,201.42c-2.29,0-4.16-1.73-4.16-3.85,0-1.49.92-2.79,2.26-3.42-.09-.13-.18-.27-.25-.42-.69.62-1.59,1-2.57,1-2.16,0-3.92-1.83-3.92-4.07s1.76-4.07,3.92-4.07c1.85,0,3.4,1.34,3.81,3.13.07-.03.15-.06.22-.08,0-.98-.09-4.89-2-6.65h5.19c-1.92,1.77-2.01,5.71-2,6.67.07.02.15.05.22.08.43-1.76,1.97-3.07,3.8-3.07,2.16,0,3.91,1.83,3.91,4.07s-1.76,4.07-3.91,4.07c-1,0-1.92-.39-2.61-1.04-.05.11-.11.21-.18.3,1.44.61,2.44,1.95,2.44,3.5,0,2.12-1.87,3.85-4.16,3.85Z" style="fill: #231815; fill-rule: evenodd; stroke: #231815; stroke-miterlimit: 10; stroke-width: 0px;"/>
        <polygon points="155.07 235.14 147.37 235.14 147.37 232.02 149.68 232.02 149.68 221.67 143.24 232.02 145.2 232.02 145.2 235.14 137.5 235.14 137.5 232.02 139.58 232.02 145.08 223.17 138.88 209.91 137.65 209.91 137.65 206.79 145.12 206.79 145.12 209.91 142.31 209.91 147.04 220.03 149.68 215.78 149.68 209.91 147.1 209.91 147.1 206.79 154.57 206.79 154.57 209.91 152.8 209.91 152.8 232.02 155.07 232.02 155.07 235.14" style="fill: #231815; stroke: #231815; stroke-miterlimit: 10; stroke-width: 0px;"/>
      </g>
    </g>
  </g>
</svg>