<?xml version="1.0" encoding="UTF-8"?>
<svg id="_图层_2" data-name="图层 2" xmlns="http://www.w3.org/2000/svg" viewBox="0 0 163.57 248.61">
  <g id="_图层_1-2" data-name="图层 1">
    <g>
      <path d="m162.57,242.01c0,3.08-2.51,5.6-5.57,5.6H6.57c-3.06,0-5.57-2.52-5.57-5.6V6.6C1,3.52,3.51,1,6.57,1h150.43c3.06,0,5.57,2.52,5.57,5.6v235.41Z" style="fill: #fff; fill-rule: evenodd; stroke: #231815; stroke-miterlimit: 22.93; stroke-width: 2px;"/>
      <g>
        <g>
          <path d="m9.81,22.26c-.88-3.37.31-5.83,2.38-7.3,1.28-.91,2.88-1.4,4.51-1.48,1.6-.07,3.26.26,4.68,1.01,2.47,1.31,4.19,3.81,3.7,7.52-.49,3.67-2.75,5.31-5.87,7.56,0,0,0,0,0,0t0,0s0,0,0,0h0s0,0,0,0c-.04.03-.19.14-.59.43-1.52,1.1-3.26,3.05-4.53,5.18-.71,1.18-1.26,2.39-1.54,3.51h9.69v-3.72h3.12v6.84H9.27l-.03-1.53c-.04-2.09.86-4.49,2.18-6.7,1.49-2.48,3.55-4.78,5.37-6.1.63-.45,0,0,.6-.43,2.49-1.8,4.3-3.11,4.62-5.45.29-2.18-.67-3.63-2.07-4.37-.91-.48-2.01-.7-3.1-.65-1.06.05-2.07.35-2.84.89-1.07.76-1.66,2.09-1.17,3.98l-3.01.78Z" style="fill: #231815; stroke-width: 0px;"/>
          <path d="m17.18,47.2c2.29,0,4.16,1.73,4.16,3.85,0,1.49-.92,2.79-2.26,3.42.09.13.18.27.25.42.69-.62,1.59-1,2.57-1,2.16,0,3.92,1.83,3.92,4.07s-1.76,4.07-3.92,4.07c-1.85,0-3.4-1.34-3.81-3.13-.07.03-.15.06-.22.08,0,.98.09,4.89,2,6.65h-5.19c1.92-1.77,2.01-5.71,2-6.66-.08-.02-.15-.05-.22-.08-.43,1.76-1.97,3.07-3.8,3.07-2.16,0-3.92-1.83-3.92-4.07s1.76-4.07,3.92-4.07c1,0,1.92.39,2.61,1.04.05-.11.11-.21.18-.3-1.44-.61-2.44-1.95-2.44-3.5,0-2.12,1.87-3.85,4.16-3.85Z" style="fill: #231815; fill-rule: evenodd; stroke-width: 0px;"/>
        </g>
        <g>
          <path d="m153.76,226.36c.88,3.37-.31,5.83-2.37,7.29-1.28.91-2.88,1.4-4.51,1.48-1.6.07-3.26-.26-4.68-1.01-2.47-1.31-4.19-3.81-3.7-7.52.49-3.67,2.75-5.31,5.87-7.56,0,0,0,0,0,0h0s0,0,0,0c0,0,0,0,0,0,0,0,0,0,0,0,.04-.03.19-.14.59-.43,1.52-1.11,3.26-3.05,4.53-5.18.71-1.18,1.26-2.39,1.54-3.51h-9.69v3.72h-3.12v-6.84h16.08l.03,1.53c.04,2.09-.86,4.49-2.18,6.7-1.49,2.48-3.55,4.78-5.37,6.1-.63.46,0,0-.6.43-2.49,1.8-4.31,3.11-4.62,5.45-.29,2.18.67,3.63,2.07,4.37.91.48,2.01.7,3.1.65,1.06-.05,2.07-.35,2.84-.89,1.07-.76,1.66-2.09,1.17-3.98l3.01-.78Z" style="fill: #231815; stroke-width: 0px;"/>
          <path d="m146.39,201.42c-2.29,0-4.16-1.73-4.16-3.85,0-1.49.92-2.79,2.26-3.43-.09-.13-.18-.27-.25-.42-.69.62-1.59,1-2.57,1-2.16,0-3.92-1.83-3.92-4.07s1.76-4.07,3.92-4.07c1.85,0,3.4,1.34,3.81,3.13.07-.03.15-.06.22-.08,0-.98-.09-4.89-2-6.65h5.19c-1.92,1.77-2.01,5.71-2,6.67.08.02.15.05.22.08.43-1.76,1.97-3.07,3.8-3.07,2.16,0,3.92,1.83,3.92,4.07s-1.76,4.07-3.92,4.07c-1,0-1.92-.39-2.61-1.04-.05.11-.11.21-.18.3,1.44.61,2.44,1.95,2.44,3.5,0,2.12-1.87,3.85-4.16,3.85Z" style="fill: #231815; fill-rule: evenodd; stroke-width: 0px;"/>
        </g>
        <path d="m81.55,30.02c5.29,0,9.6,3.99,9.6,8.88,0,3.44-2.13,6.42-5.22,7.9.22.3.41.62.58.97,1.59-1.44,3.66-2.31,5.92-2.31,4.97,0,9.03,4.21,9.03,9.38s-4.06,9.38-9.03,9.38c-4.26,0-7.85-3.09-8.79-7.22-.17.07-.34.13-.51.18-.01,2.25.22,11.27,4.62,15.35h-11.97c4.42-4.09,4.64-13.17,4.62-15.38-.17-.05-.34-.12-.51-.19-.99,4.06-4.54,7.08-8.76,7.08-4.97,0-9.03-4.21-9.03-9.38s4.06-9.38,9.03-9.38c2.31,0,4.42.91,6.02,2.4.12-.24.26-.48.41-.7-3.32-1.4-5.63-4.5-5.63-8.08,0-4.89,4.31-8.88,9.6-8.88h0Zm.48,188.58c-5.29,0-9.6-3.99-9.6-8.88,0-3.43,2.13-6.42,5.22-7.9-.22-.3-.41-.62-.58-.97-1.59,1.44-3.66,2.31-5.92,2.31-4.97,0-9.03-4.21-9.03-9.38s4.06-9.38,9.03-9.38c4.26,0,7.85,3.09,8.79,7.22.17-.07.34-.13.51-.18.01-2.25-.22-11.27-4.62-15.35h11.97c-4.42,4.09-4.64,13.17-4.62,15.38.17.06.34.12.51.19.99-4.06,4.54-7.08,8.76-7.08,4.97,0,9.03,4.21,9.03,9.38s-4.06,9.38-9.03,9.38c-2.31,0-4.42-.91-6.02-2.4-.12.24-.26.48-.41.7,3.32,1.4,5.63,4.5,5.63,8.08,0,4.89-4.31,8.88-9.6,8.88Z" style="fill: #231815; fill-rule: evenodd; stroke-width: 0px;"/>
      </g>
    </g>
  </g>
</svg>