<?xml version="1.0" encoding="UTF-8"?>
<svg id="_图层_2" data-name="图层 2" xmlns="http://www.w3.org/2000/svg" viewBox="0 0 163.58 248.61">
  <g id="_图层_1-2" data-name="图层 1">
    <g>
      <path d="m162.58,242.01c0,3.08-2.51,5.6-5.57,5.6H6.57c-3.06,0-5.57-2.52-5.57-5.6V6.6C1,3.52,3.51,1,6.57,1h150.43c3.06,0,5.57,2.52,5.57,5.6v235.41Z" style="fill: #fff; fill-rule: evenodd; stroke: #231815; stroke-miterlimit: 22.93; stroke-width: 2px;"/>
      <g>
        <g>
          <path d="m25.25,13.47v3.25l-6.2,5.66c.53.08,1.05.22,1.56.41,1.31.49,2.5,1.31,3.46,2.41,1.09,1.25,1.88,2.86,2.21,4.74.59,3.35-.63,6.37-2.72,8.45-1.08,1.08-2.41,1.9-3.84,2.39-1.45.49-3.02.63-4.56.34-2.7-.52-5.29-2.34-7.01-5.94l2.81-1.34c1.23,2.58,2.99,3.88,4.78,4.22,1,.19,2.03.1,2.99-.23.98-.33,1.89-.9,2.64-1.64,1.41-1.41,2.24-3.44,1.84-5.71-.23-1.3-.76-2.4-1.49-3.23-.62-.71-1.37-1.23-2.19-1.53-.81-.3-1.7-.39-2.58-.23-.96.17-1.93.63-2.84,1.42l-2.07-2.33.03-.02h0s.03-.03.05-.04l8.67-7.92h-8.94v3.8h-3.12v-6.92h16.53Z" style="fill: #231815; stroke-width: 0px;"/>
          <path d="m17.19,47.2c2.29,0,4.16,1.73,4.16,3.85,0,1.49-.92,2.79-2.26,3.42.09.13.18.27.25.42.69-.62,1.59-1,2.57-1,2.16,0,3.92,1.83,3.92,4.07s-1.76,4.07-3.92,4.07c-1.85,0-3.4-1.34-3.81-3.13-.07.03-.15.06-.22.08,0,.98.09,4.89,2,6.65h-5.19c1.92-1.77,2.01-5.71,2-6.66-.07-.02-.15-.05-.22-.08-.43,1.76-1.97,3.07-3.8,3.07-2.16,0-3.91-1.83-3.91-4.07s1.76-4.07,3.91-4.07c1,0,1.92.39,2.61,1.04.05-.11.11-.21.18-.3-1.44-.61-2.44-1.95-2.44-3.5,0-2.12,1.87-3.85,4.16-3.85Z" style="fill: #231815; fill-rule: evenodd; stroke-width: 0px;"/>
        </g>
        <g>
          <path d="m138.32,235.14v-3.25l6.2-5.66c-.53-.08-1.05-.22-1.56-.41-1.31-.49-2.5-1.31-3.46-2.41-1.09-1.25-1.88-2.86-2.21-4.74-.59-3.35.63-6.37,2.72-8.45,1.09-1.08,2.41-1.9,3.84-2.38,1.45-.49,3.02-.63,4.56-.34,2.7.52,5.29,2.34,7.01,5.94l-2.81,1.34c-1.23-2.58-2.99-3.88-4.78-4.22-1-.19-2.03-.1-2.99.23-.98.33-1.89.9-2.64,1.64-1.41,1.4-2.24,3.44-1.84,5.71.23,1.3.76,2.4,1.49,3.23.62.71,1.37,1.23,2.19,1.53.81.3,1.7.39,2.58.23.96-.17,1.93-.63,2.84-1.42l2.07,2.33-.03.02h0s-.03.03-.05.04l-8.67,7.92h8.95v-3.8h3.12v6.92h-16.53Z" style="fill: #231815; stroke-width: 0px;"/>
          <path d="m146.39,201.42c-2.29,0-4.16-1.73-4.16-3.85,0-1.49.92-2.79,2.26-3.43-.09-.13-.18-.27-.25-.42-.69.62-1.59,1-2.57,1-2.16,0-3.91-1.83-3.91-4.07s1.76-4.07,3.91-4.07c1.85,0,3.4,1.34,3.81,3.13.07-.03.15-.06.22-.08,0-.98-.09-4.89-2-6.65h5.19c-1.92,1.77-2.01,5.71-2,6.67.08.02.15.05.22.08.43-1.76,1.97-3.07,3.8-3.07,2.16,0,3.92,1.83,3.92,4.07s-1.76,4.07-3.92,4.07c-1,0-1.92-.39-2.61-1.04-.05.11-.11.21-.18.3,1.44.61,2.44,1.95,2.44,3.5,0,2.12-1.87,3.85-4.16,3.85Z" style="fill: #231815; fill-rule: evenodd; stroke-width: 0px;"/>
        </g>
        <path d="m82.03,218.6c-5.29,0-9.6-3.99-9.6-8.88,0-3.43,2.13-6.42,5.22-7.9-.22-.3-.42-.62-.58-.97-1.59,1.44-3.66,2.31-5.93,2.31-4.97,0-9.03-4.21-9.03-9.38s4.06-9.38,9.03-9.38c4.26,0,7.85,3.09,8.79,7.22.17-.07.34-.13.51-.18.01-2.25-.22-11.27-4.62-15.35h11.97c-4.42,4.09-4.64,13.17-4.62,15.38.17.06.34.12.51.19.99-4.06,4.55-7.08,8.76-7.08,4.97,0,9.03,4.21,9.03,9.38s-4.06,9.38-9.03,9.38c-2.31,0-4.42-.91-6.02-2.4-.12.24-.26.48-.41.7,3.32,1.4,5.63,4.5,5.63,8.08,0,4.89-4.31,8.88-9.6,8.88h0Zm-.48-188.58c5.29,0,9.6,3.99,9.6,8.88,0,3.44-2.13,6.42-5.22,7.9.22.3.42.62.58.97,1.59-1.44,3.66-2.31,5.93-2.31,4.97,0,9.03,4.21,9.03,9.38s-4.06,9.38-9.03,9.38c-4.26,0-7.85-3.09-8.79-7.22-.17.07-.34.13-.51.18-.01,2.25.22,11.27,4.62,15.35h-11.97c4.42-4.09,4.64-13.17,4.62-15.38-.17-.05-.34-.12-.51-.19-.99,4.06-4.55,7.08-8.76,7.08-4.97,0-9.03-4.21-9.03-9.38s4.06-9.38,9.03-9.38c2.31,0,4.42.91,6.02,2.4.12-.24.26-.48.41-.7-3.32-1.4-5.63-4.5-5.63-8.08,0-4.89,4.31-8.88,9.6-8.88h0Zm0,73.04c5.29,0,9.6,3.99,9.6,8.88,0,3.43-2.13,6.42-5.22,7.9.22.3.42.62.58.97,1.59-1.44,3.66-2.31,5.93-2.31,4.97,0,9.03,4.21,9.03,9.38s-4.06,9.38-9.03,9.38c-4.26,0-7.85-3.09-8.79-7.22-.17.07-.34.13-.51.18-.01,2.25.22,11.27,4.62,15.35h-11.97c4.42-4.09,4.64-13.17,4.62-15.38-.17-.05-.34-.12-.51-.19-.99,4.06-4.55,7.08-8.76,7.08-4.97,0-9.03-4.21-9.03-9.38s4.06-9.38,9.03-9.38c2.31,0,4.42.91,6.02,2.4.12-.24.26-.48.41-.7-3.32-1.4-5.63-4.5-5.63-8.08,0-4.89,4.31-8.88,9.6-8.88Z" style="fill: #231815; fill-rule: evenodd; stroke-width: 0px;"/>
      </g>
    </g>
  </g>
</svg>