<?xml version="1.0" encoding="UTF-8"?>
<svg id="_图层_2" data-name="图层 2" xmlns="http://www.w3.org/2000/svg" viewBox="0 0 163.57 248.61">
  <g id="_图层_1-2" data-name="图层 1">
    <g>
      <path d="m162.57,242.01c0,3.08-2.51,5.6-5.57,5.6H6.57c-3.06,0-5.57-2.52-5.57-5.6V6.6C1,3.52,3.51,1,6.57,1h150.43c3.06,0,5.57,2.52,5.57,5.6v235.41Z" style="fill: #fff; fill-rule: evenodd; stroke: #231815; stroke-miterlimit: 22.93; stroke-width: 2px;"/>
      <g>
        <g>
          <path d="m23.62,16.59h-10.65l-.09,5.21c1.62-.58,3.88-1.01,6.43-.39.51.13.99.3,1.44.51,2.3,1.09,3.81,3.23,4.57,5.71.72,2.35.77,5.04.2,7.38-.19.77-.45,1.51-.77,2.2-1.11,2.35-2.95,3.86-5.01,4.56-1.04.35-2.11.49-3.17.42-1.06-.07-2.12-.34-3.12-.81-2.08-.99-3.86-2.85-4.78-5.57l2.95-.99c.62,1.85,1.8,3.1,3.16,3.75.62.3,1.3.47,1.98.51.69.04,1.37-.04,2-.25,1.29-.44,2.46-1.41,3.18-2.94.24-.5.42-1.04.57-1.61.45-1.82.41-3.91-.15-5.72-.52-1.69-1.49-3.12-2.92-3.81-.27-.13-.56-.23-.86-.3-3.68-.91-5.77.62-8.1,2.61l-.98-.61.39-11.42.03-1.53h13.71v3.12Z" style="fill: #231815; stroke-width: 0px;"/>
          <path d="m17.18,47.2c2.29,0,4.16,1.73,4.16,3.85,0,1.49-.92,2.79-2.26,3.43.09.13.18.27.25.42.69-.62,1.59-1,2.57-1,2.16,0,3.91,1.83,3.91,4.07s-1.76,4.07-3.91,4.07c-1.85,0-3.4-1.34-3.81-3.13-.07.03-.15.06-.22.08,0,.98.09,4.89,2,6.65h-5.19c1.92-1.77,2.01-5.71,2-6.66-.08-.02-.15-.05-.22-.08-.43,1.76-1.97,3.07-3.8,3.07-2.16,0-3.92-1.83-3.92-4.07s1.76-4.07,3.92-4.07c1,0,1.92.39,2.61,1.04.05-.11.11-.21.18-.3-1.44-.61-2.44-1.95-2.44-3.5,0-2.12,1.87-3.85,4.16-3.85Z" style="fill: #231815; fill-rule: evenodd; stroke-width: 0px;"/>
        </g>
        <g>
          <path d="m139.96,232.02h10.65l.09-5.21c-1.62.58-3.88,1.01-6.43.39-.51-.12-.99-.3-1.44-.51-2.3-1.09-3.81-3.23-4.57-5.71-.72-2.35-.77-5.04-.2-7.38.19-.77.45-1.51.77-2.2,1.11-2.35,2.95-3.86,5.01-4.56,1.04-.35,2.11-.49,3.17-.42,1.06.07,2.12.34,3.12.81,2.08.99,3.86,2.85,4.78,5.57l-2.95.99c-.62-1.85-1.8-3.1-3.16-3.75-.62-.3-1.3-.47-1.98-.51-.69-.04-1.37.04-2,.25-1.29.44-2.46,1.41-3.18,2.94-.24.5-.42,1.04-.57,1.61-.45,1.82-.41,3.91.15,5.72.52,1.69,1.49,3.12,2.92,3.81.27.13.56.23.86.3,3.68.91,5.77-.62,8.1-2.61l.98.61-.39,11.42-.03,1.54h-13.71v-3.12Z" style="fill: #231815; stroke-width: 0px;"/>
          <path d="m146.39,201.42c-2.29,0-4.16-1.73-4.16-3.85,0-1.49.92-2.79,2.26-3.43-.1-.13-.18-.27-.25-.42-.69.62-1.59,1-2.57,1-2.16,0-3.92-1.83-3.92-4.07s1.76-4.07,3.92-4.07c1.85,0,3.4,1.34,3.81,3.13.07-.03.15-.06.22-.08,0-.98-.09-4.89-2-6.65h5.19c-1.92,1.77-2.01,5.71-2,6.67.08.02.15.05.22.08.43-1.76,1.97-3.07,3.8-3.07,2.16,0,3.92,1.83,3.92,4.07s-1.76,4.07-3.92,4.07c-1,0-1.92-.39-2.61-1.04-.05.11-.11.21-.18.3,1.44.61,2.44,1.95,2.44,3.5,0,2.12-1.87,3.85-4.16,3.85Z" style="fill: #231815; fill-rule: evenodd; stroke-width: 0px;"/>
        </g>
        <path d="m81.54,103.05c5.29,0,9.6,3.99,9.6,8.88,0,3.44-2.13,6.42-5.22,7.9.22.3.41.62.58.97,1.59-1.44,3.66-2.31,5.93-2.31,4.97,0,9.03,4.21,9.03,9.38s-4.06,9.38-9.03,9.38c-4.26,0-7.85-3.09-8.79-7.22-.17.07-.34.13-.51.18-.01,2.25.22,11.27,4.62,15.35h-11.97c4.42-4.09,4.64-13.17,4.62-15.38-.17-.06-.34-.12-.51-.19-.99,4.06-4.55,7.08-8.76,7.08-4.97,0-9.03-4.21-9.03-9.38s4.06-9.38,9.03-9.38c2.31,0,4.42.91,6.02,2.4.12-.24.26-.48.41-.7-3.32-1.4-5.63-4.5-5.63-8.08,0-4.89,4.31-8.88,9.6-8.88h0Zm-32.07,116.02c-5.29,0-9.6-3.99-9.6-8.88,0-3.44,2.13-6.42,5.22-7.9-.22-.3-.42-.62-.58-.97-1.59,1.44-3.66,2.31-5.92,2.31-4.97,0-9.03-4.21-9.03-9.38s4.06-9.38,9.03-9.38c4.26,0,7.85,3.09,8.79,7.22.17-.07.34-.13.51-.18.01-2.25-.22-11.27-4.62-15.35h11.97c-4.42,4.09-4.64,13.17-4.62,15.38.17.05.34.12.51.19.99-4.06,4.54-7.08,8.76-7.08,4.97,0,9.03,4.21,9.03,9.38s-4.06,9.38-9.03,9.38c-2.31,0-4.42-.91-6.02-2.4-.12.24-.26.48-.41.7,3.32,1.4,5.63,4.5,5.63,8.08,0,4.89-4.31,8.88-9.6,8.88h0Zm65.11,0c-5.29,0-9.6-3.99-9.6-8.88,0-3.44,2.13-6.42,5.22-7.9-.22-.3-.41-.62-.58-.97-1.59,1.44-3.66,2.31-5.93,2.31-4.97,0-9.03-4.21-9.03-9.38s4.06-9.38,9.03-9.38c4.26,0,7.85,3.09,8.79,7.22.17-.07.34-.13.51-.18.01-2.25-.22-11.27-4.62-15.35h11.97c-4.42,4.09-4.64,13.17-4.62,15.38.17.05.34.12.51.19.99-4.06,4.55-7.08,8.76-7.08,4.97,0,9.03,4.21,9.03,9.38s-4.06,9.38-9.03,9.38c-2.31,0-4.42-.91-6.02-2.4-.12.24-.26.48-.41.7,3.32,1.4,5.63,4.5,5.63,8.08,0,4.89-4.31,8.88-9.6,8.88h0Zm-.48-189.54c5.29,0,9.6,3.99,9.6,8.88,0,3.44-2.13,6.42-5.22,7.9.22.3.42.62.59.97,1.59-1.44,3.66-2.31,5.93-2.31,4.97,0,9.03,4.21,9.03,9.38s-4.06,9.38-9.03,9.38c-4.26,0-7.85-3.09-8.79-7.22-.17.07-.34.13-.51.18-.01,2.25.22,11.27,4.62,15.35h-11.97c4.42-4.09,4.64-13.17,4.62-15.38-.17-.05-.34-.12-.51-.19-.99,4.06-4.55,7.08-8.76,7.08-4.97,0-9.03-4.21-9.03-9.38s4.06-9.38,9.03-9.38c2.31,0,4.42.91,6.02,2.4.12-.24.26-.48.41-.7-3.32-1.4-5.63-4.5-5.63-8.08,0-4.89,4.31-8.88,9.6-8.88h0Zm-65.11,0c5.29,0,9.6,3.99,9.6,8.88,0,3.44-2.13,6.42-5.22,7.9.22.3.42.62.59.97,1.59-1.44,3.66-2.31,5.92-2.31,4.97,0,9.03,4.21,9.03,9.38s-4.06,9.38-9.03,9.38c-4.26,0-7.85-3.09-8.79-7.22-.17.07-.34.13-.51.18-.01,2.25.22,11.27,4.62,15.35h-11.97c4.42-4.09,4.64-13.17,4.62-15.38-.17-.05-.34-.12-.51-.19-.99,4.06-4.55,7.08-8.76,7.08-4.97,0-9.03-4.21-9.03-9.38s4.06-9.38,9.03-9.38c2.31,0,4.42.91,6.02,2.4.12-.24.26-.48.41-.7-3.32-1.4-5.63-4.5-5.63-8.08,0-4.89,4.31-8.88,9.6-8.88Z" style="fill: #231815; fill-rule: evenodd; stroke-width: 0px;"/>
      </g>
    </g>
  </g>
</svg>