<?xml version="1.0" encoding="UTF-8"?>
<svg id="_图层_2" data-name="图层 2" xmlns="http://www.w3.org/2000/svg" viewBox="0 0 163.58 248.61">
  <g id="_图层_1-2" data-name="图层 1">
    <g>
      <path d="m162.58,242.01c0,3.08-2.51,5.6-5.57,5.6H6.57c-3.06,0-5.57-2.52-5.57-5.6V6.6C1,3.52,3.51,1,6.57,1h150.43c3.06,0,5.57,2.52,5.57,5.6v235.41Z" style="fill: #fff; fill-rule: evenodd; stroke: #231815; stroke-miterlimit: 22.93; stroke-width: 2px;"/>
      <g>
        <g>
          <path d="m9.11,20.21v-6.74h14.38l1.98,2.42c-.54.88-8.25,13.75-9.18,25.75h-3.13c.71-9.99,5.83-20.47,8.32-25.05h-9.26v3.62h-3.12Z" style="fill: #231815; stroke-width: 0px;"/>
          <path d="m17.18,47.2c2.29,0,4.16,1.73,4.16,3.85,0,1.49-.92,2.79-2.26,3.42.09.13.18.27.25.42.69-.62,1.59-1,2.57-1,2.16,0,3.92,1.83,3.92,4.07s-1.76,4.07-3.92,4.07c-1.85,0-3.4-1.34-3.81-3.13-.07.03-.15.06-.22.08,0,.98.09,4.89,2,6.65h-5.19c1.92-1.77,2.01-5.71,2-6.67-.07-.02-.15-.05-.22-.08-.43,1.76-1.97,3.07-3.8,3.07-2.16,0-3.91-1.83-3.91-4.06s1.76-4.07,3.91-4.07c1,0,1.92.39,2.61,1.04.05-.11.11-.21.18-.3-1.44-.61-2.44-1.95-2.44-3.5,0-2.12,1.87-3.85,4.16-3.85Z" style="fill: #231815; fill-rule: evenodd; stroke-width: 0px;"/>
        </g>
        <g>
          <path d="m154.47,228.4v6.74h-14.38l-1.98-2.42c.54-.88,8.25-13.75,9.17-25.75h3.13c-.71,9.99-5.83,20.47-8.32,25.05h9.26v-3.62h3.12Z" style="fill: #231815; stroke-width: 0px;"/>
          <path d="m146.39,201.42c-2.29,0-4.16-1.73-4.16-3.85,0-1.49.92-2.79,2.27-3.42-.1-.13-.18-.27-.25-.42-.69.62-1.59,1-2.57,1-2.16,0-3.91-1.83-3.91-4.07s1.76-4.07,3.91-4.07c1.85,0,3.4,1.34,3.81,3.13.07-.03.15-.06.22-.08,0-.98-.09-4.89-2-6.65h5.19c-1.92,1.77-2.01,5.71-2,6.67.08.02.15.05.22.08.43-1.76,1.97-3.07,3.8-3.07,2.16,0,3.92,1.83,3.92,4.07s-1.76,4.07-3.92,4.07c-1,0-1.92-.39-2.61-1.04-.05.11-.11.21-.18.3,1.44.61,2.44,1.95,2.44,3.5,0,2.12-1.87,3.85-4.16,3.85Z" style="fill: #231815; fill-rule: evenodd; stroke-width: 0px;"/>
        </g>
        <path d="m81.55,66.3c5.29,0,9.6,3.99,9.6,8.88,0,3.43-2.13,6.42-5.22,7.9.22.3.41.62.58.97,1.59-1.44,3.66-2.31,5.93-2.31,4.97,0,9.03,4.21,9.03,9.38s-4.06,9.38-9.03,9.38c-4.26,0-7.85-3.09-8.79-7.22-.17.07-.34.13-.51.18-.01,2.25.22,11.27,4.62,15.35h-11.97c4.42-4.09,4.64-13.17,4.62-15.38-.17-.05-.34-.12-.51-.19-.99,4.06-4.55,7.08-8.76,7.08-4.97,0-9.03-4.21-9.03-9.38s4.06-9.38,9.03-9.38c2.31,0,4.42.91,6.02,2.4.12-.24.26-.48.41-.7-3.32-1.4-5.63-4.5-5.63-8.08,0-4.89,4.31-8.88,9.6-8.88h0Zm33.04,152.78c-5.29,0-9.6-3.99-9.6-8.88,0-3.43,2.13-6.42,5.22-7.9-.22-.3-.41-.62-.58-.97-1.59,1.44-3.66,2.31-5.93,2.31-4.97,0-9.03-4.21-9.03-9.38s4.06-9.38,9.03-9.38c4.26,0,7.85,3.09,8.79,7.22.17-.07.34-.13.51-.18.01-2.25-.22-11.27-4.62-15.35h11.97c-4.42,4.09-4.64,13.17-4.62,15.38.17.05.34.12.51.19.99-4.06,4.55-7.08,8.76-7.08,4.97,0,9.03,4.21,9.03,9.38s-4.06,9.38-9.03,9.38c-2.31,0-4.42-.91-6.02-2.4-.12.24-.26.47-.41.7,3.32,1.4,5.63,4.5,5.63,8.08,0,4.89-4.31,8.88-9.6,8.88h0Zm-65.11,0c-5.29,0-9.6-3.99-9.6-8.88,0-3.43,2.13-6.42,5.22-7.9-.22-.3-.42-.62-.59-.97-1.59,1.44-3.66,2.31-5.92,2.31-4.97,0-9.03-4.21-9.03-9.38s4.06-9.38,9.03-9.38c4.26,0,7.85,3.09,8.79,7.22.17-.07.34-.13.51-.18.01-2.25-.22-11.27-4.62-15.35h11.97c-4.42,4.09-4.64,13.17-4.62,15.38.17.05.34.12.51.19.99-4.06,4.55-7.08,8.76-7.08,4.98,0,9.03,4.21,9.03,9.38s-4.06,9.38-9.03,9.38c-2.31,0-4.42-.91-6.02-2.4-.12.24-.26.47-.41.7,3.32,1.4,5.63,4.5,5.63,8.08,0,4.89-4.31,8.88-9.6,8.88h0Zm-.48-189.54c-5.29,0-9.6,3.99-9.6,8.88,0,3.58,2.31,6.68,5.63,8.08-.15.22-.29.45-.41.7-1.6-1.49-3.71-2.4-6.02-2.4-4.97,0-9.03,4.21-9.03,9.38s4.06,9.38,9.03,9.38c4.21,0,7.77-3.02,8.76-7.08.17.07.34.14.51.19.02,2.21-.2,11.28-4.62,15.38h11.97c-4.41-4.08-4.64-13.1-4.62-15.35.17-.05.34-.11.51-.18.94,4.13,4.53,7.22,8.79,7.22,4.97,0,9.03-4.21,9.03-9.38s-4.06-9.38-9.03-9.38c-2.26,0-4.34.87-5.93,2.31-.17-.34-.37-.67-.58-.97,3.1-1.48,5.22-4.47,5.22-7.9,0-4.89-4.31-8.88-9.6-8.88h0Zm65.11,0c-5.29,0-9.6,3.99-9.6,8.88,0,3.58,2.31,6.68,5.63,8.08-.15.22-.29.45-.41.7-1.6-1.49-3.71-2.4-6.02-2.4-4.97,0-9.03,4.21-9.03,9.38s4.06,9.38,9.03,9.38c4.21,0,7.77-3.02,8.76-7.08.17.07.34.14.51.19.02,2.21-.2,11.28-4.62,15.38h11.97c-4.41-4.08-4.64-13.1-4.62-15.35.17-.05.34-.11.51-.18.94,4.13,4.53,7.22,8.79,7.22,4.97,0,9.03-4.21,9.03-9.38s-4.06-9.38-9.03-9.38c-2.26,0-4.34.87-5.93,2.31-.17-.34-.37-.67-.58-.97,3.1-1.48,5.22-4.47,5.22-7.9,0-4.89-4.31-8.88-9.6-8.88h0ZM48.99,103.05c-5.29,0-9.6,3.99-9.6,8.88,0,3.58,2.31,6.68,5.63,8.08-.15.22-.29.45-.41.7-1.6-1.49-3.71-2.4-6.02-2.4-4.97,0-9.03,4.21-9.03,9.38s4.06,9.38,9.03,9.38c4.21,0,7.77-3.02,8.76-7.08.17.07.34.14.51.19.02,2.21-.2,11.28-4.62,15.38h11.97c-4.41-4.08-4.64-13.1-4.62-15.35.17-.05.34-.11.51-.18.94,4.13,4.53,7.22,8.79,7.22,4.97,0,9.03-4.21,9.03-9.38s-4.06-9.38-9.03-9.38c-2.26,0-4.34.87-5.93,2.31-.17-.34-.37-.67-.58-.97,3.1-1.48,5.22-4.47,5.22-7.9,0-4.89-4.31-8.88-9.6-8.88h0Zm65.11,0c-5.29,0-9.6,3.99-9.6,8.88,0,3.58,2.31,6.68,5.63,8.08-.15.22-.29.45-.41.7-1.6-1.49-3.71-2.4-6.02-2.4-4.97,0-9.03,4.21-9.03,9.38s4.06,9.38,9.03,9.38c4.21,0,7.77-3.02,8.76-7.08.17.07.34.14.51.19.02,2.21-.2,11.28-4.62,15.38h11.97c-4.41-4.08-4.64-13.1-4.62-15.35.17-.05.34-.11.51-.18.94,4.13,4.53,7.22,8.79,7.22,4.97,0,9.03-4.21,9.03-9.38s-4.06-9.38-9.03-9.38c-2.26,0-4.34.87-5.93,2.31-.17-.34-.37-.67-.58-.97,3.1-1.48,5.22-4.47,5.22-7.9,0-4.89-4.31-8.88-9.6-8.88Z" style="fill: #231815; fill-rule: evenodd; stroke-width: 0px;"/>
      </g>
    </g>
  </g>
</svg>