<?xml version="1.0" encoding="UTF-8"?>
<svg id="_图层_2" data-name="图层 2" xmlns="http://www.w3.org/2000/svg" viewBox="0 0 163.57 248.61">
  <g id="_图层_1-2" data-name="图层 1">
    <g>
      <path d="m162.57,242.01c0,3.08-2.51,5.6-5.57,5.6H6.57c-3.06,0-5.57-2.52-5.57-5.6V6.6C1,3.52,3.51,1,6.57,1h150.43c3.06,0,5.57,2.52,5.57,5.6v235.41Z" style="fill: #fff; fill-rule: evenodd; stroke: #231815; stroke-miterlimit: 22.93; stroke-width: 2px;"/>
      <g>
        <g>
          <path d="m21.41,27.12c.81.37,1.56.84,2.2,1.4,1.7,1.46,2.75,3.49,2.75,5.75s-1.05,4.29-2.75,5.75c-1.64,1.41-3.87,2.28-6.32,2.28s-4.69-.87-6.32-2.28c-1.7-1.46-2.75-3.49-2.75-5.75s1.05-4.29,2.75-5.75c.65-.56,1.39-1.03,2.2-1.4-.57-.3-1.09-.66-1.56-1.07-1.52-1.34-2.47-3.19-2.47-5.25s.95-3.91,2.47-5.25c1.47-1.29,3.48-2.08,5.68-2.08s4.21.8,5.68,2.08c1.52,1.34,2.47,3.19,2.47,5.25s-.95,3.91-2.47,5.25c-.47.41-.99.77-1.56,1.07h0Zm-4.12,2.24c-1.69,0-3.2.58-4.29,1.51-1.03.88-1.66,2.09-1.66,3.4s.64,2.51,1.66,3.39c1.08.94,2.6,1.51,4.29,1.51s3.21-.58,4.29-1.51c1.03-.88,1.66-2.09,1.66-3.39s-.64-2.51-1.66-3.4c-1.08-.93-2.6-1.51-4.29-1.51h0Zm0-12.77c-1.43,0-2.71.5-3.63,1.3-.86.75-1.4,1.79-1.4,2.91s.54,2.15,1.4,2.91c.92.8,2.2,1.3,3.63,1.3s2.71-.5,3.63-1.3c.86-.75,1.4-1.79,1.4-2.91s-.54-2.15-1.4-2.91c-.92-.8-2.2-1.3-3.63-1.3Z" style="fill: #231815; stroke-width: 0px;"/>
          <path d="m17.18,47.2c2.29,0,4.16,1.73,4.16,3.85,0,1.49-.92,2.79-2.26,3.42.1.13.18.27.25.42.69-.62,1.59-1,2.57-1,2.16,0,3.92,1.83,3.92,4.07s-1.76,4.07-3.92,4.07c-1.85,0-3.4-1.34-3.81-3.13-.07.03-.15.06-.22.08,0,.98.09,4.89,2,6.65h-5.19c1.92-1.77,2.01-5.71,2-6.67-.08-.02-.15-.05-.22-.08-.43,1.76-1.97,3.07-3.8,3.07-2.16,0-3.92-1.83-3.92-4.06s1.76-4.07,3.92-4.07c1,0,1.92.39,2.61,1.04.05-.11.11-.21.18-.3-1.44-.61-2.44-1.95-2.44-3.5,0-2.12,1.87-3.85,4.16-3.85Z" style="fill: #231815; fill-rule: evenodd; stroke-width: 0px;"/>
        </g>
        <g>
          <path d="m142.16,221.49c-.81-.37-1.56-.84-2.2-1.4-1.7-1.46-2.75-3.49-2.75-5.75s1.05-4.29,2.75-5.75c1.64-1.41,3.88-2.28,6.32-2.28s4.69.87,6.32,2.28c1.7,1.46,2.75,3.49,2.75,5.75s-1.05,4.29-2.75,5.75c-.65.56-1.39,1.03-2.2,1.4.57.3,1.09.66,1.56,1.07,1.52,1.34,2.47,3.19,2.47,5.25s-.95,3.91-2.47,5.25c-1.47,1.29-3.48,2.08-5.68,2.08s-4.21-.8-5.68-2.08c-1.52-1.34-2.47-3.19-2.47-5.25s.95-3.91,2.47-5.25c.47-.41.99-.77,1.56-1.07h0Zm4.12-2.24c1.69,0,3.21-.58,4.29-1.51,1.03-.88,1.66-2.09,1.66-3.4s-.64-2.51-1.66-3.39c-1.09-.93-2.6-1.51-4.29-1.51s-3.2.58-4.29,1.51c-1.03.88-1.66,2.09-1.66,3.39s.64,2.51,1.66,3.4c1.08.93,2.6,1.51,4.29,1.51h0Zm0,12.76c1.43,0,2.71-.5,3.63-1.3.86-.76,1.4-1.79,1.4-2.91s-.54-2.15-1.4-2.91c-.92-.8-2.2-1.3-3.63-1.3s-2.71.5-3.63,1.3c-.86.75-1.4,1.79-1.4,2.91s.54,2.15,1.4,2.91c.92.8,2.2,1.3,3.63,1.3Z" style="fill: #231815; stroke-width: 0px;"/>
          <path d="m146.39,201.42c-2.29,0-4.16-1.73-4.16-3.85,0-1.49.92-2.79,2.26-3.42-.09-.13-.18-.27-.25-.42-.69.62-1.59,1-2.57,1-2.16,0-3.92-1.83-3.92-4.07s1.76-4.07,3.92-4.07c1.85,0,3.4,1.34,3.81,3.13.07-.03.15-.06.22-.08,0-.98-.09-4.89-2-6.65h5.19c-1.92,1.77-2.01,5.71-2,6.67.07.02.15.05.22.08.43-1.76,1.97-3.07,3.8-3.07,2.16,0,3.92,1.83,3.92,4.07s-1.76,4.07-3.92,4.07c-1,0-1.92-.39-2.61-1.04-.05.11-.11.21-.18.3,1.44.61,2.44,1.95,2.44,3.5,0,2.12-1.87,3.85-4.16,3.85Z" style="fill: #231815; fill-rule: evenodd; stroke-width: 0px;"/>
        </g>
        <path d="m82.03,182.32c-5.29,0-9.6-3.99-9.6-8.88,0-3.43,2.13-6.42,5.22-7.9-.22-.3-.42-.62-.59-.97-1.59,1.44-3.66,2.31-5.92,2.31-4.97,0-9.03-4.21-9.03-9.38s4.06-9.38,9.03-9.38c4.26,0,7.85,3.09,8.79,7.22.17-.07.34-.13.51-.18.01-2.25-.22-11.27-4.62-15.35h11.97c-4.42,4.09-4.64,13.17-4.62,15.38.17.05.34.12.51.19.99-4.06,4.55-7.08,8.76-7.08,4.97,0,9.03,4.21,9.03,9.38s-4.06,9.38-9.03,9.38c-2.31,0-4.42-.91-6.02-2.4-.12.24-.26.48-.41.7,3.32,1.4,5.63,4.5,5.63,8.08,0,4.89-4.31,8.88-9.6,8.88h0Zm32.07-79.26c-5.29,0-9.6,3.99-9.6,8.88,0,3.58,2.31,6.68,5.63,8.08-.15.22-.29.45-.41.7-1.6-1.49-3.71-2.4-6.02-2.4-4.97,0-9.03,4.21-9.03,9.38s4.06,9.38,9.03,9.38c4.21,0,7.77-3.02,8.76-7.08.17.07.33.14.51.19.02,2.21-.2,11.28-4.62,15.38h11.97c-4.41-4.08-4.64-13.1-4.62-15.35.17-.05.34-.11.51-.18.94,4.13,4.53,7.22,8.79,7.22,4.97,0,9.03-4.21,9.03-9.38s-4.06-9.38-9.03-9.38c-2.26,0-4.34.87-5.93,2.31-.17-.34-.37-.67-.59-.97,3.1-1.48,5.22-4.47,5.22-7.9,0-4.89-4.31-8.88-9.6-8.88h0Zm-65.11,0c-5.29,0-9.6,3.99-9.6,8.88,0,3.58,2.31,6.68,5.63,8.08-.15.22-.29.45-.41.7-1.6-1.49-3.71-2.4-6.02-2.4-4.98,0-9.03,4.21-9.03,9.38s4.06,9.38,9.03,9.38c4.21,0,7.77-3.02,8.76-7.08.16.07.33.14.51.19.02,2.21-.2,11.28-4.62,15.38h11.97c-4.41-4.08-4.64-13.1-4.62-15.35.17-.05.34-.11.51-.18.94,4.13,4.53,7.22,8.79,7.22,4.97,0,9.03-4.21,9.03-9.38s-4.06-9.38-9.03-9.38c-2.26,0-4.34.87-5.93,2.31-.17-.34-.37-.67-.59-.97,3.1-1.48,5.22-4.47,5.22-7.9,0-4.89-4.31-8.88-9.6-8.88h0Zm.48,116.02c5.29,0,9.6-3.99,9.6-8.88,0-3.58-2.31-6.68-5.63-8.08.15-.22.29-.45.41-.7,1.6,1.49,3.71,2.4,6.02,2.4,4.97,0,9.03-4.21,9.03-9.38s-4.06-9.38-9.03-9.38c-4.21,0-7.77,3.02-8.76,7.08-.17-.07-.33-.14-.51-.19-.01-2.21.2-11.28,4.62-15.38h-11.97c4.41,4.08,4.64,13.1,4.62,15.35-.17.05-.34.11-.51.18-.94-4.13-4.53-7.22-8.79-7.22-4.97,0-9.03,4.21-9.03,9.38s4.06,9.38,9.03,9.38c2.26,0,4.34-.87,5.93-2.31.17.34.37.67.58.97-3.1,1.48-5.22,4.47-5.22,7.9,0,4.89,4.31,8.88,9.6,8.88h0Zm65.11,0c5.29,0,9.6-3.99,9.6-8.88,0-3.58-2.31-6.68-5.63-8.08.15-.22.29-.45.41-.7,1.6,1.49,3.71,2.4,6.02,2.4,4.97,0,9.03-4.21,9.03-9.38s-4.06-9.38-9.03-9.38c-4.21,0-7.77,3.02-8.76,7.08-.17-.07-.34-.14-.51-.19-.02-2.21.2-11.28,4.62-15.38h-11.97c4.41,4.08,4.64,13.1,4.62,15.35-.17.05-.34.11-.51.18-.94-4.13-4.53-7.22-8.79-7.22-4.97,0-9.03,4.21-9.03,9.38s4.06,9.38,9.03,9.38c2.26,0,4.34-.87,5.92-2.31.17.34.37.67.59.97-3.1,1.48-5.22,4.47-5.22,7.9,0,4.89,4.31,8.88,9.6,8.88h0Zm-33.04-152.78c5.29,0,9.6,3.99,9.6,8.88,0,3.43-2.13,6.42-5.22,7.9.22.3.42.62.59.97,1.59-1.44,3.66-2.31,5.93-2.31,4.97,0,9.03,4.21,9.03,9.38s-4.06,9.38-9.03,9.38c-4.26,0-7.85-3.09-8.79-7.22-.17.07-.34.13-.51.18-.01,2.25.22,11.27,4.62,15.35h-11.97c4.42-4.09,4.64-13.17,4.62-15.38-.17-.05-.34-.12-.51-.19-.99,4.06-4.54,7.08-8.76,7.08-4.97,0-9.03-4.21-9.03-9.38s4.06-9.38,9.03-9.38c2.31,0,4.42.91,6.02,2.4.12-.24.26-.48.41-.7-3.32-1.4-5.63-4.5-5.63-8.08,0-4.89,4.31-8.88,9.6-8.88h0ZM48.99,29.54c-5.29,0-9.6,3.99-9.6,8.88,0,3.58,2.31,6.68,5.63,8.08-.15.22-.29.45-.41.7-1.6-1.49-3.71-2.4-6.02-2.4-4.98,0-9.03,4.21-9.03,9.38s4.06,9.38,9.03,9.38c4.21,0,7.77-3.02,8.76-7.08.16.07.33.14.51.19.02,2.21-.2,11.28-4.62,15.38h11.97c-4.41-4.08-4.64-13.1-4.62-15.35.17-.05.34-.11.51-.18.94,4.13,4.53,7.22,8.79,7.22,4.97,0,9.03-4.21,9.03-9.38s-4.06-9.38-9.03-9.38c-2.26,0-4.34.87-5.93,2.31-.17-.34-.37-.67-.59-.97,3.1-1.48,5.22-4.47,5.22-7.9,0-4.89-4.31-8.88-9.6-8.88h0Zm65.11,0c-5.29,0-9.6,3.99-9.6,8.88,0,3.58,2.31,6.68,5.63,8.08-.15.22-.29.45-.41.7-1.6-1.49-3.71-2.4-6.02-2.4-4.97,0-9.03,4.21-9.03,9.38s4.06,9.38,9.03,9.38c4.21,0,7.77-3.02,8.76-7.08.17.07.33.14.51.19.02,2.21-.2,11.28-4.62,15.38h11.97c-4.41-4.08-4.64-13.1-4.62-15.35.17-.05.34-.11.51-.18.94,4.13,4.53,7.22,8.79,7.22,4.97,0,9.03-4.21,9.03-9.38s-4.06-9.38-9.03-9.38c-2.26,0-4.34.87-5.93,2.31-.17-.34-.37-.67-.59-.97,3.1-1.48,5.22-4.47,5.22-7.9,0-4.89-4.31-8.88-9.6-8.88Z" style="fill: #231815; fill-rule: evenodd; stroke-width: 0px;"/>
      </g>
    </g>
  </g>
</svg>