<?xml version="1.0" encoding="UTF-8"?>
<svg id="_图层_2" data-name="图层 2" xmlns="http://www.w3.org/2000/svg" viewBox="0 0 163.58 248.61">
  <g id="_图层_1-2" data-name="图层 1">
    <g>
      <path d="m162.58,242.01c0,3.08-2.51,5.6-5.57,5.6H6.57c-3.07,0-5.57-2.52-5.57-5.6V6.6C1,3.52,3.51,1,6.57,1h150.43c3.06,0,5.57,2.52,5.57,5.6v235.41Z" style="fill: #fff; fill-rule: evenodd; stroke: #231815; stroke-miterlimit: 22.93; stroke-width: 2px;"/>
      <g>
        <g>
          <path d="m11.6,35.58s1.5,3.39,5.71,3.04h-.04c1.71-.17,2.84-1.16,3.61-2.63.72-1.38,1.16-3.17,1.46-5.14-.21.18-.43.35-.65.5-1.25.87-2.65,1.33-4.06,1.39-1.4.07-2.81-.26-4.09-.95-2.06-1.11-3.76-3.17-4.48-6.07-1.1-4.45.5-8.16,3.07-10.29,1.41-1.16,3.11-1.86,4.83-1.96,1.77-.11,3.56.41,5.09,1.67,1.94,1.6,3.42,4.44,3.76,8.79h0c.13,1.68.09,3.59-.16,5.74-.34,2.9-.89,5.63-2,7.75-1.24,2.38-3.12,3.99-6.05,4.3h-.04c-6.41.54-8.81-4.88-8.81-4.9l2.85-1.25h0Zm11.08-11.81c-.3-3.14-1.31-5.13-2.62-6.21-.87-.72-1.9-1.01-2.92-.95-1.07.06-2.13.51-3.03,1.25-1.74,1.44-2.81,4-2.03,7.14.49,1.98,1.6,3.35,2.93,4.07.77.41,1.62.61,2.47.57.84-.04,1.67-.31,2.42-.83,1.3-.9,2.35-2.55,2.78-5.03Z" style="fill: #231815; stroke-width: 0px;"/>
          <path d="m17.18,47.2c2.29,0,4.16,1.73,4.16,3.85,0,1.49-.92,2.79-2.26,3.43.1.13.18.27.25.42.69-.62,1.59-1,2.57-1,2.16,0,3.91,1.83,3.91,4.07s-1.76,4.06-3.91,4.06c-1.85,0-3.4-1.34-3.81-3.13-.07.03-.15.06-.22.08,0,.98.09,4.89,2,6.65h-5.19c1.92-1.77,2.01-5.71,2-6.66-.08-.02-.15-.05-.22-.08-.43,1.76-1.97,3.07-3.8,3.07-2.16,0-3.92-1.83-3.92-4.07s1.76-4.07,3.92-4.07c1,0,1.92.39,2.61,1.04.05-.11.11-.21.18-.3-1.44-.61-2.44-1.95-2.44-3.5,0-2.12,1.87-3.85,4.16-3.85Z" style="fill: #231815; fill-rule: evenodd; stroke-width: 0px;"/>
        </g>
        <g>
          <path d="m151.98,213.04s-1.5-3.39-5.71-3.05h.04c-1.71.17-2.84,1.16-3.61,2.63-.72,1.38-1.16,3.17-1.46,5.14.21-.18.43-.35.65-.5,1.25-.87,2.65-1.33,4.06-1.39,1.4-.07,2.81.26,4.09.95,2.06,1.11,3.76,3.17,4.48,6.07,1.1,4.45-.5,8.16-3.07,10.29-1.41,1.16-3.11,1.86-4.83,1.96-1.77.11-3.56-.41-5.09-1.67-1.94-1.6-3.42-4.44-3.76-8.79h0c-.13-1.68-.09-3.59.16-5.74.34-2.9.89-5.63,2-7.75,1.24-2.38,3.12-3.99,6.05-4.3h.04c6.41-.54,8.81,4.88,8.81,4.9l-2.85,1.25h0Zm-11.08,11.81c.3,3.14,1.31,5.13,2.62,6.22.87.72,1.9,1.01,2.92.95,1.07-.06,2.13-.51,3.03-1.25,1.74-1.44,2.81-4,2.03-7.14-.49-1.98-1.6-3.35-2.93-4.07-.77-.42-1.62-.61-2.47-.57-.84.04-1.67.31-2.42.83-1.3.91-2.35,2.55-2.78,5.02Z" style="fill: #231815; stroke-width: 0px;"/>
          <path d="m146.39,201.42c-2.29,0-4.16-1.73-4.16-3.85,0-1.49.92-2.79,2.26-3.43-.09-.13-.18-.27-.25-.42-.69.62-1.59,1-2.57,1-2.16,0-3.91-1.83-3.91-4.07s1.76-4.07,3.91-4.07c1.85,0,3.4,1.34,3.81,3.13.07-.03.15-.06.22-.08,0-.98-.09-4.89-2-6.65h5.19c-1.92,1.77-2.01,5.71-2,6.67.08.02.15.05.22.08.43-1.76,1.97-3.07,3.8-3.07,2.16,0,3.92,1.83,3.92,4.07s-1.76,4.07-3.92,4.07c-1,0-1.92-.39-2.61-1.04-.05.11-.11.21-.18.3,1.44.61,2.44,1.95,2.44,3.5,0,2.12-1.87,3.85-4.16,3.85Z" style="fill: #231815; fill-rule: evenodd; stroke-width: 0px;"/>
        </g>
        <path d="m81.55,103.05c5.29,0,9.6,3.99,9.6,8.88,0,3.44-2.13,6.42-5.22,7.9.22.3.42.62.58.97,1.59-1.44,3.66-2.31,5.93-2.31,4.97,0,9.03,4.21,9.03,9.38s-4.06,9.38-9.03,9.38c-4.26,0-7.85-3.09-8.79-7.22-.17.07-.34.13-.51.18-.01,2.25.22,11.27,4.62,15.35h-11.97c4.42-4.09,4.64-13.17,4.62-15.38-.17-.06-.34-.12-.51-.19-.99,4.06-4.55,7.08-8.76,7.08-4.97,0-9.03-4.21-9.03-9.38s4.06-9.38,9.03-9.38c2.31,0,4.42.91,6.02,2.4.12-.24.26-.48.41-.7-3.32-1.4-5.63-4.5-5.63-8.08,0-4.89,4.31-8.88,9.6-8.88h0Zm-32.07,67.01c5.29,0,9.6-3.99,9.6-8.88,0-3.58-2.31-6.68-5.63-8.08.15-.22.29-.45.41-.7,1.6,1.49,3.71,2.4,6.02,2.4,4.97,0,9.03-4.21,9.03-9.38s-4.06-9.38-9.03-9.38c-4.21,0-7.77,3.02-8.76,7.08-.17-.07-.34-.14-.51-.19-.02-2.21.2-11.28,4.62-15.38h-11.97c4.41,4.08,4.64,13.1,4.62,15.35-.17.05-.34.11-.51.18-.94-4.13-4.53-7.22-8.79-7.22-4.97,0-9.03,4.21-9.03,9.38s4.06,9.38,9.03,9.38c2.26,0,4.34-.87,5.93-2.31.17.34.37.67.59.97-3.1,1.48-5.22,4.47-5.22,7.9,0,4.89,4.31,8.88,9.6,8.88h0Zm0,49.01c-5.29,0-9.6-3.99-9.6-8.88,0-3.44,2.13-6.42,5.22-7.9-.22-.3-.42-.62-.59-.97-1.59,1.44-3.66,2.31-5.93,2.31-4.97,0-9.03-4.21-9.03-9.38s4.06-9.38,9.03-9.38c4.26,0,7.85,3.09,8.79,7.22.17-.07.34-.13.51-.18.01-2.25-.22-11.27-4.62-15.35h11.97c-4.42,4.09-4.64,13.17-4.62,15.38.17.05.34.12.51.19.99-4.06,4.55-7.08,8.76-7.08,4.97,0,9.03,4.21,9.03,9.38s-4.06,9.38-9.03,9.38c-2.31,0-4.42-.91-6.02-2.4-.12.24-.26.48-.41.7,3.32,1.4,5.63,4.5,5.63,8.08,0,4.89-4.31,8.88-9.6,8.88h0Zm-.48-140.53c-5.29,0-9.6,3.99-9.6,8.88,0,3.58,2.31,6.68,5.63,8.08-.15.22-.29.45-.41.7-1.6-1.49-3.71-2.4-6.02-2.4-4.98,0-9.03,4.21-9.03,9.38s4.06,9.38,9.03,9.38c4.21,0,7.77-3.02,8.76-7.08.17.07.33.14.51.19.02,2.21-.2,11.28-4.62,15.38h11.97c-4.41-4.08-4.64-13.1-4.62-15.35.17-.05.34-.11.51-.18.94,4.13,4.53,7.22,8.79,7.22,4.97,0,9.03-4.21,9.03-9.38s-4.06-9.38-9.03-9.38c-2.26,0-4.34.87-5.93,2.31-.17-.34-.37-.67-.58-.97,3.1-1.48,5.22-4.47,5.22-7.9,0-4.89-4.31-8.88-9.6-8.88h0Zm0-49.01c5.29,0,9.6,3.99,9.6,8.88,0,3.44-2.13,6.42-5.22,7.9.22.3.42.62.58.97,1.59-1.44,3.66-2.31,5.93-2.31,4.97,0,9.03,4.21,9.03,9.38s-4.06,9.38-9.03,9.38c-4.26,0-7.85-3.09-8.79-7.22-.17.07-.34.13-.51.18-.01,2.25.22,11.27,4.62,15.35h-11.97c4.42-4.09,4.64-13.17,4.62-15.38-.17-.05-.34-.12-.51-.19-.99,4.06-4.55,7.08-8.76,7.08-4.98,0-9.03-4.21-9.03-9.38s4.06-9.38,9.03-9.38c2.31,0,4.42.91,6.02,2.4.12-.24.26-.48.41-.7-3.32-1.4-5.63-4.5-5.63-8.08,0-4.89,4.31-8.88,9.6-8.88h0Zm65.59,140.53c5.29,0,9.6-3.99,9.6-8.88,0-3.58-2.31-6.68-5.63-8.08.15-.22.29-.45.41-.7,1.6,1.49,3.71,2.4,6.02,2.4,4.98,0,9.03-4.21,9.03-9.38s-4.06-9.38-9.03-9.38c-4.21,0-7.77,3.02-8.76,7.08-.17-.07-.33-.14-.51-.19-.02-2.21.2-11.28,4.62-15.38h-11.97c4.41,4.08,4.64,13.1,4.62,15.35-.17.05-.34.11-.51.18-.94-4.13-4.53-7.22-8.79-7.22-4.98,0-9.03,4.21-9.03,9.38s4.06,9.38,9.03,9.38c2.26,0,4.34-.87,5.93-2.31.17.34.37.67.58.97-3.1,1.48-5.22,4.47-5.22,7.9,0,4.89,4.31,8.88,9.6,8.88h0Zm0,49.01c-5.29,0-9.6-3.99-9.6-8.88,0-3.44,2.13-6.42,5.22-7.9-.22-.3-.42-.62-.58-.97-1.59,1.44-3.66,2.31-5.93,2.31-4.97,0-9.03-4.21-9.03-9.38s4.06-9.38,9.03-9.38c4.26,0,7.85,3.09,8.79,7.22.17-.07.34-.13.51-.18.01-2.25-.22-11.27-4.62-15.35h11.97c-4.42,4.09-4.64,13.17-4.62,15.38.17.05.34.12.51.19.99-4.06,4.55-7.08,8.76-7.08,4.98,0,9.03,4.21,9.03,9.38s-4.06,9.38-9.03,9.38c-2.31,0-4.42-.91-6.02-2.4-.12.24-.26.48-.41.7,3.32,1.4,5.63,4.5,5.63,8.08,0,4.89-4.31,8.88-9.6,8.88h0Zm-.48-140.53c-5.29,0-9.6,3.99-9.6,8.88,0,3.58,2.31,6.68,5.63,8.08-.15.22-.29.45-.41.7-1.6-1.49-3.71-2.4-6.02-2.4-4.97,0-9.03,4.21-9.03,9.38s4.06,9.38,9.03,9.38c4.21,0,7.77-3.02,8.76-7.08.17.07.34.14.51.19.02,2.21-.2,11.28-4.62,15.38h11.97c-4.41-4.08-4.64-13.1-4.62-15.35.17-.05.34-.11.51-.18.94,4.13,4.53,7.22,8.79,7.22,4.97,0,9.03-4.21,9.03-9.38s-4.06-9.38-9.03-9.38c-2.26,0-4.34.87-5.93,2.31-.17-.34-.37-.67-.58-.97,3.1-1.48,5.22-4.47,5.22-7.9,0-4.89-4.31-8.88-9.6-8.88h0Zm0-49.01c5.29,0,9.6,3.99,9.6,8.88,0,3.44-2.13,6.42-5.22,7.9.22.3.42.62.58.97,1.59-1.44,3.66-2.31,5.93-2.31,4.97,0,9.03,4.21,9.03,9.38s-4.06,9.38-9.03,9.38c-4.26,0-7.85-3.09-8.79-7.22-.17.07-.34.13-.51.18-.01,2.25.22,11.27,4.62,15.35h-11.97c4.42-4.09,4.64-13.17,4.62-15.38-.17-.05-.34-.12-.51-.19-.99,4.06-4.55,7.08-8.76,7.08-4.97,0-9.03-4.21-9.03-9.38s4.06-9.38,9.03-9.38c2.31,0,4.42.91,6.02,2.4.12-.24.26-.48.41-.7-3.32-1.4-5.63-4.5-5.63-8.08,0-4.89,4.31-8.88,9.6-8.88Z" style="fill: #231815; fill-rule: evenodd; stroke-width: 0px;"/>
      </g>
    </g>
  </g>
</svg>