<?xml version="1.0" encoding="UTF-8"?>
<svg id="_图层_2" data-name="图层 2" xmlns="http://www.w3.org/2000/svg" viewBox="0 0 210.38 79.98">
  <g id="_图层_7" data-name="图层 7">
    <g>
      <g>
        <ellipse cx="104.74" cy="27.97" rx="104.43" ry="27.66" style="fill: #734c9b; stroke: #5a1c87; stroke-miterlimit: 10; stroke-width: .61px;"/>
        <ellipse cx="62.65" cy="47.1" rx="1.88" ry=".71" style="fill: #fff; stroke-width: 0px;"/>
        <ellipse cx="60.23" cy="44.7" rx="1.88" ry=".71" style="fill: #fff; stroke-width: 0px;"/>
        <ellipse cx="71.33" cy="46.4" rx="1.88" ry=".71" style="fill: #fff; stroke-width: 0px;"/>
        <ellipse cx="64.96" cy="49.22" rx="1.88" ry=".71" style="fill: #fff; stroke-width: 0px;"/>
        <ellipse cx="53.83" cy="47.65" rx="1.88" ry=".71" style="fill: #fff; stroke-width: 0px;"/>
        <ellipse cx="138.12" cy="9.02" rx="1.88" ry=".71" style="fill: #fff; stroke-width: 0px;"/>
        <ellipse cx="155.53" cy="7.85" rx="1.88" ry=".71" style="fill: #fff; stroke-width: 0px;"/>
        <ellipse cx="147.72" cy="46.85" rx="1.88" ry=".71" style="fill: #fff; stroke-width: 0px;"/>
        <ellipse cx="183.6" cy="26.03" rx="1.88" ry=".71" style="fill: #fff; stroke-width: 0px;"/>
        <ellipse cx="189.86" cy="27.44" rx="1.88" ry=".71" style="fill: #fff; stroke-width: 0px;"/>
        <ellipse cx="196.22" cy="29.08" rx="1.88" ry=".71" style="fill: #fff; stroke-width: 0px;"/>
        <polygon points="127.32 9.31 152.44 12.86 165.27 6.49 141.02 3.09 127.32 9.31" style="fill: none; opacity: .99; stroke: #fff; stroke-miterlimit: 10; stroke-width: .31px;"/>
        <polygon points="31.51 31.02 31.51 24.09 4.61 24.09 4.32 31.02 31.51 31.02" style="fill: none; stroke: #fff; stroke-miterlimit: 10; stroke-width: .31px;"/>
        <polygon points="142.28 50.91 167.4 48.09 154.05 42.04 129.7 45.15 142.28 50.91" style="fill: none; stroke: #fff; stroke-miterlimit: 10; stroke-width: .31px;"/>
        <polygon points="43.1 48.35 56.51 42.19 80.82 45.15 67.36 51.69 43.1 48.35" style="fill: none; stroke: #fff; stroke-miterlimit: 10; stroke-width: .31px;"/>
        <polygon points="174.42 31.29 202.26 30.95 202.26 23.8 174.42 23.8 174.42 31.29" style="fill: none; stroke: #fff; stroke-miterlimit: 10; stroke-width: .31px;"/>
        <path d="m89.06,54.27c5.12.2,10.35.3,15.68.3,5.72,0,11.34-.12,16.81-.35l-3.79-5.11h-25.46l-3.25,5.16Z" style="fill: #fff; stroke: #5a1c87; stroke-miterlimit: 10; stroke-width: .61px;"/>
        <path d="m179.17,35.76c-.77,2.14-10.27,5.4-10.27,5.4l17.18,4.15c6.48-2.13,11.8-4.52,15.69-7.1l-22.6-2.45Z" style="fill: #fff; stroke: #5a1c87; stroke-miterlimit: 10; stroke-width: .61px;"/>
        <path d="m31.51,20.37c.53-2.04,9.59-5.25,9.59-5.25l-18.35-4.29c-6.79,2.27-12.25,4.84-16.09,7.61l24.84,1.93Z" style="fill: #fff; stroke: #5a1c87; stroke-miterlimit: 10; stroke-width: .61px;"/>
        <path d="m91.75,7.3h25.1l5.2-6.61c-5.63-.25-11.41-.38-17.31-.38s-12.16.14-18.01.41l5.03,6.58Z" style="fill: #fff; stroke: #5a1c87; stroke-miterlimit: 10; stroke-width: .61px;"/>
        <path d="m186.62,10.8l-18.71,4.3c5.5.97,10.9,5,10.9,5l23.32-2.13c-3.81-2.6-9.07-5.01-15.51-7.17Z" style="fill: #fff; stroke: #5a1c87; stroke-miterlimit: 10; stroke-width: .61px;"/>
        <polygon points="57.22 13.53 81.37 9.73 67.63 3.13 42.05 7 57.22 13.53" style="fill: none; stroke: #fff; stroke-miterlimit: 10; stroke-width: .31px;"/>
        <ellipse cx="63.69" cy="6.15" rx="1.7" ry=".57" style="fill: #fff; stroke-width: 0px;"/>
        <ellipse cx="66.96" cy="7.59" rx="1.7" ry=".57" style="fill: #fff; stroke-width: 0px;"/>
        <ellipse cx="70.36" cy="9.04" rx="1.7" ry=".57" style="fill: #fff; stroke-width: 0px;"/>
        <ellipse cx="59.15" cy="10.79" rx="1.7" ry=".57" style="fill: #fff; stroke-width: 0px;"/>
        <ellipse cx="56.12" cy="9.33" rx="1.7" ry=".57" style="fill: #fff; stroke-width: 0px;"/>
        <ellipse cx="52.97" cy="7.87" rx="1.7" ry=".57" style="fill: #fff; stroke-width: 0px;"/>
        <ellipse cx="25.68" cy="26.1" rx="1.88" ry=".71" style="fill: #fff; stroke-width: 0px;"/>
        <ellipse cx="25.68" cy="29.36" rx="1.88" ry=".71" style="fill: #fff; stroke-width: 0px;"/>
        <ellipse cx="13" cy="26.1" rx="1.88" ry=".71" style="fill: #fff; stroke-width: 0px;"/>
        <ellipse cx="13" cy="29.36" rx="1.88" ry=".71" style="fill: #fff; stroke-width: 0px;"/>
        <path d="m.31,28.77s2.16,26.48,107.85,26.31,100.48-29.69,100.48-29.69c0,0,3.23,16.29-.01,30.2,0,0-5.56,21.02-99.54,24.08,0,0-88.75.38-108.02-23.56L.31,28.77Z" style="fill: #734c9b; stroke: #5a1c87; stroke-miterlimit: 10; stroke-width: .61px;"/>
        <path d="m185.5,69.64c7.67-2.41,12.82-4.92,16.26-7.13v-24.97c-3.42,2.78-8.51,5.7-16.08,8.33l-.18,23.77Z" style="fill: #fff; stroke: #5a1c87; stroke-miterlimit: 10; stroke-width: .61px;"/>
        <path d="m121.55,54.67c-4.26.12-8.71.19-13.39.2-6.79.01-13.14-.09-19.1-.29v24.51c11.89.62,20.03.59,20.03.59,4.34-.14,8.49-.32,12.46-.54v-24.47Z" style="fill: #fff; stroke: #5a1c87; stroke-miterlimit: 10; stroke-width: .62px;"/>
        <path d="m7.27,37.92c4.23,2.9,10.25,5.57,17.71,7.91l16.13-4.42c-3.33-.39-10.51-5.4-10.51-5.4l-23.32,1.91Z" style="fill: #fff; stroke: #5a1c87; stroke-miterlimit: 10; stroke-width: .61px;"/>
        <path d="m7.96,62.08c4.44,2.85,10.02,5.25,16.28,7.25l.24-23.45c-7.52-2.44-12.72-5.08-16.29-7.54l-.23,23.74Z" style="fill: #fff; stroke: #5a1c87; stroke-miterlimit: 10; stroke-width: .61px;"/>
        <path d="m104.74,9.73c-37.18,0-67.31,7.93-67.31,17.71s30.14,17.71,67.31,17.71,67.31-7.93,67.31-17.71-30.14-17.71-67.31-17.71Zm.31,33.88c-33.39,0-60.46-7.12-60.46-15.91s27.07-15.91,60.46-15.91,60.46,7.12,60.46,15.91-27.07,15.91-60.46,15.91Z" style="fill: #5a1c87; stroke-width: 0px;"/>
        <path d="m159.75,17.24l-4.88,1.45c3.39,1.3,6.08,2.73,7.9,4.26l4.34-2.17c-1.94-1.26-4.42-2.44-7.36-3.54Z" style="fill: #fff; stroke-width: 0px;"/>
        <path d="m165.51,27.7c0,.85-.26,1.68-.75,2.49l5.68,1.09c1.04-1.24,1.61-2.53,1.61-3.85,0-.48-.09-.95-.23-1.41h-6.65c.22.55.34,1.11.34,1.67Z" style="fill: #fff; stroke-width: 0px;"/>
        <path d="m159.97,34.35c-1.72.99-3.81,1.92-6.23,2.78l.54,2.3c4.64-1.33,8.51-2.84,11.45-4.5l-5.76-.58Z" style="fill: #fff; stroke-width: 0px;"/>
        <path d="m142.62,40.16c-4.04.85-8.5,1.56-13.29,2.11v1.66c5.06-.52,9.81-1.2,14.18-2.01l-.89-1.76Z" style="fill: #fff; stroke-width: 0px;"/>
        <path d="m112.12,45.05v-1.55c-2.32.07-4.68.11-7.08.11s-4.77-.04-7.1-.11l-.05,1.57c2.25.06,4.54.09,6.85.09,2.5,0,4.96-.04,7.38-.11Z" style="fill: #fff; stroke-width: 0px;"/>
        <path d="m80.82,42.28c-4.38-.5-8.49-1.14-12.25-1.89l-.93,1.83c4.1.71,8.52,1.31,13.19,1.78v-1.72Z" style="fill: #fff; stroke-width: 0px;"/>
        <path d="m56.24,37.09c-2.27-.82-4.26-1.69-5.91-2.62l-5.58,1c3.03,1.56,6.91,2.99,11.5,4.25v-2.63Z" style="fill: #fff; stroke-width: 0px;"/>
        <path d="m130.1,13.23c5.17.62,9.94,1.42,14.2,2.38v-2.49c-4.28-.82-8.93-1.51-13.89-2.05l-.31,2.16Z" style="fill: #fff; stroke-width: 0px;"/>
        <path d="m42.05,20.99l5.09,2.13c1.57-1.37,3.82-2.67,6.65-3.86l-2.67-2.53c-3.73,1.29-6.79,2.72-9.08,4.26Z" style="fill: #fff; stroke-width: 0px;"/>
        <path d="m44.59,27.7c0-.36.06-.72.15-1.08l-7.15-.38c-.1.4-.17.79-.17,1.19,0,1.41.65,2.78,1.83,4.1l6.77-.39c-.94-1.11-1.45-2.27-1.45-3.46Z" style="fill: #fff; stroke-width: 0px;"/>
        <path d="m64.69,13.21v2.65c4.3-1.01,9.15-1.87,14.43-2.53l-1.26-2.13c-4.69.54-9.11,1.21-13.17,2Z" style="fill: #fff; stroke-width: 0px;"/>
        <path d="m96.38,9.87v2.09c2.83-.11,5.72-.17,8.67-.17,2.42,0,4.8.04,7.15.11v-2.07c-2.45-.07-4.94-.11-7.46-.11-2.83,0-5.62.05-8.36.14Z" style="fill: #fff; stroke-width: 0px;"/>
      </g>
      <g>
        <path d="m73.47,28.57h5.98c-.19.77-.06,1.36.39,1.78.45.43,1.19.64,2.2.64s1.84-.25,2.48-.74c.64-.49,1.05-1.17,1.22-2.05.19-.96.05-1.67-.42-2.14-.46-.46-1.25-.69-2.36-.69-.53,0-1.06.06-1.59.18-.53.12-1.08.3-1.63.54h-4.86l2.44-7.84h14.14l-.35,2.14h-9.87l-.98,3.7c.88-.29,1.69-.5,2.43-.64.74-.14,1.45-.21,2.12-.21,2.3,0,4.05.43,5.25,1.3,1.22.88,1.73,2.09,1.5,3.66-.25,1.7-1.2,3.01-2.89,3.9-1.71.91-4.14,1.36-7.27,1.36s-5.35-.42-6.65-1.24-1.7-2.04-1.3-3.66Zm1.17-1.69h5.49c.41-.25.83-.43,1.26-.55.43-.12.9-.17,1.4-.17.82,0,1.39.15,1.72.44.33.3.43.76.29,1.39l-.02.11c-.26-.09-.54-.16-.82-.2s-.59-.07-.92-.07c-.29,0-.58.03-.86.08-.28.05-.56.13-.83.25l-.5-.39h-5.35l-.85-.89Zm16.39-2.66l2.13,1.78c.44.35.75.77.92,1.25.17.49.22,1.07.14,1.75-.24,2.04-1.43,3.77-3.59,5.17-2.21,1.43-4.95,2.16-8.15,2.16-1.52,0-2.85-.17-3.98-.5-1.13-.33-2.06-.82-2.79-1.47l-1.52-1.31c.77.46,1.69.8,2.78,1,1.09.21,2.59.31,4.48.31,3.36,0,6.01-.55,7.91-1.64,1.86-1.07,2.91-2.6,3.18-4.56.11-.81.03-1.53-.22-2.18-.25-.64-.68-1.23-1.28-1.75Zm-9.65-1.15l.51-1.98h9.93l.44-2.84,1.53,1.38-.41,3.01h-8.44c-.72,0-1.36.04-1.91.11s-1.1.18-1.64.33Zm-1.03,5.49l1.71,1.49h-.27c-.57,0-.98-.13-1.23-.39-.25-.26-.32-.62-.2-1.1Z" style="fill: #fff; stroke-width: 0px;"/>
        <path d="m114.03,25.09c.21,2.93-.33,5.09-1.64,6.37-1.35,1.31-3.81,1.98-7.37,1.98s-6.01-.67-7.31-1.97c-1.27-1.28-1.73-3.44-1.43-6.38.29-2.78,1.11-4.64,2.45-5.68s3.49-1.51,6.54-1.51,5.2.5,6.49,1.52c1.31,1.04,2.07,2.9,2.27,5.67Zm-2.12-6.45l2.17,1.5c.92.64,1.61,1.4,2.05,2.28.45.9.76,2.14.92,3.74.32,3.2-.36,5.73-2.09,7.5-1.79,1.82-4.64,2.76-8.5,2.76-1.12,0-2.12-.12-3.01-.35s-1.62-.56-2.19-1l-2.36-1.8c.59.38,1.36.66,2.3.82.94.17,2.26.25,3.97.25,3.79,0,6.45-.76,7.96-2.24,1.47-1.44,2.06-3.78,1.81-6.89-.14-1.72-.44-3.06-.92-4.07-.47-.99-1.16-1.82-2.09-2.51Zm-10.07,6.47c-.1,2.15.08,3.68.57,4.53.49.87,1.38,1.31,2.65,1.31s2.17-.45,2.7-1.33c.51-.87.75-2.39.72-4.51s-.3-3.42-.79-4.16c-.49-.72-1.3-1.08-2.44-1.08s-1.97.36-2.48,1.07-.82,2.1-.92,4.17Zm3.04,5.05c-.89-.11-1.5-.51-1.83-1.2-.33-.68-.46-1.87-.39-3.52.08-2.06.31-3.37.69-3.99.37-.61,1-.91,1.89-.91.62,0,1.13.18,1.53.53.4.36.63.85.7,1.48-.32-.17-.59-.3-.82-.38-.23-.08-.45-.12-.65-.12-.52,0-.88.15-1.08.46-.2.31-.32,1.07-.34,2.31v.41c-.02.64,0,1.35.05,2.15.05.81.14,1.73.27,2.78Z" style="fill: #fff; stroke-width: 0px;"/>
        <path d="m136.12,25.09c.84,2.93.78,5.09-.26,6.37-1.06,1.31-3.38,1.98-6.94,1.98s-6.16-.67-7.74-1.97c-1.55-1.28-2.48-3.44-2.81-6.38-.32-2.78.1-4.64,1.21-5.68s3.16-1.51,6.21-1.51,5.31.5,6.82,1.52c1.54,1.04,2.7,2.9,3.5,5.67Zm-3.52-6.45l2.5,1.5c1.06.64,1.91,1.4,2.55,2.28.65.9,1.22,2.14,1.73,3.74,1.01,3.2.89,5.73-.46,7.5-1.39,1.82-4.04,2.76-7.91,2.76-1.12,0-2.15-.12-3.09-.35s-1.74-.56-2.41-1l-2.75-1.8c.68.38,1.5.66,2.48.82.98.17,2.32.25,4.03.25,3.79,0,6.28-.76,7.47-2.24,1.15-1.44,1.24-3.78.31-6.89-.51-1.72-1.11-3.06-1.81-4.07-.68-.99-1.56-1.82-2.64-2.51Zm-8.67,6.47c.36,2.15.88,3.68,1.55,4.53.68.87,1.67,1.31,2.94,1.31s2.08-.45,2.41-1.33c.33-.87.23-2.39-.27-4.51s-1.04-3.42-1.7-4.16c-.64-.72-1.53-1.08-2.67-1.08s-1.9.36-2.25,1.07-.36,2.1-.02,4.17Zm4.13,5.05c-.91-.11-1.61-.51-2.1-1.2-.48-.68-.86-1.87-1.15-3.52-.36-2.06-.42-3.37-.18-3.99.24-.61.8-.91,1.69-.91.62,0,1.17.18,1.64.53.48.36.81.85,1.02,1.48-.35-.17-.65-.3-.9-.38-.25-.08-.47-.12-.67-.12-.52,0-.85.15-.98.46-.13.31-.08,1.07.16,2.31l.08.41c.12.64.3,1.35.52,2.15.23.81.52,1.73.87,2.78Z" style="fill: #fff; stroke-width: 0px;"/>
      </g>
    </g>
  </g>
</svg>