<?xml version="1.0" encoding="UTF-8"?>
<svg id="_图层_2" data-name="图层 2" xmlns="http://www.w3.org/2000/svg" viewBox="0 0 209.24 79.98">
  <g id="_图层_7" data-name="图层 7">
    <g>
      <path d="m.31,27.73s2.15,27.03,107.27,26.85c105.12-.18,99.93-30.3,99.93-30.3,0,0,3.21,16.62-.01,30.82,0,0-5.53,21.45-98.99,24.57,0,0-88.27.39-107.43-24.04L.31,27.73Z" style="fill: #744b9b; stroke: #591c87; stroke-miterlimit: 10; stroke-width: .62px;"/>
      <ellipse cx="104" cy="27.98" rx="103.7" ry="27.67" style="fill: #744b9b; stroke: #591c87; stroke-miterlimit: 10; stroke-width: .61px;"/>
      <rect x="88.97" y="2.11" width="27.39" height="6.98" style="fill: none; stroke: #fff; stroke-miterlimit: 10; stroke-width: .31px;"/>
      <ellipse cx="97.79" cy="4.15" rx="1.84" ry=".47" style="fill: #fff; stroke-width: 0px;"/>
      <ellipse cx="97.79" cy="5.85" rx="1.84" ry=".47" style="fill: #fff; stroke-width: 0px;"/>
      <ellipse cx="97.9" cy="7.52" rx="1.84" ry=".47" style="fill: #fff; stroke-width: 0px;"/>
      <ellipse cx="110.72" cy="3.97" rx="1.84" ry=".47" style="fill: #fff; stroke-width: 0px;"/>
      <ellipse cx="110.72" cy="5.85" rx="1.84" ry=".47" style="fill: #fff; stroke-width: 0px;"/>
      <ellipse cx="110.72" cy="7.52" rx="1.84" ry=".47" style="fill: #fff; stroke-width: 0px;"/>
      <polygon points="10.46 37.54 35.55 33.99 49.96 40.37 26.51 43.42 10.46 37.54" style="fill: none; stroke: #fff; stroke-miterlimit: 10; stroke-width: .31px;"/>
      <ellipse cx="32.45" cy="36.6" rx="1.94" ry=".57" style="fill: #fff; stroke-width: 0px;"/>
      <ellipse cx="29.9" cy="38.86" rx="1.94" ry=".57" style="fill: #fff; stroke-width: 0px;"/>
      <ellipse cx="27.6" cy="41" rx="1.94" ry=".57" style="fill: #fff; stroke-width: 0px;"/>
      <ellipse cx="21.14" cy="38.29" rx="1.94" ry=".57" style="fill: #fff; stroke-width: 0px;"/>
      <ellipse cx="38.85" cy="39.66" rx="1.94" ry=".57" style="fill: #fff; stroke-width: 0px;"/>
      <path d="m66.66,2.74l7.87,5.82s-18.3,2.19-20.61,3.46l-16.39-4.74s19.53-4.36,29.14-4.54Z" style="fill: #fff; stroke: #591c87; stroke-miterlimit: 10; stroke-width: .61px;"/>
      <path d="m141.68,2.74l-7.87,5.82s18.3,2.19,20.61,3.46l16.39-4.74s-19.53-4.36-29.14-4.54Z" style="fill: #fff; stroke: #591c87; stroke-miterlimit: 10; stroke-width: .61px;"/>
      <path d="m205.77,32.97l-21.97-1.05s2.04-4.28,0-7.13l23.26-.07s1.36,4.3-1.29,8.25Z" style="fill: #fff; stroke: #591c87; stroke-miterlimit: 10; stroke-width: .62px;"/>
      <path d="m154.75,44.9c-2.55,1.15-21.77,3.23-21.77,3.23l7.63,5.31v.28c16.32-.14,24.58-2.31,28.15-3.66l-14.01-5.15Z" style="fill: #fff; stroke: #591c87; stroke-miterlimit: 10; stroke-width: .61px;"/>
      <path d="m140.61,53.71v23.92s17.71-.83,28.54-3.82v-23.62l-.39-.14c-3.57,1.35-11.83,3.52-28.15,3.66Z" style="fill: #fff; stroke: #591c87; stroke-miterlimit: 10; stroke-width: .61px;"/>
      <path d="m66.73,53.09v24.54c-11.08-1.2-20.52-2.92-28.5-4.86v-23.31c7.8,1.49,17.2,2.75,28.5,3.62Z" style="fill: #fff; stroke: #591c87; stroke-miterlimit: 10; stroke-width: .61px;"/>
      <path d="m38.23,49.47h0s15.04-4.57,15.04-4.57c0,0,19.91,3.92,22,3.23,2.09-.69-8.54,4.97-8.54,4.97,0,0-23.06-2.49-28.5-3.63" style="fill: #fff; stroke: #591c87; stroke-miterlimit: 10; stroke-width: .61px;"/>
      <path d="m2.14,32.72l22.39-1.01s-2.08-4.15,0-6.92l-23.71-.07s-1.39,4.17,1.32,8Z" style="fill: #fff; stroke: #591c87; stroke-miterlimit: 10; stroke-width: .61px;"/>
      <path d="m103.8,10.8c-37.02,0-67.02,7.69-67.02,17.17s30.01,17.17,67.02,17.17,67.02-7.69,67.02-17.17-30.01-17.17-67.02-17.17Zm.37,33.17c-34.01,0-61.58-7.18-61.58-16.04s27.57-16.04,61.58-16.04,61.58,7.18,61.58,16.04-27.57,16.04-61.58,16.04Z" style="fill: #591c87; stroke-width: 0px;"/>
      <path d="m159.15,35.16c-1.64.84-3.55,1.64-5.71,2.39l.13,1.92c4.34-1.23,7.98-2.62,10.79-4.14l-5.21-.18Z" style="fill: #fff; stroke-width: 0px;"/>
      <path d="m165.75,28.03c0,1.12-.44,2.21-1.28,3.26l4.92.32c.93-1.14,1.43-2.32,1.43-3.54,0-.4-.06-.79-.16-1.19h-5.07c.1.38.16.76.16,1.14Z" style="fill: #fff; stroke-width: 0px;"/>
      <path d="m129.83,13.43c5.23.62,10.06,1.42,14.38,2.37l.21-1.43c-4.4-.85-9.21-1.57-14.36-2.12l-.23,1.18Z" style="fill: #fff; stroke-width: 0px;"/>
      <path d="m96.06,10.96v1.12c2.65-.09,5.36-.14,8.11-.14s5.65.05,8.39.15v-1.09c-2.87-.1-5.79-.15-8.76-.15-2.62,0-5.2.04-7.74.11Z" style="fill: #fff; stroke-width: 0px;"/>
      <path d="m158.07,17.98l-3.45.84c3.68,1.38,6.56,2.91,8.45,4.56l3.62-1.23c-2.13-1.5-5.05-2.9-8.62-4.16Z" style="fill: #fff; stroke-width: 0px;"/>
      <path d="m42.59,27.93c0-.46.08-.92.23-1.37h-5.82c-.15.47-.23.94-.23,1.41,0,1.29.56,2.54,1.61,3.75l5.55-.46c-.87-1.08-1.33-2.19-1.33-3.33Z" style="fill: #fff; stroke-width: 0px;"/>
      <path d="m54.67,37.48c-2.47-.87-4.61-1.8-6.37-2.79l-5.17.6c2.96,1.61,6.87,3.08,11.54,4.37v-2.18Z" style="fill: #fff; stroke-width: 0px;"/>
      <path d="m79.9,42.68c-4.37-.49-8.47-1.1-12.25-1.83l-1.92,1.26c4.41.78,9.2,1.43,14.28,1.92l-.11-1.36Z" style="fill: #fff; stroke-width: 0px;"/>
      <path d="m111.48,45.04v-1.18c-2.4.07-4.84.11-7.31.11s-4.8-.04-7.14-.11l-.05,1.2c2.24.06,4.51.09,6.81.09,2.6,0,5.16-.04,7.68-.11Z" style="fill: #fff; stroke-width: 0px;"/>
      <path d="m64.44,14.08l-.05,1.62c4.22-.93,8.94-1.72,14.03-2.33l-.9-1.19c-4.65.51-9.03,1.15-13.07,1.9Z" style="fill: #fff; stroke-width: 0px;"/>
      <path d="m42.29,21.14l3.19,1.93c1.75-1.44,4.26-2.78,7.4-4.01l-3.26-1.19c-2.89,1.01-5.35,2.11-7.32,3.28Z" style="fill: #fff; stroke-width: 0px;"/>
      <path d="m140.77,40.83c-3.77.73-7.87,1.34-12.23,1.83v1.27c4.77-.49,9.26-1.11,13.42-1.85l-1.2-1.26Z" style="fill: #fff; stroke-width: 0px;"/>
      <polygon points="88.99 53.37 116.35 53.09 116.35 46.15 88.99 46.15 88.99 53.37" style="fill: none; stroke: #fff; stroke-miterlimit: 10; stroke-width: .31px;"/>
      <ellipse cx="104.17" cy="49.92" rx="2.15" ry=".53" style="fill: #fff; stroke-width: 0px;"/>
      <polygon points="10.46 17.87 24.01 12.02 48.91 15.21 35.65 21.18 10.46 17.87" style="fill: none; stroke: #fff; stroke-miterlimit: 10; stroke-width: .31px;"/>
      <ellipse cx="27.59" cy="14.5" rx="1.94" ry=".57" style="fill: #fff; stroke-width: 0px;"/>
      <ellipse cx="21.33" cy="17.51" rx="1.94" ry=".57" style="fill: #fff; stroke-width: 0px;"/>
      <ellipse cx="32.44" cy="19.04" rx="1.94" ry=".57" style="fill: #fff; stroke-width: 0px;"/>
      <ellipse cx="38.72" cy="16.23" rx="1.94" ry=".57" style="fill: #fff; stroke-width: 0px;"/>
      <polygon points="174.05 21.25 197.62 17.98 184.59 11.9 158.91 14.97 174.05 21.25" style="fill: none; stroke: #fff; stroke-miterlimit: 10; stroke-width: .31px;"/>
      <ellipse cx="169.75" cy="16.24" rx="2.11" ry=".67" style="fill: #fff; stroke-width: 0px;"/>
      <ellipse cx="187.1" cy="17.49" rx="2.11" ry=".67" style="fill: #fff; stroke-width: 0px;"/>
      <polygon points="172.61 33.68 196.92 37.32 183.81 43.36 159.41 39.84 172.61 33.68" style="fill: none; stroke: #fff; stroke-miterlimit: 10; stroke-width: .31px;"/>
      <ellipse cx="176.02" cy="36.56" rx="2.15" ry=".65" style="fill: #fff; stroke-width: 0px;"/>
      <ellipse cx="178.34" cy="38.95" rx="2.15" ry=".65" style="fill: #fff; stroke-width: 0px;"/>
      <ellipse cx="180.7" cy="41.18" rx="2.15" ry=".65" style="fill: #fff; stroke-width: 0px;"/>
      <path d="m206.2,33.84s2.98-4.18,1.31,22.48c0,0,2.51-23.67.01-30.27,0,0-.54,6.72-1.32,7.79Z" style="fill: #fff; stroke: #591c87; stroke-miterlimit: 10; stroke-width: .6px;"/>
      <g>
        <path d="m71,29.77h5.98c-.19.77-.06,1.36.39,1.78.45.43,1.19.64,2.2.64s1.84-.25,2.48-.74c.64-.49,1.05-1.17,1.22-2.05.19-.96.05-1.67-.42-2.14-.46-.46-1.25-.69-2.36-.69-.53,0-1.06.06-1.59.18-.53.12-1.08.3-1.63.54h-4.86l2.44-7.84h14.14l-.35,2.14h-9.87l-.98,3.7c.88-.29,1.69-.5,2.43-.64.74-.14,1.45-.21,2.12-.21,2.3,0,4.05.43,5.25,1.3,1.22.88,1.73,2.09,1.5,3.66-.25,1.7-1.2,3.01-2.89,3.9-1.71.91-4.14,1.36-7.27,1.36s-5.35-.42-6.65-1.24c-1.27-.81-1.7-2.04-1.3-3.66Zm1.17-1.69h5.49c.41-.25.83-.43,1.26-.55.43-.12.9-.17,1.4-.17.82,0,1.39.15,1.72.44.33.3.43.76.29,1.39l-.02.11c-.26-.09-.54-.16-.82-.2s-.59-.07-.92-.07c-.29,0-.58.03-.86.08-.28.05-.56.13-.83.25l-.5-.39h-5.35l-.85-.89Zm16.39-2.66l2.13,1.78c.44.35.75.77.92,1.25.17.49.22,1.07.14,1.75-.24,2.04-1.43,3.77-3.59,5.17-2.21,1.43-4.95,2.16-8.15,2.16-1.52,0-2.85-.17-3.98-.5-1.13-.33-2.06-.82-2.79-1.47l-1.52-1.31c.77.46,1.69.8,2.78,1,1.09.21,2.59.31,4.48.31,3.36,0,6.01-.55,7.91-1.64,1.86-1.07,2.91-2.6,3.18-4.56.11-.81.03-1.53-.22-2.18-.25-.64-.68-1.23-1.28-1.75Zm-9.65-1.15l.51-1.98h9.93l.44-2.84,1.53,1.38-.41,3.01h-8.44c-.72,0-1.36.04-1.91.11s-1.1.18-1.64.33Zm-1.03,5.49l1.71,1.49h-.27c-.57,0-.98-.13-1.23-.39-.25-.26-.32-.62-.2-1.1Z" style="fill: #fff; stroke-width: 0px;"/>
        <path d="m111.55,26.29c.21,2.93-.33,5.09-1.64,6.37-1.35,1.31-3.81,1.98-7.37,1.98s-6.01-.67-7.31-1.97c-1.27-1.28-1.73-3.44-1.43-6.38.29-2.78,1.11-4.64,2.45-5.68s3.49-1.51,6.54-1.51,5.2.5,6.49,1.52c1.31,1.04,2.07,2.9,2.27,5.67Zm-2.12-6.45l2.17,1.5c.92.64,1.61,1.4,2.05,2.28.45.9.76,2.14.92,3.74.32,3.2-.36,5.73-2.09,7.5-1.79,1.82-4.64,2.76-8.5,2.76-1.12,0-2.12-.12-3.01-.35s-1.62-.56-2.19-1l-2.36-1.8c.59.38,1.36.66,2.3.82.94.17,2.26.25,3.97.25,3.79,0,6.45-.76,7.96-2.24,1.47-1.44,2.06-3.78,1.81-6.89-.14-1.72-.44-3.06-.92-4.07-.47-.99-1.16-1.82-2.09-2.51Zm-10.07,6.47c-.1,2.15.08,3.68.57,4.53.49.87,1.38,1.31,2.65,1.31s2.17-.45,2.7-1.33c.51-.87.75-2.39.72-4.51s-.3-3.42-.79-4.16c-.49-.72-1.3-1.08-2.44-1.08s-1.97.36-2.48,1.07-.82,2.1-.92,4.17Zm3.04,5.05c-.89-.11-1.5-.51-1.83-1.2-.33-.68-.46-1.87-.39-3.52.08-2.06.31-3.37.69-3.99.37-.61,1-.91,1.89-.91.62,0,1.13.18,1.53.53.4.36.63.85.7,1.48-.32-.17-.59-.3-.82-.38-.23-.08-.45-.12-.65-.12-.52,0-.88.15-1.08.46-.2.31-.32,1.07-.34,2.31v.41c-.02.64,0,1.35.05,2.15.05.81.14,1.73.27,2.78Z" style="fill: #fff; stroke-width: 0px;"/>
        <path d="m133.64,26.29c.84,2.93.78,5.09-.26,6.37-1.06,1.31-3.38,1.98-6.94,1.98s-6.16-.67-7.74-1.97c-1.55-1.28-2.48-3.44-2.81-6.38-.32-2.78.1-4.64,1.21-5.68s3.16-1.51,6.21-1.51,5.31.5,6.82,1.52c1.54,1.04,2.7,2.9,3.5,5.67Zm-3.52-6.45l2.5,1.5c1.06.64,1.91,1.4,2.55,2.28.65.9,1.22,2.14,1.73,3.74,1.01,3.2.89,5.73-.46,7.5-1.39,1.82-4.04,2.76-7.91,2.76-1.12,0-2.15-.12-3.09-.35-.93-.23-1.74-.56-2.41-1l-2.75-1.8c.68.38,1.5.66,2.48.82.98.17,2.32.25,4.03.25,3.79,0,6.28-.76,7.47-2.24,1.15-1.44,1.24-3.78.31-6.89-.51-1.72-1.11-3.06-1.81-4.07-.68-.99-1.56-1.82-2.64-2.51Zm-8.67,6.47c.36,2.15.88,3.68,1.55,4.53.68.87,1.67,1.31,2.94,1.31s2.08-.45,2.41-1.33c.33-.87.23-2.39-.27-4.51s-1.04-3.42-1.7-4.16c-.64-.72-1.53-1.08-2.67-1.08s-1.9.36-2.25,1.07-.36,2.1-.02,4.17Zm4.13,5.05c-.91-.11-1.61-.51-2.1-1.2-.48-.68-.86-1.87-1.15-3.52-.36-2.06-.42-3.37-.18-3.99.24-.61.8-.91,1.69-.91.62,0,1.17.18,1.64.53.48.36.81.85,1.02,1.48-.35-.17-.65-.3-.9-.38-.25-.08-.47-.12-.67-.12-.52,0-.85.15-.98.46-.13.31-.08,1.07.16,2.31l.08.41c.12.64.3,1.35.52,2.15.23.81.52,1.73.87,2.78Z" style="fill: #fff; stroke-width: 0px;"/>
      </g>
    </g>
  </g>
</svg>