<?xml version="1.0" encoding="UTF-8"?>
<svg id="_图层_2" data-name="图层 2" xmlns="http://www.w3.org/2000/svg" viewBox="0 0 210.38 79.93">
  <g id="_图层_7" data-name="图层 7">
    <g>
      <g>
        <ellipse cx="104.67" cy="27.8" rx="104.37" ry="27.55" style="fill: #744b9b; stroke: #591c87; stroke-miterlimit: 10; stroke-width: .51px;"/>
        <path d="m104.57,9.57c-36.85,0-66.72,8.05-66.72,17.98s29.87,17.98,66.72,17.98,66.72-8.05,66.72-17.98-29.87-17.98-66.72-17.98Zm.32,33.95c-33.7,0-61.02-7.04-61.02-15.73s27.32-15.73,61.02-15.73,61.02,7.04,61.02,15.73-27.32,15.73-61.02,15.73Z" style="fill: #591c87; stroke-width: 0px;"/>
        <path d="m133.67,41.66c-3.74.52-7.72.94-11.88,1.25l-.3,2.04c5.15-.36,10.06-.89,14.64-1.55-.75-.53-1.66-1.17-2.46-1.74Z" style="fill: #fff; stroke-width: 0px;"/>
        <path d="m157.48,35.77c-2.44,1.07-5.36,2.05-8.67,2.94l.16,2.27c5.09-1.22,9.47-2.65,12.98-4.24l-4.46-.97Z" style="fill: #fff; stroke-width: 0px;"/>
        <path d="m43.87,27.79c0-1.24.55-2.44,1.6-3.59l-6.23-.31c-.91,1.18-1.39,2.41-1.39,3.67,0,.49.08.98.22,1.47h5.98c-.12-.41-.18-.81-.18-1.23Z" style="fill: #fff; stroke-width: 0px;"/>
        <path d="m165.88,28.28c-.21,1.79-1.58,3.5-3.92,5.08l5.48.22c2.2-1.67,3.52-3.45,3.8-5.3h-5.36Z" style="fill: #fff; stroke-width: 0px;"/>
        <path d="m163.66,19.19l-5.07,1.12c2.81,1.34,4.89,2.79,6.1,4.33l5.34-.59c-1.26-1.72-3.43-3.35-6.37-4.86Z" style="fill: #fff; stroke-width: 0px;"/>
        <path d="m136.96,14.4c5.3.85,10.06,1.89,14.12,3.11l-.17-2.9c-3.48-.91-7.32-1.71-11.46-2.4l-2.48,2.19Z" style="fill: #fff; stroke-width: 0px;"/>
        <path d="m104.67,12.06c.07,0,.14,0,.22,0,5.75,0,11.31.21,16.58.59l-.7-2.54c-4.67-.31-9.52-.5-14.52-.53l-1.57,2.49Z" style="fill: #fff; stroke-width: 0px;"/>
        <path d="m47.14,18.39l2.64,2.63c2.7-1.46,6.24-2.79,10.46-3.96l-3.82-1.96c-3.54.99-6.65,2.1-9.28,3.29Z" style="fill: #fff; stroke-width: 0px;"/>
        <path d="m72.24,11.82l-.31,2.73c4.79-.79,10.03-1.42,15.61-1.84l-1.53-2.43c-4.84.38-9.46.9-13.78,1.54Z" style="fill: #fff; stroke-width: 0px;"/>
        <path d="m103.77,43.52c-4.48-.02-8.85-.17-13.04-.42l-1.74,1.95c4.93.32,10.08.49,15.37.49l-.58-2.02Z" style="fill: #fff; stroke-width: 0px;"/>
        <path d="m72.99,41.2c-3.69-.59-7.13-1.27-10.25-2.04l-3.17,1.66c4.23,1.04,8.96,1.94,14.09,2.66l-.66-2.29Z" style="fill: #fff; stroke-width: 0px;"/>
        <path d="m49.4,37.66l2.94-1.88c-2.39-1.04-4.34-2.16-5.75-3.35l-5.5.65c1.97,1.64,4.78,3.18,8.31,4.57Z" style="fill: #fff; stroke-width: 0px;"/>
        <path d="m62.01,9.57l23.45-2.32-5.18-6.23c-10.95.69-21.23,1.84-30.53,3.36l12.26,5.2Z" style="fill: #fff; stroke: #591c87; stroke-miterlimit: 10; stroke-width: .51px;"/>
        <path d="m154.57,3.6l-10.55,5.96s13,1.39,18.89,3.88l17.8-4.51c-7.56-2.12-16.37-3.93-26.14-5.33Z" style="fill: #fff; stroke: #591c87; stroke-miterlimit: 10; stroke-width: .51px;"/>
        <path d="m182.63,33.59l22.04,2.12c2.84-2.5,4.37-5.16,4.37-7.91,0-.08,0-.15-.01-.22l-24.01.22s.29,3.31-2.39,5.78Z" style="fill: #fff; stroke: #591c87; stroke-miterlimit: 10; stroke-width: .51px;"/>
        <path d="m146.99,46.27c-12.92,2.93-23.26,2.42-23.26,2.42l4.82,5.94c10.56-.65,20.5-1.73,29.56-3.16l-11.12-5.2Z" style="fill: #fff; stroke: #591c87; stroke-miterlimit: 10; stroke-width: .51px;"/>
        <path d="m31.18,47.12c7.39,1.95,15.89,3.6,25.22,4.9l9.68-5.4c-9.26-.29-19.16-3.71-19.16-3.71l-15.74,4.21Z" style="fill: #fff; stroke: #591c87; stroke-miterlimit: 10; stroke-width: .51px;"/>
        <path d="m.31,27.8c0,.2.01.39.03.59l24.31-.17s.24-3.86,3.3-5.91l-23.98-1.76c-2.38,2.31-3.66,4.74-3.66,7.25Z" style="fill: #fff; stroke: #591c87; stroke-miterlimit: 10; stroke-width: .51px;"/>
        <path d="m.31,28.42s2.16,26.64,107.85,26.47c105.7-.17,100.48-29.87,100.48-29.87,0,0,3.23,16.38-.01,30.38,0,0-5.56,21.14-99.54,24.22,0,0-88.75.38-108.02-23.7L.31,28.42Z" style="fill: #fff; opacity: .5; stroke: #231815; stroke-miterlimit: 10; stroke-width: .61px;"/>
        <path d="m.31,28.42s2.16,26.64,107.85,26.47c105.7-.17,100.48-29.87,100.48-29.87,0,0,3.23,16.38-.01,30.38,0,0-5.56,21.14-99.54,24.22,0,0-88.75.38-108.02-23.7L.31,28.42Z" style="fill: #744b9b; stroke: #591c87; stroke-miterlimit: 10; stroke-width: .61px;"/>
        <path d="m55.83,52.14c-10.08-1.33-18.23-3.05-24.82-4.96-.22,1.93-.07,17.04.01,23.64,7.77,2.24,16.33,3.91,24.81,5.16v-23.83Z" style="fill: #fff; stroke: #591c87; stroke-miterlimit: 10; stroke-width: .6px;"/>
        <polygon points="81.24 46.27 109.82 47.18 107.3 53.96 77.22 53.23 81.24 46.27" style="fill: none; stroke: #fff; stroke-miterlimit: 10; stroke-width: .16px;"/>
        <ellipse cx="101.03" cy="48.43" rx="1.61" ry=".49" style="fill: #fff; stroke-width: 0px;"/>
        <ellipse cx="99.31" cy="51.8" rx="1.61" ry=".49" style="fill: #fff; stroke-width: 0px;"/>
        <ellipse cx="93.92" cy="49.89" rx="1.61" ry=".49" style="fill: #fff; stroke-width: 0px;"/>
        <ellipse cx="88.22" cy="47.94" rx="1.61" ry=".49" style="fill: #fff; stroke-width: 0px;"/>
        <ellipse cx="86.62" cy="51.32" rx="1.61" ry=".49" style="fill: #fff; stroke-width: 0px;"/>
        <ellipse cx="29.55" cy="34.07" rx="1.61" ry=".49" style="fill: #fff; stroke-width: 0px;"/>
        <ellipse cx="34.24" cy="37.04" rx="1.61" ry=".49" style="fill: #fff; stroke-width: 0px;"/>
        <ellipse cx="22.61" cy="38.35" rx="1.61" ry=".49" style="fill: #fff; stroke-width: 0px;"/>
        <ellipse cx="17.68" cy="35.07" rx="1.61" ry=".49" style="fill: #fff; stroke-width: 0px;"/>
        <polygon points="9.4 34.07 19.29 40.93 45.01 38.35 34.76 31.21 9.4 34.07" style="fill: none; stroke: #fff; stroke-miterlimit: 10; stroke-width: .16px;"/>
        <ellipse cx="38.27" cy="16.12" rx="1.61" ry=".49" style="fill: #fff; stroke-width: 0px;"/>
        <ellipse cx="33.1" cy="15.1" rx="1.61" ry=".49" style="fill: #fff; stroke-width: 0px;"/>
        <ellipse cx="28.14" cy="14.13" rx="1.61" ry=".49" style="fill: #fff; stroke-width: 0px;"/>
        <ellipse cx="35.85" cy="11.47" rx="1.61" ry=".49" style="fill: #fff; stroke-width: 0px;"/>
        <ellipse cx="40.89" cy="12.44" rx="1.61" ry=".49" style="fill: #fff; stroke-width: 0px;"/>
        <ellipse cx="45.98" cy="13.41" rx="1.61" ry=".49" style="fill: #fff; stroke-width: 0px;"/>
        <polygon points="18.1 13.89 39.88 18.39 55.62 12.68 33.6 8.72 18.1 13.89" style="fill: none; stroke: #fff; stroke-miterlimit: 10; stroke-width: .16px;"/>
        <path d="m102.96,1.01l-3.54,6.98,27.04,1.03s3.35-6.98,3.35-7.08-26.85-.92-26.85-.92Z" style="fill: none; stroke: #fff; stroke-miterlimit: 10; stroke-width: .16px;"/>
        <ellipse cx="108.65" cy="6.6" rx="1.61" ry=".49" style="fill: #fff; stroke-width: 0px;"/>
        <ellipse cx="123.07" cy="3.68" rx="1.61" ry=".49" style="fill: #fff; stroke-width: 0px;"/>
        <ellipse cx="175.28" cy="17.99" rx="1.61" ry=".49" style="fill: #fff; stroke-width: 0px;"/>
        <ellipse cx="183.6" cy="18.68" rx="1.61" ry=".49" style="fill: #fff; stroke-width: 0px;"/>
        <ellipse cx="191.94" cy="19.68" rx="1.61" ry=".49" style="fill: #fff; stroke-width: 0px;"/>
        <polygon points="166.59 16.49 191.36 13.85 202.49 20.16 176.88 23.38 166.59 16.49" style="fill: none; stroke: #fff; stroke-miterlimit: 10; stroke-width: .16px;"/>
        <polygon points="153.14 41.57 169.65 35.77 191.67 40.15 175.4 45.77 153.14 41.57" style="fill: none; stroke: #fff; stroke-miterlimit: 10; stroke-width: .16px;"/>
        <ellipse cx="172.4" cy="41.25" rx="1.61" ry=".49" style="fill: #fff; stroke-width: 0px;"/>
        <path d="m128.81,78.61c11.33-.8,21.02-1.92,29.3-3.22v-23.67c-8.28,1.23-17.97,2.17-29.3,2.69v24.19Z" style="fill: #fff; stroke: #591c87; stroke-miterlimit: 10; stroke-width: .61px;"/>
        <path d="m208.45,27.63c-.41,1.84-1.5,4.49-4.32,7.43.6,3.23,1.68,11.59.3,25.37,3.64-2.94,4.18-5.02,4.18-5.02.06-.25.11-.5.16-.74.13-7,.28-20.29-.33-27.04Z" style="fill: #fff; stroke: #591c87; stroke-miterlimit: 10; stroke-width: .61px;"/>
      </g>
      <g>
        <path d="m73.19,28.96h5.98c-.19.77-.06,1.36.39,1.78.45.43,1.19.64,2.2.64s1.84-.25,2.48-.74c.64-.49,1.05-1.17,1.22-2.05.19-.96.05-1.67-.42-2.14-.46-.46-1.25-.69-2.36-.69-.53,0-1.06.06-1.59.18-.53.12-1.08.3-1.63.54h-4.86l2.44-7.84h14.14l-.35,2.14h-9.87l-.98,3.7c.88-.29,1.69-.5,2.43-.64.74-.14,1.45-.21,2.12-.21,2.3,0,4.05.43,5.25,1.3,1.22.88,1.73,2.09,1.5,3.66-.25,1.7-1.2,3.01-2.89,3.9-1.71.91-4.14,1.36-7.27,1.36s-5.35-.42-6.65-1.24-1.7-2.04-1.3-3.66Zm1.17-1.69h5.49c.41-.25.83-.43,1.26-.55.43-.12.9-.17,1.4-.17.82,0,1.39.15,1.72.44.33.3.43.76.29,1.39l-.02.11c-.26-.09-.54-.16-.82-.2s-.59-.07-.92-.07c-.29,0-.58.03-.86.08-.28.05-.56.13-.83.25l-.5-.39h-5.35l-.85-.89Zm16.39-2.66l2.13,1.78c.44.35.75.77.92,1.25.17.49.22,1.07.14,1.75-.24,2.04-1.43,3.77-3.59,5.17-2.21,1.43-4.95,2.16-8.15,2.16-1.52,0-2.85-.17-3.98-.5-1.13-.33-2.06-.82-2.79-1.47l-1.52-1.31c.77.46,1.69.8,2.78,1,1.09.21,2.59.31,4.48.31,3.36,0,6.01-.55,7.91-1.64,1.86-1.07,2.91-2.6,3.18-4.56.11-.81.03-1.53-.22-2.18-.25-.64-.68-1.23-1.28-1.75Zm-9.65-1.15l.51-1.98h9.93l.44-2.84,1.53,1.38-.41,3.01h-8.44c-.72,0-1.36.04-1.91.11s-1.1.18-1.64.33Zm-1.03,5.49l1.71,1.49h-.27c-.57,0-.98-.13-1.23-.39-.25-.26-.32-.62-.2-1.1Z" style="fill: #fff; stroke-width: 0px;"/>
        <path d="m113.74,25.48c.21,2.93-.33,5.09-1.64,6.37-1.35,1.31-3.81,1.98-7.37,1.98s-6.01-.67-7.31-1.97c-1.27-1.28-1.73-3.44-1.43-6.38.29-2.78,1.11-4.64,2.45-5.68s3.49-1.51,6.54-1.51,5.2.5,6.49,1.52c1.31,1.04,2.07,2.9,2.27,5.67Zm-2.12-6.45l2.17,1.5c.92.64,1.61,1.4,2.05,2.28.45.9.76,2.14.92,3.74.32,3.2-.36,5.73-2.09,7.5-1.79,1.82-4.64,2.76-8.5,2.76-1.12,0-2.12-.12-3.01-.35s-1.62-.56-2.19-1l-2.36-1.8c.59.38,1.36.66,2.3.82.94.17,2.26.25,3.97.25,3.79,0,6.45-.76,7.96-2.24,1.47-1.44,2.06-3.78,1.81-6.89-.14-1.72-.44-3.06-.92-4.07-.47-.99-1.16-1.82-2.09-2.51Zm-10.07,6.47c-.1,2.15.08,3.68.57,4.53.49.87,1.38,1.31,2.65,1.31s2.17-.45,2.7-1.33c.51-.87.75-2.39.72-4.51s-.3-3.42-.79-4.16c-.49-.72-1.3-1.08-2.44-1.08s-1.97.36-2.48,1.07-.82,2.1-.92,4.17Zm3.04,5.05c-.89-.11-1.5-.51-1.83-1.2-.33-.68-.46-1.87-.39-3.52.08-2.06.31-3.37.69-3.99.37-.61,1-.91,1.89-.91.62,0,1.13.18,1.53.53.4.36.63.85.7,1.48-.32-.17-.59-.3-.82-.38-.23-.08-.45-.12-.65-.12-.52,0-.88.15-1.08.46-.2.31-.32,1.07-.34,2.31v.41c-.02.64,0,1.35.05,2.15.05.81.14,1.73.27,2.78Z" style="fill: #fff; stroke-width: 0px;"/>
        <path d="m135.84,25.48c.84,2.93.78,5.09-.26,6.37-1.06,1.31-3.38,1.98-6.94,1.98s-6.16-.67-7.74-1.97c-1.55-1.28-2.48-3.44-2.81-6.38-.32-2.78.1-4.64,1.21-5.68s3.16-1.51,6.21-1.51,5.31.5,6.82,1.52c1.54,1.04,2.7,2.9,3.5,5.67Zm-3.52-6.45l2.5,1.5c1.06.64,1.91,1.4,2.55,2.28.65.9,1.22,2.14,1.73,3.74,1.01,3.2.89,5.73-.46,7.5-1.39,1.82-4.04,2.76-7.91,2.76-1.12,0-2.15-.12-3.09-.35s-1.74-.56-2.41-1l-2.75-1.8c.68.38,1.5.66,2.48.82.98.17,2.32.25,4.03.25,3.79,0,6.28-.76,7.47-2.24,1.15-1.44,1.24-3.78.31-6.89-.51-1.72-1.11-3.06-1.81-4.07-.68-.99-1.56-1.82-2.64-2.51Zm-8.67,6.47c.36,2.15.88,3.68,1.55,4.53.68.87,1.67,1.31,2.94,1.31s2.08-.45,2.41-1.33c.33-.87.23-2.39-.27-4.51s-1.04-3.42-1.7-4.16c-.64-.72-1.53-1.08-2.67-1.08s-1.9.36-2.25,1.07-.36,2.1-.02,4.17Zm4.13,5.05c-.91-.11-1.61-.51-2.1-1.2-.48-.68-.86-1.87-1.15-3.52-.36-2.06-.42-3.37-.18-3.99.24-.61.8-.91,1.69-.91.62,0,1.17.18,1.64.53.48.36.81.85,1.02,1.48-.35-.17-.65-.3-.9-.38-.25-.08-.47-.12-.67-.12-.52,0-.85.15-.98.46-.13.31-.08,1.07.16,2.31l.08.41c.12.64.3,1.35.52,2.15.23.81.52,1.73.87,2.78Z" style="fill: #fff; stroke-width: 0px;"/>
      </g>
    </g>
  </g>
</svg>