<?xml version="1.0" encoding="UTF-8"?>
<svg id="_图层_2" data-name="图层 2" xmlns="http://www.w3.org/2000/svg" viewBox="0 0 210.38 79.98">
  <g id="_图层_7" data-name="图层 7">
    <g>
      <g>
        <ellipse cx="104.67" cy="28.13" rx="104.37" ry="27.82" style="fill: #744b9b; stroke: #52207e; stroke-miterlimit: 10; stroke-width: .62px;"/>
        <path d="m104.46,9.8c-36.85,0-66.72,7.99-66.72,17.85s29.87,17.85,66.72,17.85,66.72-7.99,66.72-17.85-29.87-17.85-66.72-17.85Zm.32,33.7c-33.7,0-61.02-6.99-61.02-15.62s27.32-15.62,61.02-15.62,61.02,6.99,61.02,15.62-27.32,15.62-61.02,15.62Z" style="fill: #52207e; stroke-width: 0px;"/>
        <path d="m45.57,36.05l3.36-1.86c-1.86-1.08-3.26-2.22-4.13-3.42l-5.89.22c1.27,1.8,3.54,3.5,6.67,5.06Z" style="fill: #fff; stroke-width: 0px;"/>
        <path d="m66.71,40.09c-3.34-.68-6.39-1.45-9.11-2.3l-4.07,1.39c3.84,1.21,8.27,2.29,13.18,3.19v-2.28Z" style="fill: #fff; stroke-width: 0px;"/>
        <path d="m95.24,43.31c-4.33-.17-8.5-.46-12.48-.86l-1.8,1.91c4.86.49,10,.83,15.33,1.01l-1.05-2.06Z" style="fill: #fff; stroke-width: 0px;"/>
        <path d="m126.39,42.49c-3.96.38-8.11.67-12.4.83l-.92,2.03c5.27-.18,10.35-.53,15.17-1.02l-1.84-1.84Z" style="fill: #fff; stroke-width: 0px;"/>
        <path d="m151.47,37.94c-2.64.8-5.58,1.54-8.79,2.19v2.16c4.64-.87,8.84-1.89,12.51-3.04l-3.71-1.31Z" style="fill: #fff; stroke-width: 0px;"/>
        <path d="m164.67,30.87c.73-.97,1.12-1.97,1.12-2.99,0-8.62-27.32-15.62-61.02-15.62s-61.02,6.99-61.02,15.62,27.32,15.62,61.02,15.62c25.16,0,46.75-3.9,56.09-9.46,1.69-1.01,2.98-2.07,3.81-3.17Z" style="fill: none; stroke-width: 0px;"/>
        <path d="m160.86,34.04l2.32,2.09c3.27-1.62,5.63-3.39,6.91-5.26h-5.42c-.83,1.1-2.12,2.16-3.81,3.17Z" style="fill: #fff; stroke-width: 0px;"/>
        <path d="m167.94,22.15l-6.12.19c2.38,1.6,3.77,3.33,3.95,5.14l5.39-.25c-.15-1.77-1.27-3.48-3.22-5.09Z" style="fill: #fff; stroke-width: 0px;"/>
        <path d="m37.74,27.51l6.05-.17c.23-1.71,1.52-3.34,3.72-4.86l-6.3-.53c-2.2,1.75-3.42,3.62-3.48,5.56Z" style="fill: #fff; stroke-width: 0px;"/>
        <path d="m52.79,16.36l.31,3.22c3.5-1.42,7.87-2.69,12.93-3.76l-3.84-1.98c-3.43.75-6.58,1.6-9.4,2.52Z" style="fill: #fff; stroke-width: 0px;"/>
        <path d="m81.05,10.93l-.96,2.67c4.95-.56,10.24-.96,15.77-1.17l-1.35-2.44c-4.66.19-9.17.5-13.46.93Z" style="fill: #fff; stroke-width: 0px;"/>
        <path d="m113.96,12.45c5.57.22,10.9.62,15.87,1.2l-.46-2.56c-4.42-.48-9.07-.83-13.9-1.04-.42.67-.99,1.58-1.5,2.41Z" style="fill: #fff; stroke-width: 0px;"/>
        <path d="m143.92,15.91c5.01,1.07,9.33,2.35,12.78,3.77l.53-2.96c-2.89-1-6.16-1.91-9.76-2.72l-3.55,1.91Z" style="fill: #fff; stroke-width: 0px;"/>
        <path d="m116.14.31l-2.72,6.98s22.44.87,24.84,1.75l11.12-6.33c-10.28-1.26-21.47-2.09-33.23-2.4Z" style="fill: #fff; stroke: #591c87; stroke-miterlimit: 10; stroke-width: .51px;"/>
        <path d="m40.54,15.82s12.3-4.31,16.18-4.31l-13.89-5.7c-8.57,1.69-16.11,3.72-22.36,6.01l20.07,4.01Z" style="fill: #fff; stroke: #591c87; stroke-miterlimit: 10; stroke-width: .51px;"/>
        <path d="m208.53,25.48c-.87-2.68-3.19-5.26-6.76-7.66l-23.6,2.34s6.03,3.56,5.82,5.74l24.55-.42Z" style="fill: #fff; stroke: #591c87; stroke-miterlimit: 10; stroke-width: .51px;"/>
        <path d="m170.34,41.16s-6.47,3.2-17.74,4.62l12.67,5.15c8.83-1.67,16.69-3.68,23.32-5.96l-18.25-3.8Z" style="fill: #fff; stroke: #591c87; stroke-miterlimit: 10; stroke-width: .54px;"/>
        <path d="m72.11,48.05l-9.13,4.95c9.71,1.13,20.2,1.89,31.2,2.18l2.11-5.54c-11,.36-24.18-1.6-24.18-1.6Z" style="fill: #fff; stroke: #52207e; stroke-miterlimit: 10; stroke-width: .51px;"/>
        <path d="m1.88,31.57c1.37,2.66,4.17,5.21,8.21,7.57l20.24-2.68-5.36-5.48-23.09.59Z" style="fill: #fff; stroke: #591c87; stroke-miterlimit: 10; stroke-width: .51px;"/>
        <path d="m.31,28.63s2.16,26.56,107.85,26.39,100.48-29.78,100.48-29.78c0,0,3.23,16.33-.01,30.29,0,0-5.56,21.08-99.54,24.15,0,0-88.75.38-108.02-23.63L.31,28.63Z" style="fill: #744b9b; stroke: #591c87; stroke-miterlimit: 10; stroke-width: .61px;"/>
        <ellipse cx="191.57" cy="35.65" rx="1.61" ry=".48" style="fill: #fff; stroke-width: 0px;"/>
        <ellipse cx="187.09" cy="33.7" rx="1.61" ry=".48" style="fill: #fff; stroke-width: 0px;"/>
        <ellipse cx="182.66" cy="31.62" rx="1.61" ry=".48" style="fill: #fff; stroke-width: 0px;"/>
        <ellipse cx="126.42" cy="49.42" rx="1.61" ry=".48" style="fill: #fff; stroke-width: 0px;"/>
        <ellipse cx="44.15" cy="43.62" rx="1.61" ry=".48" style="fill: #fff; stroke-width: 0px;"/>
        <ellipse cx="44.25" cy="41.29" rx="1.61" ry=".48" style="fill: #fff; stroke-width: 0px;"/>
        <ellipse cx="53.19" cy="43.62" rx="1.61" ry=".48" style="fill: #fff; stroke-width: 0px;"/>
        <ellipse cx="44.15" cy="45.95" rx="1.61" ry=".48" style="fill: #fff; stroke-width: 0px;"/>
        <ellipse cx="35.21" cy="43.5" rx="1.61" ry=".48" style="fill: #fff; stroke-width: 0px;"/>
        <ellipse cx="26.82" cy="24" rx="1.61" ry=".48" style="fill: #fff; stroke-width: 0px;"/>
        <ellipse cx="30.03" cy="20.72" rx="1.61" ry=".48" style="fill: #fff; stroke-width: 0px;"/>
        <ellipse cx="17.8" cy="19.91" rx="1.61" ry=".48" style="fill: #fff; stroke-width: 0px;"/>
        <ellipse cx="14.58" cy="23.2" rx="1.61" ry=".48" style="fill: #fff; stroke-width: 0px;"/>
        <ellipse cx="75.04" cy="4.98" rx="1.61" ry=".48" style="fill: #fff; stroke-width: 0px;"/>
        <ellipse cx="76.9" cy="6.65" rx="1.61" ry=".48" style="fill: #fff; stroke-width: 0px;"/>
        <ellipse cx="78.39" cy="8.2" rx="1.61" ry=".48" style="fill: #fff; stroke-width: 0px;"/>
        <ellipse cx="87.31" cy="4.2" rx="1.61" ry=".48" style="fill: #fff; stroke-width: 0px;"/>
        <ellipse cx="89.15" cy="5.8" rx="1.61" ry=".48" style="fill: #fff; stroke-width: 0px;"/>
        <ellipse cx="90.75" cy="7.4" rx="1.61" ry=".48" style="fill: #fff; stroke-width: 0px;"/>
        <ellipse cx="174.28" cy="12.02" rx="1.61" ry=".48" style="fill: #fff; stroke-width: 0px;"/>
        <ellipse cx="156.2" cy="12.02" rx="1.61" ry=".48" style="fill: #fff; stroke-width: 0px;"/>
        <polygon points="74.32 10.3 100.84 8.68 93.66 1.62 66.02 3.51 74.32 10.3" style="fill: none; stroke: #fff; stroke-miterlimit: 10; stroke-width: .31px;"/>
        <polygon points="11.69 17.37 4.37 24.48 31.01 26.03 37.5 19.12 11.69 17.37" style="fill: none; stroke: #fff; stroke-miterlimit: 10; stroke-width: .31px;"/>
        <polygon points="23.98 43.5 44.15 38.46 62.98 43.02 44.25 48.35 23.98 43.5" style="fill: none; stroke: #fff; stroke-miterlimit: 10; stroke-width: .31px;"/>
        <polygon points="111.55 46.46 117.79 53.22 144.28 51.62 137.61 45.01 111.55 46.46" style="fill: none; stroke: #fff; stroke-miterlimit: 10; stroke-width: .31px;"/>
        <polygon points="169.78 35.65 196 37.94 202.46 30.87 176.62 29.23 169.78 35.65" style="fill: none; stroke: #fff; stroke-miterlimit: 10; stroke-width: .31px;"/>
        <polygon points="165.1 16.85 184.09 11.54 166.07 6.87 146.4 11.54 165.1 16.85" style="fill: none; stroke: #fff; stroke-miterlimit: 10; stroke-width: .31px;"/>
        <path d="m62.98,76.81c11.54,1.43,22.57,2.15,30.88,2.51v-24.45c-11.76-.28-21.99-.96-30.88-1.91v23.86Z" style="fill: #fff; stroke: #591c87; stroke-miterlimit: 10; stroke-width: .6px;"/>
        <path d="m165.48,74.4c9.72-1.76,17.26-3.77,23.11-5.81l-.23-23.8c-5.82,2.26-13.29,4.36-22.89,6.06v23.56Z" style="fill: #fff; stroke: #591c87; stroke-miterlimit: 10; stroke-width: .61px;"/>
        <path d="m10.07,39.44c-4.55-2.78-6.99-5.42-8.29-7.39-1.04,5.5-.02,24.68-.01,24.83,2.01,2.27,4.66,4.31,7.79,6.14-.52-10.81.35-21.71.5-23.58Z" style="fill: #fff; stroke: #52207e; stroke-miterlimit: 10; stroke-width: .61px;"/>
      </g>
      <g>
        <path d="m73.69,29.3h5.98c-.19.77-.06,1.36.39,1.78.45.43,1.19.64,2.2.64s1.84-.25,2.48-.74c.64-.49,1.05-1.17,1.22-2.05.19-.96.05-1.67-.42-2.14-.46-.46-1.25-.69-2.36-.69-.53,0-1.06.06-1.59.18-.53.12-1.08.3-1.63.54h-4.86l2.44-7.84h14.14l-.35,2.14h-9.87l-.98,3.7c.88-.29,1.69-.5,2.43-.64.74-.14,1.45-.21,2.12-.21,2.3,0,4.05.43,5.25,1.3,1.22.88,1.73,2.09,1.5,3.66-.25,1.7-1.2,3.01-2.89,3.9-1.71.91-4.14,1.36-7.27,1.36s-5.35-.42-6.65-1.24-1.7-2.04-1.3-3.66Zm1.17-1.69h5.49c.41-.25.83-.43,1.26-.55.43-.12.9-.17,1.4-.17.82,0,1.39.15,1.72.44.33.3.43.76.29,1.39l-.02.11c-.26-.09-.54-.16-.82-.2s-.59-.07-.92-.07c-.29,0-.58.03-.86.08-.28.05-.56.13-.83.25l-.5-.39h-5.35l-.85-.89Zm16.39-2.66l2.13,1.78c.44.35.75.77.92,1.25.17.49.22,1.07.14,1.75-.24,2.04-1.43,3.77-3.59,5.17-2.21,1.43-4.95,2.16-8.15,2.16-1.52,0-2.85-.17-3.98-.5-1.13-.33-2.06-.82-2.79-1.47l-1.52-1.31c.77.46,1.69.8,2.78,1,1.09.21,2.59.31,4.48.31,3.36,0,6.01-.55,7.91-1.64,1.86-1.07,2.91-2.6,3.18-4.56.11-.81.03-1.53-.22-2.18-.25-.64-.68-1.23-1.28-1.75Zm-9.65-1.15l.51-1.98h9.93l.44-2.84,1.53,1.38-.41,3.01h-8.44c-.72,0-1.36.04-1.91.11s-1.1.18-1.64.33Zm-1.03,5.49l1.71,1.49h-.27c-.57,0-.98-.13-1.23-.39-.25-.26-.32-.62-.2-1.1Z" style="fill: #fff; stroke-width: 0px;"/>
        <path d="m114.24,25.82c.21,2.93-.33,5.09-1.64,6.37-1.35,1.31-3.81,1.98-7.37,1.98s-6.01-.67-7.31-1.97c-1.27-1.28-1.73-3.44-1.43-6.38.29-2.78,1.11-4.64,2.45-5.68s3.49-1.51,6.54-1.51,5.2.5,6.49,1.52c1.31,1.04,2.07,2.9,2.27,5.67Zm-2.12-6.45l2.17,1.5c.92.64,1.61,1.4,2.05,2.28.45.9.76,2.14.92,3.74.32,3.2-.36,5.73-2.09,7.5-1.79,1.82-4.64,2.76-8.5,2.76-1.12,0-2.12-.12-3.01-.35s-1.62-.56-2.19-1l-2.36-1.8c.59.38,1.36.66,2.3.82.94.17,2.26.25,3.97.25,3.79,0,6.45-.76,7.96-2.24,1.47-1.44,2.06-3.78,1.81-6.89-.14-1.72-.44-3.06-.92-4.07-.47-.99-1.16-1.82-2.09-2.51Zm-10.07,6.47c-.1,2.15.08,3.68.57,4.53.49.87,1.38,1.31,2.65,1.31s2.17-.45,2.7-1.33c.51-.87.75-2.39.72-4.51s-.3-3.42-.79-4.16c-.49-.72-1.3-1.08-2.44-1.08s-1.97.36-2.48,1.07-.82,2.1-.92,4.17Zm3.04,5.05c-.89-.11-1.5-.51-1.83-1.2-.33-.68-.46-1.87-.39-3.52.08-2.06.31-3.37.69-3.99.37-.61,1-.91,1.89-.91.62,0,1.13.18,1.53.53.4.36.63.85.7,1.48-.32-.17-.59-.3-.82-.38-.23-.08-.45-.12-.65-.12-.52,0-.88.15-1.08.46-.2.31-.32,1.07-.34,2.31v.41c-.02.64,0,1.35.05,2.15.05.81.14,1.73.27,2.78Z" style="fill: #fff; stroke-width: 0px;"/>
        <path d="m136.33,25.82c.84,2.93.78,5.09-.26,6.37-1.06,1.31-3.38,1.98-6.94,1.98s-6.16-.67-7.74-1.97c-1.55-1.28-2.48-3.44-2.81-6.38-.32-2.78.1-4.64,1.21-5.68s3.16-1.51,6.21-1.51,5.31.5,6.82,1.52c1.54,1.04,2.7,2.9,3.5,5.67Zm-3.52-6.45l2.5,1.5c1.06.64,1.91,1.4,2.55,2.28.65.9,1.22,2.14,1.73,3.74,1.01,3.2.89,5.73-.46,7.5-1.39,1.82-4.04,2.76-7.91,2.76-1.12,0-2.15-.12-3.09-.35s-1.74-.56-2.41-1l-2.75-1.8c.68.38,1.5.66,2.48.82.98.17,2.32.25,4.03.25,3.79,0,6.28-.76,7.47-2.24,1.15-1.44,1.24-3.78.31-6.89-.51-1.72-1.11-3.06-1.81-4.07-.68-.99-1.56-1.82-2.64-2.51Zm-8.67,6.47c.36,2.15.88,3.68,1.55,4.53.68.87,1.67,1.31,2.94,1.31s2.08-.45,2.41-1.33c.33-.87.23-2.39-.27-4.51s-1.04-3.42-1.7-4.16c-.64-.72-1.53-1.08-2.67-1.08s-1.9.36-2.25,1.07-.36,2.1-.02,4.17Zm4.13,5.05c-.91-.11-1.61-.51-2.1-1.2-.48-.68-.86-1.87-1.15-3.52-.36-2.06-.42-3.37-.18-3.99.24-.61.8-.91,1.69-.91.62,0,1.17.18,1.64.53.48.36.81.85,1.02,1.48-.35-.17-.65-.3-.9-.38-.25-.08-.47-.12-.67-.12-.52,0-.85.15-.98.46-.13.31-.08,1.07.16,2.31l.08.41c.12.64.3,1.35.52,2.15.23.81.52,1.73.87,2.78Z" style="fill: #fff; stroke-width: 0px;"/>
      </g>
    </g>
  </g>
</svg>