<?xml version="1.0" encoding="UTF-8"?>
<svg id="_图层_2" data-name="图层 2" xmlns="http://www.w3.org/2000/svg" viewBox="0 0 210.38 79.98">
  <g id="_图层_9" data-name="图层 9">
    <g>
      <ellipse cx="104.74" cy="27.97" rx="104.43" ry="27.66" style="fill: #1698ca; stroke: #1085a8; stroke-miterlimit: 10; stroke-width: .61px;"/>
      <ellipse cx="62.65" cy="47.1" rx="1.88" ry=".71" style="fill: #fff; stroke-width: 0px;"/>
      <ellipse cx="60.23" cy="44.7" rx="1.88" ry=".71" style="fill: #fff; stroke-width: 0px;"/>
      <ellipse cx="71.33" cy="46.4" rx="1.88" ry=".71" style="fill: #fff; stroke-width: 0px;"/>
      <ellipse cx="64.96" cy="49.22" rx="1.88" ry=".71" style="fill: #fff; stroke-width: 0px;"/>
      <ellipse cx="53.83" cy="47.65" rx="1.88" ry=".71" style="fill: #fff; stroke-width: 0px;"/>
      <ellipse cx="138.12" cy="9.02" rx="1.88" ry=".71" style="fill: #fff; stroke-width: 0px;"/>
      <ellipse cx="155.53" cy="7.85" rx="1.88" ry=".71" style="fill: #fff; stroke-width: 0px;"/>
      <ellipse cx="147.72" cy="46.85" rx="1.88" ry=".71" style="fill: #fff; stroke-width: 0px;"/>
      <ellipse cx="183.6" cy="26.03" rx="1.88" ry=".71" style="fill: #fff; stroke-width: 0px;"/>
      <ellipse cx="189.86" cy="27.44" rx="1.88" ry=".71" style="fill: #fff; stroke-width: 0px;"/>
      <ellipse cx="196.22" cy="29.08" rx="1.88" ry=".71" style="fill: #fff; stroke-width: 0px;"/>
      <polygon points="127.32 9.31 152.44 12.86 165.27 6.49 141.02 3.09 127.32 9.31" style="fill: none; opacity: .99; stroke: #fff; stroke-miterlimit: 10; stroke-width: .31px;"/>
      <polygon points="31.51 31.02 31.51 24.09 4.61 24.09 4.32 31.02 31.51 31.02" style="fill: none; stroke: #fff; stroke-miterlimit: 10; stroke-width: .31px;"/>
      <polygon points="142.28 50.91 167.4 48.09 154.05 42.04 129.7 45.15 142.28 50.91" style="fill: none; stroke: #fff; stroke-miterlimit: 10; stroke-width: .31px;"/>
      <polygon points="43.1 48.35 56.51 42.19 80.82 45.15 67.36 51.69 43.1 48.35" style="fill: none; stroke: #fff; stroke-miterlimit: 10; stroke-width: .31px;"/>
      <polygon points="174.42 31.29 202.26 30.95 202.26 23.8 174.42 23.8 174.42 31.29" style="fill: none; stroke: #fff; stroke-miterlimit: 10; stroke-width: .31px;"/>
      <path d="m89.06,54.27c5.12.2,10.35.3,15.68.3,5.72,0,11.34-.12,16.81-.35l-3.79-5.11h-25.46l-3.25,5.16Z" style="fill: #fff; stroke: #1085a8; stroke-miterlimit: 10; stroke-width: .61px;"/>
      <path d="m179.17,35.76c-.77,2.14-10.27,5.4-10.27,5.4l17.18,4.15c6.48-2.13,11.8-4.52,15.69-7.1l-22.6-2.45Z" style="fill: #fff; stroke: #1085a8; stroke-miterlimit: 10; stroke-width: .61px;"/>
      <path d="m31.51,20.37c.53-2.04,9.59-5.25,9.59-5.25l-18.35-4.29c-6.79,2.27-12.25,4.84-16.09,7.61l24.84,1.93Z" style="fill: #fff; stroke: #1085a8; stroke-miterlimit: 10; stroke-width: .61px;"/>
      <path d="m91.75,7.3h25.1l5.2-6.61c-5.63-.25-11.41-.38-17.31-.38s-12.16.14-18.01.41l5.03,6.58Z" style="fill: #fff; stroke: #1085a8; stroke-miterlimit: 10; stroke-width: .61px;"/>
      <path d="m186.62,10.8l-18.71,4.3c5.5.97,10.9,5,10.9,5l23.32-2.13c-3.81-2.6-9.07-5.01-15.51-7.17Z" style="fill: #fff; stroke: #1085a8; stroke-miterlimit: 10; stroke-width: .61px;"/>
      <polygon points="57.22 13.53 81.37 9.73 67.63 3.13 42.05 7 57.22 13.53" style="fill: none; stroke: #fff; stroke-miterlimit: 10; stroke-width: .31px;"/>
      <ellipse cx="63.69" cy="6.15" rx="1.7" ry=".57" style="fill: #fff; stroke-width: 0px;"/>
      <ellipse cx="66.96" cy="7.59" rx="1.7" ry=".57" style="fill: #fff; stroke-width: 0px;"/>
      <ellipse cx="70.36" cy="9.04" rx="1.7" ry=".57" style="fill: #fff; stroke-width: 0px;"/>
      <ellipse cx="59.15" cy="10.79" rx="1.7" ry=".57" style="fill: #fff; stroke-width: 0px;"/>
      <ellipse cx="56.12" cy="9.33" rx="1.7" ry=".57" style="fill: #fff; stroke-width: 0px;"/>
      <ellipse cx="52.97" cy="7.87" rx="1.7" ry=".57" style="fill: #fff; stroke-width: 0px;"/>
      <ellipse cx="25.68" cy="26.1" rx="1.88" ry=".71" style="fill: #fff; stroke-width: 0px;"/>
      <ellipse cx="25.68" cy="29.36" rx="1.88" ry=".71" style="fill: #fff; stroke-width: 0px;"/>
      <ellipse cx="13" cy="26.1" rx="1.88" ry=".71" style="fill: #fff; stroke-width: 0px;"/>
      <ellipse cx="13" cy="29.36" rx="1.88" ry=".71" style="fill: #fff; stroke-width: 0px;"/>
      <path d="m.31,28.77s2.16,26.48,107.85,26.31c105.7-.17,100.48-29.69,100.48-29.69,0,0,3.23,16.29-.01,30.2,0,0-5.56,21.02-99.54,24.08,0,0-88.75.38-108.02-23.56L.31,28.77Z" style="fill: #1698ca; stroke: #1085a8; stroke-miterlimit: 10; stroke-width: .61px;"/>
      <path d="m185.5,69.64c7.67-2.41,12.82-4.92,16.26-7.13v-24.97c-3.42,2.78-8.51,5.7-16.08,8.33l-.18,23.77Z" style="fill: #fff; stroke: #1085a8; stroke-miterlimit: 10; stroke-width: .61px;"/>
      <path d="m121.55,54.67c-4.26.12-8.71.19-13.39.2-6.79.01-13.14-.09-19.1-.29v24.51c11.89.62,20.03.59,20.03.59,4.34-.14,8.49-.32,12.46-.54v-24.47Z" style="fill: #fff; stroke: #1085a8; stroke-miterlimit: 10; stroke-width: .62px;"/>
      <path d="m7.27,37.92c4.23,2.9,10.25,5.57,17.71,7.91l16.13-4.42c-3.33-.39-10.51-5.4-10.51-5.4l-23.32,1.91Z" style="fill: #fff; stroke: #1085a8; stroke-miterlimit: 10; stroke-width: .61px;"/>
      <path d="m7.96,62.11c4.44,2.82,10.02,5.18,16.28,7.15l.24-23.13c-7.52-2.41-12.72-5.01-16.29-7.44l-.23,23.42Z" style="fill: #fff; stroke: #1085a8; stroke-miterlimit: 10; stroke-width: .61px;"/>
      <path d="m104.74,9.73c-37.18,0-67.31,7.93-67.31,17.71s30.14,17.71,67.31,17.71,67.31-7.93,67.31-17.71-30.14-17.71-67.31-17.71Zm.31,33.88c-33.39,0-60.46-7.12-60.46-15.91s27.07-15.91,60.46-15.91,60.46,7.12,60.46,15.91-27.07,15.91-60.46,15.91Z" style="fill: #1085a8; stroke-width: 0px;"/>
      <path d="m159.75,17.24l-4.88,1.45c3.39,1.3,6.08,2.73,7.9,4.26l4.34-2.17c-1.94-1.26-4.42-2.44-7.36-3.54Z" style="fill: #fff; stroke-width: 0px;"/>
      <path d="m165.51,27.7c0,.85-.26,1.68-.75,2.49l5.68,1.09c1.04-1.24,1.61-2.53,1.61-3.85,0-.48-.09-.95-.23-1.41h-6.65c.22.55.34,1.11.34,1.67Z" style="fill: #fff; stroke-width: 0px;"/>
      <path d="m159.97,34.35c-1.72.99-3.81,1.92-6.23,2.78l.54,2.3c4.64-1.33,8.51-2.84,11.45-4.5l-5.76-.58Z" style="fill: #fff; stroke-width: 0px;"/>
      <path d="m142.62,40.16c-4.04.85-8.5,1.56-13.29,2.11v1.66c5.06-.52,9.81-1.2,14.18-2.01l-.89-1.76Z" style="fill: #fff; stroke-width: 0px;"/>
      <path d="m112.12,45.05v-1.55c-2.32.07-4.68.11-7.08.11s-4.77-.04-7.1-.11l-.05,1.57c2.25.06,4.54.09,6.85.09,2.5,0,4.96-.04,7.38-.11Z" style="fill: #fff; stroke-width: 0px;"/>
      <path d="m80.82,42.28c-4.38-.5-8.49-1.14-12.25-1.89l-.93,1.83c4.1.71,8.52,1.31,13.19,1.78v-1.72Z" style="fill: #fff; stroke-width: 0px;"/>
      <path d="m56.24,37.09c-2.27-.82-4.26-1.69-5.91-2.62l-5.58,1c3.03,1.56,6.91,2.99,11.5,4.25v-2.63Z" style="fill: #fff; stroke-width: 0px;"/>
      <path d="m130.1,13.23c5.17.62,9.94,1.42,14.2,2.38v-2.49c-4.28-.82-8.93-1.51-13.89-2.05l-.31,2.16Z" style="fill: #fff; stroke-width: 0px;"/>
      <path d="m42.05,20.99l5.09,2.13c1.57-1.37,3.82-2.67,6.65-3.86l-2.67-2.53c-3.73,1.29-6.79,2.72-9.08,4.26Z" style="fill: #fff; stroke-width: 0px;"/>
      <path d="m44.59,27.7c0-.36.06-.72.15-1.08l-7.15-.38c-.1.4-.17.79-.17,1.19,0,1.41.65,2.78,1.83,4.1l6.77-.39c-.94-1.11-1.45-2.27-1.45-3.46Z" style="fill: #fff; stroke-width: 0px;"/>
      <path d="m64.69,13.21v2.65c4.3-1.01,9.15-1.87,14.43-2.53l-1.26-2.13c-4.69.54-9.11,1.21-13.17,2Z" style="fill: #fff; stroke-width: 0px;"/>
      <path d="m96.38,9.87v2.09c2.83-.11,5.72-.17,8.67-.17,2.42,0,4.8.04,7.15.11v-2.07c-2.45-.07-4.94-.11-7.46-.11-2.83,0-5.62.05-8.36.14Z" style="fill: #fff; stroke-width: 0px;"/>
      <g>
        <path d="m63.03,34.3l.5-1.58c-1.59-.06-2.7-.48-3.31-1.25s-.68-1.8-.22-3.1h3.35c-.18.66-.2,1.13-.06,1.42s.46.45.96.47l.92-2.86c-1.53-.34-2.55-.8-3.07-1.38s-.61-1.33-.28-2.26c.36-1.01,1.06-1.82,2.1-2.42s2.24-.91,3.65-.93l.31-.97h1.35l-.29.95c1.32.03,2.27.33,2.86.92s.77,1.42.52,2.5h-3.07c.11-.47.08-.82-.07-1.06s-.45-.37-.87-.38l-.74,2.41c1.6.37,2.67.86,3.22,1.45s.7,1.42.42,2.46c-.33,1.23-1.01,2.19-2.04,2.87s-2.44,1.07-4.19,1.17l-.48,1.56h-1.46Zm3.32-9.79l.68-2.16h-.07c-.5,0-.91.09-1.22.26s-.52.44-.64.79c-.09.27-.04.49.14.66s.55.32,1.1.45Zm-.72,5.75c.59,0,1.07-.1,1.43-.3s.6-.49.72-.88c.1-.33.05-.6-.15-.8s-.6-.38-1.22-.56l-.78,2.54Z" style="fill: #fff; stroke: #1085a8; stroke-miterlimit: 10; stroke-width: 1.04px;"/>
        <path d="m75.66,32.51l1.64-7.24h-2.87l.6-2.39c1.17-.02,2.08-.21,2.71-.57s1.11-.95,1.44-1.76h2.78l-2.35,11.96h-3.95Z" style="fill: #fff; stroke: #1085a8; stroke-miterlimit: 10; stroke-width: 1.04px;"/>
        <path d="m84.76,26.24c.34-2.03,1.04-3.53,2.12-4.53s2.47-1.47,4.23-1.47,3.06.49,3.9,1.47,1.2,2.5,1.05,4.53-.78,3.75-1.86,4.89-2.65,1.75-4.6,1.75-3.33-.59-4.15-1.76-1.03-2.79-.68-4.89Zm7.38,0c.14-1.28.1-2.17-.11-2.68s-.62-.76-1.23-.76-1.09.25-1.42.75-.58,1.4-.76,2.69-.17,2.26.04,2.8.64.82,1.29.82,1.15-.28,1.48-.83.57-1.48.71-2.79Z" style="fill: #fff; stroke: #1085a8; stroke-miterlimit: 10; stroke-width: 1.04px;"/>
        <path d="m96.81,26.24c.14-2.03.71-3.53,1.69-4.53s2.32-1.47,4.09-1.47,3.11.49,4.04,1.47,1.44,2.5,1.48,4.53-.42,3.75-1.4,4.89-2.48,1.75-4.43,1.75-3.38-.59-4.32-1.76-1.29-2.79-1.15-4.89Zm7.38,0c.01-1.28-.11-2.17-.37-2.68s-.69-.76-1.3-.76-1.07.25-1.35.75-.45,1.4-.5,2.69.05,2.26.3,2.8.71.82,1.37.82,1.12-.28,1.4-.83.43-1.48.44-2.79Z" style="fill: #fff; stroke: #1085a8; stroke-miterlimit: 10; stroke-width: 1.04px;"/>
        <path d="m109.85,35.96l-.06-1.82c.66-.09,1.14-.28,1.43-.57s.42-.68.39-1.19h-1.88l-.12-3.8h3.96l.24,3.85c.06,1-.24,1.8-.92,2.41s-1.7.99-3.04,1.11Z" style="fill: #fff; stroke: #1085a8; stroke-miterlimit: 10; stroke-width: 1.04px;"/>
        <path d="m114.89,26.24c-.15-2.03.2-3.53,1.04-4.53s2.11-1.47,3.88-1.47,3.18.49,4.25,1.47,1.8,2.5,2.13,4.53.12,3.75-.69,4.89-2.23,1.75-4.18,1.75-3.47-.59-4.57-1.76-1.7-2.79-1.85-4.89Zm7.38,0c-.17-1.28-.42-2.17-.75-2.68s-.8-.76-1.41-.76-1.03.25-1.24.75-.25,1.4-.11,2.69.37,2.26.71,2.8.83.82,1.49.82,1.08-.28,1.28-.83.21-1.48.04-2.79Z" style="fill: #fff; stroke: #1085a8; stroke-miterlimit: 10; stroke-width: 1.04px;"/>
        <path d="m126.93,26.24c-.35-2.03-.14-3.53.6-4.53s1.97-1.47,3.73-1.47,3.22.49,4.39,1.47,2.04,2.5,2.57,4.53.48,3.75-.22,4.89-2.06,1.75-4.01,1.75-3.53-.59-4.74-1.76-1.96-2.79-2.32-4.89Zm7.38,0c-.29-1.28-.63-2.17-1.01-2.68s-.87-.76-1.49-.76-1.01.25-1.17.75-.11,1.4.15,2.69.59,2.26.98,2.8.91.82,1.57.82,1.05-.28,1.2-.83.07-1.48-.23-2.79Z" style="fill: #fff; stroke: #1085a8; stroke-miterlimit: 10; stroke-width: 1.04px;"/>
        <path d="m138.98,26.24c-.54-2.03-.48-3.53.17-4.53s1.83-1.47,3.59-1.47,3.27.49,4.53,1.47,2.28,2.5,3,4.53.84,3.75.24,4.89-1.89,1.75-3.84,1.75-3.58-.59-4.91-1.76-2.23-2.79-2.79-4.89Zm7.38,0c-.42-1.28-.84-2.17-1.27-2.68s-.94-.76-1.56-.76-.99.25-1.1.75.02,1.4.4,2.69.81,2.26,1.24,2.8.99.82,1.65.82,1.03-.28,1.12-.83-.07-1.48-.5-2.79Z" style="fill: #fff; stroke: #1085a8; stroke-miterlimit: 10; stroke-width: 1.04px;"/>
      </g>
    </g>
  </g>
</svg>