<?xml version="1.0" encoding="UTF-8"?>
<svg id="_图层_2" data-name="图层 2" xmlns="http://www.w3.org/2000/svg" viewBox="0 0 210.38 79.98">
  <g id="_图层_9" data-name="图层 9">
    <g>
      <g>
        <path d="m.83,28.84s2.15,26.45,107.59,26.28c105.43-.17,100.23-29.65,100.23-29.65,0,0,3.22,16.26-.01,30.16,0,0-5.55,20.99-99.29,24.05,0,0-88.53.38-107.75-23.53l-.76-27.3Z" style="fill: #1698ca; stroke: #1085a8; stroke-miterlimit: 10; stroke-width: .61px;"/>
        <ellipse cx="105.45" cy="27.98" rx="103.7" ry="27.67" style="fill: #1698ca; stroke: #1085a8; stroke-miterlimit: 10; stroke-width: .61px;"/>
        <rect x="90.42" y="2.11" width="27.39" height="6.98" style="fill: none; stroke: #fff; stroke-miterlimit: 10; stroke-width: .31px;"/>
        <ellipse cx="99.23" cy="4.15" rx="1.84" ry=".47" style="fill: #fff; stroke-width: 0px;"/>
        <ellipse cx="99.23" cy="5.85" rx="1.84" ry=".47" style="fill: #fff; stroke-width: 0px;"/>
        <ellipse cx="99.34" cy="7.52" rx="1.84" ry=".47" style="fill: #fff; stroke-width: 0px;"/>
        <ellipse cx="112.16" cy="3.97" rx="1.84" ry=".47" style="fill: #fff; stroke-width: 0px;"/>
        <ellipse cx="112.16" cy="5.85" rx="1.84" ry=".47" style="fill: #fff; stroke-width: 0px;"/>
        <ellipse cx="112.16" cy="7.52" rx="1.84" ry=".47" style="fill: #fff; stroke-width: 0px;"/>
        <polygon points="11.9 37.54 36.99 33.99 51.41 40.37 27.96 43.42 11.9 37.54" style="fill: none; stroke: #fff; stroke-miterlimit: 10; stroke-width: .31px;"/>
        <ellipse cx="33.89" cy="36.6" rx="1.94" ry=".57" style="fill: #fff; stroke-width: 0px;"/>
        <ellipse cx="31.34" cy="38.86" rx="1.94" ry=".57" style="fill: #fff; stroke-width: 0px;"/>
        <ellipse cx="29.04" cy="41" rx="1.94" ry=".57" style="fill: #fff; stroke-width: 0px;"/>
        <ellipse cx="22.59" cy="38.29" rx="1.94" ry=".57" style="fill: #fff; stroke-width: 0px;"/>
        <ellipse cx="40.29" cy="39.66" rx="1.94" ry=".57" style="fill: #fff; stroke-width: 0px;"/>
        <path d="m67.71,2.11l7.87,5.82s-18.3,2.19-20.61,3.46l-16.39-4.74s19.53-4.36,29.14-4.54Z" style="fill: #fff; stroke: #1085a8; stroke-miterlimit: 10; stroke-width: .61px;"/>
        <path d="m143.64,2.41l-7.87,5.82s18.3,2.19,20.61,3.46l16.39-4.74s-19.53-4.36-29.14-4.54Z" style="fill: #fff; stroke: #1085a8; stroke-miterlimit: 10; stroke-width: .61px;"/>
        <path d="m207.22,32.97l-21.97-1.05s2.04-4.28,0-7.13l23.26-.07s1.36,4.3-1.29,8.25Z" style="fill: #fff; stroke: #1085a8; stroke-miterlimit: 10; stroke-width: .62px;"/>
        <path d="m156.2,44.9c-2.55,1.15-21.77,3.23-21.77,3.23l7.63,5.31v.28c16.32-.14,24.58-2.31,28.15-3.66l-14.01-5.15Z" style="fill: #fff; stroke: #1085a8; stroke-miterlimit: 10; stroke-width: .61px;"/>
        <path d="m142.05,53.71v23.92s17.71-.83,28.54-3.82v-23.62l-.39-.14c-3.57,1.35-11.83,3.52-28.15,3.66Z" style="fill: #fff; stroke: #1085a8; stroke-miterlimit: 10; stroke-width: .61px;"/>
        <path d="m68.18,53.09v24.54c-11.08-1.2-20.52-2.92-28.5-4.86v-23.31c7.8,1.49,17.2,2.75,28.5,3.62Z" style="fill: #fff; stroke: #1085a8; stroke-miterlimit: 10; stroke-width: .61px;"/>
        <path d="m39.68,49.47h0s15.04-4.57,15.04-4.57c0,0,19.91,3.92,22,3.23,2.09-.69-8.54,4.97-8.54,4.97,0,0-23.06-2.49-28.5-3.63" style="fill: #fff; stroke: #1085a8; stroke-miterlimit: 10; stroke-width: .61px;"/>
        <path d="m3.58,32.72l22.39-1.01s-2.08-4.15,0-6.92l-23.71-.07s-1.39,4.17,1.32,8Z" style="fill: #fff; stroke: #1085a8; stroke-miterlimit: 10; stroke-width: .61px;"/>
        <path d="m2.26,24.72s-4.16,8.88-.36,31.3c0,0,.18-23.24,1.67-23.3,0,0-1.7-5.84-1.32-8Z" style="fill: #fff; stroke: #1085a8; stroke-miterlimit: 10; stroke-width: .61px;"/>
        <path d="m105.24,10.8c-37.02,0-67.02,7.69-67.02,17.17s30.01,17.17,67.02,17.17,67.02-7.69,67.02-17.17-30.01-17.17-67.02-17.17Zm.37,33.17c-34.01,0-61.58-7.18-61.58-16.04s27.57-16.04,61.58-16.04,61.58,7.18,61.58,16.04-27.57,16.04-61.58,16.04Z" style="fill: #1085a8; stroke-width: 0px;"/>
        <path d="m160.6,35.16c-1.64.84-3.55,1.64-5.71,2.39l.13,1.92c4.34-1.23,7.98-2.62,10.79-4.14l-5.21-.18Z" style="fill: #fff; stroke-width: 0px;"/>
        <path d="m167.19,28.03c0,1.12-.44,2.21-1.28,3.26l4.92.32c.93-1.14,1.43-2.32,1.43-3.54,0-.4-.06-.79-.16-1.19h-5.07c.1.38.16.76.16,1.14Z" style="fill: #fff; stroke-width: 0px;"/>
        <path d="m131.27,13.43c5.23.62,10.06,1.42,14.38,2.37l.21-1.43c-4.4-.85-9.21-1.57-14.36-2.12l-.23,1.18Z" style="fill: #fff; stroke-width: 0px;"/>
        <path d="m97.5,10.96v1.12c2.65-.09,5.36-.14,8.11-.14s5.65.05,8.39.15v-1.09c-2.87-.1-5.79-.15-8.76-.15-2.62,0-5.2.04-7.74.11Z" style="fill: #fff; stroke-width: 0px;"/>
        <path d="m159.51,17.98l-3.45.84c3.68,1.38,6.56,2.91,8.45,4.56l3.62-1.23c-2.13-1.5-5.05-2.9-8.62-4.16Z" style="fill: #fff; stroke-width: 0px;"/>
        <path d="m44.04,27.93c0-.46.08-.92.23-1.37h-5.82c-.15.47-.23.94-.23,1.41,0,1.29.56,2.54,1.61,3.75l5.55-.46c-.87-1.08-1.33-2.19-1.33-3.33Z" style="fill: #fff; stroke-width: 0px;"/>
        <path d="m56.12,37.48c-2.47-.87-4.61-1.8-6.37-2.79l-5.17.6c2.96,1.61,6.87,3.08,11.54,4.37v-2.18Z" style="fill: #fff; stroke-width: 0px;"/>
        <path d="m81.35,42.68c-4.37-.49-8.47-1.1-12.25-1.83l-1.92,1.26c4.41.78,9.2,1.43,14.28,1.92l-.11-1.36Z" style="fill: #fff; stroke-width: 0px;"/>
        <path d="m112.92,45.04v-1.18c-2.4.07-4.84.11-7.31.11s-4.8-.04-7.14-.11l-.05,1.2c2.24.06,4.51.09,6.81.09,2.6,0,5.16-.04,7.68-.11Z" style="fill: #fff; stroke-width: 0px;"/>
        <path d="m65.88,14.08l-.05,1.62c4.22-.93,8.94-1.72,14.03-2.33l-.9-1.19c-4.65.51-9.03,1.15-13.07,1.9Z" style="fill: #fff; stroke-width: 0px;"/>
        <path d="m43.73,21.14l3.19,1.93c1.75-1.44,4.26-2.78,7.4-4.01l-3.26-1.19c-2.89,1.01-5.35,2.11-7.32,3.28Z" style="fill: #fff; stroke-width: 0px;"/>
        <path d="m142.22,40.83c-3.77.73-7.87,1.34-12.23,1.83v1.27c4.77-.49,9.26-1.11,13.42-1.85l-1.2-1.26Z" style="fill: #fff; stroke-width: 0px;"/>
        <polygon points="90.44 53.37 117.8 53.09 117.8 46.15 90.44 46.15 90.44 53.37" style="fill: none; stroke: #fff; stroke-miterlimit: 10; stroke-width: .31px;"/>
        <ellipse cx="105.61" cy="49.92" rx="2.15" ry=".53" style="fill: #fff; stroke-width: 0px;"/>
        <polygon points="11.9 17.87 25.45 12.02 50.35 15.21 37.09 21.18 11.9 17.87" style="fill: none; stroke: #fff; stroke-miterlimit: 10; stroke-width: .31px;"/>
        <ellipse cx="29.03" cy="14.5" rx="1.94" ry=".57" style="fill: #fff; stroke-width: 0px;"/>
        <ellipse cx="22.77" cy="17.51" rx="1.94" ry=".57" style="fill: #fff; stroke-width: 0px;"/>
        <ellipse cx="33.89" cy="19.04" rx="1.94" ry=".57" style="fill: #fff; stroke-width: 0px;"/>
        <ellipse cx="40.16" cy="16.23" rx="1.94" ry=".57" style="fill: #fff; stroke-width: 0px;"/>
        <polygon points="175.5 21.25 199.06 17.98 186.04 11.9 160.35 14.97 175.5 21.25" style="fill: none; stroke: #fff; stroke-miterlimit: 10; stroke-width: .31px;"/>
        <ellipse cx="171.2" cy="16.24" rx="2.11" ry=".67" style="fill: #fff; stroke-width: 0px;"/>
        <ellipse cx="188.55" cy="17.49" rx="2.11" ry=".67" style="fill: #fff; stroke-width: 0px;"/>
        <polygon points="174.05 33.68 198.37 37.32 185.25 43.36 160.85 39.84 174.05 33.68" style="fill: none; stroke: #fff; stroke-miterlimit: 10; stroke-width: .31px;"/>
        <ellipse cx="177.46" cy="36.56" rx="2.15" ry=".65" style="fill: #fff; stroke-width: 0px;"/>
        <ellipse cx="179.78" cy="38.95" rx="2.15" ry=".65" style="fill: #fff; stroke-width: 0px;"/>
        <ellipse cx="182.15" cy="41.18" rx="2.15" ry=".65" style="fill: #fff; stroke-width: 0px;"/>
        <path d="m207.65,33.84s2.98-4.18,1.31,22.48c0,0,2.51-23.67.01-30.27,0,0-.54,6.72-1.32,7.79Z" style="fill: #fff; stroke: #1085a8; stroke-miterlimit: 10; stroke-width: .6px;"/>
      </g>
      <g>
        <path d="m61.84,35.51l.5-1.58c-1.59-.06-2.7-.48-3.31-1.25s-.68-1.8-.22-3.1h3.35c-.18.66-.2,1.13-.06,1.42s.46.45.96.47l.92-2.86c-1.53-.34-2.55-.8-3.07-1.38s-.61-1.33-.28-2.26c.36-1.01,1.06-1.82,2.1-2.42s2.24-.91,3.65-.93l.31-.97h1.35l-.29.95c1.32.03,2.27.33,2.86.92s.77,1.42.52,2.5h-3.07c.11-.47.08-.82-.07-1.06s-.45-.37-.87-.38l-.74,2.41c1.6.37,2.67.86,3.22,1.45s.7,1.42.42,2.46c-.33,1.23-1.01,2.19-2.04,2.87s-2.44,1.07-4.19,1.17l-.48,1.56h-1.46Zm3.32-9.79l.68-2.16h-.07c-.5,0-.91.09-1.22.26s-.52.44-.64.79c-.09.27-.04.49.14.66s.55.32,1.1.45Zm-.72,5.75c.59,0,1.07-.1,1.43-.3s.6-.49.72-.88c.1-.33.05-.6-.15-.8s-.6-.38-1.22-.56l-.78,2.54Z" style="fill: #fff; stroke: #1085a8; stroke-miterlimit: 10; stroke-width: 1.04px;"/>
        <path d="m74.47,33.72l1.64-7.24h-2.87l.6-2.39c1.17-.02,2.08-.21,2.71-.57s1.11-.95,1.44-1.76h2.78l-2.35,11.96h-3.95Z" style="fill: #fff; stroke: #1085a8; stroke-miterlimit: 10; stroke-width: 1.04px;"/>
        <path d="m83.57,27.45c.34-2.03,1.04-3.53,2.12-4.53s2.47-1.47,4.23-1.47,3.06.49,3.9,1.47,1.2,2.5,1.05,4.53-.78,3.75-1.86,4.89-2.65,1.75-4.6,1.75-3.33-.59-4.15-1.76-1.03-2.79-.68-4.89Zm7.38,0c.14-1.28.1-2.17-.11-2.68s-.62-.76-1.23-.76-1.09.25-1.42.75-.58,1.4-.76,2.69-.17,2.26.04,2.8.64.82,1.29.82,1.15-.28,1.48-.83.57-1.48.71-2.79Z" style="fill: #fff; stroke: #1085a8; stroke-miterlimit: 10; stroke-width: 1.04px;"/>
        <path d="m95.62,27.45c.14-2.03.71-3.53,1.69-4.53s2.32-1.47,4.09-1.47,3.11.49,4.04,1.47,1.44,2.5,1.48,4.53-.42,3.75-1.4,4.89-2.48,1.75-4.43,1.75-3.38-.59-4.32-1.76-1.29-2.79-1.15-4.89Zm7.38,0c.01-1.28-.11-2.17-.37-2.68s-.69-.76-1.3-.76-1.07.25-1.35.75-.45,1.4-.5,2.69.05,2.26.3,2.8.71.82,1.37.82,1.12-.28,1.4-.83.43-1.48.44-2.79Z" style="fill: #fff; stroke: #1085a8; stroke-miterlimit: 10; stroke-width: 1.04px;"/>
        <path d="m108.66,37.17l-.06-1.82c.66-.09,1.14-.28,1.43-.57s.42-.68.39-1.19h-1.88l-.12-3.8h3.96l.24,3.85c.06,1-.24,1.8-.92,2.41s-1.7.99-3.04,1.11Z" style="fill: #fff; stroke: #1085a8; stroke-miterlimit: 10; stroke-width: 1.04px;"/>
        <path d="m113.7,27.45c-.15-2.03.2-3.53,1.04-4.53s2.11-1.47,3.88-1.47,3.18.49,4.25,1.47,1.8,2.5,2.13,4.53.12,3.75-.69,4.89-2.23,1.75-4.18,1.75-3.47-.59-4.57-1.76-1.7-2.79-1.85-4.89Zm7.38,0c-.17-1.28-.42-2.17-.75-2.68s-.8-.76-1.41-.76-1.03.25-1.24.75-.25,1.4-.11,2.69.37,2.26.71,2.8.83.82,1.49.82,1.08-.28,1.28-.83.21-1.48.04-2.79Z" style="fill: #fff; stroke: #1085a8; stroke-miterlimit: 10; stroke-width: 1.04px;"/>
        <path d="m125.74,27.45c-.35-2.03-.14-3.53.6-4.53s1.97-1.47,3.73-1.47,3.22.49,4.39,1.47,2.04,2.5,2.57,4.53.48,3.75-.22,4.89-2.06,1.75-4.01,1.75-3.53-.59-4.74-1.76-1.96-2.79-2.32-4.89Zm7.38,0c-.29-1.28-.63-2.17-1.01-2.68s-.87-.76-1.49-.76-1.01.25-1.17.75-.11,1.4.15,2.69.59,2.26.98,2.8.91.82,1.57.82,1.05-.28,1.2-.83.07-1.48-.23-2.79Z" style="fill: #fff; stroke: #1085a8; stroke-miterlimit: 10; stroke-width: 1.04px;"/>
        <path d="m137.79,27.45c-.54-2.03-.48-3.53.17-4.53s1.83-1.47,3.59-1.47,3.27.49,4.53,1.47,2.28,2.5,3,4.53.84,3.75.24,4.89-1.89,1.75-3.84,1.75-3.58-.59-4.91-1.76-2.23-2.79-2.79-4.89Zm7.38,0c-.42-1.28-.84-2.17-1.27-2.68s-.94-.76-1.56-.76-.99.25-1.1.75.02,1.4.4,2.69.81,2.26,1.24,2.8.99.82,1.65.82,1.03-.28,1.12-.83-.07-1.48-.5-2.79Z" style="fill: #fff; stroke: #1085a8; stroke-miterlimit: 10; stroke-width: 1.04px;"/>
      </g>
    </g>
  </g>
</svg>