<?xml version="1.0" encoding="UTF-8"?>
<svg id="_图层_2" data-name="图层 2" xmlns="http://www.w3.org/2000/svg" viewBox="0 0 210.38 79.93">
  <g id="_图层_9" data-name="图层 9">
    <g>
      <g>
        <ellipse cx="104.67" cy="27.8" rx="104.37" ry="27.55" style="fill: #1698ca; stroke: #1085a8; stroke-miterlimit: 10; stroke-width: .51px;"/>
        <path d="m104.57,9.57c-36.85,0-66.72,8.05-66.72,17.98s29.87,17.98,66.72,17.98,66.72-8.05,66.72-17.98-29.87-17.98-66.72-17.98Zm.32,33.95c-33.7,0-61.02-7.04-61.02-15.73s27.32-15.73,61.02-15.73,61.02,7.04,61.02,15.73-27.32,15.73-61.02,15.73Z" style="fill: #1085a8; stroke-width: 0px;"/>
        <path d="m133.67,41.66c-3.74.52-7.72.94-11.88,1.25l-.3,2.04c5.15-.36,10.06-.89,14.64-1.55-.75-.53-1.66-1.17-2.46-1.74Z" style="fill: #fff; stroke-width: 0px;"/>
        <path d="m157.48,35.77c-2.44,1.07-5.36,2.05-8.67,2.94l.16,2.27c5.09-1.22,9.47-2.65,12.98-4.24l-4.46-.97Z" style="fill: #fff; stroke-width: 0px;"/>
        <path d="m43.87,27.79c0-1.24.55-2.44,1.6-3.59l-6.23-.31c-.91,1.18-1.39,2.41-1.39,3.67,0,.49.08.98.22,1.47h5.98c-.12-.41-.18-.81-.18-1.23Z" style="fill: #fff; stroke-width: 0px;"/>
        <path d="m165.88,28.28c-.21,1.79-1.58,3.5-3.92,5.08l5.48.22c2.2-1.67,3.52-3.45,3.8-5.3h-5.36Z" style="fill: #fff; stroke-width: 0px;"/>
        <path d="m163.66,19.19l-5.07,1.12c2.81,1.34,4.89,2.79,6.1,4.33l5.34-.59c-1.26-1.72-3.43-3.35-6.37-4.86Z" style="fill: #fff; stroke-width: 0px;"/>
        <path d="m136.96,14.4c5.3.85,10.06,1.89,14.12,3.11l-.17-2.9c-3.48-.91-7.32-1.71-11.46-2.4l-2.48,2.19Z" style="fill: #fff; stroke-width: 0px;"/>
        <path d="m104.67,12.06c.07,0,.14,0,.22,0,5.75,0,11.31.21,16.58.59l-.7-2.54c-4.67-.31-9.52-.5-14.52-.53l-1.57,2.49Z" style="fill: #fff; stroke-width: 0px;"/>
        <path d="m47.14,18.39l2.64,2.63c2.7-1.46,6.24-2.79,10.46-3.96l-3.82-1.96c-3.54.99-6.65,2.1-9.28,3.29Z" style="fill: #fff; stroke-width: 0px;"/>
        <path d="m72.24,11.82l-.31,2.73c4.79-.79,10.03-1.42,15.61-1.84l-1.53-2.43c-4.84.38-9.46.9-13.78,1.54Z" style="fill: #fff; stroke-width: 0px;"/>
        <path d="m103.77,43.52c-4.48-.02-8.85-.17-13.04-.42l-1.74,1.95c4.93.32,10.08.49,15.37.49l-.58-2.02Z" style="fill: #fff; stroke-width: 0px;"/>
        <path d="m72.99,41.2c-3.69-.59-7.13-1.27-10.25-2.04l-3.17,1.66c4.23,1.04,8.96,1.94,14.09,2.66l-.66-2.29Z" style="fill: #fff; stroke-width: 0px;"/>
        <path d="m49.4,37.66l2.94-1.88c-2.39-1.04-4.34-2.16-5.75-3.35l-5.5.65c1.97,1.64,4.78,3.18,8.31,4.57Z" style="fill: #fff; stroke-width: 0px;"/>
        <path d="m62.02,9.57l23.45-2.32-5.18-6.23c-10.95.69-21.23,1.84-30.53,3.36l12.26,5.2Z" style="fill: #fff; stroke: #1085a8; stroke-miterlimit: 10; stroke-width: .51px;"/>
        <path d="m154.57,3.6l-10.55,5.96s13,1.39,18.89,3.88l17.8-4.51c-7.56-2.12-16.37-3.93-26.14-5.33Z" style="fill: #fff; stroke: #1085a8; stroke-miterlimit: 10; stroke-width: .51px;"/>
        <path d="m182.63,33.59l22.04,2.12c2.84-2.5,4.37-5.16,4.37-7.91,0-.08,0-.15-.01-.22l-24.01.22s.29,3.31-2.39,5.78Z" style="fill: #fff; stroke: #1085a8; stroke-miterlimit: 10; stroke-width: .51px;"/>
        <path d="m146.99,46.27c-12.92,2.93-23.26,2.42-23.26,2.42l4.82,5.94c10.56-.65,20.5-1.73,29.56-3.16l-11.12-5.2Z" style="fill: #fff; stroke: #1085a8; stroke-miterlimit: 10; stroke-width: .51px;"/>
        <path d="m31.18,47.12c7.39,1.95,15.89,3.6,25.22,4.9l9.68-5.4c-9.26-.29-19.16-3.71-19.16-3.71l-15.74,4.21Z" style="fill: #fff; stroke: #1085a8; stroke-miterlimit: 10; stroke-width: .51px;"/>
        <path d="m.31,27.8c0,.2.01.39.03.59l24.31-.17s.24-3.86,3.3-5.91l-23.98-1.76c-2.38,2.31-3.66,4.74-3.66,7.25Z" style="fill: #fff; stroke: #1085a8; stroke-miterlimit: 10; stroke-width: .51px;"/>
        <path d="m.31,28.42s2.16,26.64,107.85,26.47c105.7-.17,100.48-29.87,100.48-29.87,0,0,3.23,16.38-.01,30.38,0,0-5.56,21.14-99.54,24.22,0,0-88.75.38-108.02-23.7L.31,28.42Z" style="fill: #fff; opacity: .5; stroke: #231815; stroke-miterlimit: 10; stroke-width: .61px;"/>
        <path d="m.31,28.42s2.16,26.64,107.85,26.47c105.7-.17,100.48-29.87,100.48-29.87,0,0,3.23,16.38-.01,30.38,0,0-5.56,21.14-99.54,24.22,0,0-88.75.38-108.02-23.7L.31,28.42Z" style="fill: #1698ca; stroke: #1085a8; stroke-miterlimit: 10; stroke-width: .61px;"/>
        <path d="m55.83,52.14c-10.08-1.33-18.23-3.05-24.82-4.96-.22,1.93-.07,17.04.01,23.64,7.77,2.24,16.33,3.91,24.81,5.16v-23.83Z" style="fill: #fff; stroke: #1085a8; stroke-miterlimit: 10; stroke-width: .6px;"/>
        <polygon points="81.24 46.27 109.82 47.18 107.3 53.96 77.22 53.23 81.24 46.27" style="fill: none; stroke: #fff; stroke-miterlimit: 10; stroke-width: .16px;"/>
        <ellipse cx="101.03" cy="48.43" rx="1.61" ry=".49" style="fill: #fff; stroke-width: 0px;"/>
        <ellipse cx="99.31" cy="51.8" rx="1.61" ry=".49" style="fill: #fff; stroke-width: 0px;"/>
        <ellipse cx="93.92" cy="49.89" rx="1.61" ry=".49" style="fill: #fff; stroke-width: 0px;"/>
        <ellipse cx="88.22" cy="47.94" rx="1.61" ry=".49" style="fill: #fff; stroke-width: 0px;"/>
        <ellipse cx="86.62" cy="51.32" rx="1.61" ry=".49" style="fill: #fff; stroke-width: 0px;"/>
        <ellipse cx="29.55" cy="34.07" rx="1.61" ry=".49" style="fill: #fff; stroke-width: 0px;"/>
        <ellipse cx="34.24" cy="37.04" rx="1.61" ry=".49" style="fill: #fff; stroke-width: 0px;"/>
        <ellipse cx="22.61" cy="38.35" rx="1.61" ry=".49" style="fill: #fff; stroke-width: 0px;"/>
        <ellipse cx="17.68" cy="35.07" rx="1.61" ry=".49" style="fill: #fff; stroke-width: 0px;"/>
        <polygon points="9.4 34.07 19.29 40.93 45.01 38.35 34.76 31.21 9.4 34.07" style="fill: none; stroke: #fff; stroke-miterlimit: 10; stroke-width: .16px;"/>
        <ellipse cx="38.27" cy="16.12" rx="1.61" ry=".49" style="fill: #fff; stroke-width: 0px;"/>
        <ellipse cx="33.1" cy="15.1" rx="1.61" ry=".49" style="fill: #fff; stroke-width: 0px;"/>
        <ellipse cx="28.14" cy="14.13" rx="1.61" ry=".49" style="fill: #fff; stroke-width: 0px;"/>
        <ellipse cx="35.85" cy="11.47" rx="1.61" ry=".49" style="fill: #fff; stroke-width: 0px;"/>
        <ellipse cx="40.89" cy="12.44" rx="1.61" ry=".49" style="fill: #fff; stroke-width: 0px;"/>
        <ellipse cx="45.98" cy="13.41" rx="1.61" ry=".49" style="fill: #fff; stroke-width: 0px;"/>
        <polygon points="18.1 13.89 39.88 18.39 55.62 12.68 33.6 8.72 18.1 13.89" style="fill: none; stroke: #fff; stroke-miterlimit: 10; stroke-width: .16px;"/>
        <path d="m102.96,1.01l-3.54,6.98,27.04,1.03s3.35-6.98,3.35-7.08-26.85-.92-26.85-.92Z" style="fill: none; stroke: #fff; stroke-miterlimit: 10; stroke-width: .16px;"/>
        <ellipse cx="108.65" cy="6.6" rx="1.61" ry=".49" style="fill: #fff; stroke-width: 0px;"/>
        <ellipse cx="123.07" cy="3.68" rx="1.61" ry=".49" style="fill: #fff; stroke-width: 0px;"/>
        <ellipse cx="175.28" cy="17.99" rx="1.61" ry=".49" style="fill: #fff; stroke-width: 0px;"/>
        <ellipse cx="183.6" cy="18.68" rx="1.61" ry=".49" style="fill: #fff; stroke-width: 0px;"/>
        <ellipse cx="191.94" cy="19.68" rx="1.61" ry=".49" style="fill: #fff; stroke-width: 0px;"/>
        <polygon points="166.59 16.49 191.36 13.85 202.49 20.16 176.88 23.38 166.59 16.49" style="fill: none; stroke: #fff; stroke-miterlimit: 10; stroke-width: .16px;"/>
        <polygon points="153.14 41.57 169.65 35.77 191.67 40.15 175.4 45.77 153.14 41.57" style="fill: none; stroke: #fff; stroke-miterlimit: 10; stroke-width: .16px;"/>
        <ellipse cx="172.4" cy="41.25" rx="1.61" ry=".49" style="fill: #fff; stroke-width: 0px;"/>
        <path d="m128.81,78.61c11.33-.8,21.02-1.92,29.3-3.22v-23.67c-8.28,1.23-17.97,2.17-29.3,2.69v24.19Z" style="fill: #fff; stroke: #1085a8; stroke-miterlimit: 10; stroke-width: .61px;"/>
        <path d="m208.45,27.63c-.41,1.84-1.5,4.49-4.32,7.43.6,3.23,1.68,11.59.3,25.37,3.64-2.94,4.18-5.02,4.18-5.02.06-.25.11-.5.16-.74.13-7,.28-20.29-.33-27.04Z" style="fill: #fff; stroke: #1085a8; stroke-miterlimit: 10; stroke-width: .61px;"/>
      </g>
      <g>
        <path d="m64.2,35.14l.5-1.58c-1.59-.06-2.7-.48-3.31-1.25s-.68-1.8-.22-3.1h3.35c-.18.66-.2,1.13-.06,1.42s.46.45.96.47l.92-2.86c-1.53-.34-2.55-.8-3.07-1.38s-.61-1.33-.28-2.26c.36-1.01,1.06-1.82,2.1-2.42s2.24-.91,3.65-.93l.31-.97h1.35l-.29.95c1.32.03,2.27.33,2.86.92s.77,1.42.52,2.5h-3.07c.11-.47.08-.82-.07-1.06s-.45-.37-.87-.38l-.74,2.41c1.6.37,2.67.86,3.22,1.45s.7,1.42.42,2.46c-.33,1.23-1.01,2.19-2.04,2.87s-2.44,1.07-4.19,1.17l-.48,1.56h-1.46Zm3.32-9.79l.68-2.16h-.07c-.5,0-.91.09-1.22.26s-.52.44-.64.79c-.09.27-.04.49.14.66s.55.32,1.1.45Zm-.72,5.75c.59,0,1.07-.1,1.43-.3s.6-.49.72-.88c.1-.33.05-.6-.15-.8s-.6-.38-1.22-.56l-.78,2.54Z" style="fill: #fff; stroke: #1085a8; stroke-miterlimit: 10; stroke-width: 1.04px;"/>
        <path d="m76.83,33.35l1.64-7.24h-2.87l.6-2.39c1.17-.02,2.08-.21,2.71-.57s1.11-.95,1.44-1.76h2.78l-2.35,11.96h-3.95Z" style="fill: #fff; stroke: #1085a8; stroke-miterlimit: 10; stroke-width: 1.04px;"/>
        <path d="m85.94,27.08c.34-2.03,1.04-3.53,2.12-4.53s2.47-1.47,4.23-1.47,3.06.49,3.9,1.47,1.2,2.5,1.05,4.53-.78,3.75-1.86,4.89-2.65,1.75-4.6,1.75-3.33-.59-4.15-1.76-1.03-2.79-.68-4.89Zm7.38,0c.14-1.28.1-2.17-.11-2.68s-.62-.76-1.23-.76-1.09.25-1.42.75-.58,1.4-.76,2.69-.17,2.26.04,2.8.64.82,1.29.82,1.15-.28,1.48-.83.57-1.48.71-2.79Z" style="fill: #fff; stroke: #1085a8; stroke-miterlimit: 10; stroke-width: 1.04px;"/>
        <path d="m97.98,27.08c.14-2.03.71-3.53,1.69-4.53s2.32-1.47,4.09-1.47,3.11.49,4.04,1.47,1.44,2.5,1.48,4.53-.42,3.75-1.4,4.89-2.48,1.75-4.43,1.75-3.38-.59-4.32-1.76-1.29-2.79-1.15-4.89Zm7.38,0c.01-1.28-.11-2.17-.37-2.68s-.69-.76-1.3-.76-1.07.25-1.35.75-.45,1.4-.5,2.69.05,2.26.3,2.8.71.82,1.37.82,1.12-.28,1.4-.83.43-1.48.44-2.79Z" style="fill: #fff; stroke: #1085a8; stroke-miterlimit: 10; stroke-width: 1.04px;"/>
        <path d="m111.02,36.8l-.06-1.82c.66-.09,1.14-.28,1.43-.57s.42-.68.39-1.19h-1.88l-.12-3.8h3.96l.24,3.85c.06,1-.24,1.8-.92,2.41s-1.7.99-3.04,1.11Z" style="fill: #fff; stroke: #1085a8; stroke-miterlimit: 10; stroke-width: 1.04px;"/>
        <path d="m116.06,27.08c-.15-2.03.2-3.53,1.04-4.53s2.11-1.47,3.88-1.47,3.18.49,4.25,1.47,1.8,2.5,2.13,4.53.12,3.75-.69,4.89-2.23,1.75-4.18,1.75-3.47-.59-4.57-1.76-1.7-2.79-1.85-4.89Zm7.38,0c-.17-1.28-.42-2.17-.75-2.68s-.8-.76-1.41-.76-1.03.25-1.24.75-.25,1.4-.11,2.69.37,2.26.71,2.8.83.82,1.49.82,1.08-.28,1.28-.83.21-1.48.04-2.79Z" style="fill: #fff; stroke: #1085a8; stroke-miterlimit: 10; stroke-width: 1.04px;"/>
        <path d="m128.11,27.08c-.35-2.03-.14-3.53.6-4.53s1.97-1.47,3.73-1.47,3.22.49,4.39,1.47,2.04,2.5,2.57,4.53.48,3.75-.22,4.89-2.06,1.75-4.01,1.75-3.53-.59-4.74-1.76-1.96-2.79-2.32-4.89Zm7.38,0c-.29-1.28-.63-2.17-1.01-2.68s-.87-.76-1.49-.76-1.01.25-1.17.75-.11,1.4.15,2.69.59,2.26.98,2.8.91.82,1.57.82,1.05-.28,1.2-.83.07-1.48-.23-2.79Z" style="fill: #fff; stroke: #1085a8; stroke-miterlimit: 10; stroke-width: 1.04px;"/>
        <path d="m140.15,27.08c-.54-2.03-.48-3.53.17-4.53s1.83-1.47,3.59-1.47,3.27.49,4.53,1.47,2.28,2.5,3,4.53.84,3.75.24,4.89-1.89,1.75-3.84,1.75-3.58-.59-4.91-1.76-2.23-2.79-2.79-4.89Zm7.38,0c-.42-1.28-.84-2.17-1.27-2.68s-.94-.76-1.56-.76-.99.25-1.1.75.02,1.4.4,2.69.81,2.26,1.24,2.8.99.82,1.65.82,1.03-.28,1.12-.83-.07-1.48-.5-2.79Z" style="fill: #fff; stroke: #1085a8; stroke-miterlimit: 10; stroke-width: 1.04px;"/>
      </g>
    </g>
  </g>
</svg>