<?xml version="1.0" encoding="UTF-8"?>
<svg id="_图层_2" data-name="图层 2" xmlns="http://www.w3.org/2000/svg" viewBox="0 0 210.38 79.98">
  <g id="_图层_9" data-name="图层 9">
    <g>
      <g>
        <ellipse cx="104.67" cy="28.13" rx="104.37" ry="27.82" style="fill: #1698ca; stroke: #1085a8; stroke-miterlimit: 10; stroke-width: .62px;"/>
        <path d="m104.46,9.8c-36.85,0-66.72,7.99-66.72,17.85s29.87,17.85,66.72,17.85,66.72-7.99,66.72-17.85-29.87-17.85-66.72-17.85Zm.32,33.7c-33.7,0-61.02-6.99-61.02-15.62s27.32-15.62,61.02-15.62,61.02,6.99,61.02,15.62-27.32,15.62-61.02,15.62Z" style="fill: #1085a8; stroke-width: 0px;"/>
        <path d="m45.57,36.05l3.36-1.86c-1.86-1.08-3.26-2.22-4.13-3.42l-5.89.22c1.27,1.8,3.54,3.5,6.67,5.06Z" style="fill: #fff; stroke-width: 0px;"/>
        <path d="m66.71,40.09c-3.34-.68-6.39-1.45-9.11-2.3l-4.07,1.39c3.84,1.21,8.27,2.29,13.18,3.19v-2.28Z" style="fill: #fff; stroke-width: 0px;"/>
        <path d="m95.24,43.31c-4.33-.17-8.5-.46-12.48-.86l-1.8,1.91c4.86.49,10,.83,15.33,1.01l-1.05-2.06Z" style="fill: #fff; stroke-width: 0px;"/>
        <path d="m126.39,42.49c-3.96.38-8.11.67-12.4.83l-.92,2.03c5.27-.18,10.35-.53,15.17-1.02l-1.84-1.84Z" style="fill: #fff; stroke-width: 0px;"/>
        <path d="m151.47,37.94c-2.64.8-5.58,1.54-8.79,2.19v2.16c4.64-.87,8.84-1.89,12.51-3.04l-3.71-1.31Z" style="fill: #fff; stroke-width: 0px;"/>
        <path d="m164.67,30.87c.73-.97,1.12-1.97,1.12-2.99,0-8.62-27.32-15.62-61.02-15.62s-61.02,6.99-61.02,15.62,27.32,15.62,61.02,15.62c25.16,0,46.75-3.9,56.09-9.46,1.69-1.01,2.98-2.07,3.81-3.17Z" style="fill: none; stroke-width: 0px;"/>
        <path d="m160.86,34.04l2.32,2.09c3.27-1.62,5.63-3.39,6.91-5.26h-5.42c-.83,1.1-2.12,2.16-3.81,3.17Z" style="fill: #fff; stroke-width: 0px;"/>
        <path d="m167.94,22.15l-6.12.19c2.38,1.6,3.77,3.33,3.95,5.14l5.39-.25c-.15-1.77-1.27-3.48-3.22-5.09Z" style="fill: #fff; stroke-width: 0px;"/>
        <path d="m37.74,27.51l6.05-.17c.23-1.71,1.52-3.34,3.72-4.86l-6.3-.53c-2.2,1.75-3.42,3.62-3.48,5.56Z" style="fill: #fff; stroke-width: 0px;"/>
        <path d="m52.79,16.36l.31,3.22c3.5-1.42,7.87-2.69,12.93-3.76l-3.84-1.98c-3.43.75-6.58,1.6-9.4,2.52Z" style="fill: #fff; stroke-width: 0px;"/>
        <path d="m81.05,10.93l-.96,2.67c4.95-.56,10.24-.96,15.77-1.17l-1.35-2.44c-4.66.19-9.17.5-13.46.93Z" style="fill: #fff; stroke-width: 0px;"/>
        <path d="m113.96,12.45c5.57.22,10.9.62,15.87,1.2l-.46-2.56c-4.42-.48-9.07-.83-13.9-1.04-.42.67-.99,1.58-1.5,2.41Z" style="fill: #fff; stroke-width: 0px;"/>
        <path d="m143.92,15.91c5.01,1.07,9.33,2.35,12.78,3.77l.53-2.96c-2.89-1-6.16-1.91-9.76-2.72l-3.55,1.91Z" style="fill: #fff; stroke-width: 0px;"/>
        <path d="m116.14.31l-2.72,6.98s22.44.87,24.84,1.75l11.12-6.33c-10.28-1.26-21.47-2.09-33.23-2.4Z" style="fill: #fff; stroke: #1085a8; stroke-miterlimit: 10; stroke-width: .51px;"/>
        <path d="m40.54,15.82s12.3-4.31,16.18-4.31l-13.89-5.7c-8.57,1.69-16.11,3.72-22.36,6.01l20.07,4.01Z" style="fill: #fff; stroke: #1085a8; stroke-miterlimit: 10; stroke-width: .51px;"/>
        <path d="m208.53,25.48c-.87-2.68-3.19-5.26-6.76-7.66l-23.6,2.34s6.03,3.56,5.82,5.74l24.55-.42Z" style="fill: #fff; stroke: #1085a8; stroke-miterlimit: 10; stroke-width: .51px;"/>
        <path d="m170.34,41.16s-6.47,3.2-17.74,4.62l12.67,5.15c8.83-1.67,16.69-3.68,23.32-5.96l-18.25-3.8Z" style="fill: #fff; stroke: #1085a8; stroke-miterlimit: 10; stroke-width: .54px;"/>
        <path d="m72.11,48.05l-9.13,4.95c9.71,1.13,20.2,1.89,31.2,2.18l2.11-5.54c-11,.36-24.18-1.6-24.18-1.6Z" style="fill: #fff; stroke: #1085a8; stroke-miterlimit: 10; stroke-width: .51px;"/>
        <path d="m1.88,31.57c1.37,2.66,4.17,5.21,8.21,7.57l20.24-2.68-5.36-5.48-23.09.59Z" style="fill: #fff; stroke: #1085a8; stroke-miterlimit: 10; stroke-width: .51px;"/>
        <path d="m.31,28.63s2.16,26.56,107.85,26.39c105.7-.17,100.48-29.78,100.48-29.78,0,0,3.23,16.33-.01,30.29,0,0-5.56,21.08-99.54,24.15,0,0-88.75.38-108.02-23.63L.31,28.63Z" style="fill: #1698ca; stroke: #1085a8; stroke-miterlimit: 10; stroke-width: .61px;"/>
        <ellipse cx="191.57" cy="35.65" rx="1.61" ry=".48" style="fill: #fff; stroke-width: 0px;"/>
        <ellipse cx="187.09" cy="33.7" rx="1.61" ry=".48" style="fill: #fff; stroke-width: 0px;"/>
        <ellipse cx="182.66" cy="31.62" rx="1.61" ry=".48" style="fill: #fff; stroke-width: 0px;"/>
        <ellipse cx="126.42" cy="49.42" rx="1.61" ry=".48" style="fill: #fff; stroke-width: 0px;"/>
        <ellipse cx="44.15" cy="43.62" rx="1.61" ry=".48" style="fill: #fff; stroke-width: 0px;"/>
        <ellipse cx="44.25" cy="41.29" rx="1.61" ry=".48" style="fill: #fff; stroke-width: 0px;"/>
        <ellipse cx="53.19" cy="43.62" rx="1.61" ry=".48" style="fill: #fff; stroke-width: 0px;"/>
        <ellipse cx="44.15" cy="45.95" rx="1.61" ry=".48" style="fill: #fff; stroke-width: 0px;"/>
        <ellipse cx="35.21" cy="43.5" rx="1.61" ry=".48" style="fill: #fff; stroke-width: 0px;"/>
        <ellipse cx="26.82" cy="24" rx="1.61" ry=".48" style="fill: #fff; stroke-width: 0px;"/>
        <ellipse cx="30.03" cy="20.72" rx="1.61" ry=".48" style="fill: #fff; stroke-width: 0px;"/>
        <ellipse cx="17.8" cy="19.91" rx="1.61" ry=".48" style="fill: #fff; stroke-width: 0px;"/>
        <ellipse cx="14.58" cy="23.2" rx="1.61" ry=".48" style="fill: #fff; stroke-width: 0px;"/>
        <ellipse cx="75.04" cy="4.98" rx="1.61" ry=".48" style="fill: #fff; stroke-width: 0px;"/>
        <ellipse cx="76.9" cy="6.65" rx="1.61" ry=".48" style="fill: #fff; stroke-width: 0px;"/>
        <ellipse cx="78.39" cy="8.2" rx="1.61" ry=".48" style="fill: #fff; stroke-width: 0px;"/>
        <ellipse cx="87.31" cy="4.2" rx="1.61" ry=".48" style="fill: #fff; stroke-width: 0px;"/>
        <ellipse cx="89.15" cy="5.8" rx="1.61" ry=".48" style="fill: #fff; stroke-width: 0px;"/>
        <ellipse cx="90.75" cy="7.4" rx="1.61" ry=".48" style="fill: #fff; stroke-width: 0px;"/>
        <ellipse cx="174.28" cy="12.02" rx="1.61" ry=".48" style="fill: #fff; stroke-width: 0px;"/>
        <ellipse cx="156.2" cy="12.02" rx="1.61" ry=".48" style="fill: #fff; stroke-width: 0px;"/>
        <polygon points="74.32 10.3 100.84 8.68 93.66 1.62 66.02 3.51 74.32 10.3" style="fill: none; stroke: #fff; stroke-miterlimit: 10; stroke-width: .31px;"/>
        <polygon points="11.69 17.37 4.37 24.48 31.01 26.03 37.5 19.12 11.69 17.37" style="fill: none; stroke: #fff; stroke-miterlimit: 10; stroke-width: .31px;"/>
        <polygon points="23.98 43.5 44.15 38.46 62.98 43.02 44.25 48.35 23.98 43.5" style="fill: none; stroke: #fff; stroke-miterlimit: 10; stroke-width: .31px;"/>
        <polygon points="111.55 46.46 117.79 53.22 144.28 51.62 137.61 45.01 111.55 46.46" style="fill: none; stroke: #fff; stroke-miterlimit: 10; stroke-width: .31px;"/>
        <polygon points="169.78 35.65 196 37.94 202.46 30.87 176.62 29.23 169.78 35.65" style="fill: none; stroke: #fff; stroke-miterlimit: 10; stroke-width: .31px;"/>
        <polygon points="165.1 16.85 184.09 11.54 166.07 6.87 146.4 11.54 165.1 16.85" style="fill: none; stroke: #fff; stroke-miterlimit: 10; stroke-width: .31px;"/>
        <path d="m62.98,76.81c11.54,1.43,22.57,2.15,30.88,2.51v-24.45c-11.76-.28-21.99-.96-30.88-1.91v23.86Z" style="fill: #fff; stroke: #1085a8; stroke-miterlimit: 10; stroke-width: .6px;"/>
        <path d="m165.48,74.4c9.72-1.76,17.26-3.77,23.11-5.81l-.23-23.8c-5.82,2.26-13.29,4.36-22.89,6.06v23.56Z" style="fill: #fff; stroke: #1085a8; stroke-miterlimit: 10; stroke-width: .61px;"/>
        <path d="m10.07,39.44c-4.55-2.78-6.99-5.42-8.29-7.39-1.04,5.5-.02,24.68-.01,24.83,2.01,2.27,4.66,4.31,7.79,6.14-.52-10.81.35-21.71.5-23.58Z" style="fill: #fff; stroke: #1085a8; stroke-miterlimit: 10; stroke-width: .61px;"/>
      </g>
      <g>
        <path d="m63.18,34.95l.5-1.58c-1.59-.06-2.7-.48-3.31-1.25s-.68-1.8-.22-3.1h3.35c-.18.66-.2,1.13-.06,1.42s.46.45.96.47l.92-2.86c-1.53-.34-2.55-.8-3.07-1.38s-.61-1.33-.28-2.26c.36-1.01,1.06-1.82,2.1-2.42s2.24-.91,3.65-.93l.31-.97h1.35l-.29.95c1.32.03,2.27.33,2.86.92s.77,1.42.52,2.5h-3.07c.11-.47.08-.82-.07-1.06s-.45-.37-.87-.38l-.74,2.41c1.6.37,2.67.86,3.22,1.45s.7,1.42.42,2.46c-.33,1.23-1.01,2.19-2.04,2.87s-2.44,1.07-4.19,1.17l-.48,1.56h-1.46Zm3.32-9.79l.68-2.16h-.07c-.5,0-.91.09-1.22.26s-.52.44-.64.79c-.09.27-.04.49.14.66s.55.32,1.1.45Zm-.72,5.75c.59,0,1.07-.1,1.43-.3s.6-.49.72-.88c.1-.33.05-.6-.15-.8s-.6-.38-1.22-.56l-.78,2.54Z" style="fill: #fff; stroke: #1085a8; stroke-miterlimit: 10; stroke-width: 1.04px;"/>
        <path d="m75.81,33.16l1.64-7.24h-2.87l.6-2.39c1.17-.02,2.08-.21,2.71-.57s1.11-.95,1.44-1.76h2.78l-2.35,11.96h-3.95Z" style="fill: #fff; stroke: #1085a8; stroke-miterlimit: 10; stroke-width: 1.04px;"/>
        <path d="m84.92,26.89c.34-2.03,1.04-3.53,2.12-4.53s2.47-1.47,4.23-1.47,3.06.49,3.9,1.47,1.2,2.5,1.05,4.53-.78,3.75-1.86,4.89-2.65,1.75-4.6,1.75-3.33-.59-4.15-1.76-1.03-2.79-.68-4.89Zm7.38,0c.14-1.28.1-2.17-.11-2.68s-.62-.76-1.23-.76-1.09.25-1.42.75-.58,1.4-.76,2.69-.17,2.26.04,2.8.64.82,1.29.82,1.15-.28,1.48-.83.57-1.48.71-2.79Z" style="fill: #fff; stroke: #1085a8; stroke-miterlimit: 10; stroke-width: 1.04px;"/>
        <path d="m96.96,26.89c.14-2.03.71-3.53,1.69-4.53s2.32-1.47,4.09-1.47,3.11.49,4.04,1.47,1.44,2.5,1.48,4.53-.42,3.75-1.4,4.89-2.48,1.75-4.43,1.75-3.38-.59-4.32-1.76-1.29-2.79-1.15-4.89Zm7.38,0c.01-1.28-.11-2.17-.37-2.68s-.69-.76-1.3-.76-1.07.25-1.35.75-.45,1.4-.5,2.69.05,2.26.3,2.8.71.82,1.37.82,1.12-.28,1.4-.83.43-1.48.44-2.79Z" style="fill: #fff; stroke: #1085a8; stroke-miterlimit: 10; stroke-width: 1.04px;"/>
        <path d="m110,36.61l-.06-1.82c.66-.09,1.14-.28,1.43-.57s.42-.68.39-1.19h-1.88l-.12-3.8h3.96l.24,3.85c.06,1-.24,1.8-.92,2.41s-1.7.99-3.04,1.11Z" style="fill: #fff; stroke: #1085a8; stroke-miterlimit: 10; stroke-width: 1.04px;"/>
        <path d="m115.04,26.89c-.15-2.03.2-3.53,1.04-4.53s2.11-1.47,3.88-1.47,3.18.49,4.25,1.47,1.8,2.5,2.13,4.53.12,3.75-.69,4.89-2.23,1.75-4.18,1.75-3.47-.59-4.57-1.76-1.7-2.79-1.85-4.89Zm7.38,0c-.17-1.28-.42-2.17-.75-2.68s-.8-.76-1.41-.76-1.03.25-1.24.75-.25,1.4-.11,2.69.37,2.26.71,2.8.83.82,1.49.82,1.08-.28,1.28-.83.21-1.48.04-2.79Z" style="fill: #fff; stroke: #1085a8; stroke-miterlimit: 10; stroke-width: 1.04px;"/>
        <path d="m127.09,26.89c-.35-2.03-.14-3.53.6-4.53s1.97-1.47,3.73-1.47,3.22.49,4.39,1.47,2.04,2.5,2.57,4.53.48,3.75-.22,4.89-2.06,1.75-4.01,1.75-3.53-.59-4.74-1.76-1.96-2.79-2.32-4.89Zm7.38,0c-.29-1.28-.63-2.17-1.01-2.68s-.87-.76-1.49-.76-1.01.25-1.17.75-.11,1.4.15,2.69.59,2.26.98,2.8.91.82,1.57.82,1.05-.28,1.2-.83.07-1.48-.23-2.79Z" style="fill: #fff; stroke: #1085a8; stroke-miterlimit: 10; stroke-width: 1.04px;"/>
        <path d="m139.13,26.89c-.54-2.03-.48-3.53.17-4.53s1.83-1.47,3.59-1.47,3.27.49,4.53,1.47,2.28,2.5,3,4.53.84,3.75.24,4.89-1.89,1.75-3.84,1.75-3.58-.59-4.91-1.76-2.23-2.79-2.79-4.89Zm7.38,0c-.42-1.28-.84-2.17-1.27-2.68s-.94-.76-1.56-.76-.99.25-1.1.75.02,1.4.4,2.69.81,2.26,1.24,2.8.99.82,1.65.82,1.03-.28,1.12-.83-.07-1.48-.5-2.79Z" style="fill: #fff; stroke: #1085a8; stroke-miterlimit: 10; stroke-width: 1.04px;"/>
      </g>
    </g>
  </g>
</svg>